<svg  viewBox="0 0 288 184" fill="none" xmlns="http://www.w3.org/2000/svg"><defs/><g clip-path="url(#clip0)"><path d="M101.198 63H67.819C61.292 63 56 68.293 56 74.82v33.378c0 6.526 5.292 11.819 11.82 11.819h33.378c6.526 0 11.819-5.293 11.819-11.819V74.819C113 68.293 107.724 63 101.198 63z" fill="url(#paint0_linear)"/><path d="M103.412 91.779l-8.42 8.421-.034.033-2.063 2.063c-.27.271-.626.406-.964.406-.355 0-.71-.135-.963-.406l-2.063-2.063-.034-.033-3.247-3.247 3.99-3.99 2.3 2.3 10.18-10.18c-2.757-7.051-9.57-12.056-17.552-12.056-8.032 0-14.88 5.056-17.602 12.191l10.027 10.027 3.483-3.483-2.367-2.367a1.368 1.368 0 010-1.945l2.063-2.063a1.368 1.368 0 011.944 0l2.368 2.367 2.367-2.367a1.368 1.368 0 011.944 0l2.063 2.063a1.368 1.368 0 010 1.945l-2.367 2.367-3.99 3.99-4.414 4.414-.034.034-2.063 2.062c-.27.271-.625.406-.963.406-.355 0-.71-.135-.964-.406l-2.063-2.062-.034-.034-8.234-8.235v.068c0 10.5 8.437 19.005 18.853 19.005 10.416 0 18.853-8.505 18.853-19.005v-.22z" fill="#fff"/><path d="M161.022 87.264c0 1.793.862 2.689 2.57 2.689.913 0 1.606-.372 2.08-1.1h4.092c-.829 2.69-2.892 4.042-6.189 4.042-1.014 0-1.944-.152-2.773-.44a6.528 6.528 0 01-2.164-1.268 5.655 5.655 0 01-1.387-1.978c-.321-.76-.49-1.623-.49-2.57 0-.98.152-1.86.473-2.655a5.53 5.53 0 011.336-2.012 5.58 5.58 0 012.097-1.268c.828-.288 1.741-.44 2.773-.44 1.014 0 1.927.152 2.722.44.812.304 1.488.727 2.046 1.302.558.558.981 1.251 1.285 2.08.288.811.44 1.741.44 2.756v.44h-8.911v-.017zm4.937-2.417a2.487 2.487 0 00-.862-1.404c-.44-.355-.964-.524-1.59-.524-.659 0-1.183.169-1.606.507-.406.338-.676.812-.778 1.42h4.836zM176.375 87.264c0 1.793.862 2.689 2.57 2.689.913 0 1.606-.372 2.08-1.1h4.092c-.829 2.69-2.892 4.042-6.189 4.042-1.014 0-1.944-.152-2.773-.44a6.528 6.528 0 01-2.164-1.268 5.655 5.655 0 01-1.387-1.978c-.321-.76-.49-1.623-.49-2.57 0-.98.152-1.86.473-2.655a5.53 5.53 0 011.336-2.012 5.58 5.58 0 012.097-1.268c.828-.288 1.741-.44 2.773-.44 1.014 0 1.927.152 2.722.44.812.304 1.488.727 2.046 1.302.558.558.981 1.251 1.285 2.08.288.811.44 1.741.44 2.756v.44h-8.911v-.017zm4.954-2.417a2.487 2.487 0 00-.862-1.404c-.44-.355-.964-.524-1.59-.524-.659 0-1.183.169-1.606.507-.406.338-.676.812-.778 1.42h4.836zM209.415 84.627a.544.544 0 01-.439.152.545.545 0 01-.44-.152l-4.532-4.481a.53.53 0 010-.744l1.353-1.336a.552.552 0 01.761 0l2.824 2.79 5.614-5.783a7.212 7.212 0 00-5.022-2.03 7.217 7.217 0 00-7.221 7.221c0 3.99 3.23 7.22 7.221 7.22a7.217 7.217 0 006.797-9.655l-6.916 6.798zM125.056 94.552l2.706 10.129 3.331-10.129h3.246l3.332 10.129 2.705-10.129h4.261l-4.684 15.692h-4.159l-3.078-9.097-3.077 9.097h-4.16l-4.684-15.692h4.261zM153.446 99.574h3.788v10.67h-3.788v-1.184c-.811 1.015-1.893 1.522-3.263 1.522-.778 0-1.488-.135-2.147-.423a5.035 5.035 0 01-1.708-1.2 5.367 5.367 0 01-1.133-1.81 6.189 6.189 0 01-.406-2.265c0-.761.135-1.488.389-2.182.271-.693.626-1.285 1.099-1.792a5.36 5.36 0 011.691-1.217c.659-.305 1.37-.44 2.164-.44 1.336 0 2.435.457 3.314 1.386v-1.065zm-4.734 5.31c0 .355.068.676.186.963.118.305.287.558.507.778.22.22.474.389.778.524a2.544 2.544 0 001.911 0c.304-.118.558-.304.778-.524.219-.22.388-.473.524-.778a2.269 2.269 0 000-1.876 2.542 2.542 0 00-.524-.778 2.519 2.519 0 00-.778-.524 2.247 2.247 0 00-.947-.186c-.338 0-.677.067-.964.186a2.254 2.254 0 00-.778.524c-.22.22-.389.473-.507.761a2.129 2.129 0 00-.186.93zM159.788 99.574h3.77v1.742c.406-.643.896-1.133 1.471-1.471.575-.338 1.269-.508 2.046-.508h.322c.118 0 .253.017.405.034v3.602a3.566 3.566 0 00-1.623-.372c-.879 0-1.522.253-1.961.778-.44.524-.66 1.285-.66 2.282v4.583h-3.77v-10.67zM169.493 99.574h3.771v1.742c.406-.643.896-1.133 1.471-1.471.575-.338 1.268-.508 2.046-.508h.321c.119 0 .254.017.406.034v3.602a3.566 3.566 0 00-1.623-.372c-.88 0-1.522.253-1.962.778-.439.524-.659 1.285-.659 2.282v4.583h-3.771v-10.67zM187.552 99.574h3.788v10.67h-3.788v-1.184c-.812 1.015-1.894 1.522-3.264 1.522-.777 0-1.488-.135-2.147-.423a5.054 5.054 0 01-1.708-1.2 5.398 5.398 0 01-1.133-1.81 6.21 6.21 0 01-.405-2.265c0-.761.135-1.488.388-2.182.271-.693.626-1.285 1.1-1.792a5.344 5.344 0 011.69-1.217c.66-.305 1.37-.44 2.165-.44 1.336 0 2.435.457 3.314 1.386v-1.065zm-4.752 5.31c0 .355.068.676.186.963.119.305.288.558.508.778.22.22.473.389.778.524a2.537 2.537 0 001.91 0c.305-.118.558-.304.778-.524.22-.22.389-.473.524-.778.136-.304.203-.608.203-.93 0-.338-.067-.642-.203-.946a2.507 2.507 0 00-.524-.778 2.507 2.507 0 00-.778-.524 2.24 2.24 0 00-.947-.186c-.338 0-.676.067-.963.186a2.245 2.245 0 00-.778.524 2.404 2.404 0 00-.694 1.691zM193.893 99.574h3.77v1.353c.508-.626 1.032-1.049 1.556-1.252.524-.22 1.15-.321 1.843-.321.744 0 1.386.118 1.928.372.541.237.98.592 1.369 1.031.305.356.507.761.626 1.201.118.44.169.947.169 1.522v6.78h-3.771v-5.394c0-.524-.034-.947-.118-1.285-.085-.321-.22-.592-.406-.778a1.427 1.427 0 00-.558-.355 2.092 2.092 0 00-.659-.101c-.643 0-1.133.186-1.471.575-.339.389-.508.93-.508 1.64v5.698h-3.77V99.574zM211.901 102.719v7.525h-3.771v-7.525h-1.251v-3.145h1.251v-3.196h3.771v3.196h2.147v3.145h-2.147zM219.324 108.79l-5.157-9.216h4.362l2.858 5.479 2.773-5.479h4.328l-8.572 15.996h-4.228l3.636-6.78zM148.915 83.341l6.983-8.2h-5.647l-5.58 7.135v-7.135h-4.329v17.297h4.329v-7.49l5.952 7.49h5.918l-7.626-9.097zM200.622 84.187a6.089 6.089 0 00-1.268-1.996 5.966 5.966 0 00-4.312-1.826c-1.555 0-2.79.558-3.686 1.674v-1.302h-3.804V97.46h3.804v-6.104c.998 1.015 2.232 1.522 3.737 1.522.862 0 1.657-.152 2.384-.474a5.583 5.583 0 001.894-1.335 6.013 6.013 0 001.268-1.979 6.358 6.358 0 00.457-2.435 7.03 7.03 0 00-.474-2.468zm-4.176 3.466a2.713 2.713 0 01-.592.845c-.237.237-.524.44-.845.575a2.7 2.7 0 01-1.049.203c-.372 0-.727-.067-1.065-.22a3.157 3.157 0 01-.879-.575 2.714 2.714 0 01-.592-.845 2.616 2.616 0 01-.203-1.031c0-.372.068-.71.22-1.049.152-.321.338-.608.592-.862a2.67 2.67 0 01.845-.575 2.69 2.69 0 011.048-.203c.389 0 .744.068 1.083.22.338.152.625.338.879.592.253.237.439.524.575.862a2.7 2.7 0 01.203 1.048c0 .355-.068.694-.22 1.015z" fill="#2462A8"/></g><defs><linearGradient id="paint0_linear" x1="56" y1="91.503" x2="113.006" y2="91.503" gradientUnits="userSpaceOnUse"><stop stop-color="#2462A8"/><stop offset="1" stop-color="#538CCA"/></linearGradient><clipPath id="clip0"><path fill="#fff" d="M56 63h172.488v57H56z"/></clipPath></defs></svg>