<svg viewBox="0 0 184 184" fill="none" xmlns="http://www.w3.org/2000/svg"><g clip-path="url(#prefix__clip0)"><path d="M46.209 78.019c-4.03 0-6.545.799-8.744 3.68l2.449 2.265c1.465-2.065 3.08-2.814 6.245-2.814 4.53 0 6.328 1.815 6.328 5.429v2.365h-7.444c-5.53 0-8.544 2.814-8.544 7.144 0 1.966.65 3.814 1.866 5.03 1.565 1.615 3.58 2.265 6.994 2.265 3.315 0 5.13-.65 7.145-2.665v2.365h3.614V86.279c-.017-5.396-3.28-8.26-9.91-8.26zm6.278 16.304c0 2.065-.4 3.464-1.265 4.28-1.549 1.516-3.414 1.666-5.53 1.666-3.93 0-5.678-1.35-5.678-4.23 0-2.865 1.815-4.38 5.529-4.38h6.944v2.664zm83.271-5.18l-3.98-.35c-3.114-.249-4.313-1.515-4.313-3.63 0-2.514 1.898-4.08 5.529-4.08 2.565 0 4.83.6 6.595 1.965l2.365-2.365c-2.215-1.815-5.38-2.664-8.894-2.664-5.279 0-9.109 2.714-9.109 7.244 0 4.08 2.564 6.245 7.394 6.645l4.08.35c2.865.25 4.114 1.466 4.114 3.614 0 2.914-2.515 4.38-6.578 4.38-3.065 0-5.73-.8-7.695-2.865l-2.415 2.415c2.715 2.615 5.979 3.581 10.159 3.581 5.979 0 10.06-2.765 10.06-7.561-.034-4.613-2.998-6.279-7.312-6.678zM74.554 81.25c-2.015-2.614-4.213-3.214-6.945-3.214-2.514 0-4.73.85-6.028 2.165-2.465 2.465-3.015 6.296-3.015 10.326 0 4.014.55 7.844 3.015 10.309 1.299 1.316 3.464 2.215 5.979 2.215 2.664 0 4.93-.65 6.944-3.214v3.88c0 4.23-2.015 7.594-6.795 7.594-2.864 0-4.113-.849-5.928-2.464l-2.365 2.314c2.614 2.365 4.68 3.315 8.393 3.315 6.496 0 10.31-4.48 10.31-10.609V78.335h-3.565v2.915zm-6.178 18.503c-5.38 0-6.18-4.63-6.18-9.243 0-4.63.8-9.26 6.18-9.26 5.379 0 6.128 4.63 6.128 9.26.017 4.614-.75 9.243-6.128 9.243zm49.712-20.251c-1.948-1.183-4.33-1.482-6.578-1.482-2.798 0-5.579.45-7.678 2.464-.133.134-1.149 1.15-1.049 1.25.25.233.5.45.75.682.566.517 1.115 1.033 1.682 1.55 1.099-1.566 2.564-2.466 4.463-2.716 1.882-.25 4.147-.216 5.846.7 1.382.75 2.048 2.132 2.215 3.664.033.333.083 3.33.05 3.33h-6.845c-1.566 0-3.098.1-4.597.634-2.182.782-3.797 2.548-5.246 4.28-1.249 1.482-2.315 3.097-3.814 4.33-.966.8-2.015 1.465-3.247 1.782-1.116.283-2.332.316-3.481.183-1.649-.2-3.214-.916-4.297-2.215-1.182-1.416-1.665-3.28-1.799-5.08-.033-.4-.05-.799-.05-1.199h16.705V90.06c0-3.614-.933-7.561-3.847-9.943-2.698-2.215-6.779-2.648-9.993-1.449-3.38 1.266-5.33 4.447-6.062 7.844-.466 2.182-.516 4.464-.283 6.679.2 1.882.666 3.763 1.599 5.412 1.632 2.898 4.563 4.447 7.81 4.713 2.249.2 4.614-.033 6.662-1.016 1.999-.966 4.164-3.214 5.396-4.93.217 1.683.933 3.665 2.298 4.614 1.216.849 2.698 1.182 4.147 1.316 1.716.15 3.548.166 5.23-.3 1.449-.4 2.664-1.233 3.73-2.298v2.348c0 .033.283.017.317.017h3.297V89.36c0-1.849.167-3.83-.283-5.629-.433-1.765-1.482-3.28-3.048-4.23zm-32.925 5.313c1.299-3.065 4.913-4.447 7.994-3.348a6.053 6.053 0 013.414 2.998c.7 1.415.833 2.93.916 4.48H84.414c.066-1.433.216-2.782.749-4.13zm32.642 9.51c0 1.115-.083 2.28-.566 3.297-.433.916-1.282 1.582-2.182 1.998-1.032.483-2.181.6-3.314.633-1.082.033-2.198 0-3.264-.25-1.549-.383-2.765-1.332-3.064-2.964-.284-1.55.049-3.331 1.365-4.33 1.199-.916 2.815-1.066 4.264-1.066h6.711c.1.016.05 2.365.05 2.681z" fill="url(#prefix__paint0_linear)"/><path d="M145.084 100.818h-.399v.766h.399c.234 0 .4-.166.4-.366.017-.233-.166-.4-.4-.4zm.417 1.899l-.5-.883h-.333v.883h-.3v-2.165h.733c.367 0 .683.283.683.649 0 .317-.2.5-.466.583l.516.916h-.333v.017zm-.466-2.765c-.916 0-1.649.749-1.649 1.682 0 .933.733 1.682 1.649 1.682s1.665-.766 1.665-1.682c-.017-.916-.766-1.682-1.665-1.682zm0 3.664a1.97 1.97 0 01-1.966-1.965c0-1.099.883-1.965 1.966-1.965 1.082 0 1.965.882 1.965 1.965a1.97 1.97 0 01-1.965 1.965zM37.216 72.49l1.216.182c.05.383.2.65.416.817.317.233.733.35 1.266.35.583 0 1.033-.117 1.349-.35.316-.234.533-.55.633-.983.067-.25.1-.8.083-1.616-.55.65-1.232.966-2.048.966-1.016 0-1.799-.366-2.365-1.099-.55-.733-.833-1.615-.833-2.631 0-.7.133-1.35.383-1.949.25-.6.633-1.049 1.116-1.382.5-.316 1.066-.483 1.732-.483.866 0 1.599.35 2.165 1.066v-.9h1.15v6.396c0 1.149-.117 1.965-.35 2.448-.234.483-.6.866-1.116 1.132-.517.284-1.133.417-1.882.417-.883 0-1.6-.2-2.132-.6-.55-.383-.816-.982-.783-1.782zm1.033-4.447c0 .965.2 1.682.583 2.115.383.45.866.666 1.449.666.583 0 1.066-.217 1.449-.666.383-.45.582-1.133.582-2.082 0-.9-.2-1.582-.6-2.049-.399-.466-.882-.682-1.448-.682-.55 0-1.033.233-1.416.682-.4.45-.6 1.133-.6 2.016zM46.775 71.873v-7.394h1.133v1.115c.283-.516.55-.866.8-1.032.25-.167.516-.25.799-.25.416 0 .849.133 1.282.4l-.433 1.165a1.755 1.755 0 00-.916-.266c-.266 0-.516.083-.733.25-.216.166-.366.4-.466.683a5.1 5.1 0 00-.216 1.465v3.864h-1.25zM57.817 71.874V70.79c-.583.833-1.365 1.249-2.348 1.249-.433 0-.85-.083-1.216-.25-.383-.166-.666-.383-.85-.633a2.25 2.25 0 01-.382-.932c-.05-.25-.084-.633-.084-1.166v-4.58h1.25v4.097c0 .65.033 1.1.083 1.316.083.333.25.583.5.782.25.184.566.283.949.283s.733-.1 1.066-.283c.333-.2.566-.45.7-.782.132-.334.199-.816.199-1.45V64.48h1.249v7.395h-1.116zM62.314 74.704V64.48h1.15v.966c.266-.384.565-.667.915-.85.333-.183.75-.283 1.233-.283.632 0 1.182.167 1.665.483.483.333.85.783 1.1 1.382.249.6.366 1.233.366 1.949 0 .75-.134 1.432-.4 2.048a3.15 3.15 0 01-1.183 1.4 3.098 3.098 0 01-1.632.482c-.416 0-.8-.083-1.132-.266-.333-.184-.6-.4-.816-.666v3.597h-1.266v-.017zm1.15-6.495c0 .95.199 1.649.582 2.115.383.45.85.683 1.399.683.55 0 1.033-.233 1.432-.7.4-.466.6-1.199.6-2.181 0-.95-.2-1.649-.583-2.115-.383-.467-.85-.7-1.382-.7-.533 0-1 .25-1.416.75-.433.483-.633 1.199-.633 2.148zM71.207 68.176c0-1.366.383-2.382 1.15-3.048.632-.55 1.415-.816 2.33-.816 1.017 0 1.85.333 2.499 1 .65.665.966 1.581.966 2.764 0 .95-.15 1.699-.433 2.248-.283.55-.7.966-1.25 1.266-.549.3-1.132.45-1.781.45-1.033 0-1.865-.334-2.515-1-.65-.666-.966-1.615-.966-2.864zm1.282 0c0 .95.2 1.648.617 2.132.416.466.932.699 1.565.699.616 0 1.133-.233 1.549-.716.416-.466.616-1.2.616-2.165 0-.916-.2-1.599-.616-2.082a1.993 1.993 0 00-1.549-.7c-.633 0-1.149.234-1.565.7-.4.483-.617 1.183-.617 2.132zM85.396 119.82v-10.226h1.15v.966c.266-.383.565-.666.915-.849.333-.183.75-.283 1.233-.283.632 0 1.182.166 1.665.483.483.333.85.782 1.1 1.382.249.6.365 1.232.365 1.949 0 .749-.133 1.432-.4 2.048a3.148 3.148 0 01-1.182 1.399 3.103 3.103 0 01-1.632.483c-.416 0-.8-.083-1.132-.267a2.689 2.689 0 01-.816-.666v3.598h-1.266v-.017zm1.132-6.479c0 .95.2 1.649.583 2.116.383.449.85.682 1.4.682.549 0 1.032-.233 1.432-.699.4-.466.6-1.199.6-2.182 0-.949-.2-1.649-.584-2.115-.383-.466-.85-.699-1.382-.699-.533 0-1 .249-1.416.749-.416.466-.633 1.183-.633 2.148zM94.006 113.292c0-1.366.383-2.382 1.15-3.048.632-.55 1.415-.816 2.331-.816 1.016 0 1.849.333 2.498.999.65.666.966 1.582.966 2.765 0 .949-.15 1.698-.433 2.248a2.96 2.96 0 01-1.249 1.266c-.55.299-1.15.449-1.782.449-1.032 0-1.865-.333-2.515-.999-.65-.666-.966-1.615-.966-2.864zm1.283 0c0 .949.2 1.648.616 2.131.416.467.933.7 1.565.7.617 0 1.133-.233 1.55-.716.416-.467.615-1.2.615-2.165 0-.916-.2-1.616-.616-2.082a1.992 1.992 0 00-1.549-.7c-.632 0-1.149.233-1.565.7-.4.483-.616 1.182-.616 2.132zM103.532 116.989v-7.395h1.133v1.116c.283-.516.549-.866.799-1.032.25-.167.516-.25.8-.25.416 0 .849.133 1.282.399l-.433 1.166a1.756 1.756 0 00-.916-.266 1.18 1.18 0 00-.733.25c-.216.166-.366.399-.466.682-.133.45-.217.933-.217 1.466v3.864h-1.249zM112.176 115.873l.183 1.099c-.35.067-.666.116-.949.116-.45 0-.8-.066-1.066-.216-.25-.15-.433-.333-.533-.566-.1-.233-.15-.733-.15-1.482v-4.247h-.916v-.983h.916v-1.832l1.249-.749v2.581h1.266v.983h-1.266v4.33c0 .35.017.583.067.683.05.1.116.183.216.249.1.067.25.084.433.084.134 0 .317-.017.55-.05zM119.387 116.989v-1.083c-.583.833-1.366 1.249-2.348 1.249-.433 0-.85-.083-1.216-.25-.383-.166-.666-.383-.849-.632a2.237 2.237 0 01-.383-.933c-.05-.25-.084-.633-.084-1.166v-4.58h1.249v4.097c0 .65.034 1.099.084 1.316.083.333.249.583.499.783.25.183.567.283.95.283s.732-.1 1.065-.283c.334-.2.567-.45.7-.783s.2-.816.2-1.449v-3.964h1.249v7.395h-1.116zM123.384 117.605l1.216.183c.05.383.2.65.433.816.316.233.733.35 1.282.35.583 0 1.033-.117 1.349-.35.317-.233.533-.549.633-.982.067-.25.1-.8.083-1.616-.549.65-1.232.966-2.048.966-1.016 0-1.799-.366-2.365-1.099-.55-.733-.833-1.616-.833-2.631 0-.7.134-1.349.383-1.949.25-.6.633-1.049 1.116-1.382.483-.333 1.049-.483 1.716-.483.866 0 1.598.349 2.165 1.066v-.9h1.149v6.395c0 1.15-.117 1.966-.35 2.449-.233.483-.6.866-1.116 1.132-.516.283-1.132.416-1.882.416-.882 0-1.599-.199-2.132-.599-.566-.383-.832-.983-.799-1.782zm1.033-4.447c0 .966.2 1.682.583 2.132.383.45.866.666 1.448.666.583 0 1.066-.216 1.449-.666.383-.45.583-1.132.583-2.082 0-.899-.2-1.582-.599-2.048-.4-.467-.883-.683-1.449-.683-.55 0-1.033.233-1.416.683-.4.433-.599 1.116-.599 1.998zM137.507 116.073a4.81 4.81 0 01-1.333.832c-.433.167-.882.25-1.382.25-.816 0-1.432-.2-1.865-.599-.433-.4-.65-.9-.65-1.516 0-.366.084-.699.25-.999.167-.3.383-.533.65-.716.266-.183.566-.317.899-.417.25-.066.616-.133 1.116-.183 1.016-.116 1.749-.266 2.231-.433v-.333c0-.516-.116-.866-.349-1.082-.317-.283-.8-.417-1.433-.417-.582 0-1.032.1-1.299.317-.283.2-.483.566-.616 1.099l-1.232-.167c.116-.516.3-.949.549-1.265.25-.317.617-.567 1.1-.75a5.179 5.179 0 011.682-.266c.633 0 1.149.066 1.532.216.4.15.683.333.866.566.183.234.316.517.383.85.033.216.067.599.067 1.149v1.665c0 1.166.033 1.899.083 2.215.05.317.166.6.316.883h-1.315a2.36 2.36 0 01-.25-.899zm-.1-2.798c-.45.183-1.133.35-2.049.466-.516.067-.882.15-1.099.25-.216.1-.383.233-.499.4a1.083 1.083 0 00-.167.599c0 .333.133.616.383.833.25.216.616.333 1.116.333.483 0 .916-.1 1.282-.316.383-.217.65-.5.833-.866.133-.284.2-.7.2-1.249v-.45zM141.721 116.989V106.78h1.249v10.209h-1.249z" fill="#646464"/></g><defs><linearGradient id="prefix__paint0_linear" x1="36.499" y1="96.221" x2="143.044" y2="96.221" gradientUnits="userSpaceOnUse"><stop offset=".005" stop-color="#D30773"/><stop offset=".106" stop-color="#DA1A60"/><stop offset=".311" stop-color="#EA4B2E"/><stop offset=".353" stop-color="#EE5623"/><stop offset=".547" stop-color="#EE5623"/><stop offset=".58" stop-color="#EE5623"/><stop offset=".594" stop-color="#C76B3A"/><stop offset=".621" stop-color="#819064"/><stop offset=".645" stop-color="#49AE85"/><stop offset=".665" stop-color="#21C39D"/><stop offset=".681" stop-color="#09D0AC"/><stop offset=".691" stop-color="#00D5B1"/><stop offset="1" stop-color="#33D9EC"/></linearGradient><clipPath id="prefix__clip0"><path fill="#fff" d="M36.499 64.313h110.5v55.675h-110.5z"/></clipPath></defs></svg>