<svg width="80" height="75" viewBox="0 0 80 75" fill="none" xmlns="http://www.w3.org/2000/svg">
<path d="M54.9828 18.5542C54.2418 18.4609 53.4917 18.413 52.7514 18.413C46.2766 18.413 41.2705 21.8752 37.9309 25.2442C34.7201 18.6953 29.7004 14.4891 23.6548 13.3284C22.7148 13.1481 21.7439 13.0562 20.7664 13.0562C13.4958 13.0562 5.62159 18.2678 2.04304 25.4492C-1.56641 32.6949 -0.389893 40.6013 5.54381 48.9475C11.5173 57.3513 18.9721 64.6622 26.182 71.7334L27.6681 73.1916C28.2331 74.2631 29.3077 74.9429 30.4678 74.9437C30.9492 74.9437 31.425 74.828 31.8811 74.6L34.4871 73.3057C43.5333 68.8148 52.8869 64.1723 61.1707 58.031C69.397 51.9335 72.9656 44.7812 71.7768 36.7727C70.5804 28.7064 63.9715 19.6858 54.9828 18.5542Z" fill="#FFBA02"/>
<path d="M62.9828 10.5542C62.2418 10.4609 61.4917 10.413 60.7514 10.413C54.2766 10.413 49.2705 13.8752 45.9309 17.2442C42.7201 10.6953 37.7004 6.48908 31.6548 5.32839C30.7148 5.1481 29.7439 5.05615 28.7664 5.05615C21.4958 5.05615 13.6216 10.2678 10.043 17.4492C6.43359 24.6949 7.61011 32.6013 13.5438 40.9475C19.5173 49.3513 26.9721 56.6622 34.182 63.7334L35.6681 65.1916C36.2331 66.2631 37.3077 66.9429 38.4678 66.9437C38.9492 66.9437 39.425 66.828 39.8811 66.6L42.4871 65.3057C51.5333 60.8148 60.8869 56.1723 69.1707 50.031C77.397 43.9335 80.9656 36.7812 79.7768 28.7727C78.5804 20.7064 71.9715 11.6858 62.9828 10.5542ZM73.9096 33.259C73.6164 40.1094 65.9283 45.0236 60.8419 48.2767C53.9085 52.7087 46.4582 56.4495 39.2225 60.0532C33.3534 54.2841 27.3072 48.3167 22.0075 41.8585C18.178 37.1915 12.3899 30.1387 14.2328 23.5336C15.8976 17.5678 22.0508 11.1813 28.5556 11.1813C28.9735 11.1813 29.3934 11.2089 29.8045 11.2621C37.329 12.2442 40.6069 19.7234 41.7271 23.1614C41.6785 23.8533 41.8994 24.5308 42.3659 25.0977C42.9844 25.85 43.9443 26.2998 44.9336 26.2998C45.9609 26.2998 46.8917 25.803 47.4888 24.9362C49.2217 22.421 53.982 16.5687 60.754 16.5687C61.468 16.5687 62.1914 16.6361 62.9041 16.7704C69.5534 18.0138 74.1981 26.5018 73.9096 33.259Z" fill="black"/>
</svg>
