<?xml version="1.0" encoding="UTF-8"?><svg width="306" height="78" fill="none" xmlns="http://www.w3.org/2000/svg"><path fill="#122675" stroke="#122675" stroke-width="2" d="M1 1h38v38H1z"/><path d="M13.45 29h5.25v-5.2h3c4.725 0 7.675-2.5 7.675-6.35 0-3.85-2.925-6.35-7.625-6.35h-8.3V29zm5.25-9v-5.1h2.45c1.775 0 2.95 1 2.95 2.55C24.1 19 22.925 20 21.15 20H18.7z" fill="#fff"/><path stroke="#122675" stroke-width="2" d="M39 1h38v38H39z"/><path d="M51.425 29H56.7v-5.9h1.275l4.45 5.9H68.3l-5.275-6.3.2-.05c2.6-.475 4.5-2.525 4.5-5.45 0-3.65-2.9-6.1-7.275-6.1h-9.025V29zm5.275-9.325V14.9h2.825c1.675 0 2.925.9 2.925 2.375 0 1.5-1.25 2.4-2.925 2.4H56.7z" fill="#122675"/><path stroke="#122675" stroke-width="2" d="M77 1h38v38H77z"/><path d="M89.425 29h14.025v-4.15h-8.925v-3.175h8.2V18.25h-8.2v-3h8.675V11.1H89.425V29z" fill="#122675"/><path stroke="#122675" stroke-width="2" d="M115 1h38v38h-38z"/><path d="M133.95 29.375c5 0 8.275-2.3 8.275-5.85 0-4.325-4.125-4.975-7.175-5.425-2.075-.3-3.85-.525-3.85-1.875 0-1 1-1.7 2.675-1.7 1.8 0 2.975.9 2.975 2.475h4.775c0-3.7-3.175-6.25-7.925-6.25-4.725 0-7.775 2.3-7.775 5.85 0 4.6 4.65 4.975 7.725 5.4 1.825.25 3.3.55 3.3 1.85 0 1.1-1.1 1.725-2.8 1.725-2.15 0-3.375-.975-3.4-2.475h-4.95c0 3.7 3.25 6.275 8.15 6.275z" fill="#122675"/><path stroke="#122675" stroke-width="2" d="M153 1h38v38h-38z"/><path d="M165.425 29h14.025v-4.15h-8.925v-3.175h8.2V18.25h-8.2v-3h8.675V11.1h-13.775V29z" fill="#122675"/><path stroke="#122675" stroke-width="2" d="M191 1h38v38h-38z"/><path d="M202.425 29h5.275v-5.9h1.275l4.45 5.9h5.875l-5.275-6.3.2-.05c2.6-.475 4.5-2.525 4.5-5.45 0-3.65-2.9-6.1-7.275-6.1h-9.025V29zm5.275-9.325V14.9h2.825c1.675 0 2.925.9 2.925 2.375 0 1.5-1.25 2.4-2.925 2.4H207.7z" fill="#122675"/><path stroke="#122675" stroke-width="2" d="M229 1h38v38h-38z"/><path d="M244.525 29h8.225l5.3-17.9h-5.45l-3.825 14.025h-.25L244.65 11.1h-5.4l5.275 17.9z" fill="#122675"/><path stroke="#122675" stroke-width="2" d="M267 1h38v38h-38z"/><path d="M279.425 29h14.025v-4.15h-8.925v-3.175h8.2V18.25h-8.2v-3h8.675V11.1h-13.775V29z" fill="#122675"/><path stroke="#122675" stroke-width="2" d="M39 39h38v38H39z"/><path fill-rule="evenodd" clip-rule="evenodd" d="M76 38h154v40H76V38zm12.447 23.52c1.857 1.246 4.185 1.81 5.572 1.81 1.387 0 2.445-.564 2.445-1.858 0-1.339-1.121-1.669-2.77-2.153-.348-.102-.72-.212-1.11-.339C90.165 58.204 88 57.03 88 53.972c0-3.245 2.469-5.267 6.113-5.267 1.716 0 3.81.424 5.337 1.247v3.785c-1.857-1.152-3.997-1.693-5.36-1.693-1.294 0-2.234.494-2.234 1.646 0 1.266 1.08 1.578 2.615 2.02.346.1.715.206 1.1.331 2.633.87 4.749 2.093 4.749 5.196 0 3.41-2.586 5.455-6.348 5.455-1.74 0-3.88-.447-5.525-1.293v-3.88zm18.01-10.722c0-1.152-.964-2.093-2.116-2.093-1.176 0-2.14.94-2.116 2.093 0 1.152.964 2.093 2.116 2.093 1.152 0 2.116-.94 2.116-2.093zm18.081 8.77c0-.893-.141-1.293-.423-1.622-.33-.353-.776-.518-1.247-.518-.846 0-1.716.424-2.327.988.023.165.023.353.023.54v7.454h-3.668v-6.842c0-.8-.117-1.27-.423-1.622-.329-.353-.776-.518-1.246-.518-.846 0-1.716.47-2.304.964v7.994h-3.715V54.56h3.621v1.058l.047.023c.917-.775 2.116-1.34 3.574-1.34 1.269 0 2.751.494 3.456 1.693 1.27-1.128 2.68-1.693 4.162-1.693 1.316 0 2.374.447 3.056 1.176.753.776 1.082 1.81 1.082 3.503v7.453h-3.668v-6.865zm6.654 11.827h3.668v-5.479l.047-.023c.54.258 1.316.447 2.28.447 3.48 0 6.208-2.493 6.208-6.302 0-3.668-2.587-6.09-5.62-6.09-1.175 0-2.163.353-2.939.894l-.047-.023v-.588h-3.597v17.164zm8.511-11.145c0 1.763-1.058 3.127-2.962 3.127-.729 0-1.411-.212-1.881-.423v-5.267a3.265 3.265 0 011.975-.658c1.81 0 2.868 1.434 2.868 3.22zM145.769 48h3.668v18.41h-3.668V48zm13.191 15.589c-1.693 0-3.057-.753-3.457-2.399v-.023h8.065c.047-.306.071-.847.071-1.246 0-3.974-2.751-5.902-5.667-5.902-3.292 0-6.231 2.469-6.231 6.254 0 3.715 2.822 6.16 6.725 6.16 1.575 0 3.362-.352 4.514-1.081v-3.057c-1.246.847-2.704 1.294-4.02 1.294zm-1.035-6.748c1.176 0 2.116.776 2.328 2.045h-4.773c.329-1.34 1.316-2.045 2.445-2.045zm7.759 5.384c1.646.964 3.55 1.364 4.679 1.364 1.011 0 1.622-.26 1.622-.917 0-.673-.707-.802-1.789-.998a20.149 20.149 0 01-1.314-.272c-2.234-.564-3.574-1.505-3.574-3.456.023-2.516 2.234-3.927 5.196-3.927 1.411 0 3.174.282 4.538.94v3.151c-1.575-.893-3.409-1.27-4.467-1.27-.964 0-1.552.283-1.552.847 0 .647.701.774 1.785.97.375.068.795.144 1.248.253 2.257.564 3.644 1.41 3.644 3.48-.023 2.61-2.28 4.02-5.337 4.02-1.411 0-3.245-.282-4.679-.987v-3.198zm48.705-1.639h-.988l-.964 5.455h.988l.964-5.455zm.564-1.928a.678.678 0 00-.682-.658c-.423 0-.752.33-.729.729 0 .353.282.658.659.658.399 0 .752-.329.752-.729zm-30.966 4.962c0 1.105.753 1.669 1.764 1.669.658 0 1.316-.235 1.74-.47l-.188 1.034c-.471.212-1.105.33-1.623.33-1.481 0-2.68-.824-2.68-2.493 0-.8.282-1.622.776-2.21a2.81 2.81 0 012.186-1.011c1.294 0 2.234.87 2.234 2.21 0 .306-.047.658-.117.94h-4.092zm.118-.8h3.151v-.117c0-.776-.447-1.34-1.341-1.34-.846 0-1.528.54-1.81 1.457zm6.913-2.234h-1.011l-.988 5.455h1.035l.658-3.809c.588-.447 1.27-.846 1.904-.846.612 0 .87.352.87.917 0 .164-.023.352-.07.658l-.541 3.08h1.011l.564-3.15c.071-.377.094-.588.094-.776 0-1.035-.681-1.67-1.645-1.67-.753 0-1.411.353-1.975.8h-.024l.118-.659zm5.666 3.034c0 1.105.752 1.669 1.763 1.669.659 0 1.317-.235 1.74-.47l-.188 1.034c-.47.212-1.105.33-1.622.33-1.481 0-2.68-.824-2.68-2.493 0-.8.282-1.622.775-2.21a2.814 2.814 0 012.187-1.011c1.293 0 2.234.87 2.234 2.21 0 .306-.047.658-.118.94h-4.091zm.118-.8h3.15v-.117c0-.776-.447-1.34-1.34-1.34-.846 0-1.528.54-1.81 1.457zm6.912-2.234h-1.011l-.917 5.455h.988l.611-3.41c.541-.704 1.293-1.128 2.069-1.128.066 0 .14.008.204.014.05.005.094.01.125.01l.165-.964c-.118-.024-.235-.024-.353-.024-.705 0-1.552.4-2.022.988h-.024l.165-.94zm3.362.776c.565-.587 1.388-.893 2.281-.893.729 0 1.505.212 2.21.54l-.893 5.056c-.329 1.857-1.458 2.563-2.939 2.563a4.186 4.186 0 01-1.952-.47l.188-1.035c.47.352 1.152.611 1.811.611.87 0 1.669-.47 1.881-1.599l.094-.517c-.353.235-.753.447-1.364.447-1.293 0-2.234-.94-2.234-2.328-.023-.87.306-1.763.917-2.375zm1.482 3.81c.493 0 .94-.212 1.34-.495l.541-3.08a3.65 3.65 0 00-1.223-.235c-.658 0-1.152.259-1.481.635-.4.423-.612 1.035-.612 1.623 0 .94.588 1.551 1.435 1.551zm10.345.893h.987l.894-4.985c-.682-.329-1.434-.611-2.234-.611-.799 0-1.646.282-2.28.94-.659.682-.964 1.623-.964 2.446 0 1.434.917 2.35 2.116 2.35.658 0 1.152-.281 1.551-.61h.024l-.094.47zm-.447-4.703c.447 0 .894.118 1.223.282l-.494 2.869c-.47.494-1.034.8-1.575.8-.729 0-1.317-.565-1.317-1.552 0-.588.212-1.223.635-1.717.353-.4.846-.682 1.528-.682z" fill="#122675"/><path d="M63.375 50c-2.169 0-3.995 1.348-4.875 2.133-.88-.785-2.706-2.133-4.875-2.133C50.523 50 48 52.514 48 55.606c0 1.936 1.774 3.698 1.845 3.768L58.5 68l8.65-8.621c.076-.075 1.85-1.837 1.85-3.773C69 52.514 66.477 50 63.375 50z" fill="#122675"/></svg>