<?xml version="1.0" encoding="UTF-8" standalone="no"?><svg xmlns="http://www.w3.org/2000/svg" height="793.707" width="1122.52"><defs><clipPath id="prefix__a" clipPathUnits="userSpaceOnUse"><path d="M0 595.28h841.89V0H0z"/></clipPath></defs><g clip-path="url(#prefix__a)" transform="matrix(1.33333 0 0 -1.33333 0 793.707)"><path d="M605.073 274.887c1.65 0 2.87-1.27 2.87-2.824 0-1.744-1.455-3.109-3.202-3.109-1.645 0-2.824 1.27-2.824 2.826 0 1.741 1.414 3.107 3.156 3.107m-3.673-10.925h4.24l-4.096-23.165h-4.24zM476.821 254.415h13.435v.478c0 3.304-1.943 5.718-5.72 5.718-3.648 0-6.524-2.27-7.715-6.196m-.515-3.354c0-4.683 3.22-7.092 7.522-7.092 2.79 0 5.58.993 7.372 1.985l-.805-4.442c-1.985-.95-4.678-1.373-6.856-1.373-6.288 0-11.439 3.498-11.439 10.638 0 3.402 1.18 6.857 3.305 9.363 2.607 3.074 6.148 4.302 9.313 4.302 5.538 0 9.507-3.691 9.507-9.362 0-1.276-.193-2.838-.514-4.02zM501.854 263.922h4.261l-.527-2.838.097-.05c2.36 1.896 5.204 3.409 8.37 3.409 4.11 0 6.953-2.651 6.953-7.141 0-.806-.097-1.75-.386-3.263l-2.36-13.38H514l2.319 13.096c.235 1.277.331 2.13.331 2.79 0 2.366-1.083 3.922-3.734 3.922-2.693 0-5.58-1.652-8.08-3.638l-2.843-16.17h-4.249zM530.837 254.415h13.435v.478c0 3.304-1.943 5.718-5.72 5.718-3.65 0-6.524-2.27-7.715-6.196m-.515-3.354c0-4.683 3.219-7.092 7.522-7.092 2.79 0 5.58.993 7.37 1.985l-.804-4.442c-1.984-.95-4.677-1.373-6.856-1.373-6.287 0-11.44 3.498-11.44 10.638 0 3.402 1.182 6.857 3.307 9.363 2.607 3.074 6.148 4.302 9.313 4.302 5.538 0 9.507-3.691 9.507-9.362 0-1.276-.193-2.838-.514-4.02zM555.87 263.922h4.26l-.719-3.971.097-.048c1.985 2.506 5.58 4.206 8.562 4.206.516 0 .988-.047 1.46-.14l-.709-4.113c-.332.047-.89.095-1.416.095-3.305 0-6.48-1.844-8.842-4.822l-2.553-14.47h-4.249zM580.839 244.441c2.082 0 4.014.853 5.677 2.081l2.306 13.145c-1.265.52-3.347.993-5.15.993-2.79 0-4.871-1.138-6.331-2.742-1.652-1.846-2.607-4.448-2.607-6.905 0-3.97 2.468-6.572 6.105-6.572m-6.384 16.17c2.414 2.457 5.859 3.831 9.69 3.831 3.122 0 6.437-.9 9.367-2.318l-3.788-21.514c-1.416-7.94-6.235-10.875-12.522-10.875-2.79 0-5.58.57-8.284 2.033l.805 4.448c2.039-1.469 4.926-2.602 7.715-2.602 3.734 0 7.092 1.985 7.983 6.761l.376 2.22-.043.048c-1.513-1.04-3.22-1.888-5.763-1.888-5.536 0-9.506 4.018-9.506 9.925 0 3.498 1.416 7.33 3.97 9.931M628.095 259.431c-1.362.66-3.305 1.23-5.247 1.23-2.887 0-5.011-1.187-6.524-2.936-1.792-2.077-2.65-4.823-2.65-7.28 0-4.207 2.51-6.574 5.633-6.574 2.317 0 4.679 1.278 6.663 3.36zm.944-18.772h-4.25l.376 2.033-.096.048c-1.653-1.373-3.777-2.602-6.62-2.602-5.054 0-9.024 3.922-9.024 9.974 0 3.503 1.319 7.473 4.109 10.354 2.748 2.838 6.34 3.976 9.744 3.976 3.4 0 6.566-1.186 9.506-2.554zM212.645 308.294c7.899-5.335 17.844-7.69 23.688-7.69 5.946 0 10.354 2.355 10.354 7.899 0 6.863-6.972 7.48-16.507 10.562-10.254 3.382-19.481 8.409-19.481 21.326 0 13.844 10.454 22.462 26.044 22.462 7.281 0 16.207-1.846 22.661-5.336v-16.1c-7.89 4.919-17.017 7.182-22.761 7.182-5.537 0-9.536-2.054-9.536-6.98 0-6.563 6.872-7.073 15.789-10.045 11.181-3.691 20.199-8.926 20.199-22.052 0-14.455-10.972-23.171-26.97-23.171-7.381 0-16.508 1.844-23.48 5.435zM280.154 362.852c4.926 0 9.026-4 9.026-8.926 0-4.918-4.1-8.918-9.026-8.918-4.918 0-9.026 4-9.026 8.918 0 4.926 4.108 8.926 9.026 8.926M366.108 316.602c0 3.79-.618 5.536-1.845 6.872-1.437 1.537-3.282 2.154-5.336 2.154-3.59 0-7.281-1.845-9.945-4.208.1-.718.1-1.536.1-2.255v-31.688h-15.59v29.125c0 3.382-.508 5.436-1.844 6.872-1.436 1.537-3.282 2.154-5.336 2.154-3.582 0-7.272-1.953-9.844-4.108v-34.043h-15.581v50.45h15.38v-4.508l.2-.1c3.9 3.28 9.027 5.736 15.18 5.736 5.437 0 11.69-2.146 14.663-7.173 5.436 4.818 11.39 7.173 17.744 7.173 5.636 0 10.053-1.946 13.026-5.018 3.173-3.282 4.609-7.69 4.609-14.872v-31.688h-15.581zM418.036 300.384c8.107 0 12.616 5.845 12.616 13.327 0 7.59-4.509 13.743-12.199 13.743-3.18 0-6.154-1.127-8.417-2.772v-22.353c1.955-1.027 4.827-1.945 8-1.945m-8-34.051h-15.58v73.012h15.28v-2.564l.2-.1c3.282 2.255 7.49 3.791 12.508 3.791 12.926 0 23.898-10.254 23.898-25.943 0-16.199-11.589-26.762-26.352-26.762-4.108 0-7.382.819-9.745 1.946l-.209-.1zM456.429 365.824h15.581v-78.347h-15.581zM517.968 319.574c-.92 5.436-4.918 8.717-9.945 8.717-4.818 0-9.026-2.972-10.354-8.717zm-20.198-9.845c1.745-6.972 7.48-10.153 14.662-10.153 5.644 0 11.79 1.946 17.126 5.536v-13.018c-4.918-3.08-12.51-4.617-19.18-4.617-16.608 0-28.607 10.354-28.607 26.152 0 16.098 12.509 26.552 26.46 26.552 12.409 0 24.098-8.199 24.098-25.116 0-1.745-.108-3.999-.308-5.336zM541.08 305.321c6.973-4.1 15.071-5.845 19.89-5.845 4.308 0 6.872 1.128 6.872 3.891 0 3.9-5.637 3.491-13.227 5.436-9.535 2.363-15.18 6.363-15.18 14.671.11 10.663 9.536 16.708 22.052 16.708 6.046 0 13.535-1.227 19.281-4v-13.426c-6.672 3.791-14.462 5.436-18.972 5.436-4.108 0-6.563-1.236-6.563-3.591 0-3.691 5.436-3.39 12.917-5.235 9.636-2.355 15.482-6.045 15.482-14.763-.1-11.072-9.737-17.126-22.662-17.126-6.045 0-13.844 1.228-19.89 4.2z"/></g></svg>