<svg width="306" height="78" fill="none" xmlns="http://www.w3.org/2000/svg"><path fill="#122675" stroke="#122675" stroke-width="2" d="M1 1h38v38H1z"/><path d="M13.45 29h5.25v-5.2h3c4.725 0 7.675-2.5 7.675-6.35 0-3.85-2.925-6.35-7.625-6.35h-8.3V29zm5.25-9v-5.1h2.45c1.775 0 2.95 1 2.95 2.55C24.1 19 22.925 20 21.15 20H18.7z" fill="#fff"/><path stroke="#122675" stroke-width="2" d="M39 1h38v38H39z"/><path d="M51.425 29H56.7v-5.9h1.275l4.45 5.9H68.3l-5.275-6.3.2-.05c2.6-.475 4.5-2.525 4.5-5.45 0-3.65-2.9-6.1-7.275-6.1h-9.025V29zm5.275-9.325V14.9h2.825c1.675 0 2.925.9 2.925 2.375 0 1.5-1.25 2.4-2.925 2.4H56.7z" fill="#122675"/><path stroke="#122675" stroke-width="2" d="M77 1h38v38H77z"/><path d="M89.425 29h14.025v-4.15h-8.925v-3.175h8.2V18.25h-8.2v-3h8.675V11.1H89.425V29z" fill="#122675"/><path stroke="#122675" stroke-width="2" d="M115 1h38v38h-38z"/><path d="M133.95 29.375c5 0 8.275-2.3 8.275-5.85 0-4.325-4.125-4.975-7.175-5.425-2.075-.3-3.85-.525-3.85-1.875 0-1 1-1.7 2.675-1.7 1.8 0 2.975.9 2.975 2.475h4.775c0-3.7-3.175-6.25-7.925-6.25-4.725 0-7.775 2.3-7.775 5.85 0 4.6 4.65 4.975 7.725 5.4 1.825.25 3.3.55 3.3 1.85 0 1.1-1.1 1.725-2.8 1.725-2.15 0-3.375-.975-3.4-2.475h-4.95c0 3.7 3.25 6.275 8.15 6.275z" fill="#122675"/><path stroke="#122675" stroke-width="2" d="M153 1h38v38h-38z"/><path d="M165.425 29h14.025v-4.15h-8.925v-3.175h8.2V18.25h-8.2v-3h8.675V11.1h-13.775V29z" fill="#122675"/><path stroke="#122675" stroke-width="2" d="M191 1h38v38h-38z"/><path d="M202.425 29h5.275v-5.9h1.275l4.45 5.9h5.875l-5.275-6.3.2-.05c2.6-.475 4.5-2.525 4.5-5.45 0-3.65-2.9-6.1-7.275-6.1h-9.025V29zm5.275-9.325V14.9h2.825c1.675 0 2.925.9 2.925 2.375 0 1.5-1.25 2.4-2.925 2.4H207.7z" fill="#122675"/><path stroke="#122675" stroke-width="2" d="M229 1h38v38h-38z"/><path d="M244.525 29h8.225l5.3-17.9h-5.45l-3.825 14.025h-.25L244.65 11.1h-5.4l5.275 17.9z" fill="#122675"/><path stroke="#122675" stroke-width="2" d="M267 1h38v38h-38z"/><path d="M279.425 29h14.025v-4.15h-8.925v-3.175h8.2V18.25h-8.2v-3h8.675V11.1h-13.775V29z" fill="#122675"/><path stroke="#122675" stroke-width="2" d="M39 39h38v38H39z"/><path fill-rule="evenodd" clip-rule="evenodd" d="M76 38h154v40H76V38zm117.862 28.959h.987l-.964 5.455h-.987l.964-5.455zm.87-2.586c.376 0 .682.305.682.658 0 .4-.353.729-.753.729a.657.657 0 01-.658-.659c-.023-.4.306-.728.729-.728zm-28.52 7.288c-1.011 0-1.764-.564-1.764-1.669h4.091c.071-.282.118-.635.118-.94 0-1.34-.941-2.21-2.234-2.21a2.81 2.81 0 00-2.186 1.01c-.494.588-.776 1.411-.776 2.21 0 1.67 1.199 2.493 2.68 2.493.517 0 1.152-.118 1.622-.33l.189-1.034c-.424.235-1.082.47-1.74.47zm1.504-2.468h-3.15c.282-.917.964-1.458 1.81-1.458.894 0 1.34.564 1.34 1.34v.118zm2.751-2.234h1.011l-.117.658h.023c.565-.447 1.223-.8 1.975-.8.964 0 1.646.636 1.646 1.67 0 .188-.023.4-.094.776l-.564 3.15h-1.011l.541-3.08c.047-.305.07-.493.07-.658 0-.564-.259-.917-.87-.917-.635 0-1.317.4-1.904.847l-.659 3.809h-1.034l.987-5.455zm8.441 4.702c-1.011 0-1.763-.564-1.763-1.669h4.091a4.15 4.15 0 00.117-.94c0-1.34-.94-2.21-2.233-2.21-.753 0-1.575.282-2.187 1.01-.494.588-.776 1.411-.776 2.21 0 1.67 1.199 2.493 2.681 2.493.517 0 1.152-.118 1.622-.33l.188-1.034c-.423.235-1.081.47-1.74.47zm1.505-2.468h-3.151c.283-.917.964-1.458 1.811-1.458.893 0 1.34.564 1.34 1.34v.118zm2.751-2.234h1.011l-.165.94h.024c.47-.587 1.317-.987 2.022-.987.118 0 .235 0 .353.024l-.165.964c-.031 0-.075-.005-.125-.01a2.106 2.106 0 00-.204-.014c-.776 0-1.528.423-2.069 1.129l-.611 3.409h-.988l.917-5.455zm6.654-.118c-.894 0-1.717.306-2.281.894-.611.611-.941 1.505-.917 2.375 0 1.387.94 2.327 2.234 2.327.611 0 1.011-.211 1.363-.447l-.094.518c-.211 1.128-1.011 1.599-1.881 1.599-.658 0-1.34-.259-1.81-.612l-.188 1.035c.635.329 1.293.47 1.951.47 1.482 0 2.61-.705 2.939-2.563l.894-5.055c-.706-.329-1.482-.54-2.21-.54zm.54 4.21c-.399.281-.846.493-1.34.493-.846 0-1.434-.611-1.434-1.552 0-.588.212-1.2.611-1.622.329-.377.823-.635 1.482-.635.446 0 .917.117 1.222.235l-.541 3.08zm9.993 1.386h-.987l.094-.47h-.024c-.4.33-.893.611-1.552.611-1.199 0-2.116-.917-2.116-2.35 0-.824.306-1.764.964-2.446.635-.658 1.482-.94 2.281-.94.799 0 1.552.282 2.234.61l-.894 4.985zm-.211-4.42a2.842 2.842 0 00-1.223-.282c-.682 0-1.176.282-1.528.682a2.674 2.674 0 00-.635 1.716c0 .988.588 1.552 1.316 1.552.541 0 1.106-.306 1.576-.8l.494-2.868zm-92.121-9.687c-1.387 0-3.715-.564-5.572-1.81v3.879c1.645.846 3.785 1.293 5.525 1.293 3.762 0 6.348-2.045 6.348-5.455 0-3.103-2.116-4.326-4.749-5.196-.385-.125-.754-.231-1.099-.331h-.001c-1.535-.443-2.615-.754-2.615-2.02 0-1.152.94-1.646 2.234-1.646 1.363 0 3.503.54 5.36 1.693v-3.785c-1.528-.823-3.621-1.247-5.337-1.247-3.644 0-6.113 2.022-6.113 5.267 0 3.057 2.163 4.232 4.585 5.008.389.127.761.237 1.109.339 1.648.484 2.77.814 2.77 2.153 0 1.294-1.058 1.858-2.445 1.858zm10.322-14.625c1.152 0 2.116.94 2.116 2.093 0 1.152-.964 2.093-2.116 2.093-1.152 0-2.116-.941-2.116-2.093-.024-1.152.94-2.093 2.116-2.093zm19.773 9.24c.282.33.423.73.423 1.623v6.866h3.668V53.98c0-1.693-.329-2.727-1.081-3.503-.682-.729-1.74-1.176-3.057-1.176-1.481 0-2.892.564-4.161 1.693-.706-1.199-2.187-1.693-3.457-1.693-1.457 0-2.657.564-3.574 1.34l-.047-.023V49.56h-3.62v11.826h3.714v-7.994c.588-.493 1.458-.964 2.305-.964.47 0 .917.165 1.246.518.305.352.423.823.423 1.622v6.842h3.668v-7.453c0-.188 0-.377-.024-.541.612-.564 1.482-.988 2.328-.988.47 0 .917.165 1.246.518zm10.745 13.45h-3.668V49.23h3.598v.587l.047.024c.776-.54 1.763-.893 2.939-.893 3.033 0 5.619 2.421 5.619 6.09 0 3.808-2.727 6.3-6.207 6.3-.964 0-1.74-.188-2.281-.446l-.047.023v5.479zm1.881-8.018c1.905 0 2.963-1.364 2.963-3.127 0-1.787-1.058-3.221-2.869-3.221a3.27 3.27 0 00-1.975.658v5.267c.471.211 1.152.423 1.881.423zM163.437 43h-3.668v18.41h3.668V43zm6.066 13.19c.4 1.646 1.764 2.399 3.457 2.399 1.316 0 2.774-.447 4.02-1.294v3.057c-1.152.729-2.939 1.081-4.514 1.081-3.903 0-6.725-2.445-6.725-6.16 0-3.785 2.939-6.254 6.231-6.254 2.916 0 5.666 1.928 5.666 5.902 0 .4-.023.94-.07 1.246h-8.065v.023zm4.75-2.304c-.212-1.27-1.152-2.046-2.328-2.046-1.129 0-2.116.706-2.445 2.046h4.773zm10.11 4.703c-1.129 0-3.033-.4-4.679-1.364v3.197c1.434.706 3.268.988 4.679.988 3.056 0 5.314-1.41 5.337-4.02 0-2.07-1.387-2.916-3.644-3.48a22.083 22.083 0 00-1.248-.253c-1.084-.196-1.785-.323-1.785-.97 0-.564.587-.846 1.551-.846 1.059 0 2.892.376 4.468 1.27V49.96c-1.364-.659-3.127-.941-4.538-.941-2.963 0-5.173 1.41-5.196 3.927 0 1.951 1.34 2.892 3.574 3.456.476.119.92.2 1.313.271 1.082.197 1.79.326 1.79.998 0 .659-.611.918-1.622.918z" fill="#122675"/><path d="M63.375 50c-2.169 0-3.995 1.348-4.875 2.133-.88-.785-2.706-2.133-4.875-2.133C50.523 50 48 52.514 48 55.606c0 1.936 1.774 3.698 1.845 3.768L58.5 68l8.65-8.621c.076-.075 1.85-1.837 1.85-3.773C69 52.514 66.477 50 63.375 50z" fill="#122675"/></svg>