<?xml version="1.0" encoding="UTF-8"?><svg fill="none" height="137" width="423" xmlns="http://www.w3.org/2000/svg"><clipPath id="prefix__a"><path d="M0 0h422.1v136.1H0z"/></clipPath><g clip-path="url(#prefix__a)" fill="#000"><path d="M390.7 101.9h4.2l-4.1 23.2h-4.2zm3.7-11c1.6 0 2.9 1.3 2.9 2.8 0 1.7-1.5 3.1-3.2 3.1-1.6 0-2.8-1.3-2.8-2.8-.1-1.7 1.3-3.1 3.1-3.1zM265.6 114.8c0 4.7 3.2 7.1 7.5 7.1 2.8 0 5.6-1 7.4-2l-.8 4.4c-2 .9-4.7 1.4-6.9 1.4-6.3 0-11.4-3.5-11.4-10.6 0-3.4 1.2-6.9 3.3-9.4 2.6-3.1 6.1-4.3 9.3-4.3 5.5 0 9.5 3.7 9.5 9.4 0 1.3-.2 2.8-.5 4zm.5-3.4h13.4v-.5c0-3.3-1.9-5.7-5.7-5.7-3.6 0-6.5 2.3-7.7 6.2zM291.2 101.9h4.3l-.5 2.8h.1c2.4-1.9 5.2-3.4 8.4-3.4 4.1 0 7 2.7 7 7.1 0 .8-.1 1.7-.4 3.3l-2.4 13.4h-4.3l2.3-13.1c.2-1.3.3-2.1.3-2.8 0-2.4-1.1-3.9-3.7-3.9-2.7 0-5.6 1.7-8.1 3.6l-2.8 16.2H287zM319.6 114.8c0 4.7 3.2 7.1 7.5 7.1 2.8 0 5.6-1 7.4-2l-.8 4.4c-2 .9-4.7 1.4-6.9 1.4-6.3 0-11.4-3.5-11.4-10.6 0-3.4 1.2-6.9 3.3-9.4 2.6-3.1 6.1-4.3 9.3-4.3 5.5 0 9.5 3.7 9.5 9.4 0 1.3-.2 2.8-.5 4zm.5-3.4h13.4v-.5c0-3.3-1.9-5.7-5.7-5.7-3.6 0-6.5 2.3-7.7 6.2zM345.2 101.9h4.3l-.7 4h.1c2-2.5 5.6-4.2 8.6-4.2.5 0 1 0 1.5.1l-.7 4.1c-.3 0-.9-.1-1.4-.1-3.3 0-6.5 1.8-8.8 4.8l-2.6 14.5h-4.2zM363.8 105.2c2.4-2.5 5.9-3.8 9.7-3.8 3.1 0 6.4.9 9.4 2.3l-3.8 21.5c-1.4 7.9-6.2 10.9-12.5 10.9-2.8 0-5.6-.6-8.3-2l.8-4.4c2 1.5 4.9 2.6 7.7 2.6 3.7 0 7.1-2 8-6.8l.4-2.2c-1.5 1-3.2 1.9-5.8 1.9-5.5 0-9.5-4-9.5-9.9-.1-3.7 1.3-7.5 3.9-10.1zm6.3 16.2c2.1 0 4-.9 5.7-2.1l2.3-13.1c-1.3-.5-3.3-1-5.2-1-2.8 0-4.9 1.1-6.3 2.7-1.7 1.8-2.6 4.4-2.6 6.9 0 4 2.5 6.6 6.1 6.6zM418.3 125.2h-4.2l.4-2h-.1c-1.7 1.4-3.8 2.6-6.6 2.6-5.1 0-9-3.9-9-10 0-3.5 1.3-7.5 4.1-10.4 2.7-2.8 6.3-4 9.7-4s6.6 1.2 9.5 2.6zm-.9-18.8c-1.4-.7-3.3-1.2-5.2-1.2-2.9 0-5 1.2-6.5 2.9-1.8 2.1-2.7 4.8-2.7 7.3 0 4.2 2.5 6.6 5.6 6.6 2.3 0 4.7-1.3 6.7-3.4zM1.9 57.5c7.9 5.3 17.8 7.7 23.7 7.7S36 62.8 36 57.3c0-6.9-7-7.5-16.5-10.6C9.2 43.4 0 38.4 0 25.4 0 11.6 10.5 3 26 3c7.3 0 16.2 1.8 22.7 5.3v16.1c-7.9-4.9-17-7.2-22.8-7.2-5.5 0-9.5 2.1-9.5 7 0 6.6 6.9 7.1 15.8 10 11.2 3.7 20.2 8.9 20.2 22.1 0 14.5-11 23.2-27 23.2-7.4 0-16.5-1.9-23.5-5.5zM69.5 3c4.9 0 9 4 9 8.9s-4.1 8.9-9 8.9-9-4-9-8.9c-.1-4.9 4-8.9 9-8.9zM155.4 49.2c0-3.8-.6-5.5-1.8-6.9-1.4-1.5-3.3-2.2-5.3-2.2-3.6 0-7.3 1.8-9.9 4.2.1.7.1 1.5.1 2.3v31.7h-15.6V49.2c0-3.4-.5-5.4-1.8-6.9-1.4-1.5-3.3-2.2-5.3-2.2-3.6 0-7.3 2-9.8 4.1v34H90.2V27.9h15.4v4.5l.2.1c3.9-3.3 9-5.7 15.2-5.7 5.4 0 11.7 2.1 14.7 7.2 5.4-4.8 11.4-7.2 17.7-7.2 5.6 0 10.1 1.9 13 5 3.2 3.3 4.6 7.7 4.6 14.9v31.7h-15.6zM199.3 99.5h-15.6v-73H199V29l.2.1c3.3-2.3 7.5-3.8 12.5-3.8 12.9 0 23.9 10.3 23.9 25.9 0 16.2-11.6 26.8-26.4 26.8-4.1 0-7.4-.8-9.7-1.9l-.2.1zm8-34.1c8.1 0 12.6-5.8 12.6-13.3 0-7.6-4.5-13.7-12.2-13.7-3.2 0-6.2 1.1-8.4 2.8v22.4c2 .9 4.9 1.8 8 1.8zM245.7 0h15.6v78.3h-15.6zM287.1 56.1c1.7 7 7.5 10.2 14.7 10.2 5.6 0 11.8-1.9 17.1-5.5v13c-4.9 3.1-12.5 4.6-19.2 4.6-16.6 0-28.6-10.4-28.6-26.2 0-16.1 12.5-26.6 26.5-26.6 12.4 0 24.1 8.2 24.1 25.1 0 1.7-.1 4-.3 5.3h-34.3zm20.2-9.8c-.9-5.4-4.9-8.7-9.9-8.7-4.8 0-9 3-10.4 8.7zM330.4 60.5c7 4.1 15.1 5.8 19.9 5.8 4.3 0 6.9-1.1 6.9-3.9 0-3.9-5.6-3.5-13.2-5.4-9.5-2.4-15.2-6.4-15.2-14.7.1-10.7 9.5-16.7 22.1-16.7 6 0 13.5 1.2 19.3 4V43c-6.7-3.8-14.5-5.4-19-5.4-4.1 0-6.6 1.2-6.6 3.6 0 3.7 5.4 3.4 12.9 5.2 9.6 2.4 15.5 6 15.5 14.8-.1 11.1-9.7 17.1-22.7 17.1-6 0-13.8-1.2-19.9-4.2z"/></g></svg>