<svg width="152" height="152" fill="none" xmlns="http://www.w3.org/2000/svg"><path d="M81.698 151.783c41.855-3.148 73.233-39.63 70.085-81.484-3.148-41.855-39.63-73.233-81.484-70.085C28.444 3.362-2.934 39.844.214 81.698c3.148 41.855 39.63 73.233 81.484 70.085z" fill="#000"/><path d="M75.997 5.03C36.87 5.03 5.03 36.86 5.03 75.992c0 39.138 31.835 70.973 70.967 70.973 39.133 0 70.968-31.835 70.968-70.973 0-39.133-31.835-70.962-70.968-70.962z" fill="url(#prefix__paint0_linear)"/><path d="M76.089 142.246c-36.5 0-66.201-29.695-66.201-66.206 0-36.505 29.695-66.195 66.2-66.195 36.506 0 66.201 29.695 66.201 66.195.006 36.511-29.695 66.206-66.2 66.206z" fill="#fff"/><path d="M119.532 119.484c23.991-23.99 23.991-62.888 0-86.88-23.991-23.99-62.889-23.99-86.88 0-23.99 23.992-23.99 62.89 0 86.88 23.991 23.992 62.889 23.992 86.88 0z" fill="#B12028"/><path d="M104.658 69.498h-8.75v-6.665h6.294v-4.348h-6.295v-5.636h8.751v-4.724H89.826v26.092h14.832v-4.719zM55.17 74.71c5.915 0 9.696-2.938 9.696-10.66V48.126h-6.081V64.04c0 3.42-.95 5.142-3.609 5.142-2.66 0-3.608-1.721-3.608-5.142V48.125h-6.092v15.93c0 7.717 3.786 10.655 9.695 10.655zM114.219 66.71c.6-.193 1.179-.386 1.726-.579l3.33 5.7c.949 1.48 1.802 2.38 3.384 2.38h4.724l-6.118-10.471c3.49-2.092 4.638-4.392 4.638-7.154 0-4.305-1.92-8.45-8.993-8.45l-8.777-.006v26.082h6.086V66.71zm0-13.888h1.442c2.016 0 4.252.708 4.252 3.764 0 2.789-.809 4.226-5.689 5.85v-9.614h-.005zM63.788 77.413c-7.394 0-12.14 6.054-12.14 13.523 0 7.47 4.745 13.523 12.14 13.523 7.394 0 12.14-6.053 12.14-13.523.005-7.47-4.746-13.523-12.14-13.523zm0 21.83c-3.743 0-6.15-3.706-6.15-8.28s2.407-8.28 6.15-8.28c3.748 0 6.15 3.711 6.15 8.28 0 4.574-2.407 8.28-6.15 8.28zM32.521 69.74c-1.796.07-4.46-.558-7.625-2.226v5.379c1.883 1.217 5.518 1.94 8.633 1.812 5.502-.225 8.725-3.7 8.725-8.156 0-9.652-11.127-6.74-11.127-11.443 0-1.238 1.014-2.799 3.604-2.906 2.59-.107 4.767.987 6.515 2.022v-5.17c-1.834-.916-3.92-1.656-7.904-1.495-5.69.236-8.73 4.257-8.73 8.032 0 9.459 10.939 6.504 10.939 11.577.005 1.367-.82 2.483-3.03 2.574zM121.554 77.869h-6.547l-7.421 11.56V77.87H101.5v26.081h6.086V91.639l6.767 9.936c1.077 1.576 1.801 2.375 3.389 2.375h5.281l-9.544-13.984 8.075-12.097zM45.857 90.137c2.193-1.4 2.574-3.995 2.574-5.126 0-4.992-4.242-7.142-8.558-7.142h-9.24v26.081h10.682c5.845 0 8.735-3.528 8.735-7.555-.005-2.97-1.378-5.239-4.193-6.258zm-9.142-8.064h2.514c2.558 0 3.293 1.404 3.293 3.206 0 1.534-.392 3.432-2.815 3.432h-2.992v-6.638zm3.42 17.464h-3.42v-6.965h3.244c2.102 0 3.812.477 3.812 3.287 0 2.804-1.566 3.678-3.635 3.678zM78.383 90.925c0 7.593 5.432 13.534 13.642 13.534 2.08 0 4.01-.311 5.984-1.517v-5.71c-2.129 1.431-4.21 1.881-5.99 1.881-4.096 0-7.292-2.954-7.292-8.188 0-5.233 3.196-8.188 7.292-8.188 1.78 0 3.861.45 5.99 1.888v-5.71c-1.973-1.207-3.904-1.518-5.984-1.518-8.21-.006-13.642 5.941-13.642 13.528zM86.877 56.57c0-4.305-1.914-8.445-8.992-8.445h-8.778v26.087h6.086v-6.966l2.434-.965c7.09-2.622 9.25-5.979 9.25-9.71zm-9.25 4.987l-2.434.981v-9.726h1.437c2.016 0 4.252.707 4.252 3.758 0 2.236-.536 3.663-3.255 4.987z" fill="#fff"/><defs><linearGradient id="prefix__paint0_linear" x1="5.031" y1="75.999" x2="146.966" y2="75.999" gradientUnits="userSpaceOnUse"><stop stop-color="#AC8249"/><stop offset=".18" stop-color="#F8DAA9"/><stop offset=".3" stop-color="#F8DAA9"/><stop offset=".45" stop-color="#EBC483"/><stop offset=".65" stop-color="#AC8249"/><stop offset=".809" stop-color="#EBC483"/><stop offset="1" stop-color="#AC8249"/></linearGradient></defs></svg>