<svg width="219" height="40" viewBox="0 0 219 40" fill="#000" xmlns="http://www.w3.org/2000/svg">
<path d="M113.968 18.5692H128.168V16.8348H116.402V11.2867H125.239V9.53165H116.402V4.41585H128.168V2.68657H113.968V18.5692ZM121.348 0.12352L119.424 2.28513L125.461 0.12352H121.348ZM152.012 16.8348V2.68657H149.789V18.5692H164.148V16.8348H152.012ZM137.375 2.68657L129.3 18.5692H132.028L134.092 14.4622H143.778L145.862 18.5692H148.564L140.484 2.68657H137.375ZM135.116 12.4704L138.919 4.8842L142.769 12.4704H135.116ZM106.264 11.93C109.902 10.9573 110.252 8.25013 110.237 7.28255C110.015 4.44673 108.106 2.68657 104.673 2.68657H94.6629V18.5692H96.948V11.9094H103.464L108.26 18.5692H111.137C111.132 18.5692 107.684 14.0865 106.264 11.93ZM104.364 10.0309H96.948V4.57025H104.622C106.387 4.57025 107.385 5.39372 107.741 6.44364C107.977 7.16418 107.823 8.10602 107.437 8.74936C106.794 9.80443 105.574 10.0309 104.364 10.0309ZM80.947 0C74.5033 0 70.1184 4.53937 70.1184 10.0412C70.1184 15.826 74.9665 19.9125 80.947 19.9125C86.9274 19.9125 91.7756 15.8878 91.7756 10.0412C91.7756 4.53937 87.3289 0 80.947 0ZM80.8749 17.9362C76.4179 17.9362 72.7483 14.3541 72.7483 10.0412C72.7483 5.72826 76.2481 1.97633 81.0499 1.97633C85.7334 1.97633 89.1765 5.72826 89.1765 10.0412C89.1714 14.3592 85.3268 17.9362 80.8749 17.9362ZM64.3695 8.30674H66.0165L69.0067 2.68657H66.598L64.3695 8.30674ZM56.3201 16.8348H68.456V18.5692H54.0968V2.68657H56.3201V16.8348ZM5.83119 33.649C5.83119 32.7689 5.42975 32.0896 4.63201 31.6109C4.37983 31.4617 4.1019 31.3587 3.8034 31.3021C3.50489 31.2455 3.0983 31.2146 2.58878 31.2146H0V39.7427H1.0911V36.351H2.72774C3.22697 36.351 3.65414 36.2995 4.00926 36.2017C4.36439 36.104 4.68863 35.929 4.99228 35.6768C5.29079 35.4297 5.50695 35.1415 5.64076 34.8121C5.76428 34.4828 5.83119 34.0968 5.83119 33.649ZM4.59084 33.8446C4.59084 34.3232 4.43129 34.7247 4.1122 35.0489C3.9475 35.2136 3.76222 35.332 3.54606 35.404C3.33505 35.4761 3.03654 35.5121 2.65569 35.5121H1.0911V32.069H2.27483C2.72259 32.069 3.07771 32.0998 3.35564 32.1668C3.62841 32.2337 3.86001 32.3417 4.05044 32.491C4.41071 32.7741 4.59084 33.2218 4.59084 33.8446ZM14.9511 33.4225C14.9254 33.4174 14.8739 33.402 14.807 33.3865C14.7401 33.3711 14.6629 33.3608 14.5805 33.3608C14.2357 33.3608 13.8909 33.4534 13.5512 33.6387C13.2115 33.824 12.9182 34.0762 12.6711 34.3901C12.6711 34.1431 12.6454 33.9269 12.5888 33.7519C12.5322 33.5718 12.4858 33.4534 12.4498 33.3865L11.3896 33.649C11.4256 33.7159 11.472 33.8549 11.5337 34.071C11.5903 34.2872 11.6212 34.5857 11.6212 34.9665V39.7427H12.6866V35.8621C12.6866 35.615 12.7123 35.4246 12.7689 35.2908C12.8255 35.157 12.9285 35.0232 13.0829 34.8791C13.4122 34.5805 13.788 34.4313 14.2151 34.4313C14.3232 34.4313 14.4261 34.4467 14.5136 34.4828L14.9511 33.4225ZM25.4967 36.7422C25.4967 35.7643 25.2856 34.9974 24.8688 34.4416C24.6114 34.1122 24.2975 33.8446 23.9166 33.6541C23.5358 33.4586 23.0777 33.3608 22.5425 33.3608C21.6521 33.3608 20.947 33.649 20.4272 34.2306C19.9125 34.8121 19.65 35.6047 19.65 36.6032C19.65 37.6325 19.9074 38.4354 20.422 39.0221C20.9367 39.6089 21.6572 39.8971 22.5836 39.8971C23.4637 39.8971 24.1688 39.6191 24.7041 39.0685C25.2342 38.5229 25.4967 37.7458 25.4967 36.7422ZM24.2872 36.8194C24.2872 37.123 24.2717 37.3803 24.2409 37.5759C24.21 37.7766 24.1585 37.9722 24.0865 38.1626C23.9681 38.4611 23.7828 38.6927 23.5306 38.8523C23.2784 39.0118 22.9748 39.0942 22.6197 39.0942C22.3314 39.0942 22.0587 39.0376 21.8013 38.9192C21.5492 38.806 21.3587 38.6516 21.2455 38.4714C21.1168 38.281 21.0139 38.0031 20.9367 37.6377C20.8595 37.2723 20.8235 36.876 20.8235 36.4436C20.8235 35.7488 20.9315 35.2084 21.1477 34.8276C21.2661 34.6217 21.4514 34.457 21.7087 34.3335C21.9609 34.2151 22.2388 34.1534 22.5373 34.1534C22.8358 34.1534 23.1189 34.2203 23.3814 34.3592C23.6439 34.4931 23.8446 34.6938 23.9784 34.9511C24.1791 35.3423 24.2872 35.965 24.2872 36.8194ZM35.9238 39.1045C35.9238 39.2383 35.9444 39.3618 35.9804 39.4853C36.0165 39.6037 36.0473 39.6912 36.0731 39.7375H37.1642C37.0921 39.5625 37.0407 39.3206 37.0098 39.0118C36.9789 38.703 36.9635 38.2759 36.9635 37.7406V30.8235L35.9032 30.6639V33.263C35.9032 33.5615 35.9084 33.8806 35.9187 34.2203C35.7077 33.9732 35.4452 33.7777 35.1261 33.6439C34.807 33.5049 34.457 33.438 34.0762 33.438C33.8291 33.438 33.6078 33.4637 33.402 33.5255C33.1961 33.5821 32.9851 33.685 32.7689 33.824C31.8322 34.4107 31.3639 35.368 31.3639 36.6958C31.3639 37.684 31.6058 38.4508 32.0844 39.0015C32.5682 39.5522 33.2476 39.8302 34.1276 39.8302C34.5291 39.8302 34.8636 39.7735 35.1415 39.6603C35.4195 39.5471 35.6819 39.3618 35.9238 39.1045ZM35.8827 38.1575C35.8621 38.1987 35.8209 38.2656 35.754 38.3582C35.6871 38.4508 35.5944 38.5332 35.4761 38.6053C35.2496 38.7545 35.0437 38.8574 34.8533 38.9141C34.668 38.9707 34.4364 39.0015 34.1637 39.0015C33.8446 39.0015 33.5769 38.9449 33.3608 38.8266C33.1446 38.7133 32.9542 38.528 32.8049 38.281C32.6248 37.9825 32.5322 37.4472 32.5322 36.665C32.5322 36.2275 32.563 35.8775 32.6248 35.615C32.6866 35.3525 32.7998 35.1055 32.9645 34.8739C33.2579 34.4416 33.6799 34.2254 34.2306 34.2254C34.9923 34.2254 35.543 34.4416 35.8775 34.8739V38.1575H35.8827ZM49.1714 39.3412C49.0015 39.192 48.878 39.0221 48.8111 38.8317C48.7442 38.6413 48.7082 38.3531 48.7082 37.9619V33.4483L47.6583 33.6078V37.9979C47.4781 38.3273 47.2259 38.6001 46.9068 38.806C46.5877 39.0118 46.2635 39.1148 45.9238 39.1148C45.5996 39.1148 45.3217 39.0427 45.0901 38.9038C44.9357 38.806 44.8276 38.6773 44.771 38.5229C44.7092 38.3685 44.6835 38.1472 44.6835 37.859V33.4071L43.6336 33.5924V38.142C43.6336 38.5332 43.6902 38.8369 43.8085 39.0633C43.9527 39.3361 44.1791 39.5522 44.4879 39.7066C44.7967 39.8662 45.1673 39.9434 45.5944 39.9434C46.5106 39.9434 47.2311 39.6294 47.7458 39.0015C47.7869 39.2074 47.8693 39.3824 47.9774 39.5317C48.0854 39.6758 48.2553 39.8302 48.4817 40L49.1714 39.3412ZM58.2501 33.5461H56.5466C56.5466 33.3711 56.5517 33.1755 56.5672 32.9542C56.5826 32.7329 56.5929 32.5476 56.6083 32.3984C56.6238 32.2491 56.6341 32.1153 56.6495 31.9918C56.665 31.8734 56.6752 31.791 56.6855 31.7499L55.5687 31.9712C55.5687 32.0124 55.5636 32.0793 55.5481 32.1719C55.5327 32.2645 55.5224 32.3881 55.5069 32.5528C55.4915 32.7123 55.4812 32.8821 55.4709 33.052C55.4606 33.2218 55.4555 33.3865 55.4555 33.5409H54.5703V34.2717H55.4555V38.5229C55.4555 39.1508 55.6716 39.5625 56.1091 39.753C56.3819 39.8713 56.6752 39.9279 56.9943 39.9279C57.4472 39.9279 57.8487 39.8456 58.1935 39.6809L58.0443 39.0582C57.8641 39.1405 57.6377 39.1817 57.3752 39.1817C57.051 39.1817 56.8194 39.1148 56.6958 38.981C56.5672 38.8471 56.5054 38.6104 56.5054 38.2604V34.2717H57.9207L58.2501 33.5461ZM69.2743 36.7422C69.2743 35.7643 69.0633 34.9974 68.6464 34.4416C68.3891 34.1122 68.0751 33.8446 67.6943 33.6541C67.3134 33.4586 66.8554 33.3608 66.315 33.3608C65.4246 33.3608 64.7195 33.649 64.2048 34.2306C63.685 34.8121 63.4277 35.6047 63.4277 36.6032C63.4277 37.6325 63.685 38.4354 64.1997 39.0221C64.7144 39.6089 65.4349 39.8971 66.3613 39.8971C67.2414 39.8971 67.9465 39.6191 68.4817 39.0685C69.0067 38.5229 69.2743 37.7458 69.2743 36.7422ZM68.0648 36.8194C68.0648 37.123 68.0494 37.3803 68.0185 37.5759C67.9876 37.7766 67.9362 37.9722 67.8641 38.1626C67.7458 38.4611 67.5605 38.6927 67.3031 38.8523C67.051 39.0118 66.7421 39.0942 66.3922 39.0942C66.0988 39.0942 65.8312 39.0376 65.5739 38.9192C65.3217 38.806 65.1312 38.6516 65.018 38.4714C64.8894 38.281 64.7864 38.0031 64.7144 37.6377C64.6372 37.2723 64.596 36.876 64.596 36.4436C64.596 35.7488 64.7041 35.2084 64.9254 34.8276C65.0437 34.6217 65.229 34.457 65.4812 34.3335C65.7334 34.2151 66.0113 34.1534 66.3098 34.1534C66.6083 34.1534 66.8914 34.2203 67.1539 34.3592C67.4164 34.4931 67.6171 34.6938 67.756 34.9511C67.9568 35.3423 68.0648 35.965 68.0648 36.8194ZM79.9846 37.9002C79.9846 36.9789 79.3824 36.4025 78.1729 36.1709L77.684 36.0731L77.2774 36.001C76.9223 35.9341 76.6701 35.8312 76.5208 35.6819C76.3716 35.5378 76.2944 35.3423 76.2944 35.1055C76.2944 34.7967 76.4076 34.5497 76.6392 34.3644C76.8708 34.1791 77.1796 34.0865 77.5708 34.0865C77.8538 34.0865 78.1215 34.1225 78.3736 34.1997C78.631 34.2769 78.9295 34.385 79.2743 34.5342L79.6706 33.8137C79.3824 33.6644 79.053 33.5461 78.6825 33.4534C78.317 33.3608 77.9516 33.3145 77.6016 33.3145C76.8914 33.3145 76.315 33.4895 75.8621 33.8446C75.4143 34.1945 75.1879 34.6577 75.1879 35.2187C75.1879 35.6511 75.3371 36.0165 75.6305 36.315C75.9238 36.6135 76.351 36.8142 76.9017 36.9223L77.3392 37.0098L77.7458 37.087C78.1369 37.1642 78.42 37.2774 78.6001 37.4421C78.7802 37.6016 78.8677 37.823 78.8677 38.106C78.8677 38.4303 78.7391 38.6876 78.492 38.8832C78.2398 39.0787 77.9104 39.1765 77.4884 39.1765C76.7524 39.1765 76.0371 38.981 75.3371 38.5898L74.9305 39.3103C75.2753 39.5008 75.6716 39.65 76.1143 39.7633C76.562 39.8765 76.9943 39.9331 77.4215 39.9331C78.1832 39.9331 78.8008 39.7478 79.2743 39.3721C79.753 38.9913 79.9846 38.5023 79.9846 37.9002ZM101.065 33.649C101.065 32.7689 100.664 32.0896 99.8662 31.6109C99.6088 31.4617 99.3361 31.3587 99.0324 31.3021C98.7339 31.2455 98.3273 31.2146 97.8178 31.2146H95.229V39.7427H96.3201V36.351H97.9568C98.456 36.351 98.8832 36.2995 99.2383 36.2017C99.5934 36.104 99.9177 35.929 100.221 35.6768C100.52 35.4297 100.736 35.1415 100.87 34.8121C101.004 34.4828 101.065 34.0968 101.065 33.649ZM99.825 33.8446C99.825 34.3232 99.6655 34.7247 99.3464 35.0489C99.1817 35.2136 98.9964 35.332 98.7802 35.404C98.5692 35.4761 98.2707 35.5121 97.8899 35.5121H96.3201V32.069H97.5039C97.9516 32.069 98.3067 32.0998 98.5795 32.1668C98.8523 32.2337 99.0839 32.3417 99.2743 32.491C99.6449 32.7741 99.825 33.2218 99.825 33.8446ZM110.185 33.4225C110.16 33.4174 110.108 33.402 110.041 33.3865C109.974 33.3711 109.897 33.3608 109.82 33.3608C109.475 33.3608 109.13 33.4534 108.791 33.6387C108.451 33.824 108.157 34.0762 107.91 34.3901C107.91 34.1431 107.885 33.9269 107.828 33.7519C107.771 33.5718 107.725 33.4534 107.689 33.3865L106.624 33.649C106.66 33.7159 106.706 33.8549 106.768 34.071C106.83 34.2872 106.855 34.5857 106.855 34.9665V39.7427H107.916V35.8621C107.916 35.615 107.941 35.4246 107.998 35.2908C108.055 35.157 108.157 35.0232 108.312 34.8791C108.641 34.5805 109.017 34.4313 109.444 34.4313C109.552 34.4313 109.655 34.4467 109.743 34.4828L110.185 33.4225ZM120.731 36.7422C120.731 35.7643 120.52 34.9974 120.103 34.4416C119.846 34.1122 119.532 33.8446 119.151 33.6541C118.77 33.4586 118.312 33.3608 117.777 33.3608C116.886 33.3608 116.181 33.649 115.666 34.2306C115.152 34.8121 114.889 35.6047 114.889 36.6032C114.889 37.6325 115.147 38.4354 115.661 39.0221C116.176 39.6089 116.897 39.8971 117.823 39.8971C118.703 39.8971 119.413 39.6191 119.943 39.0685C120.468 38.5229 120.731 37.7458 120.731 36.7422ZM119.521 36.8194C119.521 37.123 119.506 37.3803 119.475 37.5759C119.444 37.7766 119.388 37.9722 119.315 38.1626C119.197 38.4611 119.012 38.6927 118.76 38.8523C118.502 39.0118 118.199 39.0942 117.844 39.0942C117.555 39.0942 117.283 39.0376 117.025 38.9192C116.773 38.806 116.583 38.6516 116.469 38.4714C116.341 38.281 116.238 38.0031 116.161 37.6377C116.083 37.2723 116.047 36.876 116.047 36.4436C116.047 35.7488 116.155 35.2084 116.372 34.8276C116.49 34.6217 116.675 34.457 116.927 34.3335C117.185 34.2151 117.463 34.1534 117.761 34.1534C118.06 34.1534 118.343 34.2203 118.605 34.3592C118.868 34.4931 119.068 34.6938 119.207 34.9511C119.418 35.3423 119.521 35.965 119.521 36.8194ZM130.453 31.1014C130.051 30.8595 129.552 30.7411 128.955 30.7411C128.477 30.7411 128.075 30.8492 127.756 31.0654C127.545 31.2043 127.37 31.3948 127.226 31.6264C127.082 31.858 127.01 32.177 127.01 32.5836V33.5512H126.356V34.282H127.01V39.7375H128.127V34.282H129.681L130.005 33.5512H128.127V32.5939C128.127 31.8631 128.435 31.5028 129.053 31.5028C129.228 31.5028 129.398 31.5286 129.573 31.58C129.743 31.6366 129.907 31.7036 130.062 31.7859L130.453 31.1014ZM136.691 31.6315C136.691 31.4256 136.608 31.2455 136.444 31.0962C136.279 30.947 136.083 30.8698 135.857 30.8698C135.63 30.8698 135.435 30.947 135.27 31.0962C135.105 31.2455 135.028 31.4256 135.028 31.6418C135.028 31.8477 135.111 32.0278 135.27 32.1719C135.435 32.316 135.63 32.3881 135.857 32.3881C136.083 32.3881 136.279 32.316 136.444 32.1668C136.613 32.0175 136.691 31.8425 136.691 31.6315ZM136.392 39.7375V33.4123L135.291 33.5769V39.7427H136.392V39.7375ZM147.514 37.9002C147.514 36.9789 146.907 36.4025 145.703 36.1709L145.214 36.0731L144.807 36.001C144.452 35.9341 144.2 35.8312 144.05 35.6819C143.901 35.5378 143.824 35.3423 143.824 35.1055C143.824 34.7967 143.942 34.5497 144.169 34.3644C144.4 34.1791 144.714 34.0865 145.1 34.0865C145.383 34.0865 145.651 34.1225 145.903 34.1997C146.155 34.2769 146.459 34.385 146.804 34.5342L147.2 33.8137C146.907 33.6644 146.583 33.5461 146.212 33.4534C145.847 33.3608 145.481 33.3145 145.131 33.3145C144.421 33.3145 143.845 33.4895 143.392 33.8446C142.944 34.1945 142.717 34.6577 142.717 35.2187C142.717 35.6511 142.867 36.0165 143.16 36.315C143.453 36.6135 143.881 36.8142 144.431 36.9223L144.869 37.0098L145.275 37.087C145.666 37.1642 145.95 37.2774 146.125 37.4421C146.3 37.6016 146.392 37.823 146.392 38.106C146.392 38.4303 146.269 38.6876 146.016 38.8832C145.769 39.0787 145.435 39.1765 145.013 39.1765C144.277 39.1765 143.561 38.981 142.862 38.5898L142.455 39.3103C142.8 39.5008 143.196 39.65 143.644 39.7633C144.086 39.8765 144.524 39.9331 144.951 39.9331C145.713 39.9331 146.33 39.7478 146.804 39.3721C147.277 38.9913 147.514 38.5023 147.514 37.9002ZM158.091 37.9002C158.091 36.9789 157.488 36.4025 156.279 36.1709L155.79 36.0731L155.383 36.001C155.028 35.9341 154.776 35.8312 154.627 35.6819C154.478 35.5378 154.4 35.3423 154.4 35.1055C154.4 34.7967 154.514 34.5497 154.75 34.3644C154.982 34.1791 155.291 34.0865 155.682 34.0865C155.965 34.0865 156.233 34.1225 156.485 34.1997C156.737 34.2769 157.041 34.385 157.385 34.5342L157.782 33.8137C157.488 33.6644 157.159 33.5461 156.794 33.4534C156.428 33.3608 156.063 33.3145 155.713 33.3145C155.003 33.3145 154.426 33.4895 153.973 33.8446C153.525 34.1945 153.299 34.6577 153.299 35.2187C153.299 35.6511 153.448 36.0165 153.742 36.315C154.04 36.6135 154.462 36.8142 155.018 36.9223L155.455 37.0098L155.862 37.087C156.253 37.1642 156.536 37.2774 156.711 37.4421C156.886 37.6016 156.979 37.823 156.979 38.106C156.979 38.4303 156.855 38.6876 156.603 38.8832C156.351 39.0787 156.022 39.1765 155.6 39.1765C154.864 39.1765 154.148 38.981 153.448 38.5898L153.042 39.3103C153.387 39.5008 153.783 39.65 154.225 39.7633C154.668 39.8765 155.106 39.9331 155.533 39.9331C156.294 39.9331 156.912 39.7478 157.385 39.3721C157.854 38.9913 158.091 38.5023 158.091 37.9002ZM165.558 31.6315C165.558 31.4256 165.476 31.2455 165.311 31.0962C165.147 30.947 164.951 30.8698 164.725 30.8698C164.498 30.8698 164.303 30.947 164.138 31.0962C163.973 31.2455 163.891 31.4256 163.891 31.6418C163.891 31.8477 163.973 32.0278 164.138 32.1719C164.303 32.316 164.498 32.3881 164.725 32.3881C164.951 32.3881 165.147 32.316 165.311 32.1668C165.476 32.0175 165.558 31.8425 165.558 31.6315ZM165.26 39.7375V33.4123L164.159 33.5769V39.7427H165.26V39.7375ZM177.375 36.7422C177.375 35.7643 177.164 34.9974 176.747 34.4416C176.49 34.1122 176.176 33.8446 175.795 33.6541C175.414 33.4586 174.956 33.3608 174.421 33.3608C173.531 33.3608 172.826 33.649 172.311 34.2306C171.791 34.8121 171.534 35.6047 171.534 36.6032C171.534 37.6325 171.791 38.4354 172.306 39.0221C172.82 39.6089 173.541 39.8971 174.467 39.8971C175.347 39.8971 176.052 39.6191 176.588 39.0685C177.113 38.5229 177.375 37.7458 177.375 36.7422ZM176.166 36.8194C176.166 37.123 176.15 37.3803 176.119 37.5759C176.089 37.7766 176.037 37.9722 175.965 38.1626C175.847 38.4611 175.661 38.6927 175.404 38.8523C175.152 39.0118 174.848 39.0942 174.493 39.0942C174.205 39.0942 173.927 39.0376 173.675 38.9192C173.417 38.806 173.232 38.6516 173.114 38.4714C172.985 38.281 172.882 38.0031 172.81 37.6377C172.733 37.2723 172.692 36.876 172.692 36.4436C172.692 35.7488 172.8 35.2084 173.021 34.8276C173.139 34.6217 173.325 34.457 173.577 34.3335C173.834 34.2151 174.107 34.1534 174.411 34.1534C174.709 34.1534 174.992 34.2203 175.255 34.3592C175.517 34.4931 175.718 34.6938 175.857 34.9511C176.058 35.3423 176.166 35.965 176.166 36.8194ZM188.631 39.7375V35.0386C188.631 34.7813 188.574 34.5394 188.466 34.3181C188.332 34.0453 188.111 33.824 187.813 33.6593C187.514 33.4946 187.18 33.4071 186.804 33.4071C186.078 33.4071 185.363 33.7262 184.663 34.3644C184.663 34.1482 184.632 33.9527 184.575 33.7725C184.519 33.5924 184.462 33.4689 184.421 33.3917L183.387 33.6541C183.433 33.7211 183.484 33.8652 183.551 34.0813C183.613 34.3026 183.649 34.596 183.649 34.9563V39.7324H184.683V35.1209C184.931 34.8893 185.234 34.6886 185.605 34.5136C185.97 34.3386 186.294 34.2512 186.567 34.2512C186.902 34.2512 187.154 34.3386 187.319 34.5136C187.416 34.6217 187.483 34.7401 187.514 34.8688C187.545 34.9974 187.56 35.2239 187.56 35.543V39.7324H188.631V39.7375ZM198.909 39.0685C198.971 39.2846 199.084 39.475 199.243 39.6346C199.403 39.7993 199.599 39.9125 199.835 39.9794L200.381 39.2846C200.134 39.1611 199.985 39.0067 199.923 38.8317C199.866 38.6516 199.835 38.3016 199.835 37.7715L199.892 35.7334C199.892 35.3783 199.882 35.0952 199.861 34.8945C199.84 34.6886 199.804 34.5136 199.738 34.3644C199.444 33.7159 198.821 33.3917 197.859 33.3917C196.876 33.3917 195.929 33.6696 195.013 34.2254L195.543 34.9202C195.769 34.7298 196.099 34.56 196.526 34.4107C196.953 34.2615 197.349 34.1894 197.71 34.1894C198.101 34.1894 198.405 34.3026 198.626 34.5239C198.718 34.6166 198.775 34.7298 198.801 34.8636C198.827 35.0026 198.842 35.2084 198.842 35.4915V35.9238C198.713 35.9238 198.554 35.9238 198.363 35.9238C197.226 35.9238 196.346 36.1194 195.713 36.5054C195.08 36.8966 194.766 37.4421 194.766 38.142C194.766 38.3634 194.802 38.5795 194.874 38.7854C194.946 38.9913 195.069 39.1765 195.239 39.3464C195.409 39.5162 195.641 39.65 195.919 39.7478C196.202 39.8456 196.541 39.8971 196.943 39.8971C197.324 39.8971 197.663 39.8353 197.962 39.7015C198.271 39.578 198.585 39.367 198.909 39.0685ZM198.816 36.5826L198.775 38.209C198.621 38.4972 198.394 38.7339 198.096 38.9089C197.797 39.089 197.473 39.1765 197.128 39.1765C196.346 39.1765 195.955 38.8008 195.955 38.0443C195.955 37.5553 196.135 37.1848 196.5 36.9377C196.866 36.6907 197.458 36.5672 198.286 36.5672C198.348 36.5672 198.441 36.5672 198.559 36.5672C198.672 36.5775 198.76 36.5826 198.816 36.5826ZM208.013 31.6315C208.013 31.4256 207.931 31.2455 207.766 31.0962C207.602 30.947 207.406 30.8698 207.18 30.8698C206.953 30.8698 206.758 30.947 206.593 31.0962C206.428 31.2455 206.346 31.4256 206.346 31.6418C206.346 31.8477 206.428 32.0278 206.593 32.1719C206.758 32.316 206.953 32.3881 207.18 32.3881C207.406 32.3881 207.602 32.316 207.766 32.1668C207.931 32.0175 208.013 31.8425 208.013 31.6315ZM207.715 39.7375V33.4123L206.613 33.5769V39.7427H207.715V39.7375ZM218.837 37.9002C218.837 36.9789 218.235 36.4025 217.025 36.1709L216.536 36.0731L216.125 36.001C215.769 35.9341 215.517 35.8312 215.368 35.6819C215.219 35.5378 215.142 35.3423 215.142 35.1055C215.142 34.7967 215.255 34.5497 215.486 34.3644C215.718 34.1791 216.027 34.0865 216.418 34.0865C216.701 34.0865 216.969 34.1225 217.221 34.1997C217.473 34.2769 217.777 34.385 218.121 34.5342L218.518 33.8137C218.23 33.6644 217.9 33.5461 217.53 33.4534C217.164 33.3608 216.799 33.3145 216.449 33.3145C215.739 33.3145 215.162 33.4895 214.709 33.8446C214.261 34.1945 214.035 34.6577 214.035 35.2187C214.035 35.6511 214.184 36.0165 214.478 36.315C214.771 36.6135 215.198 36.8142 215.749 36.9223L216.186 37.0098L216.593 37.087C216.984 37.1642 217.267 37.2774 217.447 37.4421C217.622 37.6016 217.715 37.823 217.715 38.106C217.715 38.4303 217.591 38.6876 217.339 38.8832C217.087 39.0787 216.758 39.1765 216.336 39.1765C215.6 39.1765 214.879 38.981 214.179 38.5898L213.773 39.3103C214.117 39.5008 214.514 39.65 214.956 39.7633C215.404 39.8765 215.836 39.9331 216.264 39.9331C217.025 39.9331 217.643 39.7478 218.116 39.3721C218.6 38.9913 218.837 38.5023 218.837 37.9002Z"/>
</svg>
