<?xml version="1.0" encoding="UTF-8" standalone="no"?><svg width="300" height="103" xmlns="http://www.w3.org/2000/svg" fill-rule="evenodd" clip-rule="evenodd"><path fill="#00303c" d="M0 0h299.999v103h-300z"/><path d="M271.08 66.74c1.09 0 1.9.84 1.9 1.87 0 1.15-.96 2.05-2.12 2.05-1.08 0-1.86-.84-1.86-1.87 0-1.15.93-2.05 2.08-2.05m-2.42 7.22h2.8l-2.71 15.3h-2.8l2.71-15.3zm-82.28 6.3h8.87v-.31c0-2.19-1.28-3.78-3.78-3.78-2.41 0-4.31 1.5-5.09 4.09m-.34 2.22c0 3.09 2.12 4.68 4.97 4.68 1.84 0 3.68-.65 4.86-1.31-.05.29-.47 2.64-.53 2.93-1.31.63-3.09.91-4.53.91-4.15 0-7.55-2.31-7.55-7.03 0-2.24.78-4.52 2.18-6.18 1.72-2.03 4.06-2.84 6.15-2.84 3.66 0 6.28 2.44 6.28 6.18 0 .85-.13 1.88-.34 2.66h-11.49zm16.87-8.5h2.82l-.35 1.88.06.03c1.56-1.25 3.44-2.25 5.53-2.25 2.71 0 4.59 1.75 4.59 4.72 0 .53-.06 1.15-.25 2.15-.11.59-.63 3.54-1.56 8.84h-2.82c.92-5.19 1.43-8.08 1.53-8.65.16-.85.22-1.41.22-1.84 0-1.57-.71-2.6-2.46-2.6-1.78 0-3.69 1.1-5.34 2.41-.12.71-.75 4.27-1.88 10.68h-2.8l2.71-15.37zm19.14 6.28h8.88v-.31c0-2.19-1.29-3.78-3.78-3.78-2.41 0-4.31 1.5-5.1 4.09m-.34 2.22c0 3.09 2.13 4.68 4.97 4.68 1.84 0 3.69-.65 4.87-1.31-.05.29-.48 2.64-.53 2.93-1.31.63-3.09.91-4.53.91-4.15 0-7.56-2.31-7.56-7.03 0-2.24.78-4.52 2.19-6.18 1.72-2.03 4.06-2.84 6.15-2.84 3.66 0 6.28 2.44 6.28 6.18 0 .85-.13 1.88-.34 2.66h-11.5zm16.88-8.5h2.81l-.48 2.63c.04.01.06.03.07.03 1.31-1.66 3.68-2.78 5.65-2.78.34 0 .66.03.97.09-.05.27-.42 2.45-.47 2.72-.22-.03-.59-.06-.94-.06-2.18 0-4.28 1.21-5.84 3.18-.11.64-.67 3.82-1.68 9.56h-2.81l2.72-15.37zm16.49 12.87c1.37 0 2.65-.56 3.75-1.37.15-.87 1.37-7.82 1.52-8.69-.84-.34-2.21-.65-3.4-.65-1.84 0-3.22.75-4.18 1.81-1.09 1.22-1.72 2.94-1.72 4.56 0 2.62 1.63 4.34 4.03 4.34m-4.22-10.68c1.6-1.62 3.87-2.53 6.4-2.53 2.06 0 4.25.59 6.19 1.53l-2.5 14.21c-.94 5.24-4.12 7.18-8.27 7.18-1.85 0-3.69-.37-5.48-1.34.06-.29.48-2.64.54-2.94 1.34.97 3.25 1.72 5.09 1.72 2.47 0 4.68-1.31 5.27-4.46.02-.1.1-.59.25-1.47-.02-.02-.02-.03-.03-.03-1 .68-2.12 1.24-3.8 1.24-3.66 0-6.28-2.65-6.28-6.55 0-2.31.93-4.84 2.62-6.56m35.43.78c-.9-.44-2.19-.81-3.47-.81-1.9 0-3.31.78-4.31 1.94-1.18 1.37-1.75 3.18-1.75 4.8 0 2.78 1.66 4.35 3.72 4.35 1.53 0 3.09-.85 4.4-2.22.28-1.61 1.13-6.45 1.41-8.06zm.62 12.4h-2.81l.25-1.35c-.04-.01-.06-.02-.06-.03-1.09.91-2.5 1.72-4.37 1.72-3.34 0-5.96-2.59-5.96-6.59 0-2.31.87-4.93 2.71-6.83 1.82-1.88 4.19-2.63 6.44-2.63 2.24 0 4.33.78 6.27 1.69-.33 1.87-1.15 6.54-2.47 14.02zM11.9 44.68c5.22 3.52 11.79 5.08 15.65 5.08 3.92 0 6.83-1.56 6.83-5.22 0-4.53-4.6-4.94-10.9-6.98-6.77-2.23-12.86-5.55-12.86-14.08 0-9.15 6.9-14.84 17.2-14.84 4.81 0 10.7 1.22 14.96 3.53V22.8c-5.21-3.25-11.24-4.74-15.03-4.74-3.66 0-6.3 1.35-6.3 4.61 0 4.33 4.54 4.67 10.43 6.63 7.38 2.44 13.34 5.9 13.34 14.57 0 9.54-7.25 15.3-17.81 15.3-4.88 0-10.9-1.22-15.51-3.59v-10.9zM56.49 8.64c3.25 0 5.96 2.64 5.96 5.9 0 3.25-2.71 5.89-5.96 5.89s-5.96-2.64-5.96-5.89c0-3.26 2.71-5.9 5.96-5.9m56.77 30.55c0-2.5-.41-3.66-1.22-4.54-.95-1.01-2.17-1.42-3.53-1.42-2.37 0-4.81 1.22-6.56 2.78.06.47.06 1.01.06 1.49v20.93h-10.3V39.19c0-2.23-.33-3.59-1.21-4.54-.95-1.01-2.17-1.42-3.53-1.42-2.36 0-4.8 1.29-6.5 2.71v22.49H70.18V25.1h10.16v2.98c.08.04.12.06.13.07 2.58-2.17 5.96-3.79 10.03-3.79 3.59 0 7.72 1.42 9.68 4.74 3.59-3.19 7.52-4.74 11.72-4.74 3.72 0 6.64 1.28 8.6 3.31 2.1 2.17 3.05 5.08 3.05 9.83v20.93h-10.29V39.19zm34.29 10.71c5.36 0 8.34-3.86 8.34-8.8 0-5.01-2.98-9.08-8.06-9.08-2.1 0-4.07.75-5.56 1.83v14.77c1.29.67 3.19 1.28 5.28 1.28m-5.28 22.49h-10.29V24.17h10.09v1.69c.08.04.12.06.13.07 2.17-1.49 4.95-2.51 8.26-2.51 8.54 0 15.79 6.78 15.79 17.14 0 10.7-7.66 17.67-17.41 17.67-2.71 0-4.87-.54-6.43-1.28-.01 0-.06.03-.14.06v15.38zm30.64-65.71h10.29v51.75h-10.29V6.68zm40.64 30.55c-.6-3.59-3.24-5.76-6.56-5.76-3.19 0-5.97 1.96-6.84 5.76h13.4zm-13.34 6.5c1.16 4.6 4.94 6.7 9.69 6.7 3.72 0 7.78-1.28 11.31-3.65v8.6c-3.25 2.03-8.26 3.05-12.67 3.05-10.97 0-18.89-6.84-18.89-17.28 0-10.63 8.26-17.53 17.47-17.53 8.2 0 15.92 5.41 15.92 16.58 0 1.16-.07 2.65-.21 3.53h-22.62zm28.61 2.91c4.6 2.71 9.95 3.86 13.13 3.86 2.85 0 4.54-.74 4.54-2.57 0-2.58-3.72-2.31-8.73-3.59-6.3-1.56-10.03-4.2-10.03-9.69.07-7.04 6.3-11.03 14.57-11.03 3.99 0 8.94.81 12.73 2.64v8.86c-4.41-2.5-9.55-3.59-12.53-3.59-2.71 0-4.33.82-4.33 2.38 0 2.43 3.59 2.24 8.53 3.45 6.36 1.56 10.22 4 10.22 9.75-.06 7.32-6.43 11.32-14.97 11.32-3.99 0-9.14-.82-13.13-2.78v-9.01z" fill="#ede813" fill-rule="nonzero"/><path d="M271.08 66.74c1.09 0 1.9.84 1.9 1.87 0 1.15-.96 2.05-2.12 2.05-1.08 0-1.86-.84-1.86-1.87 0-1.15.93-2.05 2.08-2.05m-2.42 7.22h2.8l-2.71 15.3h-2.8l2.71-15.3zm-82.28 6.3h8.87v-.31c0-2.19-1.28-3.78-3.78-3.78-2.41 0-4.31 1.5-5.09 4.09m-.34 2.22c0 3.09 2.12 4.68 4.97 4.68 1.84 0 3.68-.65 4.86-1.31-.05.29-.47 2.64-.53 2.93-1.31.63-3.09.91-4.53.91-4.15 0-7.55-2.31-7.55-7.03 0-2.24.78-4.52 2.18-6.18 1.72-2.03 4.06-2.84 6.15-2.84 3.66 0 6.28 2.44 6.28 6.18 0 .85-.13 1.88-.34 2.66h-11.49zm16.87-8.5h2.82l-.35 1.88.06.03c1.56-1.25 3.44-2.25 5.53-2.25 2.71 0 4.59 1.75 4.59 4.72 0 .53-.06 1.15-.25 2.15-.11.59-.63 3.54-1.56 8.84h-2.82c.92-5.19 1.43-8.08 1.53-8.65.16-.85.22-1.41.22-1.84 0-1.57-.71-2.6-2.46-2.6-1.78 0-3.69 1.1-5.34 2.41-.12.71-.75 4.27-1.88 10.68h-2.8l2.71-15.37zm19.14 6.28h8.88v-.31c0-2.19-1.29-3.78-3.78-3.78-2.41 0-4.31 1.5-5.1 4.09m-.34 2.22c0 3.09 2.13 4.68 4.97 4.68 1.84 0 3.69-.65 4.87-1.31-.05.29-.48 2.64-.53 2.93-1.31.63-3.09.91-4.53.91-4.15 0-7.56-2.31-7.56-7.03 0-2.24.78-4.52 2.19-6.18 1.72-2.03 4.06-2.84 6.15-2.84 3.66 0 6.28 2.44 6.28 6.18 0 .85-.13 1.88-.34 2.66h-11.5zm16.88-8.5h2.81l-.48 2.63c.04.01.06.03.07.03 1.31-1.66 3.68-2.78 5.65-2.78.34 0 .66.03.97.09-.05.27-.42 2.45-.47 2.72-.22-.03-.59-.06-.94-.06-2.18 0-4.28 1.21-5.84 3.18-.11.64-.67 3.82-1.68 9.56h-2.81l2.72-15.37zm16.49 12.87c1.37 0 2.65-.56 3.75-1.37.15-.87 1.37-7.82 1.52-8.69-.84-.34-2.21-.65-3.4-.65-1.84 0-3.22.75-4.18 1.81-1.09 1.22-1.72 2.94-1.72 4.56 0 2.62 1.63 4.34 4.03 4.34m-4.22-10.68c1.6-1.62 3.87-2.53 6.4-2.53 2.06 0 4.25.59 6.19 1.53l-2.5 14.21c-.94 5.24-4.12 7.18-8.27 7.18-1.85 0-3.69-.37-5.48-1.34.06-.29.48-2.64.54-2.94 1.34.97 3.25 1.72 5.09 1.72 2.47 0 4.68-1.31 5.27-4.46.02-.1.1-.59.25-1.47-.02-.02-.02-.03-.03-.03-1 .68-2.12 1.24-3.8 1.24-3.66 0-6.28-2.65-6.28-6.55 0-2.31.93-4.84 2.62-6.56m35.43.78c-.9-.44-2.19-.81-3.47-.81-1.9 0-3.31.78-4.31 1.94-1.18 1.37-1.75 3.18-1.75 4.8 0 2.78 1.66 4.35 3.72 4.35 1.53 0 3.09-.85 4.4-2.22.28-1.61 1.13-6.45 1.41-8.06zm.62 12.4h-2.81l.25-1.35c-.04-.01-.06-.02-.06-.03-1.09.91-2.5 1.72-4.37 1.72-3.34 0-5.96-2.59-5.96-6.59 0-2.31.87-4.93 2.71-6.83 1.82-1.88 4.19-2.63 6.44-2.63 2.24 0 4.33.78 6.27 1.69-.33 1.87-1.15 6.54-2.47 14.02zM11.9 44.68c5.22 3.52 11.79 5.08 15.65 5.08 3.92 0 6.83-1.56 6.83-5.22 0-4.53-4.6-4.94-10.9-6.98-6.77-2.23-12.86-5.55-12.86-14.08 0-9.15 6.9-14.84 17.2-14.84 4.81 0 10.7 1.22 14.96 3.53V22.8c-5.21-3.25-11.24-4.74-15.03-4.74-3.66 0-6.3 1.35-6.3 4.61 0 4.33 4.54 4.67 10.43 6.63 7.38 2.44 13.34 5.9 13.34 14.57 0 9.54-7.25 15.3-17.81 15.3-4.88 0-10.9-1.22-15.51-3.59v-10.9zM56.49 8.64c3.25 0 5.96 2.64 5.96 5.9 0 3.25-2.71 5.89-5.96 5.89s-5.96-2.64-5.96-5.89c0-3.26 2.71-5.9 5.96-5.9m56.77 30.55c0-2.5-.41-3.66-1.22-4.54-.95-1.01-2.17-1.42-3.53-1.42-2.37 0-4.81 1.22-6.56 2.78.06.47.06 1.01.06 1.49v20.93h-10.3V39.19c0-2.23-.33-3.59-1.21-4.54-.95-1.01-2.17-1.42-3.53-1.42-2.36 0-4.8 1.29-6.5 2.71v22.49H70.18V25.1h10.16v2.98c.08.04.12.06.13.07 2.58-2.17 5.96-3.79 10.03-3.79 3.59 0 7.72 1.42 9.68 4.74 3.59-3.19 7.52-4.74 11.72-4.74 3.72 0 6.64 1.28 8.6 3.31 2.1 2.17 3.05 5.08 3.05 9.83v20.93h-10.29V39.19zm34.29 10.71c5.36 0 8.34-3.86 8.34-8.8 0-5.01-2.98-9.08-8.06-9.08-2.1 0-4.07.75-5.56 1.83v14.77c1.29.67 3.19 1.28 5.28 1.28m-5.28 22.49h-10.29V24.17h10.09v1.69c.08.04.12.06.13.07 2.17-1.49 4.95-2.51 8.26-2.51 8.54 0 15.79 6.78 15.79 17.14 0 10.7-7.66 17.67-17.41 17.67-2.71 0-4.87-.54-6.43-1.28-.01 0-.06.03-.14.06v15.38zm30.64-65.71h10.29v51.75h-10.29V6.68zm40.64 30.55c-.6-3.59-3.24-5.76-6.56-5.76-3.19 0-5.97 1.96-6.84 5.76h13.4zm-13.34 6.5c1.16 4.6 4.94 6.7 9.69 6.7 3.72 0 7.78-1.28 11.31-3.65v8.6c-3.25 2.03-8.26 3.05-12.67 3.05-10.97 0-18.89-6.84-18.89-17.28 0-10.63 8.26-17.53 17.47-17.53 8.2 0 15.92 5.41 15.92 16.58 0 1.16-.07 2.65-.21 3.53h-22.62zm28.61 2.91c4.6 2.71 9.95 3.86 13.13 3.86 2.85 0 4.54-.74 4.54-2.57 0-2.58-3.72-2.31-8.73-3.59-6.3-1.56-10.03-4.2-10.03-9.69.07-7.04 6.3-11.03 14.57-11.03 3.99 0 8.94.81 12.73 2.64v8.86c-4.41-2.5-9.55-3.59-12.53-3.59-2.71 0-4.33.82-4.33 2.38 0 2.43 3.59 2.24 8.53 3.45 6.36 1.56 10.22 4 10.22 9.75-.06 7.32-6.43 11.32-14.97 11.32-3.99 0-9.14-.82-13.13-2.78v-9.01z" fill="none"/></svg>