<?xml version="1.0" encoding="UTF-8"?><svg width="219" height="40" xmlns="http://www.w3.org/2000/svg"><path d="M113.968 18.57h14.2v-1.735h-11.766v-5.548h8.837V9.532h-8.837V4.416h11.766v-1.73h-14.2V18.57zm7.38-18.446l-1.924 2.161 6.037-2.161h-4.113zm30.664 16.71V2.688h-2.223v15.882h14.359v-1.734h-12.136zM137.375 2.688L129.3 18.569h2.728l2.064-4.107h9.686l2.084 4.107h2.702l-8.08-15.882h-3.109zm-2.259 9.783l3.803-7.586 3.85 7.586h-7.653zm-28.852-.54c3.638-.973 3.988-3.68 3.973-4.647-.222-2.836-2.131-4.596-5.564-4.596h-10.01v15.882h2.285v-6.66h6.516l4.796 6.66h2.877c-.005 0-3.453-4.482-4.873-6.639zm-1.9-1.9h-7.416V4.57h7.674c1.765 0 2.763.824 3.119 1.874.236.72.082 1.662-.304 2.305-.643 1.055-1.863 1.282-3.073 1.282zM80.947 0c-6.444 0-10.829 4.54-10.829 10.041 0 5.785 4.849 9.872 10.829 9.872s10.829-4.025 10.829-9.872C91.776 4.54 87.329 0 80.947 0zm-.072 17.936c-4.457 0-8.127-3.582-8.127-7.895s3.5-8.065 8.302-8.065a8.06 8.06 0 018.127 8.065c-.006 4.318-3.85 7.895-8.302 7.895zM64.37 8.306h1.646l2.99-5.62h-2.408l-2.228 5.62zm-8.05 8.529h12.136v1.734h-14.36V2.687h2.224v14.148zM5.831 33.649c0-.88-.401-1.56-1.199-2.038a2.551 2.551 0 00-.829-.309 6.805 6.805 0 00-1.214-.087H0v8.528h1.091V36.35h1.637c.499 0 .926-.051 1.281-.15.355-.097.68-.272.983-.524.299-.247.515-.535.649-.865.123-.33.19-.715.19-1.163zm-1.24.196c0 .478-.16.88-.479 1.204-.165.165-.35.283-.566.355-.21.072-.51.108-.89.108H1.09V32.07h1.184c.448 0 .803.03 1.08.098.273.067.505.175.695.324.36.283.54.73.54 1.354zm10.36-.422c-.026-.006-.077-.021-.144-.037a1.017 1.017 0 00-.226-.025c-.345 0-.69.092-1.03.278-.34.185-.633.437-.88.751 0-.247-.026-.463-.082-.638a2.317 2.317 0 00-.14-.366l-1.06.263c.037.067.083.206.145.422.056.216.087.515.087.896v4.776h1.066v-3.88c0-.248.025-.438.082-.572.056-.134.16-.268.314-.412.33-.298.705-.448 1.132-.448a.79.79 0 01.299.052l.437-1.06zm10.546 3.32c0-.979-.211-1.746-.628-2.301a2.775 2.775 0 00-.952-.788c-.381-.195-.84-.293-1.375-.293-.89 0-1.595.288-2.115.87-.514.581-.777 1.374-.777 2.372 0 1.03.257 1.832.772 2.42.515.586 1.235.874 2.162.874.88 0 1.585-.278 2.12-.828.53-.546.793-1.323.793-2.327zm-1.21.076c0 .304-.015.561-.046.757-.031.2-.082.396-.154.587-.119.298-.304.53-.556.69a1.67 1.67 0 01-.911.241c-.289 0-.561-.056-.819-.175-.252-.113-.442-.267-.555-.448-.13-.19-.232-.468-.31-.833a5.773 5.773 0 01-.113-1.194c0-.695.108-1.236.325-1.616.118-.206.303-.371.56-.495.253-.118.53-.18.83-.18.298 0 .58.067.843.206.263.134.464.335.597.592.201.391.31 1.014.31 1.868zm11.637 2.285c0 .134.02.258.056.381.037.119.067.206.093.252h1.091c-.072-.175-.123-.416-.154-.725a13.55 13.55 0 01-.046-1.271v-6.918l-1.06-.16v2.6c0 .299.004.618.015.957a2.091 2.091 0 00-.793-.576 2.6 2.6 0 00-1.05-.206c-.247 0-.468.026-.674.087-.206.057-.417.16-.633.299-.937.587-1.405 1.544-1.405 2.872 0 .988.242 1.755.72 2.306.484.55 1.164.828 2.044.828.401 0 .736-.056 1.014-.17a2.24 2.24 0 00.782-.555zm-.041-.947c-.02.042-.062.109-.129.201a.939.939 0 01-.278.247c-.226.15-.432.252-.623.31a2.394 2.394 0 01-.69.087c-.318 0-.586-.057-.802-.175a1.445 1.445 0 01-.556-.546c-.18-.298-.273-.834-.273-1.616 0-.438.031-.788.093-1.05.062-.263.175-.51.34-.741.293-.432.715-.649 1.266-.649.761 0 1.312.217 1.646.649v3.283h.006zm13.288 1.184c-.17-.149-.293-.319-.36-.51-.067-.19-.103-.478-.103-.87v-4.513l-1.05.16v4.39a2.22 2.22 0 01-.751.808c-.32.206-.643.309-.983.309-.324 0-.602-.072-.834-.211a.76.76 0 01-.319-.381c-.062-.155-.087-.376-.087-.664v-4.452l-1.05.185v4.55c0 .391.056.695.175.921.144.273.37.49.679.644.309.16.68.236 1.106.236.917 0 1.637-.314 2.152-.941.04.205.123.38.231.53.108.144.278.298.505.468l.69-.659zm9.08-5.795h-1.704c0-.175.005-.37.02-.592.016-.221.026-.406.041-.556.016-.149.026-.283.042-.406.015-.119.025-.201.035-.242l-1.116.221c0 .041-.005.108-.02.2-.016.093-.027.217-.042.382-.015.16-.026.33-.036.499-.01.17-.015.334-.015.489h-.886v.73h.886v4.252c0 .628.216 1.04.653 1.23.273.118.566.175.885.175.453 0 .855-.082 1.2-.247l-.15-.623a1.62 1.62 0 01-.669.124c-.324 0-.556-.067-.68-.201-.128-.134-.19-.37-.19-.72v-3.99h1.416l.33-.725zm11.023 3.196c0-.978-.21-1.745-.628-2.3a2.774 2.774 0 00-.952-.788c-.38-.195-.839-.293-1.379-.293-.89 0-1.596.288-2.11.87-.52.581-.777 1.374-.777 2.372 0 1.03.257 1.832.772 2.42.514.586 1.235.874 2.161.874.88 0 1.585-.278 2.12-.828.526-.546.793-1.323.793-2.327zm-1.21.077c0 .304-.015.561-.045.757-.031.2-.083.396-.155.587-.118.298-.303.53-.56.69-.253.159-.562.241-.912.241-.293 0-.56-.056-.818-.175-.252-.113-.443-.267-.556-.448-.129-.19-.232-.468-.304-.833a5.76 5.76 0 01-.118-1.194c0-.695.108-1.236.33-1.616a1.25 1.25 0 01.555-.495c.252-.118.53-.18.829-.18.298 0 .581.067.844.206.262.134.463.335.602.592.2.391.309 1.014.309 1.868zm11.92 1.081c0-.921-.602-1.497-1.811-1.73l-.489-.097-.407-.072c-.355-.067-.607-.17-.756-.32a.771.771 0 01-.227-.575c0-.31.114-.556.345-.742.232-.185.54-.277.932-.277.283 0 .55.035.803.113.257.077.556.185.9.334l.397-.72a4.539 4.539 0 00-.989-.36 4.42 4.42 0 00-1.08-.14c-.71 0-1.287.175-1.74.53a1.67 1.67 0 00-.674 1.375c0 .432.15.797.442 1.096.294.299.721.5 1.272.607l.437.088.407.077c.39.077.674.19.854.355.18.16.268.381.268.664a.944.944 0 01-.376.777c-.252.196-.582.293-1.004.293-.736 0-1.45-.195-2.15-.586l-.407.72c.344.19.74.34 1.183.453.448.114.88.17 1.307.17.762 0 1.38-.185 1.853-.56.479-.382.71-.87.71-1.473zm21.081-4.251c0-.88-.401-1.56-1.199-2.038a2.58 2.58 0 00-.834-.309 6.805 6.805 0 00-1.214-.087h-2.589v8.528h1.091V36.35h1.637c.499 0 .926-.051 1.281-.15.355-.097.68-.272.983-.524.299-.247.515-.535.649-.865.134-.33.195-.715.195-1.163zm-1.24.196c0 .478-.16.88-.479 1.204-.164.165-.35.283-.566.355-.21.072-.51.108-.89.108h-1.57V32.07h1.184c.448 0 .803.03 1.075.098.273.067.505.175.695.324.37.283.551.73.551 1.354zm10.36-.422c-.025-.006-.077-.021-.144-.037a1.005 1.005 0 00-.221-.025c-.345 0-.69.092-1.029.278-.34.185-.634.437-.881.751a2.1 2.1 0 00-.082-.638 2.358 2.358 0 00-.139-.366l-1.065.263c.036.067.082.206.144.422.062.216.087.515.087.896v4.776h1.061v-3.88c0-.248.025-.438.082-.572.057-.134.159-.268.314-.412a1.633 1.633 0 011.132-.448c.108 0 .211.016.299.052l.442-1.06zm10.546 3.32c0-.979-.211-1.746-.628-2.301a2.77 2.77 0 00-.952-.788c-.381-.195-.839-.293-1.374-.293-.891 0-1.596.288-2.111.87-.514.581-.777 1.374-.777 2.372 0 1.03.258 1.832.772 2.42.515.586 1.236.874 2.162.874.88 0 1.59-.278 2.12-.828.525-.546.788-1.323.788-2.327zm-1.21.076c0 .304-.015.561-.046.757a2.86 2.86 0 01-.16.587 1.4 1.4 0 01-.555.69c-.258.159-.561.241-.916.241-.289 0-.561-.056-.819-.175-.252-.113-.442-.267-.556-.448-.128-.19-.231-.468-.308-.833a5.717 5.717 0 01-.114-1.194c0-.695.108-1.236.325-1.616.118-.206.303-.371.555-.495.258-.118.536-.18.834-.18.299 0 .582.067.844.206.263.134.463.335.602.592.211.391.314 1.014.314 1.868zm10.932-5.718c-.402-.241-.901-.36-1.498-.36-.478 0-.88.108-1.199.324-.211.14-.386.33-.53.561-.144.232-.216.551-.216.958v.967h-.654v.731h.654v5.456h1.117v-5.456h1.554l.324-.73h-1.878v-.958c0-.73.308-1.091.926-1.091.175 0 .345.026.52.077.17.057.334.124.489.206l.391-.685zm6.238.53a.703.703 0 00-.247-.535.849.849 0 00-.587-.226.847.847 0 00-.587.226.7.7 0 00-.242.546c0 .206.083.386.242.53.165.144.36.216.587.216a.844.844 0 00.587-.221.68.68 0 00.247-.536zm-.299 8.106v-6.325l-1.101.165v6.166h1.101v-.006zm11.122-1.837c0-.921-.607-1.497-1.811-1.73l-.489-.097-.407-.072c-.355-.067-.607-.17-.757-.32a.772.772 0 01-.226-.575c0-.31.118-.556.345-.742.231-.185.545-.277.931-.277.283 0 .551.035.803.113.252.077.556.185.901.334l.396-.72a4.622 4.622 0 00-.988-.36 4.418 4.418 0 00-1.081-.14c-.71 0-1.286.175-1.739.53a1.67 1.67 0 00-.675 1.375c0 .432.15.797.443 1.096.293.299.721.5 1.271.607l.438.088.406.077c.391.077.675.19.85.355.175.16.267.381.267.664a.929.929 0 01-.376.777c-.247.196-.581.293-1.003.293-.736 0-1.452-.195-2.151-.586l-.407.72c.345.19.741.34 1.189.453.442.114.88.17 1.307.17.762 0 1.379-.185 1.853-.56.473-.382.71-.87.71-1.473zm10.577 0c0-.921-.603-1.497-1.812-1.73l-.489-.097-.407-.072c-.355-.067-.607-.17-.756-.32a.772.772 0 01-.227-.575c0-.31.114-.556.35-.742.232-.185.541-.277.932-.277.283 0 .551.035.803.113.252.077.556.185.9.334l.397-.72a4.766 4.766 0 00-.988-.36 4.424 4.424 0 00-1.081-.14c-.71 0-1.287.175-1.74.53a1.67 1.67 0 00-.674 1.375c0 .432.149.797.443 1.096.298.299.72.5 1.276.607l.437.088.407.077c.391.077.674.19.849.355.175.16.268.381.268.664a.931.931 0 01-.376.777c-.252.196-.581.293-1.003.293-.736 0-1.452-.195-2.152-.586l-.406.72c.345.19.741.34 1.183.453.443.114.881.17 1.308.17.761 0 1.379-.185 1.852-.56.469-.382.706-.87.706-1.473zm7.467-6.268a.7.7 0 00-.247-.536.845.845 0 00-.586-.226.847.847 0 00-.587.226.705.705 0 00-.247.546c0 .206.082.386.247.53.165.144.36.216.587.216a.84.84 0 00.586-.221.692.692 0 00.247-.536zm-.298 8.105v-6.325l-1.101.165v6.166h1.101v-.006zm12.115-2.995c0-.978-.211-1.745-.628-2.3a2.77 2.77 0 00-.952-.788c-.381-.195-.839-.293-1.374-.293-.89 0-1.595.288-2.11.87-.52.581-.777 1.374-.777 2.372 0 1.03.257 1.832.772 2.42.514.586 1.235.874 2.161.874.88 0 1.585-.278 2.121-.828.525-.546.787-1.323.787-2.327zm-1.209.077c0 .304-.016.561-.047.757-.03.2-.082.396-.154.587-.118.298-.304.53-.561.69a1.67 1.67 0 01-.911.241c-.288 0-.566-.056-.818-.175a1.25 1.25 0 01-.561-.448c-.129-.19-.232-.468-.304-.833a5.775 5.775 0 01-.118-1.194c0-.695.108-1.236.329-1.616a1.25 1.25 0 01.556-.495c.257-.118.53-.18.834-.18.298 0 .581.067.844.206.262.134.463.335.602.592.201.391.309 1.014.309 1.868zm12.465 2.918V35.04c0-.258-.057-.5-.165-.72a1.524 1.524 0 00-.653-.66 2.053 2.053 0 00-1.009-.252c-.726 0-1.441.32-2.141.957 0-.216-.031-.411-.088-.591a2.207 2.207 0 00-.154-.381l-1.034.262c.046.067.097.211.164.427.062.222.098.515.098.875v4.776h1.034v-4.611c.248-.232.551-.432.922-.607.365-.175.689-.263.962-.263.335 0 .587.088.752.263a.82.82 0 01.195.355c.031.128.046.355.046.674v4.19h1.071v.005zm10.278-.669c.062.217.175.407.334.567.16.164.356.278.592.344l.546-.694c-.247-.124-.396-.278-.458-.453-.057-.18-.088-.53-.088-1.06l.057-2.039c0-.355-.01-.638-.031-.838a1.746 1.746 0 00-.123-.53c-.294-.65-.917-.973-1.879-.973-.983 0-1.93.278-2.846.833l.53.695c.226-.19.556-.36.983-.51.427-.148.823-.22 1.184-.22.391 0 .695.113.916.334a.643.643 0 01.175.34c.026.139.041.344.041.628v.432h-.479c-1.137 0-2.017.195-2.65.581-.633.392-.947.937-.947 1.637 0 .221.036.438.108.643.072.206.195.392.365.561.17.17.402.304.68.402.283.098.622.15 1.024.15.381 0 .72-.063 1.019-.197.309-.123.623-.334.947-.633zm-.093-2.485l-.041 1.626a1.774 1.774 0 01-.679.7c-.299.18-.623.267-.968.267-.782 0-1.173-.375-1.173-1.132 0-.489.18-.86.545-1.106.366-.247.958-.37 1.786-.37h.273c.113.01.201.015.257.015zm9.197-4.951a.7.7 0 00-.247-.536.845.845 0 00-.586-.226.847.847 0 00-.587.226.705.705 0 00-.247.546c0 .206.082.386.247.53.165.144.36.216.587.216a.84.84 0 00.586-.221.692.692 0 00.247-.536zm-.298 8.105v-6.325l-1.102.165v6.166h1.102v-.006zm11.122-1.837c0-.921-.602-1.497-1.812-1.73l-.489-.097-.411-.072c-.356-.067-.608-.17-.757-.32a.772.772 0 01-.226-.575.9.9 0 01.344-.742c.232-.185.541-.277.932-.277.283 0 .551.035.803.113.252.077.556.185.9.334l.397-.72a4.544 4.544 0 00-.988-.36 4.424 4.424 0 00-1.081-.14c-.71 0-1.287.175-1.74.53a1.67 1.67 0 00-.674 1.375c0 .432.149.797.443 1.096.293.299.72.5 1.271.607l.437.088.407.077c.391.077.674.19.854.355.175.16.268.381.268.664a.931.931 0 01-.376.777c-.252.196-.581.293-1.003.293-.736 0-1.457-.195-2.157-.586l-.406.72c.344.19.741.34 1.183.453.448.114.88.17 1.308.17.761 0 1.379-.185 1.852-.56.484-.382.721-.87.721-1.473z"/></svg>