<?xml version="1.0" encoding="UTF-8" standalone="no"?>
<!DOCTYPE svg PUBLIC "-//W3C//DTD SVG 1.1//EN" "http://www.w3.org/Graphics/SVG/1.1/DTD/svg11.dtd">
<svg version="1.1" xmlns="http://www.w3.org/2000/svg" xmlns:xlink="http://www.w3.org/1999/xlink" preserveAspectRatio="xMidYMid meet" viewBox="0.0007801418435064988 -0.0015602836880361792 500.0000000000001 139.9999999999999" width="500" height="140"><defs><path d="M0 0L500 0L500 140L0 140L0 0Z" id="b18IRNhhKm"></path><path d="M272.74 101.9L329.8 101.9L329.8 94.93L282.52 94.93L282.52 72.62L318.03 72.62L318.03 65.57L282.52 65.57L282.52 45.03L329.8 45.03L329.8 38.08L272.74 38.08L272.74 101.9" id="fmkatvh5h"></path><path d="M302.39 27.77L294.67 36.45L318.92 27.77L302.39 27.77" id="i1NViiFtfE"></path><path d="M425.58 94.93L425.58 38.08L416.67 38.08L416.67 101.9L474.35 101.9L474.35 94.93L425.58 94.93" id="hkO5k29yo"></path><path d="M366.77 38.08L334.32 101.9L345.29 101.9L353.59 85.38L392.51 85.38L400.88 101.9L411.73 101.9L379.26 38.08L366.77 38.08M372.99 46.9L388.46 77.38L357.7 77.38L372.99 46.9Z" id="f2JqFxv3jy"></path><path d="M241.78 75.21C256.4 71.31 257.82 60.43 257.75 56.55C256.87 45.15 249.19 38.08 235.39 38.08C232.71 38.08 219.3 38.08 195.17 38.08L195.17 101.9L204.34 101.9L204.34 75.13L230.52 75.13L249.79 101.9C256.72 101.9 260.57 101.9 261.34 101.9C261.34 101.9 247.48 83.88 241.78 75.21M204.34 67.59L204.34 45.64C222.84 45.64 233.12 45.64 235.18 45.64C242.28 45.64 246.27 48.95 247.71 53.16C248.66 56.05 248.05 59.84 246.48 62.42C243.9 66.68 239 67.59 234.14 67.59C230.17 67.59 220.23 67.59 204.34 67.59Z" id="cQYpcozeK"></path><path d="M140.07 27.28C114.19 27.28 96.55 45.53 96.55 67.61C96.55 90.86 116.04 107.28 140.07 107.28C164.09 107.28 183.57 91.1 183.57 67.61C183.57 45.53 165.71 27.28 140.07 27.28M107.1 67.63C107.1 50.32 121.16 35.25 140.46 35.25C159.28 35.25 173.11 50.32 173.11 67.63C173.11 84.97 157.66 99.36 139.76 99.36C121.86 99.36 107.1 84.97 107.1 67.63Z" id="c3Dg8TS8YK"></path><path d="M73.46 60.66L80.08 60.66L92.09 38.08L82.42 38.08L73.46 60.66" id="b7zsIv1uD"></path><path d="M41.12 94.93L41.12 38.08L32.2 38.08L32.2 101.9L89.87 101.9L89.87 94.93L41.12 94.93" id="a4svXNHep"></path></defs><g><g><use xlink:href="#b18IRNhhKm" opacity="1" fill="#000000" fill-opacity="1"></use></g><g><g><use xlink:href="#fmkatvh5h" opacity="1" fill="#ffffff" fill-opacity="1"></use><g><use xlink:href="#fmkatvh5h" opacity="1" fill-opacity="0" stroke="#000000" stroke-width="1" stroke-opacity="0"></use></g></g><g><use xlink:href="#i1NViiFtfE" opacity="1" fill="#ffffff" fill-opacity="1"></use><g><use xlink:href="#i1NViiFtfE" opacity="1" fill-opacity="0" stroke="#000000" stroke-width="1" stroke-opacity="0"></use></g></g><g><use xlink:href="#hkO5k29yo" opacity="1" fill="#ffffff" fill-opacity="1"></use><g><use xlink:href="#hkO5k29yo" opacity="1" fill-opacity="0" stroke="#000000" stroke-width="1" stroke-opacity="0"></use></g></g><g><use xlink:href="#f2JqFxv3jy" opacity="1" fill="#ffffff" fill-opacity="1"></use><g><use xlink:href="#f2JqFxv3jy" opacity="1" fill-opacity="0" stroke="#000000" stroke-width="1" stroke-opacity="0"></use></g></g><g><use xlink:href="#cQYpcozeK" opacity="1" fill="#ffffff" fill-opacity="1"></use><g><use xlink:href="#cQYpcozeK" opacity="1" fill-opacity="0" stroke="#000000" stroke-width="1" stroke-opacity="0"></use></g></g><g><use xlink:href="#c3Dg8TS8YK" opacity="1" fill="#ffffff" fill-opacity="1"></use><g><use xlink:href="#c3Dg8TS8YK" opacity="1" fill-opacity="0" stroke="#000000" stroke-width="1" stroke-opacity="0"></use></g></g><g><use xlink:href="#b7zsIv1uD" opacity="1" fill="#ffffff" fill-opacity="1"></use><g><use xlink:href="#b7zsIv1uD" opacity="1" fill-opacity="0" stroke="#000000" stroke-width="1" stroke-opacity="0"></use></g></g><g><use xlink:href="#a4svXNHep" opacity="1" fill="#ffffff" fill-opacity="1"></use><g><use xlink:href="#a4svXNHep" opacity="1" fill-opacity="0" stroke="#000000" stroke-width="1" stroke-opacity="0"></use></g></g></g></g></svg>