<?xml version="1.0" encoding="UTF-8" standalone="no"?><svg viewBox="0 0 70 24" xmlns="http://www.w3.org/2000/svg" fill-rule="evenodd" clip-rule="evenodd"><path fill="#00303c" d="M0-.032h70v24H0z"/><path d="M61.97 15.37c.25 0 .43.19.43.41 0 .26-.22.46-.47.46-.25 0-.42-.19-.42-.41 0-.26.21-.46.46-.46m-.54 1.61h.63l-.61 3.4h-.62l.6-3.4zm-18.33 1.4h1.98v-.07c0-.49-.29-.84-.84-.84-.54 0-.96.33-1.14.91m-.07.49c0 .69.47 1.05 1.1 1.05.42 0 .83-.15 1.09-.29-.01.06-.11.58-.12.65-.29.14-.69.2-1.01.2-.92 0-1.68-.51-1.68-1.56 0-.5.17-1.01.49-1.38.38-.45.9-.63 1.37-.63.81 0 1.39.54 1.39 1.37 0 .19-.02.42-.07.59h-2.56zm3.76-1.89h.62l-.07.42c.01 0 .01.01.01.01.35-.28.77-.5 1.23-.5.61 0 1.03.39 1.03 1.05 0 .11-.02.25-.06.48-.02.13-.14.78-.35 1.96h-.63c.21-1.15.32-1.79.35-1.92.03-.19.04-.32.04-.41 0-.35-.16-.58-.55-.58s-.82.24-1.18.54c-.03.15-.17.95-.42 2.37h-.63l.61-3.42zm4.26 1.4h1.98v-.07c0-.49-.29-.84-.84-.84-.54 0-.96.33-1.14.91m-.07.49c0 .69.47 1.05 1.1 1.05.41 0 .82-.15 1.09-.29-.01.06-.11.58-.12.65-.29.14-.69.2-1.01.2-.93 0-1.68-.51-1.68-1.56 0-.5.17-1.01.48-1.38.39-.45.91-.63 1.37-.63.82 0 1.4.54 1.4 1.37 0 .19-.03.42-.07.59h-2.56zm3.75-1.89h.63l-.1.59h.01c.29-.37.82-.62 1.26-.62.08 0 .15.01.21.02-.01.07-.09.55-.1.61-.05-.01-.13-.01-.21-.01-.48 0-.95.27-1.3.71-.02.14-.15.85-.37 2.12h-.63l.6-3.42zm3.68 2.87c.3 0 .59-.13.83-.31.04-.19.31-1.74.34-1.93-.18-.08-.49-.15-.75-.15-.42 0-.72.17-.94.41-.24.27-.38.65-.38 1.01 0 .59.36.97.9.97m-.94-2.38c.35-.36.86-.56 1.42-.56.46 0 .95.13 1.38.34-.05.31-.5 2.85-.55 3.16-.21 1.17-.92 1.6-1.85 1.6-.41 0-.82-.08-1.22-.3.02-.06.11-.59.12-.65.3.21.73.38 1.14.38.55 0 1.04-.29 1.17-.99.01-.03.02-.13.06-.33-.01 0-.01-.01-.01-.01-.22.16-.47.28-.85.28-.81 0-1.39-.59-1.39-1.46 0-.51.2-1.08.58-1.46m7.89.17c-.2-.09-.48-.18-.77-.18-.43 0-.74.18-.96.43-.26.31-.39.71-.39 1.07 0 .62.37.97.83.97.34 0 .69-.19.98-.49.06-.36.25-1.44.31-1.8zm.14 2.76h-.63l.06-.29-.01-.01c-.25.2-.56.38-.98.38-.74 0-1.33-.58-1.33-1.47 0-.51.2-1.1.61-1.52.4-.42.93-.58 1.43-.58.5 0 .97.17 1.4.37-.07.42-.26 1.46-.55 3.12zM4.24 10.45c1.16.79 2.62 1.13 3.48 1.13.88 0 1.52-.34 1.52-1.16 0-1.01-1.02-1.1-2.42-1.55-1.51-.5-2.87-1.24-2.87-3.14 0-2.04 1.54-3.3 3.83-3.3 1.07 0 2.39.27 3.33.78v2.37c-1.16-.72-2.5-1.06-3.34-1.06-.82 0-1.41.3-1.41 1.03 0 .97 1.01 1.04 2.33 1.48 1.64.54 2.97 1.31 2.97 3.24 0 2.13-1.62 3.41-3.97 3.41-1.09 0-2.43-.27-3.45-.8v-2.43zm9.93-8.02c.72 0 1.33.58 1.33 1.31 0 .72-.61 1.31-1.33 1.31-.73 0-1.33-.59-1.33-1.31 0-.73.6-1.31 1.33-1.31m12.64 6.8c0-.56-.09-.81-.27-1.01-.21-.23-.48-.32-.78-.32-.53 0-1.07.27-1.47.62.02.11.02.23.02.33v4.67h-2.29V9.23c0-.5-.08-.8-.28-1.01-.21-.23-.48-.32-.78-.32-.53 0-1.07.29-1.45.61v5.01h-2.29V6.09h2.26v.67c.02 0 .03.01.03.01.57-.48 1.33-.84 2.23-.84.8 0 1.72.31 2.16 1.05.8-.71 1.68-1.05 2.61-1.05.83 0 1.48.28 1.92.74.47.48.68 1.13.68 2.18v4.67h-2.3V9.23zm7.64 2.39c1.2 0 1.86-.86 1.86-1.96 0-1.12-.66-2.03-1.79-2.03-.47 0-.91.17-1.24.41v3.29c.29.15.71.29 1.17.29m-1.17 5.01h-2.29V5.88h2.24v.38c.02.01.03.02.03.02.49-.34 1.11-.56 1.84-.56 1.91 0 3.52 1.51 3.52 3.82 0 2.38-1.71 3.93-3.88 3.93-.6 0-1.08-.12-1.43-.28 0 0-.01 0-.03.01v3.43zM40.1 1.99h2.3v11.53h-2.3V1.99zm9.06 6.8c-.14-.8-.73-1.28-1.47-1.28-.7 0-1.32.44-1.52 1.28h2.99zm-2.97 1.45c.25 1.03 1.1 1.5 2.15 1.5.83 0 1.74-.29 2.52-.82v1.92c-.72.45-1.84.68-2.82.68-2.44 0-4.21-1.53-4.21-3.85 0-2.37 1.84-3.91 3.9-3.91 1.82 0 3.54 1.21 3.54 3.7 0 .25-.01.59-.04.78h-5.04zm6.37.65c1.02.6 2.22.86 2.93.86.63 0 1.01-.17 1.01-.57 0-.58-.83-.52-1.95-.8-1.4-.35-2.23-.94-2.23-2.16.01-1.57 1.4-2.46 3.24-2.46.89 0 1.99.18 2.84.59v1.98c-.98-.56-2.13-.8-2.79-.8-.61 0-.97.18-.97.52 0 .55.8.5 1.9.77 1.42.35 2.28.89 2.28 2.18-.02 1.63-1.43 2.52-3.33 2.52-.89 0-2.04-.18-2.93-.62v-2.01z" fill="#ede813" fill-rule="nonzero"/><path d="M61.97 15.37c.25 0 .43.19.43.41 0 .26-.22.46-.47.46-.25 0-.42-.19-.42-.41 0-.26.21-.46.46-.46m-.54 1.61h.63l-.61 3.4h-.62l.6-3.4zm-18.33 1.4h1.98v-.07c0-.49-.29-.84-.84-.84-.54 0-.96.33-1.14.91m-.07.49c0 .69.47 1.05 1.1 1.05.42 0 .83-.15 1.09-.29-.01.06-.11.58-.12.65-.29.14-.69.2-1.01.2-.92 0-1.68-.51-1.68-1.56 0-.5.17-1.01.49-1.38.38-.45.9-.63 1.37-.63.81 0 1.39.54 1.39 1.37 0 .19-.02.42-.07.59h-2.56zm3.76-1.89h.62l-.07.42c.01 0 .01.01.01.01.35-.28.77-.5 1.23-.5.61 0 1.03.39 1.03 1.05 0 .11-.02.25-.06.48-.02.13-.14.78-.35 1.96h-.63c.21-1.15.32-1.79.35-1.92.03-.19.04-.32.04-.41 0-.35-.16-.58-.55-.58s-.82.24-1.18.54c-.03.15-.17.95-.42 2.37h-.63l.61-3.42zm4.26 1.4h1.98v-.07c0-.49-.29-.84-.84-.84-.54 0-.96.33-1.14.91m-.07.49c0 .69.47 1.05 1.1 1.05.41 0 .82-.15 1.09-.29-.01.06-.11.58-.12.65-.29.14-.69.2-1.01.2-.93 0-1.68-.51-1.68-1.56 0-.5.17-1.01.48-1.38.39-.45.91-.63 1.37-.63.82 0 1.4.54 1.4 1.37 0 .19-.03.42-.07.59h-2.56zm3.75-1.89h.63l-.1.59h.01c.29-.37.82-.62 1.26-.62.08 0 .15.01.21.02-.01.07-.09.55-.1.61-.05-.01-.13-.01-.21-.01-.48 0-.95.27-1.3.71-.02.14-.15.85-.37 2.12h-.63l.6-3.42zm3.68 2.87c.3 0 .59-.13.83-.31.04-.19.31-1.74.34-1.93-.18-.08-.49-.15-.75-.15-.42 0-.72.17-.94.41-.24.27-.38.65-.38 1.01 0 .59.36.97.9.97m-.94-2.38c.35-.36.86-.56 1.42-.56.46 0 .95.13 1.38.34-.05.31-.5 2.85-.55 3.16-.21 1.17-.92 1.6-1.85 1.6-.41 0-.82-.08-1.22-.3.02-.06.11-.59.12-.65.3.21.73.38 1.14.38.55 0 1.04-.29 1.17-.99.01-.03.02-.13.06-.33-.01 0-.01-.01-.01-.01-.22.16-.47.28-.85.28-.81 0-1.39-.59-1.39-1.46 0-.51.2-1.08.58-1.46m7.89.17c-.2-.09-.48-.18-.77-.18-.43 0-.74.18-.96.43-.26.31-.39.71-.39 1.07 0 .62.37.97.83.97.34 0 .69-.19.98-.49.06-.36.25-1.44.31-1.8zm.14 2.76h-.63l.06-.29-.01-.01c-.25.2-.56.38-.98.38-.74 0-1.33-.58-1.33-1.47 0-.51.2-1.1.61-1.52.4-.42.93-.58 1.43-.58.5 0 .97.17 1.4.37-.07.42-.26 1.46-.55 3.12zM4.24 10.45c1.16.79 2.62 1.13 3.48 1.13.88 0 1.52-.34 1.52-1.16 0-1.01-1.02-1.1-2.42-1.55-1.51-.5-2.87-1.24-2.87-3.14 0-2.04 1.54-3.3 3.83-3.3 1.07 0 2.39.27 3.33.78v2.37c-1.16-.72-2.5-1.06-3.34-1.06-.82 0-1.41.3-1.41 1.03 0 .97 1.01 1.04 2.33 1.48 1.64.54 2.97 1.31 2.97 3.24 0 2.13-1.62 3.41-3.97 3.41-1.09 0-2.43-.27-3.45-.8v-2.43zm9.93-8.02c.72 0 1.33.58 1.33 1.31 0 .72-.61 1.31-1.33 1.31-.73 0-1.33-.59-1.33-1.31 0-.73.6-1.31 1.33-1.31m12.64 6.8c0-.56-.09-.81-.27-1.01-.21-.23-.48-.32-.78-.32-.53 0-1.07.27-1.47.62.02.11.02.23.02.33v4.67h-2.29V9.23c0-.5-.08-.8-.28-1.01-.21-.23-.48-.32-.78-.32-.53 0-1.07.29-1.45.61v5.01h-2.29V6.09h2.26v.67c.02 0 .03.01.03.01.57-.48 1.33-.84 2.23-.84.8 0 1.72.31 2.16 1.05.8-.71 1.68-1.05 2.61-1.05.83 0 1.48.28 1.92.74.47.48.68 1.13.68 2.18v4.67h-2.3V9.23zm7.64 2.39c1.2 0 1.86-.86 1.86-1.96 0-1.12-.66-2.03-1.79-2.03-.47 0-.91.17-1.24.41v3.29c.29.15.71.29 1.17.29m-1.17 5.01h-2.29V5.88h2.24v.38c.02.01.03.02.03.02.49-.34 1.11-.56 1.84-.56 1.91 0 3.52 1.51 3.52 3.82 0 2.38-1.71 3.93-3.88 3.93-.6 0-1.08-.12-1.43-.28 0 0-.01 0-.03.01v3.43zM40.1 1.99h2.3v11.53h-2.3V1.99zm9.06 6.8c-.14-.8-.73-1.28-1.47-1.28-.7 0-1.32.44-1.52 1.28h2.99zm-2.97 1.45c.25 1.03 1.1 1.5 2.15 1.5.83 0 1.74-.29 2.52-.82v1.92c-.72.45-1.84.68-2.82.68-2.44 0-4.21-1.53-4.21-3.85 0-2.37 1.84-3.91 3.9-3.91 1.82 0 3.54 1.21 3.54 3.7 0 .25-.01.59-.04.78h-5.04zm6.37.65c1.02.6 2.22.86 2.93.86.63 0 1.01-.17 1.01-.57 0-.58-.83-.52-1.95-.8-1.4-.35-2.23-.94-2.23-2.16.01-1.57 1.4-2.46 3.24-2.46.89 0 1.99.18 2.84.59v1.98c-.98-.56-2.13-.8-2.79-.8-.61 0-.97.18-.97.52 0 .55.8.5 1.9.77 1.42.35 2.28.89 2.28 2.18-.02 1.63-1.43 2.52-3.33 2.52-.89 0-2.04-.18-2.93-.62v-2.01z" fill="none"/></svg>