<svg fill="none" height="24" width="70" xmlns="http://www.w3.org/2000/svg"><clipPath id="a"><path d="M6 6.6h59.69v10.8H6z"/></clipPath><path d="M0 0h69.6v24H0z" fill="#000"/><g clip-path="url(#a)" fill="#fff"><path d="M38.473 16.673h7.703v-.94h-6.382v-3.011h4.794v-.952h-4.794V8.996h6.382V8.06h-7.703zM42.477 6.666l-1.043 1.172 3.273-1.172zM59.107 15.732V8.06h-1.204v8.614h7.787v-.94zM51.167 8.059l-4.38 8.614h1.48l1.121-2.23h5.254l1.13 2.23h1.465L52.853 8.06zm-1.225 5.305l2.065-4.115 2.088 4.115zM34.294 13.071c1.973-.527 2.165-1.995 2.155-2.52-.118-1.539-1.155-2.492-3.018-2.492h-5.43v8.614h1.238V13.06h3.535l2.6 3.613h1.56s-1.87-2.432-2.64-3.602zm-1.032-1.03H29.24V9.079h4.163c.959 0 1.498.448 1.692 1.016.129.39.046.901-.166 1.25-.348.575-1.009.698-1.666.698zM20.564 6.6c-3.494 0-5.876 2.463-5.876 5.445 0 3.139 2.63 5.355 5.876 5.355 3.242 0 5.872-2.184 5.872-5.355 0-2.982-2.411-5.445-5.872-5.445zm-.042 9.73c-2.418 0-4.41-1.942-4.41-4.282 0-2.337 1.898-4.373 4.503-4.373a4.372 4.372 0 014.408 4.373c0 2.34-2.085 4.283-4.501 4.283zM11.57 11.106h.894l1.621-3.047h-1.304zM7.205 15.732V8.06H6v8.614h7.787v-.94z"/></g></svg>