<?xml version="1.0" encoding="UTF-8"?>
<svg width="70" height="24" viewBox="0 0 70 24" fill="none" xmlns="http://www.w3.org/2000/svg">
<rect width="69.6" height="24" fill="black"/>
<path d="M21.2242 5.21057H20.7399C19.9596 5.21057 19.3318 5.39891 18.8655 5.77559C18.3991 6.15228 18.1659 6.64555 18.1659 7.27335C18.1659 7.89218 18.3991 8.38546 18.8655 8.76214C19.3318 9.13882 19.9596 9.32716 20.7399 9.32716H21.2242V10.3855H20.6682C19.556 10.3855 18.6682 10.0985 18.0045 9.53344C17.3318 8.95945 17 8.19712 17 7.25541C17 6.7442 17.1166 6.26887 17.3587 5.82941C17.5919 5.38995 17.9327 5.02223 18.3722 4.7173C18.6771 4.51102 19 4.36753 19.3498 4.27784C19.6906 4.18815 20.13 4.14331 20.6682 4.14331H21.2242V5.21057V5.21057Z" fill="white"/>
<path d="M22.1121 7.25555C22.1121 6.82506 22.1928 6.4125 22.3542 6.01788C22.5156 5.62327 22.7488 5.27349 23.0538 4.95959C23.3587 4.65466 23.6905 4.42147 24.0672 4.26004C24.4439 4.10757 24.8475 4.02686 25.269 4.02686C25.6905 4.02686 26.0941 4.10757 26.4798 4.26901C26.8654 4.43044 27.1973 4.66363 27.5022 4.96856C27.8071 5.27349 28.0313 5.62327 28.1928 6.01788C28.3542 6.4125 28.4349 6.82506 28.4349 7.25555C28.4349 7.69501 28.3542 8.11653 28.1928 8.51115C28.0313 8.90577 27.8071 9.25555 27.5022 9.56048C27.2062 9.86541 26.8654 10.0986 26.4798 10.26C26.0941 10.4215 25.6995 10.5022 25.269 10.5022C24.8475 10.5022 24.4439 10.4215 24.0672 10.26C23.6905 10.0986 23.3497 9.86541 23.0538 9.56048C22.7488 9.25555 22.5156 8.8968 22.3542 8.50218C22.1928 8.11654 22.1121 7.69501 22.1121 7.25555ZM23.278 7.23761C23.278 7.84748 23.4753 8.35869 23.8609 8.78021C24.2466 9.20174 24.7219 9.41698 25.269 9.41698C25.8161 9.41698 26.2914 9.20174 26.6771 8.78021C27.0627 8.35869 27.26 7.84748 27.26 7.23761C27.26 6.63672 27.0627 6.12551 26.6771 5.70398C26.2914 5.28246 25.8251 5.07618 25.269 5.07618C24.7219 5.07618 24.2466 5.28246 23.8609 5.70398C23.4753 6.12551 23.278 6.63672 23.278 7.23761Z" fill="white"/>
<path d="M29.3857 9.31825H32.0852C32.3543 9.31825 32.5695 9.26444 32.722 9.15682C32.8745 9.0492 32.9552 8.9057 32.9552 8.71736C32.9552 8.55592 32.9014 8.43036 32.7848 8.31377C32.6682 8.20615 32.4529 8.08059 32.1301 7.94606L31.0538 7.51557C30.426 7.26445 29.9955 7.00436 29.7534 6.7353C29.5202 6.47521 29.3946 6.1344 29.3946 5.72185C29.3946 5.21064 29.574 4.82499 29.9328 4.55593C30.2915 4.28687 30.8117 4.15234 31.4843 4.15234H33.7893V5.18373H31.1794C30.9642 5.18373 30.8027 5.22858 30.6861 5.32723C30.5695 5.41692 30.5068 5.55144 30.5068 5.72185C30.5068 5.84741 30.5606 5.964 30.6682 6.06265C30.7758 6.16131 30.9462 6.26893 31.1973 6.36759L32.3184 6.82498C33.018 7.11198 33.4843 7.39001 33.7354 7.65906C33.9776 7.92812 34.1032 8.26893 34.1032 8.67252C34.1032 9.24651 33.8879 9.677 33.4574 9.95502C33.0269 10.2331 32.3722 10.3765 31.4843 10.3765H29.3767V9.31825H29.3857Z" fill="white"/>
<path d="M35.3586 10.3854V6.78003C35.3586 5.92802 35.5829 5.26434 36.0223 4.77107C36.4707 4.2778 37.0627 4.03564 37.825 4.03564C38.2107 4.03564 38.5694 4.11636 38.8923 4.2778C39.2151 4.43923 39.5021 4.68138 39.7353 4.99528C39.9775 4.68138 40.2645 4.43923 40.5873 4.2778C40.9102 4.11636 41.26 4.03564 41.6456 4.03564C42.39 4.03564 42.9909 4.28677 43.4393 4.78004C43.8878 5.27331 44.112 5.94595 44.112 6.789V10.3854H43.0089V6.56479C43.0089 6.12533 42.8833 5.77555 42.6322 5.50649C42.381 5.23744 42.0582 5.10291 41.6546 5.10291C41.251 5.10291 40.9281 5.23744 40.677 5.50649C40.4259 5.77555 40.3003 6.12533 40.3003 6.56479V10.3854H39.1972V6.56479C39.1972 6.12533 39.0716 5.77555 38.8116 5.50649C38.5604 5.23744 38.2286 5.10291 37.825 5.10291C37.4214 5.10291 37.0896 5.23744 36.8474 5.50649C36.5963 5.77555 36.4797 6.12533 36.4797 6.56479V10.3854H35.3586Z" fill="white"/>
<path d="M51.6009 7.62331C51.4484 8.5112 51.0807 9.21972 50.5247 9.73093C49.9596 10.2511 49.278 10.5022 48.4619 10.5022C48.1839 10.5022 47.9148 10.4664 47.6457 10.3946C47.3767 10.3229 47.1256 10.2152 46.8834 10.0628C46.3812 9.75784 45.9955 9.36322 45.7175 8.86995C45.4395 8.37667 45.3049 7.83856 45.3049 7.24663C45.3049 6.81614 45.3856 6.40358 45.5471 6.00897C45.7085 5.62332 45.9327 5.26457 46.2377 4.95067C46.5336 4.63677 46.8834 4.40359 47.2601 4.24215C47.6457 4.08072 48.0493 4 48.4708 4C49.0986 4 49.6637 4.1704 50.1659 4.50224C50.6682 4.83408 51.0717 5.31838 51.3767 5.95515L47.287 8.23318L46.8206 7.39013L49.852 5.70403C49.6637 5.49776 49.4574 5.33632 49.2242 5.23767C48.991 5.13004 48.7399 5.07623 48.4619 5.07623C47.9058 5.07623 47.4305 5.28251 47.0448 5.70403C46.6592 6.12556 46.4708 6.63677 46.4708 7.2556C46.4708 7.86546 46.6592 8.38564 47.0448 8.7982C47.4305 9.21972 47.9058 9.426 48.4529 9.426C48.9821 9.426 49.4305 9.24663 49.7803 8.90582C50.139 8.55605 50.3632 8.07174 50.4529 7.46188L51.6009 7.62331Z" fill="white"/>
<path d="M17 19.4484V16.0493C17 15.1435 17.2422 14.426 17.7265 13.8968C18.2108 13.3677 18.8565 13.0986 19.6637 13.0986C20.4708 13.0986 21.1076 13.3587 21.5919 13.8968C22.0673 14.426 22.3094 15.1435 22.3094 16.0493V19.4484H21.1973V15.843C21.1973 15.3498 21.0538 14.9551 20.7668 14.6412C20.4798 14.3363 20.1121 14.1749 19.6547 14.1749C19.2063 14.1749 18.8386 14.3273 18.5426 14.6412C18.2556 14.9551 18.1031 15.3498 18.1031 15.843V19.4484H17Z" fill="white"/>
<path d="M28.3273 19.4484V16.3363C28.3273 15.6816 28.148 15.1524 27.7713 14.7489C27.4036 14.3453 26.9193 14.139 26.3363 14.139C25.7534 14.139 25.2691 14.3363 24.8924 14.7399C24.5157 15.1435 24.3274 15.6547 24.3274 16.2915C24.3274 16.9372 24.5157 17.4663 24.9013 17.8789C25.287 18.2914 25.7803 18.4977 26.3722 18.4977C26.6413 18.4977 26.9103 18.4529 27.1614 18.3542C27.4215 18.2645 27.6726 18.121 27.9327 17.9237V19.1255C27.6816 19.269 27.4126 19.3766 27.1256 19.4484C26.8475 19.5201 26.5516 19.556 26.2377 19.556C25.9417 19.556 25.6457 19.5112 25.3587 19.4215C25.0628 19.3318 24.8027 19.2062 24.5605 19.0358C24.1121 18.7219 23.7713 18.3363 23.5292 17.8789C23.287 17.4125 23.1704 16.9013 23.1704 16.3273C23.1704 15.3946 23.4664 14.6233 24.0583 14.0134C24.6502 13.4036 25.3946 13.0986 26.3004 13.0986C26.9013 13.0986 27.4484 13.2511 27.9417 13.5471C28.435 13.852 28.8206 14.2646 29.0897 14.7847C29.2152 15.0269 29.3049 15.278 29.3498 15.565C29.4036 15.852 29.4305 16.2645 29.4305 16.8296V19.4484H28.3273V19.4484Z" fill="white"/>
<path d="M30.6143 11.5649H31.7353V13.2152H33.6277V14.2735H31.7353V16.9461C31.7353 17.4483 31.8609 17.8161 32.103 18.0403C32.3452 18.2735 32.7398 18.39 33.269 18.39H33.6277V19.4573H33.26C32.3811 19.4573 31.7174 19.26 31.2779 18.8743C30.8385 18.4887 30.6232 17.9057 30.6232 17.1344V11.5649H30.6143Z" fill="white"/>
<path d="M39.807 13.2153V16.6144C39.807 17.5203 39.5649 18.2377 39.0895 18.7669C38.6052 19.296 37.9595 19.5651 37.1523 19.5651C36.3452 19.5651 35.6994 19.296 35.2241 18.7669C34.7487 18.2377 34.5066 17.5203 34.5066 16.6144V13.2153H35.6187V16.8207C35.6187 17.314 35.7622 17.7086 36.0582 18.0225C36.3452 18.3364 36.7218 18.4889 37.1703 18.4889C37.6277 18.4889 37.9954 18.3364 38.2824 18.0225C38.5694 17.7086 38.7129 17.314 38.7129 16.8207V13.2153H39.807Z" fill="white"/>
<path d="M41.0627 19.4485V13.2153H42.0941V14.1391C42.2825 13.7713 42.5515 13.5113 42.8834 13.3498C43.2152 13.1884 43.6726 13.1077 44.2376 13.1077H44.5336V14.1839H44.3632C43.5919 14.1839 43.0448 14.3633 42.704 14.731C42.3632 15.0987 42.1928 15.6906 42.1928 16.5068V19.4485H41.0627Z" fill="white"/>
<path d="M49.8608 19.4484V16.3363C49.8608 15.6816 49.6725 15.1524 49.3048 14.7489C48.937 14.3453 48.4527 14.139 47.8698 14.139C47.2868 14.139 46.8025 14.3363 46.4258 14.7399C46.0491 15.1435 45.8608 15.6547 45.8608 16.2915C45.8608 16.9372 46.0491 17.4663 46.4438 17.8789C46.8294 18.2914 47.3227 18.4977 47.9146 18.4977C48.1837 18.4977 48.4527 18.4529 48.7039 18.3542C48.9639 18.2645 49.2151 18.121 49.4752 17.9237V19.1255C49.224 19.269 48.955 19.3766 48.668 19.4484C48.39 19.5201 48.094 19.556 47.7801 19.556C47.4841 19.556 47.1882 19.5112 46.8922 19.4215C46.5962 19.3318 46.3361 19.2062 46.094 19.0358C45.6456 18.7219 45.3048 18.3363 45.0626 17.8789C44.8294 17.4125 44.7039 16.9013 44.7039 16.3273C44.7039 15.3946 44.9998 14.6233 45.5917 14.0134C46.1837 13.4036 46.9281 13.0986 47.8339 13.0986C48.4348 13.0986 48.9819 13.2511 49.4752 13.5471C49.9684 13.852 50.3541 14.2646 50.6231 14.7847C50.7487 15.0269 50.8384 15.278 50.8832 15.565C50.937 15.852 50.9639 16.2645 50.9639 16.8296V19.4484H49.8608V19.4484Z" fill="white"/>
</svg>
