<?xml version="1.0" encoding="UTF-8"?>
<svg xmlns="http://www.w3.org/2000/svg" xmlns:xlink="http://www.w3.org/1999/xlink" fill="none" height="24" viewBox="0 0 70 24" width="70">
  <clipPath id="a">
    <path d="m6 6.59985h59.6899v10.8h-59.6899z"></path>
  </clipPath>
  <path d="m0 0h69.6v24h-69.6z" fill="#000"></path>
  <g clip-path="url(#a)" fill="#fff">
    <path d="m38.4734 16.6733h7.7027v-.9409h-6.3822v-3.0106h4.7938v-.952h-4.7938v-2.7737h6.3822v-.93743h-7.7027z"></path>
    <path d="m42.4765 6.66602-1.0429 1.17156 3.2738-1.17156z"></path>
    <path d="m59.1073 15.7324v-7.67373h-1.204v8.61463h7.7868v-.9409z"></path>
    <path d="m51.1671 8.05867-4.3802 8.61463h1.4806l1.1206-2.2297h5.2534l1.1302 2.2297h1.4653l-4.3838-8.61463zm-1.2246 5.30513 2.0641-4.11476 2.0883 4.11476z"></path>
    <path d="m34.2938 13.0711c1.9735-.5267 2.1653-1.9951 2.1553-2.5201-.1178-1.53893-1.1547-2.49233-3.0178-2.49233h-5.4296v8.61463h1.2378v-3.6137h3.5347l2.6005 3.6137h1.5601c-.0001 0-1.8715-2.4321-2.641-3.6022zm-1.0315-1.0294h-4.0228v-2.96338h4.163c.9584 0 1.4976.44745 1.6918 1.01588.1285.3896.0461.9011-.1665 1.2493-.3479.5757-1.0088.6982-1.6655.6982z"></path>
    <path d="m20.5636 6.59985c-3.494 0-5.8754 2.46348-5.8754 5.44515 0 3.1389 2.6306 5.3549 5.8754 5.3549 3.2426 0 5.8721-2.1843 5.8721-5.3549 0-2.98167-2.4108-5.44515-5.8721-5.44515zm-.0419 9.73065c-2.4173 0-4.409-1.9425-4.409-4.2826 0-2.33686 1.8977-4.37243 4.5027-4.37243 2.5404 0 4.4079 2.03557 4.4079 4.37243 0 2.34-2.0854 4.2826-4.5016 4.2826z"></path>
    <path d="m11.5708 11.1062h.8931l1.6211-3.04753h-1.3045z"></path>
    <path d="m7.20462 15.7324v-7.67373h-1.20462v8.61463h7.7865v-.9409z"></path>
  </g>
</svg>
