<?xml version="1.0" encoding="UTF-8"?><svg width="70" height="24" fill="none" xmlns="http://www.w3.org/2000/svg"><path fill="#002A34" d="M0 0h69.6v24H0z"/><path d="M5.3 14.095c1.25.839 2.816 1.218 3.75 1.218.933 0 1.644-.38 1.644-1.25 0-1.09-1.107-1.186-2.61-1.676C6.455 11.865 5 11.074 5 9.017c0-2.182 1.66-3.542 4.113-3.542 1.154 0 2.562.284 3.59.838V8.86c-1.25-.775-2.689-1.14-3.606-1.14-.87 0-1.503.333-1.503 1.108 0 1.044 1.092 1.123 2.5 1.582 1.77.585 3.195 1.408 3.195 3.495 0 2.294-1.74 3.67-4.271 3.67-1.17 0-2.61-.3-3.717-.87v-2.61zM15.993 5.475c.775 0 1.424.632 1.424 1.407s-.649 1.408-1.424 1.408c-.775 0-1.423-.633-1.423-1.408-.016-.775.632-1.407 1.423-1.407zM29.58 12.782c0-.6-.094-.87-.284-1.091a1.123 1.123 0 00-.838-.348c-.57 0-1.155.285-1.566.664.015.111.015.238.015.364v5.014H24.44v-4.603c0-.537-.08-.854-.285-1.091a1.122 1.122 0 00-.838-.348c-.57 0-1.155.316-1.55.649v5.378h-2.5V9.413h2.436v.712l.032.016c.617-.522 1.424-.902 2.404-.902.855 0 1.851.332 2.326 1.14.854-.76 1.803-1.14 2.8-1.14.885 0 1.597.3 2.056.791.506.522.727 1.218.727 2.357v5.014h-2.467v-4.619zM36.525 20.738h-2.468V9.192h2.42v.395l.032.016a3.41 3.41 0 011.977-.601c2.04 0 3.78 1.629 3.78 4.096 0 2.563-1.834 4.24-4.175 4.24-.649 0-1.17-.127-1.535-.3l-.031.015v3.685zm1.265-5.393c1.281 0 1.993-.918 1.993-2.104 0-1.202-.712-2.167-1.93-2.167-.506 0-.98.174-1.328.443v3.543c.316.142.775.285 1.265.285zM43.864 5h2.468v12.385h-2.468V5zM50.413 13.874c.269 1.107 1.186 1.613 2.325 1.613.886 0 1.866-.3 2.705-.87v2.056c-.775.49-1.977.728-3.037.728-2.626 0-4.524-1.645-4.524-4.144 0-2.547 1.977-4.208 4.192-4.208 1.96 0 3.812 1.297 3.812 3.97 0 .27-.016.633-.048.839h-5.425v.016zm3.195-1.55c-.142-.855-.775-1.377-1.566-1.377-.76 0-1.424.475-1.645 1.377h3.21zM57.262 14.57c1.107.648 2.388.917 3.147.917.68 0 1.092-.174 1.092-.617 0-.617-.886-.553-2.088-.854-1.503-.38-2.404-1.012-2.404-2.325.015-1.693 1.502-2.642 3.495-2.642.95 0 2.136.19 3.053.633v2.12c-1.06-.601-2.294-.855-3.005-.855-.649 0-1.044.19-1.044.57 0 .585.854.538 2.04.822 1.519.38 2.452.95 2.452 2.341-.016 1.756-1.534 2.705-3.59 2.705-.95 0-2.183-.19-3.148-.664V14.57z" fill="#EBE717"/></svg>