<?xml version="1.0" encoding="UTF-8"?><svg width="70" height="24" fill="none" xmlns="http://www.w3.org/2000/svg"><path fill="#AB2328" d="M0 0h69.6v24H0z"/><path d="M28.555 14.463H25.98v-1.961h1.853v-1.28H25.98V9.564h2.575v-1.39h-4.364v7.678h4.364v-1.389zM13.993 15.997c1.74 0 2.853-.865 2.853-3.137V8.174h-1.79v4.683c0 1.007-.279 1.513-1.062 1.513-.782 0-1.062-.506-1.062-1.513V8.174H11.14v4.688c0 2.27 1.114 3.135 2.853 3.135zM31.37 13.643c.176-.057.346-.114.507-.17l.98 1.677c.28.436.53.7.996.7h1.39l-1.8-3.081c1.027-.615 1.364-1.292 1.364-2.105 0-1.267-.565-2.487-2.646-2.487l-2.583-.001v7.675h1.791v-2.208zm0-4.087h.424c.593 0 1.25.209 1.25 1.108 0 .82-.237 1.243-1.673 1.722v-2.83h-.002zM47.07 8.005c-2.175 0-3.572 1.781-3.572 3.98 0 2.198 1.397 3.98 3.573 3.98s3.572-1.782 3.572-3.98c.002-2.199-1.396-3.98-3.572-3.98zm0 6.424c-1.1 0-1.81-1.09-1.81-2.437 0-1.346.71-2.436 1.81-2.436 1.104 0 1.81 1.092 1.81 2.436 0 1.346-.708 2.437-1.81 2.437zM7.327 14.534c-.528.021-1.312-.164-2.243-.654v1.582c.553.358 1.623.572 2.54.534 1.62-.067 2.567-1.09 2.567-2.4 0-2.84-3.274-1.984-3.274-3.368 0-.364.298-.823 1.06-.855.763-.032 1.403.29 1.918.595V8.447c-.54-.27-1.154-.488-2.326-.44C5.895 8.076 5 9.259 5 10.37c0 2.784 3.219 1.914 3.219 3.407.002.402-.241.73-.892.758zM64.07 8.139h-1.927L59.96 11.54V8.139h-1.79v7.675h1.79v-3.623l1.992 2.924c.317.464.53.7.997.7h1.554l-2.809-4.116 2.377-3.56zM41.794 11.75c.645-.413.757-1.176.757-1.51 0-1.468-1.248-2.101-2.518-2.101h-2.719v7.675h3.144c1.72 0 2.57-1.038 2.57-2.223-.002-.874-.406-1.542-1.234-1.842zm-2.69-2.374h.74c.752 0 .968.413.968.944 0 .45-.115 1.01-.828 1.01h-.88V9.375zm1.006 5.14h-1.006v-2.05h.954c.619 0 1.122.14 1.122.967 0 .825-.46 1.082-1.07 1.082zM51.366 11.981c0 2.235 1.598 3.983 4.014 3.983.612 0 1.18-.092 1.761-.447v-1.68a3.11 3.11 0 01-1.762.554c-1.206 0-2.147-.87-2.147-2.41s.94-2.41 2.147-2.41c.523 0 1.136.133 1.762.556v-1.68C56.561 8.092 55.992 8 55.38 8c-2.416-.002-4.014 1.748-4.014 3.981zM23.323 10.659c0-1.267-.563-2.485-2.646-2.485h-2.583v7.676h1.79V13.8l.717-.284c2.086-.771 2.722-1.759 2.722-2.857zm-2.722 1.467l-.716.29V9.552h.423c.593 0 1.25.208 1.25 1.106 0 .658-.157 1.078-.957 1.467z" fill="#fff"/></svg>