<svg width="707" height="530" viewBox="0 0 707 530" fill="none" xmlns="http://www.w3.org/2000/svg">
<path fill-rule="evenodd" clip-rule="evenodd" d="M309.854 231.511C303.573 236.064 304.573 245.022 306.464 251.53C309.248 261.114 314.793 269.985 321.118 277.632C332.34 291.198 351.39 306.431 368.951 294.521C384.589 283.914 394.453 262.512 397.858 244.484C398.91 238.913 400.312 230.612 395.367 226.424C388.057 220.233 375.163 221.359 366.339 222.156C360.528 222.681 354.92 224.462 349.177 223.626C335.834 221.681 320.983 223.443 309.854 231.511Z" fill="#D53B4F"/>
<path fill-rule="evenodd" clip-rule="evenodd" d="M580.394 302.502C567.672 318.641 546.042 321.19 526.832 321.032C515.297 320.937 503.739 320.068 492.431 317.717C486.334 316.45 480.278 314.771 474.387 312.754C470.496 311.421 464.703 310.755 463.047 306.586C458.679 295.585 461.893 281.789 463.691 270.624C464.606 264.944 465.293 259.231 466.183 253.547C466.752 249.91 467.025 245.887 468.549 242.485C470.334 238.499 472.588 239.295 476.362 240.396C481.562 241.914 486.9 242.545 492.246 243.361C505.294 245.354 516.677 249.371 528.535 255.066C540.26 260.696 551.634 266.254 562.092 274.083C567.391 278.05 571.957 282.357 576.21 287.413C579.496 291.319 584.401 297.418 580.394 302.502ZM524.782 374.182C524.68 375.92 504.741 370.674 502.118 370.086C484.902 366.224 467.344 361.827 451.092 354.85C435.921 348.338 422.554 340.887 410.617 329.318C405.052 323.925 400.047 318.246 395.258 312.197C392.858 309.166 389.578 309.518 386.901 306.953C384.494 304.645 382.647 302.843 383.399 299.392C389.416 300.977 400.525 310.942 406.762 305.91C410.317 303.042 405.387 300.046 403.111 298.384C398.832 295.259 395.173 291.403 391.771 287.356C397.612 288.488 403.048 290.675 408.13 293.72C410.388 295.072 418.128 299.977 419.93 295.302C421.039 292.423 415.791 288.806 414.155 287.214C410.137 283.304 405.799 278.74 403.666 273.484C408.94 272.26 413.912 276.336 417.504 279.657C421.491 283.343 426.378 287.211 429.721 291.459C431.446 293.65 431.821 296.237 433.168 298.6C434.685 301.259 437.109 303.537 439.427 305.504C443.892 309.295 449.115 312.086 454.476 314.394C466.726 319.668 479.856 323.401 492.914 326.019C499.32 327.304 505.568 327.896 512.07 328.114C517.123 328.283 519.359 329.794 521.288 334.45C526.509 347.048 525.562 360.907 524.782 374.182ZM374.835 278.189C371.914 280.923 368.117 282.637 365.064 285.266C362.376 287.578 359.277 290.045 356.278 291.915C353.076 293.911 350.684 292.512 347.801 290.706C344.417 288.587 340.526 287.728 337.041 285.832C324.989 279.273 310.245 263.201 312.495 248.444C313.449 242.189 316.683 236.035 322.555 233.197C327.888 230.62 335.64 229.19 341.345 231.344C344.563 232.559 346.866 235.242 348.928 237.879C351.332 240.954 352.253 240.469 354.702 237.504C359.084 232.199 366.309 227.545 373.452 227.657C377.002 227.714 380.529 228.462 383.726 229.935C384.16 230.135 384.401 230.74 384.836 230.945C385.37 231.196 386.248 230.673 386.619 230.908C387.556 231.501 388.49 233.353 389.03 234.292C391.197 238.062 395.099 245.456 391.167 248.631C391.165 248.632 391.342 252.926 391.288 253.415C391.011 255.977 390.125 258.091 388.984 260.434C385.558 267.471 380.501 272.889 374.835 278.189ZM380.66 337.731C377.893 338.591 374.912 329.918 377.567 328.534C380.098 327.213 383.166 336.953 380.66 337.731ZM337.192 327.361C336.234 330.637 335.829 334.355 333.485 337.022C331.339 334.475 331.127 329.776 333.208 327.159C334.397 325.665 338.241 323.781 337.192 327.361ZM425.757 269.958C425.742 270.041 429.087 271.641 427.455 273.391C425.225 275.78 425.531 271.129 425.757 269.958ZM439.583 243.256C439.545 246.569 432.532 245.769 432.582 242.437C432.643 238.337 439.624 239.745 439.583 243.256ZM431.212 215.57C431.906 212.537 444.104 208.318 443.772 213.604C443.605 216.254 429.74 222.018 431.212 215.57ZM306.162 318.426C304.795 320.07 302.852 320.718 301.213 321.98C299.494 323.302 298.266 325.018 296.765 326.57C292.643 330.832 287.68 334.335 283.233 338.25C275.056 345.448 267.224 353.185 258.158 359.29C241.958 370.197 223.171 376.163 204.522 381.386C202.977 381.819 198.526 383.566 196.998 382.265C195.349 380.861 196.187 375.924 196.263 374.058C196.572 366.404 197.465 358.66 197.368 351.017C197.328 347.878 196.409 343.416 198.047 340.544C199.875 337.336 204.981 336.397 208.14 335.19C217.739 331.521 226.986 325.332 235.467 319.6C245.891 312.552 256.418 305.389 267.146 298.81C277.656 292.365 289.249 288.05 300.972 284.369C301.515 285.51 295.921 289.183 295.282 289.698C292.215 292.167 288.878 294.726 286.601 297.986C284.989 300.293 283.336 305.514 287.787 305.648C289.945 305.713 293.134 303.626 295.09 302.951C298.322 301.836 301.651 301.054 305.031 300.544C302.125 303.744 292.276 309.491 294.068 314.812C295.807 319.975 305.864 313.95 309.325 313.95C308.758 315.75 307.332 317.02 306.162 318.426ZM187.35 332.837C180.91 335.102 174.309 336.39 167.661 337.852C161.326 339.246 155.469 340.296 148.98 339.48C140.019 338.354 130.104 334.643 128.968 324.461C127.621 312.398 136.141 301.313 143.456 292.659C152.359 282.129 162.356 272.715 173.191 264.192C184.013 255.676 195.694 248.169 207.932 241.831C217.242 237.009 227.757 234.082 237.601 230.463C239.474 229.775 244.654 227.356 246.406 229.361C247.821 230.982 245.895 233.682 245.249 235.188C243.991 238.122 243.817 241.076 243.493 244.226C242.041 258.296 240.294 272.362 239.49 286.492C239.266 290.431 238.872 294.55 239.102 298.491C239.229 300.673 240.365 303.453 239.608 305.584C238.154 309.681 231.495 312.393 227.966 314.222C221.649 317.498 214.959 319.942 208.576 323.076C201.567 326.517 194.742 330.237 187.35 332.837ZM276.672 241.415C278.44 241.173 281.088 240.691 282.664 241.836C284.719 243.33 284.18 245.408 282.282 246.491C280.783 247.348 277.275 247.582 275.794 246.805C273.271 245.482 273.698 241.825 276.672 241.415ZM286.463 273.995C285.034 276.375 279.813 277.935 280.268 273.495C280.658 269.693 289.094 269.614 286.463 273.995ZM284.525 206.966C286.821 207.856 290.989 208.617 291.67 211.571C292.304 214.321 289.698 214.139 287.818 213.382C286.272 212.761 279.382 206.919 284.525 206.966ZM644.341 311.855C643 306.635 644.021 300.856 643.281 295.51C642.563 290.328 641.271 285.565 639.417 280.681C635.312 269.869 630.608 260.135 623.954 250.646C611.42 232.776 596.879 217.035 579.321 203.982C561.986 191.096 542.791 180.624 522.457 173.285C500.895 165.502 479.191 162.793 456.453 161.301C449.662 160.856 442.878 160.328 436.126 159.47C431.192 158.843 425.006 158.071 420.126 159.582C417.061 160.533 415.349 163.206 418.688 164.96C421.055 166.204 424.155 166.352 426.77 166.683C423.611 176.717 418.472 186.786 410.327 193.695C402.376 200.441 391.736 202.754 381.702 204.464C376.26 205.392 370.167 206.109 364.641 205.709C361.147 205.457 358.421 203.839 357.011 207.438C356.033 209.938 355.57 212.681 354.281 208.906C352.755 204.443 352.007 204.472 347.262 203.204C337.558 200.612 326.434 198.247 317.969 192.641C309.186 186.824 306.132 177.415 301.229 168.654C300.016 166.488 296.359 162.105 298.227 159.624C299.937 157.355 305.495 157.581 308.04 157.344C310.726 157.095 313.428 157.084 316.122 156.98C317.684 156.919 320.824 157.559 320.196 155.227C319.248 151.713 309.096 152.163 306.574 152.106C301.886 152.001 297.132 152.109 292.467 152.625C269.337 155.183 245.999 159.913 223.615 166.221C180.189 178.457 138.129 201.006 106.437 233.491C76.0155 264.673 66.3774 316.563 85.0794 356.377C94.7985 377.069 115.891 385.569 136.338 392.434C147.122 396.054 158.542 398.887 170.007 398.204C175.508 397.875 180.729 396.394 186.094 395.278C188.434 394.791 191.097 394.015 193.501 394.211C195.32 394.359 197.068 396.029 198.775 395.142C199.986 394.512 200.513 392.704 201.993 391.933C203.77 391.009 205.925 390.676 207.844 390.21C213.18 388.913 218.346 386.812 223.561 385.089C228.954 383.306 234.044 381.011 239.218 378.69C241.831 377.518 247.877 372.753 249.58 376.237C250.356 377.827 250.026 380.893 250.214 382.561C250.546 385.477 250.935 388.387 251.36 391.291C252.297 397.684 253.42 404.051 254.569 410.41C256.645 421.884 259.319 432.867 263.791 443.66C267.362 452.278 270.497 462.045 277.127 468.901C280.021 471.893 283.97 473.24 288.122 472.3C292.844 471.229 295.194 466.94 298.061 463.472C304.368 455.841 314.78 449.993 324.396 447.888C336.17 445.311 347.639 449.081 358.878 452.285C370.766 455.675 382.868 458.905 394.537 462.979C405.41 466.777 417.15 472.385 428.943 471.897C439.226 471.472 448.831 463.102 456.247 456.723C463.696 450.316 473.01 440.934 483.72 441.689C489.038 442.064 493.885 444.629 499.065 445.672C504.752 446.817 510.803 446.98 516.586 447.407C523.765 447.936 539.825 446.065 542.481 437.428C542.875 436.147 542.877 433.509 541.185 432.996C539.629 432.525 538.834 434.345 537.36 434.262C534.36 434.093 532.016 428.862 530.368 426.837C523.717 418.663 514.594 412.566 507.132 405.181C498.705 396.843 491.51 386.741 485.161 376.777C488.031 376.031 491.129 377.27 493.907 377.859C497.283 378.574 500.572 379.438 503.899 380.354C507.565 381.363 511.284 382.057 515.005 382.827C517.782 383.4 521.467 383.573 523.973 384.965C526.16 386.182 527.381 387.488 530.097 387.84C532.859 388.198 535.694 387.896 538.469 387.878C545.974 387.827 553.463 387.687 560.932 386.894C587.324 384.09 615.3 372.927 631.17 350.773C635.487 344.746 638.964 338.071 641.162 330.987C642.877 325.456 645.834 317.662 644.341 311.855Z" fill="#FFBA02"/>
<path fill-rule="evenodd" clip-rule="evenodd" d="M396.803 56.5943C403.738 56.6924 410.239 58.7491 416.702 61.0872C422.385 63.1431 428.444 65.0451 433.039 69.1487C441.305 76.5303 443.458 88.7526 444.811 99.2095C446.498 112.258 440.883 123.206 436.158 135.011C431.738 146.052 423.626 154.996 413.984 161.812C408.932 165.382 403.349 167.537 397.508 169.426C391.574 171.346 385.828 173.916 379.48 173.906C369.839 173.892 357.497 169.313 353.39 159.815C351.521 155.491 353.341 154.715 357.083 157.065C362.51 160.475 367.743 164.155 374.085 165.667C386.385 168.602 401.118 164.056 411.903 158.057C422.685 152.061 429.923 143.053 434.761 131.836C439.642 120.52 441.538 109.369 439.656 97.17C438.061 86.8317 434.888 77.3885 425.572 71.7764C405.46 59.6629 378.363 60.6389 360.478 76.3814C358.025 78.5396 355.601 80.6396 353.073 82.7004C351.466 84.0102 349.574 85.5817 349.808 87.847C350.007 89.7867 354.143 97.2657 349.163 94.9685C345.125 93.1057 342.931 89.4644 338.041 89.0136C332.836 88.5334 326.626 92.5322 325.069 97.5651C323.584 102.367 326.232 108.937 330.381 111.692C332.95 113.398 335.777 113.134 338.694 113.066C340.142 113.031 344.172 112.561 345.13 114.091C346.826 116.798 340.845 119.644 338.915 120.243C334.218 121.7 328.667 119.985 325.967 115.792C323.222 111.53 321.343 106.597 320.965 101.519C320.604 96.6538 321.708 91.728 324.578 87.7333C327.631 83.4849 333.854 78.722 339.433 80.1978C341.854 80.8384 343.8 83.3401 346.176 83.8154C347.676 84.1149 347.045 84.3292 348.287 83.2174C349.076 82.5122 349.821 81.2106 350.55 80.3745C354.737 75.5674 358.877 70.4372 364.001 66.5897C373.19 59.6907 385.403 56.4323 396.803 56.5943ZM371.393 151.901C372.48 149.353 374.476 153.898 375.066 154.657C376.235 156.161 378.983 157.33 378.864 159.547C378.668 163.208 373.679 162.529 372.016 160.619C370.122 158.445 370.32 154.416 371.393 151.901ZM406.837 134.57C409.529 138.765 406.249 143.292 404.121 147.004C402.086 150.554 400.196 154.566 397.828 157.903C393.896 163.444 385.341 157.45 385.087 151.756C384.893 147.397 387.981 149.295 389.962 150.923C392.002 152.599 392.969 153.017 395.107 151.186C399.409 147.5 401.341 141.337 404.315 136.67C404.905 135.745 405.973 135.189 406.837 134.57ZM414.51 135.919C415.204 137.947 413.748 143.322 417.796 142.785C420.032 142.488 420.51 139.279 421.685 137.878C425.639 133.169 424.427 142.075 423.394 144.304C421.116 149.217 414.742 152.601 411.581 146.369C410.406 144.051 410.41 141.125 411.008 138.633C411.333 137.275 413.229 132.173 414.51 135.919ZM378.417 126.312C378.059 128.679 375.834 133.394 378.55 135.087C380.94 136.578 385.102 133.341 386.942 131.99C388.854 130.586 393.188 126.557 393.358 131.57C393.445 134.126 390.886 137.192 389.061 138.664C385.167 141.803 377.075 144.619 374.205 138.71C372.642 135.491 373.497 130.908 374.531 127.664C375.368 125.035 379.282 120.596 378.417 126.312ZM429.493 113.355C431.078 115.195 434.834 119.319 432.792 121.939C430.404 125.003 426.524 119.382 424.995 117.818C423.617 116.409 420.717 112.396 421.954 110.267C424 106.745 428.102 111.739 429.493 113.355ZM404.584 105.431C409.764 108.805 402.954 111.235 400.003 111.537C396.432 111.902 391.866 112.143 388.586 110.391C383.937 107.907 385.487 104.155 389.993 103.257C394.614 102.337 400.564 102.811 404.584 105.431ZM337.241 94.6875C341.05 95.4287 345.401 96.3934 346.698 100.546C348.038 104.839 346.113 106.263 342.222 105.297C338.622 104.403 333.245 103.503 331.209 99.986C328.778 95.7846 333.708 94.001 337.241 94.6875Z" fill="black"/>
<path fill-rule="evenodd" clip-rule="evenodd" d="M127.633 186.915C126.354 191.043 119.884 193.782 116.657 196.291C105.371 205.071 94.3425 214.213 84.1391 224.234C78.8432 229.435 74.8347 235.726 70.2422 241.511C69.1217 242.922 67.1366 246.085 64.9389 245.788C62.5277 245.463 62.0403 241.31 62.1172 239.496C62.3805 233.312 68.0289 227.339 72.0571 223.08C76.5883 218.292 81.4327 213.625 86.3802 209.265C91.8274 204.465 97.7384 200.339 103.762 196.299C109.677 192.333 115.349 187.75 121.5 184.157C124.398 182.465 129.21 181.821 127.633 186.915ZM522.149 147.707C526.86 147.856 531.457 149.401 535.899 150.835C545.672 153.991 554.98 158.369 564.159 162.945C580.25 170.966 595.736 180.67 609.93 191.704C612.897 194.01 615.939 195.878 619.166 197.764C621.231 198.972 624.175 200.446 624.971 202.908C626.992 209.166 616.791 202.885 615.344 201.986L613.308 200.723C583.106 182.005 552.94 163.819 518.778 153.085C516.958 152.513 516.392 150.89 517.347 149.28C518.382 147.537 520.398 147.652 522.149 147.707ZM126.258 160.804C126.04 162.71 123.882 163.143 122.426 163.755C116.995 166.036 111.428 167.982 106.012 170.301C95.9586 174.605 86.7265 180.852 76.2334 184.118C73.8354 184.866 73.4816 182.446 74.1236 180.799C74.8386 178.961 76.9862 177.67 78.5394 176.607C83.02 173.538 88.1015 171.331 93.0772 169.199C98.0101 167.084 103.089 165.484 108.147 163.71C112.848 162.062 118.303 158.994 123.351 158.768L123.572 158.757C125.178 158.676 126.513 158.567 126.258 160.804ZM530.723 131.858C525.92 130.507 530.458 127.466 533.312 127.68C536.496 127.919 539.574 129.422 542.594 130.329C551.827 133.101 560.384 136.133 569.01 140.435C570.296 141.078 575.963 144.123 572.214 145.472C569.616 146.406 563.549 142.397 561.319 141.436C551.517 137.209 540.985 134.744 530.723 131.858Z" fill="black"/>
<path fill-rule="evenodd" clip-rule="evenodd" d="M339.261 141.7C339.861 139.938 347.287 120.683 344.38 120.103C341.302 119.487 337.187 130.659 336.294 132.677C332.996 140.132 331.043 148.13 329.512 156.126C328.447 161.694 327.51 167.398 327.883 173.09C328.17 177.464 329.977 178.127 332.954 180.807C332.954 167.52 334.974 154.276 339.261 141.7Z" fill="black"/>
</svg>
