<svg width="48" height="48" fill="none" xmlns="http://www.w3.org/2000/svg"><g opacity=".2" fill="#00093C"><path fill-rule="evenodd" clip-rule="evenodd" d="M23.843 38h12.561c2.868 0 2.897-3.048 2.605-4.554-.16-1.011-1.879-1.003-2.068 0v1.175c0 .536-.44.975-.976.975H11.883a.979.979 0 01-.976-.975v-1.175c-.19-1.003-1.908-1.011-2.068 0C8.547 34.952 8.575 38 11.444 38h12.399zm-8.88-29.199H34.33c1.36 0 2.474 1.178 2.474 2.618v1.252c0 1.769-2.397 1.762-2.397.011V12a.793.793 0 00-.79-.79H14.21a.793.793 0 00-.79.79v.67c0 1.759-2.285 1.746-2.285.038v-1.288c0-1.44 1.114-2.618 2.474-2.618h1.353zM36.316 23.184c1.341.631 2.267 1.934 2.267 3.43 0 2.108-1.84 3.833-4.091 3.833h-6.308c-.59 0-1.072-.452-1.072-1.005v-12c0-.579.474-1.053 1.053-1.053h5.254a4.03 4.03 0 014.02 4.017 4 4 0 01-1.123 2.778zm-4.708-.977h2.003v-.022a1.911 1.911 0 001.616-1.883 1.91 1.91 0 00-1.905-1.904h-4.034v9.958h5.116a1.972 1.972 0 001.967-1.967 1.972 1.972 0 00-1.967-1.966h-.793v-.005h-2.003a1.109 1.109 0 01-1.105-1.105c0-.609.497-1.106 1.105-1.106"/><path d="M26.11 29.249a1.265 1.265 0 11-2.518.267l-1.037-9.543-3.673 9.331-.004.01-.01.025-.009.02-.002.004-.008.02-.006.011-.009.018-.004.009-.01.02-.003.006c-.068.128-.155.24-.257.334l-.003.004-.02.017c-.066.058-.139.11-.218.155l-.006.003-.024.013-.023.012-.01.005-.014.007-.015.007-.014.006-.015.007-.014.005-.013.006-.012.004-.006.003-.011.004-.017.006-.01.003a1.26 1.26 0 01-.37.07l-.015.001h-.078a1.263 1.263 0 01-.414-.087l-.017-.006-.005-.003-.016-.006-.017-.007-.013-.007-.014-.006-.015-.007-.01-.005-.022-.011-.003-.002-.02-.01-.01-.007a1.264 1.264 0 01-.194-.134l-.005-.004-.041-.037-.001-.001-.032-.03-.03-.032-.001-.001a1.242 1.242 0 01-.037-.042l-.005-.005a1.255 1.255 0 01-.134-.193l-.006-.011-.01-.02-.002-.002-.012-.023-.004-.009-.007-.015-.007-.014-.006-.014-.007-.016-.007-.017-.002-.004-.007-.017-3.677-9.341-1.037 9.543a1.266 1.266 0 11-2.518-.267l1.223-11.252v-.003l.001-.004a2.101 2.101 0 01.236-.756 2.097 2.097 0 011.572-1.093h.002l.07-.008c.107-.011.214-.014.319-.01h.005a2.078 2.078 0 011.854 1.323l3.13 7.95 3.13-7.95a2.079 2.079 0 011.853-1.323h.005a2.121 2.121 0 01.388.017l.003.001a2.097 2.097 0 011.808 1.848v.008L26.11 29.25z"/></g></svg>