<svg width="66" height="33" fill="none" xmlns="http://www.w3.org/2000/svg"><path d="M2.57 28.032l-.11.868a.712.712 0 00.714.79H31.19a.724.724 0 00.728-.79l-.108-.868c-.062-.666.418-1.286 1.085-1.348a1.198 1.198 0 011.332 1.085l.109.837c.217 1.875-.837 3.517-2.743 3.517H2.77c-1.891 0-2.96-1.642-2.743-3.517l.108-.837c.078-.666.667-1.162 1.333-1.085.682.078 1.178.682 1.1 1.348z" fill="#D60510"/><path d="M28.48 21.54c1.363 0 2.447-.992 2.416-2.294-.03-1.332-1.24-2.2-2.603-2.2H25.55c-.604 0-1.1-.512-1.1-1.131 0-.636.496-1.147 1.1-1.147h1.829c1.24-.047 2.185-.79 2.247-1.968.062-1.256-1.008-2.185-2.325-2.185h-4.447l-.016 10.94h5.641v-.015zm3.377-8.756c0 1.147-.403 1.782-1.069 2.588l-.062.078.093.062c1.333.805 2.247 2.03 2.325 3.734.108 2.557-2.061 4.665-4.634 4.665h-6.772c-.666 0-1.193-.543-1.193-1.225V9.546c0-.682.527-1.225 1.193-1.225l5.594.016c2.418.015 4.525 1.797 4.525 4.447zM10.023 19.401l.03.093.032-.093c.31-.868.697-1.829 1.1-2.867a95.76 95.76 0 011.24-3.146 44.704 44.704 0 011.193-2.711c.372-.806.682-1.364.93-1.659.371-.449.852-.666 1.472-.666h.279c.372 0 .666.093.883.279.201.17.325.372.356.604L19.29 22.81c0 .357-.093.62-.295.822-.201.185-.48.278-.852.278s-.667-.093-.884-.263a.957.957 0 01-.402-.682c-.062-.45-.109-.945-.17-1.503-.078-.542-.357-2.913-.435-3.518-.077-.62-.558-4.447-.728-5.842l-.016-.124-.557 1.178c-.187.403-.403.883-.62 1.457-.217.573-.45 1.162-.682 1.797-.248.62-1.333 3.704-1.333 3.704-.093.279-.294.852-.465 1.363-.17.512-.34.992-.372 1.07a1.53 1.53 0 01-1.394.852c-.651 0-1.147-.34-1.41-.852-.047-.093-.202-.558-.388-1.07a31.895 31.895 0 00-.465-1.363s-1.085-3.1-1.333-3.704a55.986 55.986 0 00-.681-1.797 34.602 34.602 0 00-.62-1.457l-.558-1.178-.016.124c-.17 1.395-.666 5.223-.728 5.842-.077.605-.356 2.96-.418 3.518-.062.558-.109 1.054-.17 1.503a.957.957 0 01-.404.682c-.217.17-.511.263-.883.263s-.65-.093-.852-.279c-.202-.2-.295-.48-.295-.82L2.615 9.234c.031-.232.155-.434.357-.604.217-.186.511-.279.883-.279h.279c.604 0 1.1.217 1.472.666.248.31.558.853.93 1.659.372.79.775 1.689 1.193 2.711.419 1.008.821 2.046 1.24 3.146.372 1.054.744 2.015 1.054 2.867z" fill="#fff"/><path d="M6.598.124H27.89c2 0 3.007 1.503 3.24 3.486l.092.636c.078.681-.434 1.286-1.1 1.363-.666.078-1.27-.418-1.348-1.1l-.078-.604c-.093-.76-.403-1.333-1.178-1.333H6.97c-.775 0-1.085.589-1.178 1.333l-.077.604a1.214 1.214 0 01-1.348 1.1 1.239 1.239 0 01-1.1-1.363l.093-.636C3.592 1.627 4.584.124 6.598.124z" fill="#D60510"/><path d="M44.874 15.427c-.14.573-.294 1.177-.465 1.828-.155.651-.325 1.255-.48 1.844-.155.59-.294 1.1-.45 1.55-.139.45-.263.744-.356.914-.17.295-.45.434-.868.434-.108 0-.263-.031-.45-.078-.185-.046-.34-.17-.464-.387-.093-.17-.201-.48-.356-.96-.14-.481-.28-1.023-.45-1.643-.155-.62-.31-1.271-.465-1.968-.155-.698-.294-1.333-.418-1.937-.124-.59-.233-1.1-.31-1.519-.078-.418-.124-.666-.14-.76-.015-.046-.015-.092-.015-.108v-.046c0-.17.062-.326.202-.434a.759.759 0 01.495-.155c.186 0 .341.046.45.124a.695.695 0 01.248.403c0 .015.03.17.077.45.062.278.124.635.217 1.068.093.434.186.915.294 1.457.109.542.218 1.085.341 1.643.124.558.233 1.084.357 1.596.124.511.232.96.34 1.333.11-.357.218-.744.342-1.21a85.876 85.876 0 00.728-2.835c.108-.48.217-.93.325-1.348.093-.419.186-.775.248-1.1.078-.326.124-.558.17-.713a.81.81 0 01.295-.465.892.892 0 01.527-.17c.233 0 .419.061.558.185.14.124.232.28.279.45.108.511.232 1.069.372 1.704.14.62.279 1.255.418 1.89.14.636.295 1.271.45 1.891.155.62.31 1.163.45 1.628.108-.372.216-.822.34-1.333.124-.527.233-1.054.356-1.596.124-.543.248-1.085.357-1.627.108-.543.217-1.023.31-1.457.093-.434.17-.775.217-1.038a3.05 3.05 0 00.077-.419c.047-.201.14-.34.248-.403a.773.773 0 01.45-.124c.201 0 .356.047.495.155.14.109.202.248.202.434v.062c0 .016 0 .062-.016.109-.015.077-.062.325-.155.759-.077.418-.185.93-.31 1.519-.123.604-.263 1.24-.418 1.921-.155.682-.31 1.348-.45 1.953a46.45 46.45 0 01-.433 1.642c-.14.465-.264.79-.357.946-.124.217-.279.356-.48.418-.186.062-.34.078-.465.078-.046 0-.108 0-.186-.016-.077-.015-.17-.031-.263-.062a1.173 1.173 0 01-.28-.14.57.57 0 01-.216-.278c-.093-.202-.202-.527-.341-.977-.124-.449-.264-.96-.419-1.534-.155-.573-.294-1.178-.449-1.797-.046-.62-.186-1.21-.31-1.752zM53.01 19.13c-.155.496-.295.961-.419 1.38-.124.418-.232.774-.34 1.038-.11.294-.341.449-.682.449-.233 0-.419-.062-.527-.17a.676.676 0 01-.155-.465c0-.078.015-.14.03-.202.016-.062.078-.279.202-.635.109-.357.248-.806.434-1.348.17-.543.372-1.132.589-1.767.217-.635.434-1.27.666-1.906.233-.62.45-1.209.667-1.751.217-.543.418-.976.604-1.317a.698.698 0 01.34-.357c.14-.062.326-.093.574-.093.233 0 .419.031.59.109a.67.67 0 01.34.372c.14.31.325.728.527 1.24.201.526.418 1.084.635 1.688.217.605.45 1.225.667 1.845l.604 1.766c.186.543.34 1.008.465 1.395.124.387.217.635.248.744.015.062.03.124.03.201a.63.63 0 01-.185.465c-.124.124-.31.17-.543.17-.17 0-.31-.03-.402-.123a.834.834 0 01-.202-.326c-.108-.263-.232-.62-.372-1.038-.14-.418-.294-.883-.45-1.38H53.01v.016zm3.455-1.348c-.217-.666-.418-1.286-.62-1.844a60.46 60.46 0 00-.604-1.612c-.046-.108-.108-.248-.155-.403a1.04 1.04 0 01-.093-.263c-.015 0-.046.093-.093.248-.062.155-.108.294-.17.403a45.412 45.412 0 00-.604 1.611c-.186.558-.403 1.178-.62 1.845h2.96v.015zM61.734 18.092c-.046-.047-.093-.109-.14-.17-.046-.063-.092-.14-.154-.218-.14-.201-.295-.449-.48-.743a25.2 25.2 0 01-1.008-1.937c-.155-.341-.31-.651-.434-.93-.124-.295-.248-.543-.34-.744-.094-.217-.156-.357-.171-.45a.632.632 0 01-.031-.108c0-.031-.016-.062-.016-.108a.63.63 0 01.186-.465c.124-.124.31-.186.543-.186.201 0 .356.046.45.155a.825.825 0 01.185.31c.016.046.078.17.155.34.078.171.17.388.279.651.108.264.248.543.387.853.155.31.295.62.45.914.155.294.294.589.434.852.14.28.279.496.403.682.201-.294.402-.682.635-1.131.232-.45.45-.899.65-1.348.202-.45.388-.837.543-1.178.155-.341.233-.558.28-.635.046-.109.108-.202.185-.31.093-.109.233-.155.45-.155.232 0 .402.062.542.186a.63.63 0 01.186.465c0 .046 0 .093-.016.108-.015.015-.015.062-.03.108-.032.078-.094.233-.187.45s-.201.465-.325.76c-.124.294-.279.604-.434.929-.155.34-.325.666-.496 1.007-.17.326-.34.651-.511.946-.17.294-.326.557-.48.759-.094.14-.187.248-.295.356v3.208a.689.689 0 01-.201.511c-.124.124-.295.186-.512.186a.742.742 0 01-.511-.186.7.7 0 01-.202-.51v-3.224h.031z" fill="#fff"/></svg>