<svg width="337" height="72" viewBox="0 0 337 72" fill="none" xmlns="http://www.w3.org/2000/svg">
<g clip-path="url(#clip0)">
<path d="M59.5966 39.8179C58.5909 39.8179 57.6225 39.4082 56.9148 38.7005C56.2071 37.9928 55.7974 37.0243 55.7974 36.0186C55.7974 35.0129 56.2071 34.0445 56.9148 33.3368C57.6225 32.6291 58.5909 32.2194 59.5966 32.2194C60.6023 32.2194 61.5708 32.6291 62.2785 33.3368C62.9862 34.0445 63.3959 35.0129 63.3959 36.0186C63.3959 37.0243 62.9862 37.9928 62.2785 38.7005C61.5708 39.4082 60.6023 39.8179 59.5966 39.8179ZM59.5966 34.715C59.2614 34.715 58.9262 34.864 58.7027 35.0874C58.4792 35.3109 58.3302 35.6462 58.3302 35.9814C58.3302 36.3166 58.4792 36.6518 58.7027 36.8753C58.9262 37.0988 59.2614 37.2478 59.5966 37.2478C59.9319 37.2478 60.2671 37.0988 60.4906 36.8753C60.7141 36.6518 60.8631 36.3166 60.8631 35.9814C60.8631 35.6462 60.7141 35.3109 60.4906 35.0874C60.2671 34.864 59.9319 34.715 59.5966 34.715Z" fill="#EB5766"/>
<path d="M67.6792 31.7351C66.7107 31.7351 65.7423 31.3626 64.9973 30.6177C63.5074 29.1278 63.5074 26.7066 64.9973 25.2167C65.705 24.509 66.6735 24.0993 67.6792 24.0993C68.6849 24.0993 69.6533 24.509 70.361 25.2167C71.0687 25.9244 71.4784 26.8929 71.4784 27.8986C71.4784 28.9043 71.0687 29.8727 70.361 30.5804C69.616 31.3626 68.6476 31.7351 67.6792 31.7351ZM67.6792 26.6694C67.3439 26.6694 67.0087 26.8184 66.7852 27.0419C66.301 27.5261 66.301 28.3456 66.7852 28.8298C67.2694 29.314 68.0889 29.314 68.5731 28.8298C68.7966 28.6063 68.9456 28.2711 68.9456 27.9358C68.9456 27.6006 68.7966 27.2654 68.5731 27.0419C68.3496 26.7811 68.0144 26.6694 67.6792 26.6694Z" fill="#EB5766"/>
<path d="M51.5136 47.9007C50.5079 47.9007 49.5395 47.4909 48.8318 46.7832C48.1241 46.0755 47.7144 45.1071 47.7144 44.1014C47.7144 43.0957 48.1241 42.1273 48.8318 41.4196C49.5395 40.7118 50.5079 40.3021 51.5136 40.3021C52.5193 40.3021 53.4878 40.7118 54.1955 41.4196C54.9032 42.1273 55.3129 43.0957 55.3129 44.1014C55.3129 45.1071 54.9032 46.0755 54.1955 46.7832C53.4878 47.4909 52.5193 47.9007 51.5136 47.9007ZM51.5136 42.7977C51.1784 42.7977 50.8432 42.9467 50.6197 43.1702C50.3962 43.3937 50.2472 43.7289 50.2472 44.0642C50.2472 44.3994 50.3962 44.7346 50.6197 44.9581C50.8432 45.1816 51.1784 45.3306 51.5136 45.3306C51.8489 45.3306 52.1841 45.1816 52.4076 44.9581C52.6311 44.7346 52.7801 44.3994 52.7801 44.0642C52.7801 43.7289 52.6311 43.3937 52.4076 43.1702C52.1841 42.9467 51.8489 42.7977 51.5136 42.7977Z" fill="#EB5766"/>
<path d="M67.6792 47.9007C66.6735 47.9007 65.705 47.4909 64.9973 46.7832C63.5074 45.2933 63.5074 42.8722 64.9973 41.3823C65.705 40.6746 66.6735 40.2649 67.6792 40.2649C68.6849 40.2649 69.6533 40.6746 70.361 41.3823C71.0687 42.09 71.4784 43.0584 71.4784 44.0641C71.4784 45.0698 71.0687 46.0383 70.361 46.746C69.6533 47.4909 68.6849 47.9007 67.6792 47.9007ZM66.7852 44.9953C67.0087 45.2188 67.3439 45.3678 67.6792 45.3678C68.0144 45.3678 68.3496 45.2188 68.5731 44.9953C68.7966 44.7718 68.9456 44.4366 68.9456 44.1014C68.9456 43.7662 68.7966 43.4309 68.5731 43.2074C68.3496 42.9839 68.0144 42.835 67.6792 42.835C67.3439 42.835 67.0087 42.9839 66.7852 43.2074C66.301 43.6917 66.301 44.4739 66.7852 44.9953Z" fill="#EB5766"/>
<path d="M51.5136 31.7351C50.5452 31.7351 49.5767 31.3627 48.8318 30.6177C48.1241 29.91 47.7144 28.9416 47.7144 27.9359C47.7144 26.9302 48.1241 25.9617 48.8318 25.254C49.5395 24.5463 50.5079 24.1366 51.5136 24.1366C52.5193 24.1366 53.4878 24.5463 54.1955 25.254C54.9032 25.9617 55.3129 26.9302 55.3129 27.9359C55.3129 28.9416 54.9032 29.91 54.1955 30.6177C53.4505 31.3627 52.4821 31.7351 51.5136 31.7351ZM50.6197 28.8298C51.1039 29.314 51.9234 29.314 52.4076 28.8298C52.6311 28.6063 52.7801 28.2711 52.7801 27.9359C52.7801 27.6006 52.6311 27.2654 52.4076 27.0419C52.1841 26.8184 51.8489 26.6694 51.5136 26.6694C51.1784 26.6694 50.8432 26.8184 50.6197 27.0419C50.3962 27.2654 50.2472 27.6006 50.2472 27.9359C50.2472 28.2711 50.3589 28.5691 50.6197 28.8298Z" fill="#EB5766"/>
<path d="M59.5963 25.85C58.9259 25.85 58.2927 25.5892 57.8084 25.105C57.3242 24.6208 57.0635 23.9876 57.0635 23.3171C57.0635 21.9017 58.2182 20.7843 59.5963 20.7843C61.0117 20.7843 62.1292 21.939 62.1292 23.3171C62.1292 24.6953 61.0117 25.85 59.5963 25.85Z" fill="#1B1D1C"/>
<path d="M59.5963 51.104C58.1809 51.104 57.0635 49.9493 57.0635 48.5711C57.0635 47.1557 58.2182 46.0383 59.5963 46.0383C61.0117 46.0383 62.1292 47.193 62.1292 48.5711C62.1292 49.9865 61.0117 51.104 59.5963 51.104Z" fill="#1B1D1C"/>
<path d="M72.1491 38.5515C70.7336 38.5515 69.6162 37.3968 69.6162 36.0186C69.6162 34.6032 70.7709 33.4858 72.1491 33.4858C73.5645 33.4858 74.6819 34.6405 74.6819 36.0186C74.7192 37.3968 73.5645 38.5515 72.1491 38.5515Z" fill="#1B1D1C"/>
<path d="M47.0441 38.5515C45.6287 38.5515 44.5112 37.3968 44.5112 36.0186C44.5112 34.6032 45.6659 33.4858 47.0441 33.4858C48.4595 33.4858 49.5769 34.6405 49.5769 36.0186C49.5769 37.3968 48.4223 38.5515 47.0441 38.5515Z" fill="#1B1D1C"/>
<path d="M78.6298 34.7149H79.859C79.7472 32.8526 79.3747 31.0274 78.7788 29.2768L77.6241 29.761L76.6557 27.4144L77.8103 26.9302C77.0281 25.3657 76.0224 23.8758 74.8305 22.5349L73.9738 23.3916L72.1859 21.6037L73.0426 20.747C71.6272 19.5178 70.1 18.4749 68.4611 17.6927L67.9769 18.8474L65.6303 17.8789L66.1145 16.7243C64.4384 16.1655 62.6877 15.8303 60.8998 15.7186V16.9477H58.367V15.7186C56.5046 15.8303 54.6795 16.2028 52.9288 16.7988L53.413 17.9534L51.0664 18.9219L50.5822 17.7672C49.0178 18.5494 47.5279 19.5551 46.187 20.747L47.0437 21.6037L45.2558 23.3916L44.3991 22.5349C43.1699 23.9503 42.1269 25.4775 41.3447 27.1164L42.4994 27.6006L41.531 29.9472L40.3763 29.463C39.8176 31.1392 39.4823 32.8898 39.3706 34.6777H40.5998V37.2105H39.3706C39.4823 39.0729 39.8548 40.8981 40.4508 42.6487L41.6055 42.1645L42.5739 44.5111L41.4192 44.9953C42.2014 46.5597 43.2071 48.0497 44.3991 49.3906L45.2558 48.5339L47.0437 50.3218L46.187 51.1785C47.6024 52.4076 49.1295 53.4506 50.7684 54.2328L51.2527 53.0781L53.5993 54.0466L53.115 55.2012C54.7912 55.76 56.5418 56.0952 58.3297 56.2069V54.9778H60.8626V56.2069C62.725 56.0952 64.5501 55.7227 66.3008 55.1267L65.8165 53.9721L68.1632 53.0036L68.6474 54.1583C70.2118 53.3761 71.7017 52.3704 73.0426 51.1785L72.1859 50.3218L73.9738 48.5339L74.8305 49.3906C76.0597 47.9752 77.1026 46.448 77.8848 44.8091L76.7302 44.3249L77.6986 41.9783L78.8533 42.4625C79.412 40.7863 79.7472 39.0357 79.859 37.2478H78.6298V34.7149V34.7149ZM72.1487 48.5711C68.7964 51.9234 64.3266 53.7858 59.5962 53.7858C54.8657 53.7858 50.396 51.9234 47.0437 48.5711C43.6914 45.2188 41.829 40.7491 41.829 36.0186C41.829 31.2881 43.6914 26.8184 47.0437 23.4661C50.396 20.1138 54.8657 18.2514 59.5962 18.2514C64.3266 18.2514 68.7964 20.1138 72.1487 23.4661C75.501 26.8184 77.3634 31.2881 77.3634 36.0186C77.3634 40.7491 75.5382 45.2188 72.1487 48.5711Z" fill="#1B1D1C"/>
<path d="M76.6562 27.4516L77.6619 29.7982L78.7794 29.314L79.9713 28.7926L80.4928 29.9845L82.8394 28.9788L80.8653 24.3228L78.5186 25.2913L79.0029 26.4832L77.8109 26.9674L76.6562 27.4516Z" fill="#1B1D1C"/>
<path d="M40.6747 46.7088L40.1905 45.5541L41.3825 45.0326L42.5371 44.5484L41.5314 42.2018L40.414 42.686L39.2221 43.2075L38.7006 42.0155L36.354 43.0212L38.3281 47.6772L40.6747 46.7088Z" fill="#1B1D1C"/>
<path d="M69.1317 55.4247L68.6102 54.1956L68.1632 53.0781L65.8166 54.0466L66.3008 55.2012L66.7851 56.3932L65.6304 56.8774L66.5988 59.224L71.292 57.2499L70.2863 54.9033L69.1317 55.4247Z" fill="#1B1D1C"/>
<path d="M50.0608 16.6125L50.5822 17.8045L51.0292 18.9219L53.3758 17.9534L52.8916 16.7988L52.4074 15.6068L53.5621 15.1226L52.5936 12.776L47.9004 14.7501L48.9061 17.0967L50.0608 16.6125Z" fill="#1B1D1C"/>
<path d="M80.0454 42.984L78.8535 42.4997L77.6988 42.0155L76.7676 44.3621L77.885 44.8463L79.1142 45.3306L78.63 46.5225L80.9766 47.4537L82.8762 42.7605L80.5296 41.792L80.0454 42.984Z" fill="#1B1D1C"/>
<path d="M38.216 24.5463L36.3164 29.2395L38.663 30.208L39.1472 29.016L40.3392 29.5002L41.4939 29.9845L42.425 27.6379L41.3076 27.1536L40.0784 26.6694L40.5627 25.4775L38.216 24.5463Z" fill="#1B1D1C"/>
<path d="M53.1152 55.2757L53.5622 54.121L51.2156 53.1526L50.7686 54.3073L50.2471 55.4992L49.0925 55.015L48.124 57.3988L52.8173 59.2985L53.7857 56.9519L52.631 56.4676L53.1152 55.2757Z" fill="#1B1D1C"/>
<path d="M65.6307 17.879L67.9773 18.8474L68.4243 17.6927L68.9458 16.5008L70.1004 16.985L71.0689 14.6384L66.3757 12.7015L65.4072 15.0481L66.5619 15.5323L66.0777 16.7243L65.6307 17.879Z" fill="#1B1D1C"/>
<path d="M74.8308 22.5722L78.4438 18.9591L80.2317 20.747L82.0568 18.9591L76.6559 13.5582L74.868 15.3461L76.6559 17.134L73.0429 20.7843L72.1489 21.641L73.9741 23.4289L74.8308 22.5722Z" fill="#1B1D1C"/>
<path d="M44.3618 49.4278L40.7488 53.0781L38.9609 51.253L37.1357 53.0781L42.5367 58.4418L44.3246 56.6539L42.5367 54.866L46.1497 51.253L47.0437 50.359L45.2185 48.5711L44.3618 49.4278Z" fill="#1B1D1C"/>
<path d="M78.4438 53.0781L74.8308 49.4278L73.9741 48.5711L72.1489 50.359L73.0429 51.253L76.6559 54.866L74.868 56.6539L76.6559 58.4418L82.0568 53.0781L80.2317 51.253L78.4438 53.0781Z" fill="#1B1D1C"/>
<path d="M42.5367 17.134L44.3246 15.3461L42.5367 13.5582L37.1357 18.9591L38.9609 20.747L40.7488 18.9591L44.3618 22.5722L45.2185 23.4289L47.0437 21.641L46.1497 20.7843L42.5367 17.134Z" fill="#1B1D1C"/>
<path d="M84.9993 32.1821V34.7149H79.8591H78.6299V37.285H79.8591H84.9993V39.8179H87.5321V32.1821H84.9993Z" fill="#1B1D1C"/>
<path d="M40.5629 37.285V34.7149H39.3337H34.1935V32.1821H31.6606V39.8179H34.1935V37.285H39.3337H40.5629Z" fill="#1B1D1C"/>
<path d="M60.8631 56.2814V55.0522H58.3302V56.2814V61.3844H55.7974V63.9545H63.3959V61.3844H60.8631V56.2814Z" fill="#1B1D1C"/>
<path d="M55.7974 10.6156H58.3302V15.7186V16.9477H60.8631V15.7186V10.6156H63.3959V8.08276H55.7974V10.6156Z" fill="#1B1D1C"/>
<path d="M0 39.1474V33.0015H8.418C10.0569 33.0015 11.3978 32.8526 12.4408 32.5918C13.4837 32.2938 14.3032 31.8469 14.8619 31.2509C15.4206 30.6549 15.7931 29.8355 15.9793 28.867C16.1655 27.8986 16.2028 26.7067 16.0911 25.3285L15.3088 12.7015C15.1971 10.6901 15.4578 8.93947 16.0911 7.33782C16.687 5.73616 17.6182 4.39524 18.8474 3.31505C20.0766 2.23487 21.6037 1.41542 23.3916 0.856699C25.2168 0.297982 27.2281 0 29.5003 0H32.9643V6.14589H29.5003C27.0419 6.14589 25.1795 6.7046 23.9503 7.78479C22.6839 8.86498 22.1252 10.5411 22.2369 12.7387L23.0191 25.3657C23.1309 26.7439 22.9819 28.0476 22.6467 29.314C22.2742 30.5804 21.7527 31.6606 21.0078 32.6291C20.2628 33.5603 19.3316 34.3425 18.2142 34.9012C17.0967 35.4599 15.7558 35.7579 14.2287 35.8324V36.2049C15.7558 36.2421 17.0967 36.5773 18.2514 37.1733C19.4061 37.7693 20.3373 38.5515 21.045 39.5199C21.7527 40.4884 22.3114 41.6058 22.6467 42.9095C23.0191 44.1759 23.1309 45.5168 23.0191 46.895L22.2369 59.373C22.1252 61.5706 22.7212 63.2095 23.9503 64.3269C25.2168 65.4444 27.0419 65.9659 29.5003 65.9659H32.9643V72.1117H29.5003C27.2654 72.1117 25.2168 71.8138 23.3916 71.255C21.5665 70.6963 20.0766 69.8769 18.8474 68.7594C17.6182 67.6793 16.687 66.3383 16.0911 64.7367C15.4951 63.1723 15.2344 61.3471 15.3088 59.373L16.0911 46.895C16.2028 45.5168 16.1655 44.3249 15.9793 43.3564C15.7931 42.388 15.4206 41.6058 14.8619 40.9726C14.3032 40.3394 13.521 39.9296 12.478 39.6317C11.4723 39.3337 10.0942 39.2219 8.418 39.2219H0V39.1474Z" fill="#1B1D1C"/>
<path d="M86.2656 72V65.8541H89.7297C92.188 65.8541 94.0132 65.2954 95.2796 64.2152C96.546 63.135 97.1047 61.4589 96.993 59.2613L96.2108 46.7087C96.1735 45.3306 96.2853 44.0269 96.6205 42.7605C96.9557 41.4941 97.4772 40.4139 98.2222 39.4454C98.9671 38.5142 99.8983 37.732 101.016 37.1733C102.133 36.6146 103.474 36.3166 105.001 36.2421V35.8696C103.474 35.8324 102.133 35.4972 100.979 34.9012C99.8238 34.3052 98.8926 33.523 98.1849 32.5546C97.4772 31.5861 96.9557 30.4687 96.6205 29.165C96.2853 27.8986 96.1363 26.5577 96.2108 25.1795L96.993 12.627C97.1047 10.4294 96.5088 8.79048 95.2796 7.67305C94.0132 6.59286 92.188 6.03414 89.7297 6.03414H86.2656V0H89.7297C91.9645 0 94.0132 0.297982 95.8011 0.856699C97.6262 1.41542 99.1161 2.23487 100.345 3.3523C101.574 4.43249 102.506 5.81066 103.102 7.37506C103.698 8.97672 103.958 10.7274 103.847 12.7387L103.102 25.2913C103.064 26.6694 103.102 27.8614 103.251 28.8298C103.4 29.7982 103.772 30.5804 104.331 31.2137C104.89 31.8096 105.672 32.2566 106.715 32.5546C107.72 32.8526 109.099 32.9643 110.775 32.9643H119.193V39.1102H110.775C109.136 39.1102 107.795 39.2592 106.752 39.5199C105.709 39.8179 104.89 40.2649 104.331 40.8608C103.772 41.494 103.4 42.2763 103.251 43.2447C103.102 44.2131 103.027 45.4051 103.102 46.7832L103.847 59.3357C103.958 61.3099 103.698 63.0978 103.102 64.6994C102.506 66.3011 101.574 67.6048 100.345 68.7222C99.1161 69.8024 97.589 70.6591 95.8011 71.2178C93.9759 71.7765 91.9645 72.0745 89.7297 72.0745H86.2656V72Z" fill="#1B1D1C"/>
<path d="M145.453 41.0843L144.67 45.5168H141.914L142.696 41.0843H139.418L138.636 45.5168H135.88L136.662 41.0843H134.576V38.477H137.109L137.928 33.7838H135.47V31.1764H138.375L139.158 26.7439H141.914L141.132 31.1764H144.41L145.192 26.7439H147.948L147.129 31.1764H149.215V33.7838H146.682L145.862 38.477H148.283V41.0843H145.453ZM143.143 38.477L143.963 33.7838H140.685L139.865 38.477H143.143Z" fill="#EB5766"/>
<path d="M150.667 31.1764H154.429V26.7439H158.34V31.1764H163.704V34.715H158.34V40.6001C158.34 41.0471 158.452 41.4196 158.713 41.643C158.973 41.9038 159.309 42.0155 159.756 42.0155H163.406V45.5541H159.346C157.781 45.5541 156.59 45.1071 155.696 44.2504C154.802 43.3564 154.392 42.1645 154.392 40.6001V34.6777H150.63V31.1764H150.667Z" fill="#EB5766"/>
<path d="M173.202 45.7776C172.197 45.7776 171.303 45.6286 170.52 45.3678C169.738 45.1071 169.03 44.6974 168.435 44.2131C167.839 43.7289 167.429 43.0957 167.094 42.388C166.796 41.6803 166.609 40.8981 166.609 40.0414V36.6146C166.609 35.7579 166.758 34.9757 167.094 34.268C167.392 33.5603 167.839 32.9643 168.435 32.4801C168.993 31.9586 169.701 31.5861 170.52 31.3254C171.34 31.0647 172.234 30.9157 173.202 30.9157C174.171 30.9157 175.065 31.0647 175.847 31.3254C176.629 31.5861 177.337 31.9959 177.895 32.4801C178.454 33.0016 178.901 33.5975 179.236 34.3052C179.572 35.0129 179.721 35.7951 179.721 36.6518V39.2592H170.483V40.0414C170.483 40.8981 170.707 41.5686 171.191 42.0528C171.675 42.537 172.346 42.7605 173.202 42.7605C173.835 42.7605 174.394 42.6487 174.841 42.4625C175.288 42.239 175.586 41.9783 175.772 41.6058H179.609C179.46 42.239 179.162 42.7977 178.789 43.3192C178.38 43.8407 177.933 44.2876 177.374 44.6229C176.815 44.9953 176.182 45.2561 175.474 45.4796C174.767 45.6658 174.022 45.7776 173.202 45.7776ZM175.959 36.9126V36.6518C175.959 35.7951 175.735 35.1247 175.251 34.6405C174.767 34.1562 174.096 33.9328 173.24 33.9328C172.383 33.9328 171.712 34.1562 171.228 34.6405C170.744 35.1247 170.52 35.7951 170.52 36.6518V36.9498H175.959V36.9126Z" fill="#EB5766"/>
<path d="M188.995 45.7776C187.99 45.7776 187.096 45.6286 186.313 45.4051C185.494 45.1443 184.823 44.7719 184.227 44.2876C183.669 43.8034 183.222 43.2075 182.887 42.537C182.589 41.8665 182.402 41.0843 182.402 40.2276V36.5029C182.402 35.6462 182.551 34.8639 182.887 34.1935C183.185 33.523 183.632 32.9271 184.227 32.4428C184.786 31.9586 185.494 31.5861 186.313 31.3254C187.133 31.0647 188.027 30.9157 188.995 30.9157C189.852 30.9157 190.671 31.0274 191.416 31.2882C192.161 31.5489 192.832 31.8841 193.39 32.3311C193.949 32.7781 194.433 33.3368 194.843 33.97C195.216 34.6032 195.476 35.3482 195.625 36.1304H191.714C191.603 35.5717 191.305 35.1247 190.783 34.7895C190.299 34.4542 189.703 34.3052 188.995 34.3052C188.176 34.3052 187.505 34.4915 187.058 34.9012C186.574 35.2737 186.351 35.8324 186.351 36.5401V40.2276C186.351 40.9353 186.574 41.4568 187.058 41.8293C187.543 42.2018 188.176 42.388 188.995 42.388C189.703 42.388 190.299 42.2018 190.783 41.8665C191.267 41.5313 191.565 41.0843 191.714 40.5256H195.625C195.476 41.3078 195.216 42.0528 194.843 42.686C194.471 43.3192 193.986 43.8779 193.39 44.3249C192.832 44.7719 192.161 45.1443 191.416 45.3678C190.671 45.6658 189.852 45.7776 188.995 45.7776Z" fill="#EB5766"/>
<path d="M198.27 26.4832H202.181V31.1764C202.181 31.4371 202.181 31.6979 202.144 31.9959C202.107 32.2938 202.069 32.5546 202.069 32.8153C202.032 33.076 201.995 33.3368 201.958 33.6348H202.256C202.367 32.7781 202.777 32.1076 203.41 31.6234C204.043 31.1392 204.9 30.9157 205.943 30.9157C207.396 30.9157 208.55 31.3999 209.407 32.3683C210.264 33.3368 210.674 34.6405 210.674 36.2794V45.5541H206.725V36.6518C206.725 35.9069 206.539 35.3482 206.129 34.9384C205.72 34.5287 205.161 34.3052 204.49 34.3052C203.783 34.3052 203.261 34.5287 202.851 34.9384C202.442 35.3482 202.256 35.9441 202.256 36.6518V45.5168H198.345V26.4832H198.27Z" fill="#EB5766"/>
<path d="M221.028 26.7439H225.461L217.266 37.6575V38.626H222.22V34.8267H226.131V45.5168H222.22V42.0155H213.616V36.5773L221.028 26.7439Z" fill="#EB5766"/>
<path d="M235.928 26.4832C236.896 26.4832 237.79 26.6322 238.572 26.8929C239.354 27.1536 240.062 27.5634 240.621 28.0848C241.18 28.6063 241.627 29.2023 241.962 29.9472C242.26 30.6549 242.446 31.4744 242.446 32.3683H238.535C238.535 31.6234 238.312 31.0647 237.827 30.6549C237.343 30.2452 236.71 30.0217 235.928 30.0217C235.108 30.0217 234.475 30.2452 233.991 30.6549C233.507 31.0647 233.283 31.6606 233.283 32.3683V39.9296C233.283 40.6746 233.507 41.2333 233.991 41.643C234.438 42.0528 235.108 42.2762 235.928 42.2762C236.747 42.2762 237.38 42.0528 237.865 41.6058C238.349 41.1588 238.572 40.6001 238.572 39.9296H242.483C242.483 40.8236 242.334 41.6058 241.999 42.3507C241.701 43.0585 241.254 43.6917 240.658 44.2131C240.099 44.7346 239.392 45.1071 238.61 45.4051C237.827 45.6658 236.933 45.8148 235.928 45.8148C234.922 45.8148 234.028 45.6658 233.246 45.4051C232.464 45.1443 231.756 44.7346 231.197 44.2131C230.639 43.6917 230.192 43.0957 229.856 42.3507C229.558 41.643 229.372 40.8236 229.372 39.9296V32.3311C229.372 31.4371 229.521 30.6549 229.856 29.91C230.154 29.2023 230.601 28.5691 231.197 28.0476C231.756 27.5261 232.464 27.1536 233.283 26.8557C234.028 26.6322 234.922 26.4832 235.928 26.4832Z" fill="#EB5766"/>
<path d="M244.867 32.3311C244.867 31.4371 245.016 30.6549 245.351 29.9472C245.649 29.2395 246.096 28.6063 246.692 28.1221C247.251 27.6006 247.959 27.2281 248.778 26.9301C249.598 26.6694 250.492 26.5204 251.46 26.5204C252.428 26.5204 253.36 26.6694 254.142 26.9301C254.961 27.1909 255.632 27.6006 256.228 28.1221C256.786 28.6435 257.233 29.2395 257.569 29.9472C257.867 30.6549 258.053 31.4744 258.053 32.3311V39.9296C258.053 40.7863 257.904 41.6058 257.569 42.3135C257.233 43.0212 256.786 43.6544 256.228 44.1759C255.669 44.6973 254.961 45.1071 254.142 45.3678C253.322 45.6658 252.428 45.8148 251.46 45.8148C250.454 45.8148 249.56 45.6658 248.778 45.4051C247.996 45.1443 247.288 44.7346 246.692 44.2131C246.134 43.6917 245.687 43.0957 245.351 42.3507C245.053 41.643 244.867 40.8236 244.867 39.9296V32.3311ZM248.778 39.8924C248.778 40.6373 249.002 41.2333 249.486 41.6803C249.97 42.1272 250.603 42.3507 251.423 42.3507C252.242 42.3507 252.875 42.1272 253.36 41.6803C253.844 41.2333 254.067 40.6373 254.067 39.8924V32.3311C254.067 31.5861 253.844 30.9902 253.36 30.5432C252.875 30.0962 252.242 29.8727 251.423 29.8727C250.603 29.8727 249.97 30.0962 249.486 30.5432C249.002 30.9902 248.778 31.5861 248.778 32.3311V39.8924Z" fill="#EB5766"/>
<path d="M259.505 26.7439H263.453L266.619 40.2649C266.694 40.5256 266.731 40.8236 266.805 41.1216C266.843 41.4196 266.88 41.7175 266.917 41.9783C266.954 42.2763 266.992 42.6115 267.029 42.9095H267.178C267.215 42.6115 267.252 42.2763 267.29 41.9783C267.327 41.7175 267.364 41.4196 267.439 41.1216C267.476 40.8236 267.55 40.5256 267.588 40.2649L270.679 26.7439H274.627L269.636 45.5168H264.422L259.505 26.7439Z" fill="#EB5766"/>
<path d="M276.863 45.5168V42.1273H280.774V30.1335H276.863V26.7439H288.596V30.1335H284.685V42.1273H288.596V45.5168H276.863Z" fill="#EB5766"/>
<path d="M292.172 45.5168V26.7439H298.355C299.361 26.7439 300.255 26.8929 301.037 27.1909C301.819 27.4889 302.527 27.8986 303.123 28.4201C303.681 28.9415 304.128 29.612 304.464 30.357C304.762 31.1019 304.948 31.9214 304.948 32.8526V39.4082C304.948 40.3394 304.799 41.1588 304.464 41.941C304.166 42.686 303.719 43.3564 303.123 43.8779C302.564 44.3994 301.856 44.8091 301.037 45.1071C300.217 45.4051 299.323 45.5541 298.355 45.5541H292.172V45.5168ZM298.355 41.8665C299.137 41.8665 299.808 41.643 300.292 41.1961C300.776 40.7491 301.037 40.1531 301.037 39.4082V32.8526C301.037 32.1076 300.776 31.5489 300.292 31.0647C299.808 30.6177 299.174 30.3942 298.355 30.3942H296.083V41.8665H298.355Z" fill="#EB5766"/>
<path d="M308.002 42.1273H313.031V32.2938C313.031 31.5489 313.068 30.9902 313.105 30.6922C313.105 30.4687 313.142 30.3197 313.142 30.1707H313.068C312.993 30.2452 312.919 30.357 312.77 30.4687C312.695 30.5432 312.584 30.6549 312.435 30.7667C312.286 30.8784 312.099 31.0274 311.913 31.1764L308.226 33.5603V29.7238L312.621 26.7439H316.904V42.1273H320.853V45.5168H307.965V42.1273H308.002Z" fill="#EB5766"/>
<path d="M329.643 26.4832C330.686 26.4832 331.617 26.6322 332.474 26.9302C333.293 27.2281 334.001 27.6751 334.597 28.2338C335.193 28.7926 335.64 29.463 335.938 30.2452C336.273 31.0274 336.422 31.9214 336.422 32.8898C336.422 34.0817 336.161 35.3109 335.677 36.5028C335.156 37.6948 334.448 39.0357 333.442 40.4884L330.053 45.5168H325.695L330.015 39.2219C330.5 38.5142 330.872 37.9928 331.133 37.583C331.394 37.1733 331.58 36.8753 331.729 36.6891C331.878 36.4656 331.99 36.3166 332.027 36.2421H331.878C331.617 36.6518 331.319 36.9871 330.947 37.285C330.649 37.5458 330.239 37.8065 329.792 38.03C329.345 38.2535 328.786 38.3652 328.153 38.3652C327.371 38.3652 326.663 38.2162 325.993 37.9555C325.322 37.6948 324.763 37.2851 324.316 36.8008C323.832 36.3166 323.497 35.6834 323.236 34.9757C322.976 34.268 322.864 33.4858 322.864 32.6291C322.864 31.6979 323.013 30.8784 323.348 30.0962C323.683 29.3513 324.13 28.6808 324.726 28.1593C325.322 27.6379 326.03 27.1909 326.849 26.8929C327.706 26.6322 328.637 26.4832 329.643 26.4832ZM326.775 32.5918C326.775 33.4858 327.036 34.1935 327.557 34.6777C328.078 35.1992 328.786 35.4599 329.643 35.4599C330.5 35.4599 331.207 35.1992 331.729 34.6777C332.25 34.1562 332.511 33.4485 332.511 32.5918C332.511 31.6979 332.25 30.9902 331.729 30.5059C331.207 29.9845 330.5 29.7237 329.643 29.7237C328.786 29.7237 328.041 29.9845 327.557 30.5059C327.036 31.0274 326.775 31.7351 326.775 32.5918Z" fill="#EB5766"/>
</g>
<defs>
<clipPath id="clip0">
<rect width="336.422" height="72" fill="white"/>
</clipPath>
</defs>
</svg>
