<svg width="62" height="72" fill="none" xmlns="http://www.w3.org/2000/svg"><g clip-path="url(#clip0)"><path fill-rule="evenodd" clip-rule="evenodd" d="M30.686 58.166h25.122c5.736 0 5.794-6.097 5.21-9.107-.32-2.023-3.758-2.006-4.136 0v2.348a1.958 1.958 0 01-1.952 1.952H6.765a1.957 1.957 0 01-1.951-1.952V49.06c-.379-2.006-3.817-2.023-4.136 0-.584 3.01-.527 9.107 5.21 9.107H30.686zM12.925-.232H51.66c2.722 0 4.948 2.356 4.948 5.236v2.503c0 3.538-4.793 3.524-4.793.024V6.163c0-.87-.711-1.58-1.581-1.58H11.419c-.87 0-1.58.71-1.58 1.58v1.34c0 3.518-4.569 3.493-4.569.076V5.004c0-2.88 2.227-5.236 4.949-5.236h2.706z" fill="#2A6BAE"/><path fill-rule="evenodd" clip-rule="evenodd" d="M55.632 28.534c2.683 1.262 4.535 3.868 4.535 6.859 0 4.217-3.682 7.668-8.183 7.668H39.369c-1.18 0-2.145-.905-2.145-2.01V17.049c0-1.157.948-2.105 2.107-2.105H49.84c4.422 0 8.041 3.616 8.041 8.034a8 8 0 01-2.248 5.556zm-9.415-1.954h4.005v-.045a3.823 3.823 0 003.232-3.765 3.82 3.82 0 00-3.809-3.808h-8.068v19.916h10.231a3.945 3.945 0 003.934-3.933 3.945 3.945 0 00-3.934-3.934h-1.586v-.01h-4.005a2.217 2.217 0 01-2.212-2.21c0-1.216.995-2.212 2.212-2.212" fill="#424041"/><path d="M14.526 65.534a.676.676 0 011.353 0v3.659h-.003a3.03 3.03 0 01-.893 2.147 3.026 3.026 0 01-2.142.89v.002h-.002v-.003a3.028 3.028 0 01-2.147-.892 3.025 3.025 0 01-.89-2.142H9.8V65.534a.677.677 0 011.353 0V69.195h-.003c0 .461.191.883.498 1.19.306.306.728.497 1.19.497v-.003h.003v.003c.462 0 .884-.191 1.191-.498a1.68 1.68 0 00.496-1.19h-.002V65.534zM20.919 70.88a.676.676 0 110 1.353H19.05v-.004c-.7 0-1.336-.286-1.797-.746a2.535 2.535 0 01-.744-1.793h-.002v-4.156a.677.677 0 111.352 0v4.156h-.002c0 .326.135.624.353.841.216.216.513.35.84.35v-.002h1.868zM35.22 40.663a2.531 2.531 0 11-5.035.535l-2.074-19.087-7.347 18.664-.008.017v.002l-.02.05-.017.038-.004.01-.017.039-.011.023-.018.037-.008.017-.02.038-.007.013a2.52 2.52 0 01-.513.67l-.008.006-.037.034a2.5 2.5 0 01-.438.31l-.011.006-.048.026-.002.001-.044.023-.02.01-.03.014-.03.014-.026.012-.031.014-.028.011-.025.011-.024.01-.013.005-.022.008-.033.012-.02.007a2.518 2.518 0 01-.742.14l-.03.001h-.122l-.032-.001a2.52 2.52 0 01-.83-.173l-.033-.013-.009-.004-.033-.014-.033-.014-.027-.013-.028-.012-.03-.015-.018-.009-.046-.023-.005-.003-.039-.022-.022-.012a2.53 2.53 0 01-.387-.268l-.01-.009-.083-.073-.002-.002a2.43 2.43 0 01-.063-.061l-.061-.063-.002-.002a2.393 2.393 0 01-.074-.084l-.009-.01c-.1-.118-.19-.247-.268-.386l-.012-.022-.022-.04-.002-.005-.024-.046-.008-.017-.015-.03-.013-.03-.012-.026-.015-.032-.014-.034-.003-.008-.014-.034L8.684 22.11 6.61 41.198a2.531 2.531 0 11-5.035-.535l2.446-22.502v-.007l.002-.009h-.001a4.198 4.198 0 01.472-1.512 4.194 4.194 0 013.145-2.185l.005-.001a4.236 4.236 0 01.776-.034h.01a4.158 4.158 0 013.707 2.646l6.26 15.9 6.26-15.9a4.157 4.157 0 013.708-2.646h.01a4.256 4.256 0 01.776.034h.005a4.195 4.195 0 013.453 2.919c.08.256.135.516.164.779v.01l.001.005 2.445 22.503zM9.55 71.477a.676.676 0 01-1.344.158l-.58-4.871-2.066 4.792a.675.675 0 01-1.242 0l-2.067-4.792-.58 4.871a.676.676 0 01-1.342-.158l.673-5.657c.044-.37.269-.672.591-.839a1.147 1.147 0 01.383-.12h.011c.354-.046.702.068.945.297a1.135 1.135 0 01.255.362l1.752 4.062L6.69 65.52c.145-.336.443-.565.791-.641a1.2 1.2 0 01.346-.027h.005a.877.877 0 01.05.005h.005v.003h.003c.361.046.67.25.842.54a1.077 1.077 0 01.142.414v.006l.674 5.657zM23.874 71.556a.676.676 0 01-1.352 0V66.21h-1.925a.677.677 0 010-1.353h5.202a.676.676 0 010 1.353h-1.925v5.345zM28.093 71.556a.676.676 0 01-1.352 0v-6.022a.676.676 0 011.352 0v6.022zM41.971 71.474a.677.677 0 01-1.342.163l-.238-1.91h-2.345a.676.676 0 010-1.353h2.176l-.061-.496-.001-.006a.517.517 0 01-.004-.047 2.48 2.48 0 00-.218-.702c-.268-.537-.754-.912-1.368-.912h-.006v-.003a1.442 1.442 0 00-.643.154c-.518.265-.866.842-.94 1.508l-.424 3.76a.676.676 0 01-1.342-.148l.422-3.76c.125-1.11.742-2.092 1.672-2.565a2.793 2.793 0 011.255-.296v-.003h.006c1.173 0 2.084.685 2.573 1.662a3.547 3.547 0 01.348 1.125c.005.02.009.042.011.063l.001.005.468 3.76zM44.042 71.556a.676.676 0 01-1.354 0V65.96c0-.039.003-.078.01-.115a.95.95 0 01.053-.219l.001-.002c.013-.038.033-.078.055-.121l.002-.002h-.002a.954.954 0 01.693-.484h.006v-.003a1 1 0 01.162-.008h.017a.95.95 0 01.715.367l3.6 4.592v-4.43a.677.677 0 011.354 0v5.568a.95.95 0 01-.575.876l-.008.003h-.002a.476.476 0 01-.055.023l-.002.001-.001-.001-.005.001a.946.946 0 01-1.032-.276l-.023-.026-.001-.002-.008-.01-3.6-4.591v4.455zM54.608 70.88a.676.676 0 010 1.353h-1.994v-.004c-.735 0-1.402-.3-1.885-.783a2.66 2.66 0 01-.781-1.882h-.003v-2.038h.003c0-.734.3-1.402.784-1.885a2.66 2.66 0 011.88-.78v-.004h1.996a.677.677 0 010 1.354h-1.995v-.003c-.36 0-.69.15-.93.39a1.31 1.31 0 00-.387.928h.002V69.564h-.002c0 .36.149.69.39.93.238.239.567.388.928.388v-.003h1.994zM58.522 66.208v.003h-.002v-.003c-.499 0-.953.197-1.28.511-.322.31-.522.733-.523 1.195h.003v1.263h-.003c0 .461.2.884.522 1.193a1.85 1.85 0 001.282.512v-.003h.002v.003c.5 0 .952-.196 1.28-.512.322-.309.523-.732.523-1.194h-.003v-1.263h.003c0-.462-.2-.885-.522-1.193a1.85 1.85 0 00-1.282-.512zm0-1.35v.003c.863 0 1.648.34 2.218.886a3 3 0 01.933 2.166h.003v1.262h-.003a3 3 0 01-.934 2.168 3.197 3.197 0 01-2.216.887v.002h-.002v-.002c-.863 0-1.648-.34-2.218-.888a3.001 3.001 0 01-.933-2.165h-.003v-1.263h.003a3 3 0 01.934-2.167 3.197 3.197 0 012.216-.886v-.003h.001zM30.014 66.21V70.88H32.63v.003a.85.85 0 00.6-.253.845.845 0 00.25-.599h-.001v-.003h.002a.845.845 0 00-.226-.573l-.026-.024a.846.846 0 00-.6-.254v.003h-.901a.677.677 0 010-1.353h.308a.813.813 0 00.51-.237h.002a.807.807 0 00.238-.57h-.003v-.003h.003a.807.807 0 00-.24-.57.806.806 0 00-.57-.238v.003h-1.96zm-1.352 2.293v-2.94a.68.68 0 01.055-.269.697.697 0 01.157-.232l.008-.008a.696.696 0 01.444-.194l.04-.001v-.001h2.609v.002c.595 0 1.136.243 1.526.635.39.389.631.927.632 1.521h.003v.002h-.003c0 .422-.123.816-.333 1.148a2.268 2.268 0 01.426.352c.372.393.601.925.602 1.51h.002v.002h-.002c0 .606-.248 1.157-.647 1.556a2.192 2.192 0 01-1.552.643v.003h-3.291a.677.677 0 01-.676-.676v-3.053z" fill="#424041"/></g><defs><clipPath id="clip0"><path fill="#fff" d="M0 0h62v72H0z"/></clipPath></defs></svg>