<svg width="116" height="56" fill="none" xmlns="http://www.w3.org/2000/svg"><path d="M4.496 48.84l-.19 1.52a1.246 1.246 0 001.248 1.382h49.03c.76 0 1.356-.65 1.275-1.383l-.19-1.518c-.109-1.166.732-2.251 1.898-2.36A2.097 2.097 0 0159.9 48.38l.19 1.464c.38 3.281-1.464 6.156-4.8 6.156H4.85c-3.309 0-5.18-2.875-4.8-6.156l.19-1.464c.135-1.166 1.165-2.034 2.332-1.899 1.193.136 2.06 1.194 1.925 2.36z" fill="#D60510"/><path d="M49.838 37.478c2.387 0 4.285-1.736 4.23-4.014-.053-2.332-2.169-3.85-4.555-3.85h-4.8c-1.058 0-1.925-.895-1.925-1.98 0-1.112.867-2.007 1.925-2.007h3.2c2.17-.081 3.824-1.383 3.932-3.444.109-2.197-1.763-3.824-4.068-3.824h-7.783l-.027 19.146h9.871v-.027zm5.912-15.322c0 2.007-.705 3.119-1.871 4.529l-.108.135.162.109c2.333 1.41 3.932 3.552 4.068 6.535.19 4.475-3.607 8.163-8.108 8.163H38.042c-1.166 0-2.088-.949-2.088-2.142V16.488c0-1.193.922-2.142 2.088-2.142l9.79.027c4.23.027 7.918 3.146 7.918 7.783zM17.54 33.736l.054.162.054-.162c.543-1.519 1.22-3.2 1.926-5.017.732-1.926 1.437-3.77 2.17-5.505.731-1.79 1.41-3.363 2.087-4.746.651-1.41 1.194-2.387 1.627-2.902.651-.786 1.492-1.166 2.577-1.166h.488c.65 0 1.166.163 1.546.488.352.299.57.651.623 1.058l3.065 23.756c0 .623-.163 1.084-.515 1.437-.353.325-.841.488-1.492.488-.65 0-1.166-.163-1.546-.46a1.676 1.676 0 01-.705-1.194c-.108-.787-.19-1.654-.298-2.63-.136-.95-.624-5.099-.76-6.157-.135-1.084-.976-7.783-1.274-10.223l-.027-.217-.977 2.06a38.014 38.014 0 00-1.084 2.55c-.38 1.003-.787 2.034-1.193 3.146-.434 1.085-2.333 6.481-2.333 6.481-.162.488-.515 1.492-.813 2.387a63.006 63.006 0 01-.651 1.87c-.461.896-1.329 1.492-2.44 1.492-1.14 0-2.008-.596-2.469-1.491-.08-.163-.352-.977-.678-1.871-.298-.922-.623-1.899-.813-2.387 0 0-1.898-5.424-2.332-6.481a98.012 98.012 0 00-1.193-3.146 60.58 60.58 0 00-1.085-2.55l-.976-2.06-.028.217c-.298 2.44-1.166 9.139-1.274 10.223a739.23 739.23 0 00-.732 6.156c-.109.977-.19 1.844-.299 2.63a1.675 1.675 0 01-.705 1.194c-.38.298-.895.461-1.546.461-.65 0-1.139-.163-1.491-.488-.353-.353-.515-.84-.515-1.437l3.064-23.756c.054-.407.271-.76.624-1.058.38-.325.895-.488 1.546-.488h.488c1.057 0 1.925.38 2.576 1.166.434.542.976 1.492 1.627 2.902a99.89 99.89 0 012.088 4.746c.732 1.762 1.438 3.58 2.17 5.505.65 1.844 1.301 3.525 1.844 5.017z" fill="#000"/><path d="M11.547 0h37.261c3.498 0 5.261 2.63 5.668 6.102l.163 1.112c.135 1.193-.76 2.25-1.926 2.386-1.166.136-2.223-.732-2.359-1.925l-.136-1.058c-.162-1.329-.705-2.332-2.06-2.332h-35.96c-1.356 0-1.898 1.03-2.06 2.332l-.136 1.058A2.124 2.124 0 017.642 9.6c-1.166-.108-2.06-1.193-1.925-2.386l.162-1.112C6.286 2.63 8.022 0 11.547 0z" fill="#D60510"/><path d="M78.53 25.03a189.904 189.904 0 01-.814 3.2c-.271 1.14-.57 2.197-.84 3.228-.272 1.03-.516 1.925-.787 2.712-.244.786-.461 1.301-.624 1.6-.298.515-.786.759-1.518.759-.19 0-.461-.055-.787-.136-.325-.081-.596-.298-.813-.678-.163-.298-.353-.84-.624-1.681-.244-.84-.488-1.79-.787-2.875a133.81 133.81 0 01-.813-3.444c-.271-1.22-.515-2.332-.732-3.39-.217-1.03-.407-1.925-.543-2.657-.135-.732-.217-1.166-.244-1.33-.027-.08-.027-.162-.027-.189v-.081c0-.299.109-.57.353-.76.244-.19.515-.27.867-.27.326 0 .597.08.787.216.19.136.352.38.434.705 0 .027.054.299.135.787.109.488.217 1.112.38 1.87.163.76.326 1.6.515 2.55.19.95.38 1.898.597 2.875.217.976.407 1.898.624 2.793.217.895.406 1.681.596 2.332.19-.624.38-1.302.597-2.115.217-.787.434-1.6.65-2.44.218-.841.435-1.682.625-2.523.19-.84.38-1.627.569-2.36.163-.731.325-1.355.434-1.925.136-.57.217-.976.298-1.247.082-.353.271-.624.515-.814.272-.19.57-.298.922-.298.407 0 .733.108.977.326.244.216.407.488.488.786.19.895.407 1.871.65 2.983.245 1.085.489 2.197.733 3.308.244 1.112.515 2.224.786 3.309.272 1.085.543 2.034.787 2.847.19-.65.38-1.437.596-2.332.217-.922.407-1.844.624-2.793.217-.95.434-1.898.624-2.848.19-.949.38-1.79.542-2.549.163-.759.299-1.356.38-1.817.108-.46.135-.705.135-.732.082-.352.245-.596.434-.705.19-.136.461-.217.787-.217.352 0 .624.081.868.271s.352.434.352.76v.108c0 .027 0 .109-.027.19-.027.136-.108.57-.271 1.329-.136.732-.326 1.627-.543 2.657-.217 1.058-.46 2.17-.732 3.363-.27 1.193-.542 2.36-.786 3.417a81.023 81.023 0 01-.76 2.875c-.244.813-.46 1.383-.623 1.654-.217.38-.488.624-.84.732a2.53 2.53 0 01-.814.136c-.082 0-.19 0-.326-.028-.136-.027-.298-.054-.46-.108a2.055 2.055 0 01-.489-.244.998.998 0 01-.38-.488c-.162-.353-.352-.922-.596-1.709a549.34 549.34 0 01-.732-2.684c-.272-1.004-.516-2.061-.787-3.146-.081-1.085-.325-2.115-.542-3.064zM92.767 31.512a169.31 169.31 0 00-.732 2.413c-.217.733-.407 1.356-.597 1.817-.19.516-.596.787-1.193.787-.407 0-.732-.109-.922-.299-.19-.216-.271-.488-.271-.813 0-.136.027-.244.054-.353.027-.108.136-.488.353-1.111.19-.624.433-1.41.759-2.36.298-.949.65-1.98 1.03-3.091.38-1.112.76-2.224 1.166-3.336.407-1.085.787-2.115 1.167-3.064.38-.95.732-1.709 1.057-2.305.136-.299.353-.516.597-.624.244-.109.57-.163 1.003-.163.407 0 .732.054 1.03.19.272.136.489.352.597.65.244.543.57 1.275.922 2.17.353.922.732 1.899 1.112 2.956.38 1.058.787 2.143 1.166 3.227l1.058 3.092c.325.949.597 1.763.813 2.44.217.678.38 1.112.434 1.302.028.109.055.217.055.353 0 .325-.109.596-.326.813-.217.217-.542.299-.949.299-.298 0-.542-.055-.705-.217a1.464 1.464 0 01-.353-.57 31.022 31.022 0 01-.65-1.817c-.244-.732-.516-1.546-.787-2.413h-6.888v.027zm6.047-2.36c-.38-1.166-.732-2.25-1.084-3.227-.353-.976-.705-1.925-1.058-2.82-.081-.19-.19-.434-.271-.705-.109-.244-.163-.407-.163-.461-.027 0-.081.163-.162.434-.109.271-.19.515-.299.705a79.152 79.152 0 00-1.057 2.82c-.326.977-.706 2.061-1.085 3.227h5.18v.027zM108.035 29.695c-.081-.081-.162-.19-.244-.298-.081-.109-.162-.244-.271-.38-.244-.352-.515-.786-.841-1.302a43.927 43.927 0 01-.894-1.627 34.7 34.7 0 01-.868-1.762c-.271-.597-.543-1.14-.76-1.628-.217-.515-.433-.949-.596-1.301-.163-.38-.271-.624-.298-.787a1.05 1.05 0 01-.055-.19c0-.054-.027-.108-.027-.19 0-.325.109-.596.326-.813.217-.217.542-.325.949-.325.352 0 .623.081.786.27.163.19.271.353.326.543.027.081.135.298.271.597.135.298.298.678.488 1.139.19.46.434.949.678 1.491.271.543.515 1.085.786 1.6.272.515.516 1.03.76 1.492.244.488.488.868.705 1.193.352-.515.705-1.193 1.112-1.98.406-.786.786-1.573 1.139-2.359.352-.786.678-1.464.949-2.061.271-.597.406-.976.488-1.112.081-.19.19-.352.325-.542.163-.19.407-.271.787-.271.406 0 .705.108.949.325.217.217.325.488.325.814 0 .081 0 .162-.027.19-.027.027-.027.108-.054.19-.054.135-.163.406-.325.786-.163.38-.353.813-.57 1.329-.217.515-.488 1.057-.759 1.627-.271.596-.57 1.166-.868 1.762-.298.57-.597 1.14-.895 1.655-.298.515-.569.976-.841 1.328a3.891 3.891 0 01-.515.624v5.614c0 .352-.108.65-.352.895-.217.216-.516.325-.895.325-.353 0-.651-.108-.895-.325a1.225 1.225 0 01-.353-.895v-5.641h.054z" fill="#000"/></svg>