<svg width="92" height="97" viewBox="0 0 92 97" fill="none" xmlns="http://www.w3.org/2000/svg">
<path d="M49.8 0C77.1 0 91.5 8.4 91.5 29.3C91.5 45 80.2 60.3 56.7 60.3C50.8 60.3 46.8 59.6 45.1 59.1V54.3C56.2 51.4 60 48.9 60 30.1C60 12.3 57.5 6.3 47.8 6.3C42.2 6.3 41.2 7.8 41.2 14.1L41.1 79.1C41.2 87.9 41.4 88.3 52.5 90.1V97H0V90.1C9.8 88.2 10.1 87.8 10.1 79.1V17.9C10.1 9.3 9.6 8.7 0 6.9V0H49.8ZM16.7 49.9C14.3 49.9 13.4 51.5 13.4 54.6V60.3H13.9L14 59.8C14.1 59.3 14.2 59.1 15.3 59.1H22.4C23.5 59.1 23.6 59.3 23.7 59.8L23.8 60.3H24.4V54.3H23.8L23.7 54.9C23.5 55.5 23.5 55.6 22.4 55.6H14.3C14.2 55.5 14.1 55.2 14.1 54.9C14.1 53.8 14.6 53.5 16.8 53.5C18.8 53.5 19.2 53.9 19.3 55.2H19.8C19.9 55 20.1 54.5 20.1 53.9C20.1 51.2 18.4 49.9 16.7 49.9ZM24 39.5H23.6L23.4 39.9C23.2 40.5 23.1 40.5 22.3 40.5H16L15.8 40.7L16.2 44.6H16.6L16.9 44.1C17.2 43.6 17.3 43.5 18 43.5H22.7C22.7 43.8 22.9 44.2 22.9 44.7C22.9 45.3 22.6 45.6 21.6 45.6H16L15.8 45.8L16.2 49.7H16.6L16.9 49.2C17.3 48.7 17.3 48.6 18 48.6H22.4C23.8 48.6 24.5 47.8 24.5 46.6C24.5 45.3 23.9 44.4 23.3 43.4H24.4L24.5 43.2L24 39.5ZM13.7 42.8C13.1 42.8 12.6 43.2 12.6 43.8C12.6 44.1 12.7 44.4 13 44.7L14.9 46.6L15.2 46.5L14.7 43.6C14.6 43.1 14.1 42.8 13.7 42.8ZM19.7 29.9C16.9 29.9 15.8 31.5 15.8 33C15.8 34.2 16.4 35 17 35.7H14.5C13.4 35.7 12.6 35.6 12.6 35.6L12.5 35.8L12.8 39.8H13.2L13.5 39.2C13.8 38.8 13.9 38.7 14.7 38.7H23.5C24.2 37.8 24.5 36.5 24.5 34.8C24.5 32 23.2 29.9 19.7 29.9ZM20.4 33.1C23.4 33.1 23.8 33.6 23.8 34.6C23.8 35.1 23.6 35.5 23.3 35.7H17.6C17.6 35.5 17.5 35.2 17.5 34.7C17.5 33.6 18.1 33.1 20.4 33.1ZM24.4 24.8H23.8V25C23.6 25.7 23.6 25.7 22.8 25.7H14.5C13.4 25.7 12.6 25.7 12.6 25.7L12.5 25.9L12.8 29.9H13.2L13.5 29.3C13.8 28.8 13.9 28.8 14.7 28.8H22.8C23.5 28.8 23.6 28.8 23.8 29.5V29.8H24.4V24.8ZM24.4 19.6H23.8V19.9C23.6 20.5 23.6 20.6 22.8 20.6H17.9C17.2 20.6 16.7 20.6 16 20.5L15.8 20.7L16.2 24.7H16.6L17 24.2C17.3 23.7 17.4 23.6 18.1 23.6H22.8C23.5 23.6 23.6 23.7 23.8 24.3V24.5H24.4V19.6ZM13.9 20.5C13 20.5 12.4 21.3 12.4 22.2C12.4 23.1 13 23.8 13.9 23.8C14.8 23.8 15.4 23.1 15.4 22.2C15.4 21.3 14.8 20.5 13.9 20.5ZM17.4 11.8C16.3 11.8 15.8 12.9 15.8 14.5C15.8 16.9 16.9 19.5 20.2 19.5C22.9 19.5 24.5 18 24.5 15.4C24.5 13.5 23.6 12.3 23 11.9H22.4C22.7 12.5 23 13.1 23 14.1C23 15.9 21.7 16.5 19.4 16.5C16.9 16.5 16.5 15.6 16.5 14.9C16.5 14.4 16.6 14.4 17.2 14.3C17.9 14.3 18.6 14 18.6 13C18.6 12.3 18.1 11.8 17.4 11.8ZM20.1 2.6C17.2 2.6 15.8 4.8 15.8 7.1C15.8 9.3 17 11.6 20.2 11.6C23.2 11.6 24.5 9.5 24.5 7.1C24.5 4.9 23.3 2.6 20.1 2.6ZM20.3 5.8C23.6 5.8 23.8 6.4 23.8 7.1C23.8 8 23.4 8.4 19.9 8.4C17.1 8.4 16.5 8 16.5 7.2C16.5 6.3 16.9 5.8 20.3 5.8Z" fill="#D20911"/>
</svg>
