<svg width="92" height="97" fill="none" xmlns="http://www.w3.org/2000/svg"><path d="M49.8 0c27.3 0 41.7 8.4 41.7 29.3 0 15.7-11.3 31-34.8 31-5.9 0-9.9-.7-11.6-1.2v-4.8C56.2 51.4 60 48.9 60 30.1c0-17.8-2.5-23.8-12.2-23.8-5.6 0-6.6 1.5-6.6 7.8l-.1 65c.1 8.8.3 9.2 11.4 11V97H0v-6.9c9.8-1.9 10.1-2.3 10.1-11V17.9c0-8.6-.5-9.2-10.1-11V0h49.8zM16.7 49.9c-2.4 0-3.3 1.6-3.3 4.7v5.7h.5l.1-.5c.1-.5.2-.7 1.3-.7h7.1c1.1 0 1.2.2 1.3.7l.1.5h.6v-6h-.6l-.1.6c-.2.6-.2.7-1.3.7h-8.1c-.1-.1-.2-.4-.2-.7 0-1.1.5-1.4 2.7-1.4 2 0 2.4.4 2.5 1.7h.5c.1-.2.3-.7.3-1.3 0-2.7-1.7-4-3.4-4zM24 39.5h-.4l-.2.4c-.2.6-.3.6-1.1.6H16l-.2.2.4 3.9h.4l.3-.5c.3-.5.4-.6 1.1-.6h4.7c0 .3.2.7.2 1.2 0 .6-.3.9-1.3.9H16l-.2.2.4 3.9h.4l.3-.5c.4-.5.4-.6 1.1-.6h4.4c1.4 0 2.1-.8 2.1-2 0-1.3-.6-2.2-1.2-3.2h1.1l.1-.2-.5-3.7zm-10.3 3.3c-.6 0-1.1.4-1.1 1 0 .3.1.6.4.9l1.9 1.9.3-.1-.5-2.9c-.1-.5-.6-.8-1-.8zm6-12.9c-2.8 0-3.9 1.6-3.9 3.1 0 1.2.6 2 1.2 2.7h-2.5c-1.1 0-1.9-.1-1.9-.1l-.1.2.3 4h.4l.3-.6c.3-.4.4-.5 1.2-.5h8.8c.7-.9 1-2.2 1-3.9 0-2.8-1.3-4.9-4.8-4.9zm.7 3.2c3 0 3.4.5 3.4 1.5 0 .5-.2.9-.5 1.1h-5.7c0-.2-.1-.5-.1-1 0-1.1.6-1.6 2.9-1.6zm4-8.3h-.6v.2c-.2.7-.2.7-1 .7H12.6l-.1.2.3 4h.4l.3-.6c.3-.5.4-.5 1.2-.5h8.1c.7 0 .8 0 1 .7v.3h.6v-5zm0-5.2h-.6v.3c-.2.6-.2.7-1 .7h-4.9c-.7 0-1.2 0-1.9-.1l-.2.2.4 4h.4l.4-.5c.3-.5.4-.6 1.1-.6h4.7c.7 0 .8.1 1 .7v.2h.6v-4.9zm-10.5.9c-.9 0-1.5.8-1.5 1.7 0 .9.6 1.6 1.5 1.6s1.5-.7 1.5-1.6c0-.9-.6-1.7-1.5-1.7zm3.5-8.7c-1.1 0-1.6 1.1-1.6 2.7 0 2.4 1.1 5 4.4 5 2.7 0 4.3-1.5 4.3-4.1 0-1.9-.9-3.1-1.5-3.5h-.6c.3.6.6 1.2.6 2.2 0 1.8-1.3 2.4-3.6 2.4-2.5 0-2.9-.9-2.9-1.6 0-.5.1-.5.7-.6.7 0 1.4-.3 1.4-1.3 0-.7-.5-1.2-1.2-1.2zm2.7-9.2c-2.9 0-4.3 2.2-4.3 4.5 0 2.2 1.2 4.5 4.4 4.5 3 0 4.3-2.1 4.3-4.5 0-2.2-1.2-4.5-4.4-4.5zm.2 3.2c3.3 0 3.5.6 3.5 1.3 0 .9-.4 1.3-3.9 1.3-2.8 0-3.4-.4-3.4-1.2 0-.9.4-1.4 3.8-1.4z" fill="#D20911"/></svg>