<svg width="342" height="9" viewBox="0 0 342 9" fill="none" xmlns="http://www.w3.org/2000/svg">
<path d="M169.831 8.45562C174.128 8.35562 179.724 7.95562 183.922 8.05562C184.821 7.65562 186.22 7.65562 187.519 7.55562L187.619 8.05562L188.718 7.85562C189.218 8.05562 187.819 7.95562 188.618 8.15562L189.018 7.85562C189.118 8.05562 191.916 7.95562 190.017 8.35562H194.414C195.414 8.35562 195.014 7.95562 196.013 8.05562C196.213 8.15562 195.613 8.15562 195.713 8.35562C198.911 8.75562 199.411 7.35562 202.409 7.55562L202.109 7.65562C202.608 7.55562 203.608 7.55562 203.608 7.45562C203.208 6.95562 203.108 7.75562 202.109 7.45562C202.209 7.05562 203.208 7.25562 203.208 6.85562C203.908 7.05562 204.307 6.75562 204.907 6.75562C205.906 7.05562 207.505 6.85562 208.205 7.15562C208.704 7.05562 209.304 6.55562 210.403 6.55562C211.202 6.85562 210.203 6.85562 211.302 7.05562L211.502 6.75562C212.402 6.75562 212.202 6.85562 212.202 6.95562C213.101 6.95562 213.001 6.65562 214.2 6.75562L213.901 7.05562C214.8 6.95562 215.1 6.95562 216.399 7.05562C216.399 7.15562 215.899 7.15562 215.499 7.15562C216.199 7.55562 216.599 6.95562 216.998 7.05562C216.898 6.95562 216.099 6.85562 216.499 6.65562C217.098 6.65562 217.798 6.35562 218.198 6.65562L217.498 6.85562C218.797 6.65562 218.198 6.55562 219.597 6.65562C219.497 6.65562 219.597 6.75562 219.497 6.75562C220.396 6.45562 221.595 6.75562 222.994 6.75562L222.794 6.85562C223.294 6.75562 223.594 6.55562 223.894 6.55562C223.094 6.45562 223.294 6.35562 223.294 6.05562C224.293 6.45562 224.893 5.55562 226.492 5.85562C226.492 5.95562 226.092 6.15562 225.592 6.05562C224.993 6.45562 224.993 6.85562 223.894 7.05562C224.493 6.95562 225.293 6.85562 225.093 7.05562L225.293 6.65562C225.692 6.65562 225.992 6.65562 226.292 6.65562C226.492 6.35562 225.493 6.25562 226.392 6.05562C227.391 5.95562 226.892 6.45562 227.091 6.25562C228.49 6.05562 227.691 5.85562 228.99 5.95562C228.89 5.95562 228.59 6.05562 228.49 6.05562C229.39 6.25562 230.789 5.95562 231.089 6.45562C230.989 6.55562 230.889 6.65562 230.589 6.65562V6.55562C229.59 6.85562 231.488 6.45562 231.089 6.85562C230.989 6.55562 232.388 6.65562 232.987 6.65562L232.787 6.45562C234.786 5.55562 232.687 7.05562 234.686 6.95562C235.985 6.75562 234.186 6.85562 234.986 6.65562C235.785 6.75562 236.185 6.95562 237.384 6.85562C237.684 6.95562 238.483 7.15562 238.483 7.45562C239.283 7.35562 240.782 7.55562 241.182 7.25562C239.882 6.95562 239.882 7.55562 238.383 7.15562L238.783 6.85562C239.783 6.85562 241.182 6.75562 241.881 6.85562C241.781 6.75562 241.681 6.75562 241.781 6.65562C243.28 6.55562 243.68 6.25562 245.179 6.35562C245.379 6.65562 244.479 6.55562 243.88 6.65562C244.779 6.85562 244.879 6.65562 246.278 6.75562C246.378 7.05562 245.279 6.75562 245.179 6.95562L246.778 6.85562C246.778 6.85562 246.778 6.85562 246.778 6.95562C246.977 6.55562 247.977 6.95562 248.976 6.85562C251.274 6.85562 251.674 6.25562 252.973 5.95562C253.273 6.05562 253.373 6.15562 253.273 6.25562C252.674 6.05562 252.773 6.25562 252.574 6.35562C253.373 6.35562 254.272 6.75562 253.873 6.95562C255.072 6.85562 253.473 6.75562 254.172 6.55562H255.871C255.671 6.35562 255.072 6.25562 255.971 6.15562C256.671 6.05562 257.07 6.15562 258.07 6.15562C257.97 6.25562 258.37 6.45562 257.67 6.45562C258.17 6.55562 258.869 6.55562 259.169 6.35562C258.07 6.15562 260.868 6.15562 260.168 5.85562L261.268 6.05562C261.068 6.05562 260.968 6.15562 260.668 6.15562C260.968 6.45562 261.567 6.05562 261.867 6.05562C262.267 6.15562 263.166 6.15562 263.266 6.25562C263.566 6.15562 264.465 6.25562 264.565 6.45562C265.065 6.35562 264.565 6.25562 264.765 6.15562H266.464C266.564 6.35562 266.664 6.85562 266.464 6.95562C267.063 6.75562 266.664 6.45562 267.663 6.45562C267.063 6.85562 268.962 6.75562 268.163 7.15562C268.762 7.45562 270.261 7.45562 271.161 7.35562C271.66 7.05562 270.261 7.15562 270.261 6.85562C272.759 6.75562 272.859 5.95562 274.658 6.05562L274.159 5.95562C275.258 5.75562 275.158 5.85562 275.857 5.55562C275.558 5.95562 277.156 6.55562 278.955 6.45562C279.155 6.25562 277.956 6.15562 278.256 5.85562L279.455 5.75562C279.555 5.75562 279.455 5.85562 279.255 5.85562C280.354 5.75562 281.353 6.35562 281.653 5.85562L282.753 6.35562L282.353 6.15562C282.553 5.95562 283.752 5.95562 283.952 5.85562C285.251 5.65562 285.651 5.85562 286.35 6.05562C286.15 5.95562 285.551 5.55562 286.55 5.55562C286.55 6.15562 288.648 5.75562 288.648 6.05562C289.048 6.05562 289.748 6.25562 289.848 5.95562L289.748 6.35562C289.848 5.85562 291.347 5.85562 292.446 5.75562C292.146 6.45562 293.645 5.65562 294.145 6.35562C294.344 5.85562 296.143 6.15562 296.343 5.75562C297.242 5.75562 297.142 6.15562 297.342 6.35562L297.742 6.15562C298.142 6.35562 299.841 6.45562 300.74 6.55562L301.639 6.15562L301.939 6.35562C302.039 6.25562 302.839 6.15562 302.339 6.05562H302.839C302.839 5.65562 303.538 5.95562 304.437 5.75562C304.637 5.85562 304.637 5.95562 304.437 5.95562C304.937 5.95562 304.737 6.15562 304.937 6.35562C304.637 6.25562 306.636 5.55562 305.337 5.35562C305.237 5.15562 306.036 5.05562 306.436 5.15562L306.736 5.55562L307.335 5.15562C308.035 5.05562 308.435 5.35562 309.034 5.35562C308.435 5.35562 307.635 6.15562 309.234 6.15562C308.435 6.25562 308.035 6.45562 307.535 6.55562C307.835 6.55562 308.035 6.65562 307.535 6.75562C308.734 6.65562 307.935 6.55562 309.134 6.45562C309.034 6.85562 309.434 6.95562 310.533 7.05562L309.734 6.65562C309.734 6.65562 309.834 6.55562 309.934 6.55562C309.634 6.55562 309.534 6.45562 309.434 6.35562C309.634 6.35562 310.833 5.95562 311.033 6.15562C309.834 5.55562 313.231 5.75562 312.432 5.35562C312.532 5.25562 313.431 5.25562 313.531 5.45562C312.532 5.75562 314.33 5.85562 314.131 6.15562C314.53 6.05562 313.331 5.85562 313.831 5.75562C314.43 5.75562 314.93 5.95562 315.23 6.05562H315.03L315.929 6.25562C316.129 6.05562 315.03 5.95562 315.929 5.85562C316.129 5.95562 317.029 5.85562 317.029 5.95562C316.629 6.15562 316.929 6.55562 316.129 6.55562C316.729 6.55562 318.727 6.45562 317.928 6.15562H318.627C318.128 5.95562 316.829 5.75562 318.328 5.65562V5.75562L319.327 5.45562L319.727 5.65562C319.727 5.55562 319.827 5.45562 320.226 5.45562C320.326 5.55562 320.726 5.65562 320.626 5.75562C321.725 5.75562 321.625 5.55562 321.825 5.45562C322.425 5.45562 322.625 5.55562 322.425 5.75562C323.224 5.75562 324.723 5.75562 325.323 5.95562C326.422 5.75562 325.123 5.85562 325.723 5.65562C326.722 6.25562 329.42 5.85562 331.319 5.85562C330.819 5.25562 331.818 5.75562 332.118 5.25562C331.718 5.45562 333.917 5.65562 332.218 5.85562L333.217 5.75562C333.917 6.05562 331.618 5.95562 332.618 6.35562C333.717 6.35562 334.416 5.75562 335.716 5.95562C335.316 6.35562 336.715 5.85562 336.415 6.25562C336.115 6.35562 335.815 6.35562 335.416 6.35562L335.616 6.45562C338.014 6.55562 336.315 5.95562 337.614 5.75562C339.113 5.75562 338.813 6.05562 338.913 6.25562C339.113 6.35562 339.913 6.25562 340.312 6.15562C339.413 6.35562 338.613 5.95562 339.013 5.65562C339.713 6.05562 341.212 5.65562 341.611 5.55562C339.513 5.05562 340.112 5.55562 338.214 5.05562C337.914 5.15562 338.014 5.55562 336.815 5.45562C337.514 5.25562 336.715 5.25562 336.515 5.15562C336.715 5.35562 335.716 5.25562 335.316 5.35562C335.016 5.15562 336.015 4.85562 334.816 4.75562L334.716 5.25562C334.217 5.15562 334.916 4.85562 333.917 4.95562C334.416 4.65562 333.717 4.55562 335.116 4.45562C333.517 3.95562 332.618 4.65562 331.419 4.85562C331.518 4.85562 331.518 4.75562 331.718 4.75562C331.419 4.85562 330.919 4.85562 330.619 4.95562C329.82 4.85562 331.319 4.75562 331.019 4.55562H329.72C329.32 4.65562 329.02 4.65562 328.92 4.55562C329.32 4.35562 329.52 4.15562 329.72 4.05562L328.321 4.45562C328.521 4.25562 327.122 4.15562 328.121 4.05562L326.022 4.15562L325.723 3.65562C325.223 3.75562 325.223 3.75562 325.822 3.85562C325.123 3.75562 322.625 4.45562 323.024 3.75562C321.326 4.05562 320.726 3.85562 318.827 4.05562C320.326 3.75562 317.029 3.65562 318.727 3.45562C317.828 3.25562 317.628 3.65562 316.829 3.75562C316.129 3.55562 316.429 3.25562 317.228 3.15562L316.329 3.35562V3.25562L315.53 3.45562C314.73 3.25562 315.33 3.05562 314.53 3.05562L314.33 3.35562L313.731 3.15562C313.931 3.25562 313.431 3.35562 312.832 3.35562V3.25562L312.132 3.35562C312.832 3.15562 311.432 3.25562 311.832 3.05562C311.233 3.05562 311.133 3.05562 310.033 3.05562L310.233 3.25562C308.734 3.45562 310.133 2.95562 308.934 2.95562L309.034 3.25562C307.235 2.85562 306.036 3.45562 304.737 3.25562C305.437 3.15562 305.337 2.85562 305.237 2.95562C304.138 3.05562 302.339 2.95562 301.14 3.25562C300.74 2.85562 300.64 2.75562 299.441 2.65562C298.542 2.65562 298.442 2.75562 298.142 2.95562C297.342 2.85562 295.743 3.05562 295.743 2.75562C295.544 2.95562 294.944 2.75562 294.544 2.85562L294.444 2.75562L294.544 3.05562C293.045 2.45562 292.046 3.35562 290.547 2.85562L290.847 2.75562L290.247 2.85562C290.147 2.75562 290.447 2.65562 290.447 2.55562H287.549L288.149 2.75562C287.549 2.75562 287.149 3.05562 286.45 2.85562C287.649 2.45562 285.451 2.85562 285.251 2.55562L285.85 2.45562C284.951 2.45562 284.951 2.45562 285.051 2.75562C283.952 2.85562 284.251 2.25562 283.252 2.55562H283.952C284.152 2.65562 283.652 2.95562 283.152 2.85562C283.052 2.85562 282.653 2.65562 283.052 2.65562C282.153 2.75562 280.854 2.65562 280.454 2.75562C279.954 2.65562 280.154 2.45562 280.354 2.45562C278.456 2.65562 279.555 2.45562 277.656 2.65562V2.55562L277.056 2.75562L276.157 2.45562L276.457 2.65562C275.857 2.65562 275.458 2.75562 274.758 2.65562L275.058 2.45562C273.359 2.55562 273.059 2.05562 271.36 2.35562C271.261 2.35562 271.46 2.25562 271.66 2.25562C270.161 2.55562 270.461 1.85562 268.962 2.25562C269.062 2.15562 268.862 2.05562 268.962 2.05562L268.263 2.15562L268.363 1.85562L267.763 2.25562L267.363 1.95562L267.063 2.05562C266.364 1.45562 265.265 1.95562 264.265 1.45562L264.465 1.85562C261.867 2.65562 258.569 1.45562 255.472 1.75562L255.572 1.45562L254.272 1.75562C253.573 1.55562 254.672 1.55562 254.472 1.35562C253.073 1.55562 253.873 1.75562 252.274 1.85562C251.474 1.65562 252.574 1.65562 252.973 1.55562C251.474 1.65562 249.276 1.85562 248.177 1.65562C248.177 1.65562 248.077 1.75562 248.177 1.75562C247.177 1.85562 245.878 1.75562 244.779 1.75562C244.779 1.65562 245.079 1.55562 245.379 1.55562C244.979 1.55562 244.479 1.45562 244.08 1.55562L244.479 1.35562C243.68 1.25562 241.981 1.55562 241.781 1.25562C241.881 1.35562 241.881 1.55562 241.082 1.55562C240.682 1.15562 239.083 1.75562 237.884 1.45562C237.984 1.35562 238.883 1.35562 238.683 1.35562C238.084 1.25562 237.584 1.45562 237.084 1.55562L237.284 1.35562L234.586 1.55562C234.186 1.15562 231.988 1.65562 232.188 1.25562C231.189 1.25562 232.987 1.45562 231.788 1.45562C231.488 1.25562 230.689 1.55562 230.689 1.25562H230.789H229.889L230.389 0.955621C229.69 1.05562 229.09 1.25562 229.09 1.55562C228.39 1.35562 227.391 1.55562 227.091 1.25562L227.391 1.15562C225.393 1.25562 224.093 0.355621 222.595 0.855621C222.495 0.855621 222.495 0.755621 222.694 0.755621H221.495L221.795 0.555621L219.796 0.855621V0.755621C218.497 0.655621 216.399 0.755621 214.7 0.855621L215 0.755621C213.101 0.955621 213.201 0.655621 211.802 0.755621L211.902 0.655621H210.703L211.003 0.555621C210.103 0.855621 208.404 0.155621 209.004 0.455621C208.504 0.555621 207.605 0.755621 207.405 0.955621C206.106 0.955621 207.105 0.755621 206.206 0.655621C205.207 0.655621 205.107 0.855621 203.708 0.755621V0.655621C203.108 0.655621 202.708 0.755621 201.809 0.855621L202.109 0.755621C200.71 1.05562 200.41 0.355621 199.311 0.955621C198.711 0.855621 197.612 0.955621 197.612 0.655621C195.913 0.855621 194.514 0.955621 192.815 1.05562C192.516 0.555621 192.416 1.05562 191.416 0.855621L191.516 1.15562C189.018 1.15562 186.22 0.555621 183.522 0.655621L183.422 0.355621L182.922 0.655621C180.024 0.555621 176.227 0.455621 173.929 0.455621C173.129 0.555621 172.03 0.855621 170.831 0.755621H170.931C168.832 0.855621 166.634 1.05562 164.335 0.855621C164.435 0.755621 164.235 0.655621 164.535 0.555621C164.035 0.855621 163.236 0.555621 162.736 0.555621L163.336 0.755621C162.636 0.955621 161.737 0.755621 161.437 0.555621L160.438 0.855621C160.338 0.855621 160.238 0.755621 160.238 0.755621L160.038 0.855621L159.539 0.555621C159.239 0.655621 157.94 0.755621 157.54 1.05562C157.44 0.955621 156.441 0.855621 157.24 0.755621H152.843L153.443 0.855621C153.543 1.15562 152.344 1.25562 151.844 1.15562C152.643 0.955621 151.944 0.755621 151.544 0.655621C151.044 0.755621 151.944 0.855621 151.744 1.05562C151.144 1.25562 149.745 1.35562 149.446 1.15562L149.845 1.05562C148.946 1.15562 148.546 0.755621 147.747 0.755621C146.947 0.955621 146.448 0.755621 146.548 1.25562C145.448 1.35562 146.148 0.955621 145.748 0.955621C145.249 1.15562 143.65 1.05562 143.45 0.855621C142.85 1.45562 140.452 0.655621 140.252 1.15562L139.353 0.855621C139.353 0.955621 139.153 1.35562 138.353 1.35562C137.654 1.15562 137.854 0.955621 137.654 0.755621L137.154 1.25562C133.157 0.655621 127.761 1.05562 123.364 0.555621C121.365 0.655621 118.867 0.955621 116.569 0.855621L116.868 0.755621L114.57 0.655621L116.269 0.855621C115.769 0.955621 115.369 1.05562 114.87 1.05562C112.371 0.855621 108.974 0.555621 105.876 0.855621C103.877 1.45562 104.577 0.355621 102.578 0.755621C102.778 0.655621 102.778 0.655621 102.978 0.555621C100.88 0.755621 99.7803 0.855621 97.6817 1.25562C97.8816 0.655621 96.3826 1.25562 96.4826 0.955621L96.1828 1.05562C95.6831 0.855621 94.6838 0.855621 94.7838 0.655621L93.8844 0.955621V0.655621C92.6852 0.655621 90.087 0.855621 89.3875 0.355621C86.3896 0.755621 81.6929 0.655621 77.8956 0.555621C77.3959 0.755621 76.2967 0.755621 75.3973 0.755621L74.4979 0.455621C73.5986 0.555621 72.6992 0.955621 71.8997 0.755621C71.8997 0.755621 71.8997 0.655621 71.9997 0.655621C71.1003 0.755621 70.3009 0.555621 69.4015 0.855621C68.4022 0.855621 67.5028 0.655621 67.8026 0.355621C67.7027 0.855621 65.7041 0.255621 65.7041 0.255621C65.7041 0.255621 15.739 -0.944378 3.54747 1.85562C3.04782 2.05562 1.94859 2.25562 2.34831 2.55562C1.54887 2.65562 1.14915 2.15562 0.949289 2.45562C2.14845 2.65562 0.549568 3.05562 1.74873 3.45562H0.949289C0.749428 3.65562 1.94859 3.25562 1.74873 3.55562L1.94859 3.05562C2.6481 3.15562 2.94789 3.25562 3.14775 3.45562C3.74733 3.25562 4.04713 2.65562 5.44615 2.95562H5.04643C6.14566 2.95562 5.74594 3.25562 5.9458 3.35562H5.74594L6.64531 3.55562C6.04573 3.35562 4.84657 3.75562 5.44615 3.75562C6.74524 3.85562 5.14636 3.65562 6.04573 3.55562C6.64531 3.55562 6.44545 3.75562 6.44545 3.95562H7.54468C7.54468 4.15562 6.84517 3.95562 7.24489 4.15562L8.64392 3.95562C8.94371 4.45562 10.2428 3.65562 10.8424 4.15562C9.84308 4.25562 10.9423 4.35562 10.7425 4.55562H13.2407C13.4406 4.65562 12.6411 4.75562 12.9409 4.65562C13.4406 4.85562 13.7404 4.55562 13.9402 4.55562C14.1401 4.75562 15.739 4.55562 15.739 4.95562C17.4378 5.05562 16.4385 4.35562 17.9374 4.65562C18.1373 4.85562 16.7383 4.75562 17.4378 4.95562L19.0367 4.85562C18.9367 4.95562 18.7369 5.25562 18.1373 5.15562C22.4343 5.45562 24.8326 6.65562 28.8298 6.35562C29.4294 6.65562 28.4301 6.55562 28.0304 6.65562C30.9284 6.35562 32.0276 7.25562 34.5258 7.15562V6.95562C37.9235 7.65562 42.0206 7.25562 45.9179 7.45562L45.4182 7.25562C45.9179 7.05562 46.8173 7.05562 47.4168 6.95562C47.5168 7.05562 46.9172 7.45562 48.1164 7.35562C47.9165 7.25562 47.4168 7.15562 47.5168 7.05562C50.8145 7.65562 57.8096 7.45562 63.3057 7.75562C70.6007 7.65562 78.5951 8.05562 85.89 7.95562C84.7907 7.95562 85.2904 7.45562 86.0898 7.55562C88.3882 8.45562 89.9871 7.35562 92.3854 8.05562C96.5825 7.75562 100.38 8.55562 104.277 7.85562L104.377 8.15562C104.977 8.25562 105.077 8.05562 105.776 8.05562V8.15562C107.275 8.25562 108.974 7.95562 109.773 8.15562L109.873 7.85562C110.773 7.85562 110.273 8.05562 111.172 7.95562V8.05562L112.172 7.75562C112.072 8.25562 114.57 7.75562 115.269 8.05562C116.369 7.95562 118.467 7.75562 120.166 7.85562C120.466 8.15562 122.564 8.15562 123.863 8.25562C126.462 8.15562 130.159 8.15562 133.357 8.15562L133.257 7.85562H134.156C134.156 7.95562 134.256 7.95562 134.156 7.95562C134.856 8.35562 136.155 7.85562 136.854 8.05562C136.455 7.75562 136.255 8.05562 135.755 7.95562C135.056 7.75562 135.755 7.45562 136.655 7.65562V7.75562L137.254 7.55562C137.354 7.85562 137.954 7.95562 137.954 8.15562C140.752 8.05562 142.65 7.65562 145.648 7.75562C145.348 8.05562 147.747 7.65562 147.147 8.15562C148.846 7.95562 146.847 7.75562 147.647 7.35562C148.147 7.35562 148.646 7.25562 148.746 7.45562C148.546 7.55562 149.146 7.75562 148.746 7.75562H149.945C150.045 7.75562 149.845 7.85562 149.645 7.85562C152.044 7.55562 153.843 8.15562 156.041 7.85562C156.241 7.65562 155.242 7.75562 155.341 7.65562C157.44 7.25562 157.24 7.95562 159.239 7.75562L158.739 8.05562C159.339 7.85562 159.638 7.65562 160.738 7.85562C160.938 8.15562 159.838 8.05562 159.339 8.25562C160.038 8.25562 161.937 8.15562 161.337 7.95562C162.237 7.85562 162.536 8.15562 163.036 8.15562C163.036 8.05562 162.237 7.95562 162.736 7.85562C163.935 8.05562 165.734 8.05562 167.233 8.05562C167.233 8.15562 167.333 8.25562 167.233 8.25562C168.332 7.85562 168.232 8.55562 169.831 8.45562Z" fill="#D12136"/>
</svg>
