<svg width="342" height="9" fill="none" xmlns="http://www.w3.org/2000/svg"><path d="M169.831 8.456c4.297-.1 9.893-.5 14.091-.4.899-.4 2.298-.4 3.597-.5l.1.5 1.099-.2c.5.2-.899.1-.1.3l.4-.3c.1.2 2.898.1.999.5h4.397c1 0 .6-.4 1.599-.3.2.1-.4.1-.3.3 3.198.4 3.698-1 6.696-.8l-.3.1c.499-.1 1.499-.1 1.499-.2-.4-.5-.5.3-1.499 0 .1-.4 1.099-.2 1.099-.6.7.2 1.099-.1 1.699-.1.999.3 2.598.1 3.298.4.499-.1 1.099-.6 2.198-.6.799.3-.2.3.899.5l.2-.3c.9 0 .7.1.7.2.899 0 .799-.3 1.998-.2l-.299.3c.899-.1 1.199-.1 2.498 0 0 .1-.5.1-.9.1.7.4 1.1-.2 1.499-.1-.1-.1-.899-.2-.499-.4.599 0 1.299-.3 1.699 0l-.7.2c1.299-.2.7-.3 2.099-.2-.1 0 0 .1-.1.1.899-.3 2.098 0 3.497 0l-.2.1c.5-.1.8-.3 1.1-.3-.8-.1-.6-.2-.6-.5.999.4 1.599-.5 3.198-.2 0 .1-.4.3-.9.2-.599.4-.599.8-1.698 1 .599-.1 1.399-.2 1.199 0l.2-.4h.999c.2-.3-.799-.4.1-.6.999-.1.5.4.699.2 1.399-.2.6-.4 1.899-.3-.1 0-.4.1-.5.1.9.2 2.299-.1 2.599.4-.1.1-.2.2-.5.2v-.1c-.999.3.899-.1.5.3-.1-.3 1.299-.2 1.898-.2l-.2-.2c1.999-.9-.1.6 1.899.5 1.299-.2-.5-.1.3-.3.799.1 1.199.3 2.398.2.3.1 1.099.3 1.099.6.8-.1 2.299.1 2.699-.2-1.3-.3-1.3.3-2.799-.1l.4-.3c1 0 2.399-.1 3.098 0-.1-.1-.2-.1-.1-.2 1.499-.1 1.899-.4 3.398-.3.2.3-.7.2-1.299.3.899.2.999 0 2.398.1.1.3-.999 0-1.099.2l1.599-.1v.1c.199-.4 1.199 0 2.198-.1 2.298 0 2.698-.6 3.997-.9.3.1.4.2.3.3-.599-.2-.5 0-.699.1.799 0 1.698.4 1.299.6 1.199-.1-.4-.2.299-.4h1.699c-.2-.2-.799-.3.1-.4.7-.1 1.099 0 2.099 0-.1.1.3.3-.4.3.5.1 1.199.1 1.499-.1-1.099-.2 1.699-.2.999-.5l1.1.2c-.2 0-.3.1-.6.1.3.3.899-.1 1.199-.1.4.1 1.299.1 1.399.2.3-.1 1.199 0 1.299.2.5-.1 0-.2.2-.3h1.699c.1.2.2.7 0 .8.599-.2.2-.5 1.199-.5-.6.4 1.299.3.5.7.599.3 2.098.3 2.998.2.499-.3-.9-.2-.9-.5 2.498-.1 2.598-.9 4.397-.8l-.499-.1c1.099-.2.999-.1 1.698-.4-.299.4 1.299 1 3.098.9.2-.2-.999-.3-.699-.6l1.199-.1c.1 0 0 .1-.2.1 1.099-.1 2.098.5 2.398 0l1.1.5-.4-.2c.2-.2 1.399-.2 1.599-.3 1.299-.2 1.699 0 2.398.2-.2-.1-.799-.5.2-.5 0 .6 2.098.2 2.098.5.4 0 1.1.2 1.2-.1l-.1.4c.1-.5 1.599-.5 2.698-.6-.3.7 1.199-.1 1.699.6.199-.5 1.998-.2 2.198-.6.899 0 .799.4.999.6l.4-.2c.4.2 2.099.3 2.998.4l.899-.4.3.2c.1-.1.9-.2.4-.3h.5c0-.4.699-.1 1.598-.3.2.1.2.2 0 .2.5 0 .3.2.5.4-.3-.1 1.699-.8.4-1-.1-.2.699-.3 1.099-.2l.3.4.599-.4c.7-.1 1.1.2 1.699.2-.599 0-1.399.8.2.8-.799.1-1.199.3-1.699.4.3 0 .5.1 0 .2 1.199-.1.4-.2 1.599-.3-.1.4.3.5 1.399.6l-.799-.4s.1-.1.2-.1c-.3 0-.4-.1-.5-.2.2 0 1.399-.4 1.599-.2-1.199-.6 2.198-.4 1.399-.8.1-.1.999-.1 1.099.1-.999.3.799.4.6.7.399-.1-.8-.3-.3-.4.599 0 1.099.2 1.399.3h-.2l.899.2c.2-.2-.899-.3 0-.4.2.1 1.1 0 1.1.1-.4.2-.1.6-.9.6.6 0 2.598-.1 1.799-.4h.699c-.499-.2-1.798-.4-.299-.5v.1l.999-.3.4.2c0-.1.1-.2.499-.2.1.1.5.2.4.3 1.099 0 .999-.2 1.199-.3.6 0 .8.1.6.3.799 0 2.298 0 2.898.2 1.099-.2-.2-.1.4-.3.999.6 3.697.2 5.596.2-.5-.6.499-.1.799-.6-.4.2 1.799.4.1.6l.999-.1c.7.3-1.599.2-.599.6 1.099 0 1.798-.6 3.098-.4-.4.4.999-.1.699.3-.3.1-.6.1-.999.1l.2.1c2.398.1.699-.5 1.998-.7 1.499 0 1.199.3 1.299.5.2.1 1 0 1.399-.1-.899.2-1.699-.2-1.299-.5.7.4 2.199 0 2.598-.1-2.098-.5-1.499 0-3.397-.5-.3.1-.2.5-1.399.4.699-.2-.1-.2-.3-.3.2.2-.799.1-1.199.2-.3-.2.699-.5-.5-.6l-.1.5c-.499-.1.2-.4-.799-.3.499-.3-.2-.4 1.199-.5-1.599-.5-2.498.2-3.697.4.099 0 .099-.1.299-.1-.299.1-.799.1-1.099.2-.799-.1.7-.2.4-.4h-1.299c-.4.1-.7.1-.8 0 .4-.2.6-.4.8-.5l-1.399.4c.2-.2-1.199-.3-.2-.4l-2.099.1-.299-.5c-.5.1-.5.1.099.2-.699-.1-3.197.6-2.798-.1-1.698.3-2.298.1-4.197.3 1.499-.3-1.798-.4-.1-.6-.899-.2-1.099.2-1.898.3-.7-.2-.4-.5.399-.6l-.899.2v-.1l-.799.2c-.8-.2-.2-.4-1-.4l-.2.3-.599-.2c.2.1-.3.2-.899.2v-.1l-.7.1c.7-.2-.7-.1-.3-.3h-1.799l.2.2c-1.499.2-.1-.3-1.299-.3l.1.3c-1.799-.4-2.998.2-4.297 0 .7-.1.6-.4.5-.3-1.099.1-2.898 0-4.097.3-.4-.4-.5-.5-1.699-.6-.899 0-.999.1-1.299.3-.8-.1-2.399.1-2.399-.2-.199.2-.799 0-1.199.1l-.1-.1.1.3c-1.499-.6-2.498.3-3.997-.2l.3-.1-.6.1c-.1-.1.2-.2.2-.3h-2.898l.6.2c-.6 0-1 .3-1.699.1 1.199-.4-.999 0-1.199-.3l.599-.1c-.899 0-.899 0-.799.3-1.099.1-.8-.5-1.799-.2h.7c.2.1-.3.4-.8.3-.1 0-.499-.2-.1-.2-.899.1-2.198 0-2.598.1-.5-.1-.3-.3-.1-.3-1.898.2-.799 0-2.698.2v-.1l-.6.2-.899-.3.3.2c-.6 0-.999.1-1.699 0l.3-.2c-1.699.1-1.999-.4-3.698-.1-.099 0 .1-.1.3-.1-1.499.3-1.199-.4-2.698 0 .1-.1-.1-.2 0-.2l-.699.1.1-.3-.6.4-.4-.3-.3.1c-.699-.6-1.798-.1-2.798-.6l.2.4c-2.598.8-5.896-.4-8.993-.1l.1-.3-1.3.3c-.699-.2.4-.2.2-.4-1.399.2-.599.4-2.198.5-.8-.2.3-.2.699-.3-1.499.1-3.697.3-4.796.1 0 0-.1.1 0 .1-1 .1-2.299 0-3.398 0 0-.1.3-.2.6-.2-.4 0-.9-.1-1.299 0l.399-.2c-.799-.1-2.498.2-2.698-.1.1.1.1.3-.699.3-.4-.4-1.999.2-3.198-.1.1-.1.999-.1.799-.1-.599-.1-1.099.1-1.599.2l.2-.2-2.698.2c-.4-.4-2.598.1-2.398-.3-.999 0 .799.2-.4.2-.3-.2-1.099.1-1.099-.2h.1-.9l.5-.3c-.699.1-1.299.3-1.299.6-.7-.2-1.699 0-1.999-.3l.3-.1c-1.998.1-3.298-.8-4.796-.3-.1 0-.1-.1.099-.1h-1.199l.3-.2-1.999.3v-.1c-1.299-.1-3.397 0-5.096.1l.3-.1c-1.899.2-1.799-.1-3.198 0l.1-.1h-1.199l.3-.1c-.9.3-2.599-.4-1.999-.1-.5.1-1.399.3-1.599.5-1.299 0-.3-.2-1.199-.3-.999 0-1.099.2-2.498.1v-.1c-.6 0-1 .1-1.899.2l.3-.1c-1.399.3-1.699-.4-2.798.2-.6-.1-1.699 0-1.699-.3-1.699.2-3.098.3-4.797.4-.299-.5-.399 0-1.399-.2l.1.3c-2.498 0-5.296-.6-7.994-.5l-.1-.3-.5.3c-2.898-.1-6.695-.2-8.993-.2-.8.1-1.899.4-3.098.3h.1c-2.099.1-4.297.3-6.596.1.1-.1-.1-.2.2-.3-.5.3-1.299 0-1.799 0l.6.2c-.7.2-1.599 0-1.899-.2l-.999.3c-.1 0-.2-.1-.2-.1l-.2.1-.499-.3c-.3.1-1.599.2-1.999.5-.1-.1-1.099-.2-.3-.3h-4.397l.6.1c.1.3-1.099.4-1.599.3.799-.2.1-.4-.3-.5-.5.1.4.2.2.4-.6.2-1.999.3-2.298.1l.399-.1c-.899.1-1.299-.3-2.098-.3-.8.2-1.299 0-1.199.5-1.1.1-.4-.3-.8-.3-.499.2-2.098.1-2.298-.1-.6.6-2.998-.2-3.198.3l-.899-.3c0 .1-.2.5-1 .5-.699-.2-.499-.4-.699-.6l-.5.5c-3.997-.6-9.393-.2-13.79-.7-1.999.1-4.497.4-6.795.3l.299-.1-2.298-.1 1.699.2c-.5.1-.9.2-1.399.2-2.499-.2-5.896-.5-8.994-.2-1.999.6-1.299-.5-3.298-.1l.4-.2c-2.098.2-3.198.3-5.296.7.2-.6-1.3 0-1.2-.3l-.3.1c-.499-.2-1.498-.2-1.398-.4l-.9.3v-.3c-1.199 0-3.797.2-4.496-.3-2.998.4-7.695.3-11.492.2-.5.2-1.6.2-2.499.2l-.9-.3c-.898.1-1.798.5-2.597.3 0 0 0-.1.1-.1-.9.1-1.7-.1-2.599.2-.999 0-1.898-.2-1.598-.5-.1.5-2.099-.1-2.099-.1s-49.965-1.2-62.157 1.6c-.5.2-1.598.4-1.199.7-.8.1-1.199-.4-1.399-.1 1.2.2-.4.6.8 1h-.8c-.2.2 1-.2.8.1l.2-.5c.7.1.999.2 1.199.4.6-.2.9-.8 2.298-.5h-.4c1.1 0 .7.3.9.4h-.2l.9.2c-.6-.2-1.8.2-1.2.2 1.3.1-.3-.1.6-.2.6 0 .4.2.4.4h1.099c0 .2-.7 0-.3.2l1.399-.2c.3.5 1.599-.3 2.198.2-.999.1.1.2-.1.4h2.499c.2.1-.6.2-.3.1.5.2.8-.1 1-.1.2.2 1.798 0 1.798.4 1.699.1.7-.6 2.198-.3.2.2-1.199.1-.5.3l1.6-.1c-.1.1-.3.4-.9.3 4.297.3 6.696 1.5 10.693 1.2.6.3-.4.2-.8.3 2.898-.3 3.998.6 6.496.5v-.2c3.397.7 7.495.3 11.392.5l-.5-.2c.5-.2 1.4-.2 1.999-.3.1.1-.5.5.7.4-.2-.1-.7-.2-.6-.3 3.297.6 10.293.4 15.789.7 7.295-.1 15.29.3 22.584.2-1.1 0-.6-.5.2-.4 2.298.9 3.897-.2 6.295.5 4.197-.3 7.995.5 11.892-.2l.1.3c.6.1.7-.1 1.399-.1v.1c1.499.1 3.198-.2 3.997 0l.1-.3c.9 0 .4.2 1.299.1v.1l1-.3c-.1.5 2.398 0 3.097.3 1.1-.1 3.198-.3 4.897-.2.3.3 2.398.3 3.697.4 2.599-.1 6.296-.1 9.494-.1l-.1-.3h.899c0 .1.1.1 0 .1.7.4 1.999-.1 2.698.1-.399-.3-.599 0-1.099-.1-.699-.2 0-.5.9-.3v.1l.599-.2c.1.3.7.4.7.6 2.798-.1 4.696-.5 7.694-.4-.3.3 2.099-.1 1.499.4 1.699-.2-.3-.4.5-.8.5 0 .999-.1 1.099.1-.2.1.4.3 0 .3h1.199c.1 0-.1.1-.3.1 2.399-.3 4.198.3 6.396 0 .2-.2-.799-.1-.7-.2 2.099-.4 1.899.3 3.898.1l-.5.3c.6-.2.899-.4 1.999-.2.2.3-.9.2-1.399.4.699 0 2.598-.1 1.998-.3.9-.1 1.199.2 1.699.2 0-.1-.799-.2-.3-.3 1.199.2 2.998.2 4.497.2 0 .1.1.2 0 .2 1.099-.4.999.3 2.598.2z" fill="#D12136"/></svg>