<svg width="176" height="62" fill="none" xmlns="http://www.w3.org/2000/svg"><g clip-path="url(#prefix__clip0)" fill="#00093C" opacity=".4"><path d="M153.418 13H.434a.467.467 0 00-.434.434c0 .26.217.434.434.434h152.984c.26 0 .434-.217.434-.434.043-.217-.174-.434-.434-.434zM153.418 30.533H.434a.435.435 0 000 .868h152.984c.26 0 .434-.217.434-.434.043-.26-.174-.434-.434-.434zM13.15 19.684c0-1.953-.39-3.646-3.776-3.646H2.127c-.304 0-.521.26-.521.52v11.458c0 .304.26.521.52.521h.825c.304 0 .52-.217.52-.52V17.773c0-.043.044-.087.088-.087h4.947c2.17 0 2.691.217 2.691 2.127v.087c-.043 1.822-.564 2.04-2.69 2.04H4.643c-.304 0-.521.26-.521.52v.564c0 .304.26.521.564.521H9.417c3.473 0 3.776-1.823 3.776-3.819-.043 0-.043 0-.043-.043zM103.421 23.806h-.824a.528.528 0 00-.521.521v.651c0 1.476-.651 1.78-3.776 1.78h-2.257c-2.994 0-3.124-1.085-3.124-3.69v-3.254c0-1.866.954-2.257 5.12-2.257h1.086c2.474 0 2.734.608 2.734 2.04v.043c0 .304.26.52.521.52h.824c.304 0 .521-.26.521-.52v-.087c0-2.43-.694-3.645-4.383-3.645h-1.563c-3.862 0-6.77.304-6.77 3.993v4.6c0 2.647 1.562 3.993 4.644 3.993h2.69c3.169 0 5.599-.26 5.599-3.255v-.782c0-.434-.217-.65-.521-.65zM41.186 16.559c0-.304-.26-.521-.52-.521h-.825c-.304 0-.521.26-.521.52v8.203c0 1.91-1.215 1.997-4.774 1.997-4.166 0-4.514-.348-4.514-1.997v-8.289c0-.304-.26-.52-.52-.52h-.825a.501.501 0 00-.52.52v8.246c0 3.645 2.82 3.645 6.422 3.645 4.037 0 6.684-.26 6.684-3.645l-.087-8.16zM90.401 15.995H86.8c-.303 0-.52.26-.52.52v.565c0 .303.26.52.52.52H90.358c.304 0 .52-.26.52-.52v-.565c.044-.26-.173-.52-.477-.52zM85.454 16.515c0-.303-.26-.52-.521-.52h-6.727c-.304 0-.52.26-.52.52v.565c0 .303.26.52.52.52h5.251c.044 0 .087.044.087.087V27.8c0 .304.26.521.521.521h.825c.303 0 .52-.26.52-.52V16.602l.044-.088zM20.485 15.951c-3.602 0-6.423 0-6.423 3.646v8.332c0 .304.26.521.52.521h.825c.304 0 .52-.26.52-.52v-4.688c0-.043.044-.043.088-.043h7.508c.13 0 .217-.087.303-.174a.55.55 0 00.174-.39v-.565a.53.53 0 00-.174-.39.55.55 0 00-.39-.174H15.972h-.044c-.044 0-.044-.043-.044-.087V19.64c0-1.692.348-1.996 4.514-1.996 3.559 0 4.557.087 4.557 1.996v8.333c0 .304.26.52.52.52h.825c.304 0 .521-.26.521-.52v-8.376c.13-3.429-2.3-3.646-6.336-3.646zM73.736 16.602c0-.303-.26-.52-.52-.52h-1.867a.477.477 0 00-.434.26l-.087.174-5.294 9.547-5.339-9.547-.13-.217a.534.534 0 00-.434-.218h-.043l-.13-.043h-1.693a.501.501 0 00-.52.52v11.284c0 .305.26.522.52.522h.738c.303 0 .52-.26.52-.521V18.078l5.556 9.938.043.087c.087.174.26.304.478.304h.737c.217 0 .39-.13.478-.304l5.555-9.982v9.722c0 .304.26.52.52.52h.782c.304 0 .52-.26.52-.52V16.689l.044-.087zM76.86 16.69v-.131c0-.304-.26-.52-.52-.52h-.825c-.303 0-.52.26-.52.52V27.886c0 .304.26.521.52.521h.825c.304 0 .52-.26.52-.52V16.688zM152.42 26.714h-7.943c-.043 0-.086-.043-.086-.086V16.515a.528.528 0 00-.521-.52h-.825c-.304 0-.521.26-.521.564V27.843c0 .303.261.52.521.52H152.463a.501.501 0 00.521-.52v-.608c0-.26-.261-.52-.564-.52zM141.136 26.714h-7.943c-.043 0-.086-.043-.086-.086V16.559a.528.528 0 00-.521-.52h-.825c-.304 0-.521.26-.521.563V27.886c0 .304.261.521.521.521H141.179a.501.501 0 00.521-.52v-.608c-.044-.304-.261-.565-.564-.565zM117.136 16.081h-.825a.501.501 0 00-.521.521v4.644a.093.093 0 01-.087.087h-7.768a.528.528 0 00-.521.52v.565c0 .303.26.52.521.52h7.768c.044 0 .087.044.087.087v4.861c0 .304.261.52.521.52h.825c.303 0 .52-.26.52-.52V16.602c0-.304-.26-.52-.52-.52zM105.982 16.081h-.825a.528.528 0 00-.521.521V27.93c0 .304.261.521.521.521h.781a.501.501 0 00.521-.52V16.601c.087-.304-.173-.52-.477-.52zM52.21 26.714h-7.942a.093.093 0 01-.087-.086V16.515c0-.303-.26-.52-.52-.52h-.825c-.304 0-.521.26-.521.564V27.843c0 .303.26.52.52.52h9.375c.304 0 .52-.216.52-.52v-.608c.044-.26-.216-.52-.52-.52zM129.07 21.246H122.17a.528.528 0 00-.521.52v.521c0 .304.261.521.521.521H129.027c.304 0 .521-.26.521-.52v-.521c.043-.304-.217-.521-.478-.521z"/><path d="M130.025 17.123v-.608c0-.303-.26-.52-.52-.52h-10.199a.528.528 0 00-.521.52V27.8c0 .304.26.521.521.521h1.041v-.217.217h9.201c.304 0 .521-.26.521-.52v-.565a.528.528 0 00-.521-.52h-7.812v.216-.217h-.868c-.043 0-.087-.043-.087-.086V17.688c0-.044.044-.088.087-.088h8.68c.26.044.477-.173.477-.477zM154.893 27.409c.217 0 .521.043.521-.26 0-.218-.217-.261-.39-.261h-.434v.52h.303zm.695.824h-.217l-.434-.65h-.347v.65h-.174v-1.475h.651c.13 0 .26 0 .347.086.13.044.174.174.174.304 0 .304-.217.39-.478.39l.478.695zm.477-.738a1.12 1.12 0 00-1.128-1.128c-.651 0-1.129.52-1.129 1.128 0 .651.521 1.172 1.129 1.172a1.186 1.186 0 001.128-1.172zm-2.43 0c0-.694.564-1.302 1.302-1.302.738 0 1.302.565 1.302 1.302 0 .738-.564 1.302-1.302 1.302a1.306 1.306 0 01-1.302-1.302zM83.544 33.528h.651v2.778h2.43v.564h-3.08v-3.342zM88.362 33.528h.65v3.385h-.65v-3.385zM90.705 33.528h.695l1.258 2.69 1.302-2.69h.694l-1.649 3.385h-.694l-1.606-3.385zM96.39 33.528h3.038v.564h-2.387v.782h2.04v.564h-2.04v.911h2.43v.564h-3.08v-3.385zM103.725 33.528h2.04c.781 0 1.302.217 1.302.868 0 .434-.217.564-.391.694.217.087.521.391.521.825 0 .651-.521.998-1.346.998h-2.17v-3.385h.044zm2.083 1.346c.434 0 .608-.087.608-.391 0-.304-.174-.39-.608-.39h-1.432v.78h1.432zm0 1.475c.434 0 .738-.087.738-.477 0-.347-.304-.478-.738-.478h-1.432v.955h1.432zM108.846 33.528h3.038v.564h-2.387v.782h2.04v.564h-2.04v.911h2.431v.564h-3.082v-3.385zM114.792 33.528h.738l1.649 3.385h-.695l-.347-.78h-1.953l-.347.78h-.694l1.649-3.385zm1.085 2.04l-.695-1.52-.694 1.52h1.389zM122.039 35.481c0 1.085-.694 1.52-1.779 1.52s-1.779-.435-1.779-1.52v-1.91h.651v1.867c0 .564.217.998 1.128.998.911 0 1.128-.434 1.128-.998V33.57h.651v1.91zM125.208 34.092h-1.519v-.564h3.689v.564h-1.519v2.821h-.651v-2.82zM129.07 33.528h.651v3.385h-.651v-3.385zM131.804 33.528h3.082v.564h-2.431v.782h2.084v.564h-2.084v1.475h-.651v-3.385zM140.137 35.481c0 1.085-.694 1.52-1.779 1.52s-1.78-.435-1.78-1.52v-1.91h.651v1.867c0 .564.217.998 1.129.998.911 0 1.128-.434 1.128-.998V33.57h.651v1.91zM141.83 33.528h.651v2.778h2.43v.564h-3.081v-3.342zM146.604 33.528h.651v2.778h2.43v.564h-3.125v-3.342h.044zM151.508 35.568l-1.649-2.04h.824l1.172 1.432 1.172-1.432h.824l-1.649 2.04v1.345h-.651v-1.345h-.043z"/></g><defs><clipPath id="prefix__clip0"><path fill="#fff" d="M0 13h156.239v24H0z"/></clipPath></defs></svg>