<svg width="176" height="62" fill="none" xmlns="http://www.w3.org/2000/svg"><g clip-path="url(#prefix__clip0)" fill="#00093C" opacity=".4"><path d="M108.927 37.175s-.075.526-.338.902c-.489.714-1.24 1.165-2.218 1.165-1.729 0-3.044-1.466-3.044-3.458 0-1.992 1.315-3.458 3.12-3.458.864 0 1.541.3 2.029.864.301.376.339.865.339.865s.827-.188 1.315-1.053c.226-.45.376-1.015 0-1.466-.902-1.015-2.33-1.39-3.458-1.39-3.345 0-5.788 2.18-5.788 5.638 0 3.42 2.443 5.638 5.788 5.638 1.353 0 2.744-.526 3.646-1.579.376-.45.226-1.052-.037-1.54-.489-.94-1.354-1.128-1.354-1.128zM53.785 30.71c-3.044 0-5.3 2.217-5.3 5.3 0 3.044 2.218 5.3 5.3 5.3 3.045 0 5.3-2.218 5.3-5.3 0-3.083-2.217-5.3-5.3-5.3zm0 9.02c-2.104 0-3.608-1.54-3.608-3.72s1.466-3.722 3.608-3.722c2.106 0 3.609 1.541 3.609 3.721s-1.466 3.722-3.608 3.722zM69.836 30.71c-2.932 0-5.037 2.217-5.037 5.262 0 3.12 2.105 5.3 5.112 5.3 1.88 0 3.308-.714 4.285-2.105.15-.3.15-.64 0-.94-.3-.526-.79-.639-.827-.676l-.188-.038-.038.188s-.037.225-.15.376l-.038.037c-.601.902-1.804 1.541-3.007 1.541-2.593 0-3.345-2.18-3.42-3.194h8.081v-1.09c0-2.294-1.654-4.662-4.773-4.662zm-3.308 4.247c.15-.714.94-2.706 3.27-2.706 1.654 0 3.007 1.202 3.12 2.706h-6.39zM38.412 30.71c-2.932 0-5.037 2.217-5.037 5.262 0 3.12 2.105 5.3 5.112 5.3 1.88 0 3.308-.714 4.285-2.105.15-.3.15-.64 0-.94-.3-.526-.79-.639-.827-.676l-.188-.038-.037.188s-.038.225-.15.376c-.564.94-1.805 1.616-3.045 1.616-2.594 0-3.346-2.18-3.42-3.195H43.185v-1.09c-.038-2.33-1.692-4.699-4.774-4.699zm-3.345 4.247c.15-.714.94-2.706 3.27-2.706 1.654 0 3.007 1.202 3.12 2.706h-6.39zM79.308 35.032c-1.39-.3-2.255-.526-2.255-1.466 0-.864 1.052-1.315 1.841-1.315.978 0 1.617.376 2.105 1.24.113.226.188.451.188.451l.038.188.188-.038c.037 0 .564-.15.902-.714a1.053 1.053 0 000-1.052c-.677-1.053-1.88-1.617-3.42-1.617-1.73 0-3.496 1.015-3.496 3.008 0 2.142 1.88 2.556 3.383 2.894 1.466.338 2.33.601 2.33 1.579 0 .977-1.015 1.54-1.992 1.54-1.128 0-2.142-.563-2.594-1.465-.112-.226-.188-.451-.188-.451l-.037-.188-.188.037c-.038 0-.564.15-.902.714-.15.301-.188.602-.075.865l-.038.038.113.188c.79 1.165 2.218 1.841 3.909 1.841 1.842 0 3.684-.977 3.684-3.195-.038-2.368-1.955-2.744-3.496-3.082zM48.185 27.402c.451 0 .79.075 1.052.188a.465.465 0 01.113.075l.15.188.188-.188s.301-.338.264-.902a.834.834 0 00-.527-.752c-.375-.113-.751-.15-1.24-.15-1.428 0-3.082.902-3.082 3.458v1.654h-.94a1.09 1.09 0 00-1.09 1.09v.488h1.992v8.533h.677a.97.97 0 00.977-.978V32.59h1.165a1.09 1.09 0 001.09-1.09v-.489H46.72v-1.203c-.038-2.142.827-2.405 1.466-2.405zM65.55 31.574c-.037-.226-.075-.639-.563-.79-.263-.075-.414-.075-.564-.075h-.075c-1.203 0-2.18.527-2.895 1.504 0-.3-.037-.639-.037-.94v-.3h-.564a1.09 1.09 0 00-1.09 1.09c0 .225 0 .488.038.789 0 .338.037.677.037 1.09v7.142h.677a.97.97 0 00.977-.978v-4.548c0-1.992 1.09-3.157 2.932-3.157.075 0 .263.037.413.075.113.038.15.075.15.038l.151.15.15-.15c.038-.038.301-.339.263-.94zM33.563 32.514c.038-.038.3-.339.226-.902-.038-.226-.076-.64-.564-.79-.263-.075-.414-.075-.564-.075h-.075c-1.165 0-2.18.526-2.894 1.504 0-.301-.038-.64-.038-.94v-.3h-.564A1.09 1.09 0 0028 32.1c0 .225 0 .488.038.789.037.338.037.676.037 1.09v7.141h.677a.97.97 0 00.977-.977v-4.586c0-1.992 1.09-3.157 2.932-3.157.075 0 .263.037.413.075.113.038.15.075.15.038l.151.15.188-.15zM130.879 30.145c-3.346 0-5.789 2.18-5.789 5.639 0 3.42 2.443 5.638 5.789 5.638 3.345 0 5.788-2.18 5.788-5.638 0-3.42-2.443-5.639-5.788-5.639zm0 9.097c-2.03 0-3.308-1.466-3.308-3.458 0-1.992 1.315-3.458 3.308-3.458 2.029 0 3.345 1.466 3.345 3.458-.038 1.992-1.353 3.458-3.345 3.458zM120.918 32.138v7.029c0 1.54-.564 1.954-.564 1.954h1.879c.564 0 1.053-.45 1.053-1.052V32.4c0-1.541.225-1.955.225-1.955h-.864c-.94 0-1.729.752-1.729 1.692zM117.761 30.446h-4.812c-.939 0-1.729.752-1.729 1.692v.939s.414-.563 1.955-.563h.601c.301 0 .526.3.526.526v6.127c0 1.54-.563 1.954-.563 1.954h1.879a1.05 1.05 0 001.052-1.052v-7.067c0-.3.301-.526.527-.526h.827c.939 0 1.729-.752 1.729-1.692v-.94c-.038 0-.451.602-1.992.602zM146.703 30.71c-.939 0-1.466.751-1.503 1.728v4.398c0 .15-.113.3-.301.3-.113 0-.188-.037-.225-.112 0 0-1.354-2.406-1.842-3.345-1.015-1.842-1.429-2.932-2.707-2.932-.939 0-1.729.752-1.729 1.729v6.766c0 1.54-.601 1.954-.601 1.954h1.466c.94 0 1.466-.752 1.503-1.729v-4.473c0-.15.113-.3.301-.3.113 0 .188.037.226.112 0 0 1.353 2.406 1.841 3.346 1.015 1.841 1.429 2.931 2.707 2.931.977 0 1.729-.751 1.729-1.728v-6.766c0-1.541.601-1.955.601-1.955h-1.466v.075zM97.087 32.138c-.602-1.429-.113-1.504-.113-1.504s-.113-.15-.639-.225c-1.127-.15-2.067.3-2.706 1.729-.038.113-1.353 3.909-2.03 5.45-.864 1.842-1.316 3.007-2.669 3.007-2.255 0-2.33-2.142-2.33-4.398v-3.683h1.691a1.09 1.09 0 001.09-1.09v-.49h-2.743v-5.261s-.15.075-.677.563c-.714.64-1.015 1.504-1.015 2.406v2.33h-1.015c-.564 0-1.015.414-1.09.978v.601h2.067v4.436c0 3.082 1.429 4.247 3.195 4.548 2.105.338 4.022-.414 4.962-2.143.075-.263.489-.488.714-.488h3.12c.225 0 .601.225.714.488l.188.414c.489 1.09 0 1.39 0 1.39h1.955c.789 0 1.052-.676.751-1.277l-3.42-7.781zm-1.015 4.736h-1.579c-.225 0-.45-.188-.3-.564l1.09-2.782 1.09 2.782c.15.376-.075.564-.3.564zM100.395 9.397c1.353-2.33-.752-5.262-.752-5.262-.188 1.503-1.917 1.766-3.458 3.834-1.541 2.03-.338 4.021-.338 4.021s3.195-.263 4.548-2.593zM93.253 8.495s1.654-1.617.601-3.985c-1.052-2.33-2.668-3.007-2.48-4.51 0 0-2.744 2.368-1.955 4.961.79 2.594 3.834 3.534 3.834 3.534zM90.133 12.065s1.053-1.165.226-2.743c-.827-1.542-1.955-1.917-1.917-2.97 0 0-1.767 1.767-1.09 3.458.639 1.767 2.781 2.255 2.781 2.255zM97.688 18.418s2.594.564 4.248-.977c1.616-1.541.639-4.398.639-4.398-.489 1.165-1.955.977-3.684 2.255-1.73 1.24-1.203 3.12-1.203 3.12zM100.357 22.327c-1.541-2.03-3.759-1.39-3.759-1.39s-.639 3.12 1.24 5.036c1.88 1.917 5.301.714 5.301.714-1.429-.563-1.203-2.292-2.782-4.36zM99.944 20.786s2.18 2.33 4.848 1.88c2.669-.414 3.609-3.91 3.609-3.91-1.316.827-2.594-.376-5.15-.263-2.556.113-3.307 2.293-3.307 2.293zM85.735 18.456s.489-1.955-1.39-3.233c-1.842-1.278-3.383-1.015-3.947-2.218 0 0-.94 3.045.827 4.586 1.767 1.579 4.51.865 4.51.865zM87.013 18.53c-1.39 1.016-1.54 2.143-2.556 2.256 0 0 1.955 1.428 3.496.564 1.541-.865 1.729-3.007 1.729-3.007s-1.278-.827-2.669.188zM85.923 9.96c-1.278-.751-2.255-.526-2.706-1.277 0 0-.489 2.03.752 3.007 1.24.94 3.007.376 3.007.376s.225-1.354-1.053-2.105zM78.293 22.891c2.255 1.691 5.413.564 5.413.564s.376-2.368-1.955-3.721c-2.33-1.316-4.097-.865-4.886-2.256 0 0-.827 3.721 1.428 5.413zM91.636 11.765c0-1.203.677-2.143 1.542-2.143.864 0 1.54.978 1.54 2.143 0 1.203-.676 2.142-1.54 2.142-.865.038-1.541-.94-1.541-2.142z"/><path d="M99.417 11.84c-5.939 5.3-15.11 1.015-15.11 1.015s1.165 1.39 3.383 2.556c2.218 1.165 3.232.94 3.27 2.067.338 6.841-1.579 9.36-1.579 9.36 2.669-1.203 3.383-5.15 3.383-5.15s.902 4.21-1.992 9.284c0 0 1.128-.676 2.255-2.48 1.541-2.218 1.955-4.699 2.068-6.729.037-.564.075-1.127.075-1.729 0-.263 0-.488.037-.714.15-2.443.15-2.594 1.842-4.097 1.73-1.504 2.744-3.796 2.744-3.796s-.075.188-.376.413zM29.429 44.767h.413l1.39 3.157h-.525l-.339-.789h-1.54l-.34.79H28l1.429-3.158zm.789 1.992l-.602-1.428-.6 1.428h1.202zM33.977 45.444a1.058 1.058 0 00-.79-.376c-.714 0-1.202.564-1.202 1.278 0 .676.45 1.24 1.202 1.24.376 0 .64-.15.827-.413l.376.263c-.113.113-.489.564-1.24.564a1.635 1.635 0 01-1.654-1.617c0-.977.676-1.691 1.691-1.691.414 0 .865.15 1.128.489l-.338.263zM35.706 45.18h-1.053v-.413h2.519v.414h-1.053v2.744h-.45V45.18h.037zM37.736 44.767h.45v3.157h-.45v-3.157zM39.127 44.767h.563l1.767 2.594v-2.594h.451v3.157h-.564l-1.804-2.593v2.593h-.451v-3.157h.038zM45.592 46.158v1.54c-.301.189-.827.302-1.24.302-1.09 0-1.73-.752-1.73-1.654 0-.94.714-1.654 1.691-1.654.602 0 .94.15 1.203.413l-.3.339c-.264-.264-.564-.339-.903-.339-.751 0-1.202.564-1.202 1.24 0 .715.526 1.241 1.24 1.241.3 0 .602-.075.79-.15v-.865h-.715v-.413h1.166zM48.523 45.18h-1.052v-.413h2.518v.414h-1.052v2.744h-.451V45.18h.037zM50.365 46.346c0-.94.714-1.654 1.692-1.654.977 0 1.691.714 1.691 1.654S53.034 48 52.057 48c-.978 0-1.692-.715-1.692-1.654zm2.895 0c0-.677-.49-1.24-1.203-1.24-.752 0-1.203.563-1.203 1.24 0 .676.489 1.24 1.203 1.24.752 0 1.203-.564 1.203-1.24zM57.206 46.158v1.54c-.3.189-.827.302-1.24.302-1.09 0-1.73-.752-1.73-1.654 0-.94.715-1.654 1.692-1.654.602 0 .94.15 1.203.413l-.3.339c-.264-.264-.564-.339-.903-.339-.752 0-1.203.564-1.203 1.24 0 .715.527 1.241 1.24 1.241.302 0 .602-.075.79-.15v-.865h-.714v-.413h1.165zM58.108 44.767h2.105v.414H58.56v.94h1.542v.413H58.56v1.015h1.728v.413h-2.18v-3.195zM61.68 45.18h-1.053v-.413h2.518v.414h-1.052v2.744h-.451V45.18h.037zM63.709 44.767h.451v1.316h1.692v-1.316h.45v3.157h-.45v-1.428H64.16v1.428h-.451v-3.157zM67.167 44.767h2.105v.414h-1.654v.94h1.541v.413h-1.54v1.015h1.728v.413h-2.18v-3.195zM70.061 44.767h1.128c.827 0 1.053.489 1.053.865 0 .413-.301.789-.79.827l.902 1.428h-.563l-.827-1.39h-.489v1.39h-.451v-3.12h.037zm.452 1.39h.563c.339 0 .677-.074.677-.488 0-.413-.338-.488-.677-.488h-.563v.977zM74.309 44.767h2.03v.414h-1.58v.977h1.504v.413H74.76v1.354h-.451v-3.158zM76.827 46.346c0-.94.714-1.654 1.692-1.654.977 0 1.691.714 1.691 1.654S79.496 48 78.52 48c-.978 0-1.692-.715-1.692-1.654zm2.894 0c0-.677-.488-1.24-1.202-1.24-.752 0-1.203.563-1.203 1.24 0 .676.488 1.24 1.203 1.24.751 0 1.202-.564 1.202-1.24zM80.924 44.767h1.128c.827 0 1.052.489 1.052.865 0 .413-.3.789-.789.827l.902 1.428h-.564l-.827-1.39h-.45v1.39h-.452v-3.12zm.451 1.39h.564c.339 0 .677-.074.677-.488 0-.413-.338-.488-.677-.488h-.564v.977zM85.134 44.767h.64l1.014 2.368 1.015-2.368h.639v3.157h-.451v-2.593l-1.09 2.593h-.3l-1.09-2.593v2.593h-.377v-3.157zM90.397 44.767h.413l1.39 3.157h-.525l-.339-.789h-1.54l-.34.79h-.525l1.466-3.158zm.789 1.992l-.602-1.428-.6 1.428h1.202zM92.69 44.767h.563l1.767 2.594v-2.594h.451v3.157h-.564l-1.804-2.593v2.593h-.451v-3.157h.037zM100.621 47.925h-.602l-.413-.414c-.263.338-.564.489-.978.489-.714 0-1.052-.451-1.052-.903 0-.45.338-.714.752-.902-.188-.225-.376-.413-.376-.714 0-.488.413-.752.864-.752s.827.226.827.715c0 .413-.338.639-.676.789l.639.639.413-.639h.489l-.64.94.753.752zm-2.03-1.504c-.263.15-.526.3-.526.639 0 .3.3.564.601.564.3 0 .564-.188.714-.414l-.79-.789zm.225-1.353c-.225 0-.413.15-.413.376 0 .225.188.375.338.526.226-.113.489-.263.489-.564 0-.188-.188-.338-.414-.338zM103.214 45.18h-1.052v-.413h2.518v.414h-1.052v2.744h-.452V45.18h.038zM105.281 44.767h.452v1.316h1.691v-1.316h.451v3.157h-.451v-1.428h-1.691v1.428h-.452v-3.157zM108.74 44.767h2.104v.414h-1.653v.94h1.541v.413h-1.541v1.015h1.729v.413h-2.18v-3.195zM112.987 44.767h2.105v.414h-1.654v.94h1.541v.413h-1.541v1.015h1.729v.413h-2.18v-3.195zM115.881 44.767h.564l1.767 2.594v-2.594h.451v3.157h-.564l-1.804-2.593v2.593h-.451v-3.157h.037zM119.151 44.767h.527l.939 2.556.978-2.556h.488l-1.278 3.157h-.413l-1.241-3.157zM122.572 44.767h.451v3.157h-.451v-3.157zM123.925 44.767h1.128c.827 0 1.052.489 1.052.865 0 .413-.3.789-.789.827l.902 1.428h-.564l-.827-1.39h-.488v1.39h-.451v-3.12h.037zm.451 1.39h.564c.338 0 .677-.074.677-.488 0-.413-.339-.488-.677-.488h-.564v.977zM126.631 46.346c0-.94.715-1.654 1.692-1.654s1.691.714 1.691 1.654S129.3 48 128.323 48c-1.015 0-1.692-.715-1.692-1.654zm2.895 0c0-.677-.489-1.24-1.203-1.24-.752 0-1.203.563-1.203 1.24 0 .676.489 1.24 1.203 1.24.714 0 1.203-.564 1.203-1.24zM130.728 44.767h.564l1.767 2.594v-2.594h.451v3.157h-.564l-1.804-2.593v2.593h-.451v-3.157h.037zM134.412 44.767h.639l1.015 2.368 1.015-2.368h.639v3.157h-.451v-2.593l-1.09 2.593h-.301l-1.09-2.593v2.593h-.451v-3.157h.075zM138.66 44.767h2.105v.414h-1.654v.94h1.541v.413h-1.541v1.015h1.729v.413h-2.18v-3.195zM141.554 44.767h.564l1.766 2.594v-2.594h.451v3.157h-.563l-1.805-2.593v2.593h-.451v-3.157h.038zM145.952 45.18h-1.053v-.413h2.519v.414h-1.015v2.744h-.451V45.18z"/></g><defs><clipPath id="prefix__clip0"><path fill="#fff" d="M28 0h120.169v48H28z"/></clipPath></defs></svg>