<svg width="306" height="78" fill="none" xmlns="http://www.w3.org/2000/svg"><path fill="#122675" stroke="#122675" stroke-width="2" d="M1 1h38v38H1z"/><path d="M13.45 29h5.25v-5.2h3c4.725 0 7.675-2.5 7.675-6.35 0-3.85-2.925-6.35-7.625-6.35h-8.3V29zm5.25-9v-5.1h2.45c1.775 0 2.95 1 2.95 2.55C24.1 19 22.925 20 21.15 20H18.7z" fill="#fff"/><path stroke="#122675" stroke-width="2" d="M39 1h38v38H39z"/><path d="M51.425 29H56.7v-5.9h1.275l4.45 5.9H68.3l-5.275-6.3.2-.05c2.6-.475 4.5-2.525 4.5-5.45 0-3.65-2.9-6.1-7.275-6.1h-9.025V29zm5.275-9.325V14.9h2.825c1.675 0 2.925.9 2.925 2.375 0 1.5-1.25 2.4-2.925 2.4H56.7z" fill="#122675"/><path stroke="#122675" stroke-width="2" d="M77 1h38v38H77z"/><path d="M89.425 29h14.025v-4.15h-8.925v-3.175h8.2V18.25h-8.2v-3h8.675V11.1H89.425V29z" fill="#122675"/><path stroke="#122675" stroke-width="2" d="M115 1h38v38h-38z"/><path d="M133.95 29.375c5 0 8.275-2.3 8.275-5.85 0-4.325-4.125-4.975-7.175-5.425-2.075-.3-3.85-.525-3.85-1.875 0-1 1-1.7 2.675-1.7 1.8 0 2.975.9 2.975 2.475h4.775c0-3.7-3.175-6.25-7.925-6.25-4.725 0-7.775 2.3-7.775 5.85 0 4.6 4.65 4.975 7.725 5.4 1.825.25 3.3.55 3.3 1.85 0 1.1-1.1 1.725-2.8 1.725-2.15 0-3.375-.975-3.4-2.475h-4.95c0 3.7 3.25 6.275 8.15 6.275z" fill="#122675"/><path stroke="#122675" stroke-width="2" d="M153 1h38v38h-38z"/><path d="M165.425 29h14.025v-4.15h-8.925v-3.175h8.2V18.25h-8.2v-3h8.675V11.1h-13.775V29z" fill="#122675"/><path stroke="#122675" stroke-width="2" d="M191 1h38v38h-38z"/><path d="M202.425 29h5.275v-5.9h1.275l4.45 5.9h5.875l-5.275-6.3.2-.05c2.6-.475 4.5-2.525 4.5-5.45 0-3.65-2.9-6.1-7.275-6.1h-9.025V29zm5.275-9.325V14.9h2.825c1.675 0 2.925.9 2.925 2.375 0 1.5-1.25 2.4-2.925 2.4H207.7z" fill="#122675"/><path stroke="#122675" stroke-width="2" d="M229 1h38v38h-38z"/><path d="M244.525 29h8.225l5.3-17.9h-5.45l-3.825 14.025h-.25L244.65 11.1h-5.4l5.275 17.9z" fill="#122675"/><path stroke="#122675" stroke-width="2" d="M267 1h38v38h-38z"/><path d="M279.425 29h14.025v-4.15h-8.925v-3.175h8.2V18.25h-8.2v-3h8.675V11.1h-13.775V29z" fill="#122675"/><path stroke="#122675" stroke-width="2" d="M39 39h38v38H39z"/><path fill-rule="evenodd" clip-rule="evenodd" d="M306 38H76v40h230V38zM97.22 51.937h1.453v-3.202h-1.669c-1.614 0-2.932.135-3.955.404a9.28 9.28 0 00-2.932 1.318c-1.319.915-2.341 2.018-3.04 3.337C86.35 55.112 86 56.538 86 58.072c0 2.825.996 5.112 3.013 6.834 1.991 1.695 4.655 2.556 7.991 2.556h1.669v-3.175H97.22c-2.341 0-4.224-.565-5.624-1.695-1.399-1.13-2.098-2.61-2.098-4.466 0-1.884.7-3.364 2.098-4.494 1.4-1.13 3.283-1.695 5.624-1.695zm4.116 6.135a9.7 9.7 0 01.727-3.713 9.899 9.899 0 012.098-3.175c.915-.915 1.911-1.614 3.041-2.099a9.56 9.56 0 013.605-.7c1.265 0 2.475.243 3.632.727s2.153 1.184 3.068 2.099a9.429 9.429 0 012.071 3.148 9.7 9.7 0 01.727 3.713 9.871 9.871 0 01-.727 3.767 9.428 9.428 0 01-2.071 3.148 9.176 9.176 0 01-3.068 2.098 9.215 9.215 0 01-3.632.727 9.087 9.087 0 01-3.605-.727 9.345 9.345 0 01-3.041-2.098 9.614 9.614 0 01-2.098-3.175 9.639 9.639 0 01-.727-3.74zm3.498-.054c0 1.83.592 3.363 1.749 4.628 1.157 1.264 2.583 1.91 4.224 1.91s3.067-.646 4.224-1.91c1.157-1.265 1.749-2.798 1.749-4.628 0-1.803-.592-3.336-1.749-4.6-1.157-1.265-2.556-1.884-4.224-1.884-1.641 0-3.067.619-4.224 1.883-1.157 1.265-1.749 2.798-1.749 4.601zm26.422 6.242h-8.126v3.175h6.323c2.664 0 4.628-.43 5.919-1.265 1.292-.834 1.937-2.125 1.937-3.847 0-1.211-.376-2.233-1.103-3.04-.753-.808-2.152-1.642-4.251-2.503l-3.363-1.372c-.753-.296-1.265-.619-1.588-.915-.322-.296-.484-.646-.484-1.022 0-.511.189-.915.538-1.184.35-.296.834-.43 1.48-.43h7.83v-3.095h-6.915c-2.018 0-3.579.404-4.655 1.211s-1.614 1.964-1.614 3.498c0 1.238.377 2.26 1.076 3.04.727.807 2.018 1.588 3.901 2.34l3.229 1.292c.969.404 1.614.78 1.964 1.104.35.35.511.726.511 1.21 0 .565-.242.996-.699 1.319-.457.323-1.103.484-1.91.484zm9.82 3.202V56.646c0-2.556.673-4.547 1.991-6.027 1.346-1.48 3.121-2.206 5.408-2.206 1.157 0 2.233.242 3.202.726.969.484 1.83 1.21 2.529 2.152.727-.941 1.588-1.668 2.556-2.152.969-.484 2.018-.727 3.175-.727 2.233 0 4.036.754 5.381 2.234 1.346 1.48 2.018 3.497 2.018 6.027v10.789h-3.309V56c0-1.318-.377-2.368-1.13-3.175-.754-.807-1.722-1.21-2.933-1.21-1.211 0-2.179.403-2.933 1.21-.753.807-1.13 1.857-1.13 3.175v11.462h-3.309V56c0-1.318-.377-2.368-1.157-3.175-.753-.807-1.749-1.21-2.96-1.21-1.21 0-2.206.403-2.932 1.21-.754.807-1.104 1.857-1.104 3.175v11.462h-3.363zm45.498-1.964c1.668-1.534 2.771-3.66 3.229-6.323l-3.444-.484c-.269 1.83-.942 3.282-2.018 4.331-1.05 1.023-2.395 1.56-3.982 1.56-1.642 0-3.068-.618-4.225-1.882-1.157-1.238-1.722-2.799-1.722-4.628 0-1.857.565-3.39 1.722-4.655 1.157-1.265 2.583-1.883 4.251-1.883.835 0 1.588.161 2.287.484.7.296 1.319.78 1.884 1.399l-9.094 5.058 1.399 2.53 12.269-6.835c-.915-1.91-2.126-3.363-3.632-4.358-1.507-.996-3.202-1.507-5.086-1.507a9.315 9.315 0 00-3.632.726 9.129 9.129 0 00-3.067 2.126 10.1 10.1 0 00-2.072 3.175 9.719 9.719 0 00-.726 3.713c0 1.776.403 3.39 1.237 4.87.834 1.48 1.991 2.663 3.498 3.578.727.458 1.48.78 2.287.996a9.407 9.407 0 002.448.323c2.449 0 4.494-.754 6.189-2.314zm6.511 2.152V57.453c0-2.718.726-4.87 2.179-6.457 1.453-1.588 3.39-2.395 5.812-2.395 2.421 0 4.332.78 5.785 2.395 1.426 1.587 2.152 3.74 2.152 6.457V67.65h-3.336V56.834c0-1.48-.431-2.664-1.292-3.605-.861-.915-1.964-1.4-3.336-1.4-1.345 0-2.448.458-3.336 1.4-.861.941-1.319 2.125-1.319 3.605V67.65h-3.309zm33.982-9.336v9.336h3.31v-7.856c0-1.695-.081-2.933-.243-3.794a7.481 7.481 0 00-.78-2.34 9.343 9.343 0 00-3.444-3.714c-1.48-.888-3.121-1.345-4.924-1.345-2.717 0-4.95.915-6.726 2.744-1.776 1.83-2.664 4.144-2.664 6.942 0 1.722.35 3.256 1.077 4.655.726 1.372 1.748 2.529 3.094 3.47a8.222 8.222 0 002.394 1.158 8.837 8.837 0 002.637.403c.942 0 1.83-.107 2.664-.323a9.488 9.488 0 002.421-.968v-3.606c-.78.592-1.533 1.023-2.314 1.292-.753.296-1.56.43-2.367.43-1.776 0-3.256-.618-4.413-1.856-1.157-1.238-1.722-2.825-1.722-4.763 0-1.91.565-3.444 1.695-4.654 1.13-1.211 2.583-1.803 4.332-1.803 1.749 0 3.202.619 4.305 1.83 1.13 1.21 1.668 2.798 1.668 4.762zM233.955 44h3.336v4.95h5.677v3.175h-5.677v8.019c0 1.506.377 2.61 1.103 3.282.727.7 1.911 1.05 3.498 1.05h1.076v3.201h-1.103c-2.637 0-4.628-.592-5.946-1.749-1.318-1.157-1.964-2.906-1.964-5.22V44zm27.551 15.148V48.951h-3.282v10.816c0 1.48-.431 2.664-1.292 3.605-.861.942-1.964 1.4-3.336 1.4-1.345 0-2.475-.458-3.336-1.4-.888-.941-1.319-2.125-1.319-3.605V48.95h-3.336v10.197c0 2.717.727 4.87 2.153 6.457 1.426 1.588 3.363 2.395 5.784 2.395 2.422 0 4.359-.807 5.812-2.395 1.426-1.587 2.152-3.74 2.152-6.457zm3.767 8.502v-18.7h3.094v2.772c.565-1.103 1.373-1.883 2.368-2.368.996-.484 2.368-.726 4.063-.726h.888v3.229h-.511c-2.314 0-3.956.538-4.978 1.64-1.022 1.104-1.534 2.88-1.534 5.328v8.825h-3.39zm26.395-9.336v9.336h3.309v-7.856c0-1.695-.08-2.933-.242-3.794a7.481 7.481 0 00-.78-2.34 9.343 9.343 0 00-3.444-3.714c-1.48-.888-3.121-1.345-4.924-1.345-2.717 0-4.95.915-6.726 2.744-1.776 1.83-2.664 4.144-2.664 6.942 0 1.722.377 3.256 1.076 4.655.727 1.372 1.749 2.529 3.094 3.47a8.24 8.24 0 002.395 1.158 9.147 9.147 0 002.664.403c.941 0 1.829-.107 2.663-.323a9.495 9.495 0 002.422-.968v-3.606c-.78.592-1.534 1.023-2.314 1.292a6.47 6.47 0 01-2.368.43c-1.775 0-3.255-.618-4.412-1.856-1.184-1.238-1.749-2.825-1.749-4.763 0-1.91.565-3.444 1.695-4.654 1.13-1.211 2.583-1.803 4.332-1.803 1.749 0 3.202.619 4.305 1.83 1.103 1.21 1.668 2.798 1.668 4.762z" fill="#122675"/><path d="M63.375 50c-2.169 0-3.995 1.348-4.875 2.133-.88-.785-2.706-2.133-4.875-2.133C50.523 50 48 52.514 48 55.606c0 1.936 1.774 3.698 1.845 3.768L58.5 68l8.65-8.621c.076-.075 1.85-1.837 1.85-3.773C69 52.514 66.477 50 63.375 50z" fill="#122675"/></svg>