<svg width="176" height="62" fill="none" xmlns="http://www.w3.org/2000/svg"><g clip-path="url(#prefix__clip0)" fill="#00093C" opacity=".4"><path d="M53.948 20.015l-1.189 3.11c-1.288 3.14-2.688 7.078-4.665 9.577-1.426 1.8-3.326 1.223-4.787-.043-.598-.522-1.27-1.008-1.757-1.637-1.012-1.306-1.357-3.895-.491-5.648 1.409-2.852 4.14-4.528 6.832-6.096 1.017-.59 2.395-.926 3.274-1.676.638-.547 2.59-3.808 1.883-5.238l-.082-.12c-.952.124-4.226 3.067-5.114 3.764-.486.384-1.24 1.414-2.085 1.228-.082-.056-.163-.108-.245-.163-.38-1.526 1.034-2.137 1.8-2.904 1.577-1.577 3.102-3.601 5.032-4.786.547-.336 1.168-.405 1.801-.694.883-.013 1.28.224 1.844.491.478.229 1.09.418 1.391.819.448.594.267 1.74 0 2.412-.577 1.452-1.943 3.494-2.21 5.032.922-.28 3.085-1.422 3.64 0-.142 1.697-4.062 1.465-4.872 2.572zM41.795 6.307c.513-1.27 2.12-3.253 3.231-3.929.328-.125.655-.245.983-.37 1.34-.03 2.442.969 2.128 2.455-.384 1.818-1.844 3.434-2.865 4.704-.332.41-.965 1.125-1.84.819-1.154-.405-2.266-2.12-1.637-3.68zm56.426 12.6c-1.995-4.859-6.122-7.831-10.434-10.394C77.72 2.533 63.512-.117 47.4.004c-1.977.095-3.955.19-5.932.29a4772.624 4772.624 0 00-4.131 5.729c-2.701 3.842-5.256 7.771-7.776 11.786-.926 1.478-3.856 5.38-3.847 7.324l.12.082c.608.15 2.852-2.585 3.274-3.11.875-.901 1.745-1.802 2.62-2.702 1.012-1.258 3.46-3.718 4.95-4.377 1.27-.56 2.839-1.417 4.338-.53 2.494 1.474 1.473 3.016.53 5.239-1.521 3.584-3.572 7.048-5.687 10.106-.767 1.112-1.077 2.443-2.33 3.067-1.366-.06-2.926-2.132-2.292-3.6.288-.664.848-1.09 1.227-1.638.983-1.663 1.965-3.33 2.947-4.993.461-.74 1.262-1.525 1.392-2.537v-.043c-.026-.013-.056-.026-.082-.04-1.008.1-2.361 1.69-2.908 2.375-1.896 2.261-3.791 4.527-5.687 6.793-.543.69-2.36 2.968-3.722 2.62-.702-.181-1.171-1.418-1.555-1.965-.452-.646-2.723-4.161-2.576-5.032.16-.96.62-1.822.982-2.658 2.266-5.273 5.303-9.835 8.551-14.125 1.108-1.31 2.21-2.62 3.313-3.93.53-.572 1.064-1.145 1.599-1.718.503-.504 1.033-1.056 1.537-1.56h-.017c-.74-.081-3.037.431-3.73.578-3.236.676-6.307 1.223-9.207 2.128C15.19 6.1 6.781 9.646 2.511 15.96c-.943 1.4-1.736 2.96-2.21 4.83-1.025 4.066.754 7.797 2.374 10.067 2.632 3.683 6.578 6.212 10.761 8.349 1.129.577 2.292 1.072 3.52 1.598l.982.452c.396-.125.793-.245 1.185-.37 1.365-.302 2.727-.599 4.092-.9 2.788-.608 5.708-.763 8.633-1.267 1.077-.095 2.154-.19 3.231-.289 1.922-.069 3.847-.137 5.769-.202 1.249-.207 3.98-.073 5.195.12.982.07 1.965.138 2.947.203 3.941.694 8.047.87 9.124 4.377.211.69.345 2.007-.37 2.21-1.12.319-1.965-.888-2.658-1.146-1.349-.509-3.154-.233-4.748-.491h-7.04c-2.36.056-4.72.107-7.077.163-1.228.07-2.456.138-3.683.203-1.336.15-2.676.301-4.011.448-.09.146 1.417.336 1.719.41 1.71.413 3.524.52 5.359.9 2.572.53 5.432.361 8.185.818 1.038.026 2.072.056 3.11.082h5.278c.775-.013 1.555-.026 2.33-.043 2.305-.19 4.61-.38 6.914-.573L59.95 44.19l-.327-.327c.87-.672 1.667-2.779 2.21-3.847 1.61-3.158 3.123-6.47 4.54-9.823.259-.616 1.68-3.885 1.271-4.54-.267-.31-.818.16-1.02.327-.19.259-.384.517-.574.776-.599.655-1.202 1.31-1.8 1.964-.694.69-1.543 1.435-2.702 1.637-.818.147-1.352-.426-1.675-.818-.03-.04-.16-.293-.246-.246-1.335.707-4.256 3.58-6.22 1.392-1.34-1.49-.078-4.291.49-5.605 1.224-2.822 3.201-5.363 6.014-6.587.681-.22 1.366-.435 2.047-.655.34-.043.68-.081 1.02-.125.78-.28 1.646-1.258 2.904-.736 3.912 1.62-1.25 6.332-2.292 7.65-.344.436-1.193 1.086-.982 1.883a.49.49 0 00.289.289c.568.224 1.05-.396 1.31-.655.96-.956 1.697-2.02 2.494-3.15 2.326-3.303 4.243-6.909 6.341-10.476.926-1.693 1.857-3.382 2.783-5.075 2.214.38 2.667 1.788 1.84 3.886l-3.93 9.74v.04c.72-.268 2.797-2.422 3.313-3.068.47-.586.897-1.28 1.762-1.474 2.404-.534 4.64 2.4 4.132 5.114-.336 1.788-1.276 3.343-2.004 4.83-.318.65-.762 1.43-.78 2.291.044.026.083.056.121.082.797.31 3.365-.65 4.011-.9-.53 1.58-1.387 2.864-2.865 3.476-2.559 1.06-4.295-.43-4.993-2.21-.138-.629-.271-1.254-.409-1.883.271-.49.547-.982.819-1.473.314-.72.525-1.404.775-2.21.155-.495.672-1.572.41-2.21a.985.985 0 00-.044-.12h-.202c-1.633 1.542-2.706 3.915-3.93 5.85a282.583 282.583 0 00-3.682 5.975L68.9 35.347c-.844 1.951-1.43 4.045-2.09 6.139l-1.266 3.847c.013 0 .022-.005.035-.005 11.01-1.594 24.171-6.26 29.712-13.169 2.602-3.21 5.178-7.78 2.929-13.251z"/><path d="M47.973 21.772c-1.736.888-3.575 1.978-4.665 3.52-.974 1.378-.573 3.382.612 4.256 1.033.758 1.998-.659 2.412-1.227 1.116-1.521 1.865-3.292 2.658-5.157.289-.737.573-1.474.862-2.21h-.082c-.595.271-1.198.547-1.797.818zM60.988 21.079c-2.24.965-3.434 1.895-4.502 4.01-.362.711-.698 2.215.082 2.74.72.487 1.598-.344 1.964-.654 1.245-1.065 3.003-3.063 3.683-4.623.401-.922-.37-1.486-1.227-1.473zM26.86 53.647c.271 0 .41.138.41.418v7.517c0 .28-.134.418-.406.418-.271 0-.405-.138-.405-.418v-6.165l-1.658 2.572c-.108.172-.233.254-.366.254-.142 0-.267-.086-.375-.258l-1.65-2.555v6.156c0 .28-.134.418-.405.418s-.405-.138-.405-.418v-7.521c0-.28.134-.418.405-.418.146 0 .267.069.358.21l2.072 3.21 2.085-3.23c.073-.13.19-.19.34-.19zM35.312 62c-.271 0-.405-.138-.405-.418v-7.517c0-.28.134-.418.405-.418.272 0 .405.138.405.418v7.521c0 .276-.133.414-.405.414zM44.165 54.065c0-.28.134-.418.405-.418.272 0 .405.142.405.418v7.103h2.835c.271 0 .405.138.405.418 0 .276-.134.414-.405.414h-3.24c-.271 0-.405-.138-.405-.418v-7.517zM57.063 55.37l-1.197 3.71h2.395l-1.198-3.71zm2.835 6.212c0 .276-.134.418-.4.418-.195 0-.324-.095-.384-.289l-.582-1.8H55.6l-.582 1.8c-.06.19-.19.289-.384.289-.267 0-.4-.138-.4-.418a.42.42 0 01.017-.134l2.408-7.465c.073-.224.207-.336.405-.336.194 0 .328.107.4.323l2.418 7.478a.593.593 0 01.017.134zM69.565 59.97v-5.905c0-.28.133-.418.405-.418.271 0 .405.138.405.418v7.517c0 .276-.134.418-.4.418a.374.374 0 01-.354-.216l-3.296-6.121v5.919c0 .28-.133.418-.405.418-.271 0-.405-.138-.405-.418v-7.517c0-.28.134-.418.405-.418.16 0 .285.082.375.245l3.27 6.079zM80.442 59.497V56.15c0-.47-.155-.866-.47-1.19a1.546 1.546 0 00-1.15-.486c-.452 0-.835.164-1.15.487-.314.323-.47.72-.47 1.189v3.347c0 .47.156.866.47 1.189.315.323.698.482 1.15.482.453 0 .836-.159 1.15-.482.315-.328.47-.72.47-1.19zm.81-.004c0 .693-.237 1.283-.71 1.77a2.297 2.297 0 01-1.72.733 2.313 2.313 0 01-1.719-.733 2.459 2.459 0 01-.71-1.77V56.15c0-.694.236-1.284.71-1.77a2.297 2.297 0 011.72-.733c.676 0 1.249.241 1.718.732.474.487.71 1.081.71 1.775v3.339z"/></g><defs><clipPath id="prefix__clip0"><path fill="#fff" d="M0 0h99.083v62H0z"/></clipPath></defs></svg>