<svg width="176" height="62" viewBox="0 0 176 62" fill="none" xmlns="http://www.w3.org/2000/svg">
<g opacity="0.4">
<g clip-path="url(#clip0)">
<path d="M75.987 21.4323C75.6418 22.3366 75.2966 23.2371 74.9514 24.1413C73.8295 26.8766 72.6101 30.306 70.8879 32.4822C69.6459 34.0506 67.9913 33.5478 66.7193 32.4447C66.1978 31.9907 65.6125 31.5667 65.1885 31.0189C64.3067 29.882 64.0066 27.627 64.7607 26.0999C65.9877 23.6161 68.3665 22.1565 70.7115 20.7907C71.597 20.2767 72.7977 19.984 73.5631 19.3312C74.1184 18.8547 75.8181 16.0143 75.2028 14.7686C75.1803 14.7349 75.154 14.6974 75.1315 14.6636C74.3023 14.7724 71.4507 17.3351 70.6778 17.9429C70.2538 18.2768 69.5972 19.1736 68.8618 19.0123C68.7905 18.9635 68.7192 18.9184 68.6479 18.8697C68.3177 17.5414 69.5484 17.0086 70.2163 16.3408C71.5895 14.9675 72.9178 13.204 74.5987 12.1722C75.0752 11.8795 75.6155 11.8195 76.1671 11.5681C76.9362 11.5569 77.2814 11.7632 77.773 11.9959C78.1894 12.1947 78.7222 12.3598 78.9849 12.7087C79.3751 13.2265 79.2175 14.2246 78.9849 14.8099C78.4821 16.0744 77.2927 17.8529 77.0601 19.1924C77.863 18.9485 79.7466 17.9542 80.2306 19.1924C80.1068 20.6707 76.6924 20.4681 75.987 21.4323ZM65.4023 9.49321C65.8488 8.38635 67.2484 6.66039 68.2164 6.07131C68.5016 5.9625 68.7867 5.85744 69.0719 5.74863C70.2388 5.72237 71.1993 6.59285 70.9254 7.88732C70.5915 9.4707 69.3195 10.8777 68.4303 11.9846C68.1414 12.341 67.5898 12.9639 66.8281 12.6975C65.8226 12.3448 64.8545 10.8515 65.4023 9.49321ZM114.547 20.4681C112.81 16.2357 109.215 13.6468 105.46 11.4143C96.691 6.20639 84.3166 3.89886 70.2838 4.00391C68.5616 4.08646 66.8394 4.16901 65.1172 4.2553C63.9165 5.91748 62.7158 7.5834 61.5189 9.24558C59.1664 12.5924 56.9414 16.0143 54.7464 19.5113C53.9397 20.7982 51.3883 24.1976 51.3958 25.8898C51.4296 25.9123 51.4671 25.9386 51.5009 25.9611C52.0299 26.0924 53.9847 23.7099 54.3525 23.2521C55.1141 22.4679 55.872 21.6837 56.6337 20.8995C57.5155 19.8039 59.6466 17.6615 60.9449 17.0874C62.0517 16.5997 63.4175 15.853 64.7232 16.6259C66.8957 17.9091 66.0064 19.2524 65.1847 21.1885C63.8602 24.3102 62.0742 27.3269 60.232 29.9908C59.5641 30.9589 59.2939 32.1183 58.2021 32.6623C57.0127 32.6098 55.6544 30.8051 56.206 29.5256C56.4574 28.9478 56.9451 28.5763 57.2753 28.0998C58.1308 26.6515 58.9863 25.1994 59.8418 23.7511C60.2432 23.1058 60.9411 22.4229 61.0537 21.5412V21.5036C61.0312 21.4924 61.0049 21.4811 60.9824 21.4699C60.1044 21.5562 58.9262 22.9407 58.4497 23.5373C56.7988 25.5071 55.1479 27.4807 53.497 29.4543C53.0242 30.0546 51.4408 32.0395 50.2552 31.7356C49.6436 31.578 49.2346 30.5011 48.9007 30.0246C48.5067 29.4618 46.5294 26.4001 46.6569 25.6422C46.7958 24.8055 47.1972 24.0551 47.5124 23.3271C49.486 18.7346 52.1312 14.7611 54.9603 11.0241C55.9246 9.88343 56.8851 8.7428 57.8456 7.60216C58.3071 7.10314 58.7724 6.60411 59.2377 6.10508C59.6767 5.66609 60.1382 5.18582 60.5772 4.74683C60.5734 4.74683 60.5659 4.74683 60.5622 4.74683C59.9168 4.67554 57.9169 5.12204 57.3128 5.24961C54.495 5.83868 51.8198 6.3152 49.2946 7.10314C42.2295 9.31311 34.9054 12.4011 31.1871 17.9016C30.3654 19.1211 29.675 20.4793 29.2623 22.1077C28.3693 25.6497 29.9189 28.899 31.3297 30.8763C33.6222 34.0844 37.0591 36.2868 40.7024 38.1479C41.6854 38.6507 42.6985 39.0821 43.7678 39.5399C44.053 39.6712 44.3381 39.8025 44.6233 39.9339C44.9685 39.8251 45.3137 39.72 45.6551 39.6112C46.8445 39.3485 48.0302 39.0897 49.2196 38.827C51.6472 38.298 54.1911 38.1629 56.7388 37.7239C57.6768 37.6413 58.6148 37.5588 59.5528 37.4725C61.2263 37.4125 62.9035 37.3524 64.5769 37.2962C65.665 37.1161 68.0438 37.2324 69.1019 37.4012C69.9574 37.4612 70.8128 37.5213 71.6683 37.5776C75.1015 38.1816 78.6772 38.3355 79.6152 41.3897C79.7991 41.99 79.9154 43.1382 79.2926 43.3145C78.317 43.5922 77.5816 42.5416 76.9775 42.3164C75.8031 41.8737 74.231 42.1138 72.8427 41.8887H66.7118C64.6557 41.9375 62.5995 41.9825 60.5471 42.0313C59.4778 42.0913 58.4085 42.1514 57.3391 42.2076C56.176 42.339 55.0091 42.4703 53.8459 42.5979C53.7671 42.7254 55.0804 42.8905 55.343 42.9543C56.8326 43.3145 58.4122 43.4083 60.0106 43.7385C62.2506 44.2 64.742 44.0537 67.1396 44.4514C68.0438 44.4739 68.9443 44.5002 69.8486 44.5227H74.4449C75.1202 44.5114 75.7994 44.5002 76.4747 44.4852C78.4821 44.3201 80.4895 44.155 82.4968 43.9861C82.0691 43.4871 81.6414 42.9881 81.2136 42.489C81.1198 42.3952 81.0223 42.2977 80.9285 42.2039C81.6864 41.6186 82.3805 39.7838 82.8533 38.8533C84.2566 36.103 85.5735 33.2176 86.808 30.2985C87.0331 29.762 88.2713 26.9141 87.9148 26.3438C87.6822 26.0737 87.202 26.4826 87.0256 26.629C86.8605 26.8541 86.6917 27.0792 86.5266 27.3044C86.005 27.8747 85.4797 28.445 84.9582 29.0153C84.3541 29.6156 83.615 30.2648 82.6056 30.4411C81.8928 30.5687 81.4275 30.0696 81.1461 29.7282C81.1198 29.6944 81.0073 29.4731 80.9322 29.5143C79.7691 30.1297 77.2252 32.6323 75.5142 30.7263C74.3473 29.428 75.4467 26.9892 75.9419 25.8448C77.0075 23.3872 78.7297 21.1735 81.1799 20.1079C81.7727 19.9165 82.3693 19.7289 82.9621 19.5375C83.2585 19.5 83.5549 19.4663 83.8513 19.4287C84.5305 19.1848 85.2846 18.3331 86.3802 18.7871C89.7871 20.1979 85.2921 24.3027 84.3841 25.4508C84.084 25.8298 83.3448 26.3964 83.5287 27.0905C83.5924 27.2256 83.6412 27.2781 83.7801 27.3419C84.2753 27.537 84.6956 26.9967 84.9207 26.7716C85.7574 25.9386 86.399 25.0118 87.0931 24.0288C89.1193 21.1509 90.7889 18.0104 92.6162 14.9037C93.4229 13.4291 94.2334 11.9583 95.0401 10.4838C96.9686 10.8139 97.3626 12.0409 96.6422 13.8681C95.5016 16.6972 94.3609 19.5225 93.2203 22.3516V22.3854C93.8469 22.1527 95.6554 20.2767 96.1056 19.7139C96.5146 19.2036 96.8861 18.5995 97.6403 18.4307C99.7339 17.9654 101.681 20.5206 101.239 22.8844C100.946 24.4415 100.128 25.796 99.4938 27.0905C99.2161 27.6571 98.8297 28.3362 98.8147 29.0866C98.8522 29.1091 98.8859 29.1354 98.9197 29.1579C99.6138 29.428 101.85 28.5913 102.413 28.3737C101.951 29.7507 101.205 30.8688 99.9178 31.4016C97.689 32.3246 96.1769 31.0264 95.5691 29.4768C95.449 28.929 95.3327 28.385 95.2127 27.8372C95.449 27.4094 95.6892 26.9817 95.9255 26.5539C96.1995 25.9273 96.3833 25.3308 96.6009 24.6291C96.736 24.1976 97.1862 23.2596 96.9574 22.7043C96.9461 22.6668 96.9349 22.633 96.9199 22.5992H96.7435C95.3215 23.9425 94.3872 26.0099 93.3216 27.6946C92.241 29.4055 91.1717 31.1277 90.1136 32.8987C89.7459 33.5291 89.3782 34.1594 89.0105 34.786C88.275 36.4857 87.7648 38.3092 87.1907 40.1327C86.823 41.2509 86.4553 42.3652 86.0876 43.4833C86.0988 43.4833 86.1063 43.4796 86.1176 43.4796C95.7079 42.0913 107.171 38.0278 111.996 32.0095C114.262 29.2142 116.506 25.2332 114.547 20.4681Z" fill="#00093C"/>
<path d="M70.7832 22.9629C69.2711 23.7358 67.6689 24.6851 66.7197 26.0283C65.8717 27.229 66.2206 28.9737 67.2525 29.7354C68.153 30.3958 68.9934 29.1613 69.3536 28.6661C70.3254 27.3416 70.9783 25.7995 71.6687 24.1748C71.9201 23.5332 72.1677 22.8916 72.4191 22.25H72.3478C71.83 22.4864 71.3047 22.7265 70.7832 22.9629Z" fill="#00093C"/>
<path d="M82.1183 22.3591C80.1672 23.1995 79.1279 24.01 78.1974 25.8523C77.8822 26.4714 77.5896 27.7808 78.2687 28.2386C78.8953 28.6626 79.6607 27.9384 79.9796 27.6683C81.064 26.7415 82.5948 25.0005 83.1877 23.6423C83.5366 22.8393 82.865 22.3478 82.1183 22.3591Z" fill="#00093C"/>
<path d="M52.3943 50.7246C52.6307 50.7246 52.7507 50.8447 52.7507 51.0886V57.6359C52.7507 57.8798 52.6344 57.9999 52.398 57.9999C52.1617 57.9999 52.0453 57.8798 52.0453 57.6359V52.2667L50.6008 54.5067C50.507 54.6568 50.3982 54.7281 50.2819 54.7281C50.158 54.7281 50.0492 54.653 49.9554 54.503L48.5184 52.278V57.6397C48.5184 57.8836 48.4021 58.0037 48.1657 58.0037C47.9293 58.0037 47.813 57.8836 47.813 57.6397V51.0886C47.813 50.8447 47.9293 50.7246 48.1657 50.7246C48.2933 50.7246 48.3983 50.7846 48.4771 50.9085L50.2819 53.7038L52.0979 50.8897C52.1617 50.7771 52.263 50.7246 52.3943 50.7246Z" fill="#00093C"/>
<path d="M59.7558 57.9999C59.5194 57.9999 59.4031 57.8798 59.4031 57.636V51.0886C59.4031 50.8447 59.5194 50.7246 59.7558 50.7246C59.9922 50.7246 60.1085 50.8447 60.1085 51.0886V57.6397C60.1085 57.8798 59.9922 57.9999 59.7558 57.9999Z" fill="#00093C"/>
<path d="M67.4666 51.0886C67.4666 50.8447 67.5829 50.7246 67.8192 50.7246C68.0556 50.7246 68.1719 50.8484 68.1719 51.0886V57.2758H70.6408C70.8772 57.2758 70.9935 57.3958 70.9935 57.6397C70.9935 57.8798 70.8772 57.9999 70.6408 57.9999H67.8192C67.5829 57.9999 67.4666 57.8798 67.4666 57.636V51.0886Z" fill="#00093C"/>
<path d="M78.7002 52.2254L77.6571 55.456H79.7433L78.7002 52.2254ZM81.1691 57.636C81.1691 57.8761 81.0528 57.9999 80.8202 57.9999C80.6513 57.9999 80.5387 57.9174 80.4862 57.7485L79.9797 56.1801H77.4245L76.918 57.7485C76.8655 57.9136 76.7529 57.9999 76.584 57.9999C76.3514 57.9999 76.2351 57.8798 76.2351 57.636C76.2351 57.5909 76.2389 57.5534 76.2501 57.5196L78.3475 51.0173C78.4113 50.8222 78.5276 50.7246 78.7002 50.7246C78.8691 50.7246 78.9854 50.8184 79.0492 51.006L81.1541 57.5196C81.1616 57.5534 81.1691 57.5909 81.1691 57.636Z" fill="#00093C"/>
<path d="M89.5887 56.2327V51.0886C89.5887 50.8447 89.705 50.7246 89.9414 50.7246C90.1778 50.7246 90.2941 50.8447 90.2941 51.0886V57.636C90.2941 57.8761 90.1778 57.9999 89.9452 57.9999C89.8063 57.9999 89.7013 57.9361 89.6375 57.8123L86.7672 52.4806V57.636C86.7672 57.8798 86.6508 57.9999 86.4145 57.9999C86.1781 57.9999 86.0618 57.8798 86.0618 57.636V51.0886C86.0618 50.8447 86.1781 50.7246 86.4145 50.7246C86.5533 50.7246 86.6621 50.7959 86.7409 50.9385L89.5887 56.2327Z" fill="#00093C"/>
<path d="M99.0624 55.8199V52.9046C99.0624 52.4956 98.9273 52.1504 98.6534 51.869C98.3795 51.5876 98.0455 51.445 97.6516 51.445C97.2576 51.445 96.9237 51.5876 96.6498 51.869C96.3759 52.1504 96.2408 52.4956 96.2408 52.9046V55.8199C96.2408 56.2289 96.3759 56.5741 96.6498 56.8555C96.9237 57.1369 97.2576 57.2757 97.6516 57.2757C98.0455 57.2757 98.3795 57.1369 98.6534 56.8555C98.9273 56.5704 99.0624 56.2289 99.0624 55.8199ZM99.7678 55.8162C99.7678 56.4203 99.5614 56.9343 99.1487 57.3583C98.7359 57.786 98.2369 57.9961 97.6516 57.9961C97.0662 57.9961 96.5672 57.7823 96.1545 57.3583C95.7418 56.9306 95.5354 56.4165 95.5354 55.8162V52.9046C95.5354 52.3005 95.7418 51.7864 96.1545 51.3625C96.5672 50.9347 97.0662 50.7246 97.6516 50.7246C98.2407 50.7246 98.7397 50.9347 99.1487 51.3625C99.5614 51.7864 99.7678 52.3042 99.7678 52.9083V55.8162Z" fill="#00093C"/>
</g>
</g>
<defs>
<clipPath id="clip0">
<rect x="29" y="4" width="86.298" height="54" fill="white"/>
</clipPath>
</defs>
</svg>
