<svg width="176" height="62" viewBox="0 0 176 62" fill="none" xmlns="http://www.w3.org/2000/svg">
<g opacity="0.4">
<path d="M171.717 13H0.485764C0.242882 13 0 13.2429 0 13.4858C0 13.7772 0.242882 13.9715 0.485764 13.9715H171.717C172.009 13.9715 172.203 13.7286 172.203 13.4858C172.252 13.2429 172.009 13 171.717 13Z" fill="#00093C"/>
<path d="M171.717 32.6245H0.485764C0.194305 32.6245 0 32.8674 0 33.1103C0 33.4017 0.242882 33.596 0.485764 33.596H171.717C172.009 33.596 172.203 33.3532 172.203 33.1103C172.252 32.8188 172.009 32.6245 171.717 32.6245Z" fill="#00093C"/>
<path d="M14.7187 20.4808C14.7187 18.2949 14.2815 16.4004 10.4925 16.4004H2.47743H2.42886H2.38028C2.04024 16.4004 1.79736 16.6918 1.79736 16.9833V29.8075C1.79736 30.1475 2.08882 30.3904 2.38028 30.3904H3.30323C3.64326 30.3904 3.88615 30.1475 3.88615 29.8075V18.3434C3.88615 18.2949 3.93472 18.2463 3.9833 18.2463H9.521C11.9498 18.2463 12.5327 18.4892 12.5327 20.6265V20.6751V20.7237C12.4842 22.7639 11.9012 23.0068 9.521 23.0068H8.54947H5.29486H5.19771C4.85767 23.0068 4.61479 23.2982 4.61479 23.5897V24.2212C4.61479 24.5612 4.90625 24.8041 5.24628 24.8041H10.3954H10.5411C14.4272 24.8041 14.7672 22.7639 14.7672 20.5294C14.7187 20.5294 14.7187 20.5294 14.7187 20.4808Z" fill="#00093C"/>
<path d="M115.758 25.0955H114.835C114.495 25.0955 114.252 25.387 114.252 25.6784V26.4071C114.252 28.0587 113.523 28.3987 110.026 28.3987H107.5C104.148 28.3987 104.002 27.1843 104.002 24.2697V20.6265C104.002 18.5377 105.071 18.1005 109.734 18.1005H110.949C113.717 18.1005 114.009 18.7806 114.009 20.3836V20.4322C114.009 20.7722 114.3 21.0151 114.592 21.0151H115.515C115.855 21.0151 116.098 20.7237 116.098 20.4322V20.3351C116.098 17.6148 115.32 16.2546 111.191 16.2546H109.443C105.119 16.2546 101.865 16.5947 101.865 20.7237V25.8728C101.865 28.8359 103.613 30.3418 107.062 30.3418H110.074C113.62 30.3418 116.34 30.0503 116.34 26.6985V25.8242C116.34 25.3384 116.098 25.0955 115.758 25.0955Z" fill="#00093C"/>
<path d="M46.0988 16.9833C46.0988 16.6433 45.8073 16.4004 45.5159 16.4004H44.5929C44.2529 16.4004 44.01 16.6918 44.01 16.9833V26.1642C44.01 28.3016 42.6499 28.3987 38.6666 28.3987C34.0033 28.3987 33.6147 28.0101 33.6147 26.1642V16.9833V16.8861C33.6147 16.5461 33.3232 16.3032 33.0317 16.3032H32.1088C31.7688 16.3032 31.5259 16.5461 31.5259 16.8861V16.9833C31.5259 16.9833 31.5259 16.9833 31.5259 17.0319V26.1156C31.5259 30.1961 34.6833 30.1961 38.7152 30.1961C43.2328 30.1961 46.1959 29.9046 46.1959 26.1156L46.0988 16.9833Z" fill="#00093C"/>
<path d="M101.185 16.3516H97.2985H97.2499H97.1527C96.8127 16.3516 96.5698 16.643 96.5698 16.9345V17.566C96.5698 17.906 96.8613 18.1489 97.1527 18.1489H100.99H101.136C101.476 18.1489 101.719 17.8574 101.719 17.566V16.9345C101.767 16.643 101.525 16.3516 101.185 16.3516Z" fill="#00093C"/>
<path d="M95.6466 16.9345C95.6466 16.5944 95.3551 16.3516 95.0637 16.3516H87.5343C87.1943 16.3516 86.9514 16.643 86.9514 16.9345V17.566C86.9514 17.906 87.2429 18.1489 87.5343 18.1489H93.4121C93.4606 18.1489 93.5092 18.1975 93.5092 18.246C93.5092 18.246 93.5092 18.246 93.5092 18.2946V29.4672V29.5643C93.5092 29.9044 93.8007 30.1472 94.0921 30.1472H95.0151C95.3551 30.1472 95.598 29.8558 95.598 29.5643V17.906V17.0316L95.6466 16.9345Z" fill="#00093C"/>
<path d="M22.9278 16.3032C18.896 16.3032 15.7385 16.3032 15.7385 20.3836V29.516C15.7385 29.516 15.7385 29.516 15.7385 29.5646V29.7103C15.7385 30.0503 16.03 30.2932 16.3214 30.2932H17.2444C17.5844 30.2932 17.8273 30.0018 17.8273 29.7103V24.6584V24.5126V24.464C17.8273 24.4155 17.8759 24.4155 17.9245 24.4155H18.0216H26.1824H26.231C26.2796 24.4155 26.3282 24.4155 26.3282 24.4155C26.4739 24.4155 26.571 24.3183 26.6682 24.2212C26.7654 24.124 26.8625 23.9783 26.8625 23.784V23.1525C26.8625 23.0068 26.8139 22.861 26.6682 22.7153C26.571 22.6181 26.4253 22.521 26.231 22.521H26.1824H18.1673H17.8759C17.8759 22.521 17.8759 22.521 17.8273 22.521C17.7787 22.521 17.7787 22.4724 17.7787 22.4238V22.2295V20.4322C17.7787 18.5377 18.1673 18.1977 22.8307 18.1977C26.8139 18.1977 27.9312 18.2949 27.9312 20.4322V29.5646V29.7589C27.9312 30.0989 28.2226 30.3418 28.5141 30.3418H29.437C29.7771 30.3418 30.02 30.0503 30.02 29.7589V20.3836C30.1657 16.5461 27.4454 16.3032 22.9278 16.3032Z" fill="#00093C"/>
<path d="M82.5313 17.0319C82.5313 16.6918 82.2398 16.449 81.9483 16.449H79.8596C79.6653 16.449 79.4709 16.5461 79.3738 16.7404L79.2766 16.9347L73.3503 27.6215L67.3755 16.9347L67.2297 16.6918C67.1326 16.5461 66.9383 16.449 66.744 16.449H66.6954L66.5497 16.4004H64.7523H64.6552C64.3152 16.4004 64.0723 16.6433 64.0723 16.9833V17.0319V29.4674V29.6131C64.0723 29.9532 64.3637 30.1961 64.6552 30.1961H65.481C65.821 30.1961 66.0639 29.9046 66.0639 29.6131V29.4188V18.6835L72.2817 29.8075L72.3302 29.9046C72.4274 30.0989 72.6217 30.2446 72.8646 30.2446H73.6904C73.9333 30.2446 74.1276 30.0989 74.2247 29.9046L80.4425 18.7321V29.516V29.6131C80.4425 29.9532 80.7339 30.1961 81.0254 30.1961H81.8998C82.2398 30.1961 82.4827 29.9046 82.4827 29.6131V29.4674V17.129L82.5313 17.0319Z" fill="#00093C"/>
<path d="M86.029 17.129V16.9833C86.029 16.6433 85.7375 16.4004 85.446 16.4004H84.5231C84.1831 16.4004 83.9402 16.6918 83.9402 16.9833V29.516V29.5646V29.6617C83.9402 30.0018 84.2316 30.2446 84.5231 30.2446H85.446C85.7861 30.2446 86.029 29.9532 86.029 29.6617V17.129Z" fill="#00093C"/>
<path d="M170.6 28.3499H162.293H161.71C161.662 28.3499 161.613 28.3013 161.613 28.2528V17.0316V16.9345C161.613 16.5944 161.322 16.3516 161.03 16.3516H160.107C159.767 16.3516 159.524 16.643 159.524 16.9831V29.1271V29.6129C159.524 29.9529 159.816 30.1958 160.107 30.1958H170.503H170.648C170.988 30.1958 171.231 29.9529 171.231 29.6129V28.9328C171.231 28.6414 170.94 28.3499 170.6 28.3499Z" fill="#00093C"/>
<path d="M157.97 28.3502H149.664H149.081C149.032 28.3502 148.984 28.3016 148.984 28.253V17.0319V16.9833C148.984 16.6433 148.692 16.4004 148.401 16.4004H147.478C147.138 16.4004 146.895 16.6918 146.895 17.0319V29.176V29.6617C146.895 30.0018 147.186 30.2446 147.478 30.2446H157.873H158.019C158.359 30.2446 158.602 30.0018 158.602 29.6617V28.9817C158.553 28.6416 158.31 28.3502 157.97 28.3502Z" fill="#00093C"/>
<path d="M131.108 16.4487H130.185C129.845 16.4487 129.602 16.6916 129.602 17.0316V21.7436V22.2293C129.602 22.2779 129.553 22.3265 129.505 22.3265H120.907H120.809C120.469 22.3265 120.227 22.6179 120.227 22.9094V23.5409C120.227 23.8809 120.518 24.1238 120.809 24.1238H128.873H129.505C129.553 24.1238 129.602 24.1724 129.602 24.2209V29.5643V29.6615C129.602 30.0015 129.893 30.2444 130.185 30.2444H131.108C131.448 30.2444 131.691 29.9529 131.691 29.6615V17.0316C131.691 16.6916 131.399 16.4487 131.108 16.4487Z" fill="#00093C"/>
<path d="M118.623 16.4487H117.7C117.36 16.4487 117.117 16.7402 117.117 17.0316V29.5643V29.6129V29.7101C117.117 30.0501 117.409 30.293 117.7 30.293H118.575C118.915 30.293 119.158 30.0501 119.158 29.7101V29.5643V17.1774V17.0316C119.255 16.6916 118.963 16.4487 118.623 16.4487Z" fill="#00093C"/>
<path d="M58.4377 28.3499H50.1312H49.5482C49.4997 28.3499 49.4511 28.3013 49.4511 28.2528V17.0316V16.9831V16.9345C49.4511 16.5944 49.1596 16.3516 48.8682 16.3516H47.9452C47.6052 16.3516 47.3623 16.643 47.3623 16.9831V29.1271V29.6129C47.3623 29.9529 47.6538 30.1958 47.9452 30.1958H58.292H58.4377C58.7777 30.1958 59.0206 29.9529 59.0206 29.6129V28.9328C59.0692 28.6414 58.7777 28.3499 58.4377 28.3499Z" fill="#00093C"/>
<path d="M144.466 22.2295H144.32H136.84H136.743C136.403 22.2295 136.16 22.521 136.16 22.8124V23.3953C136.16 23.7354 136.451 23.9782 136.743 23.9782H136.84H144.272H144.418C144.758 23.9782 145.001 23.6868 145.001 23.3953V22.8124C145.049 22.4724 144.758 22.2295 144.466 22.2295Z" fill="#00093C"/>
<path d="M145.535 17.6145V16.9345C145.535 16.5944 145.243 16.3516 144.952 16.3516H133.925H133.536C133.196 16.3516 132.953 16.643 132.953 16.9345V17.3231V28.9328V29.5643C132.953 29.9044 133.245 30.1472 133.536 30.1472H134.702V29.9044V30.1472H145C145.34 30.1472 145.583 29.8558 145.583 29.5643V28.9328C145.583 28.5928 145.292 28.3499 145 28.3499H136.257V28.5928V28.3499H135.285C135.236 28.3499 135.188 28.3013 135.188 28.2528V23.6866V18.246C135.188 18.1975 135.236 18.1489 135.285 18.1489H144.903H145C145.292 18.1975 145.535 17.9546 145.535 17.6145Z" fill="#00093C"/>
<path d="M173.369 29.127C173.612 29.127 173.952 29.1756 173.952 28.8355C173.952 28.5926 173.709 28.5441 173.515 28.5441H173.029V29.127H173.369ZM174.146 30.0499H173.903L173.417 29.3213H173.029V30.0499H172.835V28.3983H173.563C173.709 28.3983 173.855 28.3983 173.952 28.4955C174.098 28.5441 174.146 28.6898 174.146 28.8355C174.146 29.1756 173.903 29.2727 173.612 29.2727L174.146 30.0499ZM174.68 29.2241C174.68 28.4955 174.098 27.9612 173.417 27.9612C172.689 27.9612 172.155 28.5441 172.155 29.2241C172.155 29.9528 172.737 30.5357 173.417 30.5357C174.146 30.4871 174.68 29.9042 174.68 29.2241ZM171.96 29.2241C171.96 28.4469 172.592 27.7668 173.417 27.7668C174.243 27.7668 174.875 28.3983 174.875 29.2241C174.875 30.0499 174.243 30.6814 173.417 30.6814C172.592 30.6814 171.96 30.0014 171.96 29.2241Z" fill="#00093C"/>
<path d="M93.5093 35.9768H94.2379V39.0857H96.9582V39.7172H93.5093V35.9768Z" fill="#00093C"/>
<path d="M98.9014 35.9768H99.63V39.7658H98.9014V35.9768Z" fill="#00093C"/>
<path d="M101.524 35.9768H102.302L103.71 38.9885L105.168 35.9768H105.945L104.099 39.7658H103.322L101.524 35.9768Z" fill="#00093C"/>
<path d="M107.888 35.9768H111.288V36.6083H108.617V37.4827H110.9V38.1142H108.617V39.1343H111.337V39.7658H107.888V35.9768Z" fill="#00093C"/>
<path d="M116.097 35.9768H118.38C119.255 35.9768 119.838 36.2197 119.838 36.9483C119.838 37.4341 119.595 37.5798 119.4 37.7256C119.643 37.8227 119.983 38.1627 119.983 38.6485C119.983 39.3772 119.4 39.7658 118.477 39.7658H116.049V35.9768H116.097ZM118.429 37.4827C118.915 37.4827 119.109 37.3855 119.109 37.0455C119.109 36.7055 118.915 36.6083 118.429 36.6083H116.826V37.4827H118.429ZM118.429 39.1343C118.915 39.1343 119.255 39.0371 119.255 38.5999C119.255 38.2113 118.915 38.0656 118.429 38.0656H116.826V39.1343H118.429Z" fill="#00093C"/>
<path d="M121.829 35.9768H125.229V36.6083H122.558V37.4827H124.841V38.1142H122.558V39.1343H125.278V39.7658H121.829V35.9768V35.9768Z" fill="#00093C"/>
<path d="M128.484 35.9768H129.31L131.156 39.7658H130.379L129.99 38.8914H127.804L127.415 39.7658H126.638L128.484 35.9768ZM129.698 38.2599L128.921 36.5597L128.144 38.2599H129.698Z" fill="#00093C"/>
<path d="M136.596 38.1627C136.596 39.3772 135.819 39.8629 134.605 39.8629C133.39 39.8629 132.613 39.3772 132.613 38.1627V36.0254H133.342V38.1142C133.342 38.7457 133.585 39.2314 134.605 39.2314C135.625 39.2314 135.868 38.7457 135.868 38.1142V36.0254H136.596V38.1627Z" fill="#00093C"/>
<path d="M140.143 36.6083H138.442V35.9768H142.571V36.6083H140.871V39.7658H140.143V36.6083Z" fill="#00093C"/>
<path d="M144.466 35.9768H145.194V39.7658H144.466V35.9768Z" fill="#00093C"/>
<path d="M147.526 35.9768H150.975V36.6083H148.255V37.4827H150.586V38.1142H148.255V39.7658H147.526V35.9768Z" fill="#00093C"/>
<path d="M156.852 38.1627C156.852 39.3772 156.075 39.8629 154.861 39.8629C153.646 39.8629 152.869 39.3772 152.869 38.1627V36.0254H153.598V38.1142C153.598 38.7457 153.841 39.2314 154.861 39.2314C155.881 39.2314 156.124 38.7457 156.124 38.1142V36.0254H156.852V38.1627Z" fill="#00093C"/>
<path d="M158.748 35.9768H159.476V39.0857H162.196V39.7172H158.748V35.9768Z" fill="#00093C"/>
<path d="M164.091 35.9768H164.819V39.0857H167.54V39.7172H164.042V35.9768H164.091Z" fill="#00093C"/>
<path d="M169.58 38.2599L167.734 35.9768H168.657L169.968 37.5798L171.28 35.9768H172.203L170.357 38.2599V39.7658H169.628V38.2599H169.58Z" fill="#00093C"/>
</g>
</svg>
