<svg width="176" height="62" fill="none" xmlns="http://www.w3.org/2000/svg"><g opacity=".4"><g clip-path="url(#prefix__clip0)"><path d="M30.7 15.4c.1.2-.1.5.1.6l-.1 1.5.1.1c-.2.1-.1.3-.1.4.1.2.3.2.5.3.1-.5.3.1.6-.1.2.2 0 .5.2.6 0 .2.2.3.1.5h.1c-.2.1 0 .4-.2.4 0 .3-.1.5-.1.8.2.1.1.3.3.4.3-.2.7-.4.7-.9l.2-.1c0 .2.1.5-.1.5-.1.3-.4.7-.1 1 0 .2.1.3.2.4 0 .3.2.5.1.8.1.1.1.3.2.4.2.1.3-.2.5-.3 0-.3.2-.3 0-.5.1-.3 0-.7-.3-.8 0-.2-.1-.3-.2-.4 0-.1.1-.2-.1-.3.2-.3.1-.8.1-1.2-.2 0-.3 0-.3-.2.1-.2-.2-.3-.1-.5-.2-.1 0-.3-.2-.4.1 0 .2-.2.3 0l.1.1c.2 0 .1-.3.3-.4 0-.2 0-.3.1-.4.2.3.4-.1.7 0l.1-.1c.2.3.1.9.1 1.3-.2-.1-.3 0-.4.2.2.2.1.5.1.8-.1.3-.6.3-.4.7 0 .2.2.3.3.5.3.1.1.6.5.7 0 .2.1.4-.1.5-.1.2.1.2.2.3 0-.3.3-.4.4-.6.1-.2.2-.4.3-.5 0-.1 0-.2.1-.2 0-.2.1-.6-.1-.8 0-.3-.3-.7 0-1 0-.2.2-.2.1-.4-.2-.3-.3.2-.4-.1-.2-.2 0-.7-.2-.9-.1-.2.2-.1.1-.3.3 0 .1.6.4.7.3 0 .3-.4.5-.6.1.1.2.2.2.3l-.1.1c.3.1.4-.1.6-.1.2-.1.1-.4.2-.7-.1-.1-.3 0-.4-.1-.1.1 0 .3-.2.2-.1-.3-.5.1-.5-.3-.3-.1 0-.4-.2-.5 0-.3.4-.1.4-.4.2-.1.2.1.4.2.2-.2-.1-.4-.1-.7h.2c0 .3.2.5.1.8.2.1 0 .3.2.4.1-.2.1-.5.1-.7-.2-.2-.1-.5-.1-.8 0 .3.2.5.2.8l.2.2c0-.2.3 0 .4-.1 0-.3.1-.5.3-.7.3.3 0 1 .2 1.4.2-.2.3-.7.8-.6 0-.1.1-.1.2-.1.2.2.2.4.4.5l.1-.5c.2 0 .3.1.3.1v1.1c-.2 0-.3.2-.5.4v.2h-.4c-.1.3.1.7-.2.8-.1-.5-.8-.1-.9-.6-.2-.2-.4.1-.6.1-.1.1-.4.2-.4.4 0 .1.2 0 .2.2-.1.2-.5 0-.7.2-.2-.1-.2.2-.4.1-.3.2-.1.5-.1.8.1.1.2.2.2.4.2.1.6 0 .7.2.3-.1.5-.4.6-.7.3-.2.6-.3.7-.6.2.1.1-.2.3-.1-.1.2-.5.2-.5.5-.4.3-.5.7-.9.9-.1.1-.3.1-.5.1-.3.1-.3.5-.6.6-.1.2-.2.3-.3.5.3.8-.7.2-.6.8.3.1.4-.2.7-.1l.1-.1c.5-.1 1.2.3 1.4-.2h.1c.3-.3.6-.7 1-.8.2-.2.5-.3.6-.6 0-.2 0-.4.2-.4.1-.1.3-.1.5-.1.2.2.5.1.8.1.2-.2.6-.3.5-.8.1 0 .2-.2.3-.2.2.3-.2.3-.1.7 0 .1 0 .2.2.2.5-.1.9-.5 1.5-.4.1-.1.1-.3 0-.4-.1-.1-.4 0-.5-.2-.2.2-.3.2-.5.1-.1-.3-.8.1-.6-.4-.1 0 0-.2-.1-.3.3-.1.1-.4.4-.4.1.2.5 0 .7.2.2.1.2-.1.2-.2v-.1c.2.2.1.5.2.7.1-.2.2-.4.3-.5 0-.3-.4-.4-.4-.6-.2-.1-.1-.3-.3-.4-.1-.2-.6.1-.6-.3-.1-.1-.2 0-.3.1-.1.3-.1.6-.4.8.1.4-.2.6-.2 1l-.1.1c0-.1-.1-.1-.2-.1-.1.2-.3.2-.5.2-.1-.2-.3-.3-.2-.6-.2-.1-.1-.3-.1-.5.2.1.2.4.4.6.2-.2.1-.7.2-1 .3.2 0 .6.2.8v.2c.2-.2.1-.5.3-.6 0-.3-.1-.8.1-1-.1-.3.2-.3.1-.5.1-.1.2 0 .2.1.2-.2-.1-.6.2-.7.2.2.5.1.6.4.1.2.2.5.2.7 0 .1.1 0 .2 0 0-.2.1-.6 0-.8 0 0 .3-.1.3.1s0 .3.2.4l.1-.3c.1 0 .3.1.2.3-.2.2-.1.5-.1.7.2-.1.3-.2.5-.3.1.1-.2.5.1.6h.1c-.3 0-.5 0-.7.3 0 .2-.1.6.3.5 0 .3-.1.5-.2.8-.1 0-.1.1-.1.2l.2.1c.2-.1.3-.2.5-.4v-.1c.1.2-.1.3-.2.5-.3.1-.5.3-.8.2-.1.2-.5 0-.6.2-.2.1-.4 0-.5.2-.2-.1-.2.1-.3.1v.1c.8.1 1.6 0 2.4.1-.3 0-.6.2-1 .1 0 .2-.2 0-.3.2.1.3.3.3.5.4.2 0 .5 0 .7.1-.2.1-.6-.1-.8.1-.2-.1-.2.2-.4.1-.3-.3-.4-.6-.8-1h-1.4c-.1.1-.1.2-.3.2-.1-.2-.4-.1-.6-.1-.1.4-.6.4-.8.8-.4.1-.7.5-1 .8-.2 0-.3.2-.5.3-.6-.2-1 .2-1.6 0 0 .3-.3 0-.4.2-.2-.1-.3.2-.5.2-.2.1-.5.1-.6.4-.1.1-.1.3-.1.5.2 0 .1.2.1.3l.6.3.2-.1c.2.2.8 0 .9.2.3 0 .5.1.8.1.1.2.4.1.6.1.2-.1.4-.1.6-.4 0-.1.1-.3.3-.2.2.3.5.4.8.3l.1-.1c.2.1.5.2.7.2 0 .2.3 0 .4.2.2.1.5-.1.6.1.1 0 .3.1.4-.1h1c.3.1.8.1 1.2.1.2.3.7 0 .8.3-.3 0-.6.1-.8-.1-.2 0-.5.1-.6-.1-.3 0-.6-.1-.8.1l-1.6-.1c-.1-.2-.3-.1-.5-.2-.1.1-.1.3-.3.2-.1-.2-.3-.1-.5-.1-.1.2-.5 0-.7.2-.3 0-.5-.3-.7 0-.2 0-.4 0-.5-.1-.1.2-.6-.1-.6.3-.2-.1-.5-.3-.7-.2-.2-.2-.8 0-1-.2-.3.1-.3-.3-.5 0-.3.1-.4-.3-.6 0-.3 0-.7-.1-1 0 0-.2-.3-.1-.4-.1-.1.2-.3.2-.5.3 0-.2-.2-.1-.3-.1 0 .2-.2.1-.3.1v-.6h.3c0-.2.3 0 .3-.2.1 0 .3.1.4-.1h.6c.2-.3.6-.4.5-.9-.1-.2-.2-.3-.3-.5.2-.6-.5-.9-.8-1.2-.2-.1-.4-.1-.5-.2-.1-.1-.2-.1-.3-.3V21s.1 0 .1.1c.3 0 .5.1.7.2.4-.2.4.5.7.2-.1-.4-.6-.6-.8-1 0-.2 0-.4-.1-.5-.7.4-.6 0-.8 0v-.3c.3.2.2.7.6.9.2-.2.3-.6.3-.9-.3 0-.5-.7-.7-.2 0-.1-.1-.1-.2-.1 0 .2-.3 0-.3.2l.1-4.2z" fill="#00093C"/><path d="M30.6 15.4l-.1 4.1h.4v-.1l.1.1.1-.1c.1-.1.1-.2.1-.2.1 0 .1.1.2.2s.2.2.3.2v.1c0 .3-.1.5-.2.7-.1-.1-.2-.2-.3-.4-.1-.2-.1-.3-.3-.4l-.1-.1v.5h.1c.1 0 .1.1.1.2s.1.2.1.2v.5c.1.2.2.3.4.5s.3.3.4.5c-.1 0-.1 0-.2-.1s-.2-.2-.4-.2c-.2-.1-.4-.2-.7-.2l-.2-.2V21.8h.1c.1 0 .2.1.2.1l.1.1.3.1.3.1.2.2c.3.2.6.4.6.8v.2l.3.5v.2c0 .2-.1.3-.2.4l-.2.2h-.6-.5v.1c-.1 0-.1 0-.2.1-.3 0-.4 0-.4.1v.7h.2c.1 0 .2 0 .2-.1h.1c.1 0 .1 0 .1.1v.1h.1l.2-.1c.1 0 .2-.1.3-.2H31.9v.1l.1-.1c.2-.1.4-.1.7-.1h.3c.1-.1.1-.1.2 0s.2.1.4.1c0-.1.1-.1.1-.1l.1.1c.1.1.2.1.3.1.1.1.3.1.5.1s.4 0 .5.1c.2-.1.4 0 .6.1l.1.1v-.1c0-.1.1-.1.3-.1.1 0 .2 0 .3-.1.1.1.2.1.3.1h.2c.1-.1.2-.1.3 0l.4.1c0-.1.1-.1.3-.1.1 0 .3 0 .4-.1h.2c.1 0 .2 0 .2.1.2.1.3-.1.3-.1.1 0 .2.1.2.1.1 0 .2 0 .2.1l1.7.1c.1-.1.3-.1.5-.1h.3c.1.1.2.1.4.1h.2c.2.2.5.1.8.1h.2V26c-.1-.2-.3-.2-.5-.2-.1 0-.3 0-.4-.1h-.4c-.3 0-.6 0-.8-.1H40.2c0 .1-.1.1-.2.1h-.1c-.1-.1-.3-.1-.4-.1h-.2c-.1-.1-.2-.1-.2-.1H39c-.3 0-.5-.1-.7-.2l-.1.1c-.3 0-.6-.1-.7-.3-.1-.1-.2-.1-.3 0-.2-.1-.2 0-.2.1-.1.1-.2.1-.3.2 0 0-.1.1-.2.1h-.1c-.2 0-.3 0-.4-.1l-.3-.1c-.2 0-.4-.1-.6-.1-.1-.1-.3-.1-.5-.1s-.3 0-.4-.1l-.2.1-.4-.2s-.1 0-.1-.1v-.1c0-.1 0-.1-.1-.1 0-.2 0-.3.1-.4.1-.1.2-.2.3-.2l.2-.1c.1 0 .2-.1.3-.1.1-.1.1-.1.2-.1h.1v-.1h.1c.1 0 .2 0 .2-.1.3.1.6 0 .8 0 .2 0 .5-.1.8 0l.3-.1.2-.1.3-.3c.2-.2.4-.4.7-.5.1-.2.2-.3.4-.4.2-.1.3-.2.4-.4h.2c.2 0 .2 0 .3.1.2 0 .2-.1.3-.1v-.1H41l.4.4.4.5c.2 0 .2 0 .3-.1.1 0 .1-.1.1 0h.1c.1-.1.2-.1.3-.1h.4l.1-.1-.1-.1c-.2-.1-.4-.1-.6-.1h-.1c-.2-.1-.4-.2-.5-.4h.1c.1 0 .1 0 .2-.1.2 0 .4 0 .5-.1l.4-.1v-.1h-1.1c-.4 0-.9 0-1.3-.1l.1-.1c0-.1 0-.1.1 0h.1v-.1c.1-.1.2-.1.3-.1l.3-.1s.1-.1.2 0c.1 0 .3 0 .4-.1.3.1.5 0 .7-.1h.1l.1-.1c.1-.1.2-.3.1-.5H43v.1c-.1.1-.2.2-.4.3l-.1-.1v-.1h.1l.1-.3c0-.1.1-.3.1-.5v-.2H42.5c-.1 0 0-.2 0-.3v-.1c.1-.2.3-.2.5-.2h.2v-.1c0-.1-.1-.1-.2-.1h-.1V18v-.3l-.3.2s-.1.1-.2.1v-.2c0-.1 0-.3.1-.4v-.1-.1c-.1-.1-.2-.1-.2-.1s-.1.1-.1.2c-.2-.1-.2-.1-.2-.3 0-.1-.1-.2-.2-.2h-.3v.1c0 .1.1.1.1.2s0 .3-.1.4h-.1c0-.3-.1-.5-.2-.7-.1-.2-.2-.2-.4-.3-.1 0-.2-.1-.2-.1-.1.1-.2.1-.2.2v.5l-.1-.1h-.2v.2s0 .1-.1.1c0 0-.1.1-.1.2v.1c-.1.2-.1.4-.1.6v.5c-.1.1-.1.2-.2.3 0 .1 0 .1-.1.1-.1-.1-.1-.1-.1-.2v-.2c0-.1 0-.3-.2-.4l-.1-.1v.1l-.1.5c0 .1 0 .3-.1.4 0-.1-.1-.1-.1-.2s-.1-.3-.3-.3h-.1v.4c0 .1 0 .2.1.2v.1c0 .2.1.3.2.4l.1.1c.3 0 .4 0 .6-.2 0 0 .1 0 .1.1v.1l.2-.2v-.1c0-.1 0-.2.1-.3 0-.1.1-.2.1-.4v-.1c.2-.1.3-.3.3-.5l.1-.2c.1 0 .1-.1.1 0 .1.2.2.2.4.2.1 0 .2 0 .2.1.1.1.1.1.1.2 0 0 .1.1.1.2 0 .2.1.3.2.4.1.1.2.1.2.2l-.2.3v-.1c0-.2 0-.3-.2-.5l-.1-.1v.2l-.1.1v.1c.3-.4.2-.4 0-.4-.1 0-.2 0-.2-.1-.2 0-.2.1-.3.2 0 .1-.1.2-.1.2h-.1v.6l.1.1c-.1 0-.1.1-.2.1l-.1.1v.2c0 .2-.1.3-.3.4 0 0-.2.1-.2.2h-.3c-.2 0-.4 0-.4-.1-.2 0-.4 0-.6.1-.2 0-.2.3-.2.4l-.3.3s-.3.2-.3.3c-.3.1-.5.3-.7.5l-.2.2h-.1c-.2.3-.5.3-.8.2h-.6v.1c-.1 0-.2 0-.3.1-.1 0-.1.1-.2 0V23c0-.1.2-.1.3-.1.1 0 .3 0 .4-.2v-.1c0-.1 0-.1-.1-.2l.1-.2s.1-.2.2-.3l.3-.3c.1-.1.1-.2.3-.3.2 0 .4 0 .5-.1.2-.1.4-.3.5-.5l.4-.5c0-.1.1-.2.2-.3.1-.1.2-.1.3-.2v-.1h-.1c-.2-.1-.2 0-.3.1h-.2v.1c-.1.2-.3.3-.5.5l-.2.2c-.1.3-.3.5-.5.7-.1-.1-.2-.1-.4-.1h-.3c0-.2-.1-.3-.2-.4v-.2-.3c0-.1 0-.2.1-.2h.4c.1-.1.2-.1.3-.1.1 0 .3 0 .4-.1v-.1-.1c0-.1-.1-.1-.1-.1h-.1c0-.1.1-.1.2-.2l.2-.1.2-.1c.1-.1.2-.1.3 0 0 .2.3.3.4.3.2 0 .4.1.4.2v.1h.1c.1-.1.2-.2.2-.4v-.1-.3h.4v-.2l.1-.1c.1-.1.2-.2.4-.3h.1v-1.2c-.1-.1-.2-.2-.4-.2 0 0-.1.3-.1.4 0-.1-.1-.1-.1-.2l-.2-.2c-.1-.1-.2 0-.3.1-.4-.1-.5.2-.6.4v.1-.1-.3-.3c0-.2 0-.4-.2-.6l-.1-.1-.1.1c-.1.2-.2.4-.3.7h-.4l-.1-.1c0-.1-.1-.3-.1-.4l-.1-.4h-.1v.5c0 .1 0 .2.1.3V17.1s0-.1-.1-.1v-.1c0-.1 0-.2-.1-.3 0-.1-.1-.2-.1-.3v-.2h-.4v.1c0 .1 0 .2.1.3v.2c-.1-.1-.2-.2-.4-.1v.1c0 .1 0 .1-.1.1s-.2.1-.2.3c0 0 .1.1.1.2v.1c0 .1 0 .2.1.3v.1c.1.1.2.1.2.1.1 0 .2 0 .2.1h.2c.1 0 .1-.1.1-.1v-.1h.2V18.1c0 .1 0 .2-.1.3l-.2.1c-.1.1-.2.1-.2.1v-.1c0-.1-.1-.2-.1-.2l-.1-.2v.1l-.1.3c-.1.2-.1.3-.3.3-.1 0-.1-.1-.1-.3 0-.2 0-.4-.3-.4h-.1l.1.1-.1.1v.1c.1.1.1.2.1.4s0 .4.1.5c0 0 0 .1.1.2H35v.1l-.1.2v-.1c-.1.1-.1.2-.1.3 0 .1 0 .3.1.4l.1.4c.1.1.1.2.1.3v.5c-.1-.1-.1-.1-.1 0l-.1.2-.2.3c0 .1-.1.2-.2.3l-.2.2s-.1 0-.1-.1c.1 0 .1-.2.1-.3V21.9c-.1-.1-.2-.2-.2-.3 0-.1-.1-.3-.3-.4 0-.1-.2-.3-.2-.3l-.1-.2v-.1c0-.1.1-.2.2-.3l.2-.2v-.2-.3c0-.1 0-.2-.1-.3.1-.1.1-.2.3-.1h.1v-.4c0-.4.1-.8-.1-1v-.1l-.1.1c-.1 0-.3 0-.3.1-.1.1-.2.1-.3 0v-.1l-.1.1c-.1.1-.2.2-.2.3v.1c0 .1-.1.2-.1.2 0 .1 0 .1-.1.1l-.1-.1-.1-.1c-.1 0-.1 0-.2.1l-.2.1h.1s.1 0 .1.1v.2c0 .1 0 .1.1.2v.1c0 .1.1.2.1.2l.1.1v.1c.1.1.2.2.3.2v.5c0 .2 0 .4-.1.5l-.1.1h.1V21.2c.1.1.2.2.2.4v.1c.2.1.2.3.2.5v.2c0 .1.1.1.1.1v.4l-.1.1c-.1.1-.2.2-.3.1-.1 0-.1-.1-.1-.2 0 0-.1-.1-.1-.2v-.2c0-.1 0-.2-.1-.4l.1-.1c-.1-.1-.1-.2-.1-.3-.1-.1-.1-.2-.1-.2 0-.1.1-.2.1-.4l.1-.3c.1-.1.1-.2.1-.3v-.4l-.1-.1-.2.1c.1.4-.3.6-.6.8l-.1-.1s-.1-.1-.1-.2v-.2c0-.2.1-.3.1-.5v-.1c.1 0 .1-.1.1-.2v-.1c0-.1 0-.1.1-.1l.2-.1-.2-.1v-.1c0-.1 0-.2-.1-.3l-.1.1c-.1-.1-.1-.2-.1-.3 0-.1 0-.3-.1-.4h-.1c-.1 0-.2 0-.3-.1-.1 0-.2-.1-.2-.1-.1 0-.1.1-.1.1H31c-.1 0-.2-.1-.2-.2v-.1-.1c0-.1 0-.1.1-.1h.1l-.2-.1c0-.1.1-1.5.1-1.5s-.1-.1-.1-.2V15.5l-.2-.1zm.1 2.2v0zm3.5.4c.1.1.1.3.1.4V19c-.2 0-.3.1-.4.2.1.1.1.2.1.3v.5l-.2.2c-.1.1-.3.2-.3.4v.2l.1.2.1.3c.1.1.2.2.2.3 0 .1.1.3.2.4V22.3c0 .1 0 .1-.1.1v.1c0 .1.1.1.1.2l.2.2-.1.3h.1c.2.1.3 0 .4 0 .1 0 .2-.1.3 0h.1s0-.1.1-.1h.5c.3 0 .7.1.9-.3h.1l.3-.2c.2-.2.4-.4.7-.5l.3-.2c.1-.1.3-.2.4-.3v-.1c0-.2 0-.3.1-.3.1-.1.3-.1.5-.1.1.1.3.1.5.1h.3l.2-.2c.1-.1.3-.2.3-.5v-.1l.1-.1c0-.1.1-.1.1-.1v.1s0 .1-.1.1c0 .1-.1.1-.1.3V21c0 .1.1.1.2.2h.1v.2h.1c.5.1.9.1 1.4.1h.4-.4v.1s-.2 0-.2.2c.1.3.3.4.5.5-.1 0-.2 0-.3.1-.1 0-.1.1-.1.1l-.3-.4-.4-.5h-1.5l-.1.1-.1.1c-.1-.1-.3-.1-.4-.1h-.3v.1c-.1.2-.2.3-.4.4-.1.1-.3.2-.4.4-.3.1-.5.3-.7.5l-.5-.1-.3.1-.2.1c-.3-.1-.6 0-.8 0-.3 0-.5.1-.8 0h-.1v.1c0 .1 0 .1-.1.1s-.2 0-.2.1c-.1 0-.2 0-.3.1-.1.1-.1.1-.2.1l-.2.1c-.2.1-.3.1-.4.3-.1.1-.1.3-.1.5v.1s.1 0 0 .1v.1h.1l.2.1.5.2.1-.1c.1.1.3.1.5.1s.3 0 .4.1c.2 0 .4 0 .6.1 0 0 .2 0 .2.1.1.1.3.1.5.1h.2l.2-.1c.1-.1.3-.1.4-.3 0-.1 0-.1.1-.2h.1c.2.2.5.4.9.3l.1-.1c.2.1.4.2.7.2l-.1.1-.1.1c-.1-.1-.2-.1-.3-.1h-.2c0 .1-.1.1-.3.1-.1 0-.3 0-.4.1l-.2-.1c-.1-.1-.3-.1-.4 0h-.2c-.1 0-.2 0-.2-.1l-.1-.1-.1.1h-.2c-.1 0-.3 0-.4.2-.2-.1-.4-.2-.7-.1-.1-.1-.3-.1-.5-.1s-.4 0-.5-.1c-.1 0-.1 0-.2-.1 0 0-.1-.1-.2-.1s-.1.1-.1.1c-.1 0-.2 0-.2-.1-.1-.1-.2-.1-.4 0h-.2c-.3 0-.5 0-.7.1-.1-.1-.2-.1-.3-.1h-.1c-.1.1-.2.1-.3.2 0 0-.1 0-.2.1-.1-.1-.1-.1-.2-.1h-.1s0 .1-.1 0V25h.3v-.1H31.4v-.1h.1c.1 0 .2 0 .3-.1h.6l.2-.2c.1-.1.3-.3.3-.5v-.2s-.2-.4-.3-.5v-.2c0-.4-.3-.7-.6-.9l-.2-.2-.3-.1-.3-.1-.1-.1-.2-.1v-.2c.2 0 .5.1.7.2.2-.1.2 0 .3.1.1.1.2.3.5.1-.1-.3-.3-.5-.4-.6-.1-.1-.2-.3-.3-.4v-.1c0-.1 0-.2-.1-.3v-.1c-.1 0-.1-.1-.1-.2s-.1-.2-.2-.3v-.1c0 .1.1.2.1.2.1.2.2.4.4.5h.1c.2-.3.3-.6.3-1v-.1h-.1c-.1 0-.2-.1-.2-.2-.1-.1-.2-.2-.3-.2-.1 0-.1.1-.2.2l-.1-.1h-.2v.1h-.2v-1.3c.1.2.2.2.3.2l.2.1V18v-.1l.1.1c.1.1.2.1.4.1 0 .1.1.1.1.2s0 .2.1.3l.1.2c0 .1.1.1.1.2v.2s-.1.1-.1.2v.1c0 .1 0 .1-.1.1H32v.2c0 .2 0 .3-.1.5l-.1.2.1.1c0 .1.1.2.2.2h.1c.3-.2.7-.4.7-.8v.1c0 .1 0 .2-.1.2l-.1.3c-.1.1-.1.3-.1.4 0 .1 0 .2.1.3 0 .2.1.3.2.4l.1.3c0 .1.1.2.1.3v.2l.1.1c0 .1.1.2.2.3.2.1.4-.1.4-.2l.1-.1v-.4s0-.1-.1-.2v-.2c0-.3-.1-.5-.3-.6 0-.2-.1-.3-.2-.4v-.1c0-.1 0-.1-.1-.2.1-.2.1-.3.1-.5v-.7h-.1c-.1 0-.2 0-.2-.1v-.1c0-.1-.1-.2-.1-.2l-.1-.1v-.1l.1-.1h-.1v-.1-.1c0-.1 0-.1-.1-.1h.1l.1.1c.2 0 .2-.1.2-.2l.1-.2v-.1c0-.1 0-.1.1-.2.1.1.3.1.4 0 .2.3.3.2.5.3-.1 0 0 0 0 0zm6.5 2c.1 0 .2 0 .3.1.2.1.4.2.6 0 .1.1.2.1.2.1h.2c.1 0 .1 0 .1.1 0 0 0 .1-.1.2-.4 0-.7.1-1 .3 0 0-.4.2-.5.2-.1 0-.1-.1-.1-.1v-.1c0-.1 0-.1.1-.2 0-.1.1-.1.1-.2.1-.2.1-.3.1-.4-.1 0-.1 0 0 0-.1 0 0 0 0 0zm2.2.2c0 .1 0 .1 0 0l-.1.1h-.1-.1c.2.1.3 0 .3-.1zm-3.6 5.4c-.1 0-.1 0 0 0zm.2.1h.1c.1 0 .2 0 .3.1-.1 0-.4 0-.4-.1 0 .1 0 0 0 0zm1.9 0c-.1 0-.2 0-.3.1h-.8l.1-.1h1zm.9.1h.3c.1.1.3.1.4.1h.2c-.2 0-.5.1-.6-.1 0 .1-.2.1-.3 0 0 .1-.1 0-.2 0h.2zM37 20.3c.1-.1.2-.1.3-.2l-.4.4-.3.3c.1-.1.2-.3.2-.4-.1.1.2-.1.2-.1zm-1.1-4.2c0 .1 0 .2.1.3 0 .1.1.1.1.2v.2h.1s.1 0 .1.1v.1c0 .1 0 .1.1.2h.1v-.1c.1-.1.1-.3.1-.5v-.2l.3.3v-.1h.5v-.1c0-.2.1-.4.2-.6 0 .1.1.2.1.4v1.2l.1-.1.2-.3c.1-.3.2-.4.5-.3h.1v-.1c0-.1 0-.1.1-.1l.1.2c.1.1.1.2.3.3l.1.1s.1-.5.1-.6c.1 0 .1 0 .2.1v1c-.2 0-.3.2-.4.3l-.1.1v.1h-.4v.7c-.1-.2-.3-.2-.5-.2s-.3-.1-.3-.2c-.2-.1-.3-.1-.5 0l-.2.1-.2.1c-.1.1-.3.1-.3.3 0 .1.1.1.2.1 0 .1-.1.1-.3.1-.1 0-.3 0-.4.1h-.4c-.1.1-.2.2-.2.4 0 .1 0 .2.1.3v.2c.1.1.1.2.1.3v.1c.1.1.2.1.4.1h.2-.1c-.2.1-.3.2-.4.3-.1.1-.1.2-.3.3l-.2.3-.2.3c0 .1.1.2.1.2v.1c0 .1-.1.1-.3.1-.1 0-.2 0-.3.1v-.1c0-.1.1-.2.2-.3.1-.1.2-.2.2-.3l.1-.3.1-.2c0-.1 0-.1.1-.2v-.4-.2c0-.1 0-.3-.1-.4l-.1-.4c0-.1-.1-.2-.1-.3 0-.1 0-.2.1-.2V19s.1-.1.1-.2v-.1l-.1-.1-.2.1v-.1c-.1-.1-.1-.2-.1-.3v-.2c0-.1 0-.3-.1-.4l.1-.1v.2c0 .2 0 .3.2.4.3 0 .4-.2.4-.4 0 0 0-.1.1-.2 0 .1.1.1.1.1l-.1.1-.1.1h.1c.2.1.4 0 .5-.1l.2-.1c.2-.1.2-.3.2-.5v-.3c-.1-.1-.2-.1-.3-.1h-.2l-.1.2v.1c-.1-.1-.2-.1-.3-.1h-.1v-.2h-.1c-.1 0-.1 0-.1-.1v-.1c0-.1 0-.2-.1-.2 0-.1 0-.1.1-.1s.2-.1.2-.2c.1 0 .1 0 .1.1l.2.2v-.1c0-.1.1-.1.1-.2s0-.2-.1-.2c0-.1-.1-.1-.1-.2.2.4.3.4.3.4zm4.6 1.2c.1-.1.1-.2.1-.3v-.2-.1s0-.1.1-.1c.1.1.2.1.2.1.1 0 .2.1.3.2.1.2.1.4.2.7v.1H41.7c0-.1.1-.3.1-.4 0-.1 0-.2-.1-.2h.1v.1c0 .1 0 .3.2.4h.1s.1-.2.1-.3c0 0 .1 0 .1.1v.1c-.1.1-.1.3-.1.4v.4l.4-.2s.1 0 .1-.1v.4h.1c-.2 0-.4.1-.5.3v.2c0 .1 0 .2.1.3.1 0 .1.1.2 0 0 .2 0 .3-.1.4l-.1.3c-.1.1-.1.2-.1.2l.2.1c-.1 0-.2.1-.4 0 0-.1.1-.1.1-.2v-.1c0-.1-.1-.1-.2-.1 0-.1-.1-.1-.2-.1s-.2 0-.2-.1v-.1l-.1.1c-.1.2-.3.2-.5.1-.1-.1-.3-.1-.4-.1h-.2v-.1h-.1v-.1-.1c.1-.1.2-.1.2-.2s.1-.1.1-.1c.1.1.2.1.3.1.1 0 .2 0 .3.1h.2l.1-.1V19c0 .1.1.2.1.3l.1.5.1-.2.1-.2.2-.3c0-.2-.1-.3-.2-.4-.1-.1-.2-.1-.2-.3l-.1-.2c0-.1-.1-.2-.2-.2 0-.1-.2-.1-.3-.1-.2 0-.2 0-.3-.1-.1-.1-.2 0-.3 0h-.1l-.1.3c-.1.2-.1.4-.3.5v.2c0 .1 0 .2-.1.3 0 .1-.1.2-.1.4v.1l-.1.1c-.1-.1-.1-.1-.2-.1-.1.2-.2.2-.4.2v-.1c-.1-.1-.1-.2-.1-.3v-.2h-.1c-.1 0-.1-.1-.1-.1V19v-.1s.1.1.1.2.1.2.2.3h.1v-.1c.1-.2.1-.4.1-.6v-.2V18.8c0 .1 0 .2.1.3v.1s0 .1.1.1c.1-.1.1-.2.2-.3 0-.1.1-.2.1-.3v-.3-.2c0-.2 0-.4.1-.5v-.1c0-.1 0-.1.1-.1 0 0 .1-.1.1-.2v-.1s.1 0 .1.1h.3z" fill="#00093C"/><path d="M30.5 19.5c-.2 0-.4 0-.5.1 0 .2-.2.1-.3.1-.1-.1-.2-.2-.4-.2-.2-.3-.9-.3-.6-.9-.1-.2-.4-.2-.5-.4-.2-.2 0-.5-.2-.7.1-.3-.2-.4-.1-.7.1 0 .3-.1.3.1l.1-.9c.2 0 .3.3.4 0 .3.1 0 .6.2.8-.1.3.2.5.1.8.1-.4.1-.9.1-1.4l.1-.1c0 .4.5.1.6.4.2.1.2-.2.4-.1l.1-.9h.1l.1 4z" fill="#00093C"/><path d="M30.4 16.2c-.1 0-.1 0-.2.1 0 0-.1.1-.1 0 0-.2-.2-.2-.3-.2-.2 0-.2 0-.2-.1v-.1l-.4.1v1.1c0-.1-.1-.2-.1-.2v-.1s-.1-.1-.1-.2v-.2c0-.1 0-.3-.2-.3h-.1l-.1.1h-.1l-.3-.1v.1s-.1.5-.1.8c-.1-.1-.3 0-.3 0v.2c0 .1 0 .2.1.3 0 .1.1.1.1.2v.1c.1 0 .1.1.1.2v.2c0 .1 0 .2.1.3.1.1.2.2.3.2.1 0 .1.1.2.2 0 .1-.1.2-.1.2 0 .3.2.4.4.5.1.1.2.1.3.2.1 0 .2.1.3.2h.1c.1 0 .2 0 .3-.1h.1c.1 0 .2-.1.4 0h.1l.1-4.3h-.3c.1-.3 0 .5 0 .6zm.2-.6c0 .4-.1 3.7-.1 3.8H30c0 .1 0 .1-.1 0h-.1c-.1-.1-.2-.1-.3-.2-.1-.1-.2-.2-.3-.2-.2-.1-.3-.2-.3-.4 0-.1 0-.1.1-.2-.1-.1-.2-.2-.3-.2-.1 0-.2-.1-.2-.2-.1-.1-.1-.2-.1-.2v-.2c0-.1 0-.2-.1-.3v-.1c0-.1 0-.2-.1-.2-.2 0-.2 0-.2-.1v-.1h.2v.1h.1s.1-.7.1-.8h.1c.1 0 .1.1.2.1l.1-.1c.1 0 .1.1.1.2v.2c0 .1 0 .2.1.2v.1c0 .1 0 .2.1.3 0 .1.1.2.1.2v.1h.1c.1-.2.1-.5.1-.8v-.5c.1.1.2.2.3.2.2 0 .2 0 .2.1.2.1.2 0 .3 0 .1 0 .1-.1.1 0h.1c.1 0 .2-.6.2-.8z" fill="#00093C"/><path d="M30.4 21.9c-.1 0-.2-.1-.2-.2-.5-.1-1.2.1-1.5-.3-.7-.2-1.6-.1-2.4-.2-.1.2-.3 0-.4.2-.3-.1-.3.2-.5.1 0 .2-.2.1-.3.1-.2-.1-.2-.3-.5-.2-.1-.3-.4-.3-.6-.4-.3.1-.3-.1-.5-.2h-1.1c-.4.1-.8.2-1.4.2-.1-.2-.3-.2-.4-.3h-1.1v-.2c.2-.1.2.1.3.1h1.1c.1.1.3.2.5.3.1-.2.5.1.6-.1.2.1.3-.1.5-.2-.1-.1-.4-.2-.5-.3-.4.1-.5-.3-.9-.2-.2-.1-.3-.2-.5-.3-.1 0-.2 0-.2.1-.2 0-.6.2-.5-.2l-.2-.2c-.2.2-.3.3-.3.6.2.1 0 .3.1.4-.2 0-.1.3-.1.4.2 0 .3.2.4.3-.1 0-.1.1-.1.2h-.2c0-.1-.1-.2-.2-.3-.3.1-.5.1-.8.1.1-.1.4 0 .4-.2v-.1c-.2-.2-.9.2-.8-.4l-.6-.5c.2.1.3-.1.2-.2 0-.1-.2-.1-.3-.3.2 0 .3.1.5.2 0 .1.1.2.2.3.2 0 .5.1.5-.1l-.4-.4c.1-.1.1-.2.1-.3-.2 0-.1-.3-.1-.4.3.1.1-.3.4-.2.3.4.9.4 1.1.9.3.1.3.4.7.2l.1-.2c-.1-.1-.3-.2-.3-.4-.1 0-.1-.1-.1-.2-.2-.3-.4-.1-.7-.1l-.3-.3c.1 0 .3-.1.3.1.1-.3-.4-.5-.4-.8.2 0 .3.1.5.2.1-.2-.4-.6.2-.8.3 0 .1.4.2.6 0-.3.4-.1.4-.4l-.2-.3c.1 0 .2 0 .2.1-.1.2.3.3.2.5.2.2.2.6.2.9h.1c0 .1-.2 0-.3.1-.1-.2-.2-.5-.4-.6 0 .2.2.5.2.8-.1 0-.1.1-.1.2.2.2.4.3.7.4.5.1.8.5 1.2.8.1 0 .2 0 .2.1.3 0 .6-.1.8.1.3-.1.3.1.5.2.2 0 .3.1.4.2.3 0 .4.2.7.1.1-.4-.2-.7-.5-.9-.3 0-.4-.4-.6-.4-.2-.2-.4-.3-.6-.6 0-.3-.4-.3-.5-.6-.1 0-.2 0-.2.1.2.2.3.5.4.8-.2 0-.3-.2-.4-.4-.2.2-.4-.1-.6-.1-.2-.1-.3-.5-.6-.5l-.1-.1c.3-.1-.1-.1 0-.3.3-.2.3.2.5 0-.2-.1 0-.3-.2-.3.3.1.2-.2.4-.2.3.3.3.8.8 1l.1-.3c.3.1.5.4.6.7.4.2.4.7.8 1 .3.2.6.6.9.8 0 .4.4.7.7.8.2 0 .5.1.6-.1l1.6.1c0-.2.3 0 .4-.1 0 .1.1.1.2.1 0-.2.3 0 .3-.3-.2-.3-.6-.7-.9-.9-.2-.1-.4-.2-.5-.4-.3-.1-.7.1-.9-.2-.2 0-.2.2-.4.1-.3-.3-.4-.9-1-.7 0 .1-.1.1-.2.1 0-.2-.2-.1-.4-.1l-.1.1c-.3-.2-.7-.4-1-.7 0-.2 0-.3-.2-.4 0 0-.2 0-.1-.1 0 0 .1-.1.1 0l.1.1c.2-.2-.2-.3-.2-.5.2-.2.4-.3.7-.2 0 .1.1.1.2.1l.1-.1c0-.2-.5-.1-.2-.3.4.1.7.6 1 .9 0 .1-.1.4.1.4l.2-.1c0 .1.1.1.2.1 0-.2.4-.4.1-.6-.3-.1-.5-.4-.8-.6V17c.3-.1.4.5.7.4-.2 0-.2-.3 0-.3.1 0 .2.2.3.2.2-.1.1-.8.5-.4.1.3-.1.6.1.8-.1.4.2.5.1.8.2.1.2.5.5.5-.2.3.3 0 .2.3.2.2.3.6.7.6 0 .1.1.1.2.1.2-.5-.5-.8-.1-1.3.1-.3-.1-.4-.1-.7l-.3-.6v-.3c.2 0 .1.3.3.4-.1.2.2.3.1.5.2.1 0 .3.2.4.1.4-.2.6-.1 1 0 .2.2.3.3.5.1.2.2.3.3.5.1.5.7.6.9 1 .2.2.3.4.7.4.1.2.4 0 .6.1h-.3z" fill="#00093C"/><path d="M25.9 16.5c-.1 0-.1.1-.2.3 0 .1-.1.2-.1.3 0 0-.1 0-.1-.1s-.1-.1-.2-.1-.2.1-.2.2c0 0-.1 0-.1-.1-.1-.1-.2-.3-.4-.2h-.1v.3l.2.2c.2.2.4.4.6.4l.1.1s0 .1-.1.1c0 .1-.1.1-.1.2 0 0-.1 0-.1-.1v-.1l-.2.1v-.4l-.3-.3c-.2-.2-.4-.5-.7-.6-.1 0-.2.1-.2.2s.1.1.1.1c-.3 0-.5 0-.7.3v.1l.2.2c.1 0 .1.1.1.1h-.2c-.1 0-.1.1-.1.1v.1c0 .1.1.1.2.1.1.1.1.1.1.3l.7.4.4.3v-.1s0-.1.1-.1h.1c.1 0 .1 0 .1.1v.1h.1c.1 0 .2 0 .3-.1.3-.1.5.1.6.3l.3.3c.2 0 .2 0 .3-.1.1 0 .1-.1.2 0s.4.1.6.1h.3l.3.2.2.1c.3.3.7.6.9.9h-.1s-.1 0-.2.1h-.1v-.1h-.2c-.1 0-.2 0-.3.1-.1 0-1.6-.1-1.6-.1 0 .1-.1.1-.3.1h-.3c-.3-.1-.6-.4-.6-.7l-.4-.4c-.1-.2-.3-.3-.5-.4-.1-.1-.2-.3-.3-.5-.1-.2-.2-.4-.4-.5-.1-.2-.3-.6-.7-.7h-.1s0 .2-.1.3c-.2-.1-.3-.3-.4-.5L22 17c-.2-.1-.2.1-.3.1 0 .1-.1.1-.2.1l-.1.1v.1c0 .1 0 .1.1.2h-.1c-.1-.1-.2-.2-.4 0l-.1.1c0 .1.1.1.1.2h-.1l.1.1.1.2c.1 0 .2.1.3.3l.2.2.2.1c.1.1.2.2.4.1.1.2.2.3.4.4h.1v-.1c-.1-.3-.2-.6-.4-.8h.1c.1.1.2.2.3.2.1.1.2.1.2.2l.3.3.3.3c.1 0 .2.1.2.2.1.1.2.2.4.3.2.2.4.4.4.7v.1h-.3c-.1 0-.2-.1-.3-.1-.1-.1-.3-.2-.4-.2l-.1-.1c-.1-.1-.2-.2-.4-.1-.1-.1-.4-.1-.6-.1h-.2c0-.1-.1-.1-.2-.1l-.2-.2c-.3-.2-.6-.5-1-.6l-.1-.1c-.2-.1-.3-.2-.5-.3v-.1h.1v-.1l-.1-.4v-.1c0 .1.1.1.1.2l.1.2h.2c.1 0 .2 0 .2-.1v-.1h-.1v-.2-.1c0-.2 0-.4-.2-.6 0-.1-.1-.2-.1-.3l-.1-.1s-.2-.2-.3-.1v.1s.2.3.2.4c0 .1-.1.1-.2.1 0 0-.1 0-.1.1v-.2c0-.1 0-.2-.1-.2l-.1-.2c-.2 0-.3.1-.3.2v.1c0 .1 0 .2.1.3v.1c-.1-.1-.2-.1-.4-.1H19v.1c0 .2.1.3.2.4l.2.2H19l.4.5h.3c.2 0 .3 0 .4.1v.1l.1.1c0 .2.1.3.2.3l.1.1-.1.1c-.1 0-.2 0-.3-.1l-.2-.1c-.1-.3-.4-.4-.6-.5-.2-.1-.4-.2-.5-.4-.1-.1-.2-.1-.2 0-.1 0-.1.1-.1.2v.1h-.2V19.1c0 .1 0 .2.1.2 0 .1 0 .2-.1.2h-.1s.4.3.4.4c0 .1-.1.1-.3.1h-.2l-.1-.1c-.1 0-.1-.1-.1-.1-.1-.1-.3-.3-.5-.2h-.1l.1.1.2.2.1.1v.1h-.1l-.2-.1.4.5v.1c0 .1 0 .1.1.2s.3.1.5.1h.3v.1s-.1.1-.2.1L18 21l.1.1.1.1c.3 0 .5 0 .8-.1l.1.1.1.2h.4v-.2l.1-.1V21c-.1-.1-.2-.3-.4-.3v-.2c0-.1 0-.1.1-.1h.1V20.1c0-.1 0-.1-.1-.2 0-.2.1-.3.2-.4.1.1.1.1.2.1 0 .1 0 .1.1.2s.2.1.4 0H20.6l.2.1.3.2c.2 0 .3 0 .4.1.1.1.3.1.5.1l.1.1c.1.1.2.1.3.2-.1.1-.2.2-.3.1H22v.1c0 .1-.2.1-.3 0-.1 0-.2 0-.3.1-.1-.1-.3-.2-.4-.2H19.8s-.1-.1-.3 0v.2h1.1l.2.1c.1 0 .2.1.2.1.6.1 1 0 1.5-.2h1.1l.1.1c.1.1.2.2.4.1l.2.1c.1.1.3.1.4.3v.1h.1c.1 0 .2 0 .3.1l.2.1h.1c.1 0 .2 0 .2-.1.1 0 .2 0 .3-.1.1-.1.1-.1.2 0h.1v-.1s0-.1.1 0c.1 0 .2 0 .2-.1h.8c.5 0 1.1 0 1.6.2.2.3.6.3.9.2h.6c.1.1.1.2.3.2h.1v-.5h-.3c-.1 0-.2 0-.2-.1-.3 0-.4-.1-.5-.3l-.5-.1c-.1-.2-.3-.4-.5-.5-.2-.1-.4-.3-.4-.5l-.1-.3-.1-.3-.1-.2-.1-.3v-.2c0-.1 0-.2.1-.3 0-.1.1-.2.1-.4v-.2-.2c0-.1 0-.1-.1-.2v-.1c0-.1 0-.1-.1-.2l-.1-.1v-.2l-.1-.2c0-.1-.1-.2-.2-.2h-.1v.4l.3.6v.1c0 .1 0 .2.1.3 0 .1.1.1.1.2v.1c-.1.1-.1.2-.1.4s.1.3.1.4c.1.1.1.2.1.4v.1-.1H28c-.2 0-.3-.1-.4-.3l-.2-.2v-.2c0-.1-.1-.1-.2-.1v-.2h-.1c-.1 0-.2-.1-.2-.2s-.1-.2-.2-.2v-.1c0-.1 0-.2-.1-.3 0-.1-.1-.1-.1-.2v-.2c-.1-.1-.1-.1-.1-.2v-.5c-.3.1-.4 0-.5.1zm-7.5 2.3c.1 0 .1-.1.1-.2v-.1h.1c.1.2.3.3.5.4.2.1.4.2.6.5l.2.1c.1.1.2.1.3.1h-.4v-.1l-.3-.3c-.2.1-.3.3-.3.5v.4c-.1.1-.1.1-.1.2V20.6h.1c.1 0 .2.1.3.2l-.1.1v.1h-.1-.1c0-.1-.1-.2-.1-.2l-.1.1h-.1c-.1 0-.3 0-.4.1l.1-.1v-.2c-.1-.1-.3-.1-.4-.1h-.3v-.2s-.1-.2-.2-.3h.1s.1-.1.1-.2v-.1l-.1-.1c.1 0 .1.1.2.1 0 .1.1.1.1.2l.1.1H18.5c.2 0 .4 0 .4-.2l-.4-.4c.1-.1.1-.2.1-.3v-.1h-.1s-.1 0-.1-.1c-.1-.1-.1-.1 0-.2-.1.1-.1 0 0 0-.1 0 0 0 0 0zm1-.3c0 .1 0 .1.1.1-.1 0-.1-.1-.1-.1-.1 0 0 0 0 0zm.2-.6v-.3c0-.1-.1-.2-.1-.2v-.1c0-.1.1-.1.2-.1h.1v.5h.1c0-.1 0-.1.1-.1s.2-.1.3-.3l.1.1c.1.1.1.1.1.2.1.1.2.3.2.5v.4h-.1l-.1-.2c-.1-.2-.1-.3-.3-.5l-.2-.1.1.2.1.4s.1.3.1.4c-.1 0-.1.1-.1.2v-.1c-.2-.2-.4-.2-.5-.2h-.2c0-.1.1-.1.1-.1v-.1c0-.2-.1-.3-.2-.4l-.2-.2c.1 0 .2.1.2.1h.2zm1 1.6l-.1-.2c-.1-.1-.1-.1-.1-.2.1.1.3.2.5.3l.2.1c.4.1.7.4.9.6l.1.1H22c-.2 0-.3 0-.4-.1-.3-.1-.4-.2-.6-.1l-.2-.1-.2-.2c-.1-.1 0-.2 0-.2zm3.2-2.5c.1 0 .1.1.2.1-.1 0-.1 0-.2-.1.1.1 0 .1 0 0 0 .1 0 .1 0 0zm0 .2c.1 0 .1 0 .1.1l-.1-.1zm-4.2 3.3s0 .1 0 0c0 .1 0 .1 0 0 0 .1 0 .1 0 0 0 .1 0 0 0 0zm1.2.2s-.1 0-.1-.1c.1.1.2.1.1.1.1 0 .3.1.5.2h-.2c-.1-.1-.2-.1-.3-.2zm1.8-.3c.2 0 .4 0 .5.1.1 0 .2 0 .3.1 0 0 .1 0 .1.1h-1c-.4.1-.7.2-1.1.2h.2c.1 0 .3 0 .4-.1.2 0 .3-.1.4-.1l.1-.1v-.1h-.1c.1-.1.2-.1.2-.1zm1.1.4s.1 0 .2.1c-.1 0-.1-.1-.2-.1zm-.6-2.8c.1-.1.1 0 0 0 .1 0 0 0 0 0zm2.5-.9c.1-.1.2-.2.2-.3 0-.1.1-.2.1-.2l.1.1v.4c0 .1 0 .2.1.3v.2c0 .1 0 .2.1.3 0 .1.1.2.1.2v.2h.1c.1 0 .1.1.2.2s.1.2.3.2v.2c0 .1.1.1.2.1h.1v.1l.2.2c.1.2.2.3.5.3v.1h.2c0-.1.1-.2.1-.2 0-.2-.1-.3-.1-.4 0 .1.1.2.1.2l.1.2.2.3.1.2c.1.2.3.4.5.5.2.1.4.3.4.5l.1.1c.2.2.3.3.6.4.1.1.2.1.3.1h.2v.2l-.1-.1-.1-.1c-.2-.1-.5-.1-.7-.1-.3 0-.6 0-.8-.2-.2-.1-.5-.1-.7-.1H28.6v.1c.1 0 .2.1.2 0v-.1h.1l.2-.1v-.2c-.3-.4-.6-.7-1-1l-.2-.1-.3-.2h-.3c-.2 0-.4 0-.5-.1-.2 0-.3 0-.3.1 0 0-.1.1-.1 0l-.2-.3c-.2-.2-.4-.5-.8-.4-.4.1-.4.1-.5.1-.1-.1-.2-.1-.3-.1h-.2l-.1.1c-.1-.1-.3-.2-.3-.2s-.5-.4-.6-.4c0-.1 0-.3-.2-.4l.1.1V18l.1-.2c0-.1-.1-.2-.2-.2 0 0-.1 0-.1-.1.1-.1.3-.2.5-.2.1.1.1.1.2.1l.1-.1c0-.1 0-.1-.1-.2.2.1.3.3.4.4l.3.3v.4l.2.1.1-.1c0 .1.1.1.2.1h.1v-.1c0-.1 0-.1.1-.2 0-.1.1-.1.1-.2s0-.1-.1-.2c-.2 0-.4-.2-.6-.4 0 0-.1-.2-.2-.2v-.1c.1 0 .1.1.2.2s.2.3.4.2l.2-.1-.2-.1c-.1 0-.1-.1-.1-.1s0-.1.1-.1l.1.1c.3 0 .4.1.5.1zm.2 4.2c.1 0 .1 0 0 0 .1.1.1.1 0 0 .1.1.1 0 0 0zm1.6-4.4s.1.1.1.2v.1c0 .1.1.1.1.2v.2c-.1-.2-.1-.4-.2-.5v-.2zm.2 1.8c0-.1 0-.2.1-.3v-.2c0-.1 0-.2-.1-.3 0-.1-.1-.2-.1-.2v-.1.2c0 .1 0 .1.1.2v.1c0 .1 0 .2-.1.3.2.1.2.2.1.3 0 .1 0 .1.1.2 0-.1-.1-.1-.1-.2zm-5.8-1.2c.1 0 .3.3.3.3.1.2.3.5.6.6h.1s0-.2.1-.3c.2.1.4.4.5.6.2.1.3.3.4.5.1.2.2.4.4.5.2.1.3.2.5.4 0 0 .4.3.4.4 0 .4.4.7.8.8h.1c-.1 0-.1 0-.2.1-.1 0-.1.1-.2 0h-.1v.1c0 .1 0 .1-.1.1h-.1l-.1-.1c-.1-.1-.2-.2-.4-.1l-.3-.3c.1 0 .2.1.4 0v-.2c0-.3-.3-.6-.5-.8-.2 0-.2-.1-.3-.2-.1-.1-.2-.2-.3-.2l-.3-.3-.3-.3c0-.2-.1-.3-.3-.3-.1-.1-.2-.1-.2-.2h-.1c-.1 0-.2 0-.2.1.1.1.2.4.3.6l-.2-.2-.1-.1h-.1c-.1.1-.1.1-.3 0l-.3-.1-.1-.2c-.1-.1-.2-.3-.4-.3v-.1l.1-.1c0-.1 0-.1-.1-.1 0 0-.1 0-.1-.1.1-.1.1 0 .2 0 .1.1.2.1.3 0l.1-.1h-.1v-.1c.1-.1.1-.2.2-.3zM30.3 25.8l-.1-.1-1.6-.1c0 .2-.2 0-.3.2-.3-.1-.8-.2-1 0 0 .1-.1.1-.2.1-.2-.3-.6 0-.8-.2h-1.1c-.1-.2-.4 0-.5-.2-.6-.3-.6.4-1.2.2-.2.2-.6-.1-.7.3-.3 0-.7 0-1-.1.2-.1.5.1.7-.1v-.2c.4-.1 1 .2 1.2-.2.4-.1.7.2 1.1.1.2.2.6 0 .7.2.3 0 .7.1 1 0 .2.1.3-.2.5-.1l.1-.1 1.6.1.2-.2h1.2l.2.4z" fill="#00093C"/><path d="M28.9 25.3c-.1 0-1.6-.1-1.6-.1l-.1.1c-.1 0-.2 0-.3.1-.1.1-.1.1-.2.1-.1.1-.4.1-.6.1h-.4c-.1-.1-.2-.1-.4-.1-.1 0-.3 0-.3-.1-.2 0-.3 0-.5-.1-.2 0-.4-.1-.6-.1-.1.2-.4.2-.6.1h-.5V25.6c0 .1-.2.1-.3.1h-.3l-.1.1 1.2.1v-.1c0-.1.1-.1.3-.1.1 0 .3 0 .4-.1.3.1.5 0 .6-.1.2-.1.3-.2.6-.1.1.1.2.2.3.2.1 0 .2 0 .2.1h1.2c.1.1.2.1.4.1s.3 0 .3.1c.1 0 .2 0 .3-.1.2-.1.7-.1 1 0h.1v-.1H29.3v-.1h1.5l.2.3V25h-1.3c-.6.1-.8.3-.8.3zm-4.6 0c-.1 0-.1.1-.2.1-.2.1-.3.2-.5.1h-.1c-.1.1-.1.1-.3.1-.1 0-.3 0-.4.2h-.3s.1 0 .1-.1v-.2h.4c.3 0 .6 0 .7-.2h.6zm.6.1s.1.1 0 0c0 .1 0 0 0 0zm.4.1c.1 0 .2 0 .3.1-.1 0-.3 0-.3-.1 0 .1 0 0 0 0zm3.8-.2h1.1v.3l-1.6-.1v.1h-.2c-.3-.1-.8-.1-1 0 0 .1-.1.1-.1.1-.1-.1-.3-.1-.4-.1-.1 0-.2 0-.3-.1h.2c.1 0 .2 0 .3-.1.1-.1.1-.1.2 0l.1-.1c.1 0 1.6.1 1.6.1l.1-.1z" fill="#00093C"/><path d="M30.7 15.4c.1.2-.1.5.1.6l-.1 1.5.1.1c-.2.1-.1.3-.1.4.1.2.3.2.5.3.1-.5.3.1.6-.1.2.2 0 .5.2.6 0 .2.2.3.1.5h.1c-.2.1 0 .4-.2.4 0 .3-.1.5-.1.8.2.1.1.3.3.4.3-.2.7-.4.7-.9l.2-.1c0 .2.1.5-.1.5-.1.3-.4.7-.1 1 0 .2.1.3.2.4 0 .3.2.5.1.8.1.1.1.3.2.4.2.1.3-.2.5-.3 0-.3.2-.3 0-.5.1-.3 0-.7-.3-.8 0-.2-.1-.3-.2-.4 0-.1.1-.2-.1-.3.2-.3.1-.8.1-1.2-.2 0-.3 0-.3-.2.1-.2-.2-.3-.1-.5-.2-.1 0-.3-.2-.4.1 0 .2-.2.3 0l.1.1c.2 0 .1-.3.3-.4 0-.2 0-.3.1-.4.2.3.4-.1.7 0l.1-.1c.2.3.1.9.1 1.3-.2-.1-.3 0-.4.2.2.2.1.5.1.8-.1.3-.6.3-.4.7 0 .2.2.3.3.5.3.1.1.6.5.7 0 .2.1.4-.1.5-.1.2.1.2.2.3 0-.3.3-.4.4-.6.1-.2.2-.4.3-.5 0-.1 0-.2.1-.2 0-.2.1-.6-.1-.8 0-.3-.3-.7 0-1 0-.2.2-.2.1-.4-.2-.3-.3.2-.4-.1-.2-.2 0-.7-.2-.9-.1-.2.2-.1.1-.3.3 0 .1.6.4.7.3 0 .3-.4.5-.6.1.1.2.2.2.3l-.1.1c.3.1.4-.1.6-.1.2-.1.1-.4.2-.7-.1-.1-.3 0-.4-.1-.1.1 0 .3-.2.2-.1-.3-.5.1-.5-.3-.3-.1 0-.4-.2-.5 0-.3.4-.1.4-.4.2-.1.2.1.4.2.2-.2-.1-.4-.1-.7h.2c0 .3.2.5.1.8.2.1 0 .3.2.4.1-.2.1-.5.1-.7-.2-.2-.1-.5-.1-.8 0 .3.2.5.2.8l.2.2c0-.2.3 0 .4-.1 0-.3.1-.5.3-.7.3.3 0 1 .2 1.4.2-.2.3-.7.8-.6 0-.1.1-.1.2-.1.2.2.2.4.4.5l.1-.5c.2 0 .3.1.3.1v1.1c-.2 0-.3.2-.5.4v.2h-.4c-.1.3.1.7-.2.8-.1-.5-.8-.1-.9-.6-.2-.2-.4.1-.6.1-.1.1-.4.2-.4.4 0 .1.2 0 .2.2-.1.2-.5 0-.7.2-.2-.1-.2.2-.4.1-.3.2-.1.5-.1.8.1.1.2.2.2.4.2.1.6 0 .7.2.3-.1.5-.4.6-.7.3-.2.6-.3.7-.6.2.1.1-.2.3-.1-.1.2-.5.2-.5.5-.4.3-.5.7-.9.9-.1.1-.3.1-.5.1-.3.1-.3.5-.6.6-.1.2-.2.3-.3.5.3.8-.7.2-.6.8.3.1.4-.2.7-.1l.1-.1c.5-.1 1.2.3 1.4-.2h.1c.3-.3.6-.7 1-.8.2-.2.5-.3.6-.6 0-.2 0-.4.2-.4.1-.1.3-.1.5-.1.2.2.5.1.8.1.2-.2.6-.3.5-.8.1 0 .2-.2.3-.2.2.3-.2.3-.1.7 0 .1 0 .2.2.2.5-.1.9-.5 1.5-.4.1-.1.1-.3 0-.4-.1-.1-.4 0-.5-.2-.2.2-.3.2-.5.1-.1-.3-.8.1-.6-.4-.1 0 0-.2-.1-.3.3-.1.1-.4.4-.4.1.2.5 0 .7.2.2.1.2-.1.2-.2v-.1c.2.2.1.5.2.7.1-.2.2-.4.3-.5 0-.3-.4-.4-.4-.6-.2-.1-.1-.3-.3-.4-.1-.2-.6.1-.6-.3-.1-.1-.2 0-.3.1-.1.3-.1.6-.4.8.1.4-.2.6-.2 1l-.1.1c0-.1-.1-.1-.2-.1-.1.2-.3.2-.5.2-.1-.2-.3-.3-.2-.6-.2-.1-.1-.3-.1-.5.2.1.2.4.4.6.2-.2.1-.7.2-1 .3.2 0 .6.2.8v.2c.2-.2.1-.5.3-.6 0-.3-.1-.8.1-1-.1-.3.2-.3.1-.5.1-.1.2 0 .2.1.2-.2-.1-.6.2-.7.2.2.5.1.6.4.1.2.2.5.2.7 0 .1.1 0 .2 0 0-.2.1-.6 0-.8 0 0 .3-.1.3.1s0 .3.2.4l.1-.3c.1 0 .3.1.2.3-.2.2-.1.5-.1.7.2-.1.3-.2.5-.3.1.1-.2.5.1.6h.1c-.3 0-.5 0-.7.3 0 .2-.1.6.3.5 0 .3-.1.5-.2.8-.1 0-.1.1-.1.2l.2.1c.2-.1.3-.2.5-.4v-.1c.1.2-.1.3-.2.5-.3.1-.5.3-.8.2-.1.2-.5 0-.6.2-.2.1-.4 0-.5.2-.2-.1-.2.1-.3.1v.1c.8.1 1.6 0 2.4.1-.3 0-.6.2-1 .1 0 .2-.2 0-.3.2.1.3.3.3.5.4.2 0 .5 0 .7.1-.2.1-.6-.1-.8.1-.2-.1-.2.2-.4.1-.3-.3-.4-.6-.8-1h-1.4c-.1.1-.1.2-.3.2-.1-.2-.4-.1-.6-.1-.1.4-.6.4-.8.8-.4.1-.7.5-1 .8-.2 0-.3.2-.5.3-.6-.2-1 .2-1.6 0 0 .3-.3 0-.4.2-.2-.1-.3.2-.5.2-.2.1-.5.1-.6.4-.1.1-.1.3-.1.5.2 0 .1.2.1.3l.6.3.2-.1c.2.2.8 0 .9.2.3 0 .5.1.8.1.1.2.4.1.6.1.2-.1.4-.1.6-.4 0-.1.1-.3.3-.2.2.3.5.4.8.3l.1-.1c.2.1.5.2.7.2 0 .2.3 0 .4.2.2.1.5-.1.6.1.1 0 .3.1.4-.1h1c.3.1.8.1 1.2.1.2.3.7 0 .8.3-.3 0-.6.1-.8-.1-.2 0-.5.1-.6-.1-.3 0-.6-.1-.8.1l-1.6-.1c-.1-.2-.3-.1-.5-.2-.1.1-.1.3-.3.2-.1-.2-.3-.1-.5-.1-.1.2-.5 0-.7.2-.3 0-.5-.3-.7 0-.2 0-.4 0-.5-.1-.1.2-.6-.1-.6.3-.2-.1-.5-.3-.7-.2-.2-.2-.8 0-1-.2-.3.1-.3-.3-.5 0-.3.1-.4-.3-.6 0-.3 0-.7-.1-1 0 0-.2-.3-.1-.4-.1-.1.2-.3.2-.5.3 0-.2-.2-.1-.3-.1 0 .2-.2.1-.3.1l-.1-.1-1.6-.1c0 .2-.2 0-.3.2-.3-.1-.8-.2-1 0 0 .1-.1.1-.2.1-.2-.3-.6 0-.8-.2h-1.1c-.1-.2-.4 0-.5-.2-.6-.3-.6.4-1.2.2-.2.2-.6-.1-.7.3-.3 0-.7 0-1-.1.2-.1.5.1.7-.1v-.2c.4-.1 1 .2 1.2-.2.4-.1.7.2 1.1.1.2.2.6 0 .7.2.3 0 .7.1 1 0 .2.1.3-.2.5-.1l.1-.1 1.6.1.2-.2 1.5.1c0-.2.3 0 .3-.2.1 0 .3.1.4-.1h.6c.2-.3.6-.4.5-.9-.1-.2-.2-.3-.3-.5.2-.6-.5-.9-.8-1.2-.2-.1-.4-.1-.5-.2-.1-.1-.2-.1-.3-.3-.2 0-.2-.1-.3-.2-.5-.1-1.2.1-1.5-.3-.7-.2-1.6-.1-2.4-.2-.1.2-.3 0-.4.2-.3-.1-.3.2-.5.1 0 .2-.2.1-.3.1-.2-.1-.2-.3-.5-.2-.1-.3-.4-.3-.6-.4-.3.1-.3-.1-.5-.2h-1.1c-.8.3-1.2.4-1.8.4-.1-.2-.3-.2-.4-.3h-1.1v-.2c.2-.1.2.1.3.1h1.1c.1.1.3.2.5.3.1-.2.5.1.6-.1.2.1.3-.1.5-.2-.1-.1-.4-.2-.5-.3-.4.1-.5-.3-.9-.2-.2-.1-.3-.2-.5-.3-.1 0-.2 0-.2.1-.2 0-.6.2-.5-.2l-.2-.2c-.2.2-.3.3-.3.6.2.1 0 .3.1.4-.2 0-.1.3-.1.4.2 0 .3.2.4.3-.1 0-.1.1-.1.2h-.2c0-.1-.1-.2-.2-.3-.3.1-.5.1-.8.1.1-.1.4 0 .4-.2v-.1c-.2-.2-.9.2-.8-.4l-.6-.5c.2.1.3-.1.2-.2 0-.1-.2-.1-.3-.3.2 0 .3.1.5.2 0 .1.1.2.2.3.2 0 .5.1.5-.1l-.4-.4c.1-.1.1-.2.1-.3-.2 0-.1-.3-.1-.4.3.1.1-.3.4-.2.3.4.9.4 1.1.9.3.1.3.4.7.2l.1-.2c-.1-.1-.3-.2-.3-.4-.1 0-.1-.1-.1-.2-.2-.3-.4-.1-.7-.1l-.3-.3c.1 0 .3-.1.3.1.1-.3-.4-.5-.4-.8.2 0 .3.1.5.2.1-.2-.4-.6.2-.8.3 0 .1.4.2.6 0-.3.4-.1.4-.4l-.2-.3c.1 0 .2 0 .2.1-.1.2.3.3.2.5.2.2.2.6.2.9h.1c0 .1-.2 0-.3.1-.1-.2-.2-.5-.4-.6 0 .2.2.5.2.8-.1 0-.1.1-.1.2.2.2.4.3.7.4.5.1.8.5 1.2.8.1 0 .2 0 .2.1.3 0 .6-.1.8.1.3-.1.3.1.5.2.2 0 .3.1.4.2.3 0 .4.2.7.1.1-.4-.2-.7-.5-.9-.3 0-.4-.4-.6-.4-.2-.2-.4-.3-.6-.6 0-.3-.4-.3-.5-.6-.1 0-.2 0-.2.1.2.2.3.5.4.8-.2 0-.3-.2-.4-.4-.2.2-.4-.1-.6-.1-.2-.1-.3-.5-.6-.5l-.1-.1c.3-.1-.1-.1 0-.3.3-.2.3.2.5 0-.2-.1 0-.3-.2-.3.3.1.2-.2.4-.2.3.3.3.8.8 1l.1-.3c.3.1.5.4.6.7.4.2.4.7.8 1 .3.2.6.6.9.8 0 .4.4.7.7.8.2 0 .5.1.6-.1l1.6.1c0-.2.3 0 .4-.1 0 .1.1.1.2.1 0-.2.3 0 .3-.3-.2-.3-.6-.7-.9-.9-.2-.1-.4-.2-.5-.4-.3-.1-.7.1-.9-.2-.2 0-.2.2-.4.1-.3-.3-.4-.9-1-.7 0 .1-.1.1-.2.1 0-.2-.2-.1-.4-.1l-.1.1c-.3-.2-.7-.4-1-.7 0-.2 0-.3-.2-.4 0 0-.2 0-.1-.1 0 0 .1-.1.1 0l.1.1c.2-.2-.2-.3-.2-.5.2-.2.4-.3.7-.2 0 .1.1.1.2.1l.1-.1c0-.2-.5-.1-.2-.3.4.1.7.6 1 .9 0 .1-.1.4.1.4l.2-.1c0 .1.1.1.2.1 0-.2.4-.4.1-.6-.3-.1-.5-.4-.8-.6V17c.3-.1.4.5.7.4-.2 0-.2-.3 0-.3.1 0 .2.2.3.2.2-.1.1-.8.5-.4.1.3-.1.6.1.8-.1.4.2.5.1.8.2.1.2.5.5.5-.2.3.3 0 .2.3.2.2.3.6.7.6 0 .1.1.1.2.1.2-.5-.5-.8-.1-1.3.1-.3-.1-.4-.1-.7l-.3-.6v-.3c.2 0 .1.3.3.4-.1.2.2.3.1.5.2.1 0 .3.2.4.1.4-.2.6-.1 1 0 .2.2.3.3.5.1.2.2.3.3.5.1.5.7.6.9 1 .2.2.3.4.7.4.1.2.5 0 .7.2.3 0 .5.1.7.2.4-.2.4.5.7.2-.1-.4-.6-.6-.8-1 0-.2 0-.4-.1-.5-.3-.5-.2-.9-.4-.9v-.3c.3.2.2.7.6.9.2-.2.3-.6.3-.9-.3 0-.5-.7-.7-.2 0-.1-.1-.1-.2-.1 0 .2-.3 0-.3.2-.2 0-.4 0-.5.1 0 .2-.2.1-.3.1-.1-.1-.2-.2-.4-.2-.2-.3-.9-.3-.6-.9-.1-.2-.4-.2-.5-.4-.2-.2 0-.5-.2-.7.1-.3-.2-.4-.1-.7.1 0 .3-.1.3.1l.1-.9c.2 0 .3.3.4 0 .3.1 0 .6.2.8-.1.3.2.5.1.8.1-.4.1-.9.1-1.4l.1-.1c0 .4.5.1.6.4.2.1.2-.2.4-.1l.1-.9.3-.2z" fill="#00093C"/><path d="M30.7 15.3h-.2s-.1.7-.1.9c-.1 0-.1 0-.2.1 0 0-.1.1-.1 0 0-.2-.2-.2-.3-.2-.2 0-.2 0-.2-.1v-.1l-.4.1v1.1c0-.1-.1-.2-.1-.2v-.1s-.1-.1-.1-.2v-.2c0-.1 0-.3-.2-.3h-.1l-.1.1h-.1l-.3-.1v.1s-.1.5-.1.8c-.1-.1-.3 0-.3 0v.2c0 .1 0 .2.1.3 0 .1.1.1.1.2v.1c.1 0 .1.1.1.2v.2c0 .1 0 .2.1.3.1.1.2.2.3.2.1 0 .1.1.2.2 0 .1-.1.2-.1.2 0 .3.2.4.4.5.1.1.2.1.3.2.1 0 .2.1.3.2h.1c.1 0 .2 0 .3-.1h.1c.1 0 .2-.1.4 0h.1v-.1H30.9v-.1l.1.1.1-.1c.1-.1.1-.2.1-.2.1 0 .1.1.2.2s.2.2.3.2v.1c0 .3-.1.5-.2.7-.1-.1-.2-.2-.3-.4-.1-.2-.1-.3-.3-.4l-.1-.1v.5h.1c.1 0 .1.1.1.2s.1.2.1.2v.5c.1.2.2.3.4.5s.3.3.4.5c-.1 0-.1 0-.2-.1s-.2-.2-.4-.2c-.2-.1-.4-.2-.7-.2-.1-.1-.2-.1-.4-.1s-.2 0-.2-.1c-.3 0-.4-.1-.5-.3l-.2-.2c-.1-.2-.3-.4-.5-.5-.2-.1-.4-.3-.4-.5l-.1-.3-.1-.3-.1-.2-.1-.3v-.2c0-.1 0-.2.1-.3 0-.1.1-.2.1-.4v-.2-.2c0-.1 0-.1-.1-.2v-.1c0-.1 0-.1-.1-.2l-.1-.1v-.2l-.1-.2c0-.1-.1-.2-.2-.2h-.1v.4l.3.6v.1c0 .1 0 .2.1.3 0 .1.1.1.1.2v.1c-.1.1-.1.2-.1.4s.1.3.1.4c.1.1.1.2.1.4v.1-.1H28c-.2 0-.3-.1-.4-.3l-.2-.2v-.2c0-.1-.1-.1-.2-.1v-.2h-.1c-.1 0-.2-.1-.2-.2s-.1-.2-.2-.2v-.1c0-.1 0-.2-.1-.3 0-.1-.1-.1-.1-.2v-.2c-.1-.1-.1-.1-.1-.2v-.5c-.1-.1-.2-.2-.3-.2-.1 0-.1.1-.2.3 0 .1-.1.2-.1.3 0 0-.1 0-.1-.1s-.1-.1-.2-.1-.2.1-.2.2c0 0-.1 0-.1-.1-.1-.1-.2-.3-.4-.2h-.1v.3l.2.2c.2.2.4.4.6.4l.1.1s0 .1-.1.1c0 .1-.1.1-.1.2 0 0-.1 0-.1-.1v-.1l-.2.1v-.4l-.3-.3c-.2-.2-.4-.5-.7-.6-.1 0-.2.1-.2.2s.1.1.1.1c-.3 0-.5 0-.7.3v.1l.2.2c.1 0 .1.1.1.1h-.2c-.1 0-.1.1-.1.1v.1c0 .1.1.1.2.1.1.1.1.1.1.3l.7.4.4.3v-.1s0-.1.1-.1h.1c.1 0 .1 0 .1.1v.1h.1c.1 0 .2 0 .3-.1.3-.1.5.1.6.3l.3.3c.2 0 .2 0 .3-.1.1 0 .1-.1.2 0s.4.1.6.1h.3l.3.2.2.1c.3.3.7.6.9.9H29s-.1 0-.2.1h-.1v-.1h-.2c-.1 0-.2 0-.3.1-.1 0-1.6-.1-1.6-.1 0 .1-.1.1-.3.1H26c-.3-.1-.6-.4-.6-.7l-.4-.4c-.1-.2-.3-.3-.5-.4-.1-.1-.2-.3-.3-.5-.1-.2-.2-.4-.4-.5-.1-.2-.3-.6-.7-.7H23s0 .2-.1.3c-.2-.1-.3-.3-.4-.5l-.3-.4c-.2-.1-.2.1-.3.1 0 .1-.1.1-.2.1l-.1.1v.1c0 .1 0 .1.1.2h-.1c-.1-.1-.2-.2-.4 0l-.1.1c0 .1.1.1.1.2h-.1l.1.1.1.2c.1 0 .2.1.3.3l.2.2.2.1c.1.1.2.2.4.1.1.2.2.3.4.4h.1v-.1c-.1-.3-.2-.6-.4-.8h.1c.1.1.2.2.3.2.1.1.2.1.2.2l.3.3.3.3c.1 0 .2.1.2.2.1.1.2.2.4.3.2.2.4.4.4.7v.1h-.3c-.1 0-.2-.1-.3-.1-.1-.1-.3-.2-.4-.2l-.1-.1c-.1-.1-.2-.2-.4-.1-.1-.1-.4-.1-.6-.1h-.2c0-.1-.1-.1-.2-.1l-.2-.2c-.3-.2-.6-.5-1-.6l-.1-.1c-.2-.1-.3-.2-.5-.3v-.1h.1v-.1l-.1-.4v-.1c0 .1.1.1.1.2l.1.2h.2c.1 0 .2 0 .2-.1V18h-.1v-.2-.1c0-.2 0-.4-.2-.6 0-.1-.1-.2-.1-.3l-.1-.1s-.2-.2-.3-.1l-.2.4s.2.3.2.4c0 .1-.1.1-.2.1 0 0-.1 0-.1.1v-.2c0-.1 0-.2-.1-.2l-.1-.2c-.2 0-.3.1-.3.2v.1c0 .1 0 .2.1.3v.1c-.1-.1-.2-.1-.4-.1H19v.1c0 .2.1.3.2.4l.2.2H19l.4.5h.3c.2 0 .3 0 .4.1v.1l.1.1c0 .2.1.3.2.3l.1.1-.1.1c-.1 0-.2 0-.3-.1l-.2-.1c-.1-.3-.4-.4-.6-.5-.2-.1-.4-.2-.5-.4-.1-.1-.2-.1-.2 0-.1 0-.1.1-.1.2v.1h-.2V19.1c0 .1 0 .2.1.2 0 .1 0 .2-.1.2h-.1s.4.3.4.4c0 .1-.1.1-.3.1h-.2l-.1-.1c-.1 0-.1-.1-.1-.1-.1-.1-.3-.3-.5-.2h-.1l.1.1.2.2.1.1v.1h-.1l-.2-.1.4.5v.1c0 .1 0 .1.1.2s.3.1.5.1h.3v.1s-.1.1-.2.1L18 21l.1.1.1.1c.3 0 .5 0 .8-.1l.1.1.1.2h.4v-.2l.1-.1V21c-.1-.1-.2-.3-.4-.3v-.2c0-.1 0-.1.1-.1h.1V20.1c0-.1 0-.1-.1-.2 0-.2.1-.3.2-.4.1.1.1.1.2.1 0 .1 0 .1.1.2s.2.1.4 0H20.6l.2.1.3.2c.2 0 .3 0 .4.1.1.1.3.1.5.1l.1.1c.1.1.2.1.3.2-.1.1-.2.2-.3.1H22v.1c0 .1-.2.1-.3 0-.1 0-.2 0-.3.1-.1-.1-.3-.2-.4-.2H19.8s-.1-.1-.3 0v.2h1.1l.2.1c.1 0 .2.1.2.1.6.1 1 0 1.5-.2h1.1l.1.1c.1.1.2.2.4.1l.2.1c.1.1.3.1.4.3v.1h.1c.1 0 .2 0 .3.1l.2.1h.1c.1 0 .2 0 .2-.1.1 0 .2 0 .3-.1.1-.1.1-.1.2 0h.1v-.1s0-.1.1 0c.1 0 .2 0 .2-.1h.8c.5 0 1.1 0 1.6.2.2.3.6.3.9.2h.6c.1.1.1.2.3.2.1 0 .2.2.2.2l.1.1.3.1.3.1.2.2c.3.2.6.4.6.8v.2l.3.5v.2c0 .2-.1.3-.2.4l-.2.2h-.6-.5v.1c-.1 0-.1 0-.2.1-.1 0-1.5-.1-1.5-.1s-.1.2-.2.2-1.6-.1-1.6-.1l-.1.1c-.1 0-.2 0-.3.1-.1.1-.1.1-.2.1-.1.1-.4.1-.6.1h-.4c-.1-.1-.2-.1-.4-.1-.1 0-.3 0-.3-.1-.2 0-.3 0-.5-.1-.2 0-.4-.1-.6-.1-.1.2-.4.2-.6.1h-.5V25.6c0 .1-.2.1-.3.1h-.3l-.1.1 1.2.1v-.1c0-.1.1-.1.3-.1.1 0 .3 0 .4-.1.3.1.5 0 .6-.1.2-.1.3-.2.6-.1.1.1.2.2.3.2.1 0 .2 0 .2.1h1.2c.1.1.2.1.4.1s.3 0 .3.1c.1 0 .2 0 .3-.1.2-.1.7-.1 1 0h.1v-.1H29.7v-.1h1.5l.1.1h.2c.1 0 .2 0 .2-.1h.1c.1 0 .1 0 .1.1v.1h.1l.2-.1c.1 0 .2-.1.3-.2H32.8v.1l.1-.1c.2-.1.4-.1.7-.1h.3c.1-.1.1-.1.2 0s.2.1.4.1c0-.1.1-.1.1-.1l.1.1c.1.1.2.1.3.1.1.1.3.1.5.1s.4 0 .5.1c.2-.1.4 0 .6.1l.1.1v-.1c0-.1.1-.1.3-.1.1 0 .2 0 .3-.1.1.1.2.1.3.1h.2c.1-.1.2-.1.3 0l.4.1c0-.1.1-.1.3-.1.1 0 .3 0 .4-.1h.2c.1 0 .2 0 .2.1.2.1.3-.1.3-.1.1 0 .2.1.2.1.1 0 .2 0 .2.1l1.7.1c.1-.1.3-.1.5-.1h.3c.1.1.2.1.4.1h.2c.2.2.5.1.8.1h.2V26c-.1-.2-.3-.2-.5-.2-.1 0-.3 0-.4-.1h-.4c-.3 0-.6 0-.8-.1H41.1c0 .1-.1.1-.2.1h-.1c-.1-.1-.3-.1-.4-.1h-.2c-.1-.1-.2-.1-.2-.1h-.1c-.3 0-.5-.1-.7-.2l-.1.1c-.3 0-.6-.1-.7-.3-.1-.1-.2-.1-.3 0-1.1-.1-1.1 0-1.1.1-.1.1-.2.1-.3.2 0 0-.1.1-.2.1h-.1c-.2 0-.3 0-.4-.1l-.3-.1c-.2 0-.4-.1-.6-.1-.1-.1-.3-.1-.5-.1s-.3 0-.4-.1l-.2.1-.4-.2s-.1 0-.1-.1v-.1c0-.1 0-.1-.1-.1 0-.2 0-.3.1-.4.1-.1.2-.2.3-.2l.2-.1c.1 0 .2-.1.3-.1.1-.1.1-.1.2-.1h.1v-.1h.1c.1 0 .2 0 .2-.1.3.1.6 0 .8 0 .2 0 .5-.1.8 0l.3-.1.2-.1.3-.3c.2-.2.4-.4.7-.5.1-.2.2-.3.4-.4.2-.1.3-.2.4-.4h.2c.2 0 .2 0 .3.1.2 0 .2-.1.3-.1v-.1H41l.4.4.4.5c.2 0 .2 0 .3-.1.1 0 .1-.1.1 0h.1c.1-.1.2-.1.3-.1h.4l.1-.1-.1-.1c-.2-.1-.4-.1-.6-.1h-.1c-.2-.1-.4-.2-.5-.4h.1c.1 0 .1 0 .2-.1.2 0 .4 0 .5-.1l.4-.1v-.1h-1.1c-.4 0-.9 0-1.3-.1l.1-.1c0-.1 0-.1.1 0h.1v-.1c.1-.1.2-.1.3-.1l.3-.1s.1-.1.2 0c.1 0 .3 0 .4-.1.3.1.5 0 .7-.1h.1l.1-.1c.1-.1.2-.3.1-.5H43v.1c-.1.1-.2.2-.4.3l-.1-.1v-.1h.1l.1-.3c0-.1.1-.3.1-.5v-.2H42.5c-.1 0 0-.2 0-.3v-.1c.1-.2.3-.2.5-.2h.2v-.1c0-.1-.1-.1-.2-.1h-.1V18v-.3l-.3.2s-.1.1-.2.1v-.2c0-.1 0-.3.1-.4v-.1-.1c-.1-.1-.2-.1-.2-.1s-.1.1-.1.2c-.2-.1-.2-.1-.2-.3 0-.1-.1-.2-.2-.2h-.3v.1c0 .1.1.1.1.2s0 .3-.1.4h-.1c0-.3-.1-.5-.2-.7-.1-.2-.2-.2-.4-.3-.1 0-.2-.1-.2-.1-.1.1-.2.1-.2.2v.5l-.1-.1h-.2v.2s0 .1-.1.1c0 0-.1.1-.1.2v.1c-.1.2-.1.4-.1.6v.5c-.1.1-.1.2-.2.3 0 .1 0 .1-.1.1-.1-.1-.1-.1-.1-.2v-.2c0-.1 0-.3-.2-.4l-.1-.1v.1l-.1.5c0 .1 0 .3-.1.4 0-.1-.1-.1-.1-.2s-.1-.3-.3-.3h-.1v.4c0 .1 0 .2.1.2v.1c0 .2.1.3.2.4l.1.1c.3 0 .4 0 .6-.2 0 0 .1 0 .1.1v.1l.2-.2v-.1c0-.1 0-.2.1-.3 0-.1.1-.2.1-.4v-.1c.2-.1.3-.3.3-.5l.1-.2c.1 0 .1-.1.1 0 .1.2.2.2.4.2.1 0 .2 0 .2.1.1.1.1.1.1.2 0 0 .1.1.1.2 0 .2.1.3.2.4.1.1.2.1.2.2l-.2.3v-.1c0-.2 0-.3-.2-.5l-.1-.1v.2l-.1.1v.1c.3-.4.2-.4 0-.4-.1 0-.2 0-.2-.1-.2 0-.2.1-.3.2 0 .1-.1.2-.1.2h-.1v.6l.1.1c-.1 0-.1.1-.2.1l-.1.1v.2c0 .2-.1.3-.3.4 0 0-.2.1-.2.2h-.3c-.2 0-.4 0-.4-.1-.2 0-.4 0-.6.1-.2 0-.2.3-.2.4l-.3.3s-.3.2-.3.3c-.3.1-.5.3-.7.5l-.2.2h-.1c-.2.3-.5.3-.8.2h-.6v.1c-.1 0-.2 0-.3.1-.1 0-.1.1-.2 0V23c0-.1.2-.1.3-.1.1 0 .3 0 .4-.2v-.1c0-.1 0-.1-.1-.2l.1-.2s.1-.2.2-.3l.3-.3c.1-.1.1-.2.3-.3.2 0 .4 0 .5-.1.2-.1.4-.3.5-.5l.4-.5c0-.1.1-.2.2-.3.1-.1.2-.1.3-.2v-.1h-.1c-.2-.1-.2 0-.3.1h-.2v.1c-.1.2-.3.3-.5.5l-.2.2c-.1.3-.3.5-.5.7-.1-.1-.2-.1-.4-.1h-.3c0-.2-.1-.3-.2-.4v-.2-.3c0-.1 0-.2.1-.2h.4c.1-.1.2-.1.3-.1.1 0 .3 0 .4-.1v-.1-.1c0-.1-.1-.1-.1-.1h-.1c0-.1.1-.1.2-.2l.2-.1.2-.1c.1-.1.2-.1.3 0 0 .2.3.3.4.3.2 0 .4.1.4.2v.1h.1c.1-.1.2-.2.2-.4v-.1-.3h.4v-.2l.1-.1c.1-.1.2-.2.4-.3h.1v-1.2c-.1-.1-.2-.2-.4-.2 0 0-.1.3-.1.4 0-.1-.1-.1-.1-.2l-.2-.2c-.1-.1-.2 0-.3.1-.4-.1-.5.2-.6.4v.1-.1-.3-.3c0-.2 0-.4-.2-.6l-.1-.1-.1.1c-.1.2-.2.4-.3.7h-.4l-.1-.1c0-.1-.1-.3-.1-.4l-.1-.4h-.1v.5c0 .1 0 .2.1.3V17.1s0-.1-.1-.1v-.1c0-.1 0-.2-.1-.3 0-.1-.1-.2-.1-.3v-.2h-.4v.1c0 .1 0 .2.1.3v.2c-.1-.1-.2-.2-.4-.1v.1c0 .1 0 .1-.1.1s-.2.1-.2.3c0 0 .1.1.1.2v.1c0 .1 0 .2.1.3v.1c.1.1.2.1.2.1.1 0 .2 0 .2.1h.2c.1 0 .1-.1.1-.1v-.1h.2V18.1c0 .1 0 .2-.1.3l-.2.1c-.1.1-.2.1-.2.1v-.1c0-.1-.1-.2-.1-.2l-.1-.2v.1l-.1.3c-.1.2-.1.3-.3.3-.1 0-.1-.1-.1-.3 0-.2 0-.4-.3-.4h-.1l.1.1-.1.1v.1c.1.1.1.2.1.4s0 .4.1.5c0 0 0 .1.1.2H35v.1l-.1.2v-.1c-.1.1-.1.2-.1.3 0 .1 0 .3.1.4l.1.4c.1.1.1.2.1.3v.5c-.1-.1-.1-.1-.1 0l-.1.2-.2.3c0 .1-.1.2-.2.3l-.2.2s-.1 0-.1-.1c.1 0 .1-.2.1-.3V21.9c-.1-.1-.2-.2-.2-.3 0-.1-.1-.3-.3-.4 0-.1-.2-.3-.2-.3l-.1-.2v-.1c0-.1.1-.2.2-.3l.2-.2v-.2-.3c0-.1 0-.2-.1-.3.1-.1.1-.2.3-.1h.1v-.4c0-.4.1-.8-.1-1v-.1l-.1.1c-.1 0-.3 0-.3.1-.1.1-.2.1-.3 0v-.1l-.1.1c-.1.1-.2.2-.2.3v.1c0 .1-.1.2-.1.2 0 .1 0 .1-.1.1l-.1-.1-.1-.1c-.1 0-.1 0-.2.1l-.2.1h.1s.1 0 .1.1v.2c0 .1 0 .1.1.2v.1c0 .1.1.2.1.2l.1.1v.1c.1.1.2.2.3.2v.5c0 .2 0 .4-.1.5l-.1.1h.1V21.2c.1.1.2.2.2.4v.1c.2.1.2.3.2.5v.2c0 .1.1.1.1.1v.4l-.1.1c-.1.1-.2.2-.3.1-.1 0-.1-.1-.1-.2 0 0-.1-.1-.1-.2v-.2c0-.1 0-.2-.1-.4l.1-.1c-.1-.1-.1-.2-.1-.3-.1-.1-.1-.2-.1-.2 0-.1.1-.2.1-.4l.1-.3c.1-.1.1-.2.1-.3v-.4l-.1-.1-.2.1c.1.4-.3.6-.6.8l-.1-.1s-.1-.1-.1-.2v-.2c0-.2.1-.3.1-.5v-.1c.1 0 .1-.1.1-.2v-.1c0-.1 0-.1.1-.1l.2-.1-.2-.1v-.1c0-.1 0-.2-.1-.3l-.1.1c-.1-.1-.1-.2-.1-.3 0-.1 0-.3-.1-.4h-.1c-.1 0-.2 0-.3-.1-.1 0-.2-.1-.2-.1-.1 0-.1.1-.1.1H31c-.1 0-.2-.1-.2-.2v-.1-.1c0-.1 0-.1.1-.1h.1l-.2-.1c0-.1.1-1.5.1-1.5s-.1-.1-.1-.2v-.1l-.1-.4zm-12.3 3.5c.1 0 .1-.1.1-.2v-.1h.1c.1.2.3.3.5.4.2.1.4.2.6.5l.2.1c.1.1.2.1.3.1h-.4v-.1l-.3-.3c-.2.1-.3.3-.3.5v.4c-.1.1-.1.1-.1.2V20.6h.1c.1 0 .2.1.3.2l-.1.1v.1h-.1-.1c0-.1-.1-.2-.1-.2l-.1.1h-.1c-.1 0-.3 0-.4.1l.1-.1v-.2c-.1-.1-.3-.1-.4-.1h-.3v-.2s-.1-.2-.2-.3h.1s.1-.1.1-.2v-.1l-.1-.1c.1 0 .1.1.2.1 0 .1.1.1.1.2l.1.1H18.5c.2 0 .4 0 .4-.2l-.4-.4c.1-.1.1-.2.1-.3v-.1h-.1s-.1 0-.1-.1c-.1-.1-.1-.1 0-.2-.1.1-.1 0 0 0-.1 0 0 0 0 0zm1-.3c0 .1 0 .1.1.1-.1 0-.1-.1-.1-.1-.1 0 0 0 0 0zm.2-.6v-.3c0-.1-.1-.2-.1-.2v-.1c0-.1.1-.1.2-.1h.1v.5h.1c0-.1 0-.1.1-.1s.2-.1.3-.3l.1.1c.1.1.1.1.1.2.1.1.2.3.2.5v.4h-.1l-.1-.2c-.1-.2-.1-.3-.3-.5l-.2-.1.1.2.1.4s.1.3.1.4c-.1 0-.1.1-.1.2v-.1c-.2-.2-.4-.2-.5-.2h-.2c0-.1.1-.1.1-.1v-.1c0-.2-.1-.3-.2-.4l-.2-.2c.1 0 .2.1.2.1h.2zm1 1.6l-.1-.2c-.1-.1-.1-.1-.1-.2.1.1.3.2.5.3l.2.1c.4.1.7.4.9.6l.1.1H22c-.2 0-.3 0-.4-.1-.3-.1-.4-.2-.6-.1l-.2-.1-.2-.2c-.1-.1 0-.2 0-.2zm3.2-2.5c.1 0 .1.1.2.1-.1 0-.1 0-.2-.1.1.1 0 .1 0 0 0 .1 0 .1 0 0zm0 .2c.1 0 .1 0 .1.1l-.1-.1zm-4.2 3.3s0 .1 0 0c0 .1 0 .1 0 0 0 .1 0 .1 0 0 0 .1 0 0 0 0zm1.2.2s-.1 0-.1-.1c.1.1.2.1.1.1.1 0 .3.1.5.2h-.2c-.1-.1-.2-.1-.3-.2zm1.8-.3c.2 0 .4 0 .5.1.1 0 .2 0 .3.1 0 0 .1 0 .1.1h-1c-.4.1-.7.2-1.1.2h.2c.1 0 .3 0 .4-.1.2 0 .3-.1.4-.1l.1-.1v-.1h-.1c.1-.1.2-.1.2-.1zm1.1.4s.1 0 .2.1c-.1 0-.1-.1-.2-.1zm-.6-2.8c.1-.1.1 0 0 0 .1 0 0 0 0 0zm7.5-2.5V15.8c0 .1 0 .2.1.3l-.1 1.5s.1 0 .1.1c-.1.1-.1.1-.1.2v.2c.1.2.2.2.3.3l.2.1v-.1-.1l.1.1c.1.1.2.1.4.1 0 .1.1.1.1.2s0 .2.1.3l.1.2c0 .1.1.1.1.2v.2s-.1.1-.1.2v.1c0 .1 0 .1-.1.1h-.1v.2c0 .2 0 .3-.1.5l-.1.2.1.1c0 .1.1.2.2.2h.1c.3-.2.7-.4.7-.8v.1c0 .1 0 .2-.1.2l-.1.3c-.1.1-.1.3-.1.4 0 .1 0 .2.1.3 0 .2.1.3.2.4l.1.3c0 .1.1.2.1.3v.2l.1.1c0 .1.1.2.2.3.2.1.4-.1.4-.2l.1-.1v-.4s0-.1-.1-.2v-.2c0-.3-.1-.5-.3-.6 0-.2-.1-.3-.2-.4v-.1c0-.1 0-.1-.1-.2.1-.2.1-.3.1-.5v-.7h-.1c-.1 0-.2 0-.2-.1v-.1c0-.1-.1-.2-.1-.2l-.1-.1v-.1l.1-.1h-.1v-.1-.1c0-.1 0-.1-.1-.1h.1l.1.1c.2 0 .2-.1.2-.2l.1-.2v-.1c0-.1 0-.1.1-.2.1.1.3.1.4 0 .1 0 .2-.1.3 0 0 0 .1 0 .1-.1.1.1.1.3.1.4V19c-.2 0-.3.1-.4.2.1.1.1.2.1.3v.5l-.2.2c-.1.1-.3.2-.3.4v.2l.1.2.1.3c.1.1.2.2.2.3 0 .1.1.3.2.4V22.3c0 .1 0 .1-.1.1v.1c0 .1.1.1.1.2l.2.2-.1.3h.1c.2.1.3 0 .4 0 .1 0 .2-.1.3 0h.1s0-.1.1-.1h.5c.3 0 .7.1.9-.3h.1l.3-.2c.2-.2.4-.4.7-.5l.3-.2c.1-.1.3-.2.4-.3v-.1c0-.2 0-.3.1-.3.1-.1.3-.1.5-.1.1.1.3.1.5.1h.3l.2-.2c.1-.1.3-.2.3-.5v-.1l.1-.1c0-.1.1-.1.1-.1v.1s0 .1-.1.1c0 .1-.1.1-.1.3V21c0 .1.1.1.2.2h.1v.2h.1c.5.1.9.1 1.4.1h.4-.4v.1s-.2 0-.2.2c.1.3.3.4.5.5-.1 0-.2 0-.3.1-.1 0-.1.1-.1.1l-.3-.4-.4-.5h-1.5l-.1.1-.1.1c-.1-.1-.3-.1-.4-.1h-.3v.1c-.1.2-.2.3-.4.4-.1.1-.3.2-.4.4-.3.1-.5.3-.7.5l-.1-.1-.3.1-.2.1c-.3-.1-.6 0-.8 0-.3 0-.5.1-.8 0h-.1v.1c0 .1 0 .1-.1.1s-.2 0-.2.1c-.1 0-.2 0-.3.1-.1.1-.1.1-.2.1l-.2.1c-.2.1-.3.1-.4.3-.1.1-.1.3-.1.5v.1s.1 0 0 .1v.1h.1l.2.1.5.2.1-.1c.1.1.3.1.5.1s.3 0 .4.1c.2 0 .4 0 .6.1 0 0 .2 0 .2.1.1.1.3.1.5.1h.2l.2-.1c.1-.1.3-.1.4-.3 0-.1 0-.1.1-.2h.1c.2.2.5.4.9.3l.1-.1c.2.1.4.2.7.2l-.1.1-.1.1c-.1-.1-.2-.1-.3-.1h-.2c0 .1-.1.1-.3.1-.1 0-.3 0-.4.1l-.2-.1c-.1-.1-.3-.1-.4 0h-.2c-.1 0-.2 0-.2-.1l-.1-.1-.1.1h-.2c-.1 0-.3 0-.4.2-.2-.1-.4-.2-.7-.1-.1-.1-.3-.1-.5-.1s-.4 0-.5-.1c-.1 0-.1 0-.2-.1 0 0-.1-.1-.2-.1s-.1.1-.1.1c-.1 0-.2 0-.2-.1-.1-.1-.2-.1-.4 0h-.2c-.3 0-.5 0-.7.1-.1-.1-.2-.1-.3-.1h-.1c-.1.1-.2.1-.3.2 0 0-.1 0-.2.1-.1-.1-.1-.1-.2-.1h-.1s0 .1-.1 0h-.1l-.1-.1-1.6-.1v.1h-.2c-.3-.1-.8-.1-1 0 0 .1-.1.1-.1.1-.1-.1-.3-.1-.4-.1-.1 0-.2 0-.3-.1h.2c.1 0 .2 0 .3-.1.1-.1.1-.1.2 0l.1-.1c.1 0 1.6.1 1.6.1s.1-.2.2-.2 1.5.1 1.5.1v-.1H31.4v-.1h.1c.1 0 .2 0 .3-.1h.6l.2-.2c.1-.1.3-.3.3-.5v-.2s-.2-.4-.3-.5v-.2c0-.4-.3-.7-.6-.9l-.2-.2-.3-.1-.3-.1-.1-.1-.2-.1c-.1 0-.1-.1-.2-.1l-.1-.1c-.2-.1-.5-.1-.7-.1-.3 0-.6 0-.8-.2-.2-.1-.5-.1-.7-.1H28.7v.1c.1 0 .2.1.2 0V21h.1l.2-.1v-.2c-.3-.4-.6-.7-1-1l-.2-.1-.3-.2h-.3c-.2 0-.4 0-.5-.1-.2 0-.3 0-.3.1 0 0-.1.1-.1 0l-.2-.3c-.2-.2-.4-.5-.8-.4-.5.3-.5.3-.6.3-.1-.1-.2-.1-.3-.1h-.2l-.1.1c-.1-.1-.3-.2-.3-.2s-.5-.4-.6-.4c0-.1 0-.3-.2-.4l.1.1V18l.1-.2c0-.1-.1-.2-.2-.2 0 0-.1 0-.1-.1.1-.1.3-.2.5-.2.1.1.1.1.2.1l.1-.1c0-.1 0-.1-.1-.2.2.1.3.3.4.4l.3.3v.4l.2.1.1-.1c0 .1.1.1.2.1h.1v-.1c0-.1 0-.1.1-.2 0-.1.1-.1.1-.2s0-.1-.1-.2c-.2 0-.4-.2-.6-.4 0 0-.1-.2-.2-.2v-.1c.1 0 .1.1.2.2s.2.3.4.2l.2-.1-.2-.1c-.1 0-.1-.1-.1-.1s0-.1.1-.1l.1.1c0 .1.1.2.3.1.1-.1.2-.2.2-.3 0-.1.1-.2.1-.2l.1.1v.4c0 .1 0 .2.1.3v.2c0 .1 0 .2.1.3 0 .1.1.2.1.2v.2h.1c.1 0 .1.1.2.2s.1.2.3.2v.2c0 .1.1.1.2.1h.1v.1l.2.2c.1.2.2.3.5.3v.1h.2c0-.1.1-.2.1-.2 0-.2-.1-.3-.1-.4 0 .1.1.2.1.2l.1.2.2.3.1.2c.1.2.3.4.5.5.2.1.4.3.4.5l.1.1c.2.2.3.3.6.4.1.1.2.1.3.1.2 0 .2 0 .3.1.2 0 .5.1.7.2.2-.1.2 0 .3.1.1.1.2.3.5.1-.1-.3-.3-.5-.4-.6-.1-.1-.2-.3-.3-.4V21c0-.1 0-.2-.1-.3v-.1c-.1 0-.1-.1-.1-.2s-.1-.2-.2-.3V20c0 .1.1.2.1.2.1.2.2.4.4.5h.1c.2-.3.3-.6.3-1v-.1h-.1c-.1 0-.2-.1-.2-.2-.1-.1-.2-.2-.3-.2-.1 0-.1.1-.2.2l-.1-.1h-.2v.1h-.1c-.1 0-.1 0-.2.1H30c0 .1 0 .1-.1 0h-.1c-.1-.1-.2-.1-.3-.2-.1-.1-.2-.2-.3-.2-.2-.1-.3-.2-.3-.4 0-.1 0-.1.1-.2-.1-.1-.2-.2-.3-.2-.1 0-.2-.1-.2-.2-.1-.1-.1-.2-.1-.2v-.2c0-.1 0-.2-.1-.3v-.1c0-.1 0-.2-.1-.2-.2-.1-.2-.1-.2-.2v-.1h.2v.1h.1s.1-.7.1-.8h.1c.1 0 .1.1.2.1l.1-.1c.1 0 .1.1.1.2v.2c0 .1 0 .2.1.2v.1c0 .1 0 .2.1.3 0 .1.1.2.1.2v.1h.1c.1-.2.1-.5.1-.8v-.5c.1.1.2.2.3.2.2 0 .2 0 .2.1.2.1.2 0 .3 0 .1 0 .1-.1.1 0h.1c.1 0 .2-.8.2-.9zm-4.8 5.8c.1 0 .1 0 0 0 .1.1.1.1 0 0 .1.1.1 0 0 0zM40.7 20c.1 0 .2 0 .3.1.2.1.4.2.6 0 .1.1.2.1.2.1h.2c.1 0 .1 0 .1.1 0 0 0 .1-.1.2-.4 0-.7.1-1 .3 0 0-.4.2-.5.2-.1 0-.1-.1-.1-.1v-.1c0-.1 0-.1.1-.2 0-.1.1-.1.1-.2.1-.2.1-.3.1-.4-.1 0-.1 0 0 0-.1 0 0 0 0 0zm2.2.2c0 .1 0 .1 0 0l-.1.1h-.1-.1c.2.1.3 0 .3-.1zm-18.6 5.1c-.1 0-.1.1-.2.1-.2.1-.3.2-.5.1h-.1c-.1.1-.1.1-.3.1-.1 0-.3 0-.4.2h-.3s.1 0 .1-.1v-.2h.4c.3 0 .6 0 .7-.2h.6zm.6.1s.1.1 0 0c0 .1 0 0 0 0zm.4.1c.1 0 .2 0 .3.1-.1 0-.3 0-.3-.1 0 .1 0 0 0 0zm14 .1c-.1 0-.1 0 0 0zm.2.1h.1c.1 0 .2 0 .3.1-.1 0-.4 0-.4-.1 0 .1 0 0 0 0zm1.9 0c-.1 0-.2 0-.3.1h-.8l.1-.1h1zm.9.1h.3c.1.1.3.1.4.1h.2c-.2 0-.5.1-.6-.1 0 .1-.2.1-.3 0 0 .1-.1 0-.2 0h.2zM37 20.3c.1-.1.2-.1.3-.2l-.4.4-.3.3c.1-.1.2-.3.2-.4-.1.1.2-.1.2-.1zm-15.2-2.8c.1 0 .3.3.3.3.1.2.3.5.6.6h.1s0-.2.1-.3c.2.1.4.4.5.6.2.1.3.3.4.5.1.2.2.4.4.5.2.1.3.2.5.4 0 0 .4.3.4.4 0 .4.4.7.8.8h.1c-.1 0-.1 0-.2.1-.1 0-.1.1-.2 0h-.1v.1c0 .1 0 .1-.1.1h-.1l-.1-.1c-.1-.1-.2-.2-.4-.1l-.3-.3c.1 0 .2.1.4 0v-.2c0-.3-.3-.6-.5-.8-.2 0-.2-.1-.3-.2-.1-.1-.2-.2-.3-.2l-.3-.3-.3-.3c0-.2-.1-.3-.3-.3-.1-.1-.2-.1-.2-.2h-.1c-.1 0-.2 0-.2.1.1.1.2.4.3.6l-.2-.2-.1-.1h-.1c-.1.1-.1.1-.3 0l-.3-.1-.1-.2c-.1-.1-.2-.3-.4-.3v-.1l.1-.1c0-.1 0-.1-.1-.1 0 0-.1 0-.1-.1.1-.1.1 0 .2 0 .1.1.2.1.3 0l.1-.1h-.1v-.1c.1-.1.1-.2.2-.3zm14.1-1.4c0 .1 0 .2.1.3 0 .1.1.1.1.2v.2h.1s.1 0 .1.1v.1c0 .1 0 .1.1.2h.1v-.1c.1-.1.1-.3.1-.5v-.2l.3.3v-.1h.5v-.1c0-.2.1-.4.2-.6 0 .1.1.2.1.4v1.2l.1-.1.2-.3c.1-.3.2-.4.5-.3h.1v-.1c0-.1 0-.1.1-.1l.1.2c.1.1.1.2.3.3l.1.1s.1-.5.1-.6c.1 0 .1 0 .2.1v1c-.2 0-.3.2-.4.3l-.1.1v.1h-.4v.7c-.1-.2-.3-.2-.5-.2s-.3-.1-.3-.2c-.2-.1-.3-.1-.5 0l-.2.1-.2.1c-.1.1-.3.1-.3.3 0 .1.1.1.2.1 0 .1-.1.1-.3.1-.1 0-.3 0-.4.1h-.4c-.1.1-.2.2-.2.4 0 .1 0 .2.1.3v.2c.1.1.1.2.1.3v.1c.1.1.2.1.4.1h.2-.1c-.2.1-.3.2-.4.3-.1.1-.1.2-.3.3l-.2.3-.2.3c0 .1.1.2.1.2v.1c0 .1-.1.1-.3.1-.1 0-.2 0-.3.1v-.1c0-.1.1-.2.2-.3.1-.1.2-.2.2-.3l.1-.3.1-.2c0-.1 0-.1.1-.2v-.4-.2c0-.1 0-.3-.1-.4l-.1-.4c0-.1-.1-.2-.1-.3 0-.1 0-.2.1-.2V19s.1-.1.1-.2v-.1l-.1-.1-.2.1v-.1c-.1-.1-.1-.2-.1-.3v-.2c0-.1 0-.3-.1-.4l.1-.1v.2c0 .2 0 .3.2.4.3 0 .4-.2.4-.4 0 0 0-.1.1-.2 0 .1.1.1.1.1l-.1.1-.1.1h.1c.2.1.4 0 .5-.1l.2-.1c.2-.1.2-.3.2-.5v-.3c-.1-.1-.2-.1-.3-.1h-.2l-.1.2v.1c-.1-.1-.2-.1-.3-.1h-.1v-.2h-.1c-.1 0-.1 0-.1-.1v-.1c0-.1 0-.2-.1-.2 0-.1 0-.1.1-.1s.2-.1.2-.2c.1 0 .1 0 .1.1l.2.2v-.1c0-.1.1-.1.1-.2s0-.2-.1-.2c0-.1-.1-.1-.1-.2.2.4.3.4.3.4zm4.6 1.2c.1-.1.1-.2.1-.3v-.2-.1s0-.1.1-.1c.1.1.2.1.2.1.1 0 .2.1.3.2.1.2.1.4.2.7v.1H41.7c0-.1.1-.3.1-.4 0-.1 0-.2-.1-.2h.1v.1c0 .1 0 .3.2.4h.1s.1-.2.1-.3c0 0 .1 0 .1.1v.1c-.1.1-.1.3-.1.4v.4l.4-.2s.1 0 .1-.1v.4h.1c-.2 0-.4.1-.5.3v.2c0 .1 0 .2.1.3.1 0 .1.1.2 0 0 .2 0 .3-.1.4l-.1.3c-.1.1-.1.2-.1.2l.2.1c-.1 0-.2.1-.4 0 0-.1.1-.1.1-.2v-.1c0-.1-.1-.1-.2-.1 0-.1-.1-.1-.2-.1s-.2 0-.2-.1v-.1l-.1.1c-.1.2-.3.2-.5.1-.1-.1-.3-.1-.4-.1h-.2v-.1h-.1v-.1-.1c.1-.1.2-.1.2-.2s.1-.1.1-.1c.1.1.2.1.3.1.1 0 .2 0 .3.1h.2l.1-.1V19c0 .1.1.2.1.3l.1.5.1-.2.1-.2.2-.3c0-.2-.1-.3-.2-.4-.1-.1-.2-.1-.2-.3l-.1-.2c0-.1-.1-.2-.2-.2 0-.1-.2-.1-.3-.1-.2 0-.2 0-.3-.1-.1-.1-.2 0-.3 0h-.1l-.1.3c-.1.2-.1.4-.3.5v.2c0 .1 0 .2-.1.3 0 .1-.1.2-.1.4v.1l-.1.1c-.1-.1-.1-.1-.2-.1-.1.2-.2.2-.4.2v-.1c-.1-.1-.1-.2-.1-.3v-.2h-.1c-.1 0-.1-.1-.1-.1V19v-.1s.1.1.1.2.1.2.2.3h.1v-.1c.1-.2.1-.4.1-.6v-.2V18.8c0 .1 0 .2.1.3v.1s0 .1.1.1c.1-.1.1-.2.2-.3 0-.1.1-.2.1-.3v-.3-.2c0-.2 0-.4.1-.5v-.1c0-.1 0-.1.1-.1 0 0 .1-.1.1-.2v-.1s.1 0 .1.1h.3zm-13.1-.4s.1.1.1.2v.1c0 .1.1.1.1.2v.2c-.1-.2-.1-.4-.2-.5v-.2zm.2 1.8c0-.1 0-.2.1-.3v-.2c0-.1 0-.2-.1-.3 0-.1-.1-.2-.1-.2v-.1.2c0 .1 0 .1.1.2v.1c0 .1 0 .2-.1.3.2.1.2.2.1.3 0 .1 0 .1.1.2 0-.1-.1-.1-.1-.2z" fill="#00093C"/><path d="M32.1 15.3c0 .2.1.5-.1.7v1.1c.1 0 .1.1.1.2l.4.4c.2-.1-.1-.5.2-.4.1.3.2.6.3.8-.2.1-.3-.1-.5-.2l-.1.1c0-.2-.2-.1-.4-.1 0 .1-.1.1-.2.1-.1-.1-.2 0-.4-.3.1-.3-.5-.4-.2-.6-.1-.2.2-.2.1-.4l.1-.1c0-.1-.2-.2-.3-.3.1-.4-.1-.8.1-1.1.2-.1.3-.3.5-.2.1.2.2.3.4.3z" fill="#00093C"/><path d="M31.3 15.1l-.1.1c-.1.2-.1.4-.1.6v.5l.1.1.1.1-.1.1s0 .1-.1.1c0 .1-.1.1-.1.2-.1 0-.1.1-.1.2s.1.2.2.2c.1.1.2.1.2.2.1.2.2.2.3.2l.1.1c.1 0 .2 0 .3-.1h.1c.1 0 .2 0 .2.1v.2l.1-.2c.1.1.2.2.4.1h.1l-.2-.7-.1-.3h-.2c-.1 0-.1.1-.1.2v.2c-.1-.1-.2-.3-.3-.3 0-.1 0-.1-.1-.1v-1.1c.1-.1.1-.2.1-.4V15h-.1c-.1 0-.2-.1-.4-.2 0 .1-.1.2-.2.3zm.1.1c.1-.1.2-.2.3-.1.1.1.2.2.4.2v.2c0 .1 0 .2-.1.3V17s.1 0 .1.1l.4.5c.1-.1.1-.2.1-.2v-.2c0 .1.1.2.1.2s.1.4.2.5c-.1 0-.2 0-.2-.1l-.1-.1v.1c-.1-.1-.2-.1-.2-.1h-.2c0 .1-.1.1-.1.1l-.1-.1c-.1 0-.1-.1-.2-.2 0-.1-.1-.2-.2-.3l-.1-.1.1-.1v-.1-.1s0-.1.1-.1c0 0 .1-.1.1-.2l.1-.1-.2-.2-.1-.1v-.5c0-.2 0-.4.1-.5-.4.2-.3.1-.3.1z" fill="#00093C"/><path d="M32.7 15.4c.2.4-.2.5-.1.9-.2.1.1.7-.4.6 0-.3.2-.5.1-.9.3-.1 0-.7.4-.6z" fill="#00093C"/><path d="M32.7 15.3l-.2.1c-.1.1-.1.2-.1.3 0 .1 0 .2-.1.3v.1c0 .2 0 .3-.1.5 0 .1-.1.3-.1.4v.1l.2-.1c.1-.1.1-.2.1-.3 0-.1 0-.2.1-.2h.1v-.1c0-.2 0-.3.1-.4.1-.3.1-.4 0-.7zm-.2.4v-.2h.1v.1c0 .1 0 .2-.1.2 0 .1-.1.2-.1.3v.1c-.1.1-.1.2-.1.3v.2h-.1c0-.1 0-.2.1-.3 0-.1.1-.2.1-.4v-.1c.1 0 .1-.1.1-.2zM33.5 16.1c0 .2-.2.4-.1.7-.3.1 0 .5-.3.5-.2 0-.2-.2-.3-.3-.1-.3.2-.3.1-.6.1-.1.2-.3.3-.5.1.1.2.1.3.2z" fill="#00093C"/><path d="M33.1 15.9l-.1.3-.2.3v.2c-.1.1-.1.2-.1.4l.1.1c.1.1.2.2.3.2.2 0 .2-.2.2-.3 0-.1 0-.2.1-.2h.1v-.1c0-.1 0-.3.1-.4l.1-.3c-.2-.1-.3-.2-.6-.2zm.3.3l-.1.2c0 .1-.1.2-.1.3v.1c-.1.1-.1.2-.1.3v.1c0 .1 0 .2-.1.2s-.1-.1-.2-.2l-.1-.1V17c0-.1 0-.1.1-.2 0-.1.1-.1.1-.2v-.1c0-.1.2-.3.2-.3s0-.1.1-.1.2 0 .2.1zM26.6 16.8l.2-.2c.3.1.1.5.4.7-.1.4.2.6 0 1-.3.1-.3-.2-.6-.1-.1-.2.1-.5-.1-.6.1-.2-.2-.3-.1-.5-.2-.1-.1-.4-.1-.6.2-.1.1.2.3.3z" fill="#00093C"/><path d="M26.2 16.5v.2c0 .1 0 .2.1.3v.1c0 .1.1.2.1.2 0 .1.1.1.1.1v.1s.1.1.1.2v.5H26.9c.1.1.2.1.4.1.1-.2 0-.4 0-.5 0-.1-.1-.3 0-.4-.1-.1-.1-.2-.1-.3 0-.2 0-.4-.3-.4l-.2.2-.1-.1c0-.1-.1-.2-.2-.3h-.2zm.3.9c0-.1-.1-.2-.1-.2 0-.1-.1-.1-.1-.1v-.2c-.1 0-.1-.1-.1-.2v-.2-.1s0 .1.1.1c0 .1.1.2.2.3 0 0 .1-.1.1-.2.1.1.1.2.2.3 0 .1 0 .2.1.3v.2c0 .1 0 .2.1.3 0 .1.1.2.1.3v.1c-.1 0-.1 0-.2-.1-.1 0-.2-.1-.3-.1V17.6c0 .1 0 0-.1-.2 0 .1 0 .1 0 0zM46.1 19.3c.2.1.1-.3.3-.3 0-.3.1-.4.3-.6.1.1-.1.3.1.3-.2.4-.5.7-.5 1.2.1 0 .1-.2.3-.1.1-.4.6-.5.4-1 .1 0 .1-.2.3-.1.1.1-.1.3.2.3l.3-.2c0 .4-.4.6-.4.9-.1.1-.3.2-.3.4.1.3.4.1.6.2-.1.1-.4 0-.4.3l.6.3c-.3 0-.8.1-1-.1-.3.1-.2-.2-.5-.1-.1-.2-.3-.1-.4-.1-.2.2-.4.5-.6.5 0 .1-.1.1-.2.1-.2.2-.3.6-.7.3.3.1.4-.4.7-.3 0-.2.3-.1.3-.3.1-.2.4-.3.5-.6.1-.1.4-.1.4-.4-.1-.2-.4-.2-.5-.4 0-.2-.2-.1-.2-.3 0 .1-.2.1-.3.1.1-.3-.2-.2-.2-.5h-.1c.3-.2.2.3.5.1 0-.2.1-.5-.1-.6 0-.1 0-.2.1-.2.1.2.2.4.3.5-.1.2.1.2.2.3.2-.2.2-.5.2-.7.1 0 .1-.2.1-.2-.2.3-.4.9-.3 1.3z" fill="#00093C"/><path d="M45.9 18v.1c0 .1 0 .1-.1.1h-.1v.2c0 .2 0 .4-.1.5 0 0-.1 0-.1-.1l-.1-.3-.2-.3c-.1-.1-.1 0-.1 0-.1 0-.1.1-.1.2 0 0 .1.1.1.2V18.9s-.1 0-.1-.1l-.2-.1-.4.2H44.7c0 .1.1.2.1.2.1 0 .1.1.1.1v.2h.6l.3.3.2.1c0 .1-.1.1-.2.2l-.2.1c-.1.2-.2.3-.3.3-.1.1-.2.2-.2.3-.1.3-.1.3-.2.3 0 0-.1 0-.1.1-.1 0-.2.1-.3.2-.1.1-.2.2-.3.1l-.2.2c.3.2.5 0 .6-.2l.1-.1h.2v-.1c.2 0 .3-.2.5-.3l.2-.2H45.9v.1h.1c.1 0 .1 0 .2.1s.1.1.3.1c.2.2.7.1 1 .1h.3s-.7-.4-.8-.4c0-.1.1-.1.2-.1l.3-.1-.1-.1c-.1-.1-.2-.1-.3-.1-.2 0-.2 0-.3-.1 0 0 0-.1.1-.2l.1-.1c0-.2.1-.3.2-.4.1-.1.2-.3.2-.5v-.1l-.1.1V18.7c-.1-.1-.2 0-.2 0l-.1.1V19.1c0 .2-.1.3-.2.4-.1.1-.2.2-.2.3-.1 0-.1 0-.1.1 0-.3.2-.5.3-.7l.3-.5H47l-.1-.3-.1.1c-.2.1-.3.3-.3.5v.1c-.1.1-.1.1-.1.2V19.1v-.2-.2c0-.2 0-.4-.2-.5l-.1-.1-.2-.1zm.1.2v.7c0 .1 0 .2.1.3h.2c.1 0 .1-.1.1-.2s0-.1.1-.1v-.1-.1c0-.1.1-.2.2-.3v.2c0 .1-.2.3-.2.3-.2.3-.3.5-.3.9l.1.1.1-.1h.2v-.1c0-.1.1-.2.2-.3.1-.1.2-.3.2-.5v-.2l.1-.1v.1c0 .1 0 .1.1.2h.2l.1-.1c0 .1-.1.2-.2.3-.1.1-.2.3-.2.5l-.1.1c-.1.1-.2.1-.2.3v.1c.1.2.2.2.3.2-.1 0-.2.1-.2.3l.4.2c-.3 0-.6 0-.8-.1h-.2c-.1-.1-.1-.1-.3-.1-.1-.1-.2-.1-.3-.1h-.2l-.2.2c-.1.1-.2.2-.3.2 0-.1.1-.2.2-.2.1-.1.2-.2.3-.4h.1c.1 0 .3-.1.3-.3v-.1l-.3-.2c-.1 0-.2-.1-.2-.2s-.1-.1-.1-.2h-.1-.2c0-.1-.1-.2-.1-.2-.1 0-.1-.1-.1-.1.1.1.1.2.3.1v-.2V18.6s.1.2.1.3v.1c0 .1.1.1.1.2l.1.1h.1c.2-.2.2-.5.2-.7v-.1c.2-.2.3-.2.3-.3zM32.5 19c.2.1.1.3.1.5h-.2c-.1-.2-.1-.4-.1-.7-.2 0 0-.3-.2-.3l.1-.3c.1.3.3.5.3.8z" fill="#00093C"/><path d="M32 18.7c.1 0 .1 0 .1.1v.1c0 .1 0 .1.1.2 0 .2 0 .4.1.7h.1l.2-.1V19.4c0-.1 0-.2-.1-.2 0-.3-.2-.6-.3-.8l-.1-.1-.1.4zm.2-.2c.1.1.1.2.2.4h-.1s0-.1-.1-.2v-.2zm.2.4s0 .1 0 0v0zm0 .2c.1 0 .1.1.1.2v.2c-.1-.1-.1-.3-.1-.4zM44.9 19.5c0 .2.1.3.4.3l-.3.3.4.1c-.1.2-.3.2-.4.4-.2 0-.3.1-.4.2-.2-.1-.3.3-.5 0 .1 0 .1-.2.1-.3-.1-.2-.5-.2-.4-.6-.1-.1-.3-.1-.2-.3l1.3-.1z" fill="#00093C"/><path d="M43.6 19.5v.1l.1.2h.1v.1c0 .2.1.3.2.3l.2.1c0 .1-.1.2-.1.2H44v.1c0 .1.1.1.1.2.1 0 .1 0 .2-.1s.1-.1.2 0c.1-.1.2-.1.4-.1l.2-.1c.1-.1.2-.1.3-.3v-.1s-.3-.1-.4-.1l.3-.3h-.4c-.1 0-.1-.1-.1-.2v-.1l-1.2.1zm.7.8l-.3-.2c0-.1-.1-.1-.1-.2v-.2l-.2-.1h1.1c0 .1.1.2.1.2h.1c-.1 0-.2.2-.2.2s.3.1.4.1c0 0-.1.1-.2.1 0 0-.1.1-.2.1-.2 0-.3.1-.4.2-.1 0-.2 0-.3.1H44v-.1c.3.1.3-.1.3-.2z" fill="#00093C"/><path d="M44.4 19.4l-.6.1v-.2c.2.1.4.1.6.1z" fill="#00093C"/><path d="M43.7 19.4v.3l.7-.2v-.1h-.7zm.1 0h.1s0 .1-.1 0zM44.3 21.6c-.2.1-1.3-.1-1.3-.2.1 0 1.1.1 1.3.2z" fill="#00093C"/><path d="M42.9 21.4c.3.2 1.2.3 1.4.2l.2-.1-.2-.1c-.2.1-1.1-.1-1.4 0l-.1-.1.1.1zM30.1 17.2h-.2v-.7c.2.3.3.5.2.7z" fill="#00093C"/><path d="M29.9 17.4l.3-.1c.1-.3-.1-.5-.2-.7l-.1-.2v1zm.2-.5V16.9zM31.7 17.4c-.2 0-.1-.3-.2-.3l.1-.1c.2 0 .1.2.1.4z" fill="#00093C"/><path d="M31.4 17.1l.1.2c0 .1.1.2.2.2h.1v-.2c0-.2 0-.4-.2-.4l-.2.2zm.2 0l.1.1v.1c0-.1-.1-.2-.1-.2zM28.4 17.8h.1v-.2h-.2l.1.2zM30.1 18.4c-.2-.3.2-.4.1-.7 0 .2 0 .5-.1.7z" fill="#00093C"/><path d="M30.1 17.7c0 .1 0 .2-.1.3-.1.1-.1.2 0 .4l.1.1.1-.1c.1-.1.2-.3.2-.5v-.2h-.3zM25.8 18c.2.2.3.4.5.5 0 .2.2.3.3.4h.1c0 .2.2.4-.1.5-.1 0-.4-.1-.5.1-.3-.1-.4-.4-.5-.5-.2-.4.3-.2.2-.5l-.4-.5c.2-.2.5-.2.4 0z" fill="#00093C"/><path d="M25.7 17.8c-.1 0-.2.1-.2.2l.4.5c0 .1 0 .1-.1.2s-.2.1-.1.4l.2.2c.1.1.2.3.4.3 0-.1.1-.1.3 0h.1l.2-.1v-.4h-.2c-.1-.1-.3-.2-.3-.3v-.1h-.1c-.1 0-.2-.1-.3-.2l-.2-.2v-.2c0-.3-.1-.3-.1-.3zm0 .1c.1 0 .1 0 0 0 .1 0 0 .1 0 0v.1l.2.2.3.3c0 .2.2.3.3.4h.1V19.2l-.1.1h-.1c-.1 0-.3 0-.4.1-.1 0-.2-.1-.3-.3l-.2-.2v-.1s0-.1.1-.1.2-.1.2-.3v-.1c.2.1-.1-.2-.1-.4-.1 0-.1 0 0 0zM29.4 18.5s0 .2-.1.1c-.1 0-.2-.1-.2-.2.1-.2.3-.2.3-.5.1.2-.3.4 0 .6z" fill="#00093C"/><path d="M29.3 18c0 .1-.1.2-.1.3l-.2.1c0 .2.1.2.2.3h.2s.1 0 .1-.2c-.1-.1-.1-.1 0-.2 0-.1.1-.2 0-.3l-.1-.2-.1.2zm-.1.4s0 .1.1.1h-.1v-.1c0 .1 0 .1 0 0 0 .1 0 0 0 0zM20 17.9l.1.2s.1 0 .1-.1 0-.1-.1-.1H20zM28.6 18.3h.1-.1c.1-.1.1 0 0 0zM21.8 18.1c0 .1-.1.1 0 0-.1 0-.1 0 0 0z" fill="#00093C"/><path d="M21.8 18h-.2l.1.3.1-.1.1-.2h-.1zM25.5 18.5c0-.1-.2-.1-.1-.3.1.1.1.2.1.3z" fill="#00093C"/><path d="M25.4 18.2l-.1.1c0 .1.1.1.1.1v.1h.1v-.1l-.1-.3v.1zM36.4 18.8c-.1.1-.2.3-.3.2-.1-.1 0-.3.1-.4.1-.1.1.1.2.2z" fill="#00093C"/><path d="M36.1 18.6c-.1.1-.2.3-.1.4.2 0 .2-.1.3-.2l.1-.1-.1-.1c.1 0 0-.1-.2 0zm0 .3c0-.1 0-.1.1-.2h.1l-.1.1c0 .1 0 .1-.1.1zM30.6 18.9s-.3-.1-.2-.3c.1.1.2.1.2.3z" fill="#00093C"/><path d="M30.4 18.6c-.1 0-.1.1-.1.1 0 .1.1.2.2.2l.1.1v-.1c0-.2-.1-.2-.1-.3h-.1zM24 18.4l.1.2s.1 0 .1-.1 0-.1-.1-.1H24zm.1.1s0 .1 0 0c0 .1 0 0 0 0zM42.4 19.4c0 .1.1.3-.1.4h-.2c.2 0 0-.5.3-.4z" fill="#00093C"/><path d="M42.2 19.4c-.1.1-.1.2-.1.3v.2h.2c.2-.1.1-.3.1-.4-.1-.2-.1-.2-.2-.1zm.1.2v-.1.2-.1zM45.9 19.8c.1 0 .1 0 .1-.1l-.1.1zM21.2 19.8c0 .1-.1 0-.2 0v-.2c.1.1.1.2.2.2z" fill="#00093C"/><path d="M21 19.7v.2H21.3l.1-.2h-.1s-.1 0-.1-.1l-.2-.1v.2zM31.7 21.1c.2 0 .2.4.5.3.3.4.6.8.5 1.3l-.2.1c-.3-.3-.3-.7-.6-1 0-.3-.5-.5-.4-.9.2-.1.2.1.2.2z" fill="#00093C"/><path d="M31.5 20.8c-.1.3.1.4.2.6.1.1.2.2.2.3.2.2.2.3.3.5.1.2.1.4.3.5l.2-.2c.1-.5-.2-.8-.4-1.2l-.1-.2h-.1c-.1 0-.2 0-.3-.1l-.2-.2-.1-.2v.2zm.1.1s0 .1 0 0c0 .1 0 .1 0 0zm.1.2c.1 0 .1.1.2.1.1.1.2.2.4.2l.1.1c.2.3.4.6.4.9v.1l-.1.1c-.1-.1-.2-.3-.2-.4l-.3-.6c0-.1-.1-.3-.2-.4-.2.1-.3 0-.3-.1zM31.3 22.1c-.1-.1 0 0 0 0zM31.2 22.1h.1V22c0-.1 0-.1-.1-.1h-.1l.1.2zM33.1 23.5h.2v.2c-.4-.1-.2.5-.6.4 0-.4-.6-.7-.2-1.1.5-.1.3.4.6.5z" fill="#00093C"/><path d="M32.5 23c-.3.3-.2.5 0 .8.1.1.2.3.2.4v.1h.1c.3.1.4-.1.4-.2.1-.1.1-.2.2-.2h.1v-.4h-.2c-.1 0-.1-.1-.2-.2-.2-.2-.3-.4-.6-.3zm.1.7c-.1-.1-.1-.2-.1-.3 0-.1 0-.2.1-.2.2-.1.2 0 .3.2 0 .1.1.2.2.3h.2v.1c-.2 0-.2.1-.3.2-.1.1-.1.2-.2.2-.1-.2-.2-.4-.2-.5zM32.7 25.1s-.2-.1-.2-.2l.1-.3c0 .2.3.4.1.5z" fill="#00093C"/><path d="M32.6 24.6l-.1.3v.2c0 .1.2.1.2.1l.1-.1-.1-.2-.1-.3zm0 .4s0-.1.1-.2v.1c0 .1 0 .1-.1.1zM19.3 31.6h1v.9h-1V35c0 .5.1.6.6.6h.4v1.1h-.8c-.9 0-1.6-.2-1.6-1.2v-3h-.8v-.9h.8v-1.5h1.4v1.5zM22.2 34.5c0 .9.5 1.3 1.2 1.3.6 0 1-.3 1.1-.7h1.2c-.4 1.2-1.2 1.7-2.4 1.7-1.6 0-2.6-1.1-2.6-2.7 0-1.5 1-2.7 2.6-2.7 1.7 0 2.6 1.5 2.5 3h-3.6v.1zm2.2-.9c-.1-.7-.4-1.1-1.1-1.1-.9 0-1.1.7-1.2 1.1h2.3zM26.6 33.2c.1-1.3 1.2-1.7 2.4-1.7 1 0 2.2.2 2.2 1.4v2.6c0 .5 0 .9.2 1.1H30c0-.2-.1-.3-.1-.5-.4.5-1.1.6-1.7.6-1 0-1.7-.5-1.7-1.5 0-1.1.9-1.4 1.7-1.5.9-.1 1.6-.1 1.6-.7s-.4-.7-.9-.7-.9.2-.9.8h-1.4v.1zm3.2 1c-.2.2-.7.2-1.2.3-.4.1-.8.2-.8.7 0 .5.4.6.9.6 1.1 0 1.1-.9 1.1-1.2v-.4zM33.5 31.6h1v.7h-1v3.1c0 .4.1.5.6.5h.4v.7h-.6c-.9 0-1.2-.2-1.2-1.1v-3.2h-.9v-.7h.9v-1.5h.8v1.5zM35.4 31.6h.8v1.1c.4-.8 1-1.2 1.9-1.2v.9c-1.3 0-1.8.8-1.8 2.1v2.3h-.8v-5.2h-.1zM42.9 35.1c-.2 1.1-1 1.7-2.2 1.7-1.6 0-2.4-1.1-2.4-2.7 0-1.5 1-2.6 2.4-2.6 1.8 0 2.3 1.7 2.3 2.9h-3.8c0 .9.5 1.7 1.6 1.7.7 0 1.2-.3 1.3-1h.8zm-.8-1.4c0-.8-.6-1.4-1.5-1.4s-1.4.7-1.5 1.4h3zM48.2 35.1c-.2 1.1-1 1.7-2.2 1.7-1.6 0-2.4-1.1-2.4-2.7 0-1.5 1-2.6 2.4-2.6 1.8 0 2.3 1.7 2.3 2.9h-3.8c0 .9.5 1.7 1.6 1.7.7 0 1.2-.3 1.3-1h.8zm-.9-1.4c0-.8-.6-1.4-1.5-1.4s-1.4.7-1.5 1.4h3z" fill="#00093C"/><path d="M57.4 26.4c0 13.8-11.2 25-25 25s-25-11.2-25-25 11.2-25 25-25 25 11.2 25 25z" stroke="#00093C" stroke-width="2.8"/></g><path d="M120.491 6.66l-.944-2.22 1.887 1.887.389-.167-.111-2.608.999 2.275.888-.388-1.499-3.441-1.221.555.111 2.22-1.665-1.72-1.221.554 1.499 3.441.888-.388zm10.045-2.72l-.111-2.164 1.665 2.053.943-.055L132.811 0l-.999.055.111 2.054L130.258.11l-.943.111.222 3.774.999-.056zm-2.609.278l-.166-.833-1.776.444-.166-.61 1.72-.444-.167-.833-1.72.389-.111-.555 1.72-.389-.166-.832-2.719.61.832 3.663 2.719-.61zm-20.645 15.927l-2.164-1.11 2.608.278.222-.388-1.72-1.998 2.164 1.11.444-.888-3.329-1.72-.611 1.22 1.443 1.665-2.164-.222-.611 1.221 3.33 1.72.388-.888zm3.108-5.105l-1.887-1.554 2.498.832.277-.333-1.276-2.33 1.887 1.553.61-.777-2.941-2.386-.833 1.055 1.055 1.942-2.109-.722-.888 1.055 2.941 2.386.666-.721zm4.607-8.436l1.664 2.442.777-.555-1.664-2.442.887-.61-.499-.722-2.553 1.72.5.722.888-.555zm-.444 4.051l-2.498-2.83-.721.666 2.497 2.83.722-.665zm32.688-2.885c.998.61 2.164.333 2.719-.666.61-1 .277-2.11-.722-2.72-.999-.61-2.164-.333-2.774.666-.555 1-.222 2.165.777 2.72zm.111-2.22c.333-.555.887-.722 1.442-.444.555.333.666.943.333 1.443-.333.555-.888.721-1.442.444-.555-.278-.666-.888-.333-1.443zm10.6 13.375l.555-.056.665 1.332-.388.389.499.998 2.775-2.94-.555-1.11-3.995.388.444.999zm2.941-.389l-1.055 1.055-.444-.888 1.499-.167zm-.944 5.272l2.109-.555-1.665 2.11.278.887 3.663-.999-.278-.943-1.998.555 1.61-2.054-.278-.943-3.663.999.222.943zm3.941 4.718l-2.942.277.111.944 2.942-.278.111 1.055.832-.056-.277-3.052-.833.055.056 1.055zm-7.048-11.6l.721-.499-.888-1.22 2.386-1.666-.554-.777-3.108 2.11 1.443 2.053zM143.411 5.828l1.055-2.72.943.334.278-.777-2.886-1.11-.278.777.999.388-1.054 2.72.943.388zm-7.769-1.887l.943.111.333-2.886 1.054.111.111-.832-3.052-.333-.111.832 1.055.111-.333 2.886zm18.702 39.847c1.776 0 3.053-1.22 3.053-2.996s-1.332-2.997-3.053-2.997c-1.72 0-3.108 1.22-3.108 2.997 0 1.776 1.332 2.996 3.108 2.996zm0-4.661c.944 0 1.554.721 1.554 1.665 0 .943-.61 1.665-1.554 1.665-.943 0-1.554-.722-1.554-1.665-.055-.944.555-1.665 1.554-1.665zm-.555-27.915l.611.665c.61.61 1.332.555 1.831.056.5-.5.555-1.221 0-1.832l-1.332-1.387-2.719 2.609.666.72.943-.832zm1.221-1.166l.555.555c.167.167.222.444 0 .61a.395.395 0 01-.61-.055l-.555-.555.61-.555zm8.935 23.364h-15.817v-2.053c.444.277.999.388 1.554.333a2.482 2.482 0 002.22-2.22c.056-.666-.111-1.276-.499-1.776.222-.388.333-.832.333-1.276 0-1.11-.722-2.054-1.721-2.387.056-.222.111-.5.111-.721a2.566 2.566 0 00-2.33-2.442c-.722-.056-1.332.222-1.887.666-.5.444-.777 1.11-.777 1.831 0 .222.055.444.111.666a2.518 2.518 0 00-1.721 2.387c0 .444.111.888.333 1.276-.388.5-.555 1.11-.499 1.72.111 1.222 1.11 2.22 2.331 2.276h.111c.444 0 .888-.166 1.276-.389v2.054h-13.486v-5.272a4.387 4.387 0 003.386 1.165c2.053-.222 3.718-1.831 3.94-3.885.111-1.276-.278-2.497-1.11-3.385.499-.721.777-1.61.777-2.497 0-2.11-1.443-3.83-3.441-4.274.222-.555.333-1.11.277-1.72-.055-2.22-1.886-4.107-4.106-4.218-1.221-.055-2.387.333-3.275 1.165a4.377 4.377 0 00-1.387 3.164c0 .555.111 1.054.277 1.554-1.942.444-3.385 2.22-3.385 4.273 0 .888.278 1.776.777 2.498a4.172 4.172 0 00-1.11 3.274 4.357 4.357 0 004.107 3.996h.222c1.11 0 2.164-.444 2.941-1.166v5.272h-14.041v-2.386c.444.277.944.444 1.499.444h.277c1.277-.111 2.276-1.11 2.442-2.386.056-.722-.111-1.443-.555-1.998.278-.444.389-.944.389-1.443 0-1.221-.777-2.276-1.887-2.609.055-.277.111-.555.111-.832-.056-1.387-1.166-2.553-2.553-2.608a2.754 2.754 0 00-2.053.721c-.555.5-.833 1.221-.833 1.998 0 .277.056.5.111.777-1.11.333-1.887 1.387-1.887 2.608 0 .5.167 1 .389 1.443-.444.555-.666 1.221-.555 1.943.111 1.332 1.221 2.386 2.553 2.497a2.295 2.295 0 001.609-.444v2.386h-15.706a.497.497 0 00-.499.5c0 .277.222.5.499.5h62.157c.278 0 .5-.223.5-.5 0-.278-.278-.5-.5-.5zm-45.952-6.992a.497.497 0 00-.499.5v2.719a1.705 1.705 0 01-1.609.832c-.888-.055-1.554-.721-1.665-1.61-.056-.554.166-1.054.555-1.442l.333-.333-.222-.278c-.278-.333-.444-.721-.444-1.165 0-.944.721-1.665 1.609-1.72l.777-.056-.389-.666c-.166-.278-.221-.555-.221-.888 0-.5.221-.944.554-1.276.333-.333.722-.5 1.166-.5h.111c.888.056 1.609.777 1.609 1.665 0 .333-.055.666-.222.943l-.388.722.777.055c.943.056 1.665.833 1.665 1.72 0 .445-.167.833-.444 1.166l-.333.333.333.333c.444.389.61.944.555 1.499a1.77 1.77 0 01-1.554 1.554c-.666.055-1.332-.278-1.665-.833v-2.72c.055-.332-.167-.554-.389-.554zm15.151-8.602a.497.497 0 00-.499.5v5.271l-2.165-1.609c-.222-.166-.499-.111-.666.111-.166.222-.111.5.111.666l2.72 2.053v1.776c-.611 1.11-1.832 1.832-3.164 1.72-1.665-.11-3.052-1.442-3.218-3.107-.111-1.055.333-2.11 1.109-2.83l.333-.334-.333-.332c-.554-.611-.832-1.388-.832-2.22 0-1.776 1.387-3.275 3.163-3.386l.777-.055-.388-.666a3.6 3.6 0 01-.444-1.72 3.53 3.53 0 011.054-2.498 3.272 3.272 0 012.331-.944h.222c1.721.111 3.108 1.554 3.164 3.275 0 .666-.167 1.276-.444 1.831l-.389.666.777.056c1.831.11 3.219 1.61 3.219 3.385 0 .832-.278 1.61-.833 2.22l-.333.333.333.333c.833.721 1.221 1.776 1.11 2.886-.166 1.61-1.443 2.83-3.052 2.997-1.332.11-2.664-.555-3.274-1.72v-4.607l2.664-1.998c.222-.166.277-.444.111-.666-.167-.222-.444-.277-.666-.11l-2.054 1.553v-2.33c0-.278-.166-.5-.444-.5zm14.485 8.602a.497.497 0 00-.499.5v3.107c-.278.5-.833.777-1.388.722-.777-.056-1.387-.61-1.443-1.388-.055-.5.167-.943.5-1.276l.333-.333-.278-.278c-.222-.277-.388-.61-.388-.999 0-.777.61-1.498 1.443-1.498l.777-.056-.389-.666c-.111-.222-.222-.5-.222-.777 0-.444.167-.832.5-1.11.277-.277.666-.388 1.054-.388h.111c.777.055 1.387.721 1.443 1.498 0 .278-.056.555-.222.833l-.389.666.777.055c.833.056 1.443.722 1.443 1.499 0 .388-.111.721-.388.999l-.333.333.333.333c.388.333.555.832.499 1.276-.055.722-.666 1.277-1.387 1.332-.611.056-1.166-.222-1.443-.721v-3.108c.055-.333-.166-.555-.444-.555zm-13.708 17.26h1.499v-5.772h-1.499v5.771zm3.386-5.772v5.771h3.773V42.4h-2.331v-4.44h-1.442v-.055zm-.389 14.928h4.218v-1.276h-2.72v-.999h2.664v-1.276h-2.664v-.888h2.72v-1.277h-4.218v5.717zm-5.994 0h4.218v-1.276h-2.719v-.999h2.664v-1.276h-2.664v-.888h2.719v-1.277h-4.218v5.717zm13.209-4.162c0-.222.166-.388.61-.388.555 0 1.221.222 1.665.61l.833-1.054c-.611-.5-1.388-.777-2.331-.777-1.499 0-2.276.888-2.276 1.831 0 2.22 3.275 1.61 3.275 2.387 0 .277-.333.5-.833.5-.777 0-1.443-.334-1.831-.778l-.777 1.11c.555.555 1.387.888 2.553.888 1.554 0 2.386-.777 2.386-1.942 0-2.165-3.274-1.665-3.274-2.387zm19.646.5h-12.043c-.278 0-.5.222-.5.5 0 .277.222.499.5.499h12.043a.497.497 0 00.499-.5c0-.277-.222-.5-.499-.5zm-15.595-5.495h1.498v-5.771h-1.498v5.771zm-16.15 0v-5.771h-2.053l-1.221 3.163-1.221-3.108h-2.053v5.772h1.498v-3.774l1.443 3.718h.666l1.443-3.718v3.718h1.498zm10.711-5.771v5.771h3.774V42.4h-2.331v-4.44h-1.443v-.055zm-39.347-12.043c1.11.333 2.109-.333 2.441-1.443.333-1.11-.221-2.165-1.331-2.442-1.11-.333-2.109.277-2.442 1.387-.333 1.11.222 2.165 1.332 2.498zm-.5-2.276c.167-.61.722-.832 1.332-.666.611.167.944.666.777 1.277-.166.61-.721.888-1.332.721-.61-.166-.943-.721-.777-1.332zm10.267 20.09h1.443v-5.771h-1.498v3.163l-2.331-3.163h-1.554v5.771h1.498v-3.33l2.442 3.33zm1.332 5.495h-12.653c-.278 0-.5.222-.5.5 0 .277.222.499.5.499h12.653c.278 0 .5-.222.5-.5 0-.277-.222-.5-.5-.5zm-9.934-5.384c1.776 0 3.052-1.22 3.052-2.996s-1.332-2.997-3.052-2.997-3.108 1.22-3.108 2.997c0 1.776 1.332 2.996 3.108 2.996zm0-4.661c.944 0 1.554.721 1.554 1.665 0 .943-.61 1.665-1.554 1.665-.943 0-1.554-.722-1.554-1.665-.055-.944.611-1.665 1.554-1.665zm24.696 9.878c0-1.054-.721-1.942-1.998-1.942h-2.885v5.772h1.498V50.89h.777l.943 1.943h1.721l-1.166-2.11c.5-.166 1.11-.72 1.11-1.72zm-2.22.61h-1.165v-1.22h1.165c.389 0 .722.222.722.61 0 .389-.333.61-.722.61zm-24.252-18.48c1.166.111 1.998-.721 2.109-1.831.056-.888-.388-1.443-.888-1.72l-.444.776c.278.167.5.5.5.833-.056.61-.555.999-1.166.943-.61-.055-1.054-.555-.999-1.165.056-.389.333-.666.611-.777l-.333-.888c-.5.222-1.055.666-1.166 1.554-.111 1.22.611 2.164 1.776 2.275zm60.104 9.934l-2.331-3.163h-1.554v5.771h1.498v-3.33l2.442 3.33h1.443v-5.771h-1.498v3.163zm-44.787 7.326h1.61v4.44h1.498v-4.44h1.61v-1.277h-4.718v1.277zm2.609-9.157V37.96h-4.218v5.772h4.218v-1.276h-2.72v-1h2.664V40.18h-2.664v-.888h2.72v-.055z" fill="#00093C"/></g><defs><clipPath id="prefix__clip0"><path fill="#fff" d="M6 0h52.8v52.8H6z"/></clipPath></defs></svg>