<svg width="176" height="62" viewBox="0 0 176 62" fill="none" xmlns="http://www.w3.org/2000/svg">
<g opacity="0.4">
<g clip-path="url(#clip0)">
<path d="M108.927 37.1745C108.927 37.1745 108.852 37.7007 108.589 38.0766C108.1 38.7908 107.349 39.2418 106.371 39.2418C104.642 39.2418 103.327 37.7759 103.327 35.7837C103.327 33.7916 104.642 32.3256 106.447 32.3256C107.311 32.3256 107.988 32.6263 108.476 33.1901C108.777 33.566 108.815 34.0547 108.815 34.0547C108.815 34.0547 109.642 33.8667 110.13 33.0022C110.356 32.5511 110.506 31.9873 110.13 31.5363C109.228 30.5214 107.8 30.1455 106.672 30.1455C103.327 30.1455 100.884 32.3256 100.884 35.7837C100.884 39.2042 103.327 41.4219 106.672 41.4219C108.025 41.4219 109.416 40.8957 110.318 39.8432C110.694 39.3922 110.544 38.7908 110.281 38.3021C109.792 37.3624 108.927 37.1745 108.927 37.1745Z" fill="#00093C"/>
<path d="M53.7855 30.7095C50.7409 30.7095 48.4856 32.9272 48.4856 36.0094C48.4856 39.054 50.7033 41.3093 53.7855 41.3093C56.8302 41.3093 59.0854 39.0916 59.0854 36.0094C59.0854 32.9272 56.8677 30.7095 53.7855 30.7095ZM53.7855 39.7306C51.6806 39.7306 50.1771 38.1895 50.1771 36.0094C50.1771 33.8293 51.643 32.2882 53.7855 32.2882C55.8905 32.2882 57.394 33.8293 57.394 36.0094C57.394 38.1895 55.928 39.7306 53.7855 39.7306Z" fill="#00093C"/>
<path d="M69.8356 30.7095C66.9038 30.7095 64.7988 32.9272 64.7988 35.9718C64.7988 39.0916 66.9038 41.2717 69.9108 41.2717C71.7902 41.2717 73.2186 40.5576 74.1959 39.1668C74.3462 38.8661 74.3462 38.5278 74.1959 38.2271C73.8951 37.7009 73.4065 37.5881 73.3689 37.5505L73.181 37.5129L73.1434 37.7009C73.1434 37.7009 73.1058 37.9264 72.993 38.0767L72.9554 38.1143C72.354 39.0164 71.1512 39.6554 69.9484 39.6554C67.3548 39.6554 66.6031 37.4753 66.5279 36.4605H74.3838H74.6093V35.3704C74.6093 33.0775 72.9554 30.7095 69.8356 30.7095ZM66.5279 34.9569C66.6782 34.2428 67.4676 32.2506 69.798 32.2506C71.4519 32.2506 72.8051 33.4534 72.9179 34.9569H66.5279Z" fill="#00093C"/>
<path d="M38.412 30.7095C35.4802 30.7095 33.3752 32.9272 33.3752 35.9718C33.3752 39.0916 35.4802 41.2717 38.4872 41.2717C40.3666 41.2717 41.795 40.5576 42.7723 39.1668C42.9226 38.8661 42.9226 38.5278 42.7723 38.2271C42.4716 37.7009 41.9829 37.5881 41.9453 37.5505L41.7574 37.5129L41.7198 37.7009C41.7198 37.7009 41.6822 37.9264 41.5694 38.0767C41.0056 39.0164 39.7652 39.693 38.5248 39.693C35.9312 39.693 35.1795 37.5129 35.1043 36.498H42.9602H43.1857V35.408C43.1482 33.0775 41.4943 30.7095 38.412 30.7095ZM35.0667 34.9569C35.2171 34.2428 36.0064 32.2506 38.3369 32.2506C39.9907 32.2506 41.3439 33.4534 41.4567 34.9569H35.0667Z" fill="#00093C"/>
<path d="M79.3079 35.0321C77.9172 34.7314 77.0526 34.5059 77.0526 33.5662C77.0526 32.7016 78.1051 32.2506 78.8944 32.2506C79.8717 32.2506 80.5107 32.6265 80.9994 33.491C81.1121 33.7165 81.1873 33.9421 81.1873 33.9421L81.2249 34.13L81.4128 34.0924C81.4504 34.0924 81.9767 33.9421 82.315 33.3782C82.5029 33.0399 82.5029 32.6641 82.315 32.3258C81.6384 31.2733 80.4356 30.7095 78.8944 30.7095C77.1654 30.7095 75.3988 31.7244 75.3988 33.7165C75.3988 35.859 77.2782 36.2725 78.7817 36.6108C80.2476 36.9491 81.1121 37.2122 81.1121 38.1895C81.1121 39.1668 80.0973 39.7306 79.12 39.7306C77.9923 39.7306 76.9775 39.1668 76.5264 38.2647C76.4136 38.0392 76.3385 37.8136 76.3385 37.8136L76.3009 37.6257L76.1129 37.6633C76.0753 37.6633 75.5491 37.8136 75.2108 38.3774C75.0605 38.6781 75.0229 38.9789 75.1356 39.242L75.098 39.2796L75.2108 39.4675C76.0002 40.6327 77.4285 41.3093 79.12 41.3093C80.9618 41.3093 82.8036 40.332 82.8036 38.1143C82.766 35.7463 80.849 35.3704 79.3079 35.0321Z" fill="#00093C"/>
<path d="M48.185 27.4017C48.636 27.4017 48.9743 27.4769 49.2374 27.5896C49.3126 27.6272 49.3502 27.6648 49.3502 27.6648L49.5006 27.8528L49.6885 27.6648C49.6885 27.6648 49.9892 27.3265 49.9516 26.7627C49.9516 26.6124 49.8764 26.1989 49.4254 26.0109C49.0495 25.8982 48.6736 25.8606 48.185 25.8606C46.7566 25.8606 45.1028 26.7627 45.1028 29.3187V30.9726H44.1631C43.5616 30.9726 43.073 31.4612 43.073 32.0626V32.5513H45.0652V41.0838H45.7418C46.3056 41.0838 46.719 40.6327 46.719 40.1065V32.5889H47.8843C48.4857 32.5889 48.9743 32.1002 48.9743 31.4988V31.0102H46.719V29.8073C46.6815 27.6648 47.546 27.4017 48.185 27.4017Z" fill="#00093C"/>
<path d="M65.5505 31.574C65.5129 31.3485 65.4754 30.935 64.9867 30.7847C64.7236 30.7095 64.5732 30.7095 64.4229 30.7095H64.3477C63.1449 30.7095 62.1676 31.2357 61.4534 32.213C61.4534 31.9123 61.4158 31.574 61.4158 31.2733V30.9726H60.852C60.2506 30.9726 59.762 31.4612 59.762 32.0626C59.762 32.2882 59.762 32.5513 59.7996 32.852C59.7996 33.1903 59.8371 33.5286 59.8371 33.9421V41.0838H60.5137C61.0775 41.0838 61.491 40.6327 61.491 40.1065V35.5583C61.491 33.5662 62.5811 32.4009 64.4229 32.4009C64.4981 32.4009 64.686 32.4385 64.8364 32.4761C64.9491 32.5137 64.9867 32.5513 64.9867 32.5137L65.1371 32.6641L65.2874 32.5137C65.325 32.4761 65.5881 32.1754 65.5505 31.574Z" fill="#00093C"/>
<path d="M33.563 32.5137C33.6006 32.4761 33.8637 32.1754 33.7886 31.6116C33.751 31.3861 33.7134 30.9726 33.2247 30.8222C32.9616 30.7471 32.8113 30.7471 32.6609 30.7471H32.5857C31.4205 30.7471 30.4056 31.2733 29.6915 32.2506C29.6915 31.9499 29.6539 31.6116 29.6539 31.3109V31.0102H29.0901C28.4886 31.0102 28 31.4988 28 32.1002C28 32.3258 28 32.5889 28.0376 32.8896C28.0752 33.2279 28.0752 33.5662 28.0752 33.9796V41.1214H28.7518C29.3156 41.1214 29.7291 40.6703 29.7291 40.1441V35.5583C29.7291 33.5662 30.8191 32.4009 32.6609 32.4009C32.7361 32.4009 32.924 32.4385 33.0744 32.4761C33.1872 32.5137 33.2247 32.5513 33.2247 32.5137L33.3751 32.6641L33.563 32.5137Z" fill="#00093C"/>
<path d="M130.879 30.1455C127.533 30.1455 125.09 32.3256 125.09 35.7837C125.09 39.2042 127.533 41.4219 130.879 41.4219C134.224 41.4219 136.667 39.2418 136.667 35.7837C136.667 32.3632 134.224 30.1455 130.879 30.1455ZM130.879 39.2418C128.849 39.2418 127.571 37.7759 127.571 35.7837C127.571 33.7916 128.886 32.3256 130.879 32.3256C132.908 32.3256 134.224 33.7916 134.224 35.7837C134.186 37.7759 132.871 39.2418 130.879 39.2418Z" fill="#00093C"/>
<path d="M120.918 32.1378V39.1667C120.918 40.7078 120.354 41.1213 120.354 41.1213H122.233C122.797 41.1213 123.286 40.6702 123.286 40.0688V32.4009C123.286 30.8598 123.511 30.4463 123.511 30.4463H122.647C121.707 30.4463 120.918 31.1981 120.918 32.1378Z" fill="#00093C"/>
<path d="M117.761 30.4461H112.949C112.01 30.4461 111.22 31.1979 111.22 32.1376V32.4383V32.5135V33.0773C111.22 33.0773 111.634 32.5135 113.175 32.5135H113.776C114.077 32.5135 114.302 32.8142 114.302 33.0397V39.1666C114.302 40.7077 113.739 41.1212 113.739 41.1212H115.618C116.182 41.1212 116.67 40.6701 116.67 40.0687V33.0021C116.67 32.7014 116.971 32.4759 117.197 32.4759H118.024C118.963 32.4759 119.753 31.7241 119.753 30.7844V29.8447C119.715 29.8447 119.302 30.4461 117.761 30.4461Z" fill="#00093C"/>
<path d="M146.703 30.7092C145.764 30.7092 145.237 31.461 145.2 32.4383V36.8361C145.2 36.9864 145.087 37.1368 144.899 37.1368C144.786 37.1368 144.711 37.0992 144.674 37.024C144.674 37.024 143.32 34.6184 142.832 33.6787C141.817 31.8369 141.403 30.7468 140.125 30.7468C139.186 30.7468 138.396 31.4986 138.396 32.4759V39.2417C138.396 40.7828 137.795 41.1963 137.795 41.1963H139.261C140.201 41.1963 140.727 40.4445 140.764 39.4672V34.9943C140.764 34.8439 140.877 34.6935 141.065 34.6935C141.178 34.6935 141.253 34.7311 141.291 34.8063C141.291 34.8063 142.644 37.212 143.132 38.1517C144.147 39.9935 144.561 41.0835 145.839 41.0835C146.816 41.0835 147.568 40.3318 147.568 39.3545V32.5886C147.568 31.0475 148.169 30.634 148.169 30.634H146.703V30.7092Z" fill="#00093C"/>
<path d="M97.087 32.1378C96.4855 30.7094 96.9742 30.6342 96.9742 30.6342C96.9742 30.6342 96.8614 30.4839 96.3352 30.4087C95.2076 30.2584 94.2679 30.7094 93.6289 32.1378C93.5913 32.2505 92.2757 36.0469 91.5991 37.588C90.7346 39.4298 90.2835 40.5951 88.9303 40.5951C86.6751 40.5951 86.5999 38.4526 86.5999 36.1973V32.5136H88.2913C88.8927 32.5136 89.3814 32.025 89.3814 31.4236V30.9349H86.6375V25.6726C86.6375 25.6726 86.4871 25.7478 85.9609 26.2364C85.2467 26.8754 84.946 27.74 84.946 28.6421V30.9725H83.9311C83.3673 30.9725 82.9162 31.386 82.8411 31.9498V32.5512H84.9084V36.9866C84.9084 40.0688 86.3368 41.2341 88.1034 41.5348C90.2083 41.8731 92.1253 41.1213 93.065 39.3923C93.1402 39.1291 93.5537 38.9036 93.7792 38.9036H96.899C97.1245 38.9036 97.5004 39.1291 97.6132 39.3923L97.8011 39.8057C98.2898 40.8958 97.8011 41.1965 97.8011 41.1965H99.7557C100.545 41.1965 100.808 40.5199 100.507 39.9185L97.087 32.1378ZM96.0721 36.8739H94.4934C94.2678 36.8739 94.0423 36.6859 94.1927 36.31L95.2827 33.5285L96.3728 36.31C96.5231 36.6859 96.2976 36.8739 96.0721 36.8739Z" fill="#00093C"/>
<path d="M100.395 9.39686C101.748 7.06639 99.6429 4.13452 99.6429 4.13452C99.455 5.63805 97.7259 5.90116 96.1848 7.96851C94.6437 9.99827 95.8465 11.9904 95.8465 11.9904C95.8465 11.9904 99.0415 11.7273 100.395 9.39686Z" fill="#00093C"/>
<path d="M93.253 8.49467C93.253 8.49467 94.9069 6.87838 93.8544 4.51033C92.8019 2.17987 91.1857 1.50328 91.3736 -0.000244141C91.3736 -0.000244141 88.6297 2.36781 89.419 4.96138C90.2084 7.55496 93.253 8.49467 93.253 8.49467Z" fill="#00093C"/>
<path d="M90.1332 12.0654C90.1332 12.0654 91.1856 10.9002 90.3587 9.32151C89.5317 7.7804 88.4041 7.40452 88.4417 6.35205C88.4417 6.35205 86.675 8.11869 87.3516 9.81016C87.9906 11.5768 90.1332 12.0654 90.1332 12.0654Z" fill="#00093C"/>
<path d="M97.6881 18.4181C97.6881 18.4181 100.282 18.9819 101.936 17.4408C103.552 15.8997 102.575 13.043 102.575 13.043C102.086 14.2082 100.62 14.0203 98.891 15.2983C97.1619 16.5387 97.6881 18.4181 97.6881 18.4181Z" fill="#00093C"/>
<path d="M100.357 22.3272C98.816 20.2975 96.5983 20.9365 96.5983 20.9365C96.5983 20.9365 95.9593 24.0563 97.8387 25.9733C99.7182 27.8902 103.139 26.6874 103.139 26.6874C101.71 26.1236 101.936 24.3946 100.357 22.3272Z" fill="#00093C"/>
<path d="M99.9436 20.786C99.9436 20.786 102.124 23.1165 104.792 22.6654C107.461 22.2519 108.401 18.7562 108.401 18.7562C107.085 19.5832 105.807 18.3804 103.251 18.4931C100.695 18.6059 99.9436 20.786 99.9436 20.786Z" fill="#00093C"/>
<path d="M85.7354 18.4556C85.7354 18.4556 86.224 16.5011 84.3446 15.2231C82.5028 13.9451 80.9617 14.2082 80.3979 13.0054C80.3979 13.0054 79.4582 16.05 81.2248 17.5911C82.9915 19.1698 85.7354 18.4556 85.7354 18.4556Z" fill="#00093C"/>
<path d="M87.0133 18.5307C85.6225 19.5456 85.4722 20.6732 84.4573 20.786C84.4573 20.786 86.4119 22.2143 87.953 21.3498C89.4941 20.4853 89.682 18.3427 89.682 18.3427C89.682 18.3427 88.404 17.5158 87.0133 18.5307Z" fill="#00093C"/>
<path d="M85.9233 9.96061C84.6453 9.20885 83.668 9.43438 83.217 8.68262C83.217 8.68262 82.7283 10.7124 83.9687 11.6897C85.2091 12.6294 86.9758 12.0655 86.9758 12.0655C86.9758 12.0655 87.2013 10.7124 85.9233 9.96061Z" fill="#00093C"/>
<path d="M78.2929 22.891C80.5482 24.5824 83.7056 23.4548 83.7056 23.4548C83.7056 23.4548 84.0815 21.0867 81.751 19.7336C79.4206 18.418 77.6539 18.869 76.8646 17.4783C76.8646 17.4783 76.0376 21.1995 78.2929 22.891Z" fill="#00093C"/>
<path d="M91.6365 11.7648C91.6365 10.562 92.3131 9.62231 93.1776 9.62231C94.0421 9.62231 94.7187 10.5996 94.7187 11.7648C94.7187 12.9677 94.0421 13.9074 93.1776 13.9074C92.3131 13.9449 91.6365 12.9677 91.6365 11.7648Z" fill="#00093C"/>
<path d="M99.4173 11.84C93.4784 17.1399 84.3069 12.8549 84.3069 12.8549C84.3069 12.8549 85.4721 14.2456 87.6898 15.4109C89.9075 16.5761 90.9224 16.3506 90.96 17.4782C91.2983 24.3192 89.3813 26.8376 89.3813 26.8376C92.05 25.6348 92.7642 21.6881 92.7642 21.6881C92.7642 21.6881 93.6663 25.8979 90.772 30.9723C90.772 30.9723 91.8997 30.2957 93.0273 28.4915C94.5684 26.2738 94.9819 23.793 95.0947 21.7632C95.1323 21.1994 95.1698 20.6356 95.1698 20.0342C95.1698 19.7711 95.1698 19.5455 95.2074 19.32C95.3578 16.8768 95.3578 16.7264 97.0492 15.2229C98.7783 13.7194 99.7932 11.4265 99.7932 11.4265C99.7932 11.4265 99.718 11.6145 99.4173 11.84Z" fill="#00093C"/>
<path d="M29.4286 44.7671H29.8421L31.2328 47.9245H30.7066L30.3683 47.1351H28.8272L28.4889 47.9245H28.0002L29.4286 44.7671ZM30.2179 46.7593L29.6165 45.3309L29.0151 46.7593H30.2179Z" fill="#00093C"/>
<path d="M33.9767 45.4437C33.7887 45.2181 33.488 45.0678 33.1873 45.0678C32.4731 45.0678 31.9845 45.6316 31.9845 46.3458C31.9845 47.0224 32.4356 47.5862 33.1873 47.5862C33.5632 47.5862 33.8263 47.4358 34.0143 47.1727L34.3901 47.4358C34.2774 47.5486 33.9015 47.9996 33.1497 47.9996C32.1348 47.9996 31.4958 47.1727 31.4958 46.3834C31.4958 45.4061 32.1724 44.6919 33.1873 44.6919C33.6008 44.6919 34.0518 44.8422 34.315 45.1805L33.9767 45.4437Z" fill="#00093C"/>
<path d="M35.7058 45.1806H34.6533V44.7671H37.1717V45.1806H36.1193V47.9245H35.6682V45.1806H35.7058Z" fill="#00093C"/>
<path d="M37.7356 44.7671H38.1867V47.9245H37.7356V44.7671Z" fill="#00093C"/>
<path d="M39.1265 44.7671H39.6903L41.4569 47.3607V44.7671H41.908V47.9245H41.3442L39.5399 45.3309V47.9245H39.0889V44.7671H39.1265Z" fill="#00093C"/>
<path d="M45.5915 46.1578V47.6989C45.2908 47.8869 44.7646 47.9996 44.3511 47.9996C43.2611 47.9996 42.6221 47.2479 42.6221 46.3458C42.6221 45.4061 43.3362 44.6919 44.3135 44.6919C44.9149 44.6919 45.2532 44.8422 45.5164 45.1054L45.2156 45.4437C44.9525 45.1805 44.6518 45.1054 44.3135 45.1054C43.5618 45.1054 43.1107 45.6692 43.1107 46.3458C43.1107 47.0599 43.6369 47.5862 44.3511 47.5862C44.6518 47.5862 44.9525 47.511 45.1405 47.4358V46.5713H44.4263V46.1578H45.5915Z" fill="#00093C"/>
<path d="M48.5234 45.1806H47.4709V44.7671H49.9894V45.1806H48.9369V47.9245H48.4858V45.1806H48.5234Z" fill="#00093C"/>
<path d="M50.3652 46.3458C50.3652 45.4061 51.0794 44.6919 52.0567 44.6919C53.034 44.6919 53.7482 45.4061 53.7482 46.3458C53.7482 47.2855 53.034 47.9996 52.0567 47.9996C51.0794 47.9996 50.3652 47.2855 50.3652 46.3458ZM53.2595 46.3458C53.2595 45.6692 52.7709 45.1054 52.0567 45.1054C51.3049 45.1054 50.8539 45.6692 50.8539 46.3458C50.8539 47.0224 51.3425 47.5862 52.0567 47.5862C52.8085 47.5862 53.2595 47.0224 53.2595 46.3458Z" fill="#00093C"/>
<path d="M57.2063 46.1578V47.6989C56.9056 47.8869 56.3793 47.9996 55.9659 47.9996C54.8758 47.9996 54.2368 47.2479 54.2368 46.3458C54.2368 45.4061 54.951 44.6919 55.9283 44.6919C56.5297 44.6919 56.868 44.8422 57.1311 45.1054L56.8304 45.4437C56.5673 45.1805 56.2666 45.1054 55.9283 45.1054C55.1765 45.1054 54.7255 45.6692 54.7255 46.3458C54.7255 47.0599 55.2517 47.5862 55.9659 47.5862C56.2666 47.5862 56.5673 47.511 56.7552 47.4358V46.5713H56.041V46.1578H57.2063Z" fill="#00093C"/>
<path d="M58.1084 44.7671H60.2133V45.1806H58.5595V46.1203H60.1006V46.5337H58.5595V47.5486H60.2885V47.9621H58.1084V44.7671Z" fill="#00093C"/>
<path d="M61.6792 45.1806H60.6267V44.7671H63.1451V45.1806H62.0926V47.9245H61.6416V45.1806H61.6792Z" fill="#00093C"/>
<path d="M63.709 44.7671H64.16V46.0827H65.8515V44.7671H66.3026V47.9245H65.8515V46.4961H64.16V47.9245H63.709V44.7671Z" fill="#00093C"/>
<path d="M67.167 44.7671H69.2719V45.1806H67.6181V46.1203H69.1592V46.5337H67.6181V47.5486H69.3471V47.9621H67.167V44.7671Z" fill="#00093C"/>
<path d="M70.0615 44.7671H71.1892C72.0161 44.7671 72.2416 45.2557 72.2416 45.6316C72.2416 46.0451 71.9409 46.421 71.4523 46.4586L72.3544 47.8869H71.7906L70.9636 46.4961H70.475V47.8869H70.0239V44.7671H70.0615ZM70.5126 46.1579H71.0764C71.4147 46.1579 71.753 46.0827 71.753 45.6692C71.753 45.2557 71.4147 45.1806 71.0764 45.1806H70.5126V46.1579Z" fill="#00093C"/>
<path d="M74.3088 44.7671H76.3386V45.1806H74.7599V46.1579H76.2634V46.5713H74.7599V47.9245H74.3088V44.7671Z" fill="#00093C"/>
<path d="M76.8271 46.3458C76.8271 45.4061 77.5413 44.6919 78.5186 44.6919C79.4959 44.6919 80.2101 45.4061 80.2101 46.3458C80.2101 47.2855 79.4959 47.9996 78.5186 47.9996C77.5413 47.9996 76.8271 47.2855 76.8271 46.3458ZM79.7214 46.3458C79.7214 45.6692 79.2328 45.1054 78.5186 45.1054C77.7669 45.1054 77.3158 45.6692 77.3158 46.3458C77.3158 47.0224 77.8044 47.5862 78.5186 47.5862C79.2704 47.5862 79.7214 47.0224 79.7214 46.3458Z" fill="#00093C"/>
<path d="M80.9243 44.7671H82.052C82.8789 44.7671 83.1044 45.2557 83.1044 45.6316C83.1044 46.0451 82.8037 46.421 82.3151 46.4586L83.2172 47.8869H82.6534L81.8264 46.4961H81.3754V47.8869H80.9243V44.7671ZM81.3754 46.1579H81.9392C82.2775 46.1579 82.6158 46.0827 82.6158 45.6692C82.6158 45.2557 82.2775 45.1806 81.9392 45.1806H81.3754V46.1579Z" fill="#00093C"/>
<path d="M85.1343 44.7671H85.7733L86.7882 47.1351L87.803 44.7671H88.442V47.9245H87.991V45.3309L86.9009 47.9245H86.6002L85.5102 45.3309V47.9245H85.1343V44.7671Z" fill="#00093C"/>
<path d="M90.3966 44.7671H90.8101L92.2008 47.9245H91.6746L91.3363 47.1351H89.7952L89.4569 47.9245H88.9307L90.3966 44.7671ZM91.1859 46.7593L90.5845 45.3309L89.9831 46.7593H91.1859Z" fill="#00093C"/>
<path d="M92.6894 44.7671H93.2533L95.0199 47.3607V44.7671H95.471V47.9245H94.9071L93.1029 45.3309V47.9245H92.6519V44.7671H92.6894Z" fill="#00093C"/>
<path d="M100.621 47.9245H100.019L99.6057 47.511C99.3426 47.8493 99.0419 47.9997 98.6284 47.9997C97.9142 47.9997 97.5759 47.5486 97.5759 47.0975C97.5759 46.6465 97.9142 46.3834 98.3277 46.1954C98.1397 45.9699 97.9518 45.782 97.9518 45.4813C97.9518 44.9926 98.3653 44.7295 98.8163 44.7295C99.2674 44.7295 99.6433 44.955 99.6433 45.4437C99.6433 45.8571 99.305 46.0827 98.9667 46.233L99.6057 46.872L100.019 46.233H100.508L99.8688 47.1727L100.621 47.9245ZM98.5908 46.421C98.3277 46.5713 98.0646 46.7217 98.0646 47.06C98.0646 47.3607 98.3653 47.6238 98.666 47.6238C98.9667 47.6238 99.2298 47.4358 99.3802 47.2103L98.5908 46.421ZM98.8163 45.0678C98.5908 45.0678 98.4029 45.2181 98.4029 45.4437C98.4029 45.6692 98.5908 45.8195 98.7412 45.9699C98.9667 45.8571 99.2298 45.7068 99.2298 45.4061C99.2298 45.2181 99.0419 45.0678 98.8163 45.0678Z" fill="#00093C"/>
<path d="M103.214 45.1806H102.162V44.7671H104.68V45.1806H103.628V47.9245H103.176V45.1806H103.214Z" fill="#00093C"/>
<path d="M105.281 44.7671H105.733V46.0827H107.424V44.7671H107.875V47.9245H107.424V46.4961H105.733V47.9245H105.281V44.7671Z" fill="#00093C"/>
<path d="M108.74 44.7671H110.844V45.1806H109.191V46.1203H110.732V46.5337H109.191V47.5486H110.92V47.9621H108.74V44.7671Z" fill="#00093C"/>
<path d="M112.987 44.7671H115.092V45.1806H113.438V46.1203H114.979V46.5337H113.438V47.5486H115.167V47.9621H112.987V44.7671Z" fill="#00093C"/>
<path d="M115.881 44.7671H116.445L118.212 47.3607V44.7671H118.663V47.9245H118.099L116.295 45.3309V47.9245H115.844V44.7671H115.881Z" fill="#00093C"/>
<path d="M119.151 44.7671H119.678L120.617 47.3231L121.595 44.7671H122.083L120.805 47.9245H120.392L119.151 44.7671Z" fill="#00093C"/>
<path d="M122.572 44.7671H123.023V47.9245H122.572V44.7671Z" fill="#00093C"/>
<path d="M123.925 44.7671H125.053C125.88 44.7671 126.105 45.2557 126.105 45.6316C126.105 46.0451 125.805 46.421 125.316 46.4586L126.218 47.8869H125.654L124.827 46.4961H124.339V47.8869H123.888V44.7671H123.925ZM124.376 46.1579H124.94C125.278 46.1579 125.617 46.0827 125.617 45.6692C125.617 45.2557 125.278 45.1806 124.94 45.1806H124.376V46.1579Z" fill="#00093C"/>
<path d="M126.631 46.3458C126.631 45.4061 127.346 44.6919 128.323 44.6919C129.3 44.6919 130.014 45.4061 130.014 46.3458C130.014 47.2855 129.3 47.9996 128.323 47.9996C127.308 47.9996 126.631 47.2855 126.631 46.3458ZM129.526 46.3458C129.526 45.6692 129.037 45.1054 128.323 45.1054C127.571 45.1054 127.12 45.6692 127.12 46.3458C127.12 47.0224 127.609 47.5862 128.323 47.5862C129.037 47.5862 129.526 47.0224 129.526 46.3458Z" fill="#00093C"/>
<path d="M130.728 44.7671H131.292L133.059 47.3607V44.7671H133.51V47.9245H132.946L131.142 45.3309V47.9245H130.691V44.7671H130.728Z" fill="#00093C"/>
<path d="M134.412 44.7671H135.051L136.066 47.1351L137.081 44.7671H137.72V47.9245H137.269V45.3309L136.179 47.9245H135.878L134.788 45.3309V47.9245H134.337V44.7671H134.412Z" fill="#00093C"/>
<path d="M138.66 44.7671H140.765V45.1806H139.111V46.1203H140.652V46.5337H139.111V47.5486H140.84V47.9621H138.66V44.7671Z" fill="#00093C"/>
<path d="M141.554 44.7671H142.118L143.884 47.3607V44.7671H144.335V47.9245H143.772L141.967 45.3309V47.9245H141.516V44.7671H141.554Z" fill="#00093C"/>
<path d="M145.952 45.1806H144.899V44.7671H147.418V45.1806H146.403V47.9245H145.952V45.1806Z" fill="#00093C"/>
</g>
</g>
<defs>
<clipPath id="clip0">
<rect x="28" width="120.169" height="48" fill="white"/>
</clipPath>
</defs>
</svg>
