<svg width="401" height="154" fill="none" xmlns="http://www.w3.org/2000/svg"><path d="M187.93 24.515H2M196.596 139.984H2M392.902 24.515H265.999M398.824 139.984H265.999" stroke="#E30613" stroke-width="2.464" stroke-miterlimit="10" stroke-linecap="round" stroke-linejoin="round"/><path d="M30.972 38.866c1.52 1.93 2.275 4.69 2.275 8.345 0 3.105-.69 5.315-2.07 6.76 2.144 1.52 3.245 4.552 3.245 9.176 0 4.074-.83 6.974-2.415 8.765-1.586 1.864-4.075 2.76-7.45 2.76H13.581V35.966h10.21c3.31 0 5.726.97 7.18 2.9zm-4.009 8.214c0-2.826-1.1-4.206-3.31-4.206h-3.18v8.42h3.311c2.152-.008 3.18-1.388 3.18-4.214zm1.175 16.075c0-3.105-1.101-4.756-3.31-4.97h-4.346v9.66h4.345c2.21 0 3.31-1.585 3.31-4.69zM61.71 39.005c1.864 2.144 2.76 7.525 2.76 16.15 0 8.625-.896 14.079-2.76 16.354-1.865 2.276-4.97 3.45-9.315 3.45-4.14 0-7.245-1.1-9.315-3.45-2.07-2.349-3.105-7.73-3.105-16.215S41.01 41.42 43.08 39.145c2.07-2.275 5.109-3.384 9.175-3.384 4.42 0 7.59 1.035 9.455 3.244zm-13.735 4.97c-.83.895-1.174 4.69-1.174 11.385 0 6.695.419 10.424 1.24 11.32.83.895 2.275 1.314 4.206 1.314 2.07 0 3.45-.411 4.206-1.315.755-.895 1.174-4.69 1.174-11.319 0-6.695-.345-10.49-1.109-11.385-.755-.895-2.21-1.38-4.28-1.38-1.987 0-3.433.41-4.263 1.38zM82.483 42.595c-2.135 0-3.655.41-4.485 1.38-.83.895-1.174 4.69-1.174 11.385 0 6.694.41 10.424 1.24 11.32.83.894 2.35 1.313 4.485 1.313 2.136 0 3.795-.345 5.101-1.1v7.04c-1.585.69-3.934.969-6.966 1.034-2.965.066-5.52-1.035-7.59-3.45-2.07-2.349-3.104-7.73-3.104-16.215s1.035-13.874 3.105-16.149c2.07-2.275 4.624-3.384 7.59-3.384 2.965 0 5.314.345 6.965 1.035v6.9c-1.166-.764-2.891-1.11-5.167-1.11zM100.859 57.915V74.68h-6.835V35.966h6.9v11.73l-.139 3.59 1.38-3.31 5.725-12.01h7.73l-8.97 16.355 9.454 22.359h-7.45l-6.76-16.765-1.175-3.245.14 3.245zM31.588 90.616c1.52 1.93 2.275 4.69 2.275 8.354 0 3.105-.69 5.314-2.07 6.76 2.144 1.52 3.245 4.551 3.245 9.175 0 4.066-.83 6.966-2.415 8.765-1.585 1.865-4.074 2.76-7.45 2.76H14.197V87.716h10.21c3.32 0 5.734.97 7.18 2.9zm-4 8.214c0-2.826-1.101-4.206-3.31-4.206h-3.18v8.42h3.31c2.144 0 3.18-1.388 3.18-4.214zm1.174 16.084c0-3.105-1.1-4.765-3.31-4.97h-4.346v9.66h4.346c2.201 0 3.31-1.585 3.31-4.69zM45.355 125.88a8.345 8.345 0 01-3.655-2.415c-.962-1.109-1.726-2.555-2.136-4.28-.485-1.799-.756-4-.756-6.621v-24.84h6.974v26.22c0 2.826.345 4.485 1.035 4.97.756.485 1.865.756 3.45.756 1.585 0 2.76-.271 3.384-.756.625-.485.896-2.136.896-4.97v-26.22h6.974V112.5c0 2.62-.206 4.83-.625 6.628-.484 1.791-1.1 3.245-1.996 4.346-.895 1.101-2.07 1.93-3.45 2.341-1.446.485-3.105.764-5.035.764-1.955-.008-3.614-.214-5.06-.698zM73.259 94.066c-1.52.279-2.48 1.314-2.826 3.039-.345 1.725.961 3.935 3.935 6.695 2.965 2.76 5.035 4.895 6.415 6.415 1.38 1.52 2.144 3.516 2.35 6.005.205 2.62-.69 5.035-2.62 7.245-1.931 2.209-4.626 3.31-8.215 3.244-3.656-.065-6.21-.55-7.73-1.38v-6.694c3.795 1.24 6.555 1.725 8.28 1.519 1.725-.205 2.76-1.174 3.17-2.899.42-1.791-.894-4.001-3.794-6.695-1.52-1.38-2.76-2.62-3.795-3.655-1.1-1.035-2.004-1.931-2.62-2.695-1.24-1.38-2.07-3.384-2.415-6.004-.346-2.555.55-4.97 2.414-7.245 1.93-2.35 4.551-3.524 7.87-3.524 3.384 0 5.594.345 6.76 1.1v6.9c-3.318-1.158-5.733-1.642-7.18-1.371zM93.893 87.716h-6.9v38.714h6.9V87.716zM104.958 109.04v17.39h-6.284V87.724h7.598l6.21 17.111 1.857 6.489-.271-7.179v-16.42h6.21v38.705h-7.18l-6.415-17.735-2.004-6.826.279 7.171zM137.462 36.007h-6.9v38.714h6.9V36.007zM150.687 57.323v17.39h-6.276V36.007h7.59l6.21 17.11 1.857 6.49-.272-7.18v-16.42h6.21v38.706h-7.179l-6.415-17.735-2.004-6.826.279 7.171zM131.999 94.624v8.42h6.489v6.9h-6.489v9.586h10.424v6.9h-17.316V87.724h17.316v6.9h-10.424zM153.783 94.066c-1.519.279-2.48 1.314-2.825 3.039-.345 1.725.961 3.935 3.934 6.695 2.966 2.76 5.036 4.895 6.416 6.415 1.38 1.52 2.144 3.516 2.349 6.005.205 2.62-.69 5.035-2.621 7.245-1.93 2.209-4.624 3.31-8.214 3.244-3.655-.065-6.21-.55-7.729-1.38v-6.694c3.795 1.24 6.555 1.725 8.28 1.519 1.725-.205 2.76-1.174 3.17-2.899.419-1.791-.895-4.001-3.795-6.695-1.519-1.38-2.76-2.62-3.795-3.655-1.1-1.035-2.004-1.931-2.62-2.695-1.24-1.38-2.07-3.384-2.415-6.004-.345-2.555.55-4.97 2.415-7.245 1.93-2.35 4.551-3.524 7.869-3.524 3.385 0 5.594.345 6.761 1.1v6.9c-3.319-1.158-5.734-1.642-7.18-1.371zM174.254 94.066c-1.52.279-2.481 1.314-2.826 3.039-.345 1.725.961 3.935 3.934 6.695 2.966 2.76 5.036 4.895 6.416 6.415 1.38 1.52 2.144 3.516 2.349 6.005.205 2.62-.69 5.035-2.62 7.245-1.931 2.209-4.625 3.31-8.215 3.244-3.655-.065-6.21-.55-7.729-1.38v-6.694c3.795 1.24 6.555 1.725 8.28 1.519 1.725-.205 2.76-1.174 3.171-2.899.418-1.791-.896-4.001-3.795-6.695-1.52-1.38-2.76-2.62-3.795-3.655-1.101-1.035-2.005-1.931-2.621-2.695-1.24-1.38-2.07-3.384-2.415-6.004-.345-2.555.551-4.97 2.415-7.245 1.931-2.35 4.551-3.524 7.869-3.524 3.385 0 5.594.345 6.761 1.1v6.9c-3.319-1.158-5.726-1.642-7.179-1.371z" fill="#fff"/><path d="M248.494 135.589l-1.018-9.668c-.756-15 .911-37.835 6.587-53.492 6.063-16.691 7.549-19.854 6.03-41.564M194.148 30.57c-1.56 21.989-.082 25.102 6.005 41.867 5.684 15.657 7.352 38.493 6.588 53.492l-1.019 9.668" stroke="#FDC100" stroke-width="2.464" stroke-miterlimit="10" stroke-linecap="round" stroke-linejoin="round"/><path d="M204.934 139.984c-3.204 9.232-1.832 12.001-1.832 12.001h48.004c1.364-3.36-1.832-12.001-1.832-12.001s-31.937.18-31.756 0M249.348 24.515h10.679L258.031 2h-61.837s-1.405 14.03-1.906 22.515h31.354M243.525 24.515h-8.74" stroke="#fff" stroke-width="2.464" stroke-miterlimit="10" stroke-linecap="round" stroke-linejoin="round"/><path d="M241.044 64.774c0 7.549-6.12 13.66-13.66 13.66-7.541 0-13.661-6.12-13.661-13.66 0-7.55 6.12-13.66 13.661-13.66" stroke="#E30B17" stroke-width="4.107" stroke-miterlimit="10" stroke-linecap="round" stroke-linejoin="round"/><path d="M226.833 43.63l7.483 7.483-7.483 7.475" stroke="#E30B17" stroke-width="4.107" stroke-miterlimit="10" stroke-linecap="round" stroke-linejoin="round"/><path fill-rule="evenodd" clip-rule="evenodd" d="M298.642 41.125h-21.505V62.63h21.505V41.125zm-11.45 15.59h-2.826v-9.627h4.46c2.53 0 4.099 1.347 4.099 3.417s-1.585 3.417-4.123 3.417h-1.61v2.793zm0-7.581v2.743h1.314c.953 0 1.585-.534 1.585-1.372 0-.838-.632-1.371-1.585-1.371h-1.314z" fill="#fff"/><path d="M319.244 42.061h-20.429v20.43h20.429V42.06z" stroke="#fff" stroke-width="1.643"/><path d="M305.493 57.118h2.834v-3.17h.682l2.39 3.17h3.163l-2.834-3.384.106-.025c1.397-.255 2.415-1.355 2.415-2.933 0-1.963-1.56-3.277-3.91-3.277h-4.854v9.619h.008zm2.834-5.01v-2.564h1.52c.903 0 1.569.485 1.569 1.274 0 .805-.674 1.29-1.569 1.29h-1.52z" fill="#fff"/><path d="M339.673 42.061h-20.429v20.43h20.429V42.06z" stroke="#fff" stroke-width="1.643"/><path d="M325.922 57.118h7.541v-2.234h-4.797v-1.7h4.411v-1.849h-4.411v-1.61h4.665v-2.234h-7.409v9.627z" fill="#fff"/><path d="M319.244 62.498h-20.429v20.43h20.429v-20.43z" stroke="#fff" stroke-width="1.643"/><path d="M309.001 77.752c2.686 0 4.452-1.232 4.452-3.146 0-2.325-2.218-2.678-3.861-2.916-1.117-.164-2.07-.28-2.07-1.01 0-.534.534-.912 1.437-.912.97 0 1.602.485 1.602 1.33h2.571c0-1.987-1.708-3.359-4.263-3.359-2.538 0-4.181 1.24-4.181 3.146 0 2.473 2.497 2.678 4.156 2.9.978.131 1.775.295 1.775.994 0 .591-.592.928-1.503.928-1.159 0-1.816-.526-1.832-1.33h-2.662c-.008 1.987 1.742 3.375 4.379 3.375z" fill="#fff"/><path d="M339.673 62.498h-20.429v20.43h20.429v-20.43z" stroke="#fff" stroke-width="1.643"/><path d="M325.922 77.547h7.541V75.32h-4.797v-1.709h4.411v-1.84h-4.411v-1.618h4.665v-2.226h-7.409v9.619z" fill="#fff"/><path d="M360.102 62.498h-20.429v20.43h20.429v-20.43z" stroke="#fff" stroke-width="1.643"/><path d="M345.817 77.547h2.834v-3.17h.682l2.39 3.17h3.162l-2.833-3.385.106-.024c1.397-.255 2.415-1.356 2.415-2.933 0-1.963-1.56-3.277-3.91-3.277h-4.854v9.619h.008zm2.834-5.01v-2.564h1.519c.904 0 1.569.485 1.569 1.273 0 .805-.673 1.29-1.569 1.29h-1.519z" fill="#fff"/><path d="M360.102 82.927h-20.429v20.429h20.429V82.927z" stroke="#fff" stroke-width="1.643"/><path d="M348.018 97.984h4.428l2.85-9.627h-2.932l-2.054 7.54h-.139l-2.079-7.54h-2.908l2.834 9.627z" fill="#fff"/><path d="M380.539 82.927H360.11v20.429h20.429V82.927z" stroke="#fff" stroke-width="1.643"/><path d="M366.788 97.984h7.541V95.75h-4.797V94.04h4.403v-1.84h-4.403v-1.61h4.657v-2.234h-7.401v9.627z" fill="#fff"/><path d="M339.673 103.356h-20.429v20.429h20.429v-20.429z" stroke="#fff" stroke-width="1.643"/><path d="M332.346 109.27c-1.167 0-2.153.723-2.621 1.15-.476-.419-1.454-1.15-2.62-1.15a3.024 3.024 0 00-3.023 3.015c0 1.043.953 1.988.994 2.029l4.657 4.641 4.65-4.633c.041-.041.994-.986.994-2.029a3.033 3.033 0 00-3.031-3.023z" fill="#fff"/></svg>