<svg width="262" height="154" fill="none" xmlns="http://www.w3.org/2000/svg"><path d="M187.93 24.515H2M196.596 139.984H2" stroke="#E30613" stroke-width="2.464" stroke-miterlimit="10" stroke-linecap="round" stroke-linejoin="round"/><path d="M30.972 38.866c1.52 1.93 2.275 4.69 2.275 8.345 0 3.105-.69 5.315-2.07 6.76 2.144 1.52 3.245 4.552 3.245 9.176 0 4.074-.83 6.974-2.415 8.765-1.586 1.864-4.074 2.76-7.45 2.76H13.581V35.966h10.21c3.31 0 5.726.97 7.18 2.9zm-4.009 8.214c0-2.826-1.1-4.206-3.31-4.206h-3.18v8.42h3.311c2.152-.008 3.18-1.388 3.18-4.214zm1.175 16.075c0-3.105-1.1-4.756-3.31-4.97h-4.346v9.66h4.346c2.21 0 3.31-1.585 3.31-4.69zM61.71 39.005c1.864 2.144 2.76 7.525 2.76 16.15 0 8.625-.896 14.079-2.76 16.354-1.865 2.276-4.97 3.45-9.315 3.45-4.14 0-7.245-1.1-9.315-3.45-2.07-2.349-3.105-7.73-3.105-16.215S41.01 41.42 43.08 39.145c2.07-2.275 5.109-3.384 9.175-3.384 4.42 0 7.59 1.035 9.455 3.244zm-13.735 4.97c-.83.895-1.174 4.69-1.174 11.385 0 6.695.419 10.424 1.24 11.32.83.895 2.275 1.314 4.206 1.314 2.07 0 3.45-.411 4.206-1.315.755-.895 1.174-4.69 1.174-11.319 0-6.695-.345-10.49-1.109-11.385-.755-.895-2.21-1.38-4.28-1.38-1.987 0-3.433.41-4.263 1.38zM82.484 42.595c-2.136 0-3.656.41-4.485 1.38-.83.895-1.175 4.69-1.175 11.385 0 6.694.41 10.424 1.24 11.32.83.894 2.35 1.313 4.485 1.313 2.136 0 3.795-.345 5.101-1.1v7.04c-1.585.69-3.934.969-6.965 1.034-2.966.066-5.52-1.035-7.59-3.45-2.07-2.349-3.105-7.73-3.105-16.215s1.035-13.874 3.105-16.149c2.07-2.275 4.624-3.384 7.59-3.384 2.965 0 5.314.345 6.965 1.035v6.9c-1.166-.764-2.891-1.11-5.166-1.11zM100.859 57.915V74.68h-6.834V35.966h6.9v11.73l-.14 3.59 1.38-3.31 5.725-12.01h7.73l-8.97 16.355 9.455 22.359h-7.451l-6.76-16.765-1.175-3.245.14 3.245zM31.588 90.616c1.52 1.93 2.275 4.69 2.275 8.354 0 3.105-.69 5.314-2.07 6.76 2.144 1.52 3.245 4.551 3.245 9.175 0 4.066-.83 6.966-2.415 8.765-1.585 1.865-4.074 2.76-7.45 2.76H14.197V87.716h10.21c3.32 0 5.734.97 7.18 2.9zm-4 8.214c0-2.826-1.101-4.206-3.31-4.206h-3.18v8.42h3.31c2.144 0 3.18-1.388 3.18-4.214zm1.174 16.084c0-3.105-1.1-4.765-3.31-4.97h-4.346v9.66h4.346c2.201 0 3.31-1.585 3.31-4.69zM45.355 125.88a8.345 8.345 0 01-3.655-2.415c-.962-1.109-1.726-2.555-2.136-4.28-.485-1.799-.756-4-.756-6.621v-24.84h6.974v26.22c0 2.826.345 4.485 1.035 4.97.756.485 1.865.756 3.45.756 1.585 0 2.76-.271 3.384-.756.625-.485.896-2.136.896-4.97v-26.22h6.974V112.5c0 2.62-.206 4.83-.625 6.628-.484 1.791-1.1 3.245-1.996 4.346-.895 1.101-2.07 1.93-3.45 2.341-1.446.485-3.105.764-5.035.764-1.955-.008-3.614-.214-5.06-.698zM73.259 94.066c-1.52.279-2.48 1.314-2.826 3.039-.345 1.725.961 3.935 3.935 6.695 2.965 2.76 5.035 4.895 6.415 6.415 1.38 1.52 2.144 3.516 2.35 6.005.205 2.62-.69 5.035-2.62 7.245-1.931 2.209-4.625 3.31-8.215 3.244-3.655-.065-6.21-.55-7.73-1.38v-6.694c3.795 1.24 6.555 1.725 8.28 1.519 1.725-.205 2.76-1.174 3.171-2.899.419-1.791-.895-4.001-3.795-6.695-1.52-1.38-2.76-2.62-3.795-3.655-1.1-1.035-2.004-1.931-2.62-2.695-1.24-1.38-2.07-3.384-2.415-6.004-.345-2.555.55-4.97 2.415-7.245 1.93-2.35 4.55-3.524 7.869-3.524 3.384 0 5.594.345 6.76 1.1v6.9c-3.318-1.158-5.733-1.642-7.179-1.371zM93.893 87.716h-6.9v38.714h6.9V87.716zM104.958 109.04v17.39h-6.284V87.724h7.598l6.21 17.111 1.857 6.489-.271-7.179v-16.42h6.21v38.705h-7.18l-6.415-17.735-2.004-6.826.279 7.171zM137.462 36.007h-6.9v38.714h6.9V36.007zM150.687 57.323v17.39h-6.276V36.007h7.59l6.21 17.11 1.857 6.49-.272-7.18v-16.42h6.21v38.706h-7.179l-6.415-17.735-2.004-6.826.279 7.171zM131.999 94.624v8.42h6.489v6.9h-6.489v9.586h10.424v6.9h-17.316V87.724h17.316v6.9h-10.424zM153.784 94.066c-1.52.279-2.481 1.314-2.826 3.039-.345 1.725.961 3.935 3.934 6.695 2.966 2.76 5.036 4.895 6.416 6.415 1.38 1.52 2.144 3.516 2.349 6.005.205 2.62-.69 5.035-2.62 7.245-1.931 2.209-4.625 3.31-8.215 3.244-3.655-.065-6.21-.55-7.729-1.38v-6.694c3.795 1.24 6.555 1.725 8.28 1.519 1.725-.205 2.76-1.174 3.171-2.899.418-1.791-.896-4.001-3.795-6.695-1.52-1.38-2.76-2.62-3.795-3.655-1.101-1.035-2.005-1.931-2.621-2.695-1.24-1.38-2.07-3.384-2.415-6.004-.345-2.555.551-4.97 2.415-7.245 1.931-2.35 4.551-3.524 7.869-3.524 3.385 0 5.594.345 6.761 1.1v6.9c-3.319-1.158-5.734-1.642-7.179-1.371zM174.254 94.066c-1.52.279-2.481 1.314-2.826 3.039-.345 1.725.961 3.935 3.935 6.695 2.965 2.76 5.035 4.895 6.415 6.415 1.38 1.52 2.144 3.516 2.349 6.005.206 2.62-.69 5.035-2.62 7.245-1.931 2.209-4.625 3.31-8.214 3.244-3.656-.065-6.21-.55-7.73-1.38v-6.694c3.795 1.24 6.555 1.725 8.28 1.519 1.725-.205 2.76-1.174 3.171-2.899.419-1.791-.896-4.001-3.795-6.695-1.52-1.38-2.76-2.62-3.795-3.655-1.101-1.035-2.005-1.931-2.621-2.695-1.24-1.38-2.07-3.384-2.415-6.004-.345-2.555.551-4.97 2.415-7.245 1.931-2.35 4.551-3.524 7.87-3.524 3.384 0 5.593.345 6.76 1.1v6.9c-3.319-1.158-5.725-1.642-7.179-1.371z" fill="#E30613"/><path d="M248.494 135.589l-1.018-9.668c-.756-15 .912-37.835 6.588-53.492 6.062-16.691 7.549-19.854 6.029-41.564M194.149 30.57c-1.561 21.989-.083 25.102 6.004 41.867 5.684 15.657 7.352 38.493 6.588 53.492l-1.019 9.668" stroke="#FDC100" stroke-width="2.464" stroke-miterlimit="10" stroke-linecap="round" stroke-linejoin="round"/><path d="M204.934 139.984c-3.204 9.232-1.832 12.001-1.832 12.001h48.004c1.364-3.36-1.831-12.001-1.831-12.001s-31.937.18-31.757 0M249.349 24.515h10.678L258.031 2h-61.837s-1.405 14.03-1.906 22.515h31.354M243.525 24.515h-8.74" stroke="#AB2328" stroke-width="2.464" stroke-miterlimit="10" stroke-linecap="round" stroke-linejoin="round"/><path d="M241.044 64.774c0 7.549-6.12 13.66-13.66 13.66-7.541 0-13.661-6.12-13.661-13.66 0-7.55 6.12-13.66 13.661-13.66" stroke="#E30B17" stroke-width="4.107" stroke-miterlimit="10" stroke-linecap="round" stroke-linejoin="round"/><path d="M226.833 43.63l7.483 7.483-7.483 7.475" stroke="#E30B17" stroke-width="4.107" stroke-miterlimit="10" stroke-linecap="round" stroke-linejoin="round"/></svg>