<svg width="496" height="160" fill="none" xmlns="http://www.w3.org/2000/svg"><g clip-path="url(#prefix__clip0)"><path d="M492.385 51.898c-10.343 0-18.73-8.387-18.73-18.73 0-.8.06-1.54.148-2.31H23.649c.088.77.148 1.54.148 2.31 0 10.343-8.387 18.73-18.73 18.73-1.215 0-2.43-.118-3.585-.355v85.882a17.736 17.736 0 013.586-.356c10.342 0 18.729 8.387 18.729 18.729 0 .771-.06 1.512-.148 2.253h450.125a18.736 18.736 0 01-.148-2.253c0-10.342 8.386-18.729 18.729-18.729.711 0 1.422.059 2.104.119V51.78c-.652.059-1.363.118-2.074.118z" fill="#79170E" stroke="#E30613" stroke-width="2.963" stroke-miterlimit="10" stroke-linecap="round" stroke-linejoin="round"/><path d="M485.865 59.01c-10.343 0-18.729-8.386-18.729-18.728 0-.8.059-1.541.148-2.312H30.464c.09.77.149 1.541.149 2.312 0 10.342-8.387 18.729-18.73 18.729-1.214 0-2.43-.119-3.585-.356v71.954a17.736 17.736 0 013.586-.356c10.342 0 18.729 8.387 18.729 18.729 0 .771-.06 1.512-.148 2.253h436.789a18.736 18.736 0 01-.148-2.253c0-10.342 8.387-18.729 18.729-18.729.711 0 1.423.059 2.104.119v-71.48c-.652.06-1.363.119-2.074.119z" fill="#79170E" stroke="#FDC100" stroke-width="2.963" stroke-miterlimit="10" stroke-linecap="round" stroke-linejoin="round"/><path d="M410.444 72.228H56.069M414.237 122.844H56.069" stroke="#E30613" stroke-width="2.074" stroke-miterlimit="10" stroke-linecap="round" stroke-linejoin="round"/><path d="M437.886 120.918l-.445-4.238c-.326-6.579.386-16.595 2.875-23.44 2.667-7.32 3.319-8.713 2.637-18.226M414.059 74.865c-.681 9.632-.029 10.995 2.638 18.345 2.489 6.875 3.23 16.862 2.904 23.441l-.444 4.238" stroke="#FDC100" stroke-width="2.074" stroke-miterlimit="10" stroke-linecap="round" stroke-linejoin="round"/><path d="M418.801 123.437c-1.393 4.06-.8 5.275-.8 5.275h21.041c.592-1.482-.8-5.275-.8-5.275s-13.988.089-13.929 0M438.272 72.228h4.682l-.889-9.869h-27.116s-.622 6.164-.829 9.869h13.75M435.722 72.228h-3.852" stroke="#fff" stroke-width="2.074" stroke-miterlimit="10" stroke-linecap="round" stroke-linejoin="round"/><path d="M434.626 89.861a5.97 5.97 0 01-5.986 5.986 5.97 5.97 0 01-5.986-5.986 5.988 5.988 0 015.986-5.986" stroke="#E30B17" stroke-width="2.074" stroke-miterlimit="10" stroke-linecap="round" stroke-linejoin="round"/><path d="M428.403 80.585l3.289 3.29-3.289 3.289" stroke="#E30B17" stroke-width="2.074" stroke-miterlimit="10" stroke-linecap="round" stroke-linejoin="round"/><path d="M73.672 80.32c1.541 1.955 2.312 4.74 2.312 8.445 0 3.142-.711 5.364-2.104 6.846 2.163 1.541 3.29 4.593 3.29 9.276 0 4.119-.83 7.053-2.43 8.861-1.601 1.896-4.12 2.785-7.558 2.785H56.07V77.385h10.313c3.379 0 5.809.978 7.29 2.934zm-4.06 8.327c0-2.875-1.126-4.268-3.348-4.268h-3.2v8.506h3.318c2.163 0 3.23-1.393 3.23-4.238zm1.186 16.269c0-3.141-1.126-4.83-3.349-5.038h-4.386v9.78h4.386c2.223 0 3.349-1.6 3.349-4.742zM104.76 80.466c1.896 2.164 2.785 7.617 2.785 16.33 0 8.742-.918 14.254-2.785 16.536-1.897 2.311-5.038 3.497-9.424 3.497-4.179 0-7.32-1.127-9.424-3.497-2.104-2.371-3.142-7.824-3.142-16.418s1.038-14.047 3.142-16.329c2.104-2.311 5.156-3.408 9.275-3.408 4.475 0 7.676 1.067 9.573 3.29zm-13.9 5.038c-.829.92-1.185 4.742-1.185 11.528 0 6.787.415 10.55 1.245 11.44.83.918 2.311 1.333 4.267 1.333 2.105 0 3.497-.415 4.268-1.333.77-.919 1.185-4.742 1.185-11.44 0-6.786-.355-10.609-1.126-11.528-.77-.918-2.222-1.392-4.327-1.392-2.015 0-3.496.415-4.326 1.392zM125.771 84.112c-2.164 0-3.705.415-4.534 1.392-.83.92-1.186 4.742-1.186 11.528 0 6.787.415 10.55 1.245 11.44.83.918 2.371 1.333 4.534 1.333s3.853-.356 5.156-1.126v7.112c-1.6.682-3.971.978-7.053 1.038-2.993.059-5.601-1.038-7.675-3.497-2.104-2.371-3.141-7.824-3.141-16.418s1.037-14.047 3.141-16.329c2.104-2.311 4.682-3.408 7.675-3.408 2.993 0 5.364.356 7.053 1.037v6.994c-1.155-.77-2.904-1.096-5.215-1.096zM144.381 99.61v16.952h-6.934V77.384h6.994v11.884l-.148 3.615 1.392-3.348 5.809-12.15h7.823l-9.068 16.565 9.543 22.612h-7.528l-6.845-16.951-1.186-3.29.148 3.29zM181.425 77.444h-6.994v39.177h6.994V77.444zM194.79 99.018v17.573h-6.342V77.444h7.676l6.283 17.306 1.896 6.55-.296-7.26V77.443h6.282v39.147h-7.26l-6.49-17.929-2.015-6.905.266 7.26zM246.266 80.32c1.541 1.955 2.312 4.74 2.312 8.445 0 3.142-.682 5.364-2.104 6.846 2.163 1.541 3.289 4.593 3.289 9.276 0 4.119-.83 7.053-2.43 8.861-1.6 1.896-4.119 2.785-7.527 2.785h-11.113V77.385h10.342c3.319 0 5.75.978 7.231 2.934zm-4.06 8.327c0-2.875-1.126-4.268-3.348-4.268h-3.201v8.535h3.349c2.163 0 3.2-1.422 3.2-4.267zm1.186 16.269c0-3.141-1.126-4.83-3.349-5.038h-4.386v9.78h4.386c2.223 0 3.349-1.6 3.349-4.742zM260.195 115.999c-1.452-.504-2.727-1.334-3.705-2.43-.978-1.126-1.748-2.579-2.163-4.327-.474-1.808-.771-4.06-.771-6.698v-25.13h7.054v26.523c0 2.875.355 4.534 1.037 5.038.77.504 1.896.771 3.497.771 1.6 0 2.785-.267 3.408-.771.622-.504.918-2.163.918-5.038V77.414h7.053v25.071c0 2.638-.207 4.89-.622 6.698-.474 1.807-1.126 3.289-2.015 4.386-.919 1.126-2.104 1.956-3.497 2.37-1.452.475-3.141.771-5.097.771-1.956 0-3.645-.207-5.097-.711zM288.407 83.815c-1.541.267-2.519 1.334-2.874 3.082-.356 1.749.978 3.971 3.971 6.787 2.993 2.785 5.097 4.949 6.49 6.49 1.393 1.541 2.163 3.556 2.371 6.075.207 2.667-.712 5.097-2.638 7.32-1.956 2.223-4.682 3.349-8.298 3.289-3.704-.059-6.282-.563-7.823-1.392v-6.787c3.852 1.245 6.638 1.749 8.386 1.541 1.749-.207 2.786-1.185 3.201-2.934.415-1.807-.919-4.06-3.853-6.786-1.541-1.393-2.785-2.667-3.852-3.704-1.126-1.038-2.015-1.956-2.638-2.727-1.244-1.393-2.104-3.408-2.43-6.075-.355-2.578.563-5.038 2.43-7.32 1.956-2.37 4.594-3.556 7.972-3.556 3.408 0 5.66.356 6.846 1.126v6.994c-3.349-1.215-5.779-1.69-7.261-1.423zM309.3 77.385h-6.994v39.177h6.994V77.385zM320.502 98.959v17.603h-6.372V77.385h7.676l6.312 17.336 1.867 6.549-.267-7.26V77.384h6.283v39.178h-7.261l-6.49-17.93-2.044-6.934.296 7.26zM347.855 84.378v8.535h6.579v6.964h-6.579v9.721h10.55v6.964h-17.514V77.385h17.514v6.993h-10.55zM369.903 83.815c-1.541.267-2.519 1.334-2.874 3.082-.356 1.749.978 3.971 3.971 6.787 2.993 2.785 5.097 4.949 6.49 6.49 1.393 1.541 2.163 3.556 2.371 6.075.207 2.667-.712 5.097-2.667 7.32-1.956 2.223-4.683 3.349-8.298 3.289-3.705-.059-6.283-.563-7.824-1.392v-6.787c3.853 1.245 6.638 1.749 8.387 1.541 1.748-.207 2.785-1.185 3.2-2.934.415-1.807-.918-4.06-3.852-6.786-1.541-1.393-2.786-2.667-3.853-3.704-1.126-1.038-2.015-1.956-2.667-2.727-1.245-1.393-2.104-3.408-2.43-6.075-.356-2.578.563-5.038 2.43-7.32 1.956-2.37 4.623-3.556 7.972-3.556 3.438 0 5.66.356 6.846 1.126v6.994c-3.29-1.215-5.75-1.69-7.202-1.423zM390.618 83.815c-1.541.267-2.519 1.334-2.875 3.082-.355 1.749.978 3.971 3.972 6.787 2.993 2.785 5.097 4.949 6.49 6.49 1.392 1.541 2.163 3.556 2.37 6.075.208 2.667-.711 5.097-2.667 7.32s-4.682 3.349-8.298 3.289c-3.704-.059-6.282-.563-7.823-1.392v-6.787c3.852 1.245 6.638 1.749 8.387 1.541 1.748-.207 2.785-1.185 3.2-2.934.415-1.807-.919-4.06-3.852-6.786-1.541-1.393-2.786-2.667-3.853-3.704-1.126-1.038-2.015-1.956-2.667-2.727-1.245-1.393-2.104-3.408-2.43-6.075-.356-2.578.563-5.038 2.43-7.32 1.956-2.37 4.623-3.556 7.972-3.556 3.408 0 5.66.356 6.845 1.126v6.994c-3.289-1.215-5.749-1.69-7.201-1.423z" fill="#fff"/><path d="M207.919.037v46.764M288.793.037v46.764M183.144 8.453h216.365v13.129H98.862V8.453h72.843" stroke="#E30613" stroke-width="2.074" stroke-miterlimit="10" stroke-linecap="round" stroke-linejoin="round"/></g><defs><clipPath id="prefix__clip0"><path fill="#fff" d="M0-1h496v160.532H0z"/></clipPath></defs></svg>