<svg width="196" height="160" fill="none" xmlns="http://www.w3.org/2000/svg"><g filter="url(#prefix__filter0_d)"><path fill-rule="evenodd" clip-rule="evenodd" d="M31.69 27.347c0 11.6-9.87 21.004-22.045 21.004A23.27 23.27 0 016 48.065v82.504a23.27 23.27 0 013.645-.286c12.175 0 22.046 9.404 22.046 21.004 0 1.001-.074 1.987-.216 2.951H166.26a20.247 20.247 0 01-.216-2.951c0-11.6 9.87-21.004 22.045-21.004.644 0 1.281.026 1.91.078V48.273c-.629.052-1.266.078-1.91.078-12.175 0-22.045-9.404-22.045-21.004 0-1.122.093-2.223.27-3.298H31.42c.178 1.075.27 2.176.27 3.298z" fill="#fff"/><path d="M6 48.065l.162-1.022-1.197-.19v1.212H6zm0 82.504H4.965v1.212l1.197-.19L6 130.569zm25.475 23.669l-1.024-.151-.175 1.186h1.199v-1.035zm134.786 0v1.035h1.199l-.175-1.186-1.024.151zM190 130.361l-.084 1.031 1.119.092v-1.123H190zm0-82.088h1.035V47.15l-1.119.092.084 1.031zM166.315 24.05l1.022.17.199-1.205h-1.221v1.035zm-134.895 0v-1.035H30.2l.199 1.204 1.021-.169zM9.645 49.386c12.7 0 23.08-9.82 23.08-22.039h-2.07c0 10.982-9.358 19.969-21.01 19.969v2.07zm-3.807-.298c1.24.196 2.511.298 3.807.298v-2.07c-1.187 0-2.35-.094-3.483-.273l-.324 2.045zm1.197 81.481V48.065h-2.07v82.504h2.07zm-.873 1.022a22.297 22.297 0 013.483-.273v-2.07c-1.296 0-2.568.102-3.807.298l.324 2.045zm3.483-.273c11.652 0 21.01 8.987 21.01 19.969h2.07c0-12.219-10.38-22.039-23.08-22.039v2.07zm21.01 19.969c0 .951-.07 1.885-.204 2.8l2.048.302c.15-1.014.227-2.05.227-3.102h-2.07zm135.606 1.916H31.475v2.07H166.26v-2.07zm-1.251-1.916c0 1.052.077 2.088.227 3.102l2.048-.302a19.165 19.165 0 01-.205-2.8h-2.07zm23.08-22.039c-12.699 0-23.08 9.82-23.08 22.039h2.07c0-10.982 9.359-19.969 21.01-19.969v-2.07zm1.994.081a24.34 24.34 0 00-1.994-.081v2.07c.616 0 1.224.025 1.826.074l.168-2.063zm-1.119-81.056v82.088h2.07V48.273h-2.07zm-.875 1.113c.672 0 1.337-.027 1.994-.081l-.168-2.063c-.602.049-1.21.074-1.826.074v2.07zm-23.08-22.039c0 12.219 10.381 22.04 23.08 22.04v-2.071c-11.651 0-21.01-8.987-21.01-19.969h-2.07zm.284-3.467a21.225 21.225 0 00-.284 3.467h2.07c0-1.065.088-2.11.257-3.129l-2.043-.338zM31.42 25.084h134.895v-2.07H31.42v2.07zm1.306 2.263c0-1.179-.097-2.337-.284-3.467l-2.043.338c.169 1.019.256 2.064.256 3.13h2.07z" fill="#FDC100"/></g><g filter="url(#prefix__filter1_d)"><path fill-rule="evenodd" clip-rule="evenodd" d="M52.174-19v53.117H50.85V-19h1.323z" fill="#fff"/></g><g filter="url(#prefix__filter2_d)"><path fill-rule="evenodd" clip-rule="evenodd" d="M145.562-19v53.117h-1.322L144.239-19h1.323z" fill="#fff"/></g><path fill-rule="evenodd" clip-rule="evenodd" d="M25.821 60.095c0-.366.297-.662.662-.662h99.847a.662.662 0 010 1.324H26.483a.662.662 0 01-.662-.662zM25.821 122.102c0-.365.297-.661.662-.661h104.501a.661.661 0 010 1.323h-104.5a.662.662 0 01-.663-.662z" fill="#E30613"/><path d="M42.041 67.801c.816 1.037 1.222 2.519 1.222 4.482 0 1.667-.37 2.854-1.112 3.63 1.152.816 1.743 2.444 1.743 4.927 0 2.188-.446 3.745-1.297 4.707-.852 1.002-2.188 1.482-4.001 1.482h-5.893V66.244h5.483c1.777 0 3.074.52 3.855 1.557zm-2.153 4.411c0-1.517-.59-2.258-1.777-2.258h-1.707v4.521h1.777c1.156-.004 1.707-.745 1.707-2.263zm.631 8.633c0-1.668-.59-2.554-1.777-2.669h-2.334v5.188h2.334c1.186 0 1.777-.852 1.777-2.52zM58.548 67.876c1.001 1.151 1.482 4.04 1.482 8.672 0 4.632-.48 7.561-1.482 8.783-1.002 1.222-2.669 1.853-5.003 1.853-2.223 0-3.89-.591-5.002-1.853-1.111-1.261-1.667-4.15-1.667-8.708 0-4.556.556-7.45 1.667-8.672 1.112-1.222 2.744-1.817 4.928-1.817 2.373 0 4.076.555 5.077 1.742zm-7.376 2.669c-.445.48-.63 2.519-.63 6.114 0 3.595.224 5.597.666 6.078.445.481 1.221.706 2.258.706 1.112 0 1.853-.22 2.259-.706.405-.48.63-2.518.63-6.078 0-3.595-.185-5.633-.595-6.114-.406-.481-1.187-.741-2.298-.741-1.068 0-1.844.22-2.29.74zM69.704 69.804c-1.147 0-1.963.22-2.409.74-.445.481-.63 2.52-.63 6.115s.22 5.597.665 6.078c.446.481 1.262.706 2.409.706 1.147 0 2.038-.185 2.74-.591v3.78c-.852.37-2.114.52-3.742.556-1.592.035-2.964-.556-4.075-1.853-1.112-1.261-1.668-4.15-1.668-8.707s.556-7.45 1.668-8.673c1.111-1.222 2.483-1.817 4.075-1.817 1.593 0 2.855.185 3.741.556v3.705c-.626-.41-1.553-.595-2.774-.595zM79.571 78.03v9.004h-3.67v-20.79h3.706v6.299l-.075 1.928.74-1.778 3.075-6.45h4.151l-4.817 8.784 5.078 12.007h-4.002l-3.63-9.004-.63-1.742.074 1.743zM42.372 95.591c.816 1.037 1.222 2.52 1.222 4.486 0 1.668-.37 2.855-1.112 3.631 1.152.816 1.743 2.444 1.743 4.927 0 2.184-.446 3.741-1.297 4.707-.851 1.001-2.188 1.482-4.001 1.482h-5.893v-20.79h5.483c1.782 0 3.079.52 3.855 1.557zm-2.148 4.411c0-1.517-.591-2.258-1.778-2.258H36.74v4.521h1.778c1.151 0 1.707-.745 1.707-2.263zm.63 8.638c0-1.668-.59-2.559-1.777-2.669h-2.334v5.187h2.334c1.182 0 1.778-.851 1.778-2.518zM49.765 114.528a4.473 4.473 0 01-1.963-1.296c-.516-.596-.926-1.372-1.147-2.299-.26-.966-.406-2.148-.406-3.555v-13.34h3.745v14.081c0 1.517.186 2.409.556 2.669.406.26 1.002.406 1.853.406s1.482-.146 1.817-.406c.336-.26.481-1.147.481-2.669v-14.08h3.745v13.304c0 1.407-.11 2.593-.335 3.559-.26.962-.591 1.743-1.072 2.334a3.772 3.772 0 01-1.853 1.257c-.776.26-1.667.41-2.704.41-1.05-.004-1.94-.114-2.717-.375zM64.75 97.444c-.816.15-1.332.706-1.518 1.632-.185.927.517 2.113 2.113 3.595 1.593 1.482 2.704 2.629 3.445 3.445.741.817 1.152 1.888 1.262 3.225.11 1.407-.37 2.704-1.407 3.891-1.037 1.186-2.484 1.777-4.411 1.742-1.963-.035-3.335-.295-4.151-.741v-3.595c2.038.666 3.52.926 4.446.816.927-.11 1.482-.631 1.703-1.557.225-.962-.48-2.148-2.038-3.595a56.069 56.069 0 01-2.038-1.963c-.591-.556-1.076-1.037-1.407-1.447-.666-.741-1.112-1.818-1.297-3.225-.185-1.372.296-2.668 1.297-3.89 1.036-1.262 2.444-1.893 4.226-1.893 1.817 0 3.004.186 3.63.591v3.706c-1.782-.622-3.079-.882-3.855-.737zM75.83 94.034h-3.705v20.79h3.706v-20.79zM81.772 105.486v9.338h-3.374V94.039h4.08l3.335 9.188.997 3.485-.145-3.856v-8.817h3.334v20.785h-3.855l-3.445-9.524-1.076-3.665.15 3.851zM99.228 66.266h-3.706v20.79h3.706v-20.79zM106.33 77.713v9.338h-3.371V66.266h4.076l3.335 9.188.997 3.485-.145-3.855v-8.818h3.334V87.05h-3.855l-3.445-9.523-1.076-3.666.15 3.85zM96.294 97.744v4.521h3.485v3.706h-3.485v5.148h5.598v3.705h-9.299V94.039h9.299v3.705h-5.598zM107.992 97.444c-.816.15-1.332.706-1.517 1.632-.185.927.516 2.113 2.113 3.595 1.592 1.482 2.704 2.629 3.445 3.445.741.817 1.151 1.888 1.262 3.225.11 1.407-.371 2.704-1.408 3.891-1.036 1.186-2.483 1.777-4.411 1.742-1.963-.035-3.335-.295-4.151-.741v-3.595c2.038.666 3.52.926 4.447.816.926-.11 1.482-.631 1.703-1.557.224-.962-.481-2.148-2.038-3.595a55.429 55.429 0 01-2.038-1.963c-.591-.556-1.077-1.037-1.408-1.447-.666-.741-1.111-1.818-1.296-3.225-.186-1.372.295-2.668 1.296-3.89 1.037-1.262 2.444-1.893 4.226-1.893 1.818 0 3.004.186 3.631.591v3.706c-1.782-.622-3.079-.882-3.856-.737zM118.985 97.444c-.816.15-1.332.706-1.517 1.632-.186.927.516 2.113 2.113 3.595 1.592 1.482 2.704 2.629 3.445 3.445.741.817 1.151 1.888 1.261 3.225.111 1.407-.37 2.704-1.407 3.891-1.037 1.186-2.483 1.777-4.411 1.742-1.963-.035-3.335-.295-4.151-.741v-3.595c2.038.666 3.52.926 4.446.816.927-.11 1.483-.631 1.703-1.557.225-.962-.481-2.148-2.038-3.595-.816-.741-1.482-1.407-2.038-1.963-.591-.556-1.076-1.037-1.407-1.447-.666-.741-1.111-1.818-1.297-3.225-.185-1.372.296-2.668 1.297-3.89 1.037-1.262 2.444-1.893 4.226-1.893 1.817 0 3.004.186 3.63.591v3.706c-1.782-.622-3.074-.882-3.855-.737z" fill="#AB2328"/><path fill-rule="evenodd" clip-rule="evenodd" d="M165.036 62.844c.364-.025.68.25.706.614.408 5.837.419 9.243-.1 12.327-.48 2.858-1.412 5.419-2.84 9.343l-.336.923c-3.004 8.287-3.901 20.441-3.5 28.448l.545 5.174a.662.662 0 11-1.316.139l-.547-5.192-.003-.036c-.408-8.102.488-20.463 3.577-28.984l.319-.877c1.447-3.977 2.337-6.424 2.796-9.157.491-2.92.492-6.193.085-12.015a.661.661 0 01.614-.707zM129.716 62.686a.662.662 0 01.613.707c-.419 5.897-.424 9.2.065 12.138.457 2.746 1.347 5.193 2.797 9.18l.324.893c3.094 8.522 3.99 20.882 3.577 28.985l-.001.015a.123.123 0 01-.002.02l-.547 5.192a.661.661 0 11-1.316-.138l.545-5.174c.406-8.008-.491-20.161-3.5-28.449l-.341-.939c-1.431-3.933-2.364-6.496-2.842-9.368-.516-3.101-.499-6.538-.079-12.45a.662.662 0 01.707-.612z" fill="#FDC100"/><path fill-rule="evenodd" clip-rule="evenodd" d="M135.678 121.477c.345.12.528.497.408.842-.845 2.435-1.073 3.979-1.101 4.886-.009.29.003.514.02.68h24.74c.038-.279.042-.633.007-1.051-.054-.641-.192-1.354-.356-2.029a25.399 25.399 0 00-.593-2.038l-.264.001-1.942.01c-1.606.007-3.748.016-5.886.022-2.138.007-4.274.01-5.87.005-.798-.002-1.463-.006-1.927-.013a22.75 22.75 0 01-.545-.012 5.048 5.048 0 01-.169-.01c-.018-.002-.062-.006-.109-.016h-.002a.662.662 0 01-.189-.07l-.002-.001a.661.661 0 01-.296-.34 1.16 1.16 0 01-.016-.436c.034-.086.119-.222.165-.272a.659.659 0 01.601-.181l.068.003c.112.005.284.008.513.012.456.006 1.115.01 1.911.013 1.593.004 3.726.001 5.863-.005 2.137-.006 4.278-.015 5.884-.023l1.941-.009.736-.004.004.661.621-.229.002.005.004.011.015.042.055.156a26.894 26.894 0 01.713 2.405c.173.71.327 1.496.389 2.232.06.715.042 1.472-.202 2.072a.661.661 0 01-.613.413h-25.779a.663.663 0 01-.593-.368l.593-.294-.593.293-.001-.002-.001-.003-.003-.006-.007-.014-.015-.034c-.01-.026-.023-.059-.036-.098a2.747 2.747 0 01-.082-.319 5.487 5.487 0 01-.076-1.201c.033-1.075.297-2.754 1.173-5.277a.662.662 0 01.842-.409zm23.594.625l.621-.229a.661.661 0 00-.624-.432l.003.661zm-16.954-.65c-.004-.001-.004 0 0 0zM130.109 47.938a.661.661 0 01.658-.596h33.208c.342 0 .628.262.659.603l1.072 12.091a.665.665 0 01-.659.72h-5.735a.662.662 0 010-1.323h5.012l-.955-10.768h-32.002l-.063.65c-.075.777-.178 1.86-.288 3.085-.2 2.207-.427 4.87-.568 7.033h16.133a.662.662 0 110 1.323h-16.837a.665.665 0 01-.661-.7c.136-2.29.392-5.321.615-7.775.111-1.228.214-2.314.289-3.092l.089-.917.033-.334.658.066-.658-.066z" fill="#AB2328"/><path d="M156.184 60.095h-4.693" stroke="#AB2328" stroke-width="2.071" stroke-miterlimit="10" stroke-linecap="round" stroke-linejoin="round"/><path fill-rule="evenodd" clip-rule="evenodd" d="M147.517 75.481a6.233 6.233 0 100 12.466 6.233 6.233 0 006.233-6.233 1.102 1.102 0 112.205 0 8.438 8.438 0 01-8.438 8.439 8.438 8.438 0 110-16.877 1.102 1.102 0 010 2.205z" fill="#E30B17"/><path fill-rule="evenodd" clip-rule="evenodd" d="M146.441 69.58a1.103 1.103 0 011.56 0l4.018 4.018a1.103 1.103 0 010 1.56L148 79.172a1.102 1.102 0 11-1.558-1.56l3.238-3.234-3.239-3.239a1.102 1.102 0 010-1.56z" fill="#E30B17"/><g filter="url(#prefix__filter3_d)"><path fill-rule="evenodd" clip-rule="evenodd" d="M31.69 27.347c0 11.6-9.87 21.004-22.045 21.004A23.27 23.27 0 016 48.065v82.504a23.27 23.27 0 013.645-.286c12.175 0 22.046 9.404 22.046 21.004 0 1.001-.074 1.987-.216 2.951H166.26a20.247 20.247 0 01-.216-2.951c0-11.6 9.87-21.004 22.045-21.004.644 0 1.281.026 1.91.078V48.273c-.629.052-1.266.078-1.91.078-12.175 0-22.045-9.404-22.045-21.004 0-1.122.093-2.223.27-3.298H31.42c.178 1.075.27 2.176.27 3.298z" fill="#AB2328"/><path d="M6 48.065l.162-1.022-1.197-.19v1.212H6zm0 82.504H4.965v1.212l1.197-.19L6 130.569zm25.475 23.669l-1.024-.151-.175 1.186h1.199v-1.035zm134.786 0v1.035h1.199l-.175-1.186-1.024.151zM190 130.361l-.084 1.031 1.119.092v-1.123H190zm0-82.088h1.035V47.15l-1.119.092.084 1.031zM166.315 24.05l1.022.17.199-1.205h-1.221v1.035zm-134.895 0v-1.035H30.2l.199 1.204 1.021-.169zM9.645 49.386c12.7 0 23.08-9.82 23.08-22.039h-2.07c0 10.982-9.358 19.969-21.01 19.969v2.07zm-3.807-.298c1.24.196 2.511.298 3.807.298v-2.07c-1.187 0-2.35-.094-3.483-.273l-.324 2.045zm1.197 81.481V48.065h-2.07v82.504h2.07zm-.873 1.022a22.297 22.297 0 013.483-.273v-2.07c-1.296 0-2.568.102-3.807.298l.324 2.045zm3.483-.273c11.652 0 21.01 8.987 21.01 19.969h2.07c0-12.219-10.38-22.039-23.08-22.039v2.07zm21.01 19.969c0 .951-.07 1.885-.204 2.8l2.048.302c.15-1.014.227-2.05.227-3.102h-2.07zm135.606 1.916H31.475v2.07H166.26v-2.07zm-1.251-1.916c0 1.052.077 2.088.227 3.102l2.048-.302a19.165 19.165 0 01-.205-2.8h-2.07zm23.08-22.039c-12.699 0-23.08 9.82-23.08 22.039h2.07c0-10.982 9.359-19.969 21.01-19.969v-2.07zm1.994.081a24.34 24.34 0 00-1.994-.081v2.07c.616 0 1.224.025 1.826.074l.168-2.063zm-1.119-81.056v82.088h2.07V48.273h-2.07zm-.875 1.113c.672 0 1.337-.027 1.994-.081l-.168-2.063c-.602.049-1.21.074-1.826.074v2.07zm-23.08-22.039c0 12.219 10.381 22.04 23.08 22.04v-2.071c-11.651 0-21.01-8.987-21.01-19.969h-2.07zm.284-3.467a21.225 21.225 0 00-.284 3.467h2.07c0-1.065.088-2.11.257-3.129l-2.043-.338zM31.42 25.084h134.895v-2.07H31.42v2.07zm1.306 2.263c0-1.179-.097-2.337-.284-3.467l-2.043.338c.169 1.019.256 2.064.256 3.13h2.07z" fill="#FDC100"/></g><g filter="url(#prefix__filter4_d)"><path stroke="#fff" stroke-width="2.07" d="M51.138 34.117V-19"/></g><g filter="url(#prefix__filter5_d)"><path stroke="#fff" stroke-width="2.07" d="M144.527 34.117V-19"/></g><path d="M126.33 60.095H26.483M130.983 122.103h-104.5" stroke="#E30613" stroke-width="2.071" stroke-miterlimit="10" stroke-linecap="round" stroke-linejoin="round"/><path d="M42.041 67.801c.816 1.037 1.222 2.519 1.222 4.482 0 1.667-.37 2.854-1.112 3.63 1.152.816 1.743 2.444 1.743 4.928 0 2.188-.446 3.745-1.297 4.706-.852 1.002-2.188 1.482-4.001 1.482h-5.893V66.244h5.483c1.777 0 3.074.52 3.855 1.557zm-2.153 4.411c0-1.517-.59-2.258-1.777-2.258h-1.707v4.521h1.777c1.156-.004 1.707-.745 1.707-2.263zm.631 8.633c0-1.667-.59-2.554-1.777-2.669h-2.334v5.188h2.334c1.186 0 1.777-.852 1.777-2.519zM58.548 67.876c1.001 1.151 1.482 4.04 1.482 8.672 0 4.632-.48 7.561-1.482 8.783-1.001 1.222-2.669 1.853-5.002 1.853-2.224 0-3.891-.591-5.003-1.853-1.111-1.261-1.667-4.15-1.667-8.708 0-4.556.556-7.45 1.667-8.672 1.112-1.222 2.744-1.817 4.928-1.817 2.373 0 4.076.555 5.077 1.742zm-7.376 2.669c-.445.48-.63 2.519-.63 6.114 0 3.595.225 5.597.666 6.078.445.481 1.222.706 2.258.706 1.112 0 1.853-.22 2.259-.706.406-.48.63-2.518.63-6.078 0-3.595-.185-5.633-.595-6.114-.406-.481-1.186-.741-2.298-.741-1.068 0-1.844.22-2.29.74zM69.704 69.804c-1.147 0-1.963.22-2.409.74-.445.482-.63 2.52-.63 6.115s.22 5.597.665 6.078c.446.481 1.262.706 2.409.706 1.147 0 2.038-.185 2.74-.591v3.78c-.852.37-2.114.52-3.741.556-1.593.035-2.965-.556-4.076-1.853-1.112-1.261-1.668-4.15-1.668-8.707s.556-7.45 1.668-8.672c1.111-1.222 2.483-1.818 4.076-1.818 1.592 0 2.854.185 3.74.556v3.705c-.626-.41-1.552-.595-2.774-.595zM79.571 78.03v9.004h-3.67v-20.79h3.706v6.3l-.075 1.927.74-1.778 3.075-6.449h4.151l-4.817 8.783 5.077 12.007h-4l-3.63-9.003-.632-1.743.075 1.743zM42.372 95.591c.816 1.037 1.222 2.52 1.222 4.487 0 1.667-.37 2.854-1.112 3.63 1.152.816 1.743 2.444 1.743 4.927 0 2.184-.446 3.741-1.297 4.707-.851 1.001-2.188 1.482-4.001 1.482h-5.893v-20.79h5.483c1.782 0 3.079.52 3.855 1.557zm-2.148 4.412c0-1.518-.591-2.259-1.778-2.259H36.74v4.522h1.778c1.151 0 1.707-.746 1.707-2.263zm.63 8.637c0-1.668-.59-2.559-1.777-2.669h-2.334v5.187h2.334c1.182 0 1.778-.851 1.778-2.518zM49.765 114.528a4.473 4.473 0 01-1.963-1.296c-.516-.596-.926-1.372-1.147-2.299-.26-.966-.406-2.148-.406-3.555v-13.34h3.745v14.081c0 1.517.186 2.409.556 2.669.406.26 1.002.406 1.853.406s1.482-.146 1.817-.406c.336-.26.481-1.147.481-2.669v-14.08h3.745v13.304c0 1.407-.11 2.593-.335 3.559-.26.962-.591 1.743-1.072 2.334a3.772 3.772 0 01-1.853 1.257c-.776.26-1.667.41-2.704.41-1.05-.004-1.94-.114-2.717-.375zM64.75 97.444c-.816.15-1.332.706-1.518 1.632-.185.927.517 2.113 2.113 3.595 1.593 1.482 2.704 2.629 3.445 3.445.741.817 1.152 1.888 1.262 3.225.11 1.407-.37 2.704-1.407 3.891-1.037 1.186-2.484 1.777-4.411 1.742-1.963-.035-3.335-.295-4.151-.741v-3.595c2.038.666 3.52.926 4.446.816.927-.11 1.482-.631 1.703-1.557.225-.962-.48-2.148-2.038-3.595a56.069 56.069 0 01-2.038-1.963c-.591-.556-1.076-1.037-1.407-1.447-.666-.741-1.112-1.818-1.297-3.225-.185-1.372.296-2.668 1.297-3.89 1.036-1.262 2.444-1.893 4.226-1.893 1.817 0 3.004.186 3.63.591v3.706c-1.782-.622-3.079-.882-3.855-.737zM75.83 94.034h-3.705v20.79h3.706v-20.79zM81.773 105.486v9.338h-3.375V94.039h4.08l3.335 9.188.997 3.485-.145-3.856v-8.817h3.334v20.785h-3.855L82.7 105.3l-1.076-3.665.15 3.851zM99.228 66.266h-3.706v20.79h3.706v-20.79zM106.33 77.713v9.338h-3.371V66.266h4.076l3.335 9.188.997 3.485-.145-3.855v-8.818h3.334v20.785h-3.855l-3.445-9.523-1.076-3.666.15 3.851zM96.294 97.744v4.521h3.485v3.706h-3.485v5.148h5.598v3.705h-9.299V94.039h9.299v3.705h-5.598zM107.992 97.444c-.816.15-1.332.706-1.517 1.632-.185.927.516 2.113 2.113 3.595 1.592 1.482 2.704 2.629 3.445 3.445.741.817 1.151 1.888 1.262 3.225.11 1.407-.371 2.704-1.408 3.891-1.036 1.186-2.483 1.777-4.411 1.742-1.963-.035-3.335-.295-4.151-.741v-3.595c2.038.666 3.52.926 4.447.816.926-.11 1.482-.631 1.703-1.557.224-.962-.481-2.148-2.038-3.595a55.429 55.429 0 01-2.038-1.963c-.591-.556-1.077-1.037-1.408-1.447-.666-.741-1.111-1.818-1.296-3.225-.186-1.372.295-2.668 1.296-3.89 1.037-1.262 2.444-1.893 4.226-1.893 1.818 0 3.004.186 3.631.591v3.706c-1.782-.622-3.079-.882-3.856-.737zM118.985 97.444c-.816.15-1.332.706-1.517 1.632-.186.927.516 2.113 2.113 3.595 1.592 1.482 2.704 2.629 3.445 3.445.741.817 1.151 1.888 1.261 3.225.111 1.407-.37 2.704-1.407 3.891-1.037 1.186-2.483 1.777-4.411 1.742-1.963-.035-3.335-.295-4.151-.741v-3.595c2.038.666 3.52.926 4.446.816.927-.11 1.483-.631 1.703-1.557.225-.962-.481-2.148-2.038-3.595-.816-.741-1.482-1.407-2.038-1.963-.591-.556-1.076-1.037-1.407-1.447-.666-.741-1.111-1.818-1.297-3.225-.185-1.372.296-2.668 1.297-3.89 1.037-1.262 2.444-1.893 4.226-1.893 1.817 0 3.004.186 3.63.591v3.706c-1.782-.622-3.074-.882-3.855-.737z" fill="#fff"/><path d="M158.853 119.743l-.547-5.192c-.406-8.055.49-20.318 3.538-28.726 3.256-8.963 4.054-10.662 3.238-22.32M129.669 63.346c-.838 11.809-.044 13.48 3.224 22.483 3.053 8.408 3.948 20.671 3.538 28.726l-.547 5.192" stroke="#FDC100" stroke-width="2.071" stroke-miterlimit="10" stroke-linecap="round" stroke-linejoin="round"/><path d="M135.461 122.103c-1.721 4.958-.984 6.444-.984 6.444h25.779c.732-1.804-.984-6.444-.984-6.444s-17.15.097-17.053 0M159.312 60.095h5.734l-1.071-12.091h-33.208s-.754 7.534-1.023 12.09h16.837M156.185 60.095h-4.694" stroke="#fff" stroke-width="2.071" stroke-miterlimit="10" stroke-linecap="round" stroke-linejoin="round"/><path d="M154.852 81.714a7.335 7.335 0 11-14.671 0 7.335 7.335 0 017.336-7.336" stroke="#E30B17" stroke-width="3.452" stroke-miterlimit="10" stroke-linecap="round" stroke-linejoin="round"/><path d="M147.221 70.36l4.019 4.018-4.019 4.014" stroke="#E30B17" stroke-width="3.452" stroke-miterlimit="10" stroke-linecap="round" stroke-linejoin="round"/><defs><filter id="prefix__filter0_d" x=".618" y="18.667" width="194.765" height="140.953" filterUnits="userSpaceOnUse" color-interpolation-filters="sRGB"><feFlood flood-opacity="0" result="BackgroundImageFix"/><feColorMatrix in="SourceAlpha" values="0 0 0 0 0 0 0 0 0 0 0 0 0 0 0 0 0 0 127 0"/><feOffset/><feGaussianBlur stdDeviation="2.174"/><feColorMatrix values="0 0 0 0 0.992157 0 0 0 0 0.756863 0 0 0 0 0 0 0 0 0.55 0"/><feBlend in2="BackgroundImageFix" result="effect1_dropShadow"/><feBlend in="SourceGraphic" in2="effect1_dropShadow" result="shape"/></filter><filter id="prefix__filter1_d" x="46.504" y="-23.347" width="10.017" height="61.811" filterUnits="userSpaceOnUse" color-interpolation-filters="sRGB"><feFlood flood-opacity="0" result="BackgroundImageFix"/><feColorMatrix in="SourceAlpha" values="0 0 0 0 0 0 0 0 0 0 0 0 0 0 0 0 0 0 127 0"/><feOffset/><feGaussianBlur stdDeviation="2.174"/><feColorMatrix values="0 0 0 0 0.992157 0 0 0 0 0.756863 0 0 0 0 0 0 0 0 0.55 0"/><feBlend in2="BackgroundImageFix" result="effect1_dropShadow"/><feBlend in="SourceGraphic" in2="effect1_dropShadow" result="shape"/></filter><filter id="prefix__filter2_d" x="139.892" y="-23.347" width="10.017" height="61.811" filterUnits="userSpaceOnUse" color-interpolation-filters="sRGB"><feFlood flood-opacity="0" result="BackgroundImageFix"/><feColorMatrix in="SourceAlpha" values="0 0 0 0 0 0 0 0 0 0 0 0 0 0 0 0 0 0 127 0"/><feOffset/><feGaussianBlur stdDeviation="2.174"/><feColorMatrix values="0 0 0 0 0.992157 0 0 0 0 0.756863 0 0 0 0 0 0 0 0 0.55 0"/><feBlend in2="BackgroundImageFix" result="effect1_dropShadow"/><feBlend in="SourceGraphic" in2="effect1_dropShadow" result="shape"/></filter><filter id="prefix__filter3_d" x=".618" y="18.667" width="194.765" height="140.953" filterUnits="userSpaceOnUse" color-interpolation-filters="sRGB"><feFlood flood-opacity="0" result="BackgroundImageFix"/><feColorMatrix in="SourceAlpha" values="0 0 0 0 0 0 0 0 0 0 0 0 0 0 0 0 0 0 127 0"/><feOffset/><feGaussianBlur stdDeviation="2.174"/><feColorMatrix values="0 0 0 0 0.992157 0 0 0 0 0.756863 0 0 0 0 0 0 0 0 0.55 0"/><feBlend in2="BackgroundImageFix" result="effect1_dropShadow"/><feBlend in="SourceGraphic" in2="effect1_dropShadow" result="shape"/></filter><filter id="prefix__filter4_d" x="45.756" y="-23.347" width="10.765" height="61.811" filterUnits="userSpaceOnUse" color-interpolation-filters="sRGB"><feFlood flood-opacity="0" result="BackgroundImageFix"/><feColorMatrix in="SourceAlpha" values="0 0 0 0 0 0 0 0 0 0 0 0 0 0 0 0 0 0 127 0"/><feOffset/><feGaussianBlur stdDeviation="2.174"/><feColorMatrix values="0 0 0 0 0.992157 0 0 0 0 0.756863 0 0 0 0 0 0 0 0 0.55 0"/><feBlend in2="BackgroundImageFix" result="effect1_dropShadow"/><feBlend in="SourceGraphic" in2="effect1_dropShadow" result="shape"/></filter><filter id="prefix__filter5_d" x="139.145" y="-23.347" width="10.765" height="61.811" filterUnits="userSpaceOnUse" color-interpolation-filters="sRGB"><feFlood flood-opacity="0" result="BackgroundImageFix"/><feColorMatrix in="SourceAlpha" values="0 0 0 0 0 0 0 0 0 0 0 0 0 0 0 0 0 0 127 0"/><feOffset/><feGaussianBlur stdDeviation="2.174"/><feColorMatrix values="0 0 0 0 0.992157 0 0 0 0 0.756863 0 0 0 0 0 0 0 0 0.55 0"/><feBlend in2="BackgroundImageFix" result="effect1_dropShadow"/><feBlend in="SourceGraphic" in2="effect1_dropShadow" result="shape"/></filter></defs></svg>