<svg width="496" height="129" viewBox="0 0 496 129" fill="none" xmlns="http://www.w3.org/2000/svg">
<g clip-path="url(#clip0)">
<path d="M492.385 21.0408C482.042 21.0408 473.655 12.6541 473.655 2.31153C473.655 1.51138 473.715 0.770508 473.803 0H23.6486C23.7375 0.770508 23.7968 1.54102 23.7968 2.31153C23.7968 12.6541 15.4101 21.0408 5.06752 21.0408C3.85249 21.0408 2.63745 20.9223 1.48169 20.6852V106.567C2.63745 106.33 3.82285 106.212 5.06752 106.212C15.4101 106.212 23.7968 114.598 23.7968 124.941C23.7968 125.711 23.7375 126.452 23.6486 127.193H473.774C473.685 126.452 473.626 125.711 473.626 124.941C473.626 114.598 482.012 106.212 492.355 106.212C493.066 106.212 493.777 106.271 494.459 106.33V20.9223C493.807 20.9815 493.096 21.0408 492.385 21.0408Z" fill="#79170E" stroke="#E30613" stroke-width="2.96349" stroke-miterlimit="10" stroke-linecap="round" stroke-linejoin="round"/>
<path d="M485.865 28.1534C475.522 28.1534 467.136 19.7667 467.136 9.42408C467.136 8.62393 467.195 7.88306 467.284 7.11255H30.4647C30.5536 7.88306 30.6128 8.65357 30.6128 9.42408C30.6128 19.7667 22.2262 28.1534 11.8836 28.1534C10.6685 28.1534 9.45349 28.0348 8.29773 27.7977V99.7514C9.45349 99.5143 10.6389 99.3958 11.8836 99.3958C22.2262 99.3958 30.6128 107.782 30.6128 118.125C30.6128 118.896 30.5536 119.636 30.4647 120.377H467.254C467.165 119.636 467.106 118.896 467.106 118.125C467.106 107.782 475.493 99.3958 485.835 99.3958C486.546 99.3958 487.258 99.455 487.939 99.5143V28.0348C487.287 28.0941 486.576 28.1534 485.865 28.1534Z" fill="#79170E" stroke="#FDC100" stroke-width="2.96349" stroke-miterlimit="10" stroke-linecap="round" stroke-linejoin="round"/>
<path d="M410.444 41.3706H56.0692" stroke="#E30613" stroke-width="2.07445" stroke-miterlimit="10" stroke-linecap="round" stroke-linejoin="round"/>
<path d="M414.237 91.9871H56.0692" stroke="#E30613" stroke-width="2.07445" stroke-miterlimit="10" stroke-linecap="round" stroke-linejoin="round"/>
<path d="M437.886 90.0608L437.441 85.823C437.115 79.244 437.827 69.2274 440.316 62.3817C442.983 55.0619 443.635 53.6691 442.953 44.1562" stroke="#FDC100" stroke-width="2.07445" stroke-miterlimit="10" stroke-linecap="round" stroke-linejoin="round"/>
<path d="M414.059 44.0081C413.378 53.6394 414.03 55.0026 416.697 62.3521C419.186 69.2274 419.927 79.2144 419.601 85.7933L419.157 90.0311" stroke="#FDC100" stroke-width="2.07445" stroke-miterlimit="10" stroke-linecap="round" stroke-linejoin="round"/>
<path d="M418.801 92.5796C417.408 96.6396 418.001 97.8546 418.001 97.8546H439.042C439.634 96.3729 438.242 92.5796 438.242 92.5796C438.242 92.5796 424.254 92.6685 424.313 92.5796" stroke="white" stroke-width="2.07445" stroke-miterlimit="10" stroke-linecap="round" stroke-linejoin="round"/>
<path d="M438.272 41.3704H442.954L442.065 31.502H414.949C414.949 31.502 414.327 37.666 414.12 41.3704H427.87" stroke="white" stroke-width="2.07445" stroke-miterlimit="10" stroke-linecap="round" stroke-linejoin="round"/>
<path d="M435.722 41.3701H431.87" stroke="white" stroke-width="2.07445" stroke-miterlimit="10" stroke-linecap="round" stroke-linejoin="round"/>
<path d="M434.626 59.0036C434.626 62.3227 431.959 64.9898 428.64 64.9898C425.321 64.9898 422.654 62.3227 422.654 59.0036C422.654 55.6845 425.35 53.0173 428.64 53.0173" stroke="#E30B17" stroke-width="2.07445" stroke-miterlimit="10" stroke-linecap="round" stroke-linejoin="round"/>
<path d="M428.403 49.7275L431.692 53.017L428.403 56.3065" stroke="#E30B17" stroke-width="2.07445" stroke-miterlimit="10" stroke-linecap="round" stroke-linejoin="round"/>
<path d="M73.6724 49.4619C75.2134 51.4178 75.9839 54.2035 75.9839 57.9079C75.9839 61.0492 75.2727 63.2718 73.8798 64.7536C76.0432 66.2946 77.1693 69.347 77.1693 74.0293C77.1693 78.1486 76.3395 81.0824 74.7392 82.8902C73.1389 84.7868 70.62 85.6758 67.1823 85.6758H56.0692V46.5281H66.3822C69.7606 46.5281 72.1906 47.506 73.6724 49.4619ZM69.6124 57.7894C69.6124 54.9148 68.4863 53.5219 66.2636 53.5219H63.0631V62.0271H66.3822C68.5455 62.0271 69.6124 60.6343 69.6124 57.7894ZM70.7978 74.0589C70.7978 70.9176 69.6717 69.2284 67.449 69.021H63.0631V78.8005H67.449C69.6717 78.8005 70.7978 77.2002 70.7978 74.0589Z" fill="white"/>
<path d="M104.76 49.6091C106.656 51.7724 107.545 57.2252 107.545 65.9379C107.545 74.6802 106.627 80.1923 104.76 82.4742C102.863 84.7857 99.7216 85.9711 95.3356 85.9711C91.1571 85.9711 88.0158 84.845 85.9117 82.4742C83.8076 80.1034 82.7704 74.6506 82.7704 66.0565C82.7704 57.4623 83.8076 52.0095 85.9117 49.7276C88.0158 47.4161 91.0682 46.3196 95.1874 46.3196C99.6623 46.3196 102.863 47.3864 104.76 49.6091ZM90.8607 54.647C90.031 55.5657 89.6753 59.3886 89.6753 66.175C89.6753 72.9614 90.0902 76.725 90.92 77.6141C91.7498 78.5328 93.2315 78.9477 95.1874 78.9477C97.2915 78.9477 98.6844 78.5328 99.4549 77.6141C100.225 76.6954 100.64 72.8725 100.64 66.175C100.64 59.3886 100.285 55.5657 99.5141 54.647C98.7436 53.7283 97.2915 53.2542 95.1874 53.2542C93.1723 53.2542 91.6905 53.669 90.8607 54.647Z" fill="white"/>
<path d="M125.771 53.2542C123.607 53.2542 122.066 53.669 121.237 54.647C120.407 55.5657 120.051 59.3886 120.051 66.175C120.051 72.9614 120.466 76.725 121.296 77.6141C122.126 78.5328 123.667 78.9477 125.83 78.9477C127.993 78.9477 129.683 78.592 130.986 77.8215V84.9339C129.386 85.6155 127.015 85.9119 123.933 85.9711C120.94 86.0304 118.332 84.9339 116.258 82.4742C114.154 80.1034 113.117 74.6506 113.117 66.0565C113.117 57.4623 114.154 52.0095 116.258 49.7276C118.362 47.4161 120.94 46.3196 123.933 46.3196C126.926 46.3196 129.297 46.6752 130.986 47.3568V54.3507C129.831 53.5801 128.082 53.2542 125.771 53.2542Z" fill="white"/>
<path d="M144.381 68.7531V85.7043H137.447V46.5269H144.441V58.4105L144.293 62.0259L145.685 58.6772L151.494 46.5269H159.317L150.249 63.0928L159.792 85.7043H152.264L145.419 68.7531L144.233 65.4636L144.381 68.7531Z" fill="white"/>
<path d="M181.425 46.5859H174.431V85.7633H181.425V46.5859Z" fill="white"/>
<path d="M194.79 68.1602V85.7337H188.448V46.5859H196.124L202.407 63.8927L204.303 70.4421L204.007 63.1815V46.5859H210.289V85.7337H203.029L196.539 67.8045L194.524 60.8996L194.79 68.1602Z" fill="white"/>
<path d="M246.266 49.4619C247.807 51.4178 248.578 54.2035 248.578 57.9079C248.578 61.0492 247.896 63.2718 246.474 64.7536C248.637 66.2946 249.763 69.347 249.763 74.0293C249.763 78.1486 248.933 81.0824 247.333 82.8902C245.733 84.7868 243.214 85.6758 239.806 85.6758H228.693V46.5281H239.035C242.354 46.5281 244.785 47.506 246.266 49.4619ZM242.206 57.7894C242.206 54.9148 241.08 53.5219 238.858 53.5219H235.657V62.0568H239.006C241.169 62.0568 242.206 60.6343 242.206 57.7894ZM243.392 74.0589C243.392 70.9176 242.266 69.2284 240.043 69.021H235.657V78.8005H240.043C242.266 78.8005 243.392 77.2002 243.392 74.0589Z" fill="white"/>
<path d="M260.195 85.1413C258.743 84.6375 257.468 83.8078 256.49 82.7113C255.512 81.5851 254.742 80.133 254.327 78.3846C253.853 76.5768 253.556 74.3246 253.556 71.6871V46.5566H260.61V73.0799C260.61 75.9545 260.965 77.6141 261.647 78.1179C262.417 78.6217 263.543 78.8884 265.144 78.8884C266.744 78.8884 267.929 78.6217 268.552 78.1179C269.174 77.6141 269.47 75.9545 269.47 73.0799V46.5566H276.523V71.6278C276.523 74.2653 276.316 76.5176 275.901 78.3253C275.427 80.133 274.775 81.6148 273.886 82.7113C272.967 83.8374 271.782 84.6672 270.389 85.0821C268.937 85.5562 267.248 85.8526 265.292 85.8526C263.336 85.8526 261.647 85.6451 260.195 85.1413Z" fill="white"/>
<path d="M288.407 52.958C286.866 53.2247 285.888 54.2916 285.533 56.04C285.177 57.7885 286.511 60.0111 289.504 62.8264C292.497 65.6121 294.601 67.7755 295.994 69.3165C297.387 70.8575 298.157 72.8727 298.365 75.3916C298.572 78.0588 297.653 80.4888 295.727 82.7115C293.771 84.9341 291.045 86.0602 287.429 86.0009C283.725 85.9417 281.147 85.4379 279.606 84.6081V77.8217C283.458 79.0664 286.244 79.5702 287.992 79.3627C289.741 79.1553 290.778 78.1773 291.193 76.4289C291.608 74.6211 290.274 72.3689 287.34 69.6425C285.799 68.2496 284.555 66.9753 283.488 65.9381C282.362 64.9009 281.473 63.9822 280.85 63.2117C279.606 61.8188 278.746 59.8037 278.42 57.1365C278.065 54.5583 278.983 52.0986 280.85 49.8167C282.806 47.4459 285.444 46.2605 288.822 46.2605C292.23 46.2605 294.482 46.6161 295.668 47.3866V54.3805C292.319 53.1654 289.889 52.6913 288.407 52.958Z" fill="white"/>
<path d="M309.3 46.5271H302.306V85.7045H309.3V46.5271Z" fill="white"/>
<path d="M320.502 68.1013V85.7045H314.13V46.5271H321.806L328.118 63.8635L329.985 70.4129L329.718 63.1523V46.5271H336.001V85.7045H328.74L322.25 67.7754L320.206 60.8408L320.502 68.1013Z" fill="white"/>
<path d="M347.855 53.5209V62.0558H354.434V69.02H347.855V78.7403H358.405V85.7045H340.891V46.5271H358.405V53.5209H347.855Z" fill="white"/>
<path d="M369.903 52.958C368.362 53.2247 367.384 54.2916 367.029 56.04C366.673 57.7885 368.007 60.0111 371 62.8264C373.993 65.6121 376.097 67.7755 377.49 69.3165C378.883 70.8575 379.653 72.8727 379.861 75.3916C380.068 78.0588 379.149 80.4888 377.194 82.7115C375.238 84.9341 372.511 86.0602 368.896 86.0009C365.191 85.9417 362.613 85.4379 361.072 84.6081V77.8217C364.925 79.0664 367.71 79.5702 369.459 79.3627C371.207 79.1553 372.244 78.1773 372.659 76.4289C373.074 74.6211 371.741 72.3689 368.807 69.6425C367.266 68.2496 366.021 66.9753 364.954 65.9381C363.828 64.9009 362.939 63.9822 362.287 63.2117C361.042 61.8188 360.183 59.8037 359.857 57.1365C359.501 54.5583 360.42 52.0986 362.287 49.8167C364.243 47.4459 366.91 46.2605 370.259 46.2605C373.697 46.2605 375.919 46.6161 377.105 47.3866V54.3805C373.815 53.1654 371.355 52.6913 369.903 52.958Z" fill="white"/>
<path d="M390.618 52.958C389.077 53.2247 388.099 54.2916 387.743 56.04C387.388 57.7885 388.721 60.0111 391.715 62.8264C394.708 65.6121 396.812 67.7755 398.205 69.3165C399.597 70.8575 400.368 72.8727 400.575 75.3916C400.783 78.0588 399.864 80.4888 397.908 82.7115C395.952 84.9341 393.226 86.0602 389.61 86.0009C385.906 85.9417 383.328 85.4379 381.787 84.6081V77.8217C385.639 79.0664 388.425 79.5702 390.174 79.3627C391.922 79.1553 392.959 78.1773 393.374 76.4289C393.789 74.6211 392.455 72.3689 389.522 69.6425C387.981 68.2496 386.736 66.9753 385.669 65.9381C384.543 64.9009 383.654 63.9822 383.002 63.2117C381.757 61.8188 380.898 59.8037 380.572 57.1365C380.216 54.5583 381.135 52.0986 383.002 49.8167C384.958 47.4459 387.625 46.2605 390.974 46.2605C394.382 46.2605 396.634 46.6161 397.819 47.3866V54.3805C394.53 53.1654 392.07 52.6913 390.618 52.958Z" fill="white"/>
</g>
<defs>
<clipPath id="clip0">
<rect width="496" height="129" fill="white"/>
</clipPath>
</defs>
</svg>
