<svg width="306" height="78" fill="none" xmlns="http://www.w3.org/2000/svg"><path d="M63.375 50c-2.169 0-3.995 1.348-4.875 2.133-.88-.785-2.706-2.133-4.875-2.133C50.523 50 48 52.514 48 55.606c0 1.936 1.774 3.698 1.845 3.768L58.5 68l8.65-8.621c.076-.075 1.85-1.837 1.85-3.773C69 52.514 66.477 50 63.375 50zM103.45 29H89.425V11.1H103.2v4.15h-8.675v3h8.2v3.425h-8.2v3.175h8.925V29zM133.95 29.375c5 0 8.275-2.3 8.275-5.85 0-4.325-4.125-4.975-7.175-5.425l-.139-.02c-2.015-.29-3.711-.535-3.711-1.855 0-1 1-1.7 2.675-1.7 1.8 0 2.975.9 2.975 2.475h4.775c0-3.7-3.175-6.25-7.925-6.25-4.725 0-7.775 2.3-7.775 5.85 0 4.365 4.187 4.926 7.242 5.335l.483.065c1.825.25 3.3.55 3.3 1.85 0 1.1-1.1 1.725-2.8 1.725-2.15 0-3.375-.975-3.4-2.475h-4.95c0 3.7 3.25 6.275 8.15 6.275zM179.45 29h-14.025V11.1H179.2v4.15h-8.675v3h8.2v3.425h-8.2v3.175h8.925V29z" fill="#122675"/><path fill-rule="evenodd" clip-rule="evenodd" d="M202.425 29h5.275v-5.9h1.275l4.45 5.9h5.875l-5.275-6.3.2-.05c2.6-.475 4.5-2.525 4.5-5.45 0-3.65-2.9-6.1-7.275-6.1h-9.025V29zm5.275-9.325V14.9h2.825c1.675 0 2.925.9 2.925 2.375 0 1.5-1.25 2.4-2.925 2.4H207.7zM51.425 29H56.7v-5.9h1.275l4.45 5.9H68.3l-5.275-6.3.2-.05c2.6-.475 4.5-2.525 4.5-5.45 0-3.65-2.9-6.1-7.275-6.1h-9.025V29zm5.275-9.325V14.9h2.825c1.675 0 2.925.9 2.925 2.375 0 1.5-1.25 2.4-2.925 2.4H56.7z" fill="#122675"/><path d="M252.75 29h-8.225l-5.275-17.9h5.4l3.875 14.025h.25L252.6 11.1h5.45l-5.3 17.9zM18.7 20v-5.1h2.45c1.775 0 2.95 1 2.95 2.55C24.1 19 22.925 20 21.15 20H18.7zM279.425 29h14.025v-4.15h-8.925v-3.175h8.2V18.25h-8.2v-3h8.675V11.1h-13.775V29zM145.741 53.161h.846c1.187 0 2.503.423 2.503 2.25 0 1.667-.477 2.526-3.349 3.497v-5.747zM173.521 58.11c0 2.733 1.417 4.948 3.62 4.948 2.203 0 3.62-2.215 3.62-4.949 0-2.73-1.414-4.949-3.62-4.949-2.203 0-3.62 2.215-3.62 4.95zM161.207 52.795h1.48c1.506 0 1.938.84 1.938 1.917 0 .917-.231 2.051-1.657 2.051h-1.761v-3.968zM163.22 63.235h-2.013V59.07h1.909c1.237 0 2.244.285 2.244 1.965 0 1.676-.921 2.199-2.14 2.199zM124.202 58.382l-1.433.586v-5.814h.846c1.187 0 2.503.423 2.503 2.247 0 1.336-.316 2.189-1.916 2.98z" fill="#122675"/><path fill-rule="evenodd" clip-rule="evenodd" d="M0 0h306v40h-76v38H38V40H0V0zm76 76V40H40v36h36zm2-38h36V2H78v36zm38 0h36V2h-36v36zm38 0h36V2h-36v36zm38 0h36V2h-36v36zM76 38V2H40v36h36zm154 0h36V2h-36v36zM13.45 29h5.25v-5.2h3c4.725 0 7.675-2.5 7.675-6.35 0-3.85-2.925-6.35-7.625-6.35h-8.3V29zM268 2v36h36V2h-36zM140.111 63.128h-5.15v-3.984h3.705v-2.6h-3.705v-3.368h5.15v-2.824h-8.729V65.95h8.729v-2.82zm-23.42-3.256c0 4.615-2.225 6.372-5.706 6.372-3.478 0-5.706-1.757-5.706-6.369v-9.523h3.585v9.514c0 2.044.559 3.073 2.124 3.073 1.566 0 2.124-1.029 2.124-3.074v-9.513h3.579v9.52zm29.047 1.59c.354-.115.695-.23 1.017-.346l1.959 3.408c.559.884 1.061 1.423 1.992 1.423h2.78l-3.601-6.26c2.055-1.25 2.73-2.625 2.73-4.276 0-2.574-1.13-5.051-5.292-5.051l-5.167-.003v15.59h3.582v-4.484zm24.258-3.369c0-4.465 2.793-8.083 7.145-8.083 4.352 0 7.148 3.618 7.145 8.083 0 4.465-2.793 8.084-7.145 8.084-4.352 0-7.145-3.619-7.145-8.084zm-72.341 5.18c-1.057.042-2.626-.333-4.488-1.33v3.215c1.108.727 3.248 1.16 5.081 1.083 3.238-.134 5.135-2.211 5.135-4.875 0-3.398-2.271-4.19-4.139-4.843-1.303-.455-2.41-.841-2.41-1.997 0-.74.597-1.673 2.121-1.737 1.524-.064 2.806.59 3.835 1.208v-3.09c-1.08-.548-2.307-.99-4.652-.894-3.349.141-5.138 2.545-5.138 4.802 0 3.264 2.145 4.055 3.96 4.724 1.328.49 2.478.914 2.478 2.196.003.817-.483 1.484-1.783 1.538zm109.631-12.99h3.854l-4.753 7.23 5.617 8.36h-3.108c-.934 0-1.36-.478-1.995-1.42l-3.982-5.94v7.36h-3.582v-15.59h3.582v6.91l4.367-6.91zm-40.698 7.333c1.291-.837 1.515-2.388 1.515-3.064 0-2.984-2.497-4.27-5.037-4.27h-5.438v15.59h6.287c3.44 0 5.141-2.108 5.141-4.516-.003-1.775-.811-3.131-2.468-3.74zm27.172 8.56c-4.832 0-8.029-3.55-8.029-8.09 0-4.535 3.197-8.09 8.029-8.086 1.224 0 2.361.186 3.522.907v3.414c-1.253-.86-2.477-1.129-3.525-1.129-2.411 0-4.292 1.767-4.292 4.895 0 3.128 1.881 4.894 4.292 4.894 1.048 0 2.272-.27 3.525-1.125v3.414c-1.161.72-2.298.907-3.522.907zm-64.114-10.775c0-2.574-1.127-5.049-5.292-5.049h-5.167v15.594h3.582v-4.164l1.433-.577c4.172-1.567 5.444-3.573 5.444-5.804z" fill="#122675"/></svg>