<svg width="306" height="78" fill="none" xmlns="http://www.w3.org/2000/svg"><path fill-rule="evenodd" clip-rule="evenodd" d="M40 0H0v40h40V0zM18.7 29h-5.25V11.1h8.3c4.7 0 7.625 2.5 7.625 6.35 0 3.85-2.95 6.35-7.675 6.35h-3V29zm0-14.1V20h2.45c1.775 0 2.95-1 2.95-2.55 0-1.55-1.175-2.55-2.95-2.55H18.7z" fill="#AA212D"/><path fill-rule="evenodd" clip-rule="evenodd" d="M76 2H40v36h36V2zM38 0v40h40V0H38z" fill="#AA212D"/><path d="M51.425 29H56.7v-5.9h1.275l4.45 5.9H68.3l-5.275-6.3.2-.05c2.6-.475 4.5-2.525 4.5-5.45 0-3.65-2.9-6.1-7.275-6.1h-9.025V29zm5.275-9.325V14.9h2.825c1.675 0 2.925.9 2.925 2.375 0 1.5-1.25 2.4-2.925 2.4H56.7z" fill="#AA212D"/><path fill-rule="evenodd" clip-rule="evenodd" d="M114 2H78v36h36V2zM76 0v40h40V0H76z" fill="#AA212D"/><path d="M89.425 29h14.025v-4.15h-8.925v-3.175h8.2V18.25h-8.2v-3h8.675V11.1H89.425V29z" fill="#AA212D"/><path fill-rule="evenodd" clip-rule="evenodd" d="M152 2h-36v36h36V2zm-38-2v40h40V0h-40z" fill="#AA212D"/><path d="M133.95 29.375c5 0 8.275-2.3 8.275-5.85 0-4.325-4.125-4.975-7.175-5.425-2.075-.3-3.85-.525-3.85-1.875 0-1 1-1.7 2.675-1.7 1.8 0 2.975.9 2.975 2.475h4.775c0-3.7-3.175-6.25-7.925-6.25-4.725 0-7.775 2.3-7.775 5.85 0 4.6 4.65 4.975 7.725 5.4 1.825.25 3.3.55 3.3 1.85 0 1.1-1.1 1.725-2.8 1.725-2.15 0-3.375-.975-3.4-2.475h-4.95c0 3.7 3.25 6.275 8.15 6.275z" fill="#AA212D"/><path fill-rule="evenodd" clip-rule="evenodd" d="M190 2h-36v36h36V2zm-38-2v40h40V0h-40z" fill="#AA212D"/><path d="M165.425 29h14.025v-4.15h-8.925v-3.175h8.2V18.25h-8.2v-3h8.675V11.1h-13.775V29z" fill="#AA212D"/><path fill-rule="evenodd" clip-rule="evenodd" d="M228 2h-36v36h36V2zm-38-2v40h40V0h-40z" fill="#AA212D"/><path d="M202.425 29h5.275v-5.9h1.275l4.45 5.9h5.875l-5.275-6.3.2-.05c2.6-.475 4.5-2.525 4.5-5.45 0-3.65-2.9-6.1-7.275-6.1h-9.025V29zm5.275-9.325V14.9h2.825c1.675 0 2.925.9 2.925 2.375 0 1.5-1.25 2.4-2.925 2.4H207.7z" fill="#AA212D"/><path fill-rule="evenodd" clip-rule="evenodd" d="M266 2h-36v36h36V2zm-38-2v40h40V0h-40z" fill="#AA212D"/><path d="M244.525 29h8.225l5.3-17.9h-5.45l-3.825 14.025h-.25L244.65 11.1h-5.4l5.275 17.9z" fill="#AA212D"/><path fill-rule="evenodd" clip-rule="evenodd" d="M304 2h-36v36h36V2zm-38-2v40h40V0h-40z" fill="#AA212D"/><path d="M279.425 29h14.025v-4.15h-8.925v-3.175h8.2V18.25h-8.2v-3h8.675V11.1h-13.775V29z" fill="#AA212D"/><path fill-rule="evenodd" clip-rule="evenodd" d="M76 40H40v36h36V40zm-38-2v40h40V38H38z" fill="#AA212D"/><path d="M63.375 50c-2.169 0-3.995 1.348-4.875 2.133-.88-.785-2.706-2.133-4.875-2.133C50.523 50 48 52.514 48 55.606c0 1.936 1.774 3.698 1.845 3.768L58.5 68l8.65-8.621c.076-.075 1.85-1.837 1.85-3.773C69 52.514 66.477 50 63.375 50zM76 38h154v40H76z" fill="#AA212D"/><path d="M140.111 63.129h-5.15v-3.984h3.705v-2.6h-3.705v-3.369h5.15v-2.824h-8.729V65.95h8.729v-2.82zm-29.126 3.115c3.481 0 5.706-1.757 5.706-6.372v-9.52h-3.579v9.514c0 2.044-.558 3.073-2.124 3.073-1.565 0-2.124-1.029-2.124-3.073v-9.514h-3.585v9.523c0 4.612 2.228 6.369 5.706 6.369zm34.753-4.781c.354-.116.694-.231 1.016-.346l1.96 3.407c.559.884 1.061 1.423 1.992 1.423h2.78l-3.601-6.26c2.055-1.25 2.73-2.625 2.73-4.276 0-2.574-1.13-5.051-5.293-5.051l-5.166-.003v15.59h3.582v-4.484zm0-8.302h.849c1.187 0 2.503.423 2.503 2.25 0 1.667-.477 2.526-3.349 3.497v-5.747h-.003zm31.403-3.151c-4.352 0-7.145 3.619-7.145 8.083 0 4.465 2.793 8.084 7.145 8.084 4.352 0 7.145-3.619 7.145-8.084.003-4.465-2.793-8.083-7.145-8.083zm0 13.048c-2.203 0-3.62-2.215-3.62-4.949s1.417-4.949 3.62-4.949c2.206 0 3.62 2.219 3.62 4.95 0 2.733-1.417 4.948-3.62 4.948zm-79.486.215c-1.057.042-2.626-.333-4.488-1.33v3.215c1.108.727 3.248 1.16 5.081 1.083 3.238-.134 5.135-2.211 5.135-4.875 0-5.77-6.549-4.029-6.549-6.84 0-.74.597-1.673 2.121-1.737 1.524-.064 2.806.59 3.835 1.208v-3.09c-1.08-.548-2.307-.99-4.652-.894-3.349.141-5.138 2.545-5.138 4.802 0 5.654 6.438 3.888 6.438 6.92.003.817-.483 1.484-1.783 1.538zM211.14 50.282h-3.854l-4.367 6.91v-6.91h-3.582v15.59h3.582v-7.358l3.982 5.939c.635.942 1.061 1.42 1.995 1.42h3.108l-5.617-8.36 4.753-7.23zm-44.552 7.334c1.291-.837 1.515-2.388 1.515-3.064 0-2.984-2.497-4.27-5.037-4.27h-5.438v15.59h6.287c3.44 0 5.141-2.108 5.141-4.516-.003-1.775-.811-3.131-2.468-3.74zm-5.381-4.82h1.48c1.505 0 1.938.84 1.938 1.916 0 .917-.231 2.051-1.657 2.051h-1.761v-3.968zm2.013 10.439h-2.013V59.07h1.909c1.237 0 2.244.285 2.244 1.965 0 1.676-.921 2.199-2.14 2.199zm22.511-5.148c0 4.538 3.197 8.09 8.029 8.09 1.225 0 2.361-.186 3.522-.907v-3.414c-1.253.856-2.477 1.125-3.525 1.125-2.411 0-4.292-1.766-4.292-4.894 0-3.129 1.881-4.895 4.292-4.895 1.048 0 2.272.27 3.525 1.129v-3.414c-1.161-.721-2.297-.907-3.522-.907-4.832-.003-8.029 3.551-8.029 8.087zM129.646 55.4c0-2.573-1.126-5.047-5.292-5.047h-5.166v15.593h3.581v-4.164l1.433-.577c4.172-1.567 5.444-3.573 5.444-5.804zm-5.444 2.982l-1.433.586v-5.814h.846c1.187 0 2.503.423 2.503 2.247 0 1.336-.316 2.189-1.916 2.98z" fill="#fff"/></svg>