<svg width="306" height="136" fill="none" xmlns="http://www.w3.org/2000/svg"><path stroke="#fff" stroke-width="2" d="M1 1h38v38H1z"/><path d="M13.45 29h5.25v-5.2h3c4.725 0 7.675-2.5 7.675-6.35 0-3.85-2.925-6.35-7.625-6.35h-8.3V29zm5.25-9v-5.1h2.45c1.775 0 2.95 1 2.95 2.55C24.1 19 22.925 20 21.15 20H18.7z" fill="#fff"/><path stroke="#fff" stroke-width="2" d="M39 1h38v38H39z"/><path d="M51.425 29H56.7v-5.9h1.275l4.45 5.9H68.3l-5.275-6.3.2-.05c2.6-.475 4.5-2.525 4.5-5.45 0-3.65-2.9-6.1-7.275-6.1h-9.025V29zm5.275-9.325V14.9h2.825c1.675 0 2.925.9 2.925 2.375 0 1.5-1.25 2.4-2.925 2.4H56.7z" fill="#fff"/><path stroke="#fff" stroke-width="2" d="M77 1h38v38H77z"/><path d="M89.425 29h14.025v-4.15h-8.925v-3.175h8.2V18.25h-8.2v-3h8.675V11.1H89.425V29z" fill="#fff"/><path stroke="#fff" stroke-width="2" d="M115 1h38v38h-38z"/><path d="M133.95 29.375c5 0 8.275-2.3 8.275-5.85 0-4.325-4.125-4.975-7.175-5.425-2.075-.3-3.85-.525-3.85-1.875 0-1 1-1.7 2.675-1.7 1.8 0 2.975.9 2.975 2.475h4.775c0-3.7-3.175-6.25-7.925-6.25-4.725 0-7.775 2.3-7.775 5.85 0 4.6 4.65 4.975 7.725 5.4 1.825.25 3.3.55 3.3 1.85 0 1.1-1.1 1.725-2.8 1.725-2.15 0-3.375-.975-3.4-2.475h-4.95c0 3.7 3.25 6.275 8.15 6.275z" fill="#fff"/><path stroke="#fff" stroke-width="2" d="M153 1h38v38h-38z"/><path d="M165.425 29h14.025v-4.15h-8.925v-3.175h8.2V18.25h-8.2v-3h8.675V11.1h-13.775V29z" fill="#fff"/><path stroke="#fff" stroke-width="2" d="M191 1h38v38h-38z"/><path d="M202.425 29h5.275v-5.9h1.275l4.45 5.9h5.875l-5.275-6.3.2-.05c2.6-.475 4.5-2.525 4.5-5.45 0-3.65-2.9-6.1-7.275-6.1h-9.025V29zm5.275-9.325V14.9h2.825c1.675 0 2.925.9 2.925 2.375 0 1.5-1.25 2.4-2.925 2.4H207.7z" fill="#fff"/><path stroke="#fff" stroke-width="2" d="M229 1h38v38h-38z"/><path d="M244.525 29h8.225l5.3-17.9h-5.45l-3.825 14.025h-.25L244.65 11.1h-5.4l5.275 17.9z" fill="#fff"/><path stroke="#fff" stroke-width="2" d="M267 1h38v38h-38z"/><path d="M279.425 29h14.025v-4.15h-8.925v-3.175h8.2V18.25h-8.2v-3h8.675V11.1h-13.775V29z" fill="#fff"/><path fill-rule="evenodd" clip-rule="evenodd" d="M78 38H38v40h40V38zM58.5 52.133c.88-.785 2.706-2.133 4.875-2.133C66.477 50 69 52.514 69 55.606c0 1.936-1.774 3.698-1.85 3.773L58.5 68l-8.655-8.626c-.071-.07-1.845-1.832-1.845-3.768C48 52.514 50.523 50 53.625 50c2.169 0 3.995 1.348 4.875 2.133z" fill="#fff"/><path stroke="#fff" stroke-width="2" d="M77 77h190v58H77z"/><path d="M158.007 112.642h-6.233v-4.747h4.484v-3.097h-4.484v-4.013h6.233V97.42h-10.563v18.583h10.563v-3.361zM122.763 116.354c4.212 0 6.904-2.093 6.904-7.592V97.42h-4.33v11.335c0 2.436-.676 3.662-2.57 3.662-1.895 0-2.57-1.226-2.57-3.662V97.42h-4.339v11.346c0 5.495 2.696 7.588 6.905 7.588zM164.815 110.656c.428-.137.841-.275 1.23-.412l2.371 4.059c.676 1.054 1.284 1.696 2.41 1.696h3.364l-4.357-7.458c2.486-1.49 3.303-3.128 3.303-5.094 0-3.067-1.367-6.019-6.404-6.019l-6.251-.004V116h4.334v-5.343zm0-9.89h1.028c1.435 0 3.028.504 3.028 2.681 0 1.985-.577 3.009-4.052 4.166v-6.847h-.004zM202.814 97.012c-5.266 0-8.646 4.311-8.646 9.631 0 5.319 3.38 9.63 8.646 9.63 5.266 0 8.646-4.311 8.646-9.63.004-5.32-3.38-9.631-8.646-9.631zm0 15.546c-2.665 0-4.38-2.639-4.38-5.896 0-3.258 1.715-5.897 4.38-5.897 2.669 0 4.38 2.643 4.38 5.897 0 3.257-1.714 5.896-4.38 5.896zM106.633 112.814c-1.28.05-3.178-.397-5.431-1.585v3.83c1.341.867 3.93 1.383 6.149 1.291 3.918-.16 6.213-2.635 6.213-5.808 0-6.874-7.924-4.8-7.924-8.149 0-.883.722-1.994 2.566-2.07 1.844-.077 3.395.702 4.64 1.439v-3.68c-1.306-.654-2.792-1.18-5.629-1.066-4.052.168-6.217 3.032-6.217 5.72 0 6.737 7.79 4.632 7.79 8.245.004.974-.584 1.768-2.157 1.833zM243.954 97.336h-4.663l-5.285 8.233v-8.233h-4.334v18.574h4.334v-8.767l4.819 7.076c.768 1.122 1.283 1.691 2.414 1.691H245l-6.797-9.959 5.751-8.615zM190.044 106.073c1.562-.996 1.833-2.845 1.833-3.65 0-3.556-3.02-5.087-6.095-5.087h-6.579v18.574h7.607c4.162 0 6.221-2.512 6.221-5.38-.004-2.116-.982-3.731-2.987-4.457zm-6.511-5.743h1.791c1.822 0 2.345 1 2.345 2.283 0 1.093-.279 2.444-2.005 2.444h-2.131v-4.727zm2.437 12.438h-2.437v-4.961h2.311c1.497 0 2.715.34 2.715 2.341 0 1.997-1.115 2.62-2.589 2.62zM213.209 106.635c0 5.407 3.868 9.638 9.715 9.638 1.481 0 2.856-.221 4.261-1.08v-4.067c-1.516 1.019-2.997 1.34-4.265 1.34-2.918 0-5.194-2.104-5.194-5.831 0-3.727 2.276-5.832 5.194-5.832 1.268 0 2.749.321 4.265 1.345v-4.067c-1.405-.86-2.78-1.081-4.261-1.081-5.847-.004-9.715 4.231-9.715 9.635zM145.343 103.435c0-3.067-1.363-6.015-6.404-6.015h-6.251V116h4.334v-4.961l1.734-.687c5.048-1.868 6.587-4.258 6.587-6.916zm-6.587 3.551l-1.734.699v-6.927h1.024c1.436 0 3.028.504 3.028 2.677 0 1.592-.382 2.608-2.318 3.551z" fill="#fff"/></svg>