<svg width="306" height="78" fill="none" xmlns="http://www.w3.org/2000/svg"><path fill-rule="evenodd" clip-rule="evenodd" d="M40 0H0v40h40V0zM18.7 29h-5.25V11.1h8.3c4.7 0 7.625 2.5 7.625 6.35 0 3.85-2.95 6.35-7.675 6.35h-3V29zm0-14.1V20h2.45c1.775 0 2.95-1 2.95-2.55 0-1.55-1.175-2.55-2.95-2.55H18.7z" fill="#122675"/><path d="M51.425 29H56.7v-5.9h1.275l4.45 5.9H68.3l-5.275-6.3.2-.05c2.6-.475 4.5-2.525 4.5-5.45 0-3.65-2.9-6.1-7.275-6.1h-9.025V29zm5.275-9.325V14.9h2.825c1.675 0 2.925.9 2.925 2.375 0 1.5-1.25 2.4-2.925 2.4H56.7zM89.425 29h14.025v-4.15h-8.925v-3.175h8.2V18.25h-8.2v-3h8.675V11.1H89.425V29zM133.95 29.375c5 0 8.275-2.3 8.275-5.85 0-4.325-4.125-4.975-7.175-5.425-2.075-.3-3.85-.525-3.85-1.875 0-1 1-1.7 2.675-1.7 1.8 0 2.975.9 2.975 2.475h4.775c0-3.7-3.175-6.25-7.925-6.25-4.725 0-7.775 2.3-7.775 5.85 0 4.6 4.65 4.975 7.725 5.4 1.825.25 3.3.55 3.3 1.85 0 1.1-1.1 1.725-2.8 1.725-2.15 0-3.375-.975-3.4-2.475h-4.95c0 3.7 3.25 6.275 8.15 6.275zM165.425 29h14.025v-4.15h-8.925v-3.175h8.2V18.25h-8.2v-3h8.675V11.1h-13.775V29zM202.425 29h5.275v-5.9h1.275l4.45 5.9h5.875l-5.275-6.3.2-.05c2.6-.475 4.5-2.525 4.5-5.45 0-3.65-2.9-6.1-7.275-6.1h-9.025V29zm5.275-9.325V14.9h2.825c1.675 0 2.925.9 2.925 2.375 0 1.5-1.25 2.4-2.925 2.4H207.7zM244.525 29h8.225l5.3-17.9h-5.45l-3.825 14.025h-.25L244.65 11.1h-5.4l5.275 17.9zM279.425 29h14.025v-4.15h-8.925v-3.175h8.2V18.25h-8.2v-3h8.675V11.1h-13.775V29z" fill="#122675"/><path fill-rule="evenodd" clip-rule="evenodd" d="M40 2h36v36H40V2zm-2 36V0h268v40H78v38H38V38zm2 2v36h36V40H40zm38-2h36V2H78v36zM230 2h36v36h-36V2zm74 36h-36V2h36v36zm-76 0V2h-36v36h36zM154 2h36v36h-36V2zm-2 36V2h-36v36h36z" fill="#122675"/><path d="M63.375 50c-2.169 0-3.995 1.348-4.875 2.133-.88-.785-2.706-2.133-4.875-2.133C50.523 50 48 52.514 48 55.606c0 1.936 1.774 3.698 1.845 3.768L58.5 68l8.65-8.621c.076-.075 1.85-1.837 1.85-3.773C69 52.514 66.477 50 63.375 50z" fill="#122675"/><path fill-rule="evenodd" clip-rule="evenodd" d="M230 38H76v40h154V38zm-91.927 8.785c-1.141-.548-2.355-.762-3.614-.785-.125.01-.251.017-.377.024a8.896 8.896 0 00-.673.054 7.654 7.654 0 00-3.468 1.369c-.963.689-1.725 1.551-2.241 2.624-.616 1.287-.771 2.633-.516 4.03.333 1.843 1.296 3.276 2.853 4.308 1.296.858 2.742 1.214 4.28 1.236.685.01 1.36-.059 2.031-.2 1.515-.324 2.83-1.013 3.87-2.182 1.127-1.264 1.68-2.756 1.698-4.445a6.275 6.275 0 00-.201-1.62c-.534-2.03-1.752-3.505-3.642-4.413zm-3.776.61l.089-.003c1.314.018 2.492.338 3.518 1.095 1.146.85 1.853 1.99 2.132 3.382.315 1.547-.096 2.934-1.059 4.157a5.711 5.711 0 01-3.505 2.145c-2.866.557-5.641-1.218-6.357-3.906-.566-2.118.118-4.345 2.017-5.741a5.788 5.788 0 012.743-1.105c.149-.018.298-.021.422-.025zm20.895 11.351h-1.479c-.038 0-.078.002-.118.004-.122.006-.247.012-.343-.036-.088-.042-.148-.14-.206-.236-.024-.038-.047-.076-.072-.11l-.629-.853-.003-.004a802.474 802.474 0 01-2.316-3.15.314.314 0 00-.283-.142c-1.378.005-2.761.005-4.14.005h-.086c-.078-.005-.123.018-.114.11.003.036.002.074.001.113l-.001.036v4.103c.001.087.001.13-.02.151-.021.021-.063.02-.145.02l-.037-.001h-1.181c-.151 0-.151-.005-.155-.155V48.185l-.001-.069v-.001c-.001-.1-.001-.15.023-.174.024-.023.072-.023.165-.021h7.128c.753 0 1.47.17 2.118.562.753.46 1.173 1.14 1.291 2.008.073.529.051 1.045-.132 1.551-.219.598-.616 1.064-1.118 1.447-.374.283-.78.507-1.223.666-.089.034-.135.05-.144.08-.009.03.022.071.085.158l1.15 1.588.949 1.31.004.006.954 1.317a.664.664 0 00.078.132zm-6.859-5.846h2.478c.36 0 .716-.05 1.049-.191.484-.206.822-.544.972-1.055a2.23 2.23 0 00.046-1.027 1.478 1.478 0 00-.666-1.013 2.329 2.329 0 00-1.301-.392c-1.334-.007-2.671-.006-4.006-.005h-1.351c-.086 0-.128 0-.148.021-.018.02-.018.057-.017.129v3.41c-.009.091.027.132.119.128.033-.003.067-.002.1-.001h.05c.895-.004 1.785-.004 2.675-.004zm32.087 5.847c.032 0 .065-.003.104-.007l.033-.003-.011-.025a1.37 1.37 0 01-.058-.148l-1.519-2.971c-.458-.892-.914-1.784-1.37-2.675v-.002l-.002-.002-.001-.002v-.001l-.001-.001-.001-.002-.001-.002v-.001l-.001-.001-.001-.001c-.456-.892-.912-1.785-1.37-2.677a161.38 161.38 0 01-1.109-2.163c-.059-.119-.132-.155-.264-.155-.589.009-1.178.009-1.767 0-.155 0-.232.054-.296.182-.847 1.645-1.699 3.289-2.551 4.933v.001l-.001.001v.002h-.001v.002h-.001v.002h-.001v.001l-.001.002-.001.001v.001l-.001.001v.001l-.001.001v.002h-.001v.001l-.001.001-.009.017-2.669 5.162-.122.24h-.001l-.142.28h.599c.382-.001.765-.002 1.149.005.141.004.228-.037.278-.17.014-.034.032-.067.05-.1a212.61 212.61 0 001.178-2.34c.064-.129.132-.174.278-.174 2.072.004 4.14.004 6.212 0 .146 0 .214.054.278.178.226.444.456.888.685 1.33l.001.002.001.001v.001c.197.378.393.757.586 1.135.05.105.11.146.228.141.404-.007.808-.006 1.212-.005h.404zm-4.945-6.226l.007.015 1.013 2.012-.067.003c-.056.004-.101.006-.147.006h-4.678c-.251 0-.251-.005-.137-.228l.689-1.36.005-.01a1359.26 1359.26 0 001.688-3.33c.023-.042.046-.083.091-.156a1122.94 1122.94 0 011.532 3.04l.002.004.002.004zm-18.467.8V48.105c-.001-.096-.001-.142.022-.164.021-.02.061-.019.138-.017h1.679c2.524-.004 5.043-.004 7.567-.004H166.496c.102-.002.151-.002.174.022.022.023.021.067.019.151l-.001.101v.753c0 .16-.005.16-.169.164h-7.66c-.096-.001-.143-.002-.166.022-.022.022-.021.067-.02.154l.001.025V52.316l-.001.072c-.001.08-.002.122.019.144.022.023.069.022.166.022h5.609c.135 0 .194 0 .219.028.019.022.018.062.017.132l-.001.039v.065c.004.186.003.374.001.56l-.001.28c0 .141-.004.141-.145.15h-.001c-.036.003-.074.002-.113.001H158.852c-.094-.001-.139-.001-.16.021-.02.021-.02.062-.019.14v.001l.001.066v3.3l.001.027c.001.02.002.04-.001.059-.009.091.027.132.123.123a1.05 1.05 0 01.114-.001l.059.001h7.439c.039 0 .073 0 .101-.002.075-.002.117-.003.14.017.029.025.029.084.029.217V58.605c0 .137-.005.137-.146.141h-9.274l-.083.001c-.082.002-.125.002-.147-.019-.023-.022-.022-.069-.021-.166v-5.241zm-40.982-5.108v5.112c0 1.725 0 3.45.004 5.17l.001.091c-.001.08-.001.12.019.14.022.023.066.022.156.02h9.518a.599.599 0 01.086 0c.092.01.124-.027.124-.123v-.885c0-.16-.005-.16-.169-.165H117.833l-.086.001c-.089.002-.135.002-.158-.02-.023-.023-.022-.07-.021-.166V48.063c-.004-.142-.004-.146-.146-.146h-1.25c-.141 0-.142.004-.146.145v.151zm65.736 5.12V48.11c-.001-.1-.001-.148.023-.172.023-.022.068-.022.156-.02h1.208c.141 0 .142.004.146.14V57.406c-.002.09-.002.133.02.155.021.021.064.02.149.019h7.887l.068-.002c.089-.001.135-.002.158.02.023.023.023.07.023.164l.001.077v.776c0 .128-.004.128-.132.132h-9.438l-.1.002c-.08.002-.122.003-.144-.018-.023-.022-.022-.069-.021-.166v-.082c-.004-1.716-.004-3.432-.004-5.148zM115.15 70.655l.123-.074.016.034.009.019c.038.082.079.17.135.249.068.11.114.118.228.054l.101-.062c.044-.029.09-.058.136-.084.073-.036.092-.086.046-.155-.183-.267-.183-.565-.183-.868v-4.138c-.004-.15-.022-.17-.164-.137-.051.01-.099.023-.147.037l-.063.018h-.003c-.198.05-.202.051-.202.255V67.39a5.761 5.761 0 01-.191-.064 2.399 2.399 0 00-.38-.109c-.378-.064-.748-.041-1.049.242a1.443 1.443 0 00-.379.616 3.386 3.386 0 00-.11 1.68c.051.291.147.57.324.812.16.219.366.36.639.406.27.041.53-.014.772-.128.117-.053.229-.122.342-.19zm.027-2.58v.927l-.001.247c-.002.205-.004.41.006.616.004.128-.041.21-.146.283l-.038.026c-.165.115-.329.229-.528.28-.319.082-.575-.032-.694-.343a1.603 1.603 0 01-.114-.479c-.032-.415-.045-.835.032-1.246a1.77 1.77 0 01.128-.383.511.511 0 01.443-.297c.292-.027.565.06.826.187.082.041.086.105.086.183zm30.317.238v-2.369c.004-.16.014-.168.173-.168h.28c.373-.002.749-.002 1.121.009.165.004.329.04.484.096.292.1.507.3.607.597a1.976 1.976 0 01-.064 1.488c-.132.297-.36.493-.662.616a1.797 1.797 0 01-.693.133h-.165a9.235 9.235 0 01-.333 0c-.096-.005-.123.036-.123.127a9 9 0 01.001.329l-.001.164v1.36c0 .165-.009.174-.169.178-.1.005-.201.005-.301 0-.146-.004-.151-.013-.16-.164v-.15c.005-.749.005-1.498.005-2.246zm.63-1.072v.84c0 .063.004.113.086.109.072-.002.144 0 .216 0 .144.002.288.004.428-.014.452-.05.689-.278.757-.716.028-.183.028-.375.01-.557-.037-.329-.224-.511-.548-.575a2.202 2.202 0 00-.297-.032c-.106-.003-.209-.002-.314-.001h-.195c-.07 0-.107 0-.126.018-.021.02-.02.064-.017.155v.773zM97 66.035v4.417c0 .076.007.15.014.225a3 3 0 01.013.181c.052.002.103.006.154.009.076.005.153.01.23.01.196 0 .196-.005.196-.21v-1.772c0-.086-.001-.129.02-.15.02-.021.062-.023.143-.025h.02l.036-.002.168-.004a4.24 4.24 0 00.667-.05c.434-.078.772-.32.945-.735.196-.466.21-.954.055-1.433a.929.929 0 00-.635-.626 1.922 1.922 0 00-.483-.086c-.302-.013-.603-.013-.904-.013l-.452-.001a.55.55 0 00-.043.002l-.044.003c-.068 0-.1.04-.1.11v.15zm.612 2.049V66.409c-.005-.064.009-.114.09-.11l.24.006c.212.004.425.008.637.03.329.033.493.27.539.558.045.255.027.502-.046.744-.087.282-.279.47-.575.51-.18.026-.363.032-.546.037-.081.003-.162.005-.244.01-.082.004-.095-.042-.095-.11zm28.696-20.167c-.064.123-.109.21-.16.296l-.341.63c-.499.919-.999 1.84-1.493 2.761-.064.119-.128.164-.265.16-.235-.007-.471-.006-.714-.005h-.249c.012-.03.021-.057.029-.083.012-.035.022-.066.035-.095.237-.575.472-1.15.707-1.726l.003-.006.709-1.731.021-.05.02-.05c.023-.065.06-.106.142-.106.507.005 1.009.005 1.556.005zm3.51 20.185a2.425 2.425 0 00-.169.995c-.009.41.05.79.223 1.145.165.347.425.59.804.694.292.078.584.073.871-.01.502-.145.794-.496.945-.976.187-.598.183-1.2-.005-1.798-.118-.374-.342-.675-.716-.844a1.437 1.437 0 00-1.953.794zm2.175.861c0 .03 0 .06.002.084-.01.37-.023.689-.151.985-.137.329-.393.498-.739.484-.288-.014-.511-.141-.639-.401a1.743 1.743 0 01-.142-.425 3.133 3.133 0 01.014-1.3c.023-.096.055-.197.1-.284.133-.273.347-.424.662-.433.324-.014.561.128.698.41.082.179.128.375.169.571.024.109.025.22.026.309zm55.679.098c-.014.401-.069.785-.242 1.15-.301.616-.89.84-1.502.767-.547-.064-.903-.38-1.081-.89a2.888 2.888 0 01-.018-1.903c.168-.516.506-.872 1.054-.963.766-.128 1.373.141 1.643.93.036.115.068.233.086.352.021.143.034.283.047.424l.008.078.005.055zm-2.373.014h.027l-.002.114c-.002.076-.004.152.002.228.023.25.064.497.192.72.292.503 1.031.503 1.314-.004.059-.105.105-.223.128-.342.096-.424.109-.853.027-1.282a1.795 1.795 0 00-.182-.502c-.26-.475-1.009-.461-1.26-.014a1.503 1.503 0 00-.173.438c-.029.148-.042.299-.055.447-.006.066-.011.132-.018.197zm-26.972 1.085c.155-.347.201-.717.21-1.054-.004-.411-.05-.78-.21-1.128a1.262 1.262 0 00-.68-.684c-.812-.329-1.67.055-1.944.885a2.978 2.978 0 00-.009 1.84c.114.355.315.643.652.82a1.451 1.451 0 001.981-.68zm-.431-1.192a5.086 5.086 0 00-.002.124c.018.315-.005.63-.124.94-.141.338-.383.498-.73.493a.699.699 0 01-.648-.393 1.561 1.561 0 01-.146-.424 3.077 3.077 0 01.014-1.323c.023-.105.068-.206.114-.302.132-.269.351-.401.652-.41.306-.01.525.123.676.378.123.206.173.439.192.676.006.079.004.16.002.241zm-47.867.097c.005.36-.045.712-.182 1.05-.374.917-1.337 1.004-1.917.762-.315-.128-.525-.37-.662-.67-.182-.412-.228-.84-.2-1.283.018-.338.082-.667.237-.977.242-.48.634-.726 1.168-.748a2 2 0 01.406.018c.443.077.753.333.941.735.164.356.214.73.209 1.113zm-2.332.01l-.002.114c-.002.078-.004.155.002.228.023.25.069.497.197.72.15.265.388.375.68.375a.7.7 0 00.657-.41c.045-.097.082-.202.105-.307.1-.424.109-.853.027-1.282a1.85 1.85 0 00-.182-.502c-.247-.461-1-.48-1.274 0-.05.087-.091.178-.123.274-.087.26-.1.525-.087.79zm90.809 1.525l.043-.034.057-.045c.029.057.055.11.079.162.039.08.074.154.113.226.036.073.096.1.178.045.082-.059.169-.11.256-.16.073-.04.091-.09.05-.16-.197-.31-.197-.652-.197-.999l.002-.434a33.3 33.3 0 00-.006-1.094c-.014-.48-.26-.772-.735-.872-.433-.091-.858-.027-1.269.119-.341.122-.334.14-.212.458l.016.044c.028.077.078.09.151.059.073-.032.146-.064.219-.091.269-.1.543-.142.826-.1.219.031.374.145.415.373.014.08.018.162.022.244.002.054.005.108.01.163.014.11-.045.123-.137.132a6.814 6.814 0 00-.684.082 1.532 1.532 0 00-.689.288c-.42.315-.502.753-.411 1.232.082.433.347.675.785.74.342.05.652-.046.935-.238.063-.042.122-.09.183-.14zm.018-1.412v.411c0 .06 0 .114.005.173 0 .152 0 .227-.03.288-.029.06-.088.106-.203.196-.151.114-.31.21-.497.247a.515.515 0 01-.566-.26.68.68 0 01.269-.945c.287-.165.611-.183.935-.201.064-.005.087.032.087.091zm-77.4 1.388l-.058.036a5.105 5.105 0 01-.325.196 1.455 1.455 0 01-1.146.11.74.74 0 01-.552-.626 2.55 2.55 0 01-.041-.428c-.003-.518-.002-1.035-.001-1.552l.001-.776-.001-.03c0-.042-.001-.084.01-.12.009-.037.041-.083.073-.092.123-.04.246-.068.374-.096.082-.018.119.023.119.105v2.456c0 .064 0 .127.004.191.032.379.315.593.689.511.242-.05.457-.168.662-.3.069-.046.087-.106.087-.183-.003-.198-.002-.393-.001-.59v-.001l.001-.295V67.5c0-.187 0-.191.173-.237l.06-.016c.192-.052.276-.075.312-.043.027.025.026.082.023.184-.001.045-.003.1-.002.163.004.753.004 1.506 0 2.263 0 .279.027.543.178.785.073.119.064.128-.05.201-.039.025-.079.05-.119.073l-.119.073c-.082.055-.141.023-.182-.045-.046-.075-.086-.157-.13-.245l-.023-.047-.016-.032zm70.42-2.985l-.039.027-.064.041a18.65 18.65 0 01-.141-.397c-.032-.068-.087-.086-.16-.045a5.469 5.469 0 01-.283.155c-.077.04-.1.087-.055.173.096.183.11.379.11.584-.003.545-.002 1.092-.001 1.638l.001.818c0 .059 0 .114.004.173 0 .069.032.11.105.11H191.249c.12 0 .182 0 .213-.03.032-.032.031-.097.03-.23v-.092c0-.735 0-1.465-.005-2.2-.005-.127.027-.219.137-.287.047-.029.092-.06.137-.091a1.103 1.103 0 01.748-.237c.242.013.37.123.416.36.018.096.027.196.027.297v2.113c0 .221 0 .332.055.382.055.05.164.04.383.02h.023c.068-.005.105-.033.105-.106v-.11l.001-.817c.001-.546.002-1.093-.001-1.638 0-.123-.014-.246-.037-.365-.077-.406-.31-.607-.721-.639a1.646 1.646 0 00-1.04.279c-.06.037-.118.076-.176.114zm-29.206 1.734v1.378c0 .165-.004.17-.168.17h-.16c-.122.002-.182.002-.211-.027-.029-.03-.029-.088-.027-.204l.001-.149c-.003-.545-.002-1.087-.001-1.631v-.007l.001-.821v-.128c-.003-.067-.004-.1-.021-.117s-.049-.018-.112-.02a3.805 3.805 0 00-.324 0c-.082.004-.118-.032-.123-.114v-.065c-.002-.178-.003-.252.033-.282.026-.023.072-.021.15-.02l.123.002h.089c.095 0 .141-.001.163-.024.02-.021.02-.062.02-.14 0-.032 0-.07.002-.115l.004-.179c.005-.198.01-.4.041-.592.073-.452.32-.684.767-.753.319-.05.63.01.922.137.132.06.141.082.082.214a4.345 4.345 0 00-.048.117c-.035.089-.054.139-.091.159-.047.025-.122 0-.293-.06l-.006-.001a1.33 1.33 0 00-.379-.073c-.233-.005-.347.087-.397.31-.027.118-.032.24-.036.358l-.001.003c-.002.087-.002.172-.002.258 0 .086 0 .173-.002.262 0 .082.027.114.109.114.168-.003.335-.002.502 0h.402c.132.005.151.032.119.155-.041.16-.062.24-.113.28-.052.04-.135.04-.303.04h-.584c-.128 0-.132.004-.132.132.004.484.004.959.004 1.433zm-37.184-1.397v1.114l-.002.37c-.003.244-.005.487.002.73.009.465.246.735.693.821.311.064.598-.013.886-.11.31-.1.324-.136.223-.442-.045-.141-.059-.146-.196-.096l-.099.036h-.001c-.122.045-.244.09-.37.115-.379.068-.571-.082-.575-.465-.009-.44-.008-.879-.008-1.318l-.001-.791c0-.087.027-.132.123-.123a.834.834 0 00.1 0H126.638c.061 0 .128 0 .154-.073.036-.1.068-.201.096-.306.018-.064-.023-.096-.082-.096H126.385c-.181-.002-.364-.003-.547 0-.087 0-.132-.027-.123-.123.003-.04.002-.077.001-.115l-.001-.058-.001-.27c-.001-.182-.002-.364.001-.547.004-.092-.032-.119-.114-.1-.041.01-.082.023-.123.036a4.838 4.838 0 01-.124.036l-.004.001c-.197.059-.201.06-.201.26v.602.109c.001.082.001.125-.02.147-.023.024-.071.024-.173.023h-.081c-.36 0-.365.008-.328.373.004.073.032.1.105.1.118-.004.232-.004.346 0h.001c.15.005.155.005.155.16zm0 1.114v.005h.003l-.003-.005zm51.337-1.848c.305.004.588.082.858.205.132.06.132.082.077.215a.405.405 0 01-.026.057l-.01.02c-.099.21-.101.21-.317.128l-.012-.005c-.233-.09-.475-.173-.735-.104-.374.09-.511.502-.251.789.096.11.233.187.365.26.104.058.211.109.318.16.114.054.227.108.335.169.219.123.388.296.461.543.178.593-.164 1.177-.776 1.319-.484.11-.94-.01-1.378-.201-.142-.06-.151-.1-.087-.233l.049-.11c.044-.102.065-.15.099-.163.031-.011.074.008.154.045l.113.05c.256.11.516.174.794.15.325-.027.525-.264.489-.583a.42.42 0 00-.192-.324 4.774 4.774 0 00-.366-.212l-.081-.044a8.691 8.691 0 00-.209-.11c-.147-.077-.294-.153-.43-.246-.292-.2-.397-.502-.356-.849a1.02 1.02 0 01.94-.913c.064-.009.123-.013.174-.013zm-6.17 3.578c.305.132.625.196 1.022.228.038-.01.083-.017.134-.026.101-.018.22-.04.336-.08a.953.953 0 00.657-.83c.05-.41-.109-.725-.452-.953a1.349 1.349 0 00-.223-.128c-.059-.03-.119-.056-.178-.082-.079-.034-.158-.068-.233-.11l-.02-.012-.056-.032a1.636 1.636 0 01-.348-.243c-.27-.279-.133-.694.237-.794.246-.064.47 0 .694.086l.015.006c.136.051.205.077.254.056.049-.02.079-.09.139-.229l.002-.006c.06-.142.055-.174-.091-.228a4.331 4.331 0 00-.662-.188 1.17 1.17 0 00-.771.128c-.634.338-.716 1.287-.11 1.666.114.072.238.136.36.2l.067.036.032.017.048.025c.045.024.091.046.136.067.097.047.194.093.284.152.1.069.196.156.256.256.164.283-.023.69-.439.73a1.654 1.654 0 01-.798-.141l-.012-.005c-.294-.119-.296-.12-.417.187l-.003.005-.002.005-.006.01a.115.115 0 00-.008.017c-.031.064-.009.11.046.146.037.023.069.045.11.064zm-33.594-3.578c.283.009.552.082.812.196.142.064.151.091.092.228l-.005.011c-.059.137-.088.206-.138.227-.05.022-.121-.005-.264-.058l-.004-.002c-.224-.082-.447-.141-.694-.091-.411.091-.47.566-.242.794.096.096.21.169.329.237.075.043.153.078.232.112a4.524 4.524 0 01.498.254c.374.228.511.57.447.994-.059.406-.301.671-.689.808-.369.132-.735.082-1.1-.018a2.796 2.796 0 01-.424-.16c-.11-.05-.114-.096-.069-.21h.001c.061-.156.092-.233.146-.256.054-.023.13.008.282.069.233.096.475.169.731.146a.777.777 0 00.305-.082.47.47 0 00.137-.735 1.383 1.383 0 00-.36-.265 4.394 4.394 0 00-.297-.15c-.1-.048-.201-.096-.296-.15a1.574 1.574 0 01-.356-.27c-.361-.374-.297-1.164.278-1.483.21-.105.42-.155.648-.146zm69.898 3.569c.31.137.639.205 1.013.233l.047-.006.052-.007c.078-.009.167-.019.252-.038.42-.114.712-.365.79-.812.082-.47-.087-.808-.516-1.063-.055-.032-.109-.064-.169-.092l-.138-.061c-.092-.041-.184-.082-.272-.13a2.317 2.317 0 01-.379-.247c-.155-.132-.192-.315-.142-.51.05-.188.187-.284.37-.325.242-.06.465.014.689.096.138.053.207.08.255.059.048-.02.077-.085.133-.214a.147.147 0 00.018-.041c.046-.124.046-.155-.077-.201a4.037 4.037 0 00-.68-.2c-.292-.056-.571 0-.831.154-.543.329-.602 1.114-.237 1.479.096.096.205.178.324.246.107.061.219.115.33.168h.001c.096.046.192.092.285.143.119.064.237.137.333.228a.47.47 0 01.059.63.53.53 0 01-.42.228 1.678 1.678 0 01-.816-.16c-.259-.113-.261-.11-.373.155l-.002.005c-.073.169-.064.21.101.283zM103.38 67.778l.047-.054c.067-.079.127-.148.19-.215.197-.201.42-.352.722-.315a.444.444 0 00.043.004l.043.005c.187.04.21.082.137.26l-.01.025c-.015.038-.03.078-.049.112a.296.296 0 00-.013.029l-.007.015-.005.012c-.02.05-.041.1-.08.126-.025.016-.072.004-.118-.009l-.06-.013c-.105-.019-.21-.005-.283.063a7.019 7.019 0 00-.447.461c-.038.042-.037.121-.037.187v.019c-.003.45-.002.9-.001 1.35l.001.676v.087c0 .265 0 .265-.278.265h-.071c-.118 0-.176.001-.205-.028-.027-.028-.027-.084-.026-.195l.001-.079-.001-.748c-.001-.497-.002-.994.001-1.492 0-.256-.028-.498-.16-.726-.078-.132-.064-.16.064-.247.064-.045.132-.086.201-.123.105-.06.155-.055.205.055.044.094.08.19.118.29.024.065.049.133.078.203zm48.616-.126l-.059.064-.032.034-.031.033a61.056 61.056 0 00-.042-.126 2.717 2.717 0 00-.109-.299c-.1-.219-.155-.182-.287-.091l-.021.013-.037.022-.088.056c-.142.096-.151.105-.069.26.124.22.16.457.16.703-.004.717-.004 1.438 0 2.154.001.072-.001.132-.002.18-.003.105-.005.16.022.189.03.031.093.03.227.029H151.796c.137 0 .146-.014.151-.151v-.128l-.001-.699v-.003c-.001-.464-.002-.927.001-1.388 0-.069 0-.16.037-.206.132-.155.273-.31.424-.451a.357.357 0 01.356-.074c.055.015.112.03.146.01.035-.02.055-.07.074-.12a.808.808 0 01.026-.063c.028-.055.051-.105.069-.16.055-.146.036-.187-.119-.223a.754.754 0 00-.735.2c-.08.075-.153.154-.229.235zm29.57 1.468V70.758c0 .082-.046.119-.124.119h-.346c-.073 0-.105-.041-.11-.105-.005-.06-.005-.114-.005-.174V67.97c-.002-.097-.003-.145-.028-.169-.023-.023-.069-.025-.159-.027h-.339c-.034.001-.07.002-.09-.018-.072-.076-.062-.162-.052-.249a.569.569 0 00.007-.116c-.005-.073.059-.091.123-.091H181.369c.169.004.187.018.187.187.004.205.003.409.002.613v.003l-.001.005v.146l-.001.16v.707h.01zm21.768 1.428v-1.465c0-.525 0-1.045-.004-1.57-.005-.205-.019-.219-.224-.219h-.79c-.109-.002-.166-.003-.196.025-.033.031-.033.098-.032.24v.077c0 .092.037.133.128.133h.137c.091.002.183.003.274 0 .096-.005.132.032.128.123a.84.84 0 00-.001.1l.001.05-.001.809c-.001.54-.002 1.082.001 1.624l-.002.146c-.003.126-.004.19.027.221.032.032.096.032.227.03h.149c.16 0 .169-.014.178-.173v-.151zm-36.331-1.438v1.57c0 .188-.005.192-.192.192h-.141c-.122.001-.182.002-.21-.028-.027-.028-.026-.083-.024-.19l.001-.156c-.003-.543-.002-1.085-.001-1.63v-.015l.001-.81v-.017l-.001-.01v-.024c-.001-.033-.002-.067.001-.1.004-.091-.028-.128-.123-.123-.069.002-.137 0-.206 0a4.003 4.003 0 00-.205 0c-.101.004-.146-.041-.142-.142v-.04c-.009-.288-.004-.293.274-.293h.712c.129 0 .193 0 .225.032.031.031.031.093.031.215v1.57zm-6.17-21.577h-.001v-.001h.001zm.009-.012l-.009.012-.014.01.01-.014.003.003-.004-.008.014-.003zm0 0l.051-.07c.043-.057.086-.116.136-.17.305-.341.611-.684.917-1.03.055-.064.11-.1.196-.1.826.004 1.652.004 2.478.004.011 0 .021.003.037.007a.49.49 0 00.041.01c-.246.089-.486.173-.723.257l-.797.282-2.145.767c-.047.017-.099.026-.151.036l-.04.007zm6.289 18.463a.455.455 0 01-.461.466.453.453 0 01-.452-.452.458.458 0 01.461-.47c.246.004.447.21.452.456zm14.11.462a.463.463 0 00.452-.457.48.48 0 00-.447-.465.464.464 0 00-.47.46.452.452 0 00.465.462zm22.217-.462a.462.462 0 01-.47.461.463.463 0 01-.452-.456.47.47 0 01.447-.466.48.48 0 01.475.461z" fill="#122675"/></svg>