<svg fill="none" height="78" width="306" xmlns="http://www.w3.org/2000/svg"><path clip-rule="evenodd" d="M40 0H0v40h40zM18.7 29h-5.25V11.1h8.3c4.7 0 7.625 2.5 7.625 6.35s-2.95 6.35-7.675 6.35h-3zm0-14.1V20h2.45c1.775 0 2.95-1 2.95-2.55s-1.175-2.55-2.95-2.55z" fill="#122675" fill-rule="evenodd"/><path d="M39 1h38v38H39z" stroke="#122675" stroke-width="2"/><path d="M51.425 29H56.7v-5.9h1.275l4.45 5.9H68.3l-5.275-6.3.2-.05c2.6-.475 4.5-2.525 4.5-5.45 0-3.65-2.9-6.1-7.275-6.1h-9.025zm5.275-9.325V14.9h2.825c1.675 0 2.925.9 2.925 2.375 0 1.5-1.25 2.4-2.925 2.4z" fill="#122675"/><path d="M77 1h38v38H77z" stroke="#122675" stroke-width="2"/><path d="M89.425 29h14.025v-4.15h-8.925v-3.175h8.2V18.25h-8.2v-3h8.675V11.1H89.425z" fill="#122675"/><path d="M115 1h38v38h-38z" stroke="#122675" stroke-width="2"/><path d="M133.95 29.375c5 0 8.275-2.3 8.275-5.85 0-4.325-4.125-4.975-7.175-5.425-2.075-.3-3.85-.525-3.85-1.875 0-1 1-1.7 2.675-1.7 1.8 0 2.975.9 2.975 2.475h4.775c0-3.7-3.175-6.25-7.925-6.25-4.725 0-7.775 2.3-7.775 5.85 0 4.6 4.65 4.975 7.725 5.4 1.825.25 3.3.55 3.3 1.85 0 1.1-1.1 1.725-2.8 1.725-2.15 0-3.375-.975-3.4-2.475h-4.95c0 3.7 3.25 6.275 8.15 6.275z" fill="#122675"/><path d="M153 1h38v38h-38z" stroke="#122675" stroke-width="2"/><path d="M165.425 29h14.025v-4.15h-8.925v-3.175h8.2V18.25h-8.2v-3h8.675V11.1h-13.775z" fill="#122675"/><path d="M191 1h38v38h-38z" stroke="#122675" stroke-width="2"/><path d="M202.425 29h5.275v-5.9h1.275l4.45 5.9h5.875l-5.275-6.3.2-.05c2.6-.475 4.5-2.525 4.5-5.45 0-3.65-2.9-6.1-7.275-6.1h-9.025zm5.275-9.325V14.9h2.825c1.675 0 2.925.9 2.925 2.375 0 1.5-1.25 2.4-2.925 2.4z" fill="#122675"/><path d="M229 1h38v38h-38z" stroke="#122675" stroke-width="2"/><path d="M244.525 29h8.225l5.3-17.9h-5.45l-3.825 14.025h-.25L244.65 11.1h-5.4z" fill="#122675"/><path d="M267 1h38v38h-38z" stroke="#122675" stroke-width="2"/><path d="M279.425 29h14.025v-4.15h-8.925v-3.175h8.2V18.25h-8.2v-3h8.675V11.1h-13.775z" fill="#122675"/><path d="M39 39h38v38H39z" stroke="#122675" stroke-width="2"/><g fill="#122675"><path d="M63.375 50c-2.169 0-3.995 1.348-4.875 2.133-.88-.785-2.706-2.133-4.875-2.133C50.523 50 48 52.514 48 55.606c0 1.936 1.774 3.698 1.845 3.768L58.5 68l8.65-8.621c.076-.075 1.85-1.837 1.85-3.773C69 52.514 66.477 50 63.375 50z"/><path clip-rule="evenodd" d="M76 38h116v40H76zm64.122 27.789h12.838V64.22h-10.637v-5.018h7.99v-1.587h-7.99v-4.622h10.637V51.43h-12.838zm4.934-14.726l1.738-1.953h3.718zm29.456 13.158V51.43h-2.007V65.79h12.978V64.22zm-20.534 1.568l7.301-14.358h2.81l7.306 14.358h-2.442l-1.884-3.716h-8.755l-1.868 3.716zm8.7-12.374l-3.44 6.858h6.92zm-29.522 6.37c3.29-.878 3.609-3.325 3.593-4.2-.197-2.565-1.925-4.154-5.03-4.154h-9.049V65.79h2.062v-6.023h5.892l4.334 6.023h2.6s-3.119-4.054-4.402-6.004zm-1.719-1.715h-6.705v-4.94h6.939c1.597 0 2.496.746 2.82 1.694.214.65.076 1.502-.278 2.082-.58.96-1.681 1.164-2.776 1.164zm-30.957.005c0-4.97 3.969-9.075 9.792-9.075 5.769 0 9.787 4.106 9.787 9.075 0 5.284-4.382 8.925-9.787 8.925-5.407 0-9.792-3.693-9.792-8.925zm2.374.005c0 3.9 3.32 7.138 7.349 7.138 4.027 0 7.502-3.238 7.502-7.138a7.286 7.286 0 00-7.346-7.287c-4.342 0-7.505 3.392-7.505 7.287zm-7.57-1.57h1.49l2.701-5.079h-2.174zm-7.276-5.079v12.79h10.97v1.568H86V51.43z" fill-rule="evenodd"/></g></svg>