<svg width="306" height="136" fill="none" xmlns="http://www.w3.org/2000/svg"><path stroke="#122675" stroke-width="2" d="M1 1h38v38H1z"/><path d="M13.45 29h5.25v-5.2h3c4.725 0 7.675-2.5 7.675-6.35 0-3.85-2.925-6.35-7.625-6.35h-8.3V29zm5.25-9v-5.1h2.45c1.775 0 2.95 1 2.95 2.55C24.1 19 22.925 20 21.15 20H18.7z" fill="#122675"/><path stroke="#122675" stroke-width="2" d="M39 1h38v38H39z"/><path d="M51.425 29H56.7v-5.9h1.275l4.45 5.9H68.3l-5.275-6.3.2-.05c2.6-.475 4.5-2.525 4.5-5.45 0-3.65-2.9-6.1-7.275-6.1h-9.025V29zm5.275-9.325V14.9h2.825c1.675 0 2.925.9 2.925 2.375 0 1.5-1.25 2.4-2.925 2.4H56.7z" fill="#122675"/><path stroke="#122675" stroke-width="2" d="M77 1h38v38H77z"/><path d="M89.425 29h14.025v-4.15h-8.925v-3.175h8.2V18.25h-8.2v-3h8.675V11.1H89.425V29z" fill="#122675"/><path stroke="#122675" stroke-width="2" d="M115 1h38v38h-38z"/><path d="M133.95 29.375c5 0 8.275-2.3 8.275-5.85 0-4.325-4.125-4.975-7.175-5.425-2.075-.3-3.85-.525-3.85-1.875 0-1 1-1.7 2.675-1.7 1.8 0 2.975.9 2.975 2.475h4.775c0-3.7-3.175-6.25-7.925-6.25-4.725 0-7.775 2.3-7.775 5.85 0 4.6 4.65 4.975 7.725 5.4 1.825.25 3.3.55 3.3 1.85 0 1.1-1.1 1.725-2.8 1.725-2.15 0-3.375-.975-3.4-2.475h-4.95c0 3.7 3.25 6.275 8.15 6.275z" fill="#122675"/><path stroke="#122675" stroke-width="2" d="M153 1h38v38h-38z"/><path d="M165.425 29h14.025v-4.15h-8.925v-3.175h8.2V18.25h-8.2v-3h8.675V11.1h-13.775V29z" fill="#122675"/><path stroke="#122675" stroke-width="2" d="M191 1h38v38h-38z"/><path d="M202.425 29h5.275v-5.9h1.275l4.45 5.9h5.875l-5.275-6.3.2-.05c2.6-.475 4.5-2.525 4.5-5.45 0-3.65-2.9-6.1-7.275-6.1h-9.025V29zm5.275-9.325V14.9h2.825c1.675 0 2.925.9 2.925 2.375 0 1.5-1.25 2.4-2.925 2.4H207.7z" fill="#122675"/><path stroke="#122675" stroke-width="2" d="M229 1h38v38h-38z"/><path d="M244.525 29h8.225l5.3-17.9h-5.45l-3.825 14.025h-.25L244.65 11.1h-5.4l5.275 17.9z" fill="#122675"/><path stroke="#122675" stroke-width="2" d="M267 1h38v38h-38z"/><path d="M279.425 29h14.025v-4.15h-8.925v-3.175h8.2V18.25h-8.2v-3h8.675V11.1h-13.775V29z" fill="#122675"/><path fill-rule="evenodd" clip-rule="evenodd" d="M78 38H38v40h40V38zM58.5 52.133c.88-.785 2.706-2.133 4.875-2.133C66.477 50 69 52.514 69 55.606c0 1.936-1.774 3.698-1.85 3.773L58.5 68l-8.655-8.626c-.071-.07-1.845-1.832-1.845-3.768C48 52.514 50.523 50 53.625 50c2.169 0 3.995 1.348 4.875 2.133z" fill="#122675"/><path stroke="#122675" stroke-width="2" d="M77 77h190v58H77z"/><g clip-path="url(#prefix__clip0)" fill-rule="evenodd" clip-rule="evenodd" fill="#122675"><path d="M143.625 87c1.905.034 3.74.359 5.464 1.187 2.856 1.373 4.698 3.6 5.506 6.67.207.801.31 1.622.303 2.45-.028 2.552-.862 4.808-2.566 6.719-1.573 1.766-3.56 2.808-5.85 3.298a13.91 13.91 0 01-3.07.303c-2.325-.034-4.512-.572-6.471-1.869-2.353-1.559-3.809-3.726-4.312-6.513-.387-2.11-.152-4.146.779-6.091.78-1.621 1.932-2.925 3.388-3.967a11.576 11.576 0 015.243-2.07c.524-.069 1.062-.076 1.586-.117zm-.11 2.104c-.207.007-.49.007-.773.041a8.755 8.755 0 00-4.146 1.67c-2.87 2.111-3.905 5.478-3.049 8.679 1.083 4.063 5.278 6.747 9.61 5.905 2.159-.421 3.939-1.504 5.298-3.242 1.456-1.849 2.077-3.946 1.601-6.285-.421-2.104-1.49-3.829-3.222-5.112-1.552-1.145-3.332-1.628-5.319-1.656zM174.967 106.268h-2.236c-.234 0-.503.049-.696-.048-.187-.09-.29-.345-.421-.524-1.49-2.022-2.981-4.036-4.457-6.057a.473.473 0 00-.428-.214c-2.083.007-4.173.007-6.257.007h-.131c-.117-.007-.186.027-.172.165.006.083 0 .173 0 .262v6.064c0 .407.041.359-.366.359h-1.725c-.227 0-.227-.007-.234-.234v-.166-15.578c0-.448-.042-.4.4-.4h10.658c1.139 0 2.222.256 3.202.849 1.138.697 1.773 1.725 1.952 3.035.11.8.076 1.58-.2 2.346-.331.904-.932 1.607-1.69 2.187a6.982 6.982 0 01-1.849 1.007c-.276.104-.276.104-.09.359l1.739 2.401 2.883 3.98c.014.042.049.097.118.2zm-10.369-8.837h3.746c.545 0 1.083-.076 1.586-.29.732-.31 1.242-.82 1.47-1.593a3.37 3.37 0 00.069-1.553 2.236 2.236 0 00-1.007-1.531 3.523 3.523 0 00-1.967-.593c-2.69-.014-5.388-.007-8.078-.007-.297 0-.269-.007-.269.296v5.084c-.014.139.041.2.179.194.076-.007.152 0 .228 0 1.352-.007 2.697-.007 4.043-.007zM213.31 106.255c-.083.007-.145.013-.207.013-.814 0-1.628-.006-2.442.007-.179.007-.269-.055-.345-.214-.635-1.241-1.29-2.483-1.925-3.732-.096-.186-.2-.269-.421-.269-3.132.007-6.257.007-9.389 0-.221 0-.324.069-.421.262a304.946 304.946 0 01-1.724 3.429c-.042.09-.097.173-.131.262-.076.2-.207.262-.421.255-.773-.013-1.546-.006-2.311-.006h-.332c.145-.29.276-.539.401-.787l4.035-7.802a3806.22 3806.22 0 003.884-7.513c.097-.193.214-.276.449-.276.89.014 1.78.014 2.67 0 .2 0 .31.055.4.234a251.322 251.322 0 001.676 3.27c1.387 2.705 2.767 5.409 4.153 8.113l2.298 4.491c.027.09.062.166.103.263zm-6.14-6.334c-1.29-2.559-2.559-5.09-3.863-7.67-.069.11-.104.171-.138.234-.145.276-.29.558-.428.841-1.055 2.09-2.118 4.181-3.173 6.264-.173.338-.173.345.207.345h7.071c.096 0 .186-.007.324-.014zM177.712 98.066v-7.79c0-.42-.034-.365.366-.365h2.415c3.815-.007 7.623-.007 11.438-.007.483 0 .414-.048.414.414v1.139c0 .241-.007.241-.256.248h-11.472c-.435 0-.387-.041-.387.38v4.463c0 .393-.048.359.373.359h8.341c.476 0 .393-.014.4.4.007.42 0 .848 0 1.27 0 .213-.007.213-.221.227-.083.007-.173 0-.262 0h-8.306c-.366 0-.325-.02-.325.345v4.988c0 .041.007.089 0 .131-.013.138.042.2.187.186.082-.007.172 0 .262 0h11.245c.421 0 .407-.076.407.393v1.207c0 .207-.007.207-.221.214H178.092c-.421 0-.38.056-.38-.386v-7.816zM115.761 98.073v-7.727-.228c.007-.213.007-.22.221-.22h1.89c.214 0 .214.007.221.22v13.977c0 .456-.049.4.4.4h11.99c.248.007.255.007.255.249v1.338c0 .145-.048.2-.186.186-.062-.006-.131 0-.193 0h-14.205c-.441 0-.379.049-.386-.379-.007-2.601-.007-5.209-.007-7.816zM215.132 98.086v-7.823c0-.407-.028-.366.372-.366h1.725c.214 0 .214.007.221.214v14.012c0 .435-.049.379.386.379h11.762c.449 0 .4-.055.407.394v1.172c0 .194-.007.194-.2.2h-14.266c-.449 0-.401.069-.401-.4-.006-2.594-.006-5.188-.006-7.782zM114.623 124.157c-.235.138-.462.29-.704.4a1.995 1.995 0 01-1.166.193c-.414-.069-.724-.282-.965-.614-.269-.365-.414-.786-.49-1.228a5.113 5.113 0 01.165-2.538c.118-.352.297-.676.573-.932.455-.427 1.014-.462 1.587-.365.283.048.552.165.862.262v-.318-2.083c0-.31.007-.31.31-.386.104-.028.207-.062.318-.083.214-.048.241-.021.248.207v6.223c0 .469-.007.931.276 1.345.069.103.042.179-.069.234-.124.069-.241.152-.359.221-.172.097-.241.083-.345-.083-.103-.144-.172-.31-.241-.455zm-.145-2.387v-1.4c0-.118-.007-.214-.131-.276-.393-.193-.807-.325-1.249-.283-.303.027-.538.172-.669.448-.09.187-.152.387-.193.58-.117.621-.097 1.255-.048 1.883.014.242.082.497.172.725.18.469.566.641 1.049.517.324-.083.586-.276.855-.462.159-.111.228-.235.221-.428-.021-.435-.007-.869-.007-1.304zM160.307 120.728v-3.387-.193c.006-.242.02-.256.262-.256.703 0 1.414-.006 2.118.014.248.007.496.062.731.145.441.152.766.455.917.904.256.759.235 1.518-.096 2.249-.2.448-.545.745-1 .931-.338.138-.683.2-1.049.2-.248 0-.504.007-.752 0-.145-.007-.186.055-.186.193.007.249 0 .497 0 .746v2.055c0 .249-.014.263-.256.269a4.932 4.932 0 01-.455 0c-.221-.006-.228-.02-.241-.248v-.228c.007-1.131.007-2.262.007-3.394zm.952-1.621v1.269c0 .097.007.173.131.166.324-.007.655.021.972-.021.683-.076 1.042-.421 1.146-1.083a3.44 3.44 0 00.013-.842c-.055-.496-.338-.772-.827-.869a3.421 3.421 0 00-.449-.048c-.241-.007-.476 0-.717 0-.276 0-.276-.021-.269.262v1.166zM87 120.742v-3.456-.228c0-.103.048-.165.152-.165.041 0 .09-.007.13-.007.684.007 1.367-.007 2.05.02.248.007.497.062.731.131.476.152.807.47.959.946a3.045 3.045 0 01-.083 2.166c-.262.628-.772.993-1.428 1.11-.414.076-.841.069-1.262.083-.36.014-.331-.02-.331.338v2.608c0 .31 0 .317-.297.317-.193 0-.386-.02-.58-.027-.007-.207-.041-.407-.041-.614v-3.222zm.924-1.628v1.269c0 .104.021.173.145.166.4-.021.8-.014 1.194-.069.448-.062.738-.345.87-.773.11-.365.137-.738.068-1.124-.069-.435-.317-.794-.814-.842-.442-.048-.883-.041-1.325-.055-.124-.007-.144.069-.138.165v1.263zM131.304 89.897c-.096.187-.165.318-.241.449-.925 1.704-1.856 3.415-2.774 5.126-.096.18-.193.248-.4.241-.476-.014-.952-.007-1.455-.007.041-.11.062-.193.096-.269.718-1.745 1.428-3.49 2.146-5.236l.062-.152c.034-.096.089-.158.214-.158.765.006 1.524.006 2.352.006zM136.354 121.915a3.676 3.676 0 01.255-1.504c.469-1.193 1.78-1.725 2.953-1.2.566.255.904.71 1.083 1.276.283.904.29 1.814.007 2.718-.228.724-.669 1.256-1.428 1.476a2.438 2.438 0 01-1.318.014c-.572-.159-.966-.524-1.214-1.048-.262-.539-.352-1.111-.338-1.732zm3.546-.076c-.007-.145.007-.372-.041-.593-.063-.297-.131-.594-.256-.863-.207-.427-.565-.641-1.055-.62-.476.013-.8.241-1.001.655a1.83 1.83 0 00-.151.428 4.72 4.72 0 00-.021 1.966c.041.221.117.441.214.641.193.394.531.587.966.607.524.021.91-.234 1.117-.731.193-.448.214-.931.228-1.49zM224.065 121.86c-.02.607-.103 1.186-.365 1.738-.456.932-1.345 1.27-2.27 1.159-.828-.096-1.366-.572-1.635-1.345a4.38 4.38 0 01-.028-2.877c.256-.779.766-1.318 1.594-1.456 1.159-.193 2.077.214 2.484 1.408.055.172.103.352.131.531.041.283.062.559.089.842zm-3.587.02h.041c0 .173-.013.345 0 .518.035.379.097.752.29 1.09.442.759 1.559.759 1.987-.007.09-.159.159-.338.193-.518.145-.641.166-1.29.042-1.938a2.743 2.743 0 00-.276-.759c-.394-.717-1.525-.697-1.904-.021a2.291 2.291 0 00-.263.663c-.062.324-.075.655-.11.972zM180.023 121.929c-.013.51-.082 1.069-.317 1.593a2.192 2.192 0 01-2.994 1.028c-.511-.269-.814-.704-.987-1.242-.282-.924-.289-1.862.014-2.78.414-1.255 1.711-1.835 2.939-1.338.483.2.814.559 1.028 1.035.242.524.311 1.083.317 1.704zm-.972-.021c0-.186.013-.373 0-.552-.028-.359-.104-.711-.29-1.021-.228-.386-.559-.586-1.021-.573-.455.014-.787.214-.987.621a2.108 2.108 0 00-.172.456 4.652 4.652 0 00-.021 2c.049.221.111.442.221.642.2.386.538.586.98.593.524.007.89-.234 1.103-.745.18-.469.214-.945.187-1.421zM106.696 121.867a4.025 4.025 0 01-.276 1.586c-.565 1.387-2.021 1.518-2.897 1.152-.476-.193-.794-.558-1.001-1.014-.276-.621-.345-1.269-.303-1.938.027-.511.124-1.007.359-1.477.365-.724.959-1.097 1.766-1.131.207-.007.414-.007.614.028.669.117 1.138.503 1.421 1.11.248.538.324 1.104.317 1.684zm-3.525.013c0 .173-.014.352 0 .518.034.379.103.752.297 1.09.227.4.586.566 1.027.566.456-.007.787-.214.994-.621.069-.145.124-.304.159-.463.151-.641.165-1.29.041-1.938a2.78 2.78 0 00-.276-.759c-.373-.697-1.511-.724-1.925 0a2.201 2.201 0 00-.186.414c-.131.393-.152.793-.131 1.193zM240.595 124.067c-.152.118-.283.235-.428.332-.427.289-.897.434-1.414.358-.662-.096-1.062-.462-1.187-1.117-.137-.725-.013-1.387.621-1.863a2.322 2.322 0 011.042-.435c.338-.062.69-.096 1.035-.124.138-.014.228-.034.207-.2-.021-.207-.014-.414-.048-.614-.062-.345-.297-.517-.628-.566-.428-.062-.842 0-1.249.152-.11.042-.221.09-.331.138-.11.048-.186.028-.228-.089-.207-.545-.241-.566.297-.759.621-.221 1.262-.318 1.918-.18.717.152 1.09.594 1.111 1.318.02.773.006 1.545.006 2.311 0 .524 0 1.042.297 1.511.062.103.035.179-.076.241-.131.076-.262.152-.386.242-.124.083-.214.041-.269-.069-.097-.18-.18-.366-.29-.587zm-.124-1.393v-.621c0-.09-.035-.145-.131-.138-.49.028-.98.055-1.414.304a1.027 1.027 0 00-.407 1.428c.172.31.496.462.855.393.283-.055.524-.2.752-.373.352-.276.352-.276.352-.731-.007-.09-.007-.172-.007-.262zM123.467 124.15c-.207.131-.386.248-.579.352a2.199 2.199 0 01-1.732.165c-.476-.144-.752-.462-.834-.945a3.985 3.985 0 01-.063-.648c-.006-1.173 0-2.346 0-3.519 0-.075-.006-.158.014-.227.014-.055.062-.124.111-.138a5.14 5.14 0 01.565-.145c.124-.028.18.034.18.159v3.711c0 .097 0 .193.007.29.048.572.476.897 1.041.773.366-.076.69-.256 1.001-.456.103-.069.131-.158.131-.276-.007-.448 0-.89 0-1.338V119.5c0-.283 0-.29.262-.359.717-.193.586-.186.593.435.007 1.138.007 2.277 0 3.422 0 .421.042.821.269 1.187.111.179.097.193-.076.303-.117.076-.241.145-.358.221-.125.083-.214.034-.276-.069-.09-.145-.166-.311-.256-.49zM229.764 119.742c.138-.09.276-.186.421-.276a2.49 2.49 0 011.573-.421c.62.048.972.352 1.09.966.034.179.055.365.055.552.007 1.235 0 2.476 0 3.711v.166c0 .11-.055.152-.159.159h-.034c-.663.062-.663.062-.663-.608v-3.194c0-.151-.013-.303-.041-.448-.069-.359-.262-.524-.628-.545a1.665 1.665 0 00-.876.193c-.159.09-.304.207-.462.304-.166.103-.214.241-.207.434.007 1.111.007 2.215.007 3.325 0 .601.055.525-.545.532h-.166c-.11 0-.159-.062-.159-.166-.006-.09-.006-.172-.006-.262 0-1.235-.007-2.477 0-3.712 0-.31-.021-.607-.166-.883-.069-.131-.034-.2.083-.262a9.2 9.2 0 00.428-.234c.11-.062.193-.035.241.069.069.2.138.393.214.6zM185.77 122.26v2.083c0 .249-.007.256-.255.256-.697-.007-.593.096-.6-.573-.007-1.242 0-2.477 0-3.719v-.193c-.007-.2-.007-.2-.2-.207a5.72 5.72 0 00-.49 0c-.124.007-.18-.048-.186-.172v-.069c-.007-.58-.014-.476.462-.483.483-.007.4.048.414-.421.013-.386.007-.786.069-1.166.11-.683.483-1.035 1.159-1.138.483-.076.952.014 1.393.207.2.09.214.124.124.324-.207.483-.117.511-.662.324a2.007 2.007 0 00-.573-.11c-.351-.007-.524.131-.6.469-.041.179-.048.366-.055.545-.007.262 0 .518-.007.787 0 .124.042.172.166.172.379-.007.759 0 1.138 0h.228c.2.007.227.048.179.235-.124.483-.124.483-.628.483h-.883c-.193 0-.2.006-.2.2.007.731.007 1.448.007 2.166zM129.559 121.839v-1.69c0-.235-.007-.235-.235-.242a6.54 6.54 0 00-.524 0c-.111 0-.152-.041-.159-.151-.055-.552-.048-.566.497-.566.483 0 .407.048.414-.421v-.911c0-.303.007-.303.31-.393.124-.034.249-.076.373-.11.124-.028.179.014.172.152-.007.413 0 .827 0 1.234 0 .09.007.173 0 .263-.014.144.055.186.186.186.414-.007.828 0 1.235 0h.228c.09 0 .152.048.124.145a5.16 5.16 0 01-.145.462c-.041.117-.151.11-.248.11h-.98c-.076 0-.151.007-.227 0-.145-.013-.187.055-.187.187.007 1.062-.007 2.124.014 3.187.007.579.297.807.869.704.242-.049.476-.145.711-.228.207-.076.228-.069.297.145.151.462.131.517-.338.669-.435.145-.87.262-1.339.165-.676-.131-1.035-.538-1.048-1.241-.014-.552 0-1.104 0-1.663.007.007.007.007 0 .007zM207.163 119.038c.463.007.89.124 1.297.31.2.09.2.125.118.325-.014.041-.035.076-.056.117-.151.324-.151.317-.496.186-.352-.138-.718-.262-1.111-.158-.566.138-.773.758-.379 1.193.144.166.351.283.551.393.325.18.67.318.987.497.331.186.586.448.697.821.269.897-.249 1.78-1.173 1.994-.731.165-1.421-.014-2.084-.304-.213-.09-.227-.152-.131-.352.242-.531.138-.476.628-.269.387.166.78.262 1.201.228.489-.041.793-.4.738-.883a.636.636 0 00-.29-.49c-.221-.145-.448-.262-.676-.386-.324-.18-.662-.331-.966-.538-.441-.304-.6-.759-.538-1.284.09-.758.655-1.303 1.421-1.379a1.87 1.87 0 01.262-.021zM199.382 124.792c-.601-.049-1.084-.145-1.546-.345-.062-.028-.11-.062-.165-.097-.083-.055-.118-.124-.069-.221.007-.02.02-.041.027-.055.187-.469.187-.462.649-.276.386.159.786.256 1.207.214.628-.062.911-.676.662-1.104a1.291 1.291 0 00-.386-.386c-.2-.131-.421-.221-.635-.331-.255-.138-.524-.269-.765-.421-.918-.573-.794-2.007.165-2.518a1.77 1.77 0 011.166-.193c.338.062.669.165 1 .283.221.082.228.131.138.345-.186.434-.179.427-.621.262-.338-.131-.676-.228-1.048-.131-.559.151-.766.779-.359 1.2.179.179.421.304.642.435.2.11.414.186.621.289.117.056.234.118.338.194.517.345.758.821.683 1.441-.076.621-.414 1.042-.994 1.256-.262.09-.538.117-.71.159zM147.054 119.038a3.3 3.3 0 011.228.297c.214.096.228.138.138.345-.186.434-.179.434-.621.269-.338-.124-.676-.214-1.048-.138-.621.138-.711.855-.366 1.2.145.145.317.255.497.359.179.103.372.172.558.262.187.09.373.186.545.29.566.345.773.862.677 1.504-.09.614-.456 1.014-1.042 1.221-.559.2-1.111.124-1.663-.028a4.26 4.26 0 01-.641-.241c-.166-.076-.173-.145-.104-.318.186-.469.186-.469.649-.282.351.144.717.255 1.103.22.159-.013.325-.048.463-.124a.713.713 0 00.207-1.111c-.145-.165-.352-.289-.545-.4-.29-.165-.607-.289-.897-.455a2.367 2.367 0 01-.538-.407c-.545-.566-.449-1.759.42-2.242.318-.159.635-.235.98-.221zM254.248 124.785c-.566-.042-1.063-.145-1.532-.352-.248-.11-.262-.173-.152-.428.173-.407.173-.414.566-.241.393.172.8.276 1.235.241.262-.02.483-.124.635-.345a.711.711 0 00-.09-.952 2.33 2.33 0 00-.504-.345c-.303-.165-.627-.296-.931-.469a2.346 2.346 0 01-.49-.372c-.552-.552-.462-1.739.359-2.236a1.757 1.757 0 011.256-.234c.351.062.689.179 1.027.303.187.069.187.118.118.304a.243.243 0 01-.028.062c-.172.393-.172.393-.586.235-.338-.125-.676-.235-1.042-.145-.276.062-.483.207-.559.49-.076.296-.02.572.214.772.173.145.373.262.573.373.2.11.414.193.621.29.089.041.172.089.255.138.648.386.904.896.779 1.607-.117.676-.558 1.055-1.193 1.228-.186.041-.386.055-.531.076zM96.645 119.921c.13-.152.241-.283.359-.407.296-.303.634-.531 1.09-.476.04.007.09.007.13.014.283.062.318.124.207.393-.027.069-.055.145-.09.207-.047.097-.075.221-.158.276-.055.035-.18-.021-.269-.034-.159-.028-.317-.007-.428.096-.234.221-.462.455-.676.697-.062.069-.055.207-.055.31-.007 1.021 0 2.042 0 3.063v.131c0 .401 0 .401-.42.401-.504 0-.456.041-.456-.456 0-1.131-.007-2.256 0-3.387 0-.386-.041-.752-.242-1.097-.117-.2-.096-.241.097-.372.097-.069.2-.132.304-.187.158-.089.234-.083.31.083.11.235.186.476.297.745zM169.951 119.928c.187-.193.345-.379.531-.552a1.137 1.137 0 011.111-.303c.235.055.262.117.18.338a1.992 1.992 0 01-.104.241c-.048.097-.076.235-.152.276-.069.041-.2-.014-.303-.035a.542.542 0 00-.456.132 8.424 8.424 0 00-.641.683c-.055.069-.055.206-.055.31-.007 1.049 0 2.104 0 3.16v.193c-.007.207-.021.227-.228.227-.759-.006-.621.097-.628-.6a252.42 252.42 0 010-3.256c0-.373-.055-.731-.241-1.062-.124-.235-.111-.249.103-.394.069-.048.145-.089.221-.138.2-.138.283-.193.435.138.089.2.151.421.227.642zM214.835 121.95v2.476c0 .124-.069.18-.186.18h-.525c-.11 0-.158-.063-.165-.159-.007-.09-.007-.173-.007-.262v-3.781-.193c-.007-.29-.007-.29-.283-.297h-.49c-.055 0-.124.007-.158-.027-.159-.166-.056-.366-.069-.552-.007-.111.089-.138.186-.138h1.4c.256.007.283.027.283.283.007.469 0 .931 0 1.4v1.07h.014zM247.742 121.894V124.336c-.014.242-.028.263-.269.263-.704-.007-.607.089-.607-.601-.007-1.228 0-2.456 0-3.677 0-.076-.007-.151 0-.227.007-.138-.048-.194-.193-.187-.207.007-.414 0-.621 0-.138 0-.193-.062-.193-.2 0-.586-.042-.517.496-.517h1.042c.311 0 .331.021.338.331.007.793.007 1.58.007 2.373zM192.821 121.936v2.373c0 .283-.007.29-.29.29-.669-.007-.559.082-.566-.566-.007-1.235 0-2.47 0-3.712 0-.076-.007-.151 0-.227.007-.138-.041-.193-.186-.187-.207.007-.414-.006-.621 0-.152.007-.221-.062-.214-.213v-.063c-.014-.434-.007-.441.414-.441h1.076c.387 0 .387 0 .387.372v2.374zM183.493 89.318c.097-.124.187-.262.297-.38.462-.517.925-1.034 1.387-1.559.083-.096.165-.151.296-.151 1.249.006 2.498.006 3.746.006.028 0 .056.014.118.028-.794.283-1.546.545-2.298.814-1.083.386-2.166.773-3.242 1.16-.097.034-.207.047-.31.068l.006.014zM193.014 117.21a.689.689 0 01-.697.704.685.685 0 01-.683-.683.694.694 0 01.697-.711.705.705 0 01.683.69zM215.028 117.217a.7.7 0 01-.683.69.684.684 0 01-.704-.697c0-.386.331-.711.711-.697.359.014.683.345.676.704zM247.928 117.21a.698.698 0 01-.71.697.7.7 0 01-.683-.69.71.71 0 01.676-.704c.373-.007.717.324.717.697z"/><path d="M183.487 89.311l-.014.022.022-.014-.008-.008z"/></g><defs><clipPath id="prefix__clip0"><path fill="#fff" d="M87 87h169v37.792H87z"/></clipPath></defs></svg>