<svg fill="none" height="62" width="176" xmlns="http://www.w3.org/2000/svg"><clipPath id="a"><path d="M0 9h126.237v44H0z"/></clipPath><g clip-path="url(#a)" fill="#00093c" opacity=".4"><path d="M48.004 47.078h2.765c1.627 0 2.43.834 2.43 1.942 0 1.132-.969 1.876-2.333 1.876h-1.533v1.955h-1.329zm1.33 2.907h1.28c.81 0 1.211-.401 1.211-.965 0-.817-.512-1.038-1.263-1.038H49.33v2.003zM56.615 47.078h1.513l2.322 5.77h-1.37l-.398-1.118h-2.63l-.388 1.118h-1.36zm.765 1.052h-.017l-.966 2.634h1.935zM62.046 47.078h2.89c1.467 0 2.343.737 2.343 1.73 0 1.299-1.045 1.61-1.378 1.707l1.547 2.333h-1.512l-1.34-2.122h-1.249v2.122h-1.298v-5.77zm1.297 2.686h1.437c.65 0 1.132-.322 1.132-.865 0-.526-.426-.866-1.34-.866h-1.229zM70.511 47.078h-1.294v5.77h1.294zM73.308 51.114c.488.592 1.236.872 2.09.872.637 0 1.472-.166 1.472-.737 0-.45-.513-.582-1.43-.762l-.772-.149c-1.114-.197-2.083-.55-2.083-1.609 0-1.211 1.398-1.8 2.689-1.8 1.187 0 2.163.364 2.89 1.156l-1.076.675c-.33-.512-.97-.823-1.817-.823-.748 0-1.32.235-1.32.636 0 .481.652.589 1.43.738l.852.148c1.024.19 1.993.537 1.993 1.634 0 1.412-1.595 1.907-3.039 1.907-1.145 0-2.329-.426-3-1.218zM98.414 12.184h-3.561l-9.341 18.178h3.229l2.343-4.673h10.985l2.406 4.672h3.191zM92.292 23.34l4.32-8.59 4.308 8.59zM.014 12.184v18.181h16.505v-1.97H2.544v-16.21zM14.405 12.184l-2.624 6.434h1.893l3.458-6.434zM30.647 9c-6.25 0-12.217 4.776-12.217 11.442 0 6.649 5.237 11.411 12.217 11.411 8.345 0 12.533-5.925 12.533-11.41C43.18 14.633 38.802 9 30.647 9zm0 20.583c-4.724 0-9.137-3.794-9.137-9.14 0-5.895 5.244-9.18 9.137-9.152 6.562.042 9.584 5.244 9.584 9.151 0 4.714-4.24 9.14-9.584 9.14zM59.928 22.744s4.523-1.288 4.523-5.323c0-5.31-5.624-5.237-5.624-5.237H46.499v18.177h2.571v-7.617h7.542l5.576 7.62h3.218zm-1.828-2.18h-9.05v-6.227l9.05.01s3.537-.076 3.537 3.06c0 3.347-3.537 3.156-3.537 3.156zM109.728 12.208v18.174h16.509v-1.959h-13.972V12.212zM69.04 12.201v18.157h16.087v-1.994H71.792v-6.306h10.047v-2.073H71.792v-5.804h13.342v-1.997zM77.395 9.239l-2.07 2.343 6.56-2.343zM17.987 37.633c0-.72-.71-.938-1.71-.938h-2.422v1.859h2.422c1 .003 1.71-.215 1.71-.921zM6.272 36.699H3.638v1.84h2.481c.917 0 1.554-.273 1.554-.92 0-.599-.405-.92-1.401-.92zM79.718 36.519c-1.61 0-2.34 1.059-2.34 2.25 0 1.2.73 2.27 2.34 2.27 1.602 0 2.332-1.07 2.332-2.27-.003-1.191-.73-2.25-2.332-2.25zM26.325 36.519c-1.596 0-2.326 1.059-2.326 2.25 0 1.2.73 2.27 2.326 2.27 1.606 0 2.34-1.07 2.34-2.27 0-1.191-.734-2.25-2.34-2.25z"/><path d="M0 33.864v9.795h126.185v-9.795zm6.53 5.299H3.639v2.308h-1.06v-5.416h4.043c.986 0 2.108.394 2.108 1.581.003 1.042-1.139 1.527-2.198 1.527zm11.588 2.305l-2.176-2.288h-2.084v2.288h-1.073v-5.413h3.672c1.28 0 2.617.346 2.617 1.581 0 .686-.488 1.36-1.887 1.496l2.233 2.34h-1.301zm8.207.149c-2.025 0-3.268-1.156-3.268-2.852 0-1.679 1.24-2.831 3.268-2.831 2.02 0 3.267 1.149 3.267 2.83 0 1.697-1.246 2.853-3.267 2.853zm12.155-4.918h-4.126v1.599h3.821v.63h-3.82v2.543h-1.08v-5.416h5.205zm10.404 4.769h-5.808v-5.413h5.697v.644h-4.635v1.654h4.019v.644h-4.019v1.848h4.746zm5.676.086c-.575 0-1.129-.103-1.669-.214l.118-.717c.408.118 1.1.26 1.686.26.657 0 1.585-.242 1.585-.886 0-1.194-3.468-.865-3.468-2.537 0-.955 1.131-1.471 2.599-1.471.533 0 1.17.062 1.72.197l-.149.713c-.605-.155-.927-.228-1.523-.228-.65 0-1.422.166-1.422.72 0 1.031 3.471.796 3.471 2.571-.003 1.142-1.329 1.592-2.948 1.592zm8.884 0c-.568 0-1.125-.103-1.658-.214l.111-.717c.388.118 1.09.26 1.682.26.668 0 1.589-.242 1.589-.886 0-1.194-3.482-.865-3.482-2.537 0-.955 1.138-1.471 2.592-1.471.54 0 1.18.062 1.738.197l-.156.713c-.606-.155-.928-.228-1.533-.228-.637 0-1.406.166-1.406.72 0 1.031 3.475.796 3.475 2.571.004 1.142-1.332 1.592-2.952 1.592zm8.597-.086h-1.076v-5.413h1.076zm7.677.149c-2.018 0-3.26-1.156-3.26-2.852 0-1.679 1.242-2.831 3.26-2.831 2.021 0 3.267 1.149 3.267 2.83-.004 1.697-1.246 2.853-3.267 2.853zm13.356-.15h-1.087l-4.298-4.256h-.018v4.257h-1v-5.413h1.094l4.274 4.285h.024v-4.285h1.01zm11.061 0h-1.086l-4.296-4.256h-.034v4.257h-.993v-5.413h1.083l4.298 4.285h.018v-4.285h1.007v5.413zm10.46 0h-5.808v-5.412h5.704v.644h-4.635v1.654h4.022v.644h-4.022v1.848h4.739zm9.31 0h-5.126v-5.412h1.08v4.79h4.046z"/></g></svg>