<svg fill="none" height="62" width="176" xmlns="http://www.w3.org/2000/svg"><clipPath id="prefix__a"><path d="M0 11h141.762v40H0z"/></clipPath><g clip-path="url(#prefix__a)" fill="#00093c" opacity=".4"><path d="M24.458 16.356h-.956l3.521-3.915c.255-.28.482-.5.704-.78.256-.187.453-.5.763-.566.448-.124.985.16 1.123.66.084.22.146.657-.025.843-.142.346-.449.5-.708.69zm90.088 23.181h-2.835l-3.017-8.446h-6.943l-3.126 8.446h-1.952l8.785-21.868h.649zm-9.344-17.767l-2.991 8.008h6.005zM68.511 39.537h-2.834l-3.018-8.446h-6.946l-3.13 8.446h-1.956l8.79-21.868h.652zM59.168 21.77l-2.992 8.008h6.006zM65.961 51h-.85l-.905-2.536H62.12L61.178 51h-.587l2.638-6.567h.197zm-2.805-5.338l-.898 2.405h1.802zm78.606-7.686s-.029 1.16 0 1.47h-10.168V18.14h9.997v1.47h-7.516v7.855h6.873v1.375h-6.873v9.14h7.687zm-110.598 0s-.033 1.16 0 1.47H20.996V18.14h9.996v1.47h-7.519v7.855h6.874v1.375h-6.874v9.14h7.69zm89.839 1.977c-1.7 0-3.207-.38-4.48-1.124v-2.714c.671.814 2.371 2.682 4.962 2.682 3.137 0 4.545-2.178 4.545-4.342 0-2.649-1.714-3.634-3.706-4.487-3.138-1.394-3.951-1.722-4.714-2.441-.894-.78-1.452-2.244-1.452-3.824 0-4.148 3.258-6.005 6.487-6.005 1.89 0 3.469.639 4.133.953v2.586c-.598-.733-2.251-2.473-4.491-2.473-3.838 0-3.951 3.385-3.951 3.772 0 2.62 2.072 3.517 3.495 4.112 3.058 1.247 3.893 1.561 4.896 2.44 1.343 1.15 1.627 2.78 1.627 3.951.004 3.437-2.272 6.914-7.351 6.914zM83.057 51c-.51 0-.963-.113-1.346-.34v-.816c.2.244.712.806 1.489.806.94 0 1.364-.653 1.364-1.303 0-.795-.514-1.09-1.113-1.346-.94-.42-1.185-.518-1.415-.733-.27-.234-.434-.675-.434-1.15 0-1.247.977-1.802 1.948-1.802a3 3 0 011.24.285v.777c-.179-.219-.675-.744-1.35-.744-1.152 0-1.185 1.018-1.185 1.13 0 .789.624 1.055 1.05 1.234.92.376 1.171.467 1.47.733.402.343.49.836.49 1.186 0 1.04-.683 2.083-2.208 2.083zm-8.234-10.952c-1.7 0-3.21-.38-4.484-1.124V36.21c.675.81 2.368 2.685 4.958 2.685 3.142 0 4.546-2.182 4.546-4.342 0-2.652-1.71-3.633-3.7-4.487-3.14-1.394-3.954-1.722-4.716-2.44-.894-.781-1.452-2.244-1.452-3.824 0-4.148 3.258-6.005 6.486-6.005 1.89 0 3.47.638 4.134.952v2.587c-.598-.737-2.251-2.474-4.491-2.474-3.838 0-3.951 3.386-3.951 3.769 0 2.623 2.072 3.52 3.491 4.112 3.057 1.247 3.897 1.557 4.903 2.44 1.34 1.146 1.624 2.78 1.624 3.955.004 3.433-2.273 6.91-7.348 6.91zm23.05-21.908H83.345v1.372h6.166v20.087h2.477V19.512h5.885zM41.96 28.837c2.841-.562 5.968-2.186 5.968-5.816 0-3.16-2.477-4.885-6.48-4.885h-5.943v21.401h2.477V29.088h1.073l2.255 2.94 3.316 4.787c.595.876 1.157 1.751 1.78 2.722.504-.03 3.24 0 3.24 0zm-2.343-.861c-.671.029-1.113.029-1.63-.026v-8.654h2.32c2.181 0 5.122.35 5.122 4.053-.004 4.397-4.47 4.56-5.812 4.626zm17.096 19.81c.854-.168 1.791-.657 1.791-1.748 0-.948-.744-1.466-1.944-1.466h-1.784v6.424h.744V47.86h.32a8.39 8.39 0 00.873-.073zm-.704-.26c-.2.012-.336.012-.49-.007v-2.597h.698c.653 0 1.536.106 1.536 1.218 0 1.317-1.34 1.368-1.744 1.387zm15.596.26c.854-.168 1.791-.657 1.791-1.748 0-.948-.744-1.466-1.944-1.466h-1.784v6.424h.744V47.86h.321l.679.883.996 1.437c.179.263.346.525.533.817.15-.01.97 0 .97 0zm-.704-.26a2.51 2.51 0 01-.489-.007v-2.597h.697c.653 0 1.536.106 1.536 1.218 0 1.317-1.339 1.368-1.744 1.387zM5.71 23.81L18.274 11h-3.148L3.579 23.962s-.314.373-.536.373V11H0v28.57h3.043V24.999c.208.036.423.328.423.328L14.549 39.57h4.02zm72.407 20.743h-.744v6.443h.744z"/></g></svg>