<svg fill="none" height="62" width="176" xmlns="http://www.w3.org/2000/svg"><clipPath id="a"><path d="M0 15h152.407v32H0z"/></clipPath><g clip-path="url(#a)" clip-rule="evenodd" fill="#00093c" fill-rule="evenodd" opacity=".4"><path d="M29.273 22.25v9.903H27.39s-.018-9.149 0-9.175c-.087-1.778-1.735-3.286-4.024-3.174-5.628.27-5.715 4.25-5.715 4.25v8.108h-1.89V15h1.89v5.559s1.57-2.342 5.836-2.515c3.799-.148 5.663 2.489 5.785 4.206zM30.946 18.512h1.882v9.982c0 .269.98 2.48 4.44 2.385 3.642-.105 5.247-2.836 5.308-3.946v-8.42h1.881v13.64h-1.881v-1.899s-1.77 2.099-5.481 2.35c-3.712.243-6.036-2.09-6.157-4.275v-9.817zM54.751 18.512h1.882v9.982c0 .269.98 2.48 4.44 2.385 3.642-.105 5.247-2.836 5.307-3.946v-8.42h1.882v13.64H66.38v-1.899s-1.769 2.099-5.48 2.35c-3.712.243-6.036-2.09-6.149-4.275zM110.946 18.512h1.882v9.982c0 .269.98 2.48 4.44 2.385 3.642-.105 5.247-2.836 5.307-3.946v-8.42h1.882v13.64h-1.882v-1.899s-1.769 2.099-5.48 2.35c-3.712.243-6.036-2.09-6.149-4.275zM82.979 24.227H71.757s.39-4.492 5.542-4.648c4.674-.139 5.68 4.206 5.68 4.648zm-5.68-6.33c-5.81-.079-7.51 5.125-7.632 6.426-.286 3.165 1.249 8.012 7.632 8.22 5.845.191 7.362-5.012 7.362-5.012h-2.02c-.703 2.012-2.984 3.59-5.342 3.426-5.663-.39-5.646-5.256-5.646-5.256H85.06c.234-2.844-1.665-7.727-7.761-7.805zM88.503 24.054v8.1H86.62V18.511h1.882v1.63s2.02-2.263 5.281-2.159c3.26.096 4.067 1.951 4.622 2.524 0 0 2.012-2.428 5.62-2.506 3.842-.079 5.16 2.94 5.16 3.763v10.38h-1.882v-9.391c0-.468-.321-3.079-3.469-3.105-3.295-.026-4.726 2.628-4.908 3.608v8.897h-1.89v-9.01c.051-.659-.643-3.599-3.695-3.495-4.033.13-4.874 3.157-4.84 4.406zM128.221 20.117v-1.605h-1.882v13.641h1.882v-9.131s.46-3.374 4.414-3.417c3.547-.035 3.599 2.948 3.651 3.104h1.83s.139-4.813-5.481-4.64c-1.205.036-3.694.738-4.414 2.048zM150.526 24.609v2.67s-.711 3.435-5.516 3.565c-4.102.113-4.466-1.821-4.466-2.498 0-.615-.009-2.28 4.501-2.35 3.2-.043 4.726-.893 5.481-1.387zm0 5.558v1.986h1.881v-9.548c-.06-2.15-1.179-4.578-6.538-4.561-6.392.017-6.695 3.85-6.834 4.674h1.917s-.113-3.2 4.934-3.087c4.787.104 4.57 2.333 4.57 2.41-.017.304.2 2.065-5.316 2.264-5.515.2-6.773 2.333-6.703 3.998.069 1.778 1.569 4.405 6.66 4.145 3.946-.2 4.934-1.89 5.429-2.28zM1.947 27.54H.004s-.433 5.038 7.467 5.012c6.99-.026 7.12-4.058 7.12-4.38 0-1.846-1.396-3.511-6.938-3.954-5.541-.45-5.247-1.907-5.247-2.107 0-1.127 1.5-2.471 4.77-2.402 3.13.07 4.64 1.388 4.744 3.01h1.899s.32-4.528-6.704-4.614C.915 18.027.49 21.52.464 22.076c-.035.772.139 3.582 6.738 3.912 2.038.104 5.368.407 5.36 2.263-.01 1.327-1.527 2.68-4.961 2.74-3.72.078-5.42-1.361-5.654-3.451zM89.717 45.404h-.867v-4.422c0-.122-.4-1.102-1.934-1.058-1.613.043-2.324 1.257-2.35 1.743v3.729h-.867V39.36h.867v.841s.78-.928 2.428-1.04c1.648-.113 2.671.927 2.723 1.899zM96.403 41.91h-4.969s.173-1.986 2.454-2.064c2.073-.052 2.524 1.864 2.515 2.064zm-2.515-2.802c-2.575-.034-3.33 2.273-3.382 2.854-.121 1.404.555 3.555 3.382 3.642 2.593.087 3.26-2.22 3.26-2.22h-.892c-.312.893-1.327 1.595-2.368 1.517-2.506-.173-2.506-2.324-2.506-2.324h5.94c.113-1.274-.728-3.434-3.434-3.469zM66.459 40.062v-.702h-.868v6.044h.868v-4.058s.199-1.492 1.95-1.51c1.57-.016 1.596 1.31 1.622 1.38h.807s.06-2.134-2.428-2.056c-.53.018-1.63.33-1.951.902zM123.902 40.062v-.702h-.858v6.044h.858v-4.058s.2-1.492 1.952-1.51c1.569-.016 1.595 1.31 1.621 1.38h.807s.06-2.134-2.428-2.056c-.529.018-1.631.33-1.952.902zM63.926 42.057v1.18s-.286 1.517-2.41 1.578c-1.822.052-1.978-.807-1.978-1.11 0-.27-.009-1.015 1.995-1.041 1.413-.009 2.064-.382 2.393-.607zm0 2.463v.893h.867v-4.24c-.026-.955-.52-2.03-2.896-2.021-2.827.008-2.966 1.708-3.027 2.072h.85s-.043-1.422 2.186-1.37c2.124.052 2.029 1.032 2.02 1.067-.008.13.087.91-2.35 1.006-2.445.087-3 1.032-2.966 1.769.026.79.694 1.951 2.949 1.838 1.743-.086 2.15-.84 2.367-1.014zM73.752 43.358h-.859s-.19 2.237 3.304 2.22c3.096-.009 3.157-1.804 3.157-1.943 0-.824-.616-1.552-3.07-1.751-2.454-.2-2.324-.842-2.324-.937 0-.503.667-1.101 2.116-1.067 1.387.035 2.055.616 2.098 1.336h.842s.138-2.003-2.975-2.047c-2.749-.035-2.931 1.518-2.949 1.76-.017.347.061 1.596 2.984 1.735.902.043 2.376.182 2.376 1.006 0 .59-.677 1.188-2.194 1.214-1.648.035-2.402-.607-2.506-1.526zM18.493 39.36h-.841v.676h.841v4.267s-.113 1.535 2.134 1.101v-.633s-1.223.148-1.258-.347c-.035-.503 0-4.388 0-4.388h1.284v-.676h-1.284v-1.552h-.867v1.552zM26.749 42.386c0 1.431-1.153 2.585-2.584 2.585s-2.585-1.154-2.585-2.584a2.585 2.585 0 015.169 0zm-2.584-3.295c-1.9 0-3.443 1.474-3.443 3.295 0 1.822 1.543 3.296 3.443 3.296s3.442-1.474 3.442-3.296c0-1.82-1.543-3.295-3.442-3.295zM46.409 42.386c0 1.431-1.154 2.585-2.585 2.585s-2.584-1.154-2.584-2.584a2.585 2.585 0 015.169 0zm-2.585-3.295c-1.899 0-3.442 1.474-3.442 3.295 0 1.822 1.543 3.296 3.442 3.296s3.443-1.474 3.443-3.296c0-1.82-1.544-3.295-3.443-3.295zM121.526 42.386c0 1.431-1.153 2.585-2.584 2.585s-2.584-1.154-2.584-2.584a2.585 2.585 0 015.168 0zm-2.584-3.295c-1.899 0-3.443 1.474-3.443 3.295 0 1.822 1.544 3.296 3.443 3.296s3.443-1.474 3.443-3.296c.008-1.82-1.535-3.295-3.443-3.295zM28.284 37.808v7.596h.867v-3.2l3.955 3.2h1.179l-3.937-3.243 3.608-2.801h-1.128l-3.677 2.688v-4.24zM128.863 37.808v7.596h.867v-3.2l3.954 3.2h1.18l-3.937-3.243 3.607-2.801h-1.127l-3.677 2.688v-4.24zM34.25 39.36h.893l2.411 5.108 2.368-5.108h.884L37.268 47h-.876l.72-1.596zM109.255 39.36h.893l2.411 5.108 2.368-5.108h.884L112.273 47h-.876l.72-1.596zM55.167 39.091c1.64.052 3.053 1.5 3.07 3.079.018 1.656-.98 3.477-3.07 3.486-1.847.009-2.55-1.015-2.55-1.015v2.35h-.866V39.36h.867v.702c.225-.2 1.05-1.023 2.55-.971zm-.13.754c-1.344 0-2.428 1.137-2.428 2.533s1.084 2.532 2.428 2.532c1.345 0 2.429-1.136 2.429-2.532 0-1.405-1.085-2.532-2.429-2.532zM71.393 39.36h.876v6.044h-.876zM71.393 37.808h.876v.832h-.876zM97.192 39.36H98l1.951 4.9h.078l1.804-4.9h.841l1.83 4.9h.078l1.899-4.9h.815l-2.332 6.044h-.798L102.3 40.34h-.069l-1.873 5.064h-.746z"/></g></svg>