<svg width="260" height="73" fill="none" xmlns="http://www.w3.org/2000/svg"><path d="M196.495 36.908h.041c.448 0 .874.072 1.281.21.403.14.76.329 1.062.569.303.24.545.517.728.837.179.32.27.657.27 1.018 0 .37-.091.72-.27 1.035-.183.32-.421.594-.728.83a3.522 3.522 0 01-1.062.546 4.024 4.024 0 01-1.281.198h-3.383v-5.243h3.342zm-3.296 6.08l6.656 6.918h1.171l-6.637-6.918h2.147c.59 0 1.144-.088 1.657-.269a4.493 4.493 0 001.346-.736c.384-.312.686-.678.911-1.098.224-.417.334-.867.334-1.347s-.11-.925-.334-1.334a3.539 3.539 0 00-.911-1.077 4.572 4.572 0 00-1.346-.728 4.954 4.954 0 00-1.657-.269h-4.294l.023 13.776h.911l-.023-6.918h.046zm-18.458 6.918h.952l2.298-5.723h5.269l2.344 5.723h.952l-5.552-13.776h-.76l-5.503 13.776zm3.58-6.56l2.298-5.74 2.321 5.74h-4.619zm-20.256 6.56h5.575l-.022-.038a4.102 4.102 0 002.027-.568 5.628 5.628 0 001.648-1.477c.472-.619.838-1.342 1.108-2.171a8.66 8.66 0 00.403-2.66c0-.942-.137-1.83-.412-2.659-.275-.828-.645-1.556-1.117-2.17a5.404 5.404 0 00-1.657-1.465 4.295 4.295 0 00-2.037-.56H158.051l.014 13.768zm5.507-12.939a3.356 3.356 0 011.694.497c.521.32.975.749 1.364 1.296a6.63 6.63 0 01.92 1.914c.224.732.334 1.502.334 2.314 0 .825-.11 1.6-.334 2.323a6.725 6.725 0 01-.911 1.902c-.385.547-.833.98-1.355 1.304a3.247 3.247 0 01-1.671.51v.037h-4.665v-12.1h4.624v.003zm-11.687-.837h-.911l.023 13.776h.911l-.023-13.776zm-17.372 0h-.975v10.325c.041.493.215.955.521 1.397.303.438.705.825 1.204 1.157a6.316 6.316 0 001.744.787c.664.194 1.374.29 2.124.29.724 0 1.41-.096 2.06-.29a6.146 6.146 0 001.712-.787c.49-.332.884-.72 1.172-1.157.289-.437.449-.904.476-1.397V36.13h-.911v10.325a2.043 2.043 0 01-.412 1.086c-.247.34-.576.631-.988.875a5.85 5.85 0 01-1.419.59 6.356 6.356 0 01-1.694.218 6.761 6.761 0 01-1.758-.219 5.587 5.587 0 01-1.442-.589 3.385 3.385 0 01-.998-.875 2.05 2.05 0 01-.421-1.086V36.13h.005zm-6.963 1.834a6.518 6.518 0 00-2.092-1.405 6.45 6.45 0 00-2.55-.509c-.952 0-1.845.19-2.669.568a7.083 7.083 0 00-2.156 1.523 7.213 7.213 0 00-1.451 2.222 6.845 6.845 0 00-.531 2.659c0 .972.188 1.885.563 2.74a7.424 7.424 0 001.506 2.242 7.119 7.119 0 002.17 1.514c.815.37 1.675.56 2.568.56.897 0 1.735-.168 2.518-.51a6.845 6.845 0 002.083-1.404l-.609-.56c-.549.505-1.158.9-1.822 1.187a5.424 5.424 0 01-2.17.429c-.851 0-1.639-.164-2.353-.497a5.888 5.888 0 01-1.854-1.346 6.303 6.303 0 01-1.227-1.974 6.405 6.405 0 01-.444-2.381c0-.85.156-1.65.467-2.394a6.28 6.28 0 011.268-1.952 5.967 5.967 0 011.863-1.317c.71-.32 1.47-.48 2.276-.48.782 0 1.515.147 2.201.438.687.294 1.296.69 1.831 1.194v.06l.614-.606zm-33.225 5.862l-4.967-7.696h-.91l.022 13.776h.911l-.023-12.16 4.665 7.275h.563l4.596-7.275.023 12.16h.934l-.023-13.776h-.934l-4.857 7.696zM81.333 42.15H74.72v-5.222h7.74v-.799h-8.651l.023 13.776h8.651l-.022-.838h-7.741v-6.08h6.615v-.837zm-26.523-8.81h-1.432l-1.433 1.733h.499l2.366-1.733zm-8.436 16.565h.952l2.298-5.723h5.269l2.344 5.723h.952L52.636 36.13h-.76l-5.502 13.776zm3.58-6.56l2.297-5.74 2.321 5.74h-4.619zm-9.48-6.42v-.8H29.78v.8h4.902l.023 12.975h.911l-.023-12.976h4.88zM14.993 48.21c.42.56.988 1.01 1.703 1.355.714.345 1.515.517 2.398.517.623 0 1.209-.092 1.758-.278a4.68 4.68 0 001.433-.765c.403-.324.728-.711.966-1.157.238-.446.357-.922.357-1.427 0-.467-.105-.908-.316-1.333a3.712 3.712 0 00-.879-1.136 4.884 4.884 0 00-1.332-.83 6.418 6.418 0 00-1.68-.45 4.483 4.483 0 01-1.378-.328 4.075 4.075 0 01-1.108-.677 3.013 3.013 0 01-.728-.938 2.467 2.467 0 01-.26-1.107c0-.4.1-.766.302-1.107.201-.34.471-.635.814-.887.34-.253.728-.45 1.172-.598.44-.147.902-.219 1.378-.219.65 0 1.245.118 1.79.35.54.231.994.547 1.355.946l.737-.538a4.69 4.69 0 00-1.67-1.136c-.65-.265-1.388-.4-2.212-.4-.636 0-1.236.093-1.799.278a4.853 4.853 0 00-1.474.765 3.615 3.615 0 00-.989 1.166c-.238.45-.357.938-.357 1.456 0 .48.11.938.325 1.376.215.437.518.828.902 1.165.385.34.838.619 1.364.837a5.673 5.673 0 001.726.409h.064c.462.054.893.168 1.291.34.398.173.746.396 1.04.67.297.273.526.576.695.916.165.341.247.703.247 1.086 0 .387-.096.745-.284 1.077-.187.333-.439.619-.76.859-.32.24-.69.429-1.116.568-.426.138-.87.21-1.332.21-.765 0-1.438-.143-2.02-.43a3.747 3.747 0 01-1.386-1.144l-.737.539zM7.637 42.15H1.023v-5.222h7.74v-.799H.112l.022 13.776h8.657l-.023-.838h-7.74v-6.08h6.614v-.837h-.005zM86.245 28.443a22.514 22.514 0 001.218-2.293c.164-.37.306-.707.425-1.01.042-.072.042-.135 0-.19a.375.375 0 00-.16-.122.388.388 0 00-.22-.012c-.077.017-.128.063-.146.135a27.088 27.088 0 01-.952 2.09c-.403.8-.865 1.532-1.396 2.201-.334.434-.696.8-1.085 1.107-.394.307-.801.496-1.232.568-.393.071-.723.02-.998-.148a2.452 2.452 0 01-.732-.74 4.607 4.607 0 01-.526-1.186c-.12-.413-.211-.838-.28-1.267a17.902 17.902 0 01-.16-1.296 9.545 9.545 0 00-.206-1.266c-.096-.413-.26-.678-.485-.796-.224-.117-.417-.084-.572.093a.556.556 0 00-.174.35c-.019.142-.05.285-.087.433-.078.18-.261.5-.545.959-.284.459-.6.93-.952 1.418a12.74 12.74 0 01-1.058 1.283c-.352.37-.636.543-.851.526-.256-.017-.426-.18-.513-.484-.087-.307-.114-.673-.073-1.106.041-.434.128-.9.266-1.402.137-.504.31-.963.526-1.375.215-.413.453-.758.719-1.027.265-.27.53-.387.805-.35.156.018.344.102.559.245.215.143.403.395.558.757.041.11.096.177.174.202a.247.247 0 00.206-.012c.06-.038.1-.093.133-.177.032-.084.014-.177-.046-.282-.215-.379-.444-.665-.691-.863a1.46 1.46 0 00-.865-.324 2.603 2.603 0 00-1.57.459c-.481.324-.884.74-1.218 1.254a5.638 5.638 0 00-.733 1.658c-.155.593-.206 1.14-.146 1.645.06.505.233.921.526 1.254.293.332.733.48 1.323.446.293-.017.605-.156.939-.417.334-.26.664-.58.998-.96.334-.378.645-.778.938-1.198.293-.421.54-.813.733-1.174.018.412.06.833.119 1.253.06.421.146.834.265 1.23.12.395.27.777.453 1.144.188.37.435.698.746.984.706.682 1.566.943 2.582.783a3.3 3.3 0 001.438-.648c.448-.341.87-.758 1.263-1.241.27-.362.527-.724.76-1.111zM60.198 45.816a3.191 3.191 0 01-.764-.728 3.984 3.984 0 01-.545-.997 4.637 4.637 0 01-.266-1.094c-.137-1.204.014-2.336.454-3.387a10.356 10.356 0 011.849-2.912 15.815 15.815 0 012.728-2.415 30.586 30.586 0 013.095-1.915c0 .808-.046 1.6-.133 2.373-.087.775-.21 1.59-.366 2.453a39.378 39.378 0 01-.692 3.034 16.84 16.84 0 01-1.057 2.928c-.421.88-.91 1.604-1.47 2.172-.558.568-1.199.833-1.922.795a1.791 1.791 0 01-.911-.307zm8.363-12.034c.028-.98-.055-1.759-.247-2.335.586-.412 1.2-.863 1.836-1.35.636-.485 1.24-.998 1.822-1.536a17.125 17.125 0 001.57-1.675 8.256 8.256 0 001.117-1.755c.078-.16.027-.269-.147-.323-.174-.055-.302-.009-.38.134a11.427 11.427 0 01-1.13 1.687c-.44.547-.925 1.069-1.451 1.566-.527.496-1.085.971-1.671 1.43a40.24 40.24 0 01-1.763 1.309 3.435 3.435 0 00-.526-.808 5.723 5.723 0 00-.6-.568c-.206-.16-.403-.324-.586-.484a1.89 1.89 0 01-.453-.568c-.156-.27-.082-.522.22-.758.302-.23.66-.483 1.071-.757.412-.273.797-.58 1.158-.93.362-.349.531-.77.513-1.253-.041-.72-.32-1.284-.838-1.688a2.853 2.853 0 00-1.803-.606c-.394 0-.765.068-1.117.202a3.724 3.724 0 00-1.698 1.321c-.216.3-.38.598-.5.905-.04.088-.04.16 0 .215a.374.374 0 00.16.122.315.315 0 00.207.012c.068-.017.123-.071.16-.16.119-.252.26-.505.425-.757.165-.252.367-.48.6-.69a2.68 2.68 0 01.778-.484c.284-.118.59-.177.925-.177.508 0 .93.16 1.264.484.334.324.439.758.325 1.296-.078.362-.34.694-.779.997-.44.308-.865.619-1.277.943-.412.324-.7.665-.865 1.027-.165.361-.014.757.453 1.186.138.143.289.286.453.434a2.761 2.761 0 01.838 1.283c.096.299.147.652.147 1.064a40.83 40.83 0 00-3.3 2.062 17.407 17.407 0 00-2.935 2.537 10.595 10.595 0 00-1.982 3.063c-.472 1.115-.627 2.327-.472 3.644.06.412.17.833.339 1.254.165.42.375.8.632 1.132.256.332.553.61.897.837.343.223.718.345 1.13.366.783.055 1.525-.152 2.23-.619.705-.467 1.35-1.11 1.936-1.927.586-.82 1.117-1.784 1.584-2.899a21.838 21.838 0 001.144-3.56c.358-1.581.559-2.864.587-3.845zm-12.854-8.659c-.165.046-.357.093-.572.147.137-.286.302-.547.5-.782.233-.286.457-.446.672-.472.215-.025.366.009.453.11.087.1.092.235.014.404-.078.172-.284.32-.618.446a3.162 3.162 0 01-.449.147zm.751.177c.508-.215.797-.472.865-.77.069-.299-.004-.539-.22-.728-.215-.19-.544-.274-.984-.257-.44.017-.906.223-1.396.619-.37.307-.687.702-.938 1.186-.252.484-.43.993-.527 1.523a4.64 4.64 0 00-.014 1.59c.087.531.298.985.632 1.364.394.467.897.74 1.51.825.619.08 1.278.02 1.983-.177a6.946 6.946 0 001.877-.85 12.355 12.355 0 003.14-2.874c.43-.555.792-1.098 1.085-1.62.041-.071.046-.138.014-.201a.247.247 0 00-.147-.135.328.328 0 00-.22 0 .292.292 0 00-.173.147 10.01 10.01 0 01-1.026 1.553c-.412.513-.86.997-1.35 1.456a11.21 11.21 0 01-1.57 1.228 6.727 6.727 0 01-1.717.808c-.609.198-1.117.252-1.524.16-.412-.088-.724-.37-.939-.837-.215-.484-.302-1.052-.265-1.7a7.689 7.689 0 01.38-1.944c.604-.06 1.112-.185 1.524-.366zm-9.407-6.244c.105-.766.265-1.603.471-2.52a36.46 36.46 0 01.747-2.794c.293-.943.64-1.797 1.043-2.563.403-.765.865-1.38 1.397-1.847.526-.467 1.126-.681 1.79-.648.508.038.897.244 1.157.619.266.378.463.774.6 1.186.156.522.247 1.132.28 1.835.027.702-.056 1.485-.248 2.348l-.265.971a9.756 9.756 0 01-1.145 2.44 8.844 8.844 0 01-1.616 1.848 9.325 9.325 0 01-4.463 2.158c.018-.197.028-.403.028-.618 0-.215.009-.433.027-.648.023-.417.087-1.006.197-1.767zm6.294-.703a9.364 9.364 0 001.204-2.55 9.4 9.4 0 00.16-.526c.05-.172.092-.336.133-.5.215-.9.307-1.721.28-2.47-.028-.745-.133-1.397-.307-1.957a4.833 4.833 0 00-.806-1.468c-.362-.459-.856-.707-1.483-.74-.664-.038-1.3.126-1.91.483-.608.362-1.171.867-1.702 1.523a11.967 11.967 0 00-1.437 2.336c-.43.9-.801 1.864-1.117 2.899a28.187 28.187 0 00-.765 3.223 26.786 26.786 0 00-.38 3.32c-.06 1.329-.018 2.6.12 3.803.137 1.203.384 2.25.745 3.143.362.892.852 1.574 1.47 2.049.618.476 1.364.644 2.243.5a3.3 3.3 0 001.437-.647 7.46 7.46 0 001.264-1.242c.274-.34.526-.706.764-1.093.234-.387.449-.775.646-1.162.196-.387.375-.765.544-1.132.165-.37.307-.706.426-1.01.06-.16.005-.273-.16-.336s-.288-.013-.366.147a19.59 19.59 0 01-.925 2.091c-.403.8-.865 1.532-1.396 2.201-.353.433-.723.8-1.117 1.107-.394.307-.801.496-1.231.568-.49.088-.902-.013-1.232-.312-.334-.299-.609-.707-.824-1.228a8.71 8.71 0 01-.499-1.768 18.171 18.171 0 01-.247-1.943c-.05-.64-.073-1.233-.073-1.78v-1.254c.86-.143 1.707-.404 2.54-.783a9.038 9.038 0 002.303-1.51 11.441 11.441 0 001.698-1.982zm-15.157 6.77c-.164.046-.357.093-.572.147.138-.286.302-.547.5-.782.233-.286.457-.446.672-.472.215-.025.366.009.453.11.087.1.092.235.014.404-.078.172-.284.32-.618.446a3.369 3.369 0 01-.449.147zm.747.177c.508-.215.796-.472.865-.77.069-.299-.005-.539-.22-.728-.215-.19-.545-.274-.984-.257-.44.017-.906.223-1.396.619-.371.307-.687.702-.939 1.186-.252.484-.43.993-.526 1.523a4.64 4.64 0 00-.014 1.59c.087.531.298.985.632 1.364.393.467.897.74 1.51.825.618.08 1.278.02 1.983-.177a6.945 6.945 0 001.877-.85 12.698 12.698 0 001.702-1.308 12.023 12.023 0 001.438-1.566 13.27 13.27 0 001.085-1.62c.04-.071.045-.138.013-.201a.247.247 0 00-.146-.135.328.328 0 00-.22 0 .292.292 0 00-.174.147 10.01 10.01 0 01-1.025 1.553c-.412.513-.86.997-1.35 1.456a11.21 11.21 0 01-1.57 1.228 6.727 6.727 0 01-1.717.808c-.61.198-1.117.252-1.525.16-.412-.088-.723-.37-.938-.837-.215-.484-.302-1.052-.266-1.7a7.689 7.689 0 01.38-1.944c.605-.06 1.113-.185 1.525-.366zM25.508 19.08c.106-.766.261-1.603.454-2.52.196-.918.439-1.847.732-2.794.293-.943.645-1.797 1.057-2.563.412-.765.875-1.38 1.396-1.847.518-.467 1.113-.681 1.777-.648.508.038.902.245 1.172.619.274.379.471.774.586 1.187.173.521.274 1.131.292 1.834.019.703-.068 1.485-.265 2.348-.06.324-.147.648-.266.972a8.86 8.86 0 01-1.13 2.44 9.173 9.173 0 01-1.63 1.847 8.69 8.69 0 01-2.115 1.401 9.542 9.542 0 01-2.316.758c0-.198.005-.404.014-.619.009-.214.023-.433.045-.648a21.76 21.76 0 01.197-1.767zm2.848 11.735c-.225-.152-.367-.337-.426-.551a.895.895 0 01.087-.661c.119-.223.37-.391.764-.5.293-.089.605-.135.939-.135.334 0 .618-.017.851-.055-.137.539-.33.997-.572 1.376-.243.379-.536.602-.865.673a1.01 1.01 0 01-.778-.147zm-.838-1.51c-.197.348-.256.698-.174 1.039.078.34.288.63.632.862.343.232.778.299 1.304.19.568-.11 1.058-.404 1.47-.892.412-.489.732-1.06.97-1.726.646-.109 1.25-.252 1.822-.433a8.31 8.31 0 001.584-.686 5.18 5.18 0 001.29-1.026c.372-.404.674-.905.912-1.498.06-.143 0-.249-.174-.312s-.293-.02-.353.122c-.215.522-.49.964-.824 1.321a5.221 5.221 0 01-1.116.918 6.239 6.239 0 01-1.365.618c-.499.16-1.03.299-1.597.404a6.746 6.746 0 00.233-1.767 4.72 4.72 0 00-.265-1.633 2.675 2.675 0 00-.824-1.186c-.371-.307-.852-.459-1.438-.459-.526 0-.998.194-1.41.581a5.96 5.96 0 00-1.098 1.43 9.353 9.353 0 00-.792 1.822 24.278 24.278 0 00-.485 1.726 14.078 14.078 0 01-.326-1.688 22.064 22.064 0 01-.16-1.742 53.228 53.228 0 01-.06-1.535c-.008-.468-.022-.838-.045-1.107a9.903 9.903 0 002.554-.783 9.615 9.615 0 002.317-1.51 10.973 10.973 0 001.689-1.982 10.28 10.28 0 001.218-2.55 6.4 6.4 0 00.265-1.026c.215-.9.307-1.721.28-2.47-.028-.745-.133-1.397-.307-1.957a4.392 4.392 0 00-.779-1.468c-.361-.459-.865-.707-1.51-.74-.664-.038-1.3.126-1.91.483-.608.362-1.171.867-1.702 1.523a11.963 11.963 0 00-1.438 2.336c-.43.9-.8 1.864-1.107 2.899a28.629 28.629 0 00-1.126 6.543 23.856 23.856 0 000 2.427c.04.791.119 1.544.247 2.251.123.711.293 1.368.503 1.97.21.6.463 1.118.751 1.552a.47.47 0 00.28.227.614.614 0 00.366.025.51.51 0 00.293-.176c.077-.089.105-.215.087-.38 0-.214.04-.52.119-.916.077-.396.187-.83.325-1.296.137-.467.306-.934.512-1.401a8.62 8.62 0 01.692-1.284 3.99 3.99 0 01.824-.942c.292-.244.595-.354.91-.337.293.017.531.177.72.471.187.3.324.674.411 1.132a8.798 8.798 0 01-.014 3.114c-.31.038-.65.055-1.011.055-.362 0-.71.046-1.044.134-.558.143-.93.383-1.126.732zm-14.41-.863a22.604 22.604 0 001.218-2.293c.164-.37.306-.707.425-1.01.04-.072.04-.135 0-.19a.375.375 0 00-.16-.122.388.388 0 00-.22-.012c-.078.017-.128.063-.147.135a27.093 27.093 0 01-.952 2.09c-.403.8-.865 1.532-1.396 2.201-.334.434-.696.8-1.085 1.107-.394.307-.801.496-1.231.568-.394.071-.724.02-.998-.148a2.452 2.452 0 01-.733-.74 4.61 4.61 0 01-.526-1.186 10.63 10.63 0 01-.28-1.267 17.874 17.874 0 01-.16-1.296 9.54 9.54 0 00-.206-1.266c-.096-.413-.26-.678-.485-.796-.224-.117-.416-.084-.572.093a.556.556 0 00-.174.35c-.018.142-.05.285-.087.433-.078.18-.261.5-.545.959-.284.459-.6.93-.952 1.418-.352.488-.705.913-1.057 1.283-.353.37-.637.543-.852.526-.256-.017-.426-.18-.513-.484-.087-.307-.114-.673-.073-1.106.041-.434.128-.9.266-1.402.137-.504.311-.963.526-1.375.215-.413.453-.758.719-1.027.265-.27.53-.387.806-.35.155.018.343.102.558.245.215.143.403.395.558.757.042.11.097.177.174.202a.247.247 0 00.206-.012c.06-.038.101-.093.133-.177.028-.08.014-.177-.046-.282-.215-.379-.444-.665-.69-.863a1.46 1.46 0 00-.866-.324 2.602 2.602 0 00-1.57.459 4.34 4.34 0 00-1.218 1.254 5.635 5.635 0 00-.732 1.658c-.156.593-.206 1.14-.147 1.645.06.505.234.921.527 1.254.293.332.732.48 1.323.446.293-.017.604-.156.938-.417.334-.26.664-.58.998-.96.334-.378.645-.778.938-1.198.293-.421.54-.813.733-1.174.018.412.06.833.119 1.253.06.421.146.834.265 1.23.12.395.27.777.454 1.144.187.37.434.698.746.984.705.682 1.565.943 2.582.783a3.3 3.3 0 001.437-.648c.449-.341.87-.758 1.263-1.241.27-.362.527-.724.76-1.111zM205.114 61.985h.421l-.009-6.387h-.421l.009 6.387zm-2.01-1.304a.806.806 0 01-.096.391 1.042 1.042 0 01-.261.316c-.11.088-.238.16-.389.214a1.45 1.45 0 01-.471.08c-.17 0-.325-.025-.467-.08a1.11 1.11 0 01-.376-.214.963.963 0 01-.251-.316.877.877 0 01-.092-.391c0-.156.032-.294.101-.42a.993.993 0 01.27-.325 1.24 1.24 0 01.398-.206c.151-.05.311-.076.49-.076h1.144v1.027zm.01 1.304h.471c-.014-.012-.023-.059-.037-.143a2.885 2.885 0 01-.022-.328c-.005-.135-.014-.286-.014-.454-.005-.169-.005-.341-.005-.518v-.568c0-.19.005-.357.009-.505 0-.172.005-.336.01-.488v-.092a1.836 1.836 0 00-.472-1.111 1.53 1.53 0 00-.462-.337 1.386 1.386 0 00-.554-.135h-.009c-.449 0-.87.051-1.268.156l.1.37a4.498 4.498 0 011.168-.138h.009c.16.004.306.046.439.122.133.075.243.172.339.294.092.122.165.27.215.434.05.168.073.34.073.526v.202h-1.144c-.229 0-.444.033-.65.1a1.662 1.662 0 00-.54.29 1.424 1.424 0 00-.366.451 1.183 1.183 0 00-.005 1.102c.087.169.201.316.348.442.142.126.316.227.513.299.196.076.407.11.627.11.242 0 .467-.043.673-.127.206-.084.389-.194.544-.337l.01.383zm-7.293-4.586h-.471c.013.013.023.055.036.126.01.072.014.16.014.265l.009 4.195h.421l-.009-3.143c.028-.168.083-.32.16-.462.083-.144.184-.266.303-.37a1.347 1.347 0 011.396-.232 1.39 1.39 0 01.714.69c.073.156.114.328.119.513l.009 3.004h.421l-.032-3.004a1.687 1.687 0 00-.146-.66 1.71 1.71 0 00-.893-.897 1.656 1.656 0 00-.659-.134 1.7 1.7 0 00-.797.19 1.64 1.64 0 00-.604.542v-.623h.009zm-6.07 3.223a2.405 2.405 0 001.264 1.267c.288.126.595.189.915.189.321 0 .623-.063.907-.19.283-.126.526-.298.737-.513.21-.214.38-.467.503-.753.124-.286.188-.593.188-.921a2.43 2.43 0 00-1.428-2.205 2.194 2.194 0 00-.907-.19c-.32 0-.627.064-.915.19a2.448 2.448 0 00-.756.513 2.375 2.375 0 00-.695 1.692c.004.328.064.635.187.921zm.389-1.7a2.01 2.01 0 01.417-.64c.178-.18.384-.323.618-.428.233-.106.485-.156.755-.156.261 0 .508.05.737.155.234.106.431.249.604.43.17.18.307.395.408.64.101.243.151.504.151.782 0 .27-.05.53-.151.77a2.01 2.01 0 01-.408.63c-.169.178-.37.32-.604.426a1.76 1.76 0 01-.737.156c-.27 0-.522-.05-.755-.156a2.084 2.084 0 01-.618-.425 1.928 1.928 0 01-.417-.631c-.1-.244-.151-.5-.151-.77 0-.278.051-.539.151-.783zm-2.417-2.768c.055.05.124.075.206.075a.307.307 0 00.202-.075.23.23 0 00.091-.177.23.23 0 00-.091-.177.307.307 0 00-.202-.075.294.294 0 00-.206.075.238.238 0 00-.087.177c0 .067.028.126.087.177zm.005 5.831h.412l-.009-4.62h-.412l.009 4.62zm-1.602-4.094a2.055 2.055 0 00-.678-.412 2.415 2.415 0 00-.888-.16c-.229 0-.444.03-.645.084-.202.055-.38.135-.531.236a1.175 1.175 0 00-.367.37.872.872 0 00-.137.476c0 .16.041.315.119.462.083.148.192.282.33.404.137.122.306.223.503.312.193.088.408.143.646.177.183.025.348.067.499.134.151.063.284.143.393.236.11.092.197.193.257.298.059.11.091.22.091.337 0 .252-.119.455-.361.61-.243.156-.536.232-.884.232-.256 0-.494-.042-.714-.13a1.773 1.773 0 01-.545-.325l-.32.232c.174.189.407.34.7.441.293.101.595.156.911.156.22 0 .43-.03.627-.088a1.82 1.82 0 00.522-.249c.151-.109.27-.235.357-.382a1.026 1.026 0 00.019-.976 1.419 1.419 0 00-.325-.409 1.971 1.971 0 00-.504-.311 2.346 2.346 0 00-.632-.177 2.066 2.066 0 01-.503-.13 1.579 1.579 0 01-.399-.227 1.052 1.052 0 01-.256-.29.662.662 0 01-.091-.325c0-.235.114-.425.347-.572.234-.147.518-.223.861-.223.247 0 .481.034.705.105.22.072.407.173.563.312l.33-.228zm-4.697 0a2.055 2.055 0 00-.678-.412 2.412 2.412 0 00-.888-.16c-.228 0-.444.03-.645.084a1.81 1.81 0 00-.531.236 1.161 1.161 0 00-.366.37.864.864 0 00-.138.476c0 .16.042.315.119.462.083.148.193.282.33.404.137.122.307.223.504.312.192.088.407.143.645.177.183.025.348.067.499.134.151.063.284.143.394.236.11.092.197.193.256.298.06.11.092.22.092.337 0 .252-.119.455-.362.61-.243.156-.536.232-.884.232-.256 0-.494-.042-.714-.13a1.768 1.768 0 01-.544-.325l-.321.232c.174.189.408.34.701.441.292.101.595.156.91.156.22 0 .431-.03.628-.088.196-.06.37-.143.521-.249.152-.109.271-.235.358-.382a.97.97 0 00.132-.501c0-.168-.036-.324-.114-.476a1.419 1.419 0 00-.325-.408 2.043 2.043 0 00-.504-.311 2.35 2.35 0 00-.631-.177 2.074 2.074 0 01-.504-.13 1.572 1.572 0 01-.398-.227 1.04 1.04 0 01-.257-.29.662.662 0 01-.091-.325c0-.235.114-.425.348-.572.233-.147.517-.223.86-.223.248 0 .481.034.705.105.22.072.408.173.563.312l.33-.228zm-5.383-1.737c.055.05.123.075.206.075a.304.304 0 00.201-.075c.06-.05.092-.11.092-.177 0-.067-.032-.126-.092-.177a.304.304 0 00-.201-.075.292.292 0 00-.206.075.238.238 0 00-.087.177c0 .067.032.126.087.177zm.004 5.831h.412l-.009-4.62h-.412l.009 4.62zm-1.396-6.404a1.534 1.534 0 00-.238-.016h-.247c-.193 0-.38.042-.554.126a1.586 1.586 0 00-.774.833c-.078.19-.128.387-.142.597v.173l.005.059.004.05c0 .042-.004.063-.009.063h-.746v.396h.765v2.588c0 .505.004 1.018.009 1.535h.393l-.009-4.123h1.328v-.396h-1.328v-.24c0-.172.028-.336.083-.487.055-.156.128-.29.224-.409a1.09 1.09 0 01.339-.277.932.932 0 01.412-.11h.192c.069 0 .124.005.169.017l.124-.379zm-8.322 5.041c.123.286.293.539.508.753.215.215.467.387.755.514.289.126.595.189.916.189.32 0 .622-.063.906-.19.284-.126.527-.298.737-.513.211-.214.38-.467.504-.753a2.31 2.31 0 00.187-.921 2.37 2.37 0 00-.187-.934 2.432 2.432 0 00-1.241-1.271 2.19 2.19 0 00-.906-.19c-.325 0-.627.064-.916.19-.288.126-.54.299-.755.513a2.36 2.36 0 00-.508.758c-.124.29-.188.601-.188.934 0 .328.064.635.188.921zm.384-1.7a2.01 2.01 0 01.417-.64c.178-.18.384-.323.618-.428.233-.106.485-.156.755-.156.261 0 .508.05.737.155.234.106.43.249.604.43.17.18.307.395.408.64.101.243.151.504.151.782 0 .27-.05.53-.151.77a2.01 2.01 0 01-.408.63c-.169.178-.37.32-.604.426a1.76 1.76 0 01-.737.156c-.27 0-.522-.05-.755-.156a2.084 2.084 0 01-.618-.425 1.928 1.928 0 01-.417-.631c-.1-.244-.151-.5-.151-.77 0-.278.051-.539.151-.783zm-1.597-1.586a.432.432 0 00-.124-.021c-.046-.004-.082-.004-.114-.004-.289 0-.55.063-.788.19a1.656 1.656 0 00-.599.542v-.686h-.472c.014.013.023.063.037.156.009.092.013.19.013.294l.01 4.178h.421l-.009-3.126c.027-.168.077-.32.155-.463.078-.143.174-.265.298-.37a1.4 1.4 0 01.407-.244c.151-.059.311-.088.476-.088h.096l.097.017.096-.375zm-5.329-1.367h.032c.206 0 .403.033.591.096.183.063.348.152.49.261.142.11.251.236.329.379a.91.91 0 01.119.467c0 .18-.041.34-.119.488a1.308 1.308 0 01-.329.387c-.142.11-.303.198-.49.257-.183.063-.38.092-.591.092h-1.579v-2.432h1.547v.005zm.028 2.819a2.3 2.3 0 00.764-.127c.243-.084.449-.197.623-.34a1.67 1.67 0 00.416-.514c.106-.198.156-.408.156-.64 0-.214-.05-.42-.156-.61a1.725 1.725 0 00-.416-.5 1.99 1.99 0 00-.623-.337 2.3 2.3 0 00-.764-.126h-2.001l.009 6.387h.422l-.01-3.198h1.58v.005zm-3.882 1.893a.806.806 0 01-.096.391 1.042 1.042 0 01-.261.316c-.11.088-.238.16-.389.214-.147.05-.307.08-.472.08a1.29 1.29 0 01-.467-.08 1.105 1.105 0 01-.375-.214.98.98 0 01-.252-.316.89.89 0 01-.091-.391c0-.156.032-.294.1-.42.069-.127.156-.236.27-.325.115-.088.248-.16.399-.206a1.52 1.52 0 01.489-.076h1.145v1.027zm.014 1.304h.471c-.014-.012-.023-.059-.037-.143a2.885 2.885 0 01-.022-.328c-.005-.135-.014-.286-.014-.454-.005-.169-.005-.341-.005-.518v-.568c0-.19.005-.357.009-.505 0-.172.005-.336.01-.488v-.092a1.836 1.836 0 00-.472-1.111 1.53 1.53 0 00-.462-.337 1.386 1.386 0 00-.554-.135h-.009c-.449 0-.87.051-1.268.156l.1.37a4.498 4.498 0 011.168-.138h.009c.16.004.306.046.439.122.133.075.243.172.339.294.092.122.165.27.215.434.051.168.073.34.073.526v.202h-1.144c-.229 0-.444.033-.65.1a1.662 1.662 0 00-.54.29 1.424 1.424 0 00-.366.451 1.183 1.183 0 00-.005 1.102c.087.169.201.316.348.442.142.126.316.227.513.299.196.076.407.11.627.11.242 0 .467-.043.673-.127.206-.084.389-.194.544-.337l.01.383zm-7.837 0h3.689l-.009-.395h-3.136l3.136-3.825v-.395h-3.662v.395h3.108l-3.136 3.825.01.395zm-4.825-2.503a2.22 2.22 0 01.164-.699c.092-.218.206-.408.348-.568.142-.16.302-.286.481-.378a1.257 1.257 0 011.154 0c.183.092.343.218.48.378a2.194 2.194 0 01.513 1.266h-3.14zm1.048 2.066a1.742 1.742 0 01-.522-.387 2.066 2.066 0 01-.526-1.296h3.547v-.223c0-.333-.05-.64-.151-.926-.1-.282-.238-.53-.416-.74a2.034 2.034 0 00-.627-.497 1.718 1.718 0 00-.783-.18 1.65 1.65 0 00-.774.188 2.06 2.06 0 00-.632.514 2.421 2.421 0 00-.43.757c-.105.29-.16.598-.16.926v.177c.018.307.087.597.206.862.119.27.27.5.462.703.193.202.408.357.655.471.243.114.508.172.787.172h.138c.045 0 .087-.004.123-.008h.009c.229-.038.444-.088.646-.147.201-.063.389-.135.563-.223l-.17-.341a2.962 2.962 0 01-.283.114 3.53 3.53 0 01-.339.109 3.583 3.583 0 01-.353.084 1.916 1.916 0 01-.338.034c-.225 0-.431-.05-.632-.143zm-3.241.437h.421l-.009-6.387h-.421l.009 6.387zm-5.031-2.503a2.194 2.194 0 01.513-1.267c.142-.16.302-.286.48-.378a1.253 1.253 0 011.154 0c.183.092.343.218.481.378.142.16.256.35.348.568.091.22.146.45.164.699h-3.14zm1.053 2.066a1.742 1.742 0 01-.522-.387 2.066 2.066 0 01-.526-1.296h3.547v-.223c0-.333-.05-.64-.151-.926-.1-.282-.238-.53-.416-.74a2.034 2.034 0 00-.627-.497 1.718 1.718 0 00-.783-.18 1.65 1.65 0 00-.774.188 2.06 2.06 0 00-.632.514 2.421 2.421 0 00-.43.757c-.105.29-.16.598-.16.926v.177c.018.307.087.597.206.862.119.27.27.5.462.703.193.202.408.357.655.471.242.114.508.172.787.172h.138c.045 0 .087-.004.123-.008h.009c.229-.038.444-.088.646-.147.201-.063.389-.135.563-.223l-.17-.341a3.072 3.072 0 01-.283.114 3.53 3.53 0 01-.339.109 3.583 3.583 0 01-.353.084 1.916 1.916 0 01-.338.034c-.225 0-.435-.05-.632-.143zm-4.852.05h-1.621V58.78h1.799c.215.013.417.06.609.135.192.076.357.18.499.303.142.126.252.269.33.433.082.164.119.337.119.522 0 .19-.042.37-.119.534a1.493 1.493 0 01-.33.442 1.744 1.744 0 01-1.108.446h-.178v.004zm.183-5.63c.201.013.389.051.558.114.17.063.321.152.449.265.128.11.229.236.302.379.073.143.11.29.11.442 0 .168-.037.324-.11.47a1.158 1.158 0 01-.302.384c-.128.11-.275.193-.449.257a1.72 1.72 0 01-.558.105h-1.799V55.96H132.448v.009zm0 6a2.23 2.23 0 00.782-.151c.243-.097.449-.223.628-.387.178-.164.315-.353.416-.568.101-.215.151-.442.151-.686 0-.345-.1-.66-.306-.942a1.81 1.81 0 00-.829-.627c.302-.143.545-.337.723-.59.183-.248.27-.53.27-.845 0-.21-.05-.408-.146-.598a1.632 1.632 0 00-.394-.496 1.89 1.89 0 00-.581-.34 2.238 2.238 0 00-.719-.14H130.223l.009 6.387h2.042l.174-.017zm-7.705-3.753h2.413l-.522 1.321h-2.422l.531-1.32zm-2.412 1.73h1.268l-.806 2.04h.463l.796-2.04h2.422l-.806 2.04h.462l.797-2.04h1.671l.361-.409h-1.872l.531-1.32h.975l.353-.409h-1.168l.705-1.775h-.453l-.714 1.775h-2.412l.705-1.775h-.454l-.714 1.775h-1.758l-.352.408h1.95l-.522 1.321h-1.066l-.362.409zm-8.666.677c.124.286.293.539.509.753.215.215.466.387.755.514.288.126.595.189.915.189.321 0 .623-.063.907-.19.284-.126.526-.298.737-.513.21-.214.38-.467.503-.753.124-.286.188-.593.188-.921a2.43 2.43 0 00-1.428-2.205 2.194 2.194 0 00-.907-.19c-.32 0-.627.064-.915.19-.289.126-.54.299-.755.513a2.37 2.37 0 00-.696 1.691c0 .329.064.636.187.922zm.39-1.7c.1-.244.238-.454.416-.64.179-.18.385-.323.618-.428.234-.106.485-.156.755-.156.261 0 .509.05.737.155.234.106.431.249.605.43.169.18.306.395.407.64.101.243.151.504.151.782a2.025 2.025 0 01-.558 1.401c-.17.177-.371.32-.605.425a1.76 1.76 0 01-.737.156c-.27 0-.521-.05-.755-.156a2.11 2.11 0 01-.618-.425 1.994 1.994 0 01-.568-1.401c0-.278.051-.539.152-.783zm-1.603-1.586a.42.42 0 00-.123-.021c-.046-.004-.083-.004-.115-.004a1.65 1.65 0 00-.787.19c-.238.125-.44.306-.6.542v-.686h-.471c.013.013.023.063.036.156.01.092.014.19.014.294l.009 4.178h.421l-.009-3.126c.028-.168.078-.32.156-.463.078-.143.174-.265.297-.37.124-.105.257-.185.408-.244.151-.059.311-.088.476-.088h.096l.096.017.096-.375zm-4.124-1.182c.055.05.123.075.206.075a.304.304 0 00.201-.075c.06-.05.092-.11.092-.177 0-.067-.032-.126-.092-.177a.304.304 0 00-.201-.075.292.292 0 00-.206.075.238.238 0 00-.087.177c0 .067.027.126.087.177zm.004 5.831h.412l-.009-4.62h-.412l.009 4.62zm-5.03-2.503a2.22 2.22 0 01.164-.699c.092-.218.206-.408.348-.568.142-.16.302-.286.481-.378.183-.093.371-.14.572-.14.206 0 .403.047.581.14.184.092.344.218.481.378a2.194 2.194 0 01.513 1.266h-3.14zm1.052 2.066a1.75 1.75 0 01-.521-.387 1.96 1.96 0 01-.367-.577 2.089 2.089 0 01-.16-.72h3.548v-.222c0-.333-.051-.64-.151-.926a2.355 2.355 0 00-.417-.74 2.022 2.022 0 00-.627-.497 1.718 1.718 0 00-.783-.18c-.274 0-.531.062-.773.188a2.037 2.037 0 00-.632.514 2.421 2.421 0 00-.43.757c-.106.29-.161.598-.161.926v.177c.019.307.087.597.206.862.119.27.27.5.463.703.192.202.407.357.654.471.243.114.508.172.788.172h.137c.046 0 .087-.004.124-.008h.009c.229-.038.444-.088.645-.147.202-.063.389-.135.563-.223l-.169-.341a2.989 2.989 0 01-.284.114c-.105.042-.22.075-.339.109a3.565 3.565 0 01-.352.084 1.927 1.927 0 01-.339.034c-.224 0-.435-.05-.632-.143zm-2.581-4.212a.432.432 0 00-.124-.021c-.046-.004-.082-.004-.114-.004-.289 0-.55.063-.788.19a1.656 1.656 0 00-.599.542v-.686h-.472c.014.013.023.063.037.156.009.092.013.19.013.294l.01 4.178h.421l-.009-3.126c.027-.168.077-.32.155-.463.078-.143.174-.265.298-.37a1.4 1.4 0 01.407-.244c.151-.059.311-.088.476-.088h.096l.096.017.097-.375zm-4.13-1.182c.055.05.124.075.207.075a.306.306 0 00.2-.075c.06-.05.093-.11.093-.177 0-.067-.033-.126-.092-.177a.306.306 0 00-.201-.075.293.293 0 00-.206.075.238.238 0 00-.088.177c0 .067.033.126.088.177zm.01 5.831h.412l-.01-4.62h-.412l.01 4.62zm-5.031-2.503c.018-.248.073-.48.165-.699.091-.218.206-.408.347-.568.142-.16.303-.286.481-.378a1.253 1.253 0 011.154 0c.183.092.343.218.48.378.142.16.257.35.348.568.092.22.147.45.165.699h-3.14zm1.053 2.066a1.745 1.745 0 01-.522-.387 2.078 2.078 0 01-.526-1.296h3.547v-.223c0-.333-.05-.64-.151-.926-.1-.282-.238-.53-.417-.74a2.028 2.028 0 00-.627-.497 1.715 1.715 0 00-.782-.18c-.275 0-.532.062-.774.188a2.047 2.047 0 00-.632.514 2.426 2.426 0 00-.43.757c-.105.29-.16.598-.16.926v.177c.018.307.087.597.206.862.119.27.27.5.462.703.192.202.407.357.655.471.242.114.508.172.787.172h.137c.046 0 .087-.004.124-.008h.009c.229-.038.444-.088.645-.147.202-.063.39-.135.564-.223l-.17-.341a3.04 3.04 0 01-.284.114c-.105.042-.22.075-.338.109a3.574 3.574 0 01-.353.084 1.925 1.925 0 01-.339.034 1.47 1.47 0 01-.631-.143zm-3.246.437h.421l-.009-6.387h-.421l.01 6.387zm-5.026-2.503c.018-.248.073-.48.165-.699.091-.218.206-.408.347-.568.142-.16.303-.286.481-.378a1.253 1.253 0 011.154 0c.183.092.343.218.48.378.142.16.257.35.348.568.092.22.147.45.165.699h-3.14zm1.048 2.066a1.745 1.745 0 01-.522-.387 1.966 1.966 0 01-.366-.577 2.08 2.08 0 01-.16-.72h3.547v-.222c0-.333-.05-.64-.15-.926-.101-.282-.239-.53-.417-.74a2.028 2.028 0 00-.627-.497 1.715 1.715 0 00-.783-.18c-.275 0-.531.062-.774.188a2.046 2.046 0 00-.631.514 2.424 2.424 0 00-.43.757c-.106.29-.161.598-.161.926v.177c.018.307.087.597.206.862.119.27.27.5.462.703.193.202.408.357.655.471.243.114.508.172.787.172h.138c.046 0 .087-.004.123-.008h.01c.228-.038.444-.088.645-.147.201-.063.389-.135.563-.223l-.17-.341a3.04 3.04 0 01-.283.114c-.106.042-.22.075-.339.109a3.574 3.574 0 01-.353.084 1.925 1.925 0 01-.338.034c-.224 0-.43-.05-.632-.143zm-6.528.16c.174.105.394.189.655.252.26.063.55.105.865.114.334-.005.65-.072.939-.198.288-.126.544-.299.764-.513a2.389 2.389 0 00.71-1.683c0-.32-.065-.623-.193-.91a2.573 2.573 0 00-.517-.757 2.434 2.434 0 00-.764-.517 2.342 2.342 0 00-.939-.19c-.302 0-.581.03-.838.093a2.02 2.02 0 00-.65.27v-2.07h-.42v5.52c-.005.155-.02.29-.033.408-.014.105-.023.202-.032.294a.403.403 0 01-.032.169h.494l-.009-.282zm0-3.514c.019-.067.073-.13.16-.193.087-.063.202-.114.34-.16.137-.046.292-.08.466-.105.174-.025.357-.038.554-.038.27 0 .522.054.764.16a2.074 2.074 0 011.063 1.064 1.912 1.912 0 010 1.527 1.995 1.995 0 01-.43.632 2.178 2.178 0 01-.633.429c-.242.11-.494.164-.764.172a4.382 4.382 0 01-.59-.054 2.291 2.291 0 01-.481-.127 1.054 1.054 0 01-.325-.18c-.082-.068-.12-.14-.12-.215v-2.912h-.004zm-2.353 2.487a.805.805 0 01-.096.391 1.046 1.046 0 01-.26.316c-.11.088-.239.16-.39.214-.146.05-.306.08-.471.08-.17 0-.325-.025-.467-.08a1.105 1.105 0 01-.376-.214.968.968 0 01-.251-.316.883.883 0 01-.092-.391c0-.156.032-.294.1-.42a1.01 1.01 0 01.27-.325c.115-.088.248-.16.4-.206.15-.05.31-.076.489-.076h1.144v1.027zm.01 1.304h.471c-.014-.012-.023-.059-.037-.143a2.81 2.81 0 01-.022-.328c-.005-.135-.014-.286-.014-.454-.005-.169-.005-.341-.005-.518v-.568c0-.19.005-.357.01-.505 0-.172.004-.336.008-.488v-.092a1.82 1.82 0 00-.471-1.111 1.529 1.529 0 00-.462-.337 1.386 1.386 0 00-.554-.135h-.01c-.448 0-.87.051-1.267.156l.1.37a4.49 4.49 0 011.168-.138h.009c.16.004.306.046.44.122.132.075.242.172.338.294.092.122.165.27.215.434.05.168.073.34.073.526v.202h-1.144c-.229 0-.444.033-.65.1a1.669 1.669 0 00-.54.29 1.437 1.437 0 00-.367.451 1.187 1.187 0 00-.004 1.102c.087.169.201.316.348.442.142.126.316.227.513.299.196.076.407.11.627.11.242 0 .467-.043.673-.127.206-.084.389-.194.544-.337l.01.383zm-4.084-5.537a3.023 3.023 0 00-2.151-.888c-.444 0-.856.089-1.236.265-.38.177-.714.413-1.003.707a3.34 3.34 0 00-.673 1.031 3.15 3.15 0 00-.247 1.233c0 .45.087.875.261 1.27a3.402 3.402 0 001.707 1.743 2.922 2.922 0 002.358.025c.362-.156.682-.375.966-.652l-.284-.261a2.991 2.991 0 01-.847.551 2.487 2.487 0 01-1.007.198c-.394 0-.76-.076-1.09-.232a2.785 2.785 0 01-.86-.622 2.984 2.984 0 01-.774-2.02c0-.395.074-.766.216-1.11a2.8 2.8 0 01.59-.905c.247-.257.536-.463.865-.61.33-.148.682-.224 1.058-.224.361 0 .7.068 1.02.203.32.134.6.32.852.555v.03l.28-.287zm-7.05 5.537h.472c-.014-.012-.027-.063-.041-.147a1.902 1.902 0 01-.018-.294v-4.178h-.422v3.142a1.343 1.343 0 01-.842 1.073 1.305 1.305 0 01-1.41-.29 1.47 1.47 0 01-.293-.416 1.246 1.246 0 01-.119-.505l-.018-.047v-2.94h-.412v2.94l.032.047c.005.235.055.454.142.66.087.206.206.387.357.543a1.617 1.617 0 001.181.5c.288 0 .554-.067.796-.201a1.81 1.81 0 00.596-.526v.639zM58.5 59.482c.018-.248.073-.48.164-.699.092-.218.206-.408.348-.568.142-.16.303-.286.481-.378a1.253 1.253 0 011.154 0c.178.092.343.218.48.378.142.16.257.35.348.568.092.22.147.45.165.699H58.5zm1.053 2.066a1.743 1.743 0 01-.522-.387 1.966 1.966 0 01-.367-.577 2.08 2.08 0 01-.16-.72h3.548v-.222c0-.333-.05-.64-.151-.926-.1-.282-.238-.53-.417-.74a2.028 2.028 0 00-.627-.497 1.715 1.715 0 00-.783-.18c-.274 0-.53.062-.773.188a2.046 2.046 0 00-.632.514 2.426 2.426 0 00-.43.757 2.69 2.69 0 00-.16.926v.177c.018.307.087.597.206.862.119.27.27.5.462.703.192.202.407.357.654.471.243.114.509.172.788.172h.137c.046 0 .087-.004.124-.008h.009c.229-.038.444-.088.645-.147.202-.063.39-.135.563-.223l-.169-.341a3.038 3.038 0 01-.284.114 3.46 3.46 0 01-.338.109 3.574 3.574 0 01-.353.084 1.925 1.925 0 01-.339.034 1.47 1.47 0 01-.631-.143zm-5.475-2.382l-2.303-3.568h-.421l.009 6.387h.421l-.009-5.638 2.16 3.375h.262l2.133-3.375.009 5.638h.43l-.009-6.387h-.43l-2.252 3.568zm-4.157.955c.17-.404.252-.845.252-1.325 0-.45-.083-.87-.243-1.267a3.125 3.125 0 00-.663-1.026 3.18 3.18 0 00-1.003-.69 3.088 3.088 0 00-1.254-.253c-.435 0-.847.085-1.227.253-.38.168-.719.4-1.007.694a3.252 3.252 0 00-.925 2.289c0 .463.087.892.256 1.296.17.4.399.749.687 1.04.288.294.623.52 1.007.69.38.167.783.247 1.209.247a3.1 3.1 0 001.204-.23c.37-.157.7-.375.988-.666.316-.299.554-.648.72-1.052zm-.38-2.486c.156.353.234.74.234 1.161a2.954 2.954 0 01-.788 2.032c-.242.261-.535.463-.874.615-.339.151-.7.227-1.09.227-.38 0-.737-.076-1.07-.227a2.838 2.838 0 01-.866-.615 2.954 2.954 0 01-.787-2.032c0-.395.068-.766.21-1.11a2.764 2.764 0 011.451-1.506c.33-.148.687-.224 1.062-.224.371 0 .714.067 1.04.198.325.134.604.32.837.56.27.26.486.567.641.92zm-11.229 2.987a2.395 2.395 0 001.264 1.267c.288.126.595.189.915.189.32 0 .623-.063.906-.19.284-.126.527-.298.737-.513.211-.214.38-.467.504-.753a2.3 2.3 0 00.188-.921 2.36 2.36 0 00-.188-.934 2.431 2.431 0 00-1.24-1.271 2.19 2.19 0 00-.907-.19c-.325 0-.627.064-.916.19-.288.126-.54.299-.755.513a2.366 2.366 0 00-.508.758 2.38 2.38 0 000 1.856zm.39-1.7c.1-.244.237-.454.416-.64.178-.18.384-.323.618-.428.233-.106.485-.156.755-.156.261 0 .508.05.737.155.233.106.43.249.604.43.17.18.307.395.408.64.1.243.15.504.15.782a2.013 2.013 0 01-.559 1.401c-.168.177-.37.32-.603.425a1.761 1.761 0 01-.737.156c-.27 0-.522-.05-.755-.156a2.097 2.097 0 01-.618-.425 1.999 1.999 0 01-.568-1.401c0-.278.05-.539.151-.783zm-2.422-2.768c.054.05.123.075.206.075a.306.306 0 00.201-.075c.06-.05.092-.11.092-.177a.229.229 0 00-.092-.177.306.306 0 00-.201-.075.293.293 0 00-.206.075.238.238 0 00-.087.177c0 .067.032.126.087.177zm.009 5.831h.412l-.01-4.62h-.412l.01 4.62zm-5.92-1.363a2.395 2.395 0 001.264 1.267c.289.126.595.189.916.189.32 0 .622-.063.906-.19.284-.126.526-.298.737-.513.21-.214.38-.467.504-.753a2.3 2.3 0 00.187-.921 2.36 2.36 0 00-.187-.934 2.431 2.431 0 00-1.24-1.271 2.19 2.19 0 00-.907-.19c-.325 0-.627.064-.916.19-.288.126-.54.299-.755.513a2.366 2.366 0 00-.508.758 2.36 2.36 0 00-.188.934c0 .328.064.635.188.921zm.385-1.7c.101-.244.238-.454.417-.64.178-.18.384-.323.618-.428.233-.106.485-.156.755-.156.261 0 .508.05.737.155.234.106.43.249.604.43.17.18.307.395.408.64.1.243.15.504.15.782a2.013 2.013 0 01-.559 1.401c-.168.177-.37.32-.603.425a1.762 1.762 0 01-.737.156c-.27 0-.522-.05-.755-.156a2.1 2.1 0 01-.618-.425 1.999 1.999 0 01-.568-1.401c0-.278.05-.539.151-.783zm-5.57-1.548h-.504a.465.465 0 01.04.16 3.407 3.407 0 01.06.677v5.575h.412V61.7c.174.105.394.19.66.257.265.067.544.1.837.1.334 0 .65-.062.948-.188a2.412 2.412 0 001.479-2.213c0-.329-.065-.632-.193-.922a2.48 2.48 0 00-.517-.749 2.506 2.506 0 00-1.717-.707 3.25 3.25 0 00-.856.105c-.26.072-.48.16-.654.265v-.273h.004zm0 .841c0-.075.04-.143.118-.206.083-.063.188-.122.32-.172.133-.05.294-.089.477-.114.183-.03.38-.042.59-.042.275 0 .536.05.779.156.242.105.457.248.636.425.183.18.325.387.425.627.106.24.156.496.156.765 0 .278-.05.539-.155.783a2.119 2.119 0 01-.426.64 2.075 2.075 0 01-1.415.605 3.856 3.856 0 01-1.016-.155 1.277 1.277 0 01-.33-.152c-.087-.059-.142-.122-.16-.19v-2.97zm-6.99 3.77h.443l1.067-2.65h2.444l1.085 2.65h.444l-2.572-6.387h-.353l-2.559 6.387zm1.66-3.042l1.067-2.663 1.076 2.663h-2.142zm-3.428 3.042h.472c-.014-.012-.028-.063-.042-.147a1.902 1.902 0 01-.018-.294v-4.178h-.421v3.142a1.345 1.345 0 01-.842 1.073 1.305 1.305 0 01-1.41-.29 1.47 1.47 0 01-.293-.416 1.248 1.248 0 01-.12-.505l-.018-.047v-2.94h-.412v2.94l.033.047c.004.235.054.454.141.66.087.206.206.387.357.543a1.617 1.617 0 001.181.5c.289 0 .554-.067.797-.201a1.81 1.81 0 00.595-.526v.639zm-5.03-3.597H8.327v-2.424h3.59v-.37H7.901l.01 6.387h4.014l-.009-.387H8.328v-2.819h3.067v-.387zm-8.877-.173h2.413l-.522 1.321H1.988l.531-1.32zm-2.417 1.73H1.37l-.806 2.04h.463l.796-2.04h2.422l-.806 2.04h.463l.796-2.04h1.67l.363-.409H4.858l.531-1.32h.975l.353-.409H5.55l.704-1.775h-.453l-.714 1.775H2.675l.705-1.775h-.454l-.714 1.775H.455l-.353.408h1.95l-.522 1.321H.464l-.362.409z" fill="#000"/><path d="M1.466 71.536h111.746v.842H1.466" fill="#8279B2"/><path d="M224.312 11.369c-.22.176-.476.324-.645.534-.792.976-1.557 1.97-2.33 2.958-.074.092-.152.177-.252.294-.138-.155-.252-.273-.357-.4-.302-.353-.582-.723-.902-1.06-1.346-1.418-2.879-2.625-4.793-3.336-3.9-1.443-7.622-1.014-11.087 1.119-3.951 2.432-5.64 6.921-4.262 11.087.641 1.935 1.794 3.606 3.172 5.158 1.772 1.995 3.836 3.716 5.919 5.432a500.419 500.419 0 017.929 6.657c1.153.992 2.183 2.1 2.943 3.395.234.391.298.732.032 1.128-.151.223-.233.488-.352.732-.49 1.005-.581 2.061-.449 3.139.037.29.147.584.289.85.329.605 1.021.92 1.698.824.719-.105 1.328-.644 1.419-1.317.05-.366.101-.761.014-1.115-.22-.892-.435-1.8-.806-2.642-.274-.627-.128-1.065.311-1.49.971-.934 1.886-1.927 2.953-2.764 3.342-2.63 8.689-6.825 12.071-9.408l-.906-.698c-1.373 1.09-4.779 3.938-6.18 5.002-2.952 2.239-5.933 4.444-8.656 6.922-.133.122-.302.21-.385.265-.856-.976-1.625-1.944-2.495-2.828-2.22-2.255-4.751-4.211-7.214-6.231-1.936-1.582-3.873-3.168-5.745-4.813-1.524-1.343-2.838-2.862-3.804-4.6-1.227-2.204-1.557-4.53-.787-6.908.924-2.865 3.039-4.788 5.996-5.954 2.051-.808 4.193-.9 6.327-.446 2.472.526 4.477 1.814 6.056 3.623.71.812 1.309 1.708 1.964 2.562.068.089.183.148.274.223.074-.088.17-.172.22-.269.22-.438.398-.892.646-1.313.727-1.228 1.432-2.482 2.906-3.138l-.732-1.174zm-3.062 36.92c-.037.278-.165.548-.467.556-.211.008-.467-.147-.628-.299-.141-.134-.219-.353-.251-.547-.174-.963.146-1.85.554-2.726.421.984.938 1.927.792 3.017z" fill="#E48E9E"/><path d="M252.808 24.98c-.013-.442-.023-.875-.036-1.308-.376-.068-.728-.064-1.012-.198-1.401-.657-2.582-.181-3.731.543l-.046.025c-4.243 2.188-7.933 4.96-10.757 8.646a.517.517 0 01-.275.181c-.581.11-1.446-.324-1.822-.896-.467-.711-.462-1.157.009-1.738 1.525-1.893 3.136-3.715 4.954-5.377.109-.1.119-.316.137-.48.027-.282-.092-.685.064-.82.169-.143.613-.093.897-.009.27.08.421.047.641-.1.71-.48 1.396-1.01 2.179-1.368 1.094-.5 1.099-1.822.545-2.5a24.286 24.286 0 01-1.598-2.162c-1.51-2.33-2.98-4.683-4.101-7.203-.124-.282-.087-.45.141-.657 1.342-1.215 2.692-2.427 3.992-3.681.408-.396.728-.412 1.241-.21 2.719 1.072 5.246 2.474 7.823 3.795 3.117 1.603 4.985 4.035 5.933 7.132.174.576.311 1.165.494 1.842.485-.05.98-.1 1.52-.16-.101 3.076-3.406 5.799-7.192 6.703zm1.268-5.554c-1.652 1.633-3.589 1.936-6.299.989.651 1.128 2.761 1.851 4.546 1.557 2.28-.375 4.033-2.058 4.321-4.145.234-1.708-.677-3.593-2.018-4.17 1.208 2.348 1.03 4.212-.55 5.77zM240.023 0l-7.232 6.648c1.583.711 3.131 1.405 4.692 2.108 1.561-1.435 3.103-2.849 4.632-4.27.078-.072.151-.245.115-.32-.719-1.38-1.456-2.76-2.207-4.166z" fill="#383838"/><path d="M254.63 13.658c.573 1.119.834 2.124.779 3.046-.06 1.01-.504 1.91-1.328 2.726-1.034 1.023-2.179 1.523-3.552 1.523-.824 0-1.731-.18-2.747-.534.27.467.792.867 1.438 1.153.219.097.453.18.695.248.472.135.98.21 1.488.219h.192c.248-.004.49-.025.728-.063.376-.063.733-.16 1.076-.286 1.74-.652 3.008-2.112 3.246-3.859.018-.147.032-.29.036-.437a4.553 4.553 0 00-.819-2.689c-.339-.475-.755-.841-1.232-1.047z" fill="#A6A9AF"/><path d="M249.22 21.568zm7.461-4.183a3.517 3.517 0 01-.036.438c-.238 1.746-1.506 3.206-3.246 3.858 1.74-.652 3.008-2.112 3.246-3.858.022-.143.032-.29.036-.438zm-1.272-.681c-.06 1.01-.504 1.91-1.328 2.726-1.034 1.023-2.179 1.523-3.552 1.523-.824 0-1.731-.18-2.747-.534 1.016.358 1.923.534 2.747.534 1.373 0 2.518-.5 3.552-1.523.824-.82 1.264-1.72 1.328-2.726zm-.779-3.046c.472.206.893.572 1.232 1.039-.339-.467-.756-.833-1.232-1.04zM225.269 12.45c.119-.03.229-.021.366.084.11.08.321.135.449.093a49.73 49.73 0 002.54-.871c.229-.084.422-.143.682-.126.238.012.513-.14.719-.287.069-.05.018-.323-.064-.454-.174-.286-.101-.463.165-.652a40.74 40.74 0 001.378-1.031c.178-.135.151-.294.023-.454-.133-.169-.289-.156-.454-.05-.238.15-.471.315-.705.47-.361.24-.727.48-1.116.74-.307-.424-.559-.82-.861-1.181-.229-.278-.151-.434.124-.615.489-.324.956-.677 1.437-1.018.243-.177.119-.362.009-.539-.133-.214-.288-.109-.435-.012-.462.307-.915.623-1.378.926-.435.286-.439.286-.783-.08-.068-.072-.137-.14-.27-.27-.224.236-.521.425-.608.678-.078.223-.17.4-.348.56-.71.63-1.245 1.375-1.703 2.175-.064.113-.083.32-.014.412.064.084.082.151.073.21" fill="#383838"/></svg>