<svg fill="none" height="62" width="176" xmlns="http://www.w3.org/2000/svg"><clipPath id="prefix__a"><path d="M0 16h121.295v32H0z"/></clipPath><g clip-path="url(#prefix__a)" fill="#00093c" opacity=".4"><path d="M9.874 44.019H8.93c-.18 0-.228.054-.238.197l-.248.003-.003-.492h3.437v.486l-.248.003c-.013-.143-.061-.197-.238-.197h-.954l.007 3.118c0 .438.078.554.336.554v.18H9.545v-.18c.346 0 .336-.12.336-.554zm-.333 3.852v-.18zm0 0v-.18zm12.17-.734c0 .228.014.38.055.449.037.057.047.081.19.088l.03.017v.176h-1.114v-.176l.031-.017c.143-.007.15-.03.187-.088.04-.065.054-.221.054-.449V45.81H18.76v1.328c0 .228.013.38.054.449.037.057.037.081.18.088l.03.017v.176h-1.11v-.176l.03-.017c.143-.007.16-.03.194-.088.04-.065.055-.221.055-.449v-2.676c0-.228-.01-.38-.055-.445-.037-.061-.05-.085-.193-.092l-.031-.017v-.177h1.11v.18l-.03.017c-.143.007-.146.03-.18.092-.04.065-.054.22-.054.445v1.06h2.384v-1.06c0-.227-.01-.38-.054-.445-.034-.061-.044-.085-.187-.092l-.03-.017v-.176h1.114v.18l-.031.017c-.143.007-.153.03-.19.092-.041.064-.055.22-.055.444zm16.491-.044c.055.119.12.282.19.408.065.112.133.19.238.203l.055.017v.177h-1.182v-.177l.07-.017c.127-.006.201-.047.201-.118 0-.082-.064-.238-.125-.38l-.276-.687h-1.715l-.166.4c-.055.126-.208.524-.208.619 0 .126.038.15.221.166l.051.017v.177h-.954v-.177l.037-.017c.143-.013.255-.135.323-.292l1.06-2.411c.183-.418.387-.86.546-1.288h.19zm-.937-.815l-.75-1.777-.758 1.777zm8.593.88l1.09-2.82c.126-.322.058-.377-.098-.387l-.078-.017v-.176h.863v.18l-.041.016c-.126.014-.2.143-.32.432l-1.039 2.51c-.142.34-.275.68-.38 1.043h-.299a8.496 8.496 0 00-.346-.985l-1.121-2.755c-.078-.19-.16-.238-.262-.244l-.047-.017v-.177h1.12v.18l-.102.017c-.112.007-.17.04-.115.183zm7.992-2.67c0-.228-.013-.38-.054-.445-.037-.061-.047-.085-.19-.092l-.03-.017v-.204h2.866l-.095.503-.207.003v-.044c0-.078-.003-.16-.054-.16l-1.668-.003v1.617l1.321-.003.078-.255h.18c-.006.244-.016.217-.016.438s.013.194.016.408h-.18l-.078-.303-1.321.004v1.667h1.705c.102 0 .167.031.207-.326h.208a8.548 8.548 0 00-.096.608l-2.873.004v-.163s.19-.048.227-.109c.041-.064.055-.22.055-.448zm28.93 0c0-.228-.013-.38-.054-.445-.038-.061-.048-.085-.19-.092l-.03-.017v-.204h2.866l-.095.503-.207.003v-.044c0-.078-.004-.16-.055-.16l-1.668-.003v1.617l1.325-.003s.04-.123.048-.2l.03-.055h.18c-.007.244-.017.217-.017.438s.014.194.017.408h-.18l-.03-.099c-.007-.078-.048-.204-.048-.204l-1.325.004v1.667h1.706c.101 0 .166.031.207-.326h.207c-.058.286-.095.608-.095.608l-2.874.004v-.163s.19-.048.228-.109c.04-.064.054-.22.054-.448zM62.7 44.46c0-.227-.011-.38-.055-.448-.038-.06-.109-.078-.252-.088l-.006-.017v-.18c.261.007.676.007.784 0l2.85 3.515h.017v-2.785c0-.227-.014-.38-.054-.448-.038-.061-.109-.078-.252-.088l-.007-.017v-.18c.238.006.636.006.897 0v.18l-.007.017c-.142.013-.213.03-.247.088-.041.064-.055.22-.055.448v3.41l-.52.007-2.809-3.488h-.01v2.748c0 .227.01.38.055.448.037.058.108.078.25.088l.008.017v.18a19.702 19.702 0 00-.897 0v-.176l.007-.017c.142-.014.214-.03.251-.088.04-.065.054-.221.054-.449v-2.676zm35.42 0c0-.227-.01-.38-.055-.448-.037-.06-.108-.078-.251-.088l-.007-.017v-.18c.262.007.676.007.785 0l2.85 3.515h.017v-2.785c0-.227-.011-.38-.055-.448-.037-.061-.109-.078-.251-.088l-.007-.017v-.18c.238.006.635.006.897 0v.18l-.007.017c-.143.013-.214.03-.251.088-.041.064-.055.22-.055.448v3.41l-.519.007-2.81-3.488h-.013v2.748c0 .227.013.38.054.448.038.058.109.078.252.088l.006.017v.18a19.702 19.702 0 00-.896 0v-.176l.006-.017c.143-.014.214-.03.252-.088.04-.065.054-.221.054-.449v-2.676zm-25.21.01c0-.227-.01-.38-.055-.444-.034-.061-.037-.085-.18-.089l-.03-.016v-.177h1.096v.18l-.03.017c-.143.003-.15.03-.184.088-.04.065-.054.221-.054.445v2.052c0 .845.442 1.09 1.226 1.09.646 0 1.23-.245 1.23-1.233v-1.909c0-.227-.01-.38-.051-.445-.037-.06-.04-.078-.183-.088l-.007-.017v-.177c.696.007.397.007.784 0v.18l-.006.017c-.143.01-.167.03-.204.089-.04.064-.055.22-.055.445V46.2c0 1.273-.482 1.786-1.688 1.786-1.012 0-1.61-.302-1.61-1.396zm47.801 3.207c-.347.21-.934.323-1.301.323-1.43 0-2.395-.815-2.395-2.17 0-.687.269-1.23.727-1.604.445-.37 1.057-.574 1.722-.574a4.39 4.39 0 011.379.245l-.119.516h-.271s.074-.35-.357-.472c-.194-.054-.509-.061-.73-.061-1.121 0-1.712.842-1.712 1.854 0 1.179.781 1.943 1.96 1.943.431 0 .937-.156 1.209-.356l.054.06zM1.264 45.09c-.327 0-.66.135-.66.135l-.003-1.03h1.98v-.468l-2.252-.01.004 1.861.058.038c.207-.062.431-.174.686-.174.404 0 1.042.231.998.972-.044.716-.648 1.168-1.498 1.168-.251 0-.36-.03-.51-.074l-.033.098c.146.109.268.22.357.33 1.09 0 2.156-.727 2.194-1.638.027-.723-.584-1.209-1.321-1.209zm109.481-1.39v.18s.227-.024-.007.404l-.768 1.382-.108.18-.853-1.518a1.683 1.683 0 00-.261-.387c-.191-.187-.309-.214-.309-.214h-.646v.156l.112.017c.15.017.472.353.782.887l.74 1.287a.492.492 0 01.054.238v.35c0 .227-.013.852-.054.917-.037.06-.109.085-.251.088l-.031.017v.18h1.236v-.18l-.03-.017c-.143-.007-.214-.03-.251-.088-.041-.065-.055-.693-.055-.917v-.272c0-.177.031-.306.058-.38l.163-.296.041-.068h-.004l.727-1.325c.156-.285.384-.448.574-.448v-.18h-.859zm-77.566-6.793h-9.273V27.62h4.792c2.745 0 2.956.003 2.956.853h.832V25.31h-.826c0 .846-.217.846-3.067.846H23.91v-5.35c.02-1.019 0-2.112 0-3.284l8.733-.004c1.328 0 2.29-.027 2.29.962h.869l.431-2.456H20.057v.825c.846 0 .832.197.832 2.344s.092 14.772.092 16.127c0 1.773-.078 2.242-2.13 2.242-1.154 0-1.95-.618-3.311-2.663l-3.96-5.4a121.542 121.542 0 01-1.855-2.453c1.44-.316 2.612-.76 3.508-1.338.9-.578 1.587-1.305 2.059-2.174.472-.873.71-1.75.71-2.633 0-.944-.252-1.82-.758-2.622-.503-.805-1.216-1.386-2.133-1.742-.92-.357-2.38-.537-4.388-.537-.262 0-8.292.027-8.723.027v.822c.88 0 .863.696.863 2.347v16.046c0 1.64 0 2.323-.856 2.323v.826H4.66v-.826c-.846 0-.846-.71-.846-2.136l.007-18.305c1.114 0 2.718.004 3.801.004 1.726 0 3.013.38 3.862 1.144.853.765 1.277 1.862 1.277 3.156 0 1.484-.492 2.68-1.48 3.583-.99.904-2.436 1.359-4.345 1.359-.282 0-.696-.017-1.243-.048l-.156.473a95.818 95.818 0 013.141 3.817c.683.85 1.468 1.906 2.358 3.176 1.603 2.283 2.744 3.818 3.427 4.603l21.766-.01.421-2.928h-1.07c-.306 1.464-1.114 1.453-2.401 1.453zM53.65 16.985C52.088 16.33 50.026 16 47.458 16c-.86 0-7.819.034-9.446.034v.757c.84 0 .87.445.87 2.412v16.124c0 2.035-.017 2.303-.87 2.303v.764h7.843c1.93 0 3.444-.153 4.548-.465 1.107-.31 2.16-.768 3.17-1.376 1.005-.608 1.949-1.433 2.829-2.476.88-1.043 1.576-2.262 2.089-3.658.513-1.396.77-2.89.77-4.484 0-2.225-.546-4.106-1.633-5.648-1.09-1.55-2.415-2.646-3.978-3.302zm1.699 13.661c-.364 1.274-.88 2.32-1.55 3.139-.672.819-1.365 1.437-2.085 1.858s-2.045 1.145-6.1 1.145h-3.777l-.027-9.154s-.028-9.616 0-10.13c6.31 0 8.474.198 9.88.942 1.407.743 2.46 1.817 3.156 3.216.696 1.4 1.046 3.078 1.046 5.027 0 1.366-.18 2.684-.543 3.957zm40.444 6.264H86.52v-9.287h4.793c2.744 0 2.955.004 2.955.853h.947v-3.162h-.94c0 .845-.218.845-3.068.845h-4.684v-5.35c.02-1.018 0-2.112 0-3.284l8.733-.003c1.328 0 2.29-.027 2.29.961h.87l.43-2.456H82.679v.822c.846 0 .833.194.833 2.344s.027 14.775.027 16.127c0 1.773-.014 2.242-2.069 2.242-.248 0-.475-.03-.696-.095-.214-.092-.377-.224-.486-.285-.21-.126-1.077-.9-2.598-2.327l-9.467-8.835s8.135-9.164 9.293-9.164c.357 0-.326-.007.673-.007v-.815h-2.534L65.118 27.141l.438.438 7.157 6.715 1.623 1.56a516.111 516.111 0 012.633 2.537h4.497c2.615 0 3.295-.007 3.43-.007 9.005.01 10.22.01 10.66.01l3.284-.003.42-2.935h-1.07c-.301 1.464-1.113 1.454-2.397 1.454zm22.398-20.876v.815c.767 0 .777.15.777 2.15 0 1.383-.02 15.265-.02 15.265-.394-.398-.795-.941-1.376-1.634-.91-1.046-2.119-2.48-3.62-4.303l-4.691-5.717-3.217-4.005a477.502 477.502 0 00-1.936-2.571h-3.784v.808c.893 0 .883.259.883 1.76-.041 9.813-.027 10.186-.027 16.762 0 1.862.031 2.201-.856 2.201v.826h3.22v-.822c-.768 0-.808-.3-.808-2.18 0-1.414.013-16.064.013-16.064l16.168 19.066h1.607V19.006c0-2.072.01-2.164.768-2.164v-.808z"/><path d="M64.642 35.218V19.094c0-2.034.017-2.303.87-2.303v-.764h-2.83c-.846.004-1.545.004-1.936.004v.757c.836 0 .87.445.87 2.412v16.124c0 2.034-.017 2.303-.87 2.303v.764h2.062c.914-.004 2.31-.004 2.7-.004v-.76c-.832-.004-.866-.442-.866-2.409z"/></g></svg>