<svg fill="none" height="172" width="568" xmlns="http://www.w3.org/2000/svg"><g fill="#000"><path d="M429.193 87.71h.09c.98 0 1.91.17 2.8.5.88.33 1.66.78 2.32 1.35.66.57 1.19 1.23 1.59 1.99.39.76.589 1.56.589 2.42 0 .88-.199 1.71-.589 2.459-.4.76-.92 1.41-1.59 1.97-.66.55-1.44.99-2.32 1.3-.88.32-1.82.47-2.8.47h-7.389V87.71zm-7.199 14.448l14.538 16.438h2.56l-14.498-16.438h4.689c1.29 0 2.5-.21 3.62-.64s2.1-1.009 2.94-1.75a8.329 8.329 0 001.989-2.61c.49-.989.73-2.059.73-3.199s-.24-2.2-.73-3.17a8.246 8.246 0 00-1.989-2.559c-.84-.73-1.82-1.3-2.94-1.73-1.12-.43-2.33-.64-3.62-.64h-9.379l.05 32.736h1.99l-.05-16.438zm-40.315 16.438h2.08l5.019-13.598h11.509l5.119 13.598h2.08L395.357 85.86h-1.66zm7.819-15.588l5.019-13.638 5.07 13.638zm-44.245 15.588h12.179l-.05-.09c1.579-.03 3.059-.479 4.429-1.349s2.57-2.04 3.6-3.51 1.83-3.19 2.419-5.159c.58-1.97.88-4.08.88-6.32s-.3-4.35-.9-6.319c-.599-1.97-1.409-3.7-2.439-5.16-1.03-1.47-2.23-2.629-3.62-3.479s-2.869-1.29-4.449-1.33h-12.079zm12.029-30.746c1.33.03 2.559.43 3.699 1.18 1.14.76 2.13 1.78 2.98 3.08.85 1.3 1.52 2.81 2.01 4.549s.73 3.57.73 5.499c0 1.96-.24 3.8-.73 5.52s-1.15 3.229-1.99 4.519c-.84 1.3-1.82 2.33-2.96 3.1s-2.349 1.18-3.649 1.21v.09h-10.189V87.84h10.099zm-25.527-1.99h-1.99l.05 32.736h1.99zm-37.946 0h-2.13v24.537c.09 1.17.47 2.27 1.14 3.32.66 1.04 1.54 1.96 2.63 2.75s2.36 1.41 3.809 1.869c1.45.46 3 .69 4.64.69 1.58 0 3.08-.23 4.499-.69 1.42-.459 2.67-1.079 3.74-1.869s1.93-1.71 2.56-2.75.98-2.15 1.04-3.32V85.86h-1.99v24.537c-.06.92-.36 1.78-.9 2.58-.54.81-1.26 1.5-2.16 2.08s-1.94 1.05-3.1 1.4c-1.169.35-2.399.52-3.699.52-1.36 0-2.64-.17-3.84-.52s-2.249-.81-3.149-1.4c-.9-.58-1.63-1.28-2.18-2.08-.55-.81-.86-1.67-.92-2.58V85.86zm-15.208 4.36c-1.3-1.42-2.82-2.53-4.57-3.34a13.102 13.102 0 00-5.569-1.21c-2.08 0-4.03.45-5.829 1.35-1.8.9-3.37 2.11-4.71 3.62-1.34 1.52-2.4 3.28-3.169 5.28a17.49 17.49 0 00-1.16 6.318c0 2.31.41 4.48 1.23 6.51.819 2.039 1.919 3.809 3.289 5.329s2.95 2.72 4.74 3.6a12.546 12.546 0 005.609 1.329c1.96 0 3.79-.4 5.499-1.209 1.71-.81 3.22-1.92 4.55-3.34l-1.33-1.33c-1.2 1.2-2.53 2.14-3.98 2.82-1.449.68-3.029 1.02-4.739 1.02-1.86 0-3.58-.39-5.139-1.18-1.56-.79-2.91-1.86-4.05-3.2s-2.03-2.91-2.68-4.689c-.65-1.78-.97-3.67-.97-5.66 0-2.019.34-3.92 1.02-5.689s1.6-3.32 2.77-4.64c1.17-1.33 2.53-2.37 4.07-3.13a11.144 11.144 0 014.969-1.139c1.71 0 3.31.35 4.809 1.04 1.5.7 2.83 1.64 4 2.84v.14zm-72.572 13.928L195.181 85.86h-1.99l.05 32.736h1.989l-.049-28.896 10.188 17.288h1.23L216.638 89.7l.05 28.896h2.04l-.05-32.736h-2.04zm-28.376-3.979h-14.449V87.76h16.908v-1.9h-18.898l.05 32.736h18.898l-.05-1.989h-16.908v-14.449h14.449zm-57.934-20.938h-3.129l-3.13 4.12h1.09zm-18.428 39.365h2.08l5.02-13.598h11.508l5.12 13.598h2.079L114.97 85.86h-1.66zm7.82-15.588l5.019-13.638 5.069 13.638zM88.403 87.75v-1.9H65.046v1.9h10.708l.05 30.836h1.99l-.05-30.836zm-55.654 26.817c.92 1.33 2.16 2.4 3.72 3.22 1.56.819 3.31 1.229 5.24 1.229 1.36 0 2.639-.22 3.839-.66a9.961 9.961 0 003.13-1.819c.88-.77 1.59-1.69 2.11-2.75.52-1.06.78-2.19.78-3.39 0-1.109-.23-2.159-.69-3.169-.46-1.01-1.1-1.91-1.92-2.7s-1.79-1.45-2.91-1.97-2.35-.88-3.67-1.07a9.176 9.176 0 01-3.01-.779c-.93-.43-1.74-.96-2.42-1.61s-1.209-1.39-1.589-2.23c-.38-.84-.57-1.71-.57-2.63 0-.95.22-1.82.66-2.63a6.89 6.89 0 011.78-2.11 8.71 8.71 0 012.56-1.419 8.74 8.74 0 013.01-.52c1.42 0 2.719.28 3.909.83 1.18.55 2.17 1.3 2.96 2.25l1.61-1.28a10.26 10.26 0 00-3.65-2.7c-1.42-.63-3.03-.95-4.83-.95-1.39 0-2.7.22-3.93.66-1.23.44-2.31 1.05-3.219 1.82a8.45 8.45 0 00-2.16 2.77 7.83 7.83 0 00-.78 3.46c0 1.14.24 2.229.71 3.269a8.83 8.83 0 001.97 2.77c.84.809 1.83 1.469 2.98 1.989s2.41.85 3.77.97h.14c1.01.13 1.949.4 2.819.81s1.63.94 2.27 1.59c.65.65 1.15 1.37 1.52 2.18.36.81.54 1.669.54 2.579 0 .92-.21 1.77-.62 2.56-.41.79-.96 1.47-1.66 2.04s-1.51 1.02-2.44 1.35-1.9.5-2.91.5c-1.67 0-3.14-.34-4.41-1.02-1.259-.68-2.269-1.59-3.029-2.72zm-16.068-14.398H2.233V87.76H19.14v-1.9H.243l.05 32.736h18.908l-.05-1.989H2.243v-14.449H16.69v-1.989zM188.381 67.592c.51-.92.99-1.84 1.44-2.76.45-.92.85-1.82 1.22-2.69.36-.88.67-1.68.93-2.4.09-.17.09-.32 0-.45s-.2-.22-.35-.29c-.15-.06-.31-.07-.48-.03s-.28.15-.32.32c-.51 1.41-1.21 3.07-2.08 4.97-.88 1.9-1.89 3.64-3.05 5.23a14.407 14.407 0 01-2.369 2.63c-.86.73-1.75 1.18-2.69 1.349-.86.17-1.58.05-2.18-.35-.6-.41-1.13-.99-1.6-1.76-.509-.9-.899-1.84-1.149-2.82-.26-.98-.46-1.99-.61-3.009-.15-1.03-.27-2.05-.35-3.08-.09-1.03-.24-2.03-.45-3.01s-.57-1.61-1.06-1.89-.91-.2-1.25.22c-.21.21-.34.49-.38.83-.04.34-.11.68-.19 1.03-.17.43-.57 1.19-1.19 2.28s-1.31 2.21-2.08 3.37c-.769 1.15-1.539 2.17-2.309 3.05s-1.39 1.29-1.86 1.25c-.56-.04-.93-.43-1.12-1.15-.19-.73-.25-1.6-.16-2.63.09-1.03.28-2.14.58-3.33.3-1.2.68-2.29 1.15-3.27s.99-1.8 1.57-2.439c.58-.64 1.16-.92 1.76-.83.339.04.749.24 1.219.58s.88.94 1.22 1.8c.09.26.21.42.38.48s.32.05.45-.03c.13-.09.22-.22.29-.42s.03-.42-.1-.67c-.47-.9-.97-1.58-1.51-2.05-.53-.47-1.17-.73-1.889-.77-1.24-.04-2.38.32-3.43 1.09s-1.93 1.76-2.66 2.98c-.73 1.22-1.26 2.53-1.6 3.94-.34 1.41-.45 2.709-.32 3.909.13 1.2.51 2.19 1.15 2.98s1.6 1.14 2.89 1.06c.64-.04 1.32-.37 2.05-.99.73-.62 1.45-1.38 2.179-2.28.73-.9 1.41-1.85 2.05-2.85.64-1 1.18-1.93 1.6-2.79.04.98.13 1.98.26 2.98s.32 1.98.58 2.92.59 1.85.99 2.72c.41.88.95 1.66 1.63 2.34 1.539 1.619 3.419 2.239 5.639 1.859 1.11-.21 2.16-.73 3.14-1.54s1.899-1.8 2.759-2.95c.59-.86 1.15-1.72 1.66-2.64zm-56.893 41.285a7.258 7.258 0 01-1.67-1.73c-.49-.71-.89-1.5-1.19-2.37-.3-.88-.49-1.739-.58-2.599-.3-2.86.03-5.55.99-8.05.96-2.5 2.31-4.809 4.04-6.919 1.729-2.11 3.719-4.03 5.959-5.739s4.499-3.23 6.759-4.55c0 1.92-.1 3.8-.29 5.64s-.46 3.78-.8 5.83c-.38 2.269-.89 4.669-1.51 7.208s-1.389 4.86-2.309 6.96c-.92 2.089-1.99 3.809-3.21 5.159s-2.62 1.98-4.2 1.89a3.706 3.706 0 01-1.989-.73zm18.268-28.597c.06-2.33-.12-4.18-.54-5.55 1.28-.979 2.619-2.049 4.009-3.209 1.39-1.15 2.71-2.37 3.98-3.65a39.528 39.528 0 003.429-3.979c1.03-1.37 1.84-2.76 2.44-4.17.17-.38.06-.64-.32-.77s-.66-.02-.83.32c-.68 1.37-1.51 2.7-2.47 4.01-.959 1.3-2.019 2.54-3.169 3.72s-2.37 2.31-3.65 3.4-2.559 2.13-3.849 3.109c-.34-.77-.73-1.41-1.15-1.92-.43-.51-.87-.96-1.31-1.35-.45-.38-.88-.77-1.28-1.15-.41-.38-.74-.83-.99-1.35-.34-.64-.18-1.24.48-1.8.66-.549 1.44-1.149 2.34-1.799s1.74-1.38 2.53-2.21 1.16-1.83 1.12-2.98c-.09-1.71-.7-3.049-1.83-4.009s-2.45-1.44-3.94-1.44c-.86 0-1.67.16-2.44.48-.769.32-1.459.75-2.079 1.28-.62.53-1.17 1.15-1.63 1.86-.47.71-.83 1.42-1.09 2.15-.09.21-.09.38 0 .51s.2.22.35.29c.15.06.3.08.45.03.15-.04.27-.17.35-.38.26-.6.57-1.2.93-1.8.36-.6.8-1.14 1.31-1.64.51-.49 1.08-.88 1.699-1.15a4.84 4.84 0 012.02-.42c1.11 0 2.03.38 2.76 1.15s.96 1.8.71 3.08c-.17.86-.74 1.65-1.7 2.37-.96.73-1.89 1.47-2.79 2.24s-1.529 1.579-1.889 2.439-.03 1.8.989 2.82c.3.34.63.68.99 1.03.36.34.71.76 1.03 1.25.32.49.59 1.09.8 1.8s.32 1.549.32 2.529a88.414 88.414 0 00-7.209 4.9c-2.41 1.819-4.55 3.819-6.409 6.028-1.86 2.2-3.3 4.63-4.33 7.28s-1.37 5.529-1.03 8.659c.13.98.37 1.979.74 2.979.36 1 .82 1.9 1.38 2.69s1.21 1.45 1.96 1.99c.75.53 1.57.82 2.47.87 1.709.13 3.329-.36 4.869-1.47s2.95-2.64 4.229-4.58c1.28-1.949 2.44-4.239 3.46-6.889 1.03-2.65 1.86-5.47 2.5-8.459.78-3.76 1.22-6.809 1.28-9.139zm-28.077-20.577c-.36.11-.78.22-1.25.35.3-.68.66-1.3 1.09-1.86.51-.68 1-1.06 1.47-1.12s.8.02.99.26.2.56.03.96c-.17.41-.62.76-1.35 1.06-.28.13-.62.25-.98.35zm1.64.42c1.11-.51 1.739-1.12 1.889-1.83s-.01-1.28-.479-1.73c-.47-.45-1.19-.65-2.15-.61s-1.98.53-3.05 1.47c-.81.73-1.5 1.67-2.05 2.82a13.52 13.52 0 00-1.15 3.62 12.04 12.04 0 00-.03 3.779c.19 1.26.65 2.34 1.38 3.24.86 1.11 1.96 1.76 3.3 1.96 1.35.19 2.79.05 4.329-.42 1.41-.43 2.78-1.1 4.1-2.02s2.56-1.96 3.72-3.11a28.687 28.687 0 003.139-3.72c.94-1.32 1.73-2.61 2.37-3.85.09-.17.1-.33.03-.48-.06-.15-.17-.26-.32-.32s-.31-.06-.48 0-.3.18-.38.35c-.6 1.24-1.35 2.47-2.24 3.69-.9 1.22-1.879 2.37-2.949 3.46-1.07 1.09-2.21 2.06-3.43 2.92s-2.47 1.5-3.75 1.92c-1.329.47-2.439.6-3.329.38-.9-.21-1.58-.88-2.05-1.99-.47-1.15-.66-2.5-.58-4.04.09-1.54.36-3.08.83-4.62 1.32-.14 2.43-.44 3.33-.87zm-20.548-14.839c.23-1.82.58-3.81 1.03-5.989.45-2.18.99-4.39 1.63-6.64.64-2.239 1.4-4.269 2.28-6.089.879-1.82 1.889-3.28 3.049-4.389 1.15-1.11 2.46-1.62 3.91-1.54 1.11.09 1.959.58 2.529 1.47.58.9 1.01 1.84 1.31 2.82.34 1.24.54 2.69.61 4.36.06 1.669-.12 3.529-.54 5.579l-.58 2.31c-.64 2.179-1.47 4.109-2.499 5.799-1.03 1.69-2.2 3.15-3.53 4.39-1.45 1.369-3 2.479-4.649 3.329-1.65.86-3.34 1.45-5.1 1.8.04-.47.06-.96.06-1.47s.02-1.03.06-1.54c.05-.99.19-2.39.43-4.2zm13.748-1.67c1.11-1.77 1.99-3.789 2.63-6.059.13-.43.25-.84.35-1.25.11-.41.2-.8.29-1.19.47-2.14.67-4.089.61-5.869-.06-1.77-.29-3.32-.67-4.65-.38-1.24-.97-2.399-1.76-3.489s-1.869-1.68-3.239-1.76c-1.45-.09-2.84.3-4.17 1.15-1.33.86-2.56 2.06-3.719 3.62-1.15 1.56-2.2 3.41-3.14 5.55a52.03 52.03 0 00-2.44 6.888c-.68 2.46-1.24 5.01-1.67 7.66-.43 2.65-.71 5.279-.83 7.888-.13 3.16-.04 6.18.26 9.04.3 2.86.84 5.349 1.63 7.469.79 2.12 1.86 3.74 3.21 4.869 1.35 1.13 2.98 1.53 4.899 1.19 1.11-.21 2.16-.73 3.14-1.54s1.9-1.8 2.76-2.95c.6-.81 1.15-1.68 1.669-2.6.51-.92.98-1.84 1.41-2.759s.82-1.82 1.19-2.69c.36-.88.67-1.68.93-2.4.13-.38.01-.65-.35-.8s-.63-.03-.8.35c-.47 1.41-1.14 3.07-2.02 4.97a30.688 30.688 0 01-3.049 5.23c-.77 1.03-1.58 1.9-2.44 2.63s-1.75 1.18-2.69 1.349c-1.069.21-1.969-.03-2.689-.74-.73-.71-1.33-1.68-1.8-2.92s-.83-2.64-1.09-4.2c-.26-1.559-.44-3.099-.54-4.618-.11-1.52-.16-2.93-.16-4.23v-2.98c1.88-.34 3.73-.96 5.549-1.86 1.82-.9 3.49-2.09 5.03-3.589 1.36-1.36 2.6-2.94 3.709-4.71zM83.413 59.703c-.36.11-.78.22-1.25.35.3-.68.66-1.3 1.09-1.86.51-.68 1-1.06 1.47-1.12.47-.06.8.02.99.26.19.24.2.56.03.96-.17.41-.62.76-1.35 1.06-.29.13-.62.25-.98.35zm1.63.42c1.11-.51 1.74-1.12 1.89-1.83s-.01-1.28-.48-1.73c-.47-.45-1.19-.65-2.15-.61s-1.98.53-3.05 1.47c-.81.73-1.5 1.67-2.05 2.82-.55 1.15-.94 2.36-1.15 3.62-.209 1.259-.219 2.519-.029 3.779.19 1.26.65 2.34 1.38 3.24.86 1.11 1.96 1.76 3.3 1.96 1.35.19 2.79.05 4.329-.42 1.41-.43 2.78-1.1 4.1-2.02 1.32-.92 2.56-1.96 3.719-3.11 1.16-1.15 2.2-2.39 3.14-3.72.94-1.32 1.73-2.61 2.369-3.85.09-.17.1-.33.03-.48a.56.56 0 00-.32-.32.66.66 0 00-.48 0c-.17.06-.3.18-.38.35-.6 1.24-1.35 2.47-2.24 3.69-.9 1.22-1.879 2.37-2.949 3.46a24.89 24.89 0 01-3.43 2.92c-1.22.86-2.47 1.5-3.75 1.92-1.329.47-2.439.6-3.329.38-.9-.21-1.58-.88-2.05-1.99-.47-1.15-.66-2.5-.58-4.04.09-1.54.36-3.08.83-4.62 1.32-.14 2.43-.44 3.33-.87zM55.717 45.344c.23-1.82.57-3.81.99-5.989.43-2.18.96-4.39 1.6-6.64.64-2.239 1.41-4.269 2.309-6.089s1.91-3.28 3.05-4.389c1.13-1.11 2.43-1.62 3.88-1.54 1.109.09 1.969.58 2.559 1.47.6.9 1.03 1.84 1.28 2.82.38 1.24.6 2.69.64 4.36.04 1.669-.15 3.529-.58 5.579-.13.77-.32 1.54-.58 2.31-.6 2.179-1.42 4.109-2.47 5.799-1.05 1.69-2.23 3.15-3.56 4.39a18.944 18.944 0 01-4.619 3.329c-1.67.86-3.36 1.45-5.06 1.8 0-.47.01-.96.03-1.47.02-.51.05-1.03.1-1.54.05-.98.19-2.38.43-4.2zm6.219 27.887c-.49-.36-.8-.8-.93-1.31s-.06-1.04.19-1.57c.26-.53.81-.93 1.67-1.19.64-.21 1.32-.32 2.05-.32s1.35-.04 1.86-.13c-.3 1.28-.72 2.37-1.25 3.27s-1.17 1.43-1.89 1.6c-.64.13-1.21.01-1.7-.35zm-1.83-3.59c-.43.83-.56 1.66-.38 2.47.17.81.63 1.5 1.38 2.05.75.55 1.7.71 2.85.45 1.24-.26 2.31-.96 3.21-2.12.9-1.16 1.599-2.52 2.119-4.1 1.41-.26 2.73-.6 3.98-1.03 1.24-.43 2.39-.97 3.46-1.63 1.069-.659 2.009-1.469 2.819-2.439.81-.96 1.47-2.15 1.99-3.56.13-.34 0-.59-.38-.74-.38-.15-.64-.05-.77.29-.47 1.24-1.07 2.29-1.8 3.14-.73.86-1.54 1.58-2.44 2.18-.9.6-1.89 1.09-2.98 1.47-1.09.38-2.25.71-3.49.96.34-1.37.51-2.77.51-4.2 0-1.43-.19-2.72-.58-3.88-.389-1.16-.979-2.089-1.799-2.819-.81-.73-1.86-1.09-3.14-1.09-1.15 0-2.18.46-3.08 1.38s-1.699 2.05-2.399 3.4c-.71 1.35-1.28 2.79-1.73 4.33-.45 1.539-.8 2.909-1.06 4.099-.3-1.24-.53-2.57-.71-4.01-.17-1.43-.29-2.81-.35-4.14-.06-1.32-.11-2.54-.13-3.649s-.05-1.99-.1-2.63c1.92-.34 3.78-.96 5.58-1.86s3.48-2.09 5.06-3.589a25.63 25.63 0 003.689-4.71c1.09-1.77 1.98-3.79 2.66-6.059.26-.81.45-1.62.58-2.44.47-2.14.67-4.089.61-5.869-.06-1.77-.29-3.32-.67-4.65-.34-1.24-.91-2.399-1.7-3.489s-1.89-1.68-3.3-1.76c-1.45-.09-2.84.3-4.17 1.15-1.33.86-2.56 2.06-3.719 3.62-1.15 1.56-2.2 3.41-3.14 5.55-.94 2.139-1.75 4.429-2.42 6.888s-1.22 5.01-1.64 7.66c-.419 2.65-.689 5.279-.819 7.889-.09 1.97-.09 3.89 0 5.769.09 1.88.26 3.67.54 5.35.27 1.689.64 3.249 1.1 4.679.46 1.43 1.01 2.66 1.64 3.69.13.26.33.44.61.54.28.11.54.13.8.06.26-.06.47-.2.64-.42.17-.21.23-.51.19-.9 0-.51.09-1.24.26-2.18s.41-1.97.71-3.08.67-2.22 1.12-3.33c.45-1.11.949-2.13 1.509-3.05.55-.92 1.15-1.67 1.8-2.24.64-.579 1.3-.839 1.99-.799.64.04 1.16.42 1.57 1.12.41.71.71 1.6.9 2.69s.29 2.29.29 3.59c0 1.299-.11 2.579-.32 3.809-.68.09-1.42.13-2.21.13s-1.55.11-2.28.32c-1.22.34-2.03.91-2.46 1.74zm-31.476-2.05c.51-.92.99-1.84 1.44-2.759.45-.92.85-1.82 1.22-2.69.36-.88.67-1.68.93-2.4.09-.17.09-.32 0-.45s-.2-.22-.35-.29a.781.781 0 00-.48-.03c-.17.04-.28.15-.32.32-.51 1.41-1.21 3.07-2.08 4.97-.88 1.9-1.89 3.64-3.05 5.23-.73 1.03-1.52 1.9-2.37 2.63-.86.73-1.75 1.18-2.69 1.349-.86.17-1.58.05-2.18-.35-.6-.41-1.129-.99-1.599-1.76-.51-.9-.9-1.84-1.15-2.82-.26-.98-.46-1.99-.61-3.009-.15-1.03-.27-2.05-.35-3.08-.09-1.03-.24-2.03-.45-3.01s-.57-1.61-1.06-1.89c-.49-.28-.91-.2-1.25.22-.21.21-.34.49-.38.83-.04.34-.11.68-.19 1.03-.17.43-.57 1.19-1.19 2.28-.62 1.09-1.309 2.21-2.079 3.37s-1.54 2.17-2.31 3.05c-.77.88-1.39 1.29-1.86 1.25-.56-.04-.93-.43-1.12-1.15-.19-.73-.25-1.6-.16-2.63.09-1.03.28-2.14.58-3.33.3-1.2.68-2.29 1.15-3.27.47-.98.99-1.8 1.57-2.439.58-.64 1.16-.92 1.76-.83.34.04.75.24 1.22.58.47.34.88.94 1.22 1.8.09.26.21.42.38.48s.32.05.45-.03c.13-.09.22-.22.29-.42.06-.19.03-.42-.1-.67-.47-.9-.97-1.58-1.51-2.05-.53-.47-1.17-.73-1.89-.77-1.24-.04-2.38.32-3.43 1.09-1.05.77-1.93 1.76-2.66 2.98-.73 1.22-1.26 2.53-1.599 3.94-.34 1.41-.45 2.709-.32 3.909.13 1.2.51 2.19 1.15 2.98.64.79 1.6 1.14 2.89 1.06.64-.04 1.32-.37 2.05-.99.73-.62 1.45-1.38 2.18-2.28.729-.9 1.409-1.85 2.049-2.85.64-1 1.18-1.93 1.6-2.79.04.98.13 1.98.26 2.98s.32 1.98.58 2.92c.26.94.59 1.85.99 2.72.41.88.95 1.66 1.63 2.34C16.97 74.48 18.85 75.1 21.07 74.72c1.11-.21 2.16-.73 3.14-1.54s1.899-1.8 2.759-2.95c.59-.86 1.15-1.72 1.66-2.64zM448.021 147.303h.919l-.019-15.179h-.92zm-4.39-3.1c0 .34-.07.65-.21.93-.14.29-.33.53-.57.75a2.87 2.87 0 01-1.88.7c-.37 0-.709-.06-1.019-.19a2.37 2.37 0 01-.82-.51 2.251 2.251 0 01-.75-1.68c0-.37.07-.7.22-1s.34-.56.59-.77.54-.38.87-.49c.329-.12.679-.18 1.069-.18h2.5zm.02 3.1h1.03c-.03-.03-.05-.14-.08-.34s-.04-.46-.05-.78-.03-.68-.03-1.08c-.01-.4-.01-.81-.01-1.23v-1.35c0-.45.01-.85.02-1.2 0-.41.01-.8.02-1.16v-.219c-.03-.51-.14-1-.32-1.45s-.42-.85-.71-1.19-.63-.6-1.01-.8-.78-.3-1.21-.32h-.02c-.979 0-1.899.12-2.769.37l.22.88c.75-.22 1.6-.33 2.549-.33h.02c.35.01.67.11.96.29s.53.41.74.7c.2.29.36.64.47 1.03.11.4.16.81.16 1.249v.48h-2.5c-.5 0-.969.08-1.419.24s-.84.39-1.18.69-.6.66-.8 1.07-.3.86-.3 1.34c0 .45.1.88.29 1.28s.44.75.76 1.05c.31.3.69.54 1.12.71.43.18.889.26 1.369.26.53 0 1.02-.1 1.47-.3s.85-.46 1.19-.8zm-15.928-10.899h-1.03c.03.03.05.13.08.3.02.17.03.38.03.63l.02 9.969h.92l-.02-7.469c.06-.4.18-.76.35-1.1.18-.34.4-.63.66-.88s.56-.44.89-.58.68-.21 1.04-.21c.4 0 .77.08 1.12.24.349.16.659.38.919.66s.48.6.64.98c.16.37.25.78.26 1.219l.02 7.14h.92l-.07-7.14c-.01-.559-.12-1.079-.32-1.569s-.46-.92-.79-1.27c-.33-.36-.72-.64-1.16-.86-.45-.21-.929-.32-1.439-.32-.63 0-1.21.15-1.74.45s-.97.73-1.32 1.29v-1.48zm-13.258 7.659c.269.68.639 1.28 1.109 1.79s1.02.92 1.65 1.22 1.3.45 2 .45 1.36-.15 1.98-.45 1.15-.71 1.61-1.22c.459-.51.829-1.11 1.099-1.79s.41-1.41.41-2.19c0-.79-.14-1.53-.41-2.219-.27-.69-.64-1.29-1.099-1.8-.46-.51-1-.92-1.61-1.22-.62-.3-1.27-.45-1.98-.45-.7 0-1.37.15-2 .45s-1.18.71-1.65 1.22-.84 1.11-1.109 1.8a6.031 6.031 0 00-.41 2.219c.01.78.14 1.51.41 2.19zm.849-4.04a4.85 4.85 0 01.91-1.519c.39-.43.84-.77 1.35-1.02s1.06-.37 1.65-.37c.57 0 1.11.12 1.61.37.51.25.94.59 1.32 1.02.37.43.67.94.89 1.519.22.58.329 1.2.329 1.86 0 .64-.109 1.26-.329 1.83-.22.58-.52 1.08-.89 1.5s-.81.76-1.32 1.01-1.04.37-1.61.37c-.59 0-1.14-.12-1.65-.37s-.96-.59-1.35-1.01-.69-.93-.91-1.5c-.22-.58-.33-1.19-.33-1.83 0-.66.11-1.28.33-1.86zm-5.279-6.579c.12.12.27.18.45.18.16 0 .31-.06.44-.18s.2-.26.2-.42-.07-.3-.2-.42-.28-.18-.44-.18c-.18 0-.33.06-.45.18s-.19.26-.19.42.06.3.19.42zm.01 13.859h.9l-.02-10.979h-.9zm-3.5-9.729c-.38-.4-.879-.72-1.479-.98a4.9 4.9 0 00-1.94-.38c-.5 0-.97.07-1.41.2s-.83.32-1.16.56c-.34.24-.6.53-.8.88-.2.34-.3.72-.3 1.13 0 .38.09.75.26 1.1.18.349.42.669.72.959s.67.53 1.1.74c.42.21.89.34 1.41.42.4.06.76.16 1.09.32.33.15.62.34.86.56s.43.46.56.71c.13.26.2.52.2.8 0 .6-.26 1.08-.79 1.45s-1.17.55-1.93.55c-.56 0-1.08-.1-1.56-.31s-.88-.46-1.19-.77l-.7.55c.38.45.89.81 1.53 1.05s1.3.37 1.99.37c.48 0 .94-.07 1.37-.21s.81-.34 1.14-.59c.33-.26.59-.56.779-.91.19-.35.29-.75.29-1.19 0-.4-.08-.77-.25-1.13s-.41-.68-.709-.97c-.3-.29-.67-.53-1.1-.74-.42-.21-.89-.34-1.38-.42-.4-.06-.76-.16-1.1-.31s-.63-.33-.87-.54-.43-.44-.56-.689c-.13-.25-.2-.51-.2-.77 0-.56.25-1.01.76-1.36s1.13-.53 1.88-.53c.54 0 1.05.08 1.54.25.48.17.89.41 1.23.74zm-10.258 0c-.38-.4-.88-.72-1.48-.98a4.9 4.9 0 00-1.94-.38c-.5 0-.97.07-1.41.2s-.83.32-1.16.56c-.34.24-.6.53-.8.88-.2.34-.3.72-.3 1.13 0 .38.09.75.26 1.1.18.349.42.669.72.959s.67.53 1.1.74c.42.21.89.34 1.41.42.4.06.76.16 1.09.32.33.15.62.34.86.56s.43.46.56.71c.13.26.2.52.2.8 0 .6-.26 1.08-.79 1.45s-1.17.55-1.93.55c-.56 0-1.08-.1-1.56-.31s-.88-.46-1.19-.77l-.7.55c.38.45.89.81 1.53 1.05s1.3.37 1.99.37c.48 0 .94-.07 1.37-.21s.81-.34 1.14-.59c.33-.26.59-.56.78-.91s.29-.75.29-1.19c0-.4-.08-.77-.25-1.13s-.41-.68-.71-.97c-.31-.29-.67-.53-1.1-.74-.42-.21-.89-.34-1.38-.42-.4-.06-.76-.16-1.1-.31s-.63-.33-.87-.54-.43-.44-.56-.689c-.13-.25-.2-.51-.2-.77 0-.56.25-1.01.76-1.36s1.13-.53 1.88-.53c.54 0 1.05.08 1.54.25.48.17.89.41 1.23.74zm-11.759-4.13c.12.12.27.18.45.18.16 0 .31-.06.44-.18s.2-.26.2-.42-.07-.3-.2-.42-.28-.18-.44-.18c-.18 0-.33.06-.45.18s-.19.26-.19.42.07.3.19.42zm.01 13.859h.9l-.02-10.979h-.9zm-3.05-15.219c-.18-.03-.35-.04-.52-.04h-.54c-.419 0-.829.1-1.209.3s-.71.47-1 .8-.52.73-.69 1.18-.28.92-.31 1.42V136.154l.01.14.01.12c0 .1-.01.15-.02.15h-1.63v.94h1.67v6.149c0 1.2.01 2.42.02 3.65h.86l-.02-9.799h2.899v-.94h-2.899v-.57c0-.41.06-.8.18-1.16.12-.37.28-.69.49-.97s.46-.5.74-.66.579-.25.899-.26h.42c.15 0 .27.01.37.04zm-18.178 11.979c.27.68.64 1.28 1.11 1.79s1.02.92 1.65 1.22 1.3.45 2 .45 1.36-.15 1.98-.45 1.15-.71 1.609-1.22c.46-.51.83-1.11 1.1-1.79s.41-1.41.41-2.19c0-.79-.14-1.53-.41-2.219a5.84 5.84 0 00-1.1-1.8 5.305 5.305 0 00-1.609-1.22c-.62-.3-1.27-.45-1.98-.45s-1.37.15-2 .45-1.18.71-1.65 1.22-.84 1.11-1.11 1.8a6.031 6.031 0 00-.41 2.219c0 .78.14 1.51.41 2.19zm.84-4.04a4.85 4.85 0 01.91-1.519c.39-.43.84-.77 1.35-1.02s1.06-.37 1.65-.37c.57 0 1.11.12 1.61.37.51.25.94.59 1.32 1.02a5.2 5.2 0 011.219 3.379c0 .64-.11 1.26-.33 1.83-.22.58-.519 1.08-.889 1.5s-.81.76-1.32 1.01-1.04.37-1.61.37c-.59 0-1.14-.12-1.65-.37s-.96-.59-1.35-1.01-.69-.93-.91-1.5c-.22-.58-.33-1.19-.33-1.83 0-.66.11-1.28.33-1.86zm-3.489-3.769a.857.857 0 00-.27-.05c-.1-.01-.18-.01-.25-.01-.63 0-1.2.15-1.72.45s-.96.73-1.31 1.29v-1.63h-1.03c.03.03.05.15.08.37.02.22.03.45.03.7l.02 9.929h.92l-.02-7.429c.06-.4.17-.76.34-1.1s.38-.63.65-.88.56-.44.89-.58.68-.21 1.04-.21h.21l.21.04zm-11.639-3.25h.07a3.66 3.66 0 012.36.85c.31.26.55.56.72.9.18.34.26.71.26 1.11 0 .43-.09.81-.26 1.16-.18.35-.42.66-.72.92-.31.26-.66.47-1.07.61-.4.15-.83.22-1.29.22h-3.449v-5.78h3.379zm.06 6.7c.59 0 1.14-.1 1.67-.3s.98-.47 1.36-.81.68-.75.91-1.22.34-.97.34-1.52c0-.51-.11-1-.34-1.45s-.53-.85-.91-1.19-.83-.6-1.36-.8-1.08-.3-1.67-.3h-4.369l.02 15.179h.92l-.02-7.599h3.449zm-8.479 4.499c0 .34-.07.65-.21.93-.14.29-.33.53-.57.75a2.87 2.87 0 01-1.88.7c-.37 0-.709-.06-1.019-.19a2.37 2.37 0 01-.82-.51 2.251 2.251 0 01-.75-1.68c0-.37.07-.7.22-1s.34-.56.59-.77.54-.38.87-.49c.329-.12.679-.18 1.069-.18h2.5zm.03 3.1h1.03c-.03-.03-.05-.14-.08-.34s-.04-.46-.05-.78-.03-.68-.03-1.08c-.01-.4-.01-.81-.01-1.23v-1.35c0-.45.01-.85.02-1.2 0-.41.01-.8.02-1.16v-.219c-.03-.51-.14-1-.32-1.45s-.42-.85-.71-1.19-.63-.6-1.01-.8-.78-.3-1.21-.32h-.02c-.98 0-1.899.12-2.769.37l.22.88c.75-.22 1.599-.33 2.549-.33h.02c.35.01.67.11.96.29s.53.41.74.7c.2.29.36.64.47 1.03.11.4.16.81.16 1.249v.48h-2.5c-.5 0-.969.08-1.419.24s-.84.39-1.18.69-.6.66-.8 1.07-.3.86-.3 1.34c0 .45.1.88.29 1.28s.44.75.76 1.05c.31.3.69.54 1.12.71.43.18.889.26 1.369.26.53 0 1.02-.1 1.47-.3s.85-.46 1.19-.8zm-17.118 0h8.059l-.02-.94h-6.849l6.849-9.089v-.94h-7.999v.94h6.789l-6.849 9.089zm-10.539-5.95c.04-.59.16-1.14.36-1.659.2-.52.45-.97.76-1.35s.66-.68 1.05-.9c.4-.22.81-.33 1.25-.33.45 0 .88.11 1.27.33.4.22.75.52 1.05.9.31.38.56.83.76 1.35.2.519.32 1.069.36 1.659zm2.29 4.91c-.43-.23-.81-.53-1.14-.92s-.6-.85-.8-1.37c-.21-.53-.32-1.1-.35-1.71h7.749v-.53c0-.79-.11-1.52-.33-2.199-.22-.67-.519-1.26-.909-1.76s-.85-.89-1.37-1.18c-.53-.29-1.1-.43-1.71-.43-.6 0-1.16.15-1.69.45s-.99.71-1.38 1.22c-.4.51-.71 1.11-.94 1.8a6.888 6.888 0 00-.35 2.199v.42c.04.73.19 1.42.45 2.05.26.64.59 1.19 1.01 1.67s.89.85 1.43 1.12c.53.27 1.11.41 1.72.41h.3c.1 0 .19-.01.27-.02h.02c.5-.09.97-.21 1.41-.35.44-.15.85-.32 1.23-.53l-.37-.81c-.18.09-.38.18-.62.27-.23.1-.48.18-.74.26s-.51.15-.77.2-.5.08-.74.08c-.49 0-.94-.12-1.38-.34zm-7.079 1.04h.92l-.02-15.179h-.92zm-10.989-5.95c.04-.59.16-1.14.36-1.659.2-.52.45-.97.76-1.35s.66-.68 1.05-.9c.4-.22.81-.33 1.25-.33.45 0 .88.11 1.27.33.4.22.75.52 1.049.9.31.38.56.83.76 1.35.2.519.32 1.069.36 1.659zm2.3 4.91c-.43-.23-.81-.53-1.14-.92s-.6-.85-.8-1.37c-.21-.53-.32-1.1-.35-1.71h7.749v-.53c0-.79-.11-1.52-.33-2.199-.22-.67-.52-1.26-.91-1.76s-.85-.89-1.369-1.18c-.53-.29-1.1-.43-1.71-.43-.6 0-1.16.15-1.69.45s-.99.71-1.38 1.22c-.4.51-.71 1.11-.94 1.8a6.888 6.888 0 00-.35 2.199v.42c.04.73.19 1.42.45 2.05.26.64.59 1.19 1.01 1.67s.89.85 1.43 1.12c.53.27 1.11.41 1.72.41h.3c.1 0 .19-.01.27-.02h.02c.5-.09.97-.21 1.409-.35.44-.15.85-.32 1.23-.53l-.37-.81c-.18.09-.38.18-.62.27-.23.1-.479.18-.739.26s-.51.15-.77.2-.5.08-.74.08c-.49 0-.95-.12-1.38-.34zm-10.599.12h-3.539v-6.699h3.929c.47.03.91.14 1.33.319.42.18.78.43 1.09.72.31.3.55.64.72 1.03.18.39.26.8.26 1.24 0 .45-.09.88-.26 1.27-.18.4-.42.75-.72 1.05-.31.31-.67.56-1.09.75s-.86.29-1.33.31h-.39zm.4-13.379c.44.03.85.12 1.22.27s.7.36.98.63c.28.26.5.56.66.9s.24.69.24 1.05c0 .4-.08.77-.24 1.12s-.38.66-.66.91c-.28.26-.6.46-.98.61s-.78.24-1.22.25h-3.929v-5.76H289.299zm0 14.259c.62-.01 1.19-.14 1.71-.36.53-.23.98-.53 1.37-.92s.69-.84.91-1.35.33-1.05.33-1.63c0-.82-.22-1.57-.67-2.24s-1.05-1.169-1.81-1.489c.66-.34 1.19-.8 1.58-1.4.4-.59.59-1.26.59-2.01 0-.5-.11-.97-.32-1.42s-.5-.84-.86-1.18-.78-.61-1.27-.81-1.01-.31-1.57-.33h-4.849l.02 15.179h4.459zm-16.828-8.919h5.269l-1.139 3.139h-5.29zm-5.269 4.109h2.769l-1.759 4.85h1.009l1.74-4.85h5.29l-1.76 4.85h1.01l1.739-4.85h3.65l.79-.97h-4.09l1.16-3.139h2.13l.77-.97h-2.55l1.54-4.22h-.99l-1.56 4.22h-5.269l1.54-4.22h-.99l-1.56 4.22h-3.839l-.77.97h4.259l-1.14 3.139h-2.329zm-18.928 1.61c.27.68.64 1.28 1.11 1.79s1.02.92 1.649 1.22c.63.3 1.3.45 2 .45s1.36-.15 1.98-.45 1.15-.71 1.61-1.22.83-1.11 1.1-1.79.41-1.41.41-2.19c0-.79-.14-1.53-.41-2.219-.27-.69-.64-1.29-1.1-1.8s-1-.92-1.61-1.22c-.62-.3-1.27-.45-1.98-.45-.7 0-1.37.15-2 .45-.629.3-1.179.71-1.649 1.22s-.84 1.11-1.11 1.8a6.031 6.031 0 00-.41 2.219c0 .78.14 1.51.41 2.19zm.85-4.04a4.85 4.85 0 01.91-1.519c.39-.43.84-.77 1.349-1.02.51-.25 1.06-.37 1.65-.37.57 0 1.11.12 1.61.37.51.25.94.59 1.32 1.02.37.43.67.94.89 1.519.22.58.33 1.2.33 1.86 0 .64-.11 1.26-.33 1.83-.22.58-.52 1.08-.89 1.5s-.81.76-1.32 1.01-1.04.37-1.61.37c-.59 0-1.14-.12-1.65-.37-.509-.25-.959-.59-1.349-1.01s-.69-.93-.91-1.5c-.22-.58-.33-1.19-.33-1.83 0-.66.11-1.28.33-1.86zm-3.5-3.769a.857.857 0 00-.27-.05c-.1-.01-.18-.01-.25-.01-.63 0-1.2.15-1.72.45s-.959.73-1.309 1.29v-1.63h-1.03c.03.03.05.15.08.37.02.22.03.45.03.7l.02 9.929h.92l-.02-7.429c.06-.4.17-.76.34-1.1a3.035 3.035 0 011.539-1.46c.33-.14.68-.21 1.04-.21h.21l.21.04zm-9.009-2.81c.12.12.27.18.45.18.16 0 .31-.06.44-.18s.2-.26.2-.42-.07-.3-.2-.42-.28-.18-.44-.18c-.18 0-.33.06-.45.18s-.19.26-.19.42.06.3.19.42zm.01 13.859h.9l-.02-10.979h-.9zm-10.989-5.95c.04-.59.16-1.14.36-1.659.2-.52.45-.97.76-1.35s.66-.68 1.05-.9c.4-.22.81-.33 1.25-.33.45 0 .88.11 1.27.33.4.22.75.52 1.05.9.31.38.56.83.76 1.35.2.519.32 1.069.36 1.659zm2.3 4.91c-.43-.23-.81-.53-1.14-.92s-.6-.85-.8-1.37c-.21-.53-.32-1.1-.35-1.71h7.75v-.53c0-.79-.11-1.52-.33-2.199-.22-.67-.52-1.26-.91-1.76s-.85-.89-1.37-1.18c-.53-.29-1.1-.43-1.71-.43-.6 0-1.16.15-1.69.45s-.99.71-1.38 1.22c-.4.51-.709 1.11-.939 1.8a6.888 6.888 0 00-.35 2.199v.42c.04.73.19 1.42.45 2.05.259.64.589 1.19 1.009 1.67s.89.85 1.43 1.12c.53.27 1.11.41 1.72.41h.3c.1 0 .19-.01.27-.02h.02c.5-.09.97-.21 1.41-.35.44-.15.85-.32 1.23-.53l-.37-.81c-.18.09-.38.18-.62.27-.23.1-.48.18-.74.26s-.51.15-.77.2-.5.08-.74.08c-.49 0-.95-.12-1.38-.34zm-5.639-10.009a.857.857 0 00-.27-.05c-.1-.01-.18-.01-.25-.01-.63 0-1.2.15-1.72.45s-.96.73-1.31 1.29v-1.63h-1.03c.03.03.05.15.08.37.02.22.03.45.03.7l.02 9.929h.92l-.02-7.429c.06-.4.17-.76.34-1.1s.38-.63.65-.88.56-.44.89-.58.68-.21 1.04-.21h.21l.21.04zm-9.019-2.81c.12.12.27.18.45.18.16 0 .31-.06.44-.18s.2-.26.2-.42-.07-.3-.2-.42-.28-.18-.44-.18c-.18 0-.33.06-.45.18s-.19.26-.19.42.07.3.19.42zm.02 13.859h.9l-.02-10.979h-.9zm-10.989-5.95c.04-.59.16-1.14.36-1.659.2-.52.45-.97.76-1.35s.66-.68 1.05-.9c.4-.22.81-.33 1.25-.33.45 0 .88.11 1.27.33.4.22.75.52 1.05.9.309.38.559.83.759 1.35.2.519.32 1.069.36 1.659zm2.3 4.91c-.43-.23-.81-.53-1.14-.92s-.6-.85-.8-1.37c-.21-.53-.32-1.1-.35-1.71h7.749v-.53c0-.79-.11-1.52-.33-2.199-.22-.67-.52-1.26-.91-1.76s-.849-.89-1.369-1.18c-.53-.29-1.1-.43-1.71-.43-.6 0-1.16.15-1.69.45s-.99.71-1.38 1.22c-.4.51-.71 1.11-.94 1.8a6.888 6.888 0 00-.35 2.199v.42c.04.73.19 1.42.45 2.05.26.64.59 1.19 1.01 1.67s.89.85 1.43 1.12c.53.27 1.11.41 1.72.41h.3c.1 0 .19-.01.27-.02h.02c.5-.09.97-.21 1.41-.35.439-.15.849-.32 1.229-.53l-.37-.81c-.18.09-.38.18-.62.27-.229.1-.479.18-.739.26s-.51.15-.77.2-.5.08-.74.08c-.49 0-.95-.12-1.38-.34zm-7.089 1.04h.92l-.02-15.179h-.92zm-10.979-5.95c.04-.59.16-1.14.36-1.659.2-.52.45-.97.76-1.35s.66-.68 1.05-.9c.4-.22.81-.33 1.25-.33.45 0 .879.11 1.269.33.4.22.75.52 1.05.9.31.38.56.83.76 1.35.2.519.32 1.069.36 1.659zm2.29 4.91c-.43-.23-.81-.53-1.14-.92s-.6-.85-.8-1.37c-.21-.53-.32-1.1-.35-1.71h7.749v-.53c0-.79-.11-1.52-.33-2.199-.22-.67-.52-1.26-.91-1.76s-.85-.89-1.37-1.18a3.498 3.498 0 00-1.709-.43c-.6 0-1.16.15-1.69.45s-.99.71-1.38 1.22c-.4.51-.71 1.11-.94 1.8a6.888 6.888 0 00-.35 2.199v.42c.04.73.19 1.42.45 2.05.26.64.59 1.19 1.01 1.67s.89.85 1.43 1.12c.53.27 1.11.41 1.72.41h.3c.1 0 .19-.01.27-.02h.02c.499-.09.969-.21 1.409-.35.44-.15.85-.32 1.23-.53l-.37-.81c-.18.09-.38.18-.62.27-.23.1-.48.18-.74.26s-.51.15-.77.2a3.87 3.87 0 01-.739.08c-.49 0-.94-.12-1.38-.34zm-14.259.38c.38.25.86.45 1.43.6s1.2.25 1.89.27c.73-.01 1.42-.17 2.05-.47s1.19-.71 1.67-1.22.849-1.11 1.129-1.8.42-1.42.42-2.2c0-.76-.14-1.48-.42-2.159a6.163 6.163 0 00-1.129-1.8c-.48-.52-1.03-.93-1.67-1.23s-1.32-.45-2.05-.45c-.66 0-1.27.07-1.83.22s-1.04.36-1.42.64v-4.92h-.919v13.119c-.01.37-.04.69-.07.97-.03.25-.05.48-.07.7-.01.22-.04.35-.07.4h1.079zm0-8.349c.04-.16.16-.31.35-.46s.44-.27.74-.38.64-.19 1.02-.25.78-.09 1.21-.09c.59 0 1.14.13 1.67.38.53.26.99.6 1.38 1.03.4.43.71.93.94 1.499.23.57.349 1.17.349 1.8 0 .64-.119 1.26-.349 1.83-.23.58-.55 1.08-.94 1.5-.4.42-.86.77-1.38 1.02-.53.26-1.08.39-1.67.41-.45-.01-.88-.06-1.29-.13-.4-.07-.75-.17-1.05-.3-.3-.12-.54-.27-.71-.43-.18-.16-.26-.33-.26-.51v-6.919zm-5.139 5.909c0 .34-.07.65-.21.93-.14.29-.33.53-.57.75a2.87 2.87 0 01-1.88.7c-.37 0-.71-.06-1.02-.19-.32-.12-.59-.29-.819-.51a2.251 2.251 0 01-.75-1.68c0-.37.07-.7.22-1s.34-.56.59-.77c.249-.21.539-.38.869-.49.33-.12.68-.18 1.07-.18h2.5zm.02 3.1h1.03c-.03-.03-.05-.14-.08-.34s-.04-.46-.05-.78-.03-.68-.03-1.08c-.01-.4-.01-.81-.01-1.23v-1.35c0-.45.01-.85.02-1.2 0-.41.01-.8.02-1.16v-.219c-.03-.51-.14-1-.32-1.45s-.42-.85-.71-1.19-.63-.6-1.01-.8-.78-.3-1.21-.32h-.02c-.98 0-1.9.12-2.769.37l.22.88c.749-.22 1.599-.33 2.549-.33h.02c.35.01.67.11.96.29s.53.41.74.7c.2.29.36.64.47 1.03.11.4.16.81.16 1.249v.48h-2.5c-.5 0-.97.08-1.42.24s-.839.39-1.179.69-.6.66-.8 1.07-.3.86-.3 1.34c0 .45.1.88.29 1.28s.44.75.76 1.05c.31.3.69.54 1.119.71.43.18.89.26 1.37.26.53 0 1.02-.1 1.47-.3s.85-.46 1.19-.8zm-8.919-13.159c-.6-.66-1.31-1.18-2.12-1.55s-1.67-.56-2.579-.56c-.97 0-1.87.21-2.7.63s-1.56.98-2.19 1.68c-.62.7-1.11 1.52-1.47 2.45s-.54 1.91-.54 2.93c0 1.069.19 2.079.57 3.019s.89 1.77 1.53 2.47 1.37 1.26 2.2 1.67 1.69.62 2.6.62c.909 0 1.759-.19 2.549-.56s1.49-.89 2.11-1.55l-.62-.62c-.56.56-1.17.99-1.85 1.31-.67.32-1.409.47-2.199.47-.86 0-1.66-.18-2.38-.55s-1.35-.86-1.88-1.48-.94-1.35-1.24-2.17c-.3-.83-.45-1.7-.45-2.629 0-.94.16-1.82.47-2.64s.74-1.54 1.29-2.15c.54-.61 1.17-1.1 1.89-1.45s1.49-.53 2.31-.53c.789 0 1.529.16 2.229.48s1.31.76 1.86 1.32v.07zm-15.398 13.159h1.03c-.03-.03-.06-.15-.09-.35s-.04-.44-.04-.7v-9.929h-.92v7.469c-.04.38-.15.74-.32 1.08s-.38.63-.64.88-.55.45-.88.59c-.33.15-.68.22-1.04.22a2.761 2.761 0 01-2.04-.91c-.26-.29-.48-.61-.64-.99-.16-.37-.25-.77-.26-1.2l-.039-.11v-6.989h-.9v6.989l.07.11c.01.56.12 1.08.31 1.57s.45.92.779 1.29c.33.37.71.66 1.15.87s.92.32 1.43.32c.63 0 1.21-.16 1.74-.48s.96-.74 1.3-1.25v.53zm-17.358-5.95c.04-.59.16-1.14.36-1.659.2-.52.45-.97.76-1.35s.66-.68 1.05-.9a2.56 2.56 0 012.519 0c.39.22.75.52 1.05.9.31.38.56.83.76 1.35.2.519.32 1.069.36 1.659zm2.3 4.91c-.43-.23-.81-.53-1.14-.92s-.6-.85-.8-1.37c-.21-.53-.32-1.1-.35-1.71h7.749v-.53c0-.79-.11-1.52-.33-2.199-.22-.67-.52-1.26-.91-1.76s-.85-.89-1.37-1.18c-.53-.29-1.1-.43-1.71-.43-.599 0-1.159.15-1.689.45s-.99.71-1.38 1.22c-.4.51-.71 1.11-.94 1.8a6.888 6.888 0 00-.35 2.199v.42c.04.73.19 1.42.45 2.05.26.64.59 1.19 1.01 1.67s.89.85 1.43 1.12c.53.27 1.109.41 1.719.41h.3c.1 0 .19-.01.27-.02h.02c.5-.09.97-.21 1.41-.35.44-.15.85-.32 1.23-.53l-.37-.81c-.18.09-.38.18-.62.27-.23.1-.48.18-.74.26s-.51.15-.77.2-.5.08-.74.08c-.49 0-.949-.12-1.379-.34zm-11.959-5.66l-5.029-8.479h-.92l.02 15.179h.92l-.02-13.399 4.719 8.019h.57l4.659-8.019.02 13.399h.94l-.02-15.179h-.94zm-9.079 2.27c.37-.96.55-2.01.55-3.149 0-1.07-.18-2.07-.53-3.01s-.83-1.75-1.45-2.44-1.34-1.23-2.19-1.64c-.839-.4-1.749-.6-2.739-.6-.95 0-1.85.2-2.68.6-.83.4-1.57.95-2.2 1.65s-1.12 1.51-1.48 2.44-.54 1.93-.54 3c0 1.099.19 2.119.56 3.079.37.95.87 1.78 1.5 2.47.63.7 1.36 1.24 2.2 1.64.83.4 1.71.59 2.64.59.94 0 1.81-.18 2.629-.55.81-.37 1.53-.89 2.16-1.58a7.12 7.12 0 001.57-2.5zm-.83-5.909c.34.84.51 1.76.51 2.76 0 .949-.15 1.839-.46 2.669s-.73 1.55-1.26 2.16a5.83 5.83 0 01-1.91 1.46c-.739.36-1.529.54-2.379.54-.83 0-1.61-.18-2.34-.54-.72-.36-1.35-.85-1.89-1.46a6.9 6.9 0 01-1.26-2.16c-.31-.83-.46-1.72-.46-2.669 0-.94.15-1.82.46-2.64.31-.82.73-1.53 1.27-2.14.54-.61 1.18-1.09 1.9-1.44.72-.35 1.5-.53 2.32-.53.81 0 1.56.16 2.269.47.71.32 1.32.76 1.83 1.33.59.62 1.06 1.35 1.4 2.19zm-24.527 7.099c.27.68.64 1.28 1.11 1.79.47.51 1.02.92 1.65 1.22.63.3 1.3.45 2 .45s1.36-.15 1.98-.45c.62-.3 1.149-.71 1.609-1.22.46-.51.83-1.11 1.1-1.79.27-.68.41-1.41.41-2.19 0-.79-.14-1.53-.41-2.219-.27-.69-.64-1.29-1.1-1.8-.46-.51-1-.92-1.61-1.22-.62-.3-1.27-.45-1.98-.45s-1.37.15-2 .45c-.63.3-1.18.71-1.65 1.22s-.84 1.11-1.109 1.8a6.031 6.031 0 00-.41 2.219c.01.78.14 1.51.41 2.19zm.85-4.04c.22-.579.52-1.079.91-1.519.39-.43.84-.77 1.35-1.02s1.06-.37 1.65-.37c.57 0 1.11.12 1.61.37.51.25.94.59 1.32 1.02a5.203 5.203 0 011.22 3.379c-.001.64-.111 1.26-.331 1.83-.22.58-.52 1.08-.89 1.5-.37.42-.81.76-1.32 1.01s-1.04.37-1.61.37c-.59 0-1.14-.12-1.65-.37s-.96-.59-1.35-1.01c-.39-.42-.69-.93-.91-1.5-.22-.58-.33-1.19-.33-1.83 0-.66.11-1.28.33-1.86zm-5.29-6.579c.12.12.27.18.45.18.16 0 .31-.06.44-.18s.2-.26.2-.42-.07-.3-.2-.42-.28-.18-.44-.18c-.18 0-.33.06-.45.18s-.19.26-.19.42.07.3.19.42zm.02 13.859h.9l-.02-10.979h-.9zm-12.928-3.24c.27.68.64 1.28 1.11 1.79.47.51 1.02.92 1.65 1.22.63.3 1.3.45 2 .45s1.36-.15 1.98-.45 1.15-.71 1.609-1.22c.46-.51.83-1.11 1.1-1.79.27-.68.41-1.41.41-2.19 0-.79-.14-1.53-.41-2.219a5.84 5.84 0 00-1.1-1.8c-.46-.51-1-.92-1.61-1.22-.62-.3-1.27-.45-1.98-.45s-1.37.15-2 .45c-.63.3-1.18.71-1.65 1.22s-.84 1.11-1.109 1.8a6.031 6.031 0 00-.41 2.219c0 .78.14 1.51.41 2.19zm.84-4.04c.22-.579.52-1.079.91-1.519.39-.43.84-.77 1.35-1.02.51-.25 1.06-.37 1.65-.37.57 0 1.11.12 1.61.37.51.25.94.59 1.32 1.02a5.2 5.2 0 011.22 3.379c-.001.64-.111 1.26-.331 1.83-.22.58-.52 1.08-.89 1.5-.37.42-.81.76-1.32 1.01s-1.04.37-1.61.37c-.59 0-1.14-.12-1.65-.37s-.96-.59-1.35-1.01c-.39-.42-.69-.93-.91-1.5-.22-.58-.33-1.19-.33-1.83 0-.66.11-1.28.33-1.86zm-12.169-3.679h-1.1c.03.04.06.17.09.38s.06.44.09.69c.03.28.04.59.04.92v13.248h.9v-4.959c.38.25.86.45 1.44.61.58.16 1.19.24 1.83.24.73 0 1.42-.15 2.07-.45.64-.3 1.2-.71 1.68-1.22s.85-1.12 1.13-1.81c.28-.7.42-1.44.42-2.23 0-.78-.14-1.5-.42-2.189-.28-.68-.66-1.27-1.13-1.78-.48-.51-1.04-.91-1.68-1.21-.64-.3-1.33-.46-2.07-.47-.67 0-1.3.08-1.87.25-.57.17-1.05.38-1.43.63v-.65zm0 2c0-.18.09-.34.26-.49.18-.15.41-.29.7-.41s.64-.21 1.04-.27c.4-.07.83-.1 1.29-.1.6 0 1.17.12 1.7.37s1 .59 1.39 1.01c.4.43.71.92.93 1.49.23.569.34 1.179.34 1.819 0 .66-.11 1.28-.34 1.86-.23.58-.54 1.08-.93 1.52-.4.43-.86.78-1.39 1.03-.53.26-1.1.39-1.7.41a7.75 7.75 0 01-1.21-.12c-.38-.07-.72-.15-1.01-.25-.29-.1-.53-.22-.72-.36-.19-.14-.31-.29-.35-.45zm-15.268 8.959h.97l2.33-6.3h5.34l2.369 6.3h.97l-5.62-15.179h-.77zm3.63-7.23l2.33-6.329 2.35 6.329zm-7.49 7.23h1.03c-.03-.03-.06-.15-.09-.35s-.04-.44-.04-.7v-9.929h-.92v7.469c-.04.38-.15.74-.32 1.08-.17.34-.38.63-.64.88s-.55.45-.88.59c-.33.15-.68.22-1.04.22a2.76 2.76 0 01-2.04-.91c-.259-.29-.479-.61-.639-.99-.16-.37-.25-.77-.26-1.2l-.04-.11v-6.989h-.9v6.989l.07.11c.01.56.12 1.08.31 1.57s.45.92.78 1.29.71.66 1.15.87c.44.21.92.32 1.43.32.63 0 1.21-.16 1.74-.48.53-.32.96-.74 1.3-1.25v.53zm-10.988-8.549h-6.7v-5.76h7.84v-.88h-8.77l.02 15.179h8.77l-.02-.92h-7.84v-6.699h6.7zm-19.388-.41h5.27l-1.14 3.139h-5.29zm-5.28 4.109h2.77l-1.76 4.85h1.01l1.74-4.85h5.29l-1.76 4.85h1.01l1.74-4.85h3.65l.789-.97h-4.09l1.16-3.139h2.13l.77-.97h-2.55l1.54-4.22h-.99l-1.56 4.22H5.842l1.54-4.22h-.99l-1.56 4.22H.992l-.77.97h4.26l-1.14 3.139h-2.33z"/></g><path d="M3.203 170h244.081v2H3.203" fill="#8279b2"/><path d="M489.956 27.017c-.48.42-1.039.77-1.409 1.27-1.73 2.32-3.4 4.68-5.09 7.029-.16.22-.33.42-.55.7-.3-.37-.55-.65-.78-.95-.66-.84-1.27-1.72-1.969-2.52-2.94-3.37-6.29-6.239-10.469-7.929-8.519-3.43-16.648-2.41-24.217 2.66-8.629 5.78-12.319 16.448-9.309 26.347 1.399 4.6 3.919 8.569 6.929 12.259 3.869 4.739 8.379 8.828 12.928 12.908 5.82 5.22 11.609 10.479 17.318 15.818 2.52 2.36 4.77 4.99 6.43 8.069.509.93.649 1.74.07 2.68-.33.53-.51 1.16-.77 1.74-1.07 2.389-1.27 4.899-.98 7.459.08.69.32 1.39.63 2.02.72 1.439 2.229 2.189 3.709 1.959 1.57-.25 2.9-1.529 3.1-3.129.11-.87.22-1.81.03-2.65-.48-2.12-.95-4.279-1.76-6.279-.6-1.49-.28-2.53.68-3.54 2.12-2.22 4.12-4.58 6.449-6.57 7.299-6.248 18.978-16.217 26.367-22.356l-1.98-1.66c-2.999 2.59-10.438 9.359-13.498 11.888-6.449 5.32-12.958 10.56-18.908 16.448-.29.29-.66.5-.84.63-1.87-2.32-3.549-4.62-5.449-6.719-4.85-5.36-10.379-10.009-15.758-14.808-4.23-3.76-8.459-7.53-12.549-11.439-3.329-3.19-6.199-6.799-8.309-10.929-2.68-5.239-3.399-10.768-1.72-16.418 2.02-6.809 6.64-11.378 13.099-14.148 4.479-1.92 9.159-2.14 13.818-1.06 5.4 1.25 9.779 4.31 13.229 8.61 1.55 1.929 2.859 4.059 4.289 6.088.15.21.4.35.6.53.16-.21.37-.41.48-.64.48-1.04.87-2.12 1.41-3.12 1.59-2.919 3.13-5.899 6.349-7.458zm-6.689 87.74c-.08.66-.36 1.3-1.02 1.32-.46.02-1.02-.35-1.37-.71-.31-.32-.48-.84-.55-1.3-.379-2.29.32-4.4 1.21-6.479.92 2.339 2.05 4.579 1.73 7.169z" fill="#e48e9e"/><path d="M552.199 59.363c-.03-1.05-.05-2.08-.08-3.11-.82-.16-1.59-.15-2.21-.47-3.059-1.56-5.639-.43-8.149 1.29l-.1.06c-9.269 5.2-17.328 11.79-23.497 20.548-.13.19-.38.38-.6.43-1.27.26-3.16-.77-3.98-2.13-1.019-1.69-1.009-2.75.02-4.13 3.33-4.499 6.85-8.828 10.819-12.778.24-.24.26-.75.3-1.14.06-.67-.2-1.63.14-1.95.37-.34 1.34-.22 1.96-.02.59.19.92.11 1.4-.24 1.55-1.14 3.049-2.4 4.759-3.249 2.39-1.19 2.4-4.33 1.19-5.94-1.24-1.65-2.43-3.359-3.49-5.139-3.299-5.54-6.509-11.128-8.959-17.118-.269-.67-.19-1.07.31-1.56 2.93-2.89 5.88-5.769 8.719-8.749.89-.94 1.59-.98 2.71-.5 5.939 2.55 11.459 5.88 17.088 9.02 6.809 3.809 10.889 9.588 12.959 16.947.38 1.37.68 2.77 1.079 4.38 1.06-.12 2.14-.24 3.32-.38-.22 7.31-7.439 13.778-15.708 15.928zm2.77-13.198c-3.61 3.88-7.839 4.6-13.759 2.35 1.42 2.68 6.029 4.399 9.929 3.699 4.979-.89 8.809-4.89 9.439-9.849.51-4.06-1.48-8.539-4.41-9.909 2.64 5.58 2.25 10.01-1.199 13.709zM524.272 0l-15.798 15.798c3.46 1.69 6.839 3.34 10.249 5.01 3.41-3.41 6.779-6.77 10.119-10.15.17-.17.33-.58.25-.76-1.57-3.279-3.18-6.558-4.82-9.898z" fill="#383838"/><path d="M556.178 32.456c1.25 2.66 1.82 5.05 1.7 7.24-.13 2.4-1.1 4.539-2.899 6.479-2.26 2.43-4.76 3.62-7.759 3.62-1.8 0-3.78-.43-6-1.27.59 1.11 1.73 2.06 3.14 2.739a11.741 11.741 0 004.769 1.11h.42c.54-.01 1.07-.06 1.59-.15.82-.15 1.6-.38 2.35-.68 3.799-1.55 6.569-5.02 7.089-9.169.04-.35.07-.69.08-1.04.05-2.3-.64-4.64-1.79-6.39-.74-1.129-1.65-1.999-2.69-2.489z" fill="#a6a9af"/><path d="M544.36 51.254c.48.23.99.43 1.52.59-.53-.17-1.04-.36-1.52-.59zm16.298-9.939c-.01.35-.03.7-.08 1.04-.52 4.15-3.29 7.62-7.089 9.169 3.799-1.55 6.569-5.02 7.089-9.169.05-.34.07-.69.08-1.04zm-2.78-1.62c-.13 2.4-1.1 4.54-2.899 6.48-2.26 2.43-4.76 3.62-7.759 3.62-1.8 0-3.78-.43-6-1.27 2.22.85 4.2 1.27 6 1.27 2.999 0 5.499-1.19 7.759-3.62 1.799-1.95 2.759-4.09 2.899-6.48zm-1.7-7.239c1.03.49 1.95 1.36 2.69 2.47-.74-1.11-1.65-1.98-2.69-2.47zM492.046 29.586c.26-.07.5-.05.8.2.24.19.7.32.98.22 1.859-.64 3.719-1.32 5.549-2.07.5-.2.92-.34 1.49-.3.52.03 1.12-.33 1.57-.68.15-.12.04-.77-.14-1.08-.38-.68-.22-1.099.36-1.549 1.03-.79 2.019-1.62 3.009-2.45.39-.32.33-.7.05-1.08-.29-.4-.63-.37-.99-.12-.519.36-1.029.75-1.539 1.12-.79.57-1.59 1.14-2.44 1.76-.67-1.01-1.22-1.95-1.88-2.81-.5-.66-.33-1.03.27-1.46 1.07-.77 2.09-1.61 3.14-2.42.53-.42.26-.859.02-1.279-.29-.51-.63-.26-.95-.03-1.01.73-2 1.48-3.01 2.2-.95.68-.96.68-1.71-.19-.15-.17-.3-.33-.59-.64-.489.56-1.139 1.01-1.329 1.61-.17.53-.37.95-.76 1.33-1.55 1.5-2.72 3.27-3.72 5.169-.14.27-.18.76-.03.98.14.2.18.36.16.5" fill="#383838"/></svg>