<svg width="495" height="150" fill="none" xmlns="http://www.w3.org/2000/svg"><path d="M374.094 76.45h.078c.855 0 1.665.148 2.441.436.767.287 1.446.68 2.022 1.176a5.9 5.9 0 011.385 1.735c.34.662.515 1.36.515 2.109 0 .767-.175 1.49-.515 2.144a5.59 5.59 0 01-1.385 1.716 6.542 6.542 0 01-2.022 1.133 7.104 7.104 0 01-2.441.41h-6.44V76.45h6.362zm-6.275 12.593l12.672 14.328h2.231l-12.637-14.328h4.087c1.125 0 2.179-.183 3.155-.557a8.37 8.37 0 002.563-1.526 7.249 7.249 0 001.734-2.274 6.207 6.207 0 00.636-2.79c0-.993-.209-1.916-.636-2.762a7.176 7.176 0 00-1.734-2.23c-.732-.637-1.587-1.134-2.563-1.509-.976-.374-2.03-.557-3.155-.557h-8.174l.043 28.533h1.734l-.043-14.328h.087zm-35.14 14.328h1.813l4.375-11.852h10.031l4.463 11.852h1.812l-10.571-28.533h-1.447l-10.476 28.533zm6.816-13.587l4.375-11.887 4.418 11.887h-8.793zm-38.565 13.587h10.615l-.044-.078a7.348 7.348 0 003.861-1.177c1.194-.758 2.24-1.778 3.138-3.059.897-1.281 1.595-2.78 2.109-4.497.505-1.717.767-3.556.767-5.508s-.262-3.791-.785-5.508-1.228-3.224-2.126-4.497c-.898-1.281-1.944-2.292-3.155-3.033a7.678 7.678 0 00-3.878-1.159h-10.528l.026 28.516zm10.484-26.8c1.159.027 2.231.376 3.225 1.03.993.662 1.856 1.55 2.597 2.684.741 1.133 1.325 2.449 1.752 3.965.427 1.516.636 3.111.636 4.793 0 1.709-.209 3.312-.636 4.811-.427 1.5-1.002 2.815-1.735 3.94-.732 1.132-1.586 2.03-2.579 2.701-.994.671-2.048 1.029-3.181 1.055v.078h-8.881V76.563h8.802v.009zm-22.25-1.733h-1.734l.044 28.533h1.734l-.044-28.533zm-33.074 0h-1.856v21.387c.078 1.02.409 1.978.993 2.893.576.907 1.343 1.708 2.293 2.397.949.688 2.056 1.229 3.32 1.63 1.264.401 2.615.601 4.044.601 1.377 0 2.684-.2 3.922-.601 1.237-.401 2.327-.942 3.259-1.63.933-.689 1.682-1.49 2.231-2.397a6.138 6.138 0 00.907-2.893V74.838h-1.735v21.387a4.476 4.476 0 01-.784 2.248c-.471.706-1.098 1.308-1.883 1.813-.784.506-1.69.915-2.701 1.22-1.02.305-2.092.453-3.225.453-1.185 0-2.301-.148-3.347-.453-1.045-.305-1.96-.706-2.745-1.22a6.656 6.656 0 01-1.9-1.813c-.479-.706-.749-1.455-.802-2.248V74.838h.009zm-13.256 3.8a12.4 12.4 0 00-3.982-2.911 11.431 11.431 0 00-4.855-1.055c-1.813 0-3.512.392-5.081 1.177a13.543 13.543 0 00-4.105 3.154c-1.167 1.325-2.091 2.86-2.762 4.602a15.248 15.248 0 00-1.011 5.508c0 2.013.357 3.904 1.072 5.674.714 1.778 1.673 3.32 2.867 4.645a13.595 13.595 0 004.131 3.137 10.93 10.93 0 004.889 1.16c1.708 0 3.303-.349 4.794-1.055a13.028 13.028 0 003.965-2.91l-1.159-1.16a12.25 12.25 0 01-3.469 2.458c-1.264.592-2.641.889-4.131.889-1.621 0-3.12-.34-4.479-1.029a11.282 11.282 0 01-3.53-2.789c-.994-1.167-1.769-2.536-2.336-4.087-.566-1.551-.845-3.199-.845-4.933 0-1.76.296-3.416.889-4.959.592-1.542 1.394-2.893 2.414-4.044a11.42 11.42 0 013.547-2.728 9.718 9.718 0 014.331-.993c1.491 0 2.885.305 4.192.906 1.308.61 2.467 1.43 3.487 2.475v.123l1.167-1.255zm-63.255 12.14l-9.456-15.94h-1.734l.044 28.533h1.734l-.044-25.187 8.881 15.069h1.072l8.75-15.069.044 25.187h1.778l-.044-28.533h-1.778l-9.247 15.94zm-24.733-3.469h-12.594V76.493h14.738v-1.655h-16.472l.043 28.533h16.472l-.043-1.734h-14.738V89.043h12.594V87.31zM104.35 69.06h-2.728l-2.728 3.591h.95l4.506-3.59zm-16.062 34.312H90.1l4.374-11.852h10.032l4.462 11.852h1.813L100.21 74.838h-1.447L88.288 103.37zm6.815-13.587l4.375-11.887 4.419 11.887h-8.794zm-18.05-13.3V74.83H56.696v1.656h9.334l.044 26.877h1.734l-.044-26.877h9.29zM28.546 99.86c.802 1.159 1.882 2.092 3.242 2.806 1.36.715 2.885 1.072 4.567 1.072 1.185 0 2.3-.191 3.346-.575a8.693 8.693 0 002.728-1.586 7.627 7.627 0 001.84-2.397c.452-.924.679-1.908.679-2.954 0-.968-.2-1.883-.601-2.763a7.646 7.646 0 00-1.674-2.353 9.218 9.218 0 00-2.536-1.717 11.445 11.445 0 00-3.198-.932 7.978 7.978 0 01-2.623-.68c-.811-.375-1.517-.837-2.11-1.404a6.204 6.204 0 01-1.385-1.943 5.48 5.48 0 01-.497-2.292c0-.828.192-1.586.575-2.292a6.006 6.006 0 011.551-1.839 7.593 7.593 0 012.232-1.238 7.62 7.62 0 012.623-.453c1.237 0 2.37.244 3.407.724a7.333 7.333 0 012.58 1.96l1.403-1.115a8.943 8.943 0 00-3.18-2.353c-1.238-.55-2.641-.828-4.21-.828-1.212 0-2.353.192-3.425.575-1.072.384-2.013.915-2.807 1.586a7.364 7.364 0 00-1.882 2.414 6.825 6.825 0 00-.68 3.016c0 .993.21 1.943.619 2.85a7.69 7.69 0 001.717 2.414 9.088 9.088 0 002.597 1.734c1.002.453 2.1.74 3.286.845h.122c.88.114 1.7.35 2.457.706.758.358 1.42.82 1.979 1.386a6.442 6.442 0 011.324 1.9c.314.706.471 1.456.471 2.249 0 .801-.183 1.542-.54 2.23a5.588 5.588 0 01-1.447 1.779 7.08 7.08 0 01-2.127 1.176 7.521 7.521 0 01-2.536.436c-1.455 0-2.736-.296-3.843-.889a7.312 7.312 0 01-2.64-2.37l-1.404 1.115zM14.54 87.309H1.946V76.493h14.738v-1.655H.212l.043 28.533h16.48l-.043-1.734H1.955V89.043h12.593V87.31h-.008zM164.197 58.914a48.226 48.226 0 002.318-4.75c.314-.766.584-1.464.811-2.091.078-.148.078-.279 0-.392a.732.732 0 00-.305-.253.683.683 0 00-.419-.026.352.352 0 00-.278.279c-.445 1.229-1.055 2.675-1.813 4.331a26.81 26.81 0 01-2.658 4.558 12.615 12.615 0 01-2.066 2.292c-.749.637-1.525 1.029-2.344 1.177-.75.148-1.377.043-1.9-.305-.523-.357-.985-.863-1.395-1.534a10.01 10.01 0 01-1.002-2.458 23.896 23.896 0 01-.532-2.623 40.82 40.82 0 01-.305-2.684 21.283 21.283 0 00-.392-2.623c-.183-.854-.496-1.404-.924-1.648-.427-.244-.793-.174-1.089.192a1.193 1.193 0 00-.331.724 8.464 8.464 0 01-.166.897c-.148.375-.496 1.037-1.037 1.987a49.94 49.94 0 01-1.813 2.937 26.07 26.07 0 01-2.013 2.658c-.671.767-1.211 1.125-1.621 1.09-.488-.035-.81-.375-.976-1.002-.165-.637-.218-1.395-.139-2.293.078-.897.244-1.865.505-2.902a15.06 15.06 0 011.002-2.85c.41-.854.863-1.568 1.369-2.126.505-.558 1.011-.802 1.534-.724.296.035.653.21 1.063.506.409.296.767.82 1.063 1.569.078.226.183.366.331.418a.437.437 0 00.392-.026c.114-.078.192-.192.253-.366s.026-.366-.087-.584c-.41-.784-.845-1.377-1.316-1.787a2.652 2.652 0 00-1.647-.67c-1.081-.036-2.074.278-2.989.95-.916.67-1.683 1.533-2.319 2.596a12.205 12.205 0 00-1.394 3.434c-.296 1.229-.392 2.362-.279 3.408.113 1.046.444 1.908 1.002 2.597.558.688 1.395.993 2.519.924.558-.035 1.15-.323 1.787-.863.636-.54 1.263-1.203 1.899-1.987a27.146 27.146 0 001.787-2.484 24.677 24.677 0 001.394-2.431c.035.854.114 1.725.227 2.597.113.871.279 1.725.506 2.544.226.82.514 1.613.862 2.371a7.096 7.096 0 001.421 2.04c1.342 1.411 2.981 1.952 4.915 1.62.968-.183 1.883-.636 2.737-1.342.854-.706 1.656-1.569 2.405-2.57a28.289 28.289 0 001.447-2.302zM114.608 94.9a6.316 6.316 0 01-1.456-1.508 8.479 8.479 0 01-1.037-2.066 10.365 10.365 0 01-.506-2.266c-.261-2.492.027-4.837.863-7.015a21.793 21.793 0 013.521-6.031 31.107 31.107 0 015.194-5.003 57.718 57.718 0 015.892-3.965c0 1.673-.087 3.311-.253 4.915a83.514 83.514 0 01-.697 5.081 87.824 87.824 0 01-1.316 6.284c-.54 2.213-1.211 4.235-2.013 6.066-.802 1.821-1.735 3.32-2.798 4.496-1.063 1.177-2.283 1.726-3.66 1.648a3.229 3.229 0 01-1.734-.636zm15.922-24.926c.052-2.03-.104-3.643-.47-4.837a106.816 106.816 0 003.494-2.797 47.811 47.811 0 003.469-3.182 34.373 34.373 0 002.989-3.468 17.372 17.372 0 002.127-3.634c.148-.332.052-.558-.279-.671-.331-.114-.575-.018-.723.278a23.92 23.92 0 01-2.153 3.495 31.304 31.304 0 01-2.763 3.242 46.665 46.665 0 01-3.181 2.963 77.273 77.273 0 01-3.355 2.71 7.229 7.229 0 00-1.002-1.672 11.405 11.405 0 00-1.142-1.177 26.103 26.103 0 01-1.116-1.002 3.866 3.866 0 01-.862-1.177c-.297-.558-.157-1.08.418-1.569a37.68 37.68 0 012.039-1.568 15.734 15.734 0 002.205-1.926c.689-.724 1.011-1.595.976-2.597-.078-1.49-.61-2.659-1.595-3.495-.984-.837-2.135-1.255-3.433-1.255-.75 0-1.456.14-2.127.418a6.786 6.786 0 00-1.813 1.116 7.483 7.483 0 00-1.42 1.62 8.582 8.582 0 00-.95 1.874c-.079.183-.079.332 0 .445a.72.72 0 00.305.253c.131.052.261.07.392.026.131-.035.235-.148.305-.331.227-.523.497-1.046.811-1.57a7.143 7.143 0 011.141-1.428 5.058 5.058 0 011.482-1.003 4.215 4.215 0 011.76-.366c.968 0 1.769.331 2.406 1.002.636.672.836 1.57.618 2.685-.148.75-.644 1.438-1.481 2.065a54.252 54.252 0 00-2.432 1.953c-.784.67-1.333 1.377-1.647 2.126-.314.75-.026 1.569.863 2.458.261.296.549.592.863.897.314.297.619.663.897 1.09.279.427.515.95.698 1.568.183.62.279 1.351.279 2.205a76.992 76.992 0 00-6.284 4.27c-2.1 1.587-3.966 3.33-5.587 5.256a22.232 22.232 0 00-3.773 6.345c-.898 2.31-1.194 4.82-.898 7.547.113.854.323 1.726.645 2.597a9.75 9.75 0 001.203 2.345 7.333 7.333 0 001.708 1.734 4.046 4.046 0 002.153.758c1.49.114 2.902-.314 4.244-1.28 1.342-.968 2.571-2.302 3.686-3.993 1.116-1.699 2.127-3.695 3.016-6.004a48.227 48.227 0 002.179-7.373c.679-3.277 1.063-5.935 1.115-7.966zm-24.472-17.936c-.314.096-.68.192-1.089.305a7.85 7.85 0 01.949-1.62c.445-.593.872-.925 1.282-.977.409-.052.697.017.862.227.166.209.175.488.027.836-.149.358-.541.663-1.177.924-.244.113-.54.218-.854.305zm1.429.366c.968-.444 1.517-.976 1.647-1.595.131-.618-.008-1.115-.418-1.507-.41-.393-1.037-.567-1.874-.532-.836.035-1.725.462-2.658 1.281-.706.636-1.307 1.456-1.786 2.458a11.763 11.763 0 00-1.003 3.155 10.461 10.461 0 00-.026 3.294c.166 1.098.567 2.04 1.203 2.824.749.967 1.708 1.534 2.876 1.708 1.176.166 2.431.043 3.774-.366a12.752 12.752 0 003.573-1.76 24.55 24.55 0 003.242-2.711 24.94 24.94 0 002.736-3.242 27.739 27.739 0 002.066-3.355c.078-.149.087-.288.026-.419a.487.487 0 00-.279-.279.577.577 0 00-.418 0 .568.568 0 00-.331.305 20.977 20.977 0 01-1.953 3.216 28.042 28.042 0 01-2.571 3.016 21.665 21.665 0 01-2.989 2.545c-1.063.75-2.153 1.307-3.268 1.673-1.159.41-2.127.523-2.902.331-.785-.183-1.377-.767-1.787-1.734-.409-1.002-.575-2.179-.505-3.521a17.13 17.13 0 01.723-4.027c1.15-.122 2.118-.383 2.902-.758zm-17.91-12.933c.2-1.586.506-3.32.898-5.22s.863-3.827 1.42-5.787c.559-1.953 1.22-3.722 1.988-5.308.767-1.586 1.647-2.859 2.658-3.826 1.002-.967 2.144-1.412 3.407-1.342.968.078 1.709.505 2.205 1.281a9.776 9.776 0 011.142 2.458c.297 1.08.471 2.344.532 3.8.052 1.455-.105 3.076-.471 4.863l-.505 2.013c-.558 1.9-1.281 3.582-2.179 5.055-.898 1.473-1.917 2.745-3.077 3.826-1.263 1.194-2.614 2.16-4.052 2.902a16.505 16.505 0 01-4.445 1.569c.035-.41.052-.837.052-1.282 0-.444.018-.897.053-1.342.043-.863.165-2.083.374-3.66zm11.984-1.456c.967-1.542 1.734-3.303 2.292-5.281.113-.375.218-.732.305-1.09.096-.357.174-.697.253-1.036.409-1.866.584-3.565.531-5.116-.052-1.543-.252-2.894-.584-4.053a10.31 10.31 0 00-1.533-3.041c-.689-.95-1.63-1.465-2.824-1.534-1.264-.079-2.475.261-3.634 1.002-1.16.75-2.232 1.795-3.243 3.155-1.002 1.36-1.917 2.972-2.736 4.837a45.332 45.332 0 00-2.127 6.004 62.748 62.748 0 00-1.455 6.676 60.164 60.164 0 00-.723 6.877 54.226 54.226 0 00.226 7.878c.262 2.493.732 4.663 1.42 6.51.69 1.848 1.622 3.26 2.798 4.245 1.177.984 2.597 1.333 4.27 1.037.968-.183 1.883-.636 2.737-1.342.854-.706 1.656-1.57 2.406-2.571a21.829 21.829 0 001.455-2.266c.445-.802.854-1.604 1.229-2.406.375-.801.715-1.586 1.037-2.344.314-.767.584-1.464.811-2.092.113-.33.008-.566-.305-.697-.314-.13-.549-.026-.698.305-.409 1.229-.993 2.676-1.76 4.332a26.808 26.808 0 01-2.658 4.558 13.876 13.876 0 01-2.127 2.292c-.75.636-1.525 1.028-2.344 1.176-.933.183-1.717-.026-2.344-.645-.637-.618-1.16-1.464-1.57-2.544-.409-1.081-.722-2.301-.95-3.66a40.747 40.747 0 01-.47-4.027 51.151 51.151 0 01-.14-3.687V46.87a18.18 18.18 0 004.838-1.621 17.144 17.144 0 004.383-3.129c1.186-1.185 2.266-2.562 3.234-4.105zM72.705 52.038c-.314.096-.68.192-1.09.305a7.84 7.84 0 01.95-1.62c.445-.593.872-.925 1.282-.977.41-.052.697.017.862.227.166.209.175.488.026.836-.148.358-.54.663-1.176.924-.253.113-.54.218-.854.305zm1.42.366c.968-.444 1.517-.976 1.648-1.595.13-.618-.01-1.115-.419-1.507-.41-.393-1.037-.567-1.873-.532-.837.035-1.726.462-2.659 1.281-.706.636-1.307 1.456-1.786 2.458a11.786 11.786 0 00-1.002 3.155 10.443 10.443 0 00-.027 3.294c.166 1.098.567 2.04 1.203 2.824.75.967 1.708 1.534 2.876 1.708 1.177.166 2.432.043 3.774-.366a12.734 12.734 0 003.573-1.76 24.518 24.518 0 005.979-5.953 27.808 27.808 0 002.065-3.355c.078-.149.087-.288.026-.419a.488.488 0 00-.279-.279.578.578 0 00-.418 0 .57.57 0 00-.331.305 20.987 20.987 0 01-1.952 3.216 28.132 28.132 0 01-2.571 3.016 21.686 21.686 0 01-2.99 2.545c-1.063.75-2.152 1.307-3.268 1.673-1.159.41-2.126.523-2.902.331-.784-.183-1.377-.767-1.787-1.734-.41-1.002-.575-2.179-.505-3.521.078-1.342.314-2.684.723-4.027 1.15-.122 2.118-.383 2.902-.758zm-25.561-12.88c.2-1.587.496-3.321.862-5.221.375-1.9.837-3.826 1.395-5.787.558-1.952 1.229-3.722 2.013-5.308.784-1.586 1.665-2.858 2.658-3.826.985-.967 2.118-1.412 3.382-1.342.967.079 1.717.506 2.23 1.281a7.973 7.973 0 011.116 2.458c.332 1.08.523 2.344.558 3.8.035 1.455-.13 3.076-.505 4.863a13.091 13.091 0 01-.506 2.013c-.523 1.9-1.237 3.582-2.152 5.055-.916 1.473-1.944 2.745-3.103 3.826a16.511 16.511 0 01-4.026 2.902 17.158 17.158 0 01-4.41 1.569c0-.41.008-.837.026-1.281.017-.445.043-.898.087-1.343.044-.854.166-2.074.375-3.66zm5.42 24.306c-.427-.314-.697-.697-.81-1.142-.113-.444-.052-.906.166-1.368.226-.462.706-.81 1.455-1.037a5.684 5.684 0 011.787-.28c.636 0 1.176-.034 1.62-.112-.26 1.115-.627 2.065-1.089 2.85-.462.784-1.02 1.246-1.647 1.394-.558.113-1.054.008-1.481-.305zM52.39 60.7c-.375.723-.488 1.447-.331 2.153.148.706.549 1.307 1.202 1.786.654.48 1.482.62 2.484.392 1.08-.226 2.013-.836 2.798-1.847.784-1.011 1.394-2.196 1.847-3.573a24.02 24.02 0 003.469-.898 15.198 15.198 0 003.015-1.42 10.053 10.053 0 002.458-2.127c.706-.837 1.281-1.874 1.734-3.103.114-.296 0-.514-.33-.645-.332-.13-.559-.043-.672.253-.41 1.08-.932 1.996-1.569 2.737a10.176 10.176 0 01-2.126 1.9c-.784.523-1.647.95-2.597 1.28-.95.332-1.961.62-3.042.837.297-1.194.445-2.414.445-3.66s-.166-2.37-.506-3.381c-.34-1.011-.854-1.822-1.569-2.458-.706-.636-1.62-.95-2.736-.95-1.002 0-1.9.4-2.684 1.203-.785.801-1.482 1.786-2.092 2.963a20.291 20.291 0 00-1.508 3.773 53.763 53.763 0 00-.924 3.574 31.47 31.47 0 01-.618-3.495 49.534 49.534 0 01-.305-3.608c-.053-1.15-.096-2.214-.114-3.181a41.28 41.28 0 00-.087-2.292 17.751 17.751 0 004.863-1.621c1.569-.785 3.033-1.822 4.41-3.13a22.34 22.34 0 003.216-4.104c.95-1.543 1.726-3.303 2.318-5.281.227-.706.392-1.412.506-2.127.41-1.865.584-3.564.531-5.116-.052-1.542-.252-2.893-.584-4.052a9.386 9.386 0 00-1.481-3.042c-.689-.95-1.647-1.464-2.876-1.534-1.264-.078-2.475.262-3.634 1.002-1.16.75-2.232 1.796-3.242 3.155-1.003 1.36-1.918 2.972-2.737 4.837a42.984 42.984 0 00-2.11 6.005 62.726 62.726 0 00-1.428 6.676 64.323 64.323 0 00-.715 6.876 53.778 53.778 0 000 5.029c.078 1.638.226 3.198.47 4.663.236 1.472.558 2.832.96 4.078.4 1.246.88 2.318 1.428 3.216a.915.915 0 00.532.47c.244.097.47.114.697.053a.96.96 0 00.558-.366c.148-.183.2-.444.166-.784 0-.445.078-1.081.226-1.9.148-.82.358-1.717.62-2.685.26-.967.583-1.934.975-2.902.392-.967.828-1.856 1.316-2.658.48-.802 1.002-1.455 1.569-1.952.558-.506 1.133-.732 1.734-.697.558.034 1.011.366 1.368.976.358.619.62 1.394.785 2.344.166.95.253 1.996.253 3.129s-.096 2.248-.28 3.32a14.79 14.79 0 01-1.925.114c-.689 0-1.351.096-1.987.279-1.064.296-1.77.793-2.144 1.516zm-27.436-1.787a48.528 48.528 0 002.318-4.75 54.22 54.22 0 00.811-2.091c.078-.148.078-.279 0-.392a.724.724 0 00-.305-.253.682.682 0 00-.418-.026.354.354 0 00-.28.279c-.444 1.229-1.054 2.675-1.812 4.331a26.818 26.818 0 01-2.658 4.558 12.591 12.591 0 01-2.066 2.292c-.75.637-1.525 1.029-2.344 1.177-.75.148-1.377.043-1.9-.305-.523-.357-.985-.863-1.394-1.534a9.988 9.988 0 01-1.003-2.458 23.71 23.71 0 01-.531-2.623 40.15 40.15 0 01-.305-2.684c-.079-.898-.21-1.77-.393-2.623-.182-.854-.496-1.404-.923-1.648-.427-.244-.793-.174-1.09.192a1.193 1.193 0 00-.33.724 8.461 8.461 0 01-.166.897c-.149.375-.497 1.037-1.038 1.987-.54.95-1.141 1.926-1.812 2.937A25.139 25.139 0 015.3 59.56c-.67.767-1.211 1.125-1.62 1.09-.489-.035-.811-.375-.977-1.002-.165-.637-.218-1.395-.14-2.293.08-.897.245-1.865.506-2.902a14.98 14.98 0 011.003-2.85c.41-.854.862-1.568 1.368-2.126.505-.558 1.01-.802 1.534-.724.296.035.653.21 1.063.506.41.296.767.82 1.063 1.569.079.226.183.366.331.418a.437.437 0 00.393-.026c.113-.078.191-.192.252-.366.053-.166.027-.366-.087-.584-.41-.784-.845-1.377-1.316-1.787a2.651 2.651 0 00-1.647-.67c-1.08-.036-2.074.278-2.99.95-.914.67-1.681 1.533-2.317 2.596a12.209 12.209 0 00-1.395 3.434C.03 56.021-.067 57.154.046 58.2c.113 1.046.445 1.908 1.002 2.597.558.688 1.395.993 2.52.924.557-.035 1.15-.323 1.786-.863.636-.54 1.263-1.203 1.9-1.987a27.252 27.252 0 001.786-2.484 24.733 24.733 0 001.395-2.431c.035.854.113 1.725.226 2.597.114.871.28 1.725.506 2.544.226.82.514 1.613.863 2.371a7.087 7.087 0 001.42 2.04c1.342 1.411 2.98 1.952 4.916 1.62.967-.183 1.882-.636 2.736-1.342.854-.706 1.656-1.569 2.405-2.57a28.34 28.34 0 001.447-2.302zM390.504 128.392h.802l-.017-13.23h-.802l.017 13.23zm-3.826-2.702c0 .297-.061.567-.183.811a2.135 2.135 0 01-.496.654 2.514 2.514 0 01-1.639.61c-.322 0-.619-.053-.889-.166a2.074 2.074 0 01-.714-.444 1.973 1.973 0 01-.654-1.465c0-.322.061-.61.192-.871.13-.262.296-.488.514-.671a2.31 2.31 0 01.758-.427 2.68 2.68 0 01.933-.157h2.178v2.126zm.018 2.702h.898c-.027-.026-.044-.122-.07-.296a6.457 6.457 0 01-.044-.68c-.009-.279-.026-.593-.026-.941-.009-.349-.009-.706-.009-1.072v-1.177c0-.392.009-.741.018-1.046 0-.357.008-.697.017-1.011v-.191a4.034 4.034 0 00-.279-1.264 3.738 3.738 0 00-.618-1.037 2.946 2.946 0 00-.881-.697 2.447 2.447 0 00-1.054-.279h-.018c-.854 0-1.656.104-2.414.322l.192.767c.654-.192 1.394-.287 2.222-.287h.018c.305.008.584.095.836.252.253.157.462.358.645.61.175.253.314.558.41.898.096.349.139.706.139 1.089v.419H384.5c-.436 0-.846.07-1.238.209a2.956 2.956 0 00-1.726 1.534 2.638 2.638 0 00-.261 1.168c0 .392.087.767.253 1.115.165.349.383.654.662.915.27.262.601.471.976.619.375.157.776.227 1.194.227.462 0 .889-.087 1.281-.262a3.39 3.39 0 001.037-.697l.018.793zm-13.883-9.499h-.898c.026.026.043.113.07.261.017.148.026.331.026.549l.017 8.689h.802l-.017-6.51a3.13 3.13 0 01.305-.959c.156-.296.348-.549.575-.767a2.53 2.53 0 01.775-.505c.288-.122.593-.183.907-.183.348 0 .671.069.976.209.305.139.575.331.802.575a2.9 2.9 0 01.784 1.917l.017 6.223h.802l-.061-6.223a3.728 3.728 0 00-.279-1.368 3.559 3.559 0 00-.688-1.107 3.46 3.46 0 00-1.011-.749 2.936 2.936 0 00-1.255-.279c-.549 0-1.055.131-1.517.392a3.234 3.234 0 00-1.15 1.124V118.893h.018zm-11.557 6.675c.235.593.558 1.116.968 1.56.409.445.888.802 1.438 1.064a4.02 4.02 0 001.743.392c.61 0 1.185-.131 1.725-.392a4.529 4.529 0 001.403-1.064c.401-.444.724-.967.959-1.56a5.126 5.126 0 00.357-1.908c0-.689-.122-1.334-.357-1.935a5.095 5.095 0 00-.959-1.569 4.633 4.633 0 00-1.403-1.063 3.889 3.889 0 00-1.725-.392 4.02 4.02 0 00-1.743.392 4.658 4.658 0 00-1.438 1.063 4.95 4.95 0 00-.968 1.569 5.268 5.268 0 00-.357 1.935c.009.68.122 1.316.357 1.908zm.741-3.521c.192-.505.453-.941.793-1.324.34-.375.732-.671 1.177-.889a3.214 3.214 0 011.438-.323 3.1 3.1 0 011.403.323 3.68 3.68 0 011.15.889c.323.374.584.819.776 1.324.192.506.287 1.046.287 1.621 0 .558-.095 1.099-.287 1.595a4.22 4.22 0 01-.776 1.308 3.682 3.682 0 01-1.15.88 3.127 3.127 0 01-1.403.322c-.515 0-.994-.104-1.438-.322a4.002 4.002 0 01-1.177-.88 4.046 4.046 0 01-.793-1.308 4.451 4.451 0 01-.288-1.595c0-.575.096-1.115.288-1.621zm-4.602-5.734a.558.558 0 00.776 0 .49.49 0 00.174-.366.488.488 0 00-.174-.366.553.553 0 00-.383-.157.533.533 0 00-.393.157.51.51 0 00-.165.366.48.48 0 00.165.366zm.009 12.079h.784l-.017-9.569h-.784l.017 9.569zm-3.05-8.48c-.331-.348-.767-.627-1.29-.854a4.282 4.282 0 00-1.691-.331 4.33 4.33 0 00-1.229.174 3.333 3.333 0 00-1.011.488 2.341 2.341 0 00-.697.767 1.92 1.92 0 00-.261.985c0 .331.078.654.226.959.157.305.366.584.628.836.261.253.584.462.958.645a4.11 4.11 0 001.229.366c.349.053.663.14.95.279.288.131.541.297.75.488.209.192.374.401.488.619.113.227.174.453.174.697 0 .523-.227.942-.688 1.264-.462.322-1.02.479-1.682.479a3.35 3.35 0 01-1.36-.27c-.418-.183-.767-.401-1.037-.671l-.61.479c.331.393.775.706 1.333.916a4.901 4.901 0 001.735.322c.418 0 .819-.061 1.193-.183.375-.122.706-.296.994-.514.288-.227.514-.488.68-.793.165-.305.253-.654.253-1.037 0-.349-.07-.671-.218-.985a2.903 2.903 0 00-.619-.846 3.718 3.718 0 00-.959-.645 4.204 4.204 0 00-1.202-.366 3.675 3.675 0 01-.959-.27 2.93 2.93 0 01-.758-.47 2.072 2.072 0 01-.488-.602 1.444 1.444 0 01-.175-.671c0-.488.218-.88.663-1.185.444-.305.984-.462 1.638-.462.471 0 .915.07 1.342.218.419.148.776.357 1.072.645l.628-.471zm-8.942 0c-.331-.348-.767-.627-1.29-.854a4.282 4.282 0 00-1.691-.331c-.435 0-.845.061-1.229.174a3.316 3.316 0 00-1.01.488 2.344 2.344 0 00-.698.767 1.92 1.92 0 00-.261.985c0 .331.078.654.226.959.157.305.366.584.628.836.261.253.584.462.959.645.366.183.775.297 1.228.366.349.053.663.14.95.279.288.131.541.297.75.488.209.192.375.401.488.619.113.227.174.453.174.697 0 .523-.226.942-.688 1.264-.462.322-1.02.479-1.682.479-.488 0-.942-.087-1.36-.27-.418-.183-.767-.401-1.037-.671l-.61.479c.331.393.776.706 1.333.916a4.901 4.901 0 001.735.322 3.85 3.85 0 001.194-.183 3.35 3.35 0 00.993-.514c.288-.227.514-.488.68-.793.166-.305.253-.654.253-1.037 0-.349-.07-.671-.218-.985a2.885 2.885 0 00-.619-.846 3.861 3.861 0 00-.959-.645 4.204 4.204 0 00-1.202-.366 3.675 3.675 0 01-.959-.27 2.93 2.93 0 01-.758-.47 2.088 2.088 0 01-.488-.602 1.456 1.456 0 01-.175-.671c0-.488.218-.88.663-1.185.444-.305.985-.462 1.638-.462.471 0 .915.07 1.342.218.419.148.776.357 1.072.645l.628-.471zm-10.249-3.599a.558.558 0 00.775 0 .488.488 0 00.175-.366.485.485 0 00-.175-.366.553.553 0 00-.383-.157.53.53 0 00-.392.157.508.508 0 00-.166.366c0 .139.061.261.166.366zm.009 12.079h.784l-.018-9.569h-.784l.018 9.569zm-2.659-13.264a2.62 2.62 0 00-.453-.035h-.47c-.366 0-.724.087-1.055.261a3.04 3.04 0 00-.871.697 3.335 3.335 0 00-.602 1.029 4.187 4.187 0 00-.27 1.237v.358l.009.122.008.104c0 .087-.008.131-.017.131h-1.421v.819h1.456v5.36c0 1.046.009 2.109.017 3.181h.75l-.018-8.541h2.528v-.819h-2.528v-.497c0-.357.053-.697.157-1.011.105-.322.244-.601.427-.845s.401-.436.645-.575c.244-.14.506-.218.785-.227h.366c.13 0 .235.009.322.035l.235-.784zm-15.844 10.44c.235.593.558 1.116.968 1.56.409.445.889.802 1.438 1.064a4.02 4.02 0 001.743.392c.61 0 1.185-.131 1.725-.392a4.529 4.529 0 001.403-1.064c.401-.444.724-.967.959-1.56a5.126 5.126 0 00.357-1.908c0-.689-.122-1.334-.357-1.935a5.095 5.095 0 00-.959-1.569 4.633 4.633 0 00-1.403-1.063 3.889 3.889 0 00-1.725-.392 3.99 3.99 0 00-1.743.392 4.67 4.67 0 00-1.438 1.063 4.95 4.95 0 00-.968 1.569 5.268 5.268 0 00-.357 1.935c0 .68.122 1.316.357 1.908zm.732-3.521c.192-.505.453-.941.793-1.324.34-.375.732-.671 1.177-.889a3.218 3.218 0 011.438-.323c.497 0 .967.105 1.403.323.445.218.819.514 1.15.889a4.53 4.53 0 011.064 2.945c0 .558-.096 1.099-.288 1.595a4.22 4.22 0 01-.776 1.308 3.671 3.671 0 01-1.15.88 3.121 3.121 0 01-1.403.322c-.514 0-.994-.104-1.438-.322a4.002 4.002 0 01-1.177-.88 4.046 4.046 0 01-.793-1.308 4.472 4.472 0 01-.287-1.595c0-.575.096-1.115.287-1.621zm-3.041-3.285a.756.756 0 00-.236-.044c-.087-.008-.157-.008-.218-.008-.549 0-1.045.13-1.499.392a3.268 3.268 0 00-1.141 1.124v-1.421h-.898c.026.027.044.131.07.323.017.192.026.392.026.61l.017 8.654h.802l-.017-6.475c.052-.349.148-.663.296-.959a2.641 2.641 0 011.342-1.272c.288-.122.593-.183.907-.183h.183l.183.034.183-.775zm-10.145-2.833h.061a3.203 3.203 0 012.057.741c.27.227.479.488.627.785.157.296.227.618.227.967 0 .375-.078.706-.227 1.011a2.666 2.666 0 01-.627.802c-.27.226-.575.409-.933.531a3.164 3.164 0 01-1.124.192h-3.007v-5.037h2.946v.008zm.052 5.84c.515 0 .994-.088 1.456-.262a3.72 3.72 0 001.185-.706c.331-.296.593-.653.793-1.063.201-.41.297-.845.297-1.325a2.75 2.75 0 00-.297-1.264c-.2-.392-.462-.74-.793-1.037a3.701 3.701 0 00-1.185-.697 4.071 4.071 0 00-1.456-.261h-3.808l.017 13.229h.802l-.017-6.623h3.006v.009zm-7.39 3.921c0 .297-.061.567-.183.811a2.138 2.138 0 01-.497.654 2.488 2.488 0 01-1.638.61c-.323 0-.619-.053-.889-.166a2.088 2.088 0 01-.715-.444 1.985 1.985 0 01-.479-.654 1.953 1.953 0 01-.175-.811c0-.322.061-.61.192-.871a2.07 2.07 0 01.514-.671c.218-.183.471-.331.759-.427a2.67 2.67 0 01.932-.157h2.179v2.126zm.026 2.702h.898c-.026-.026-.044-.122-.07-.296a6.457 6.457 0 01-.044-.68c-.008-.279-.026-.593-.026-.941-.008-.349-.008-.706-.008-1.072v-1.177c0-.392.008-.741.017-1.046 0-.357.009-.697.017-1.011v-.191a4.06 4.06 0 00-.278-1.264 3.716 3.716 0 00-.619-1.037 2.943 2.943 0 00-.88-.697 2.455 2.455 0 00-1.055-.279h-.017c-.854 0-1.656.104-2.415.322l.192.767c.654-.192 1.395-.287 2.223-.287h.017c.305.008.584.095.837.252.252.157.462.358.645.61.174.253.313.558.409.898.096.349.14.706.14 1.089v.419h-2.179c-.436 0-.846.07-1.238.209a2.953 2.953 0 00-1.725 1.534 2.625 2.625 0 00-.262 1.168c0 .392.087.767.253 1.115.166.349.383.654.662.915.271.262.602.471.976.619.375.157.776.227 1.194.227.462 0 .889-.087 1.282-.262.392-.174.74-.401 1.037-.697l.017.793zm-14.92 0h7.024l-.017-.819h-5.97l5.97-7.922v-.819h-6.972v.819h5.917l-5.97 7.922.018.819zm-9.186-5.185a4.9 4.9 0 01.314-1.447c.174-.453.392-.846.662-1.177a3.23 3.23 0 01.915-.784 2.213 2.213 0 011.089-.288c.393 0 .767.096 1.107.288.349.192.654.453.915.784.271.331.488.724.663 1.177a4.9 4.9 0 01.313 1.447h-5.978zm1.996 4.279a3.37 3.37 0 01-.994-.802 4.127 4.127 0 01-.697-1.194 4.63 4.63 0 01-.305-1.49h6.754v-.462c0-.689-.096-1.325-.287-1.918a5.003 5.003 0 00-.794-1.533 3.915 3.915 0 00-1.194-1.029 3.045 3.045 0 00-1.49-.375c-.523 0-1.011.131-1.473.393a3.965 3.965 0 00-1.202 1.063 5.146 5.146 0 00-.82 1.569 6.02 6.02 0 00-.305 1.917v.366c.035.636.166 1.237.393 1.787a5.06 5.06 0 00.88 1.455c.366.418.775.741 1.246.976.462.235.967.357 1.499.357h.262c.087 0 .165-.008.235-.017h.017a9.64 9.64 0 001.229-.305 6.62 6.62 0 001.072-.462l-.322-.706a5.345 5.345 0 01-.541.235 6.01 6.01 0 01-.645.227c-.226.07-.444.131-.671.174-.226.044-.435.07-.645.07-.427 0-.819-.105-1.202-.296zm-6.171.906h.802l-.017-13.23h-.802l.017 13.23zm-9.578-5.185c.035-.515.14-.994.314-1.447.174-.453.392-.846.662-1.177.271-.331.576-.592.915-.784a2.23 2.23 0 012.197 0c.348.192.653.453.915.784.27.331.488.724.662 1.177.174.453.279.932.314 1.447h-5.979zm2.005 4.279a3.37 3.37 0 01-.994-.802 4.15 4.15 0 01-.697-1.194 4.63 4.63 0 01-.305-1.49h6.754v-.462c0-.689-.096-1.325-.287-1.918a5.023 5.023 0 00-.793-1.533 3.938 3.938 0 00-1.194-1.029 3.051 3.051 0 00-1.491-.375c-.523 0-1.011.131-1.473.393a3.977 3.977 0 00-1.202 1.063 5.146 5.146 0 00-.82 1.569 6.02 6.02 0 00-.305 1.917v.366c.035.636.166 1.237.393 1.787a5.06 5.06 0 00.88 1.455c.366.418.776.741 1.246.976.462.235.968.357 1.499.357h.262c.087 0 .165-.008.235-.017h.017a9.64 9.64 0 001.229-.305 6.62 6.62 0 001.072-.462l-.322-.706a5.248 5.248 0 01-.541.235 6.01 6.01 0 01-.645.227c-.226.07-.444.131-.671.174-.226.044-.435.07-.645.07-.427 0-.827-.105-1.202-.296zm-9.238.104h-3.086v-5.839h3.426c.409.026.793.122 1.159.279.366.157.679.375.95.627.27.262.479.558.627.898.157.34.227.697.227 1.081 0 .392-.079.767-.227 1.107a3.076 3.076 0 01-1.577 1.568c-.366.166-.75.253-1.159.271h-.34v.008zm.348-11.661a3.47 3.47 0 011.064.236c.322.13.61.313.854.549.244.226.435.488.575.784.139.296.209.601.209.915 0 .349-.07.671-.209.976a2.38 2.38 0 01-.575.793 2.67 2.67 0 01-.854.532 3.05 3.05 0 01-1.064.218h-3.425v-5.02h3.425v.017zm0 12.428a3.944 3.944 0 001.491-.314c.461-.2.854-.461 1.194-.801.339-.34.601-.732.793-1.177.191-.444.287-.915.287-1.42a3.43 3.43 0 00-.584-1.953 3.492 3.492 0 00-1.577-1.298 3.532 3.532 0 001.377-1.22c.348-.515.514-1.098.514-1.752 0-.436-.096-.845-.279-1.238a3.367 3.367 0 00-.749-1.028 3.542 3.542 0 00-1.107-.706 3.973 3.973 0 00-1.368-.288h-4.227l.017 13.23h3.887l.331-.035zm-14.667-7.774h4.592l-.993 2.737h-4.61l1.011-2.737zm-4.593 3.582h2.414l-1.534 4.227h.88l1.517-4.227h4.61l-1.534 4.227h.88l1.517-4.227h3.181l.688-.845h-3.564l1.011-2.737h1.856l.671-.845h-2.222l1.342-3.678h-.863l-1.359 3.678h-4.593l1.342-3.678h-.863l-1.36 3.678h-3.346l-.671.845h3.712l-.993 2.737h-2.031l-.688.845zm-16.498 1.403c.235.593.558 1.116.967 1.56.41.445.889.802 1.438 1.064a4.02 4.02 0 001.743.392c.61 0 1.185-.131 1.726-.392a4.54 4.54 0 001.403-1.064c.401-.444.723-.967.959-1.56a5.126 5.126 0 00.357-1.908c0-.689-.122-1.334-.357-1.935a5.114 5.114 0 00-.959-1.569 4.645 4.645 0 00-1.403-1.063 3.893 3.893 0 00-1.726-.392 4.02 4.02 0 00-1.743.392 4.682 4.682 0 00-1.438 1.063 4.965 4.965 0 00-.967 1.569 5.248 5.248 0 00-.358 1.935c0 .68.122 1.316.358 1.908zm.741-3.521c.191-.505.453-.941.793-1.324a3.89 3.89 0 011.176-.889 3.22 3.22 0 011.438-.323c.497 0 .968.105 1.403.323.445.218.82.514 1.151.889a4.53 4.53 0 011.063 2.945c0 .558-.096 1.099-.288 1.595a4.218 4.218 0 01-.775 1.308 3.687 3.687 0 01-1.151.88 3.121 3.121 0 01-1.403.322 3.22 3.22 0 01-1.438-.322 4.011 4.011 0 01-1.176-.88 4.028 4.028 0 01-.793-1.308 4.451 4.451 0 01-.288-1.595c0-.575.096-1.115.288-1.621zm-3.051-3.285a.75.75 0 00-.235-.044c-.087-.008-.157-.008-.218-.008-.549 0-1.046.13-1.499.392a3.27 3.27 0 00-1.142 1.124v-1.421h-.897c.026.027.043.131.069.323.018.192.027.392.027.61l.017 8.654h.802l-.018-6.475c.053-.349.149-.663.297-.959a2.626 2.626 0 011.342-1.272c.287-.122.592-.183.906-.183h.183l.183.034.183-.775zm-7.852-2.449a.56.56 0 00.776 0 .49.49 0 00.174-.366.488.488 0 00-.174-.366.556.556 0 00-.384-.157.53.53 0 00-.392.157.508.508 0 00-.166.366c0 .139.053.261.166.366zm.009 12.079h.784l-.017-9.569h-.785l.018 9.569zm-9.578-5.185a4.9 4.9 0 01.313-1.447 4.26 4.26 0 01.663-1.177 3.23 3.23 0 01.915-.784 2.23 2.23 0 012.196 0c.349.192.654.453.915.784.27.331.488.724.662 1.177a4.9 4.9 0 01.314 1.447h-5.978zm2.004 4.279a3.353 3.353 0 01-.993-.802 4.152 4.152 0 01-.698-1.194 4.63 4.63 0 01-.305-1.49h6.755v-.462c0-.689-.096-1.325-.288-1.918a5 5 0 00-.793-1.533 3.938 3.938 0 00-1.194-1.029 3.05 3.05 0 00-1.49-.375c-.523 0-1.011.131-1.473.393a3.969 3.969 0 00-1.203 1.063 5.122 5.122 0 00-.819 1.569 5.992 5.992 0 00-.305 1.917v.366c.035.636.165 1.237.392 1.787.227.557.514 1.037.88 1.455.366.418.776.741 1.246.976.462.235.968.357 1.499.357h.262c.087 0 .166-.008.235-.017h.018a9.725 9.725 0 001.229-.305c.383-.131.74-.279 1.072-.462l-.323-.706a5.32 5.32 0 01-.54.235 6.168 6.168 0 01-.645.227c-.227.07-.445.131-.671.174-.227.044-.436.07-.645.07-.427 0-.828-.105-1.203-.296zm-4.915-8.724a.756.756 0 00-.236-.044c-.087-.008-.156-.008-.217-.008-.55 0-1.046.13-1.499.392a3.262 3.262 0 00-1.142 1.124v-1.421h-.898c.026.027.044.131.07.323.017.192.026.392.026.61l.017 8.654h.802l-.017-6.475c.052-.349.148-.663.296-.959a2.641 2.641 0 011.342-1.272c.288-.122.593-.183.907-.183h.183l.183.034.183-.775zm-7.861-2.449a.558.558 0 00.775 0 .488.488 0 00.175-.366.485.485 0 00-.175-.366.553.553 0 00-.383-.157.53.53 0 00-.392.157.508.508 0 00-.166.366c0 .139.061.261.166.366zm.017 12.079h.784l-.017-9.569h-.784l.017 9.569zm-9.578-5.185a4.9 4.9 0 01.314-1.447c.174-.453.392-.846.662-1.177a3.23 3.23 0 01.915-.784 2.214 2.214 0 011.09-.288c.392 0 .767.096 1.106.288.349.192.654.453.916.784.27.331.488.724.662 1.177.174.453.279.932.314 1.447h-5.979zm2.005 4.279a3.37 3.37 0 01-.994-.802 4.127 4.127 0 01-.697-1.194 4.63 4.63 0 01-.305-1.49h6.754v-.462c0-.689-.096-1.325-.288-1.918a4.979 4.979 0 00-.793-1.533 3.926 3.926 0 00-1.194-1.029 3.048 3.048 0 00-1.49-.375c-.523 0-1.011.131-1.473.393a3.969 3.969 0 00-1.203 1.063 5.166 5.166 0 00-.819 1.569 6.02 6.02 0 00-.305 1.917v.366a5.48 5.48 0 00.392 1.787c.227.557.515 1.037.881 1.455.366.418.775.741 1.246.976.462.235.967.357 1.499.357h.261c.088 0 .166-.008.236-.017h.017a9.64 9.64 0 001.229-.305 6.658 6.658 0 001.072-.462l-.323-.706a5.224 5.224 0 01-.54.235 6.01 6.01 0 01-.645.227c-.226.07-.444.131-.671.174-.226.044-.436.07-.645.07-.427 0-.828-.105-1.202-.296zm-6.18.906h.802l-.017-13.23h-.802l.017 13.23zm-9.569-5.185c.035-.515.14-.994.314-1.447.174-.453.392-.846.662-1.177a3.23 3.23 0 01.915-.784 2.23 2.23 0 012.197 0c.348.192.653.453.915.784.27.331.488.724.662 1.177.174.453.279.932.314 1.447h-5.979zm1.996 4.279a3.37 3.37 0 01-.994-.802 4.15 4.15 0 01-.697-1.194 4.63 4.63 0 01-.305-1.49h6.754v-.462c0-.689-.095-1.325-.287-1.918a5 5 0 00-.793-1.533 3.938 3.938 0 00-1.194-1.029 3.051 3.051 0 00-1.491-.375 2.93 2.93 0 00-1.472.393 3.969 3.969 0 00-1.203 1.063 5.122 5.122 0 00-.819 1.569 5.992 5.992 0 00-.305 1.917v.366c.034.636.165 1.237.392 1.787a5.06 5.06 0 00.88 1.455c.366.418.776.741 1.246.976.462.235.968.357 1.499.357h.262c.087 0 .165-.008.235-.017h.018a9.666 9.666 0 001.228-.305 6.62 6.62 0 001.072-.462l-.322-.706a5.32 5.32 0 01-.54.235 6.168 6.168 0 01-.645.227c-.227.07-.445.131-.671.174-.227.044-.436.07-.645.07-.427 0-.82-.105-1.203-.296zm-12.428.331c.331.218.75.392 1.246.523a7.246 7.246 0 001.647.235 4.272 4.272 0 001.787-.409 4.872 4.872 0 001.456-1.064 4.99 4.99 0 00.984-1.568 5.045 5.045 0 00.366-1.918c0-.662-.122-1.29-.366-1.882a5.378 5.378 0 00-.984-1.569 4.642 4.642 0 00-1.456-1.072 4.154 4.154 0 00-1.787-.392c-.575 0-1.106.061-1.594.192-.488.13-.907.313-1.238.557v-4.288h-.802v11.435c-.008.322-.035.601-.061.845-.026.218-.043.418-.061.61-.008.192-.035.305-.061.349h.941l-.017-.584zm0-7.277c.035-.14.139-.27.305-.401.166-.131.384-.235.645-.331.261-.096.558-.166.889-.218.331-.053.68-.079 1.054-.079.515 0 .994.114 1.456.331.462.227.863.523 1.203.898.348.375.618.811.819 1.307a4.267 4.267 0 010 3.164 4.162 4.162 0 01-.819 1.307c-.349.366-.75.671-1.203.889-.462.227-.941.34-1.456.358a7.72 7.72 0 01-1.124-.114 4.102 4.102 0 01-.915-.261 1.989 1.989 0 01-.619-.375c-.157-.139-.226-.288-.226-.444v-6.031h-.009zm-4.48 5.15c0 .297-.061.567-.183.811a2.135 2.135 0 01-.496.654 2.514 2.514 0 01-1.639.61c-.322 0-.619-.053-.889-.166a2.074 2.074 0 01-.714-.444 1.968 1.968 0 01-.654-1.465c0-.322.061-.61.192-.871.13-.262.296-.488.514-.671a2.32 2.32 0 01.758-.427 2.68 2.68 0 01.933-.157h2.178v2.126zm.018 2.702h.898c-.027-.026-.044-.122-.07-.296a6.457 6.457 0 01-.044-.68c-.008-.279-.026-.593-.026-.941-.009-.349-.009-.706-.009-1.072v-1.177c0-.392.009-.741.018-1.046 0-.357.009-.697.017-1.011v-.191a4.034 4.034 0 00-.279-1.264 3.738 3.738 0 00-.618-1.037 2.934 2.934 0 00-.881-.697 2.447 2.447 0 00-1.054-.279h-.018c-.854 0-1.656.104-2.414.322l.192.767c.654-.192 1.394-.287 2.222-.287h.018c.305.008.584.095.836.252.253.157.462.358.645.61.175.253.314.558.41.898.096.349.139.706.139 1.089v.419h-2.178c-.436 0-.846.07-1.238.209a2.956 2.956 0 00-1.726 1.534 2.638 2.638 0 00-.261 1.168c0 .392.087.767.253 1.115.165.349.383.654.662.915.27.262.601.471.976.619.375.157.776.227 1.194.227.462 0 .889-.087 1.281-.262a3.378 3.378 0 001.037-.697l.018.793zm-7.774-11.469a5.653 5.653 0 00-1.848-1.351 5.357 5.357 0 00-2.248-.488c-.846 0-1.63.183-2.353.549a6.484 6.484 0 00-1.909 1.464 7.019 7.019 0 00-1.281 2.135 7.022 7.022 0 00-.471 2.554c0 .933.166 1.813.497 2.632a7.128 7.128 0 001.333 2.153 6.456 6.456 0 001.918 1.455c.723.357 1.473.54 2.266.54.793 0 1.534-.165 2.222-.488a5.993 5.993 0 001.839-1.35l-.54-.541a5.673 5.673 0 01-1.613 1.142c-.584.279-1.228.409-1.917.409-.749 0-1.447-.156-2.074-.479a5.33 5.33 0 01-1.639-1.29 6.096 6.096 0 01-1.08-1.891 6.654 6.654 0 01-.392-2.292c0-.819.139-1.586.409-2.301a5.883 5.883 0 011.124-1.874 5.28 5.28 0 011.648-1.263 4.545 4.545 0 012.013-.462c.688 0 1.333.139 1.943.418.61.279 1.142.662 1.621 1.151v.061l.532-.593zm-13.422 11.469h.898c-.026-.026-.052-.131-.078-.305a4.28 4.28 0 01-.035-.61v-8.654h-.802v6.51a2.737 2.737 0 01-.279.941 2.738 2.738 0 01-.558.767 2.508 2.508 0 01-.767.514 2.163 2.163 0 01-.906.192 2.402 2.402 0 01-1.778-.793 3.094 3.094 0 01-.558-.863 2.786 2.786 0 01-.226-1.046l-.035-.095v-6.092h-.784v6.092l.061.095c.008.489.104.942.27 1.369.165.427.392.802.68 1.124.287.322.618.575 1.002.758.383.183.802.279 1.246.279a2.88 2.88 0 001.517-.418 3.561 3.561 0 001.132-1.09v1.325zm-15.129-5.185a4.9 4.9 0 01.314-1.447c.174-.453.392-.846.662-1.177a3.23 3.23 0 01.915-.784 2.213 2.213 0 011.089-.288c.393 0 .767.096 1.107.288.34.192.654.453.915.784.271.331.488.724.663 1.177.174.453.279.932.314 1.447h-5.979zm2.004 4.279a3.366 3.366 0 01-.993-.802 4.127 4.127 0 01-.697-1.194 4.63 4.63 0 01-.305-1.49h6.754v-.462c0-.689-.096-1.325-.288-1.918a4.979 4.979 0 00-.793-1.533 3.938 3.938 0 00-1.194-1.029 3.048 3.048 0 00-1.49-.375c-.523 0-1.011.131-1.473.393a3.969 3.969 0 00-1.203 1.063 5.166 5.166 0 00-.819 1.569 6.02 6.02 0 00-.305 1.917v.366a5.48 5.48 0 00.392 1.787c.227.557.514 1.037.881 1.455.366.418.775.741 1.246.976.462.235.967.357 1.499.357h.261c.087 0 .166-.008.236-.017h.017a9.683 9.683 0 001.229-.305 6.658 6.658 0 001.072-.462l-.323-.706a5.32 5.32 0 01-.54.235 6.01 6.01 0 01-.645.227c-.226.07-.444.131-.671.174-.227.044-.436.07-.645.07-.427 0-.828-.105-1.203-.296zm-10.423-4.933l-4.384-7.391h-.802l.018 13.23h.802l-.018-11.678 4.114 6.989h.497l4.061-6.989.017 11.678h.82l-.018-13.23h-.819l-4.288 7.391zm-7.913 1.978c.322-.836.479-1.751.479-2.745 0-.933-.157-1.804-.462-2.623a6.56 6.56 0 00-1.264-2.127 6.065 6.065 0 00-1.908-1.429 5.468 5.468 0 00-2.388-.523c-.828 0-1.613.174-2.336.523a6.169 6.169 0 00-1.917 1.438 6.816 6.816 0 00-1.29 2.126 7.181 7.181 0 00-.47 2.615c0 .959.165 1.848.487 2.684.323.828.758 1.552 1.308 2.153a6.027 6.027 0 001.917 1.429 5.22 5.22 0 002.3.514c.82 0 1.578-.156 2.293-.479a5.763 5.763 0 001.882-1.377 6.204 6.204 0 001.369-2.179zm-.724-5.15c.297.732.445 1.533.445 2.405 0 .828-.131 1.604-.401 2.327a6.076 6.076 0 01-1.098 1.882 5.077 5.077 0 01-1.665 1.273 4.666 4.666 0 01-2.074.47 4.546 4.546 0 01-2.04-.47 5.431 5.431 0 01-1.647-1.273 6 6 0 01-1.098-1.882 6.593 6.593 0 01-.4-2.327c0-.819.13-1.586.4-2.301a5.957 5.957 0 011.107-1.865 5.271 5.271 0 011.656-1.255 4.586 4.586 0 012.022-.462c.706 0 1.36.14 1.978.41.619.279 1.15.662 1.595 1.159.514.54.924 1.176 1.22 1.909zm-21.378 6.187c.235.593.558 1.116.967 1.56.41.445.89.802 1.438 1.064a4.02 4.02 0 001.743.392c.61 0 1.186-.131 1.726-.392a4.535 4.535 0 001.403-1.064c.401-.444.723-.967.959-1.56a5.12 5.12 0 00.357-1.908c0-.689-.122-1.334-.357-1.935a5.101 5.101 0 00-.959-1.569 4.637 4.637 0 00-1.403-1.063 3.89 3.89 0 00-1.726-.392c-.618 0-1.194.131-1.743.392a4.676 4.676 0 00-1.438 1.063 4.96 4.96 0 00-.967 1.569 5.262 5.262 0 00-.357 1.935 5.3 5.3 0 00.357 1.908zm.74-3.521a4.22 4.22 0 01.794-1.324c.34-.375.732-.671 1.176-.889a3.218 3.218 0 011.438-.323c.497 0 .968.105 1.404.323.444.218.819.514 1.15.889.322.374.584.819.776 1.324.191.506.287 1.046.287 1.621a4.42 4.42 0 01-.287 1.595 4.225 4.225 0 01-.776 1.308 3.685 3.685 0 01-1.15.88 3.124 3.124 0 01-1.404.322c-.514 0-.993-.104-1.438-.322a4.006 4.006 0 01-1.176-.88 4.044 4.044 0 01-.793-1.308 4.455 4.455 0 01-.288-1.595c0-.575.096-1.115.288-1.621zm-4.61-5.734a.559.559 0 00.776 0 .49.49 0 00.174-.366.487.487 0 00-.174-.366.554.554 0 00-.383-.157.53.53 0 00-.393.157.509.509 0 00-.165.366c0 .139.06.261.165.366zm.018 12.079h.784l-.017-9.569h-.785l.018 9.569zm-11.269-2.824c.235.593.558 1.116.967 1.56.41.445.89.802 1.438 1.064a4.02 4.02 0 001.743.392c.61 0 1.186-.131 1.726-.392a4.535 4.535 0 001.403-1.064c.401-.444.724-.967.959-1.56a5.12 5.12 0 00.357-1.908c0-.689-.122-1.334-.357-1.935a5.102 5.102 0 00-.959-1.569 4.636 4.636 0 00-1.403-1.063 3.89 3.89 0 00-1.726-.392c-.618 0-1.194.131-1.743.392a4.676 4.676 0 00-1.438 1.063 4.96 4.96 0 00-.967 1.569 5.262 5.262 0 00-.357 1.935c0 .68.122 1.316.357 1.908zm.732-3.521c.192-.505.453-.941.793-1.324.34-.375.732-.671 1.177-.889a3.218 3.218 0 011.438-.323c.496 0 .967.105 1.403.323.444.218.82.514 1.15.889.323.374.584.819.776 1.324.192.506.288 1.046.288 1.621a4.42 4.42 0 01-.288 1.595 4.225 4.225 0 01-.776 1.308 3.685 3.685 0 01-1.15.88 3.124 3.124 0 01-1.403.322c-.515 0-.994-.104-1.438-.322a4.006 4.006 0 01-1.177-.88 4.042 4.042 0 01-.793-1.308 4.455 4.455 0 01-.288-1.595c0-.575.096-1.115.288-1.621zm-10.606-3.207h-.959c.026.035.052.148.078.331.027.183.053.384.079.602.026.244.035.514.035.802v11.547h.784v-4.323c.331.218.75.393 1.255.532.506.14 1.037.209 1.595.209.636 0 1.238-.13 1.804-.392a4.787 4.787 0 001.464-1.063c.419-.445.741-.976.985-1.578.244-.61.366-1.255.366-1.943 0-.68-.122-1.307-.366-1.909a5.175 5.175 0 00-.985-1.551 4.763 4.763 0 00-1.464-1.055 4.352 4.352 0 00-1.804-.409 5.72 5.72 0 00-1.63.218c-.497.148-.915.331-1.246.549v-.567h.009zm0 1.743c0-.157.078-.296.226-.427.157-.13.358-.253.61-.357.253-.105.558-.183.907-.235a6.538 6.538 0 011.124-.088c.523 0 1.02.105 1.482.323a3.94 3.94 0 011.211.88c.349.375.619.802.81 1.299.2.496.297 1.028.297 1.586a4.358 4.358 0 01-1.107 2.946c-.349.374-.75.679-1.211.897-.462.227-.96.34-1.482.358a6.79 6.79 0 01-1.055-.105 6.205 6.205 0 01-.88-.218 2.338 2.338 0 01-.627-.314c-.166-.122-.27-.252-.305-.392v-6.153zm-13.308 7.809h.845l2.03-5.49h4.654l2.066 5.49h.845l-4.898-13.23h-.67l-4.872 13.23zm3.163-6.301l2.03-5.517 2.049 5.517H37.8zm-6.527 6.301h.897c-.026-.026-.052-.131-.078-.305a4.268 4.268 0 01-.035-.61v-8.654h-.802v6.51c-.035.331-.13.645-.279.941a2.749 2.749 0 01-.558.767 2.52 2.52 0 01-.767.514 2.167 2.167 0 01-.906.192 2.397 2.397 0 01-1.778-.793 3.069 3.069 0 01-.558-.863 2.773 2.773 0 01-.226-1.046l-.035-.095v-6.092h-.784v6.092l.06.095c.01.489.105.942.27 1.369.166.427.393.802.68 1.124.288.322.62.575 1.003.758.383.183.802.279 1.246.279.55 0 1.055-.139 1.517-.418a3.558 3.558 0 001.133-1.09v1.325zm-9.578-7.451h-5.84v-5.02h6.833v-.767h-7.643l.017 13.229h7.644l-.018-.801h-6.833v-5.84h5.84v-.801zm-16.9-.358H9.39l-.994 2.737h-4.61l1.01-2.737zm-4.6 3.582h2.413l-1.534 4.227h.88l1.517-4.227h4.61l-1.534 4.227h.88l1.517-4.227h3.181l.689-.845H9.249l1.011-2.737h1.857l.67-.845h-2.222l1.342-3.678h-.863l-1.359 3.678H5.092l1.342-3.678h-.863l-1.36 3.678H.866l-.67.845h3.712l-.994 2.737H.883l-.689.845z" fill="#000"/><path d="M2.792 148.176h212.746v1.743H2.792" fill="#8279B2"/><path d="M427.056 23.549c-.418.366-.906.67-1.228 1.106-1.508 2.022-2.964 4.08-4.436 6.127-.14.192-.288.366-.48.61-.261-.322-.479-.566-.68-.828-.575-.732-1.106-1.499-1.716-2.196-2.563-2.937-5.482-5.438-9.125-6.911-7.426-2.99-14.511-2.1-21.108 2.318-7.522 5.038-10.738 14.337-8.114 22.965 1.22 4.009 3.416 7.469 6.039 10.685 3.373 4.13 7.304 7.695 11.269 11.25 5.072 4.55 10.118 9.134 15.095 13.788 2.196 2.057 4.157 4.35 5.604 7.034.444.81.566 1.516.061 2.335-.288.462-.445 1.011-.671 1.517-.933 2.083-1.107 4.27-.854 6.501.069.602.278 1.212.549 1.761.627 1.255 1.943 1.908 3.233 1.708 1.368-.218 2.527-1.334 2.702-2.728.095-.758.191-1.578.026-2.31-.419-1.847-.828-3.73-1.534-5.473-.523-1.298-.244-2.205.593-3.085 1.847-1.935 3.59-3.991 5.621-5.726 6.362-5.447 16.541-14.136 22.982-19.487l-1.726-1.447c-2.614 2.258-9.098 8.158-11.765 10.363-5.622 4.636-11.295 9.203-16.481 14.336-.252.253-.575.436-.732.55-1.63-2.023-3.094-4.027-4.75-5.857-4.227-4.672-9.046-8.724-13.735-12.908-3.686-3.276-7.373-6.562-10.937-9.97-2.903-2.78-5.404-5.926-7.243-9.526-2.335-4.566-2.963-9.386-1.499-14.31 1.761-5.935 5.787-9.918 11.417-12.332 3.905-1.673 7.983-1.865 12.045-.924 4.706 1.09 8.523 3.757 11.53 7.504 1.351 1.682 2.492 3.539 3.739 5.308.13.183.348.305.523.462.139-.183.322-.358.418-.558.418-.907.758-1.848 1.229-2.72 1.385-2.544 2.728-5.141 5.534-6.5l-1.395-2.432zm-5.83 76.475c-.07.576-.314 1.133-.889 1.151-.401.017-.889-.305-1.194-.619-.27-.279-.418-.732-.479-1.133-.331-1.996.279-3.835 1.054-5.647.802 2.04 1.787 3.991 1.508 6.248z" fill="#E48E9E"/><path d="M481.308 51.742c-.026-.915-.043-1.813-.069-2.71-.715-.14-1.386-.13-1.926-.41-2.667-1.36-4.916-.375-7.103 1.124l-.087.053c-8.079 4.532-15.104 10.275-20.481 17.91-.113.165-.331.33-.523.374-1.107.227-2.754-.67-3.469-1.856-.889-1.473-.88-2.397.018-3.6 2.902-3.921 5.97-7.695 9.43-11.138.209-.209.226-.653.261-.993.052-.584-.174-1.42.122-1.7.322-.296 1.168-.191 1.708-.017.514.166.802.096 1.22-.21 1.351-.993 2.658-2.09 4.149-2.832 2.083-1.037 2.091-3.773 1.037-5.176-1.081-1.438-2.118-2.929-3.042-4.48-2.876-4.828-5.673-9.7-7.809-14.92-.235-.584-.165-.933.271-1.36 2.553-2.519 5.124-5.029 7.599-7.626.776-.819 1.386-.854 2.362-.436 5.177 2.223 9.988 5.125 14.894 7.862 5.935 3.32 9.491 8.358 11.295 14.772.331 1.194.593 2.414.941 3.817.924-.104 1.866-.21 2.894-.331-.192 6.37-6.484 12.01-13.692 13.883zm2.414-11.504c-3.146 3.382-6.832 4.01-11.992 2.048 1.238 2.336 5.256 3.835 8.655 3.225 4.34-.776 7.678-4.262 8.227-8.585.444-3.538-1.29-7.442-3.844-8.636 2.301 4.863 1.961 8.724-1.046 11.948zM456.967 0l-13.77 13.77c3.015 1.473 5.961 2.91 8.933 4.366 2.972-2.972 5.909-5.9 8.82-8.846.148-.148.287-.505.218-.662A988.607 988.607 0 00456.967 0z" fill="#383838"/><path d="M484.777 28.29c1.089 2.318 1.586 4.4 1.482 6.31-.114 2.091-.959 3.956-2.528 5.647-1.969 2.118-4.148 3.155-6.763 3.155-1.568 0-3.294-.375-5.229-1.107.514.967 1.508 1.795 2.737 2.388a10.24 10.24 0 004.157.967h.366c.47-.008.932-.052 1.386-.13a10.68 10.68 0 002.048-.593c3.311-1.351 5.726-4.375 6.179-7.992.035-.305.061-.601.069-.906.044-2.005-.557-4.044-1.56-5.57-.644-.984-1.438-1.742-2.344-2.17z" fill="#A6A9AF"/><path d="M474.476 44.674c.418.2.862.375 1.324.514a10.392 10.392 0 01-1.324-.514zm14.205-8.663a7.75 7.75 0 01-.069.907c-.453 3.616-2.868 6.64-6.179 7.991 3.311-1.35 5.726-4.375 6.179-7.991a7.75 7.75 0 00.069-.907zm-2.422-1.412c-.114 2.092-.959 3.957-2.528 5.648-1.969 2.118-4.148 3.155-6.763 3.155-1.568 0-3.294-.375-5.229-1.107 1.935.74 3.661 1.107 5.229 1.107 2.615 0 4.794-1.037 6.763-3.155 1.569-1.7 2.406-3.565 2.528-5.648zm-1.482-6.31c.898.428 1.7 1.186 2.344 2.153-.644-.967-1.438-1.725-2.344-2.152zM428.878 25.788c.226-.06.435-.043.697.174.209.166.61.28.854.192a89.807 89.807 0 004.837-1.804c.436-.174.802-.296 1.298-.261.454.026.977-.288 1.369-.593.13-.104.035-.671-.122-.941-.331-.593-.192-.959.313-1.351.898-.689 1.761-1.412 2.624-2.135.34-.28.287-.61.043-.941-.252-.35-.549-.323-.862-.105-.454.314-.898.654-1.343.976-.688.497-1.385.994-2.126 1.534-.584-.88-1.063-1.7-1.639-2.449-.435-.575-.287-.898.236-1.273.932-.67 1.821-1.403 2.736-2.108.462-.367.227-.75.018-1.116-.253-.445-.549-.227-.828-.026-.88.636-1.743 1.29-2.624 1.917-.827.593-.836.593-1.49-.165a26.486 26.486 0 00-.514-.558c-.427.488-.994.88-1.159 1.403-.148.462-.323.828-.662 1.159-1.351 1.307-2.371 2.85-3.243 4.506-.122.235-.156.662-.026.854.122.174.157.314.14.436" fill="#383838"/></svg>