<svg width="176" height="62" fill="none" xmlns="http://www.w3.org/2000/svg"><g clip-path="url(#prefix__clip0)" fill="#00093C" opacity=".4"><path d="M9.586 25.415l-2.83-.395c-2.927-.382-3.828-.98-3.828-2.375 0-1.46 1.565-2.415 4.848-2.415 3.086 0 5.356.875 5.5 3.375h2.178c-.053-3.631-3.033-5.184-7.507-5.184-4.105 0-7.236 1.336-7.236 4.382 0 2.532 1.138 3.486 5.697 4.177l2.829.388c3.914.593 4.69 1.139 4.69 2.665 0 1.283-1.052 2.796-5.677 2.796-3.263 0-5.77-1.329-6.007-3.684H0c.368 3.842 3.513 5.513 8.158 5.513 5.27 0 7.974-1.94 7.974-4.816 0-2.77-1.52-3.816-6.546-4.427zm106.552-6.928c-2.368 0-4.743.914-5.954 3.224-.822-2.25-2.809-3.224-5.533-3.224-2.454 0-4.473.934-5.658 2.855v-2.42h-2.04v15.242H99.1v-8.546c0-3.388 1.947-5.328 5.019-5.328 3.198 0 4.29 1.907 4.29 4.493v9.381h2.184v-8.552l.02.006c0-3.388 1.927-5.328 5-5.328 3.276 0 4.283 2.02 4.283 4.493v9.381h2.184v-9.848c-.013-4.105-2.336-5.83-5.941-5.83zm51.724 9.625c.046 3.006-2.605 4.704-6.54 4.704-2.855 0-4.388-1.132-4.388-2.724 0-1.69.849-2.566 5.217-3.033 3.921-.408 5.171-.875 5.717-1.427v2.48h-.006zm-4.783-9.697c-4.395 0-7.546 1.546-7.763 5.21h2.112c.131-2.276 2.447-3.401 5.355-3.401 2.671 0 5.079.829 5.079 2.677 0 1.52-1.349 1.928-5.678 2.402-4.96.54-7.566 1.644-7.566 4.782 0 3.073 2.415 4.468 6.303 4.468 3.487 0 5.908-1.158 6.987-3.013v2.618h2.105V23.27c0-3.441-2.526-4.855-6.934-4.855zm-82.724 6.92c.421-2.77 2.763-5.092 6.52-5.092 3.934 0 5.96 2.494 6.217 5.093H80.355zm6.54-6.934c-5.757 0-8.763 3.941-8.763 8.139 0 4.355 3.04 8.052 8.526 8.052 3.757 0 7.263-1.967 8.224-5.434H92.69c-.612 1.855-2.665 3.592-5.948 3.592-4.217 0-6.17-2.553-6.44-5.69h15.032c.02-.25.033-.606.033-.744 0-3.915-2.44-7.915-8.473-7.915zm-60.783.086c-2.803 0-4.967 1.04-6.263 3.079V15h-2.152v19.164h2.152v-8.907c0-2.691 2.151-4.908 5.954-4.908 3.256 0 4.67 1.486 4.67 3.934l-.006 9.875h2.184v-9.842c0-4.105-2.526-5.83-6.54-5.83zm110.901 9.276c0 2.671-2.164 5.02-5.98 5.02-3.263 0-4.711-1.487-4.711-3.915v-9.947h-2.138v9.869c0 4.092 2.513 5.815 6.553 5.815 3.454 0 5.506-1.71 6.368-3.335v2.901h2.027v-15.25h-2.119v8.842zm-62.73 0c0 2.671-2.132 5.02-5.954 5.02-3.243 0-4.71-1.487-4.71-3.915v-9.947h-2.126v9.869c0 4.092 2.514 5.815 6.527 5.815 3.467 0 5.52-1.71 6.388-3.335v2.901h2.026v-15.25H74.29v8.842h-.007zm-26.724 0c0 2.671-2.138 5.02-5.954 5.02-3.256 0-4.71-1.487-4.71-3.915v-9.947h-2.138v9.869c0 4.092 2.52 5.815 6.54 5.815 3.453 0 5.512-1.71 6.374-3.335v2.901h2.026v-15.25h-2.144v8.842h.006zm100.934-9.329c-2.065 0-4.098.757-5.177 2.599V18.92h-2.073v15.243h2.132v-9.447c0-2.81 1.947-4.506 4.724-4.506 2.677 0 3.875 1.335 4.125 3.407h2.059c-.026-3.125-2.329-5.184-5.79-5.184zM111.783 40.138c-1.849 0-3.191.651-3.283 2.191h.888c.053-.954 1.053-1.428 2.277-1.428 1.125 0 2.138.349 2.138 1.125 0 .632-.566.81-2.388 1.007-2.106.224-3.204.704-3.204 2.02 0 1.29 1.013 1.894 2.671 1.894 1.467 0 2.48-.5 2.934-1.276v1.099h.881v-4.586c-.006-1.447-1.065-2.046-2.914-2.046zm2.007 4.086c.019 1.263-1.093 1.973-2.75 1.973-1.198 0-1.869-.48-1.869-1.144 0-.71.369-1.073 2.211-1.27 1.651-.178 2.171-.369 2.401-.612v1.053h.007zM157.329 40.138c-1.849 0-3.191.651-3.283 2.191h.888c.053-.954 1.053-1.428 2.277-1.428 1.125 0 2.131.349 2.131 1.125 0 .632-.566.81-2.381 1.007-2.106.224-3.204.704-3.204 2.02 0 1.29 1.013 1.894 2.671 1.894 1.467 0 2.486-.5 2.934-1.276v1.099h.881v-4.586c-.006-1.447-1.065-2.046-2.914-2.046zm2.007 4.086c.019 1.263-1.093 1.973-2.75 1.973-1.198 0-1.869-.48-1.869-1.144 0-.71.369-1.073 2.211-1.27 1.644-.178 2.171-.369 2.401-.612v1.053h.007zM149.757 40.171c-1.178 0-2.086.44-2.639 1.296v-2.77h-.907v8.066h.907v-3.75c0-1.131.915-2.059 2.514-2.059 1.381 0 1.973.618 1.973 1.651l-.006 4.158h.921v-4.145c-.007-1.73-1.066-2.447-2.763-2.447zM167.566 40.145c-.869 0-1.73.316-2.184 1.092v-.882h-.875v6.415h.894v-3.974c0-1.184.823-1.895 1.994-1.895 1.125 0 1.631.566 1.73 1.434h.868c-.013-1.322-.973-2.19-2.427-2.19zM119.401 40.145c-.868 0-1.73.316-2.184 1.092v-.882h-.875v6.415h.895v-3.974c0-1.184.822-1.895 1.993-1.895 1.125 0 1.625.566 1.73 1.434h.869c-.007-1.322-.974-2.19-2.428-2.19zM138.408 41.164h.868v5.612h.882v-4.184-1.421h1.336v-.77h-1.329c0-.006-.007-.487.006-.546.112-.546.822-.394 1.323-.375 0-.118-.001-.592.006-.684-.289-.046-.993-.085-1.263-.033-.197.033-.283.046-.408.112-.414.21-.546.605-.553 1.086v.447h-.868v.756zM162.822 38.704h-.881v.934h.881v-.934zM161.934 46.776h.888V40.35h-.888v6.427zM123.184 41.125v3.757c0 .506-.02.861.059 1.098.329.783 1.053.79 1.718.79h.453v-.75c-.427 0-.947.059-1.197-.217-.105-.119-.151-.31-.151-.494-.007-1.467 0-2.717 0-4.177h1.348v-.777h-1.348v-1.677h-.888v1.677h-.862v.777c.23-.007.73-.007.868-.007zM133.901 40.855c1.757 0 2.625 1.33 2.625 2.658 0 1.33-.868 2.671-2.625 2.658-1.934-.02-2.605-1.329-2.625-2.658-.026-1.388.869-2.658 2.625-2.658zm-.019-.809c-2.112 0-3.632 1.592-3.632 3.48s1.375 3.48 3.632 3.48c2.217 0 3.631-1.592 3.631-3.48s-1.395-3.48-3.631-3.48z"/></g><defs><clipPath id="prefix__clip0"><path fill="#fff" d="M0 15h170.013v32H0z"/></clipPath></defs></svg>